  0
SECTION
  2
HEADER
  9
$ACADVER
  1
AC1024
  9
$ACADMAINTVER
 70
     6
  9
$DWGCODEPAGE
  3
UNDEFINED
  9
$INSBASE
 10
0.0
 20
0.0
 30
0.0
  9
$EXTMIN
 10
1.000000000000000E+20
 20
1.000000000000000E+20
 30
1.000000000000000E+20
  9
$EXTMAX
 10
-1.000000000000000E+20
 20
-1.000000000000000E+20
 30
-1.000000000000000E+20
  9
$LIMMIN
 10
0.0
 20
0.0
  9
$LIMMAX
 10
12.0
 20
9.0
  9
$ORTHOMODE
 70
     0
  9
$REGENMODE
 70
     1
  9
$FILLMODE
 70
     1
  9
$QTEXTMODE
 70
     0
  9
$MIRRTEXT
 70
     1
  9
$LTSCALE
 40
1.0
  9
$ATTMODE
 70
     1
  9
$TEXTSIZE
 40
0.2
  9
$TRACEWID
 40
0.05
  9
$TEXTSTYLE
  7
Standard
  9
$CLAYER
  8
0
  9
$CELTYPE
  6
ByLayer
  9
$CECOLOR
 62
   256
  9
$CELTSCALE
 40
1.0
  9
$DISPSILH
 70
     0
  9
$DIMSCALE
 40
1.0
  9
$DIMASZ
 40
0.18
  9
$DIMEXO
 40
0.0625
  9
$DIMDLI
 40
0.38
  9
$DIMRND
 40
0.0
  9
$DIMDLE
 40
0.0
  9
$DIMEXE
 40
0.18
  9
$DIMTP
 40
0.0
  9
$DIMTM
 40
0.0
  9
$DIMTXT
 40
0.18
  9
$DIMCEN
 40
0.09
  9
$DIMTSZ
 40
0.0
  9
$DIMTOL
 70
     0
  9
$DIMLIM
 70
     0
  9
$DIMTIH
 70
     1
  9
$DIMTOH
 70
     1
  9
$DIMSE1
 70
     0
  9
$DIMSE2
 70
     0
  9
$DIMTAD
 70
     0
  9
$DIMZIN
 70
     0
  9
$DIMBLK
  1

  9
$DIMASO
 70
     1
  9
$DIMSHO
 70
     1
  9
$DIMPOST
  1

  9
$DIMAPOST
  1

  9
$DIMALT
 70
     0
  9
$DIMALTD
 70
     2
  9
$DIMALTF
 40
25.4
  9
$DIMLFAC
 40
1.0
  9
$DIMTOFL
 70
     0
  9
$DIMTVP
 40
0.0
  9
$DIMTIX
 70
     0
  9
$DIMSOXD
 70
     0
  9
$DIMSAH
 70
     0
  9
$DIMBLK1
  1

  9
$DIMBLK2
  1

  9
$DIMSTYLE
  2
Standard
  9
$DIMCLRD
 70
     0
  9
$DIMCLRE
 70
     0
  9
$DIMCLRT
 70
     0
  9
$DIMTFAC
 40
1.0
  9
$DIMGAP
 40
0.09
  9
$DIMJUST
 70
     0
  9
$DIMSD1
 70
     0
  9
$DIMSD2
 70
     0
  9
$DIMTOLJ
 70
     1
  9
$DIMTZIN
 70
     0
  9
$DIMALTZ
 70
     0
  9
$DIMALTTZ
 70
     0
  9
$DIMUPT
 70
     0
  9
$DIMDEC
 70
     4
  9
$DIMTDEC
 70
     4
  9
$DIMALTU
 70
     2
  9
$DIMALTTD
 70
     2
  9
$DIMTXSTY
  7
Standard
  9
$DIMAUNIT
 70
     0
  9
$DIMADEC
 70
     0
  9
$DIMALTRND
 40
0.0
  9
$DIMAZIN
 70
     0
  9
$DIMDSEP
 70
    46
  9
$DIMATFIT
 70
     3
  9
$DIMFRAC
 70
     0
  9
$DIMLDRBLK
  1

  9
$DIMLUNIT
 70
     2
  9
$DIMLWD
 70
    -2
  9
$DIMLWE
 70
    -2
  9
$DIMTMOVE
 70
     0
  9
$DIMFXL
 40
1.0
  9
$DIMFXLON
 70
     0
  9
$DIMJOGANG
 40
0.7853981633974483
  9
$DIMTFILL
 70
     0
  9
$DIMTFILLCLR
 70
     0
  9
$DIMARCSYM
 70
     0
  9
$DIMLTYPE
  6

  9
$DIMLTEX1
  6

  9
$DIMLTEX2
  6

  9
$DIMTXTDIRECTION
 70
     0
  9
$LUNITS
 70
     2
  9
$LUPREC
 70
     4
  9
$SKETCHINC
 40
0.1
  9
$FILLETRAD
 40
0.5
  9
$AUNITS
 70
     0
  9
$AUPREC
 70
     0
  9
$MENU
  1
.
  9
$ELEVATION
 40
0.0
  9
$PELEVATION
 40
0.0
  9
$THICKNESS
 40
0.0
  9
$LIMCHECK
 70
     0
  9
$CHAMFERA
 40
0.5
  9
$CHAMFERB
 40
0.5
  9
$CHAMFERC
 40
1.0
  9
$CHAMFERD
 40
0.0
  9
$SKPOLY
 70
     0
  9
$TDCREATE
 40
2459486.548217581
  9
$TDUCREATE
 40
2459486.756550926
  9
$TDUPDATE
 40
2459486.548217581
  9
$TDUUPDATE
 40
2459486.756550926
  9
$TDINDWG
 40
0.0000000116
  9
$TDUSRTIMER
 40
0.0000000116
  9
$USRTIMER
 70
     1
  9
$ANGBASE
 50
0.0
  9
$ANGDIR
 70
     0
  9
$PDMODE
 70
     0
  9
$PDSIZE
 40
0.0
  9
$PLINEWID
 40
0.0
  9
$SPLFRAME
 70
     0
  9
$SPLINETYPE
 70
     6
  9
$SPLINESEGS
 70
     8
  9
$HANDSEED
  5
19C
  9
$SURFTAB1
 70
     6
  9
$SURFTAB2
 70
     6
  9
$SURFTYPE
 70
     6
  9
$SURFU
 70
     6
  9
$SURFV
 70
     6
  9
$UCSBASE
  2

  9
$UCSNAME
  2

  9
$UCSORG
 10
0.0
 20
0.0
 30
0.0
  9
$UCSXDIR
 10
1.0
 20
0.0
 30
0.0
  9
$UCSYDIR
 10
0.0
 20
1.0
 30
0.0
  9
$UCSORTHOREF
  2

  9
$UCSORTHOVIEW
 70
     0
  9
$UCSORGTOP
 10
0.0
 20
0.0
 30
0.0
  9
$UCSORGBOTTOM
 10
0.0
 20
0.0
 30
0.0
  9
$UCSORGLEFT
 10
0.0
 20
0.0
 30
0.0
  9
$UCSORGRIGHT
 10
0.0
 20
0.0
 30
0.0
  9
$UCSORGFRONT
 10
0.0
 20
0.0
 30
0.0
  9
$UCSORGBACK
 10
0.0
 20
0.0
 30
0.0
  9
$PUCSBASE
  2

  9
$PUCSNAME
  2

  9
$PUCSORG
 10
0.0
 20
0.0
 30
0.0
  9
$PUCSXDIR
 10
1.0
 20
0.0
 30
0.0
  9
$PUCSYDIR
 10
0.0
 20
1.0
 30
0.0
  9
$PUCSORTHOREF
  2

  9
$PUCSORTHOVIEW
 70
     0
  9
$PUCSORGTOP
 10
0.0
 20
0.0
 30
0.0
  9
$PUCSORGBOTTOM
 10
0.0
 20
0.0
 30
0.0
  9
$PUCSORGLEFT
 10
0.0
 20
0.0
 30
0.0
  9
$PUCSORGRIGHT
 10
0.0
 20
0.0
 30
0.0
  9
$PUCSORGFRONT
 10
0.0
 20
0.0
 30
0.0
  9
$PUCSORGBACK
 10
0.0
 20
0.0
 30
0.0
  9
$USERI1
 70
     0
  9
$USERI2
 70
     0
  9
$USERI3
 70
     0
  9
$USERI4
 70
     0
  9
$USERI5
 70
     0
  9
$USERR1
 40
0.0
  9
$USERR2
 40
0.0
  9
$USERR3
 40
0.0
  9
$USERR4
 40
0.0
  9
$USERR5
 40
0.0
  9
$WORLDVIEW
 70
     1
  9
$SHADEDGE
 70
     3
  9
$SHADEDIF
 70
    70
  9
$TILEMODE
 70
     1
  9
$MAXACTVP
 70
    64
  9
$PINSBASE
 10
0.0
 20
0.0
 30
0.0
  9
$PLIMCHECK
 70
     0
  9
$PEXTMIN
 10
1.000000000000000E+20
 20
1.000000000000000E+20
 30
1.000000000000000E+20
  9
$PEXTMAX
 10
-1.000000000000000E+20
 20
-1.000000000000000E+20
 30
-1.000000000000000E+20
  9
$PLIMMIN
 10
0.0
 20
0.0
  9
$PLIMMAX
 10
12.0
 20
9.0
  9
$UNITMODE
 70
     0
  9
$VISRETAIN
 70
     1
  9
$PLINEGEN
 70
     0
  9
$PSLTSCALE
 70
     1
  9
$TREEDEPTH
 70
  3020
  9
$CMLSTYLE
  2
Standard
  9
$CMLJUST
 70
     0
  9
$CMLSCALE
 40
1.0
  9
$PROXYGRAPHICS
 70
     1
  9
$MEASUREMENT
 70
     0
  9
$CELWEIGHT
370
    -1
  9
$ENDCAPS
280
     0
  9
$JOINSTYLE
280
     0
  9
$LWDISPLAY
290
     1
  9
$INSUNITS
 70
     4
  9
$HYPERLINKBASE
  1

  9
$STYLESHEET
  1

  9
$XEDIT
290
     1
  9
$CEPSNTYPE
380
     0
  9
$PSTYLEMODE
290
     1
  9
$FINGERPRINTGUID
  2
{B1FEE8AF-DE97-C099-2913-230C3B19B836}
  9
$VERSIONGUID
  2
{FAEB1C32-E019-11D5-929B-00C0DF256EC4}
  9
$EXTNAMES
290
     1
  9
$PSVPSCALE
 40
0.0
  9
$OLESTARTUP
290
     0
  9
$SORTENTS
280
   127
  9
$INDEXCTL
280
     0
  9
$HIDETEXT
280
     1
  9
$XCLIPFRAME
280
     2
  9
$HALOGAP
280
     0
  9
$OBSCOLOR
 70
   257
  9
$OBSLTYPE
280
     0
  9
$INTERSECTIONDISPLAY
280
     0
  9
$INTERSECTIONCOLOR
 70
   257
  9
$DIMASSOC
280
     2
  9
$PROJECTNAME
  1

  9
$CAMERADISPLAY
290
     0
  9
$LENSLENGTH
 40
50.0
  9
$CAMERAHEIGHT
 40
0.0
  9
$STEPSPERSEC
 40
2.0
  9
$STEPSIZE
 40
6.0
  9
$3DDWFPREC
 40
2.0
  9
$PSOLWIDTH
 40
0.25
  9
$PSOLHEIGHT
 40
4.0
  9
$LOFTANG1
 40
1.570796326794897
  9
$LOFTANG2
 40
1.570796326794897
  9
$LOFTMAG1
 40
0.0
  9
$LOFTMAG2
 40
0.0
  9
$LOFTPARAM
 70
     7
  9
$LOFTNORMALS
280
     1
  9
$LATITUDE
 40
37.795
  9
$LONGITUDE
 40
-122.394
  9
$NORTHDIRECTION
 40
0.0
  9
$TIMEZONE
 70
 -8000
  9
$LIGHTGLYPHDISPLAY
280
     1
  9
$TILEMODELIGHTSYNCH
280
     1
  9
$CMATERIAL
347
3C
  9
$SOLIDHIST
280
     1
  9
$SHOWHIST
280
     1
  9
$DWFFRAME
280
     2
  9
$DGNFRAME
280
     2
  9
$REALWORLDSCALE
290
     1
  9
$INTERFERECOLOR
 62
   256
  9
$CSHADOW
280
     0
  9
$SHADOWPLANELOCATION
 40
0.0
  0
ENDSEC
  0
SECTION
  2
CLASSES
  0
CLASS
  1
ACDBDICTIONARYWDFLT
  2
AcDbDictionaryWithDefault
  3
ObjectDBX Classes
 90
        0
 91
        4
280
     0
281
     0
  0
CLASS
  1
VISUALSTYLE
  2
AcDbVisualStyle
  3
ObjectDBX Classes
 90
     4095
 91
        4
280
     0
281
     0
  0
CLASS
  1
MATERIAL
  2
AcDbMaterial
  3
ObjectDBX Classes
 90
     1153
 91
        4
280
     0
281
     0
  0
CLASS
  1
SUN
  2
AcDbSun
  3
SCENEOE
 90
     1024
 91
        4
280
     0
281
     0
  0
ENDSEC
  0
SECTION
  2
TABLES
  0
TABLE
  2
VPORT
  5
8
330
0
100
AcDbSymbolTable
 70
     1
  0
VPORT
  5
29
330
8
100
AcDbSymbolTableRecord
100
AcDbViewportTableRecord
  2
*Active
 70
     0
 10
0.0
 20
0.0
 11
1.0
 21
1.0
 12
0.0
 22
0.0
 13
0.0
 23
0.0
 14
0.5
 24
0.5
 15
0.5
 25
0.5
 16
0.0
 26
0.0
 36
1.0
 17
107.9499999730125
 27
139.699999965075
 37
0.0
 40
279.39999993015
 41
0.7727272727272728
 42
50.0
 43
0.0
 44
0.0
 50
0.0
 51
0.0
 71
     0
 72
   100
 73
     1
 74
     3
 75
     0
 76
     0
 77
     0
 78
     0
281
     0
 65
     1
110
0.0
120
0.0
130
0.0
111
1.0
121
0.0
131
0.0
112
0.0
122
1.0
132
0.0
 79
     0
146
0.0
 60
     3
 61
     5
292
     1
282
     1
141
0.0
142
0.0
 63
   250
361
3F
  0
ENDTAB
  0
TABLE
  2
LTYPE
  5
5
330
0
100
AcDbSymbolTable
 70
     1
  0
LTYPE
  5
14
330
5
100
AcDbSymbolTableRecord
100
AcDbLinetypeTableRecord
  2
ByBlock
 70
     0
  3

 72
    65
 73
     0
 40
0.0
  0
LTYPE
  5
15
330
5
100
AcDbSymbolTableRecord
100
AcDbLinetypeTableRecord
  2
ByLayer
 70
     0
  3

 72
    65
 73
     0
 40
0.0
  0
LTYPE
  5
16
330
5
100
AcDbSymbolTableRecord
100
AcDbLinetypeTableRecord
  2
Continuous
 70
     0
  3
Solid line
 72
    65
 73
     0
 40
0.0
  0
ENDTAB
  0
TABLE
  2
LAYER
  5
2
330
0
100
AcDbSymbolTable
 70
     3
  0
LAYER
  5
10
330
2
100
AcDbSymbolTableRecord
100
AcDbLayerTableRecord
  2
0
 70
     0
 62
     7
  6
Continuous
370
    -3
390
F
347
3E
  0
LAYER
  5
40
330
2
100
AcDbSymbolTableRecord
100
AcDbLayerTableRecord
  2
Layer 1
 70
     0
 62
     7
  6
Continuous
370
    -3
390
F
347
3E
  0
LAYER
  5
6E
330
2
100
AcDbSymbolTableRecord
100
AcDbLayerTableRecord
  2
Layer 2
 70
     0
 62
     7
  6
Continuous
370
    -3
390
F
347
3E
  0
ENDTAB
  0
TABLE
  2
STYLE
  5
3
330
0
100
AcDbSymbolTable
 70
     1
  0
STYLE
  5
11
330
3
100
AcDbSymbolTableRecord
100
AcDbTextStyleTableRecord
  2
Standard
 70
     0
 40
0.0
 41
1.0
 50
0.0
 71
     0
 42
0.2
  3
txt
  4

  0
ENDTAB
  0
TABLE
  2
VIEW
  5
6
330
0
100
AcDbSymbolTable
 70
     0
  0
ENDTAB
  0
TABLE
  2
UCS
  5
7
330
0
100
AcDbSymbolTable
 70
     0
  0
ENDTAB
  0
TABLE
  2
APPID
  5
9
330
0
100
AcDbSymbolTable
 70
     1
  0
APPID
  5
12
330
9
100
AcDbSymbolTableRecord
100
AcDbRegAppTableRecord
  2
ACAD
 70
     0
  0
ENDTAB
  0
TABLE
  2
DIMSTYLE
  5
A
330
0
100
AcDbSymbolTable
 70
     1
100
AcDbDimStyleTable
  0
DIMSTYLE
105
27
330
A
100
AcDbSymbolTableRecord
100
AcDbDimStyleTableRecord
  2
Standard
 70
     0
178
     0
340
11
  0
ENDTAB
  0
TABLE
  2
BLOCK_RECORD
  5
1
330
0
100
AcDbSymbolTable
 70
    11
  0
BLOCK_RECORD
  5
1F
330
1
100
AcDbSymbolTableRecord
100
AcDbBlockTableRecord
  2
*Model_Space
340
22
 70
     0
280
     1
281
     0
  0
BLOCK_RECORD
  5
1B
330
1
100
AcDbSymbolTableRecord
100
AcDbBlockTableRecord
  2
*Paper_Space
340
1E
 70
     0
280
     1
281
     0
  0
BLOCK_RECORD
  5
23
330
1
100
AcDbSymbolTableRecord
100
AcDbBlockTableRecord
  2
*Paper_Space0
340
26
 70
     0
280
     1
281
     0
  0
BLOCK_RECORD
  5
41
330
1
100
AcDbSymbolTableRecord
100
AcDbBlockTableRecord
  2
block 2
340
0
102
{BLKREFS
331
42
102
}
 70
     0
280
     1
281
     0
  0
BLOCK_RECORD
  5
46
330
1
100
AcDbSymbolTableRecord
100
AcDbBlockTableRecord
  2
block 3
340
0
102
{BLKREFS
331
47
102
}
 70
     0
280
     1
281
     0
  0
BLOCK_RECORD
  5
4B
330
1
100
AcDbSymbolTableRecord
100
AcDbBlockTableRecord
  2
block 4
340
0
102
{BLKREFS
331
4C
102
}
 70
     0
280
     1
281
     0
  0
BLOCK_RECORD
  5
50
330
1
100
AcDbSymbolTableRecord
100
AcDbBlockTableRecord
  2
block 5
340
0
102
{BLKREFS
331
51
102
}
 70
     0
280
     1
281
     0
  0
BLOCK_RECORD
  5
55
330
1
100
AcDbSymbolTableRecord
100
AcDbBlockTableRecord
  2
block 6
340
0
102
{BLKREFS
331
56
102
}
 70
     0
280
     1
281
     0
  0
BLOCK_RECORD
  5
5A
330
1
100
AcDbSymbolTableRecord
100
AcDbBlockTableRecord
  2
block 7
340
0
102
{BLKREFS
331
5B
102
}
 70
     0
280
     1
281
     0
  0
BLOCK_RECORD
  5
5F
330
1
100
AcDbSymbolTableRecord
100
AcDbBlockTableRecord
  2
block 8
340
0
102
{BLKREFS
331
60
102
}
 70
     0
280
     1
281
     0
  0
BLOCK_RECORD
  5
64
330
1
100
AcDbSymbolTableRecord
100
AcDbBlockTableRecord
  2
block 9
340
0
102
{BLKREFS
331
65
102
}
 70
     0
280
     1
281
     0
  0
BLOCK_RECORD
  5
69
330
1
100
AcDbSymbolTableRecord
100
AcDbBlockTableRecord
  2
block 10
340
0
102
{BLKREFS
331
6A
102
}
 70
     0
280
     1
281
     0
  0
BLOCK_RECORD
  5
6F
330
1
100
AcDbSymbolTableRecord
100
AcDbBlockTableRecord
  2
block 11
340
0
102
{BLKREFS
331
70
102
}
 70
     0
280
     1
281
     0
  0
ENDTAB
  0
ENDSEC
  0
SECTION
  2
BLOCKS
  0
BLOCK
  5
20
330
1F
100
AcDbEntity
  8
0
100
AcDbBlockBegin
  2
*Model_Space
 70
     0
 10
0.0
 20
0.0
 30
0.0
  3
*Model_Space
  1

  0
ENDBLK
  5
21
330
1F
100
AcDbEntity
  8
0
100
AcDbBlockEnd
  0
BLOCK
  5
1C
330
1B
100
AcDbEntity
 67
     1
  8
0
100
AcDbBlockBegin
  2
*Paper_Space
 70
     0
 10
0.0
 20
0.0
 30
0.0
  3
*Paper_Space
  1

  0
ENDBLK
  5
1D
330
1B
100
AcDbEntity
 67
     1
  8
0
100
AcDbBlockEnd
  0
BLOCK
  5
24
330
23
100
AcDbEntity
  8
0
100
AcDbBlockBegin
  2
*Paper_Space0
 70
     0
 10
0.0
 20
0.0
 30
0.0
  3
*Paper_Space0
  1

  0
ENDBLK
  5
25
330
23
100
AcDbEntity
  8
0
100
AcDbBlockEnd
  0
BLOCK
  5
43
330
41
100
AcDbEntity
  8
0
100
AcDbBlockBegin
  2
block 2
 70
     0
 10
0.0
 20
0.0
 30
0.0
  3
block 2
  1

  0
SPLINE
  5
45
330
41
100
AcDbEntity
  8
Layer 1
 62
   195
420
  7949726
370
    25
100
AcDbSpline
210
0.0
220
0.0
230
1.0
 70
    11
 71
     3
 72
    65
 73
    61
 74
     0
 42
0.0000000001
 43
0.0000000001
 12
1.0
 22
0.0
 32
0.0
 13
1.0
 23
0.0
 33
0.0
 40
0.0
 40
0.0
 40
0.0
 40
0.0
 40
1.0
 40
1.0
 40
1.0
 40
2.0
 40
2.0
 40
2.0
 40
3.0
 40
3.0
 40
3.0
 40
4.0
 40
4.0
 40
4.0
 40
5.0
 40
5.0
 40
5.0
 40
6.0
 40
6.0
 40
6.0
 40
7.0
 40
7.0
 40
7.0
 40
8.0
 40
8.0
 40
8.0
 40
9.0
 40
9.0
 40
9.0
 40
10.0
 40
10.0
 40
10.0
 40
11.0
 40
11.0
 40
11.0
 40
12.0
 40
12.0
 40
12.0
 40
13.0
 40
13.0
 40
13.0
 40
14.0
 40
14.0
 40
14.0
 40
15.0
 40
15.0
 40
15.0
 40
16.0
 40
16.0
 40
16.0
 40
17.0
 40
17.0
 40
17.0
 40
18.0
 40
18.0
 40
18.0
 40
19.0
 40
19.0
 40
19.0
 40
20.0
 40
20.0
 40
20.0
 40
20.0
 10
24.98764376545408
 20
195.3249423068545
 30
0.0
 10
24.98764376545408
 20
195.3249423068545
 30
0.0
 10
198.4373561786892
 20
195.3249423068545
 30
0.0
 10
198.4373561786892
 20
195.3249423068545
 30
0.0
 10
200.6464951774599
 20
195.3249423068545
 30
0.0
 10
202.4373561776895
 20
193.5340813066255
 30
0.0
 10
202.4373561776895
 20
191.3249423078545
 30
0.0
 10
202.4373561776895
 20
191.3249423078545
 30
0.0
 10
202.4373561776895
 20
88.07505762229584
 30
0.0
 10
202.4373561776895
 20
88.07505762229584
 30
0.0
 10
202.4373561776895
 20
85.86591862352518
 30
0.0
 10
200.6464951774599
 20
84.07505762329548
 30
0.0
 10
198.4373561786892
 20
84.07505762329548
 30
0.0
 10
198.4373561786892
 20
84.07505762329548
 30
0.0
 10
29.7501437642641
 20
84.07505762329548
 30
0.0
 10
29.7501437642641
 20
84.07505762329548
 30
0.0
 10
28.64557426487876
 20
84.07505762329548
 30
0.0
 10
27.75014376476391
 20
84.97048812341032
 30
0.0
 10
27.75014376476391
 20
86.07505762279631
 30
0.0
 10
27.75014376476391
 20
86.07505762279631
 30
0.0
 10
27.75014376476391
 20
128.1750576122704
 30
0.0
 10
27.75014376476391
 20
128.1750576122704
 30
0.0
 10
27.75014376476391
 20
129.2796271116551
 30
0.0
 10
26.85471326464906
 20
130.1750576117699
 30
0.0
 10
25.75014376526372
 20
130.1750576117699
 30
0.0
 10
25.75014376526372
 20
130.1750576117699
 30
0.0
 10
20.22514376664535
 20
130.1750576117699
 30
0.0
 10
20.22514376664535
 20
130.1750576117699
 30
0.0
 10
19.12057426726
 20
130.1750576117699
 30
0.0
 10
18.22514376714516
 20
131.0704881118848
 30
0.0
 10
18.22514376714516
 20
132.1750576112708
 30
0.0
 10
18.22514376714516
 20
132.1750576112708
 30
0.0
 10
18.22514376714516
 20
147.2250576075079
 30
0.0
 10
18.22514376714516
 20
147.2250576075079
 30
0.0
 10
18.22514376714516
 20
148.3296271068929
 30
0.0
 10
17.32971326703031
 20
149.2250576070078
 30
0.0
 10
16.22514376764497
 20
149.2250576070078
 30
0.0
 10
16.22514376764497
 20
149.2250576070078
 30
0.0
 10
15.46264376783597
 20
149.2250576070078
 30
0.0
 10
15.46264376783597
 20
149.2250576070078
 30
0.0
 10
14.35807426845063
 20
149.2250576070078
 30
0.0
 10
13.46264376833578
 20
150.1204881071226
 30
0.0
 10
13.46264376833578
 20
151.225057606508
 30
0.0
 10
13.46264376833578
 20
151.225057606508
 30
0.0
 10
13.46264376833578
 20
166.2749423141171
 30
0.0
 10
13.46264376833578
 20
166.2749423141171
 30
0.0
 10
13.46264376833578
 20
167.3795118135024
 30
0.0
 10
14.35807426844999
 20
168.2749423136169
 30
0.0
 10
15.46264376783533
 20
168.2749423136169
 30
0.0
 10
15.46264376783533
 20
168.2749423136169
 30
0.0
 10
20.98764376645499
 20
168.2749423136169
 30
0.0
 10
20.98764376645499
 20
168.2749423136169
 30
0.0
 10
22.09221326584032
 20
168.2749423136169
 30
0.0
 10
22.98764376595453
 20
169.1703728137318
 30
0.0
 10
22.98764376595453
 20
170.2749423131168
 30
0.0
 10
22.98764376595453
 20
170.2749423131168
 30
0.0
 10
22.98764376595453
 20
193.3249423073547
 30
0.0
 10
22.98764376595453
 20
193.3249423073547
 30
0.0
 10
22.98764376595453
 20
194.42951180674
 30
0.0
 10
23.88307426606874
 20
195.3249423068545
 30
0.0
 10
24.98764376545408
 20
195.3249423068545
 30
0.0
  0
ENDBLK
  5
44
330
41
100
AcDbEntity
  8
0
100
AcDbBlockEnd
  0
BLOCK
  5
48
330
46
100
AcDbEntity
  8
0
100
AcDbBlockBegin
  2
block 3
 70
     0
 10
0.0
 20
0.0
 30
0.0
  3
block 3
  1

  0
SPLINE
  5
4A
330
46
100
AcDbEntity
  8
Layer 1
 62
   195
420
  7949726
370
    25
100
AcDbSpline
210
0.0
220
0.0
230
1.0
 70
    11
 71
     3
 72
    17
 73
    13
 74
     0
 42
0.0000000001
 43
0.0000000001
 12
1.0
 22
0.0
 32
0.0
 13
1.0
 23
0.0
 33
0.0
 40
0.0
 40
0.0
 40
0.0
 40
0.0
 40
1.0
 40
1.0
 40
1.0
 40
2.0
 40
2.0
 40
2.0
 40
3.0
 40
3.0
 40
3.0
 40
4.0
 40
4.0
 40
4.0
 40
4.0
 10
28.08764376467933
 20
191.3249746583486
 30
0.0
 10
28.08764376467933
 20
190.7174614337209
 30
0.0
 10
27.59515698958255
 20
190.2249746586235
 30
0.0
 10
26.98764376495426
 20
190.2249746586235
 30
0.0
 10
26.38013054032599
 20
190.2249746586235
 30
0.0
 10
25.88764376522919
 20
190.7174614337209
 30
0.0
 10
25.88764376522919
 20
191.3249746583486
 30
0.0
 10
25.88764376522919
 20
191.9324878829769
 30
0.0
 10
26.38013054032599
 20
192.4249746580736
 30
0.0
 10
26.98764376495426
 20
192.4249746580736
 30
0.0
 10
27.59515698958255
 20
192.4249746580736
 30
0.0
 10
28.08764376467933
 20
191.9324878829769
 30
0.0
 10
28.08764376467933
 20
191.3249746583486
 30
0.0
  0
ENDBLK
  5
49
330
46
100
AcDbEntity
  8
0
100
AcDbBlockEnd
  0
BLOCK
  5
4D
330
4B
100
AcDbEntity
  8
0
100
AcDbBlockBegin
  2
block 4
 70
     0
 10
0.0
 20
0.0
 30
0.0
  3
block 4
  1

  0
SPLINE
  5
4F
330
4B
100
AcDbEntity
  8
Layer 1
 62
   195
420
  7949726
370
    25
100
AcDbSpline
210
0.0
220
0.0
230
1.0
 70
    11
 71
     3
 72
    17
 73
    13
 74
     0
 42
0.0000000001
 43
0.0000000001
 12
1.0
 22
0.0
 32
0.0
 13
1.0
 23
0.0
 33
0.0
 40
0.0
 40
0.0
 40
0.0
 40
0.0
 40
1.0
 40
1.0
 40
1.0
 40
2.0
 40
2.0
 40
2.0
 40
3.0
 40
3.0
 40
3.0
 40
4.0
 40
4.0
 40
4.0
 40
4.0
 10
52.1132686006871
 20
191.3249746583486
 30
0.0
 10
52.1132686006871
 20
190.7174614337209
 30
0.0
 10
51.62078182559031
 20
190.2249746586235
 30
0.0
 10
51.01326860096203
 20
190.2249746586235
 30
0.0
 10
50.40575537633375
 20
190.2249746586235
 30
0.0
 10
49.91326860123696
 20
190.7174614337209
 30
0.0
 10
49.91326860123696
 20
191.3249746583486
 30
0.0
 10
49.91326860123696
 20
191.9324878829769
 30
0.0
 10
50.40575537633375
 20
192.4249746580736
 30
0.0
 10
51.01326860096203
 20
192.4249746580736
 30
0.0
 10
51.62078182559031
 20
192.4249746580736
 30
0.0
 10
52.1132686006871
 20
191.9324878829769
 30
0.0
 10
52.1132686006871
 20
191.3249746583486
 30
0.0
  0
ENDBLK
  5
4E
330
4B
100
AcDbEntity
  8
0
100
AcDbBlockEnd
  0
BLOCK
  5
52
330
50
100
AcDbEntity
  8
0
100
AcDbBlockBegin
  2
block 5
 70
     0
 10
0.0
 20
0.0
 30
0.0
  3
block 5
  1

  0
SPLINE
  5
54
330
50
100
AcDbEntity
  8
Layer 1
 62
   195
420
  7949726
370
    25
100
AcDbSpline
210
0.0
220
0.0
230
1.0
 70
    11
 71
     3
 72
    17
 73
    13
 74
     0
 42
0.0000000001
 43
0.0000000001
 12
1.0
 22
0.0
 32
0.0
 13
1.0
 23
0.0
 33
0.0
 40
0.0
 40
0.0
 40
0.0
 40
0.0
 40
1.0
 40
1.0
 40
1.0
 40
2.0
 40
2.0
 40
2.0
 40
3.0
 40
3.0
 40
3.0
 40
4.0
 40
4.0
 40
4.0
 40
4.0
 10
127.3279390926117
 20
191.3249746583486
 30
0.0
 10
127.3279390926117
 20
190.7174614337206
 30
0.0
 10
126.8354523175149
 20
190.2249746586232
 30
0.0
 10
126.2279390928866
 20
190.2249746586232
 30
0.0
 10
125.6204258682583
 20
190.2249746586232
 30
0.0
 10
125.1279390931615
 20
190.7174614337206
 30
0.0
 10
125.1279390931615
 20
191.3249746583486
 30
0.0
 10
125.1279390931615
 20
191.9324878829765
 30
0.0
 10
125.6204258682583
 20
192.4249746580733
 30
0.0
 10
126.2279390928866
 20
192.4249746580733
 30
0.0
 10
126.8354523175149
 20
192.4249746580733
 30
0.0
 10
127.3279390926117
 20
191.9324878829765
 30
0.0
 10
127.3279390926117
 20
191.3249746583486
 30
0.0
  0
ENDBLK
  5
53
330
50
100
AcDbEntity
  8
0
100
AcDbBlockEnd
  0
BLOCK
  5
57
330
55
100
AcDbEntity
  8
0
100
AcDbBlockBegin
  2
block 6
 70
     0
 10
0.0
 20
0.0
 30
0.0
  3
block 6
  1

  0
SPLINE
  5
59
330
55
100
AcDbEntity
  8
Layer 1
 62
   195
420
  7949726
370
    25
100
AcDbSpline
210
0.0
220
0.0
230
1.0
 70
    11
 71
     3
 72
    17
 73
    13
 74
     0
 42
0.0000000001
 43
0.0000000001
 12
1.0
 22
0.0
 32
0.0
 13
1.0
 23
0.0
 33
0.0
 40
0.0
 40
0.0
 40
0.0
 40
0.0
 40
1.0
 40
1.0
 40
1.0
 40
2.0
 40
2.0
 40
2.0
 40
3.0
 40
3.0
 40
3.0
 40
4.0
 40
4.0
 40
4.0
 40
4.0
 10
149.4473629597721
 20
191.3249746583486
 30
0.0
 10
149.4473629597721
 20
190.7174614337206
 30
0.0
 10
148.9548761846753
 20
190.2249746586232
 30
0.0
 10
148.3473629600471
 20
190.2249746586232
 30
0.0
 10
147.7398497354188
 20
190.2249746586232
 30
0.0
 10
147.247362960322
 20
190.7174614337206
 30
0.0
 10
147.247362960322
 20
191.3249746583486
 30
0.0
 10
147.247362960322
 20
191.9324878829765
 30
0.0
 10
147.7398497354188
 20
192.4249746580733
 30
0.0
 10
148.3473629600471
 20
192.4249746580733
 30
0.0
 10
148.9548761846753
 20
192.4249746580733
 30
0.0
 10
149.4473629597721
 20
191.9324878829765
 30
0.0
 10
149.4473629597721
 20
191.3249746583486
 30
0.0
  0
ENDBLK
  5
58
330
55
100
AcDbEntity
  8
0
100
AcDbBlockEnd
  0
BLOCK
  5
5C
330
5A
100
AcDbEntity
  8
0
100
AcDbBlockBegin
  2
block 7
 70
     0
 10
0.0
 20
0.0
 30
0.0
  3
block 7
  1

  0
SPLINE
  5
5E
330
5A
100
AcDbEntity
  8
Layer 1
 62
   195
420
  7949726
370
    25
100
AcDbSpline
210
0.0
220
0.0
230
1.0
 70
    11
 71
     3
 72
    17
 73
    13
 74
     0
 42
0.0000000001
 43
0.0000000001
 12
1.0
 22
0.0
 32
0.0
 13
1.0
 23
0.0
 33
0.0
 40
0.0
 40
0.0
 40
0.0
 40
0.0
 40
1.0
 40
1.0
 40
1.0
 40
2.0
 40
2.0
 40
2.0
 40
3.0
 40
3.0
 40
3.0
 40
4.0
 40
4.0
 40
4.0
 40
4.0
 10
32.85017611398344
 20
88.07490998317246
 30
0.0
 10
32.85017611398344
 20
87.46739675854546
 30
0.0
 10
32.35768933888665
 20
86.97490998344739
 30
0.0
 10
31.75017611425837
 20
86.97490998344739
 30
0.0
 10
31.1426628896301
 20
86.97490998344739
 30
0.0
 10
30.6501761145333
 20
87.46739675854546
 30
0.0
 10
30.6501761145333
 20
88.07490998317246
 30
0.0
 10
30.6501761145333
 20
88.68242320780074
 30
0.0
 10
31.1426628896301
 20
89.17490998289753
 30
0.0
 10
31.75017611425837
 20
89.17490998289753
 30
0.0
 10
32.35768933888665
 20
89.17490998289753
 30
0.0
 10
32.85017611398344
 20
88.68242320780074
 30
0.0
 10
32.85017611398344
 20
88.07490998317246
 30
0.0
  0
ENDBLK
  5
5D
330
5A
100
AcDbEntity
  8
0
100
AcDbBlockEnd
  0
BLOCK
  5
61
330
5F
100
AcDbEntity
  8
0
100
AcDbBlockBegin
  2
block 8
 70
     0
 10
0.0
 20
0.0
 30
0.0
  3
block 8
  1

  0
SPLINE
  5
63
330
5F
100
AcDbEntity
  8
Layer 1
 62
   195
420
  7949726
370
    25
100
AcDbSpline
210
0.0
220
0.0
230
1.0
 70
    11
 71
     3
 72
    17
 73
    13
 74
     0
 42
0.0000000001
 43
0.0000000001
 12
1.0
 22
0.0
 32
0.0
 13
1.0
 23
0.0
 33
0.0
 40
0.0
 40
0.0
 40
0.0
 40
0.0
 40
1.0
 40
1.0
 40
1.0
 40
2.0
 40
2.0
 40
2.0
 40
3.0
 40
3.0
 40
3.0
 40
4.0
 40
4.0
 40
4.0
 40
4.0
 10
115.8501760932335
 20
88.07490998317246
 30
0.0
 10
115.8501760932335
 20
87.46739675854546
 30
0.0
 10
115.3576893181367
 20
86.97490998344739
 30
0.0
 10
114.7501760935084
 20
86.97490998344739
 30
0.0
 10
114.1426628688802
 20
86.97490998344739
 30
0.0
 10
113.6501760937834
 20
87.46739675854546
 30
0.0
 10
113.6501760937834
 20
88.07490998317246
 30
0.0
 10
113.6501760937834
 20
88.68242320780074
 30
0.0
 10
114.1426628688802
 20
89.17490998289753
 30
0.0
 10
114.7501760935084
 20
89.17490998289753
 30
0.0
 10
115.3576893181367
 20
89.17490998289753
 30
0.0
 10
115.8501760932335
 20
88.68242320780074
 30
0.0
 10
115.8501760932335
 20
88.07490998317246
 30
0.0
  0
ENDBLK
  5
62
330
5F
100
AcDbEntity
  8
0
100
AcDbBlockEnd
  0
BLOCK
  5
66
330
64
100
AcDbEntity
  8
0
100
AcDbBlockBegin
  2
block 9
 70
     0
 10
0.0
 20
0.0
 30
0.0
  3
block 9
  1

  0
SPLINE
  5
68
330
64
100
AcDbEntity
  8
Layer 1
 62
   195
420
  7949726
370
    25
100
AcDbSpline
210
0.0
220
0.0
230
1.0
 70
    11
 71
     3
 72
    17
 73
    13
 74
     0
 42
0.0000000001
 43
0.0000000001
 12
1.0
 22
0.0
 32
0.0
 13
1.0
 23
0.0
 33
0.0
 40
0.0
 40
0.0
 40
0.0
 40
0.0
 40
1.0
 40
1.0
 40
1.0
 40
2.0
 40
2.0
 40
2.0
 40
3.0
 40
3.0
 40
3.0
 40
4.0
 40
4.0
 40
4.0
 40
4.0
 10
198.837643721992
 20
190.6249423080293
 30
0.0
 10
198.837643721992
 20
190.0174290834017
 30
0.0
 10
198.3451569468952
 20
189.5249423083042
 30
0.0
 10
197.7376437222669
 20
189.5249423083042
 30
0.0
 10
197.1301304976386
 20
189.5249423083042
 30
0.0
 10
196.6376437225419
 20
190.0174290834017
 30
0.0
 10
196.6376437225419
 20
190.6249423080293
 30
0.0
 10
196.6376437225419
 20
191.2324555326576
 30
0.0
 10
197.1301304976386
 20
191.7249423077544
 30
0.0
 10
197.7376437222669
 20
191.7249423077544
 30
0.0
 10
198.3451569468952
 20
191.7249423077544
 30
0.0
 10
198.837643721992
 20
191.2324555326576
 30
0.0
 10
198.837643721992
 20
190.6249423080293
 30
0.0
  0
ENDBLK
  5
67
330
64
100
AcDbEntity
  8
0
100
AcDbBlockEnd
  0
BLOCK
  5
6B
330
69
100
AcDbEntity
  8
0
100
AcDbBlockBegin
  2
block 10
 70
     0
 10
0.0
 20
0.0
 30
0.0
  3
block 10
  1

  0
SPLINE
  5
6D
330
69
100
AcDbEntity
  8
Layer 1
 62
   195
420
  7949726
370
    25
100
AcDbSpline
210
0.0
220
0.0
230
1.0
 70
    11
 71
     3
 72
    17
 73
    13
 74
     0
 42
0.0000000001
 43
0.0000000001
 12
1.0
 22
0.0
 32
0.0
 13
1.0
 23
0.0
 33
0.0
 40
0.0
 40
0.0
 40
0.0
 40
0.0
 40
1.0
 40
1.0
 40
1.0
 40
2.0
 40
2.0
 40
2.0
 40
3.0
 40
3.0
 40
3.0
 40
4.0
 40
4.0
 40
4.0
 40
4.0
 10
198.837643721992
 20
88.77494233349107
 30
0.0
 10
198.837643721992
 20
88.16742910886407
 30
0.0
 10
198.3451569468952
 20
87.674942333766
 30
0.0
 10
197.7376437222669
 20
87.674942333766
 30
0.0
 10
197.1301304976386
 20
87.674942333766
 30
0.0
 10
196.6376437225419
 20
88.16742910886407
 30
0.0
 10
196.6376437225419
 20
88.77494233349107
 30
0.0
 10
196.6376437225419
 20
89.38245555811935
 30
0.0
 10
197.1301304976386
 20
89.87494233321614
 30
0.0
 10
197.7376437222669
 20
89.87494233321614
 30
0.0
 10
198.3451569468952
 20
89.87494233321614
 30
0.0
 10
198.837643721992
 20
89.38245555811935
 30
0.0
 10
198.837643721992
 20
88.77494233349107
 30
0.0
  0
ENDBLK
  5
6C
330
69
100
AcDbEntity
  8
0
100
AcDbBlockEnd
  0
BLOCK
  5
71
330
6F
100
AcDbEntity
  8
0
100
AcDbBlockBegin
  2
block 11
 70
     0
 10
0.0
 20
0.0
 30
0.0
  3
block 11
  1

  0
POLYLINE
  5
73
330
6F
100
AcDbEntity
  8
Layer 2
 62
     7
420
 16777215
370
    25
100
AcDb2dPolyline
 66
     1
 10
0.0
 20
0.0
 30
0.0
  0
VERTEX
  5
74
330
73
100
AcDbEntity
  8
Layer 2
 62
     7
420
 16777215
370
    25
100
AcDbVertex
100
AcDb2dVertex
 10
177.9126539308399
 20
185.7999457000775
 30
0.0
  0
VERTEX
  5
75
330
73
100
AcDbEntity
  8
Layer 2
 62
     7
420
 16777215
370
    25
100
AcDbVertex
100
AcDb2dVertex
 10
177.9126539308399
 20
169.2999389225187
 30
0.0
  0
VERTEX
  5
76
330
73
100
AcDbEntity
  8
Layer 2
 62
     7
420
 16777215
370
    25
100
AcDbVertex
100
AcDb2dVertex
 10
191.912660709024
 20
169.2999389225187
 30
0.0
  0
VERTEX
  5
77
330
73
100
AcDbEntity
  8
Layer 2
 62
     7
420
 16777215
370
    25
100
AcDbVertex
100
AcDb2dVertex
 10
191.912660709024
 20
185.7999457000775
 30
0.0
  0
VERTEX
  5
78
330
73
100
AcDbEntity
  8
Layer 2
 62
     7
420
 16777215
370
    25
100
AcDbVertex
100
AcDb2dVertex
 10
177.9126539308399
 20
185.7999457000775
 30
0.0
  0
SEQEND
  5
79
330
73
100
AcDbEntity
  8
Layer 2
 62
     7
420
 16777215
370
    25
  0
ENDBLK
  5
72
330
6F
100
AcDbEntity
  8
0
100
AcDbBlockEnd
  0
ENDSEC
  0
SECTION
  2
ENTITIES
  0
INSERT
  5
42
330
1F
100
AcDbEntity
  8
Layer 1
100
AcDbBlockReference
  2
block 2
 10
0.0
 20
0.0
 30
0.0
  0
INSERT
  5
47
330
1F
100
AcDbEntity
  8
Layer 1
100
AcDbBlockReference
  2
block 3
 10
0.0
 20
0.0
 30
0.0
  0
INSERT
  5
4C
330
1F
100
AcDbEntity
  8
Layer 1
100
AcDbBlockReference
  2
block 4
 10
0.0
 20
0.0
 30
0.0
  0
INSERT
  5
51
330
1F
100
AcDbEntity
  8
Layer 1
100
AcDbBlockReference
  2
block 5
 10
0.0
 20
0.0
 30
0.0
  0
INSERT
  5
56
330
1F
100
AcDbEntity
  8
Layer 1
100
AcDbBlockReference
  2
block 6
 10
0.0
 20
0.0
 30
0.0
  0
INSERT
  5
5B
330
1F
100
AcDbEntity
  8
Layer 1
100
AcDbBlockReference
  2
block 7
 10
0.0
 20
0.0
 30
0.0
  0
INSERT
  5
60
330
1F
100
AcDbEntity
  8
Layer 1
100
AcDbBlockReference
  2
block 8
 10
0.0
 20
0.0
 30
0.0
  0
INSERT
  5
65
330
1F
100
AcDbEntity
  8
Layer 1
100
AcDbBlockReference
  2
block 9
 10
0.0
 20
0.0
 30
0.0
  0
INSERT
  5
6A
330
1F
100
AcDbEntity
  8
Layer 1
100
AcDbBlockReference
  2
block 10
 10
0.0
 20
0.0
 30
0.0
  0
INSERT
  5
70
330
1F
100
AcDbEntity
  8
Layer 2
100
AcDbBlockReference
  2
block 11
 10
0.0
 20
0.0
 30
0.0
  0
SPLINE
  5
7A
330
1F
100
AcDbEntity
  8
Layer 2
 62
     7
420
 16777215
370
    25
100
AcDbSpline
210
0.0
220
0.0
230
1.0
 70
    11
 71
     3
 72
    44
 73
    40
 74
     0
 42
0.0000000001
 43
0.0000000001
 12
1.0
 22
0.0
 32
0.0
 13
1.0
 23
0.0
 33
0.0
 40
0.0
 40
0.0
 40
0.0
 40
0.0
 40
1.0
 40
1.0
 40
1.0
 40
2.0
 40
2.0
 40
2.0
 40
3.0
 40
3.0
 40
3.0
 40
4.0
 40
4.0
 40
4.0
 40
5.0
 40
5.0
 40
5.0
 40
6.0
 40
6.0
 40
6.0
 40
7.0
 40
7.0
 40
7.0
 40
8.0
 40
8.0
 40
8.0
 40
9.0
 40
9.0
 40
9.0
 40
10.0
 40
10.0
 40
10.0
 40
11.0
 40
11.0
 40
11.0
 40
12.0
 40
12.0
 40
12.0
 40
13.0
 40
13.0
 40
13.0
 40
13.0
 10
149.3376441322577
 20
170.7999419318668
 30
0.0
 10
154.0592305749961
 20
170.7999419318668
 30
0.0
 10
160.0615409119901
 20
170.7999419318668
 30
0.0
 10
164.7756633566425
 20
170.7999419318668
 30
0.0
 10
164.7756633566425
 20
170.7999419318668
 30
0.0
 10
164.7756633566425
 20
169.7999419043013
 30
0.0
 10
164.7756633566425
 20
169.7999419043013
 30
0.0
 10
164.7756633566425
 20
169.7999419043013
 30
0.0
 10
171.775663549601
 20
169.7999419043013
 30
0.0
 10
171.775663549601
 20
169.7999419043013
 30
0.0
 10
171.775663549601
 20
169.7999419043013
 30
0.0
 10
171.775663549601
 20
170.7999419318668
 30
0.0
 10
171.775663549601
 20
170.7999419318668
 30
0.0
 10
171.775663549601
 20
170.7999419318668
 30
0.0
 10
172.8626386772203
 20
170.7999419318668
 30
0.0
 10
172.8626386772203
 20
170.7999419318668
 30
0.0
 10
172.8626386772203
 20
170.7999419318668
 30
0.0
 10
172.8626386772203
 20
184.7999423177838
 30
0.0
 10
172.8626386772203
 20
184.7999423177838
 30
0.0
 10
162.1293034389548
 20
184.7999423177838
 30
0.0
 10
150.5456887073969
 20
184.7999423177838
 30
0.0
 10
139.812649973212
 20
184.7999423177838
 30
0.0
 10
139.812649973212
 20
184.7999423177838
 30
0.0
 10
139.812649973212
 20
170.7999419318668
 30
0.0
 10
139.812649973212
 20
170.7999419318668
 30
0.0
 10
139.812649973212
 20
170.7999419318668
 30
0.0
 10
140.8996556184103
 20
170.7999419318668
 30
0.0
 10
140.8996556184103
 20
170.7999419318668
 30
0.0
 10
140.8996556184103
 20
170.7999419318668
 30
0.0
 10
140.8996556184103
 20
169.7999419043013
 30
0.0
 10
140.8996556184103
 20
169.7999419043013
 30
0.0
 10
140.8996556184103
 20
169.7999419043013
 30
0.0
 10
147.8996558113688
 20
169.7999419043013
 30
0.0
 10
147.8996558113688
 20
169.7999419043013
 30
0.0
 10
147.8996558113688
 20
169.7999419043013
 30
0.0
 10
147.8996558113688
 20
170.7999419318668
 30
0.0
 10
147.8996558113688
 20
170.7999419318668
 30
0.0
 10
147.8996558113688
 20
170.7999419318668
 30
0.0
 10
149.3376441322577
 20
170.7999419318668
 30
0.0
 10
149.3376441322577
 20
170.7999419318668
 30
0.0
  0
POLYLINE
  5
7B
330
1F
100
AcDbEntity
  8
Layer 2
 62
     7
420
 16777215
370
    25
100
AcDb2dPolyline
 66
     1
 10
0.0
 20
0.0
 30
0.0
  0
VERTEX
  5
7C
330
7B
100
AcDbEntity
  8
Layer 2
 62
     7
420
 16777215
370
    25
100
AcDbVertex
100
AcDb2dVertex
 10
25.51264377071707
 20
170.7999419318668
 30
0.0
  0
VERTEX
  5
7D
330
7B
100
AcDbEntity
  8
Layer 2
 62
     7
420
 16777215
370
    25
100
AcDbVertex
100
AcDb2dVertex
 10
39.51265941542357
 20
170.7999419318668
 30
0.0
  0
VERTEX
  5
7E
330
7B
100
AcDbEntity
  8
Layer 2
 62
     7
420
 16777215
370
    25
100
AcDbVertex
100
AcDb2dVertex
 10
39.51265941542357
 20
184.7999423177838
 30
0.0
  0
VERTEX
  5
7F
330
7B
100
AcDbEntity
  8
Layer 2
 62
     7
420
 16777215
370
    25
100
AcDbVertex
100
AcDb2dVertex
 10
25.51264377071707
 20
184.7999423177838
 30
0.0
  0
VERTEX
  5
80
330
7B
100
AcDbEntity
  8
Layer 2
 62
     7
420
 16777215
370
    25
100
AcDbVertex
100
AcDb2dVertex
 10
25.51264377071707
 20
170.7999419318668
 30
0.0
  0
SEQEND
  5
81
330
7B
100
AcDbEntity
  8
Layer 2
 62
     7
420
 16777215
370
    25
  0
POLYLINE
  5
82
330
1F
100
AcDbEntity
  8
Layer 2
 62
     7
420
 16777215
370
    25
100
AcDb2dPolyline
 66
     1
 10
0.0
 20
0.0
 30
0.0
  0
VERTEX
  5
83
330
82
100
AcDbEntity
  8
Layer 2
 62
     7
420
 16777215
370
    25
100
AcDbVertex
100
AcDb2dVertex
 10
44.56264734759776
 20
170.7999419318668
 30
0.0
  0
VERTEX
  5
84
330
82
100
AcDbEntity
  8
Layer 2
 62
     7
420
 16777215
370
    25
100
AcDbVertex
100
AcDb2dVertex
 10
58.56264773351477
 20
170.7999419318668
 30
0.0
  0
VERTEX
  5
85
330
82
100
AcDbEntity
  8
Layer 2
 62
     7
420
 16777215
370
    25
100
AcDbVertex
100
AcDb2dVertex
 10
58.56264773351477
 20
184.7999423177838
 30
0.0
  0
VERTEX
  5
86
330
82
100
AcDbEntity
  8
Layer 2
 62
     7
420
 16777215
370
    25
100
AcDbVertex
100
AcDb2dVertex
 10
44.56264734759776
 20
184.7999423177838
 30
0.0
  0
VERTEX
  5
87
330
82
100
AcDbEntity
  8
Layer 2
 62
     7
420
 16777215
370
    25
100
AcDbVertex
100
AcDb2dVertex
 10
44.56264734759776
 20
170.7999419318668
 30
0.0
  0
SEQEND
  5
88
330
82
100
AcDbEntity
  8
Layer 2
 62
     7
420
 16777215
370
    25
  0
POLYLINE
  5
89
330
1F
100
AcDbEntity
  8
Layer 2
 62
     7
420
 16777215
370
    25
100
AcDb2dPolyline
 66
     1
 10
0.0
 20
0.0
 30
0.0
  0
VERTEX
  5
8A
330
89
100
AcDbEntity
  8
Layer 2
 62
     7
420
 16777215
370
    25
100
AcDbVertex
100
AcDb2dVertex
 10
63.61263566568897
 20
170.7999419318668
 30
0.0
  0
VERTEX
  5
8B
330
89
100
AcDbEntity
  8
Layer 2
 62
     7
420
 16777215
370
    25
100
AcDbVertex
100
AcDb2dVertex
 10
77.61263605160597
 20
170.7999419318668
 30
0.0
  0
VERTEX
  5
8C
330
89
100
AcDbEntity
  8
Layer 2
 62
     7
420
 16777215
370
    25
100
AcDbVertex
100
AcDb2dVertex
 10
77.61263605160597
 20
184.7999423177838
 30
0.0
  0
VERTEX
  5
8D
330
89
100
AcDbEntity
  8
Layer 2
 62
     7
420
 16777215
370
    25
100
AcDbVertex
100
AcDb2dVertex
 10
63.61263566568897
 20
184.7999423177838
 30
0.0
  0
VERTEX
  5
8E
330
89
100
AcDbEntity
  8
Layer 2
 62
     7
420
 16777215
370
    25
100
AcDbVertex
100
AcDb2dVertex
 10
63.61263566568897
 20
170.7999419318668
 30
0.0
  0
SEQEND
  5
8F
330
89
100
AcDbEntity
  8
Layer 2
 62
     7
420
 16777215
370
    25
  0
POLYLINE
  5
90
330
1F
100
AcDbEntity
  8
Layer 2
 62
     7
420
 16777215
370
    25
100
AcDb2dPolyline
 66
     1
 10
0.0
 20
0.0
 30
0.0
  0
VERTEX
  5
91
330
90
100
AcDbEntity
  8
Layer 2
 62
     7
420
 16777215
370
    25
100
AcDbVertex
100
AcDb2dVertex
 10
82.66265450135914
 20
170.7999419318668
 30
0.0
  0
VERTEX
  5
92
330
90
100
AcDbEntity
  8
Layer 2
 62
     7
420
 16777215
370
    25
100
AcDbVertex
100
AcDb2dVertex
 10
96.66265488727615
 20
170.7999419318668
 30
0.0
  0
VERTEX
  5
93
330
90
100
AcDbEntity
  8
Layer 2
 62
     7
420
 16777215
370
    25
100
AcDbVertex
100
AcDb2dVertex
 10
96.66265488727615
 20
184.7999423177838
 30
0.0
  0
VERTEX
  5
94
330
90
100
AcDbEntity
  8
Layer 2
 62
     7
420
 16777215
370
    25
100
AcDbVertex
100
AcDb2dVertex
 10
82.66265450135914
 20
184.7999423177838
 30
0.0
  0
VERTEX
  5
95
330
90
100
AcDbEntity
  8
Layer 2
 62
     7
420
 16777215
370
    25
100
AcDbVertex
100
AcDb2dVertex
 10
82.66265450135914
 20
170.7999419318668
 30
0.0
  0
SEQEND
  5
96
330
90
100
AcDbEntity
  8
Layer 2
 62
     7
420
 16777215
370
    25
  0
POLYLINE
  5
97
330
1F
100
AcDbEntity
  8
Layer 2
 62
     7
420
 16777215
370
    25
100
AcDb2dPolyline
 66
     1
 10
0.0
 20
0.0
 30
0.0
  0
VERTEX
  5
98
330
97
100
AcDbEntity
  8
Layer 2
 62
     7
420
 16777215
370
    25
100
AcDbVertex
100
AcDb2dVertex
 10
101.7126428194504
 20
170.7999419318668
 30
0.0
  0
VERTEX
  5
99
330
97
100
AcDbEntity
  8
Layer 2
 62
     7
420
 16777215
370
    25
100
AcDbVertex
100
AcDb2dVertex
 10
115.7126432053677
 20
170.7999419318668
 30
0.0
  0
VERTEX
  5
9A
330
97
100
AcDbEntity
  8
Layer 2
 62
     7
420
 16777215
370
    25
100
AcDbVertex
100
AcDb2dVertex
 10
115.7126432053677
 20
184.7999423177838
 30
0.0
  0
VERTEX
  5
9B
330
97
100
AcDbEntity
  8
Layer 2
 62
     7
420
 16777215
370
    25
100
AcDbVertex
100
AcDb2dVertex
 10
101.7126428194504
 20
184.7999423177838
 30
0.0
  0
VERTEX
  5
9C
330
97
100
AcDbEntity
  8
Layer 2
 62
     7
420
 16777215
370
    25
100
AcDbVertex
100
AcDb2dVertex
 10
101.7126428194504
 20
170.7999419318668
 30
0.0
  0
SEQEND
  5
9D
330
97
100
AcDbEntity
  8
Layer 2
 62
     7
420
 16777215
370
    25
  0
POLYLINE
  5
9E
330
1F
100
AcDbEntity
  8
Layer 2
 62
     7
420
 16777215
370
    25
100
AcDb2dPolyline
 66
     1
 10
0.0
 20
0.0
 30
0.0
  0
VERTEX
  5
9F
330
9E
100
AcDbEntity
  8
Layer 2
 62
     7
420
 16777215
370
    25
100
AcDbVertex
100
AcDb2dVertex
 10
120.7626616551208
 20
170.7999419318668
 30
0.0
  0
VERTEX
  5
A0
330
9E
100
AcDbEntity
  8
Layer 2
 62
     7
420
 16777215
370
    25
100
AcDbVertex
100
AcDb2dVertex
 10
134.7626620410379
 20
170.7999419318668
 30
0.0
  0
VERTEX
  5
A1
330
9E
100
AcDbEntity
  8
Layer 2
 62
     7
420
 16777215
370
    25
100
AcDbVertex
100
AcDb2dVertex
 10
134.7626620410379
 20
184.7999423177838
 30
0.0
  0
VERTEX
  5
A2
330
9E
100
AcDbEntity
  8
Layer 2
 62
     7
420
 16777215
370
    25
100
AcDbVertex
100
AcDb2dVertex
 10
120.7626616551208
 20
184.7999423177838
 30
0.0
  0
VERTEX
  5
A3
330
9E
100
AcDbEntity
  8
Layer 2
 62
     7
420
 16777215
370
    25
100
AcDbVertex
100
AcDb2dVertex
 10
120.7626616551208
 20
170.7999419318668
 30
0.0
  0
SEQEND
  5
A4
330
9E
100
AcDbEntity
  8
Layer 2
 62
     7
420
 16777215
370
    25
  0
POLYLINE
  5
A5
330
1F
100
AcDbEntity
  8
Layer 2
 62
     7
420
 16777215
370
    25
100
AcDb2dPolyline
 66
     1
 10
0.0
 20
0.0
 30
0.0
  0
VERTEX
  5
A6
330
A5
100
AcDbEntity
  8
Layer 2
 62
     7
420
 16777215
370
    25
100
AcDbVertex
100
AcDb2dVertex
 10
15.98764961167147
 20
151.7499421696835
 30
0.0
  0
VERTEX
  5
A7
330
A5
100
AcDbEntity
  8
Layer 2
 62
     7
420
 16777215
370
    25
100
AcDbVertex
100
AcDb2dVertex
 10
29.98764999758848
 20
151.7499421696835
 30
0.0
  0
VERTEX
  5
A8
330
A5
100
AcDbEntity
  8
Layer 2
 62
     7
420
 16777215
370
    25
100
AcDbVertex
100
AcDb2dVertex
 10
29.98764999758848
 20
165.7499425556005
 30
0.0
  0
VERTEX
  5
A9
330
A5
100
AcDbEntity
  8
Layer 2
 62
     7
420
 16777215
370
    25
100
AcDbVertex
100
AcDb2dVertex
 10
15.98764961167147
 20
165.7499425556005
 30
0.0
  0
VERTEX
  5
AA
330
A5
100
AcDbEntity
  8
Layer 2
 62
     7
420
 16777215
370
    25
100
AcDbVertex
100
AcDb2dVertex
 10
15.98764961167147
 20
151.7499421696835
 30
0.0
  0
SEQEND
  5
AB
330
A5
100
AcDbEntity
  8
Layer 2
 62
     7
420
 16777215
370
    25
  0
POLYLINE
  5
AC
330
1F
100
AcDbEntity
  8
Layer 2
 62
     7
420
 16777215
370
    25
100
AcDb2dPolyline
 66
     1
 10
0.0
 20
0.0
 30
0.0
  0
VERTEX
  5
AD
330
AC
100
AcDbEntity
  8
Layer 2
 62
     7
420
 16777215
370
    25
100
AcDbVertex
100
AcDb2dVertex
 10
35.03765318855216
 20
151.7499421696835
 30
0.0
  0
VERTEX
  5
AE
330
AC
100
AcDbEntity
  8
Layer 2
 62
     7
420
 16777215
370
    25
100
AcDbVertex
100
AcDb2dVertex
 10
49.03765357446917
 20
151.7499421696835
 30
0.0
  0
VERTEX
  5
AF
330
AC
100
AcDbEntity
  8
Layer 2
 62
     7
420
 16777215
370
    25
100
AcDbVertex
100
AcDb2dVertex
 10
49.03765357446917
 20
165.7499425556005
 30
0.0
  0
VERTEX
  5
B0
330
AC
100
AcDbEntity
  8
Layer 2
 62
     7
420
 16777215
370
    25
100
AcDbVertex
100
AcDb2dVertex
 10
35.03765318855216
 20
165.7499425556005
 30
0.0
  0
VERTEX
  5
B1
330
AC
100
AcDbEntity
  8
Layer 2
 62
     7
420
 16777215
370
    25
100
AcDbVertex
100
AcDb2dVertex
 10
35.03765318855216
 20
151.7499421696835
 30
0.0
  0
SEQEND
  5
B2
330
AC
100
AcDbEntity
  8
Layer 2
 62
     7
420
 16777215
370
    25
  0
POLYLINE
  5
B3
330
1F
100
AcDbEntity
  8
Layer 2
 62
     7
420
 16777215
370
    25
100
AcDb2dPolyline
 66
     1
 10
0.0
 20
0.0
 30
0.0
  0
VERTEX
  5
B4
330
B3
100
AcDbEntity
  8
Layer 2
 62
     7
420
 16777215
370
    25
100
AcDbVertex
100
AcDb2dVertex
 10
54.08764150664337
 20
151.7499421696835
 30
0.0
  0
VERTEX
  5
B5
330
B3
100
AcDbEntity
  8
Layer 2
 62
     7
420
 16777215
370
    25
100
AcDbVertex
100
AcDb2dVertex
 10
68.08764189256037
 20
151.7499421696835
 30
0.0
  0
VERTEX
  5
B6
330
B3
100
AcDbEntity
  8
Layer 2
 62
     7
420
 16777215
370
    25
100
AcDbVertex
100
AcDb2dVertex
 10
68.08764189256037
 20
165.7499425556005
 30
0.0
  0
VERTEX
  5
B7
330
B3
100
AcDbEntity
  8
Layer 2
 62
     7
420
 16777215
370
    25
100
AcDbVertex
100
AcDb2dVertex
 10
54.08764150664337
 20
165.7499425556005
 30
0.0
  0
VERTEX
  5
B8
330
B3
100
AcDbEntity
  8
Layer 2
 62
     7
420
 16777215
370
    25
100
AcDbVertex
100
AcDb2dVertex
 10
54.08764150664337
 20
151.7499421696835
 30
0.0
  0
SEQEND
  5
B9
330
B3
100
AcDbEntity
  8
Layer 2
 62
     7
420
 16777215
370
    25
  0
POLYLINE
  5
BA
330
1F
100
AcDbEntity
  8
Layer 2
 62
     7
420
 16777215
370
    25
100
AcDb2dPolyline
 66
     1
 10
0.0
 20
0.0
 30
0.0
  0
VERTEX
  5
BB
330
BA
100
AcDbEntity
  8
Layer 2
 62
     7
420
 16777215
370
    25
100
AcDbVertex
100
AcDb2dVertex
 10
73.13766034231354
 20
151.7499421696835
 30
0.0
  0
VERTEX
  5
BC
330
BA
100
AcDbEntity
  8
Layer 2
 62
     7
420
 16777215
370
    25
100
AcDbVertex
100
AcDb2dVertex
 10
87.13766072823054
 20
151.7499421696835
 30
0.0
  0
VERTEX
  5
BD
330
BA
100
AcDbEntity
  8
Layer 2
 62
     7
420
 16777215
370
    25
100
AcDbVertex
100
AcDb2dVertex
 10
87.13766072823054
 20
165.7499425556005
 30
0.0
  0
VERTEX
  5
BE
330
BA
100
AcDbEntity
  8
Layer 2
 62
     7
420
 16777215
370
    25
100
AcDbVertex
100
AcDb2dVertex
 10
73.13766034231354
 20
165.7499425556005
 30
0.0
  0
VERTEX
  5
BF
330
BA
100
AcDbEntity
  8
Layer 2
 62
     7
420
 16777215
370
    25
100
AcDbVertex
100
AcDb2dVertex
 10
73.13766034231354
 20
151.7499421696835
 30
0.0
  0
SEQEND
  5
C0
330
BA
100
AcDbEntity
  8
Layer 2
 62
     7
420
 16777215
370
    25
  0
POLYLINE
  5
C1
330
1F
100
AcDbEntity
  8
Layer 2
 62
     7
420
 16777215
370
    25
100
AcDb2dPolyline
 66
     1
 10
0.0
 20
0.0
 30
0.0
  0
VERTEX
  5
C2
330
C1
100
AcDbEntity
  8
Layer 2
 62
     7
420
 16777215
370
    25
100
AcDbVertex
100
AcDb2dVertex
 10
92.18764866040475
 20
151.7499421696835
 30
0.0
  0
VERTEX
  5
C3
330
C1
100
AcDbEntity
  8
Layer 2
 62
     7
420
 16777215
370
    25
100
AcDbVertex
100
AcDb2dVertex
 10
106.1876490463218
 20
151.7499421696835
 30
0.0
  0
VERTEX
  5
C4
330
C1
100
AcDbEntity
  8
Layer 2
 62
     7
420
 16777215
370
    25
100
AcDbVertex
100
AcDb2dVertex
 10
106.1876490463218
 20
165.7499425556005
 30
0.0
  0
VERTEX
  5
C5
330
C1
100
AcDbEntity
  8
Layer 2
 62
     7
420
 16777215
370
    25
100
AcDbVertex
100
AcDb2dVertex
 10
92.18764866040475
 20
165.7499425556005
 30
0.0
  0
VERTEX
  5
C6
330
C1
100
AcDbEntity
  8
Layer 2
 62
     7
420
 16777215
370
    25
100
AcDbVertex
100
AcDb2dVertex
 10
92.18764866040475
 20
151.7499421696835
 30
0.0
  0
SEQEND
  5
C7
330
C1
100
AcDbEntity
  8
Layer 2
 62
     7
420
 16777215
370
    25
  0
POLYLINE
  5
C8
330
1F
100
AcDbEntity
  8
Layer 2
 62
     7
420
 16777215
370
    25
100
AcDb2dPolyline
 66
     1
 10
0.0
 20
0.0
 30
0.0
  0
VERTEX
  5
C9
330
C8
100
AcDbEntity
  8
Layer 2
 62
     7
420
 16777215
370
    25
100
AcDbVertex
100
AcDb2dVertex
 10
111.2376369784963
 20
151.7499421696835
 30
0.0
  0
VERTEX
  5
CA
330
C8
100
AcDbEntity
  8
Layer 2
 62
     7
420
 16777215
370
    25
100
AcDbVertex
100
AcDb2dVertex
 10
125.2376373644133
 20
151.7499421696835
 30
0.0
  0
VERTEX
  5
CB
330
C8
100
AcDbEntity
  8
Layer 2
 62
     7
420
 16777215
370
    25
100
AcDbVertex
100
AcDb2dVertex
 10
125.2376373644133
 20
165.7499425556005
 30
0.0
  0
VERTEX
  5
CC
330
C8
100
AcDbEntity
  8
Layer 2
 62
     7
420
 16777215
370
    25
100
AcDbVertex
100
AcDb2dVertex
 10
111.2376369784963
 20
165.7499425556005
 30
0.0
  0
VERTEX
  5
CD
330
C8
100
AcDbEntity
  8
Layer 2
 62
     7
420
 16777215
370
    25
100
AcDbVertex
100
AcDb2dVertex
 10
111.2376369784963
 20
151.7499421696835
 30
0.0
  0
SEQEND
  5
CE
330
C8
100
AcDbEntity
  8
Layer 2
 62
     7
420
 16777215
370
    25
  0
POLYLINE
  5
CF
330
1F
100
AcDbEntity
  8
Layer 2
 62
     7
420
 16777215
370
    25
100
AcDb2dPolyline
 66
     1
 10
0.0
 20
0.0
 30
0.0
  0
VERTEX
  5
D0
330
CF
100
AcDbEntity
  8
Layer 2
 62
     7
420
 16777215
370
    25
100
AcDbVertex
100
AcDb2dVertex
 10
130.2876558141664
 20
151.7499421696835
 30
0.0
  0
VERTEX
  5
D1
330
CF
100
AcDbEntity
  8
Layer 2
 62
     7
420
 16777215
370
    25
100
AcDbVertex
100
AcDb2dVertex
 10
144.2876562000835
 20
151.7499421696835
 30
0.0
  0
VERTEX
  5
D2
330
CF
100
AcDbEntity
  8
Layer 2
 62
     7
420
 16777215
370
    25
100
AcDbVertex
100
AcDb2dVertex
 10
144.2876562000835
 20
165.7499425556005
 30
0.0
  0
VERTEX
  5
D3
330
CF
100
AcDbEntity
  8
Layer 2
 62
     7
420
 16777215
370
    25
100
AcDbVertex
100
AcDb2dVertex
 10
130.2876558141664
 20
165.7499425556005
 30
0.0
  0
VERTEX
  5
D4
330
CF
100
AcDbEntity
  8
Layer 2
 62
     7
420
 16777215
370
    25
100
AcDbVertex
100
AcDb2dVertex
 10
130.2876558141664
 20
151.7499421696835
 30
0.0
  0
SEQEND
  5
D5
330
CF
100
AcDbEntity
  8
Layer 2
 62
     7
420
 16777215
370
    25
  0
POLYLINE
  5
D6
330
1F
100
AcDbEntity
  8
Layer 2
 62
     7
420
 16777215
370
    25
100
AcDb2dPolyline
 66
     1
 10
0.0
 20
0.0
 30
0.0
  0
VERTEX
  5
D7
330
D6
100
AcDbEntity
  8
Layer 2
 62
     7
420
 16777215
370
    25
100
AcDbVertex
100
AcDb2dVertex
 10
154.1001564705699
 20
151.7499421696835
 30
0.0
  0
VERTEX
  5
D8
330
D6
100
AcDbEntity
  8
Layer 2
 62
     7
420
 16777215
370
    25
100
AcDbVertex
100
AcDb2dVertex
 10
168.1001568564869
 20
151.7499421696835
 30
0.0
  0
VERTEX
  5
D9
330
D6
100
AcDbEntity
  8
Layer 2
 62
     7
420
 16777215
370
    25
100
AcDbVertex
100
AcDb2dVertex
 10
168.1001568564869
 20
165.7499425556005
 30
0.0
  0
VERTEX
  5
DA
330
D6
100
AcDbEntity
  8
Layer 2
 62
     7
420
 16777215
370
    25
100
AcDbVertex
100
AcDb2dVertex
 10
154.1001564705699
 20
165.7499425556005
 30
0.0
  0
VERTEX
  5
DB
330
D6
100
AcDbEntity
  8
Layer 2
 62
     7
420
 16777215
370
    25
100
AcDbVertex
100
AcDb2dVertex
 10
154.1001564705699
 20
151.7499421696835
 30
0.0
  0
SEQEND
  5
DC
330
D6
100
AcDbEntity
  8
Layer 2
 62
     7
420
 16777215
370
    25
  0
POLYLINE
  5
DD
330
1F
100
AcDbEntity
  8
Layer 2
 62
     7
420
 16777215
370
    25
100
AcDb2dPolyline
 66
     1
 10
0.0
 20
0.0
 30
0.0
  0
VERTEX
  5
DE
330
DD
100
AcDbEntity
  8
Layer 2
 62
     7
420
 16777215
370
    25
100
AcDbVertex
100
AcDb2dVertex
 10
177.9126571269734
 20
151.7499421696835
 30
0.0
  0
VERTEX
  5
DF
330
DD
100
AcDbEntity
  8
Layer 2
 62
     7
420
 16777215
370
    25
100
AcDbVertex
100
AcDb2dVertex
 10
191.9126575128904
 20
151.7499421696835
 30
0.0
  0
VERTEX
  5
E0
330
DD
100
AcDbEntity
  8
Layer 2
 62
     7
420
 16777215
370
    25
100
AcDbVertex
100
AcDb2dVertex
 10
191.9126575128904
 20
165.7499425556005
 30
0.0
  0
VERTEX
  5
E1
330
DD
100
AcDbEntity
  8
Layer 2
 62
     7
420
 16777215
370
    25
100
AcDbVertex
100
AcDb2dVertex
 10
177.9126571269734
 20
165.7499425556005
 30
0.0
  0
VERTEX
  5
E2
330
DD
100
AcDbEntity
  8
Layer 2
 62
     7
420
 16777215
370
    25
100
AcDbVertex
100
AcDb2dVertex
 10
177.9126571269734
 20
151.7499421696835
 30
0.0
  0
SEQEND
  5
E3
330
DD
100
AcDbEntity
  8
Layer 2
 62
     7
420
 16777215
370
    25
  0
POLYLINE
  5
E4
330
1F
100
AcDbEntity
  8
Layer 2
 62
     7
420
 16777215
370
    25
100
AcDb2dPolyline
 66
     1
 10
0.0
 20
0.0
 30
0.0
  0
VERTEX
  5
E5
330
E4
100
AcDbEntity
  8
Layer 2
 62
     7
420
 16777215
370
    25
100
AcDbVertex
100
AcDb2dVertex
 10
20.75014669119427
 20
132.6999424075002
 30
0.0
  0
VERTEX
  5
E6
330
E4
100
AcDbEntity
  8
Layer 2
 62
     7
420
 16777215
370
    25
100
AcDbVertex
100
AcDb2dVertex
 10
34.75014707711128
 20
132.6999424075002
 30
0.0
  0
VERTEX
  5
E7
330
E4
100
AcDbEntity
  8
Layer 2
 62
     7
420
 16777215
370
    25
100
AcDbVertex
100
AcDb2dVertex
 10
34.75014707711128
 20
146.6999427934172
 30
0.0
  0
VERTEX
  5
E8
330
E4
100
AcDbEntity
  8
Layer 2
 62
     7
420
 16777215
370
    25
100
AcDbVertex
100
AcDb2dVertex
 10
20.75014669119427
 20
146.6999427934172
 30
0.0
  0
VERTEX
  5
E9
330
E4
100
AcDbEntity
  8
Layer 2
 62
     7
420
 16777215
370
    25
100
AcDbVertex
100
AcDb2dVertex
 10
20.75014669119427
 20
132.6999424075002
 30
0.0
  0
SEQEND
  5
EA
330
E4
100
AcDbEntity
  8
Layer 2
 62
     7
420
 16777215
370
    25
  0
POLYLINE
  5
EB
330
1F
100
AcDbEntity
  8
Layer 2
 62
     7
420
 16777215
370
    25
100
AcDb2dPolyline
 66
     1
 10
0.0
 20
0.0
 30
0.0
  0
VERTEX
  5
EC
330
EB
100
AcDbEntity
  8
Layer 2
 62
     7
420
 16777215
370
    25
100
AcDbVertex
100
AcDb2dVertex
 10
39.80013500928548
 20
132.6999424075002
 30
0.0
  0
VERTEX
  5
ED
330
EB
100
AcDbEntity
  8
Layer 2
 62
     7
420
 16777215
370
    25
100
AcDbVertex
100
AcDb2dVertex
 10
53.80013539520249
 20
132.6999424075002
 30
0.0
  0
VERTEX
  5
EE
330
EB
100
AcDbEntity
  8
Layer 2
 62
     7
420
 16777215
370
    25
100
AcDbVertex
100
AcDb2dVertex
 10
53.80013539520249
 20
146.6999427934172
 30
0.0
  0
VERTEX
  5
EF
330
EB
100
AcDbEntity
  8
Layer 2
 62
     7
420
 16777215
370
    25
100
AcDbVertex
100
AcDb2dVertex
 10
39.80013500928548
 20
146.6999427934172
 30
0.0
  0
VERTEX
  5
F0
330
EB
100
AcDbEntity
  8
Layer 2
 62
     7
420
 16777215
370
    25
100
AcDbVertex
100
AcDb2dVertex
 10
39.80013500928548
 20
132.6999424075002
 30
0.0
  0
SEQEND
  5
F1
330
EB
100
AcDbEntity
  8
Layer 2
 62
     7
420
 16777215
370
    25
  0
POLYLINE
  5
F2
330
1F
100
AcDbEntity
  8
Layer 2
 62
     7
420
 16777215
370
    25
100
AcDb2dPolyline
 66
     1
 10
0.0
 20
0.0
 30
0.0
  0
VERTEX
  5
F3
330
F2
100
AcDbEntity
  8
Layer 2
 62
     7
420
 16777215
370
    25
100
AcDbVertex
100
AcDb2dVertex
 10
58.85015384495565
 20
132.6999424075002
 30
0.0
  0
VERTEX
  5
F4
330
F2
100
AcDbEntity
  8
Layer 2
 62
     7
420
 16777215
370
    25
100
AcDbVertex
100
AcDb2dVertex
 10
72.85015423087266
 20
132.6999424075002
 30
0.0
  0
VERTEX
  5
F5
330
F2
100
AcDbEntity
  8
Layer 2
 62
     7
420
 16777215
370
    25
100
AcDbVertex
100
AcDb2dVertex
 10
72.85015423087266
 20
146.6999427934172
 30
0.0
  0
VERTEX
  5
F6
330
F2
100
AcDbEntity
  8
Layer 2
 62
     7
420
 16777215
370
    25
100
AcDbVertex
100
AcDb2dVertex
 10
58.85015384495565
 20
146.6999427934172
 30
0.0
  0
VERTEX
  5
F7
330
F2
100
AcDbEntity
  8
Layer 2
 62
     7
420
 16777215
370
    25
100
AcDbVertex
100
AcDb2dVertex
 10
58.85015384495565
 20
132.6999424075002
 30
0.0
  0
SEQEND
  5
F8
330
F2
100
AcDbEntity
  8
Layer 2
 62
     7
420
 16777215
370
    25
  0
POLYLINE
  5
F9
330
1F
100
AcDbEntity
  8
Layer 2
 62
     7
420
 16777215
370
    25
100
AcDb2dPolyline
 66
     1
 10
0.0
 20
0.0
 30
0.0
  0
VERTEX
  5
FA
330
F9
100
AcDbEntity
  8
Layer 2
 62
     7
420
 16777215
370
    25
100
AcDbVertex
100
AcDb2dVertex
 10
77.90014216304685
 20
132.6999424075002
 30
0.0
  0
VERTEX
  5
FB
330
F9
100
AcDbEntity
  8
Layer 2
 62
     7
420
 16777215
370
    25
100
AcDbVertex
100
AcDb2dVertex
 10
91.90014254896387
 20
132.6999424075002
 30
0.0
  0
VERTEX
  5
FC
330
F9
100
AcDbEntity
  8
Layer 2
 62
     7
420
 16777215
370
    25
100
AcDbVertex
100
AcDb2dVertex
 10
91.90014254896387
 20
146.6999427934172
 30
0.0
  0
VERTEX
  5
FD
330
F9
100
AcDbEntity
  8
Layer 2
 62
     7
420
 16777215
370
    25
100
AcDbVertex
100
AcDb2dVertex
 10
77.90014216304685
 20
146.6999427934172
 30
0.0
  0
VERTEX
  5
FE
330
F9
100
AcDbEntity
  8
Layer 2
 62
     7
420
 16777215
370
    25
100
AcDbVertex
100
AcDb2dVertex
 10
77.90014216304685
 20
132.6999424075002
 30
0.0
  0
SEQEND
  5
FF
330
F9
100
AcDbEntity
  8
Layer 2
 62
     7
420
 16777215
370
    25
  0
POLYLINE
  5
100
330
1F
100
AcDbEntity
  8
Layer 2
 62
     7
420
 16777215
370
    25
100
AcDb2dPolyline
 66
     1
 10
0.0
 20
0.0
 30
0.0
  0
VERTEX
  5
101
330
100
100
AcDbEntity
  8
Layer 2
 62
     7
420
 16777215
370
    25
100
AcDbVertex
100
AcDb2dVertex
 10
96.95016099871702
 20
132.6999424075002
 30
0.0
  0
VERTEX
  5
102
330
100
100
AcDbEntity
  8
Layer 2
 62
     7
420
 16777215
370
    25
100
AcDbVertex
100
AcDb2dVertex
 10
110.9501613846344
 20
132.6999424075002
 30
0.0
  0
VERTEX
  5
103
330
100
100
AcDbEntity
  8
Layer 2
 62
     7
420
 16777215
370
    25
100
AcDbVertex
100
AcDb2dVertex
 10
110.9501613846344
 20
146.6999427934172
 30
0.0
  0
VERTEX
  5
104
330
100
100
AcDbEntity
  8
Layer 2
 62
     7
420
 16777215
370
    25
100
AcDbVertex
100
AcDb2dVertex
 10
96.95016099871702
 20
146.6999427934172
 30
0.0
  0
VERTEX
  5
105
330
100
100
AcDbEntity
  8
Layer 2
 62
     7
420
 16777215
370
    25
100
AcDbVertex
100
AcDb2dVertex
 10
96.95016099871702
 20
132.6999424075002
 30
0.0
  0
SEQEND
  5
106
330
100
100
AcDbEntity
  8
Layer 2
 62
     7
420
 16777215
370
    25
  0
POLYLINE
  5
107
330
1F
100
AcDbEntity
  8
Layer 2
 62
     7
420
 16777215
370
    25
100
AcDb2dPolyline
 66
     1
 10
0.0
 20
0.0
 30
0.0
  0
VERTEX
  5
108
330
107
100
AcDbEntity
  8
Layer 2
 62
     7
420
 16777215
370
    25
100
AcDbVertex
100
AcDb2dVertex
 10
116.0001493168086
 20
132.6999424075002
 30
0.0
  0
VERTEX
  5
109
330
107
100
AcDbEntity
  8
Layer 2
 62
     7
420
 16777215
370
    25
100
AcDbVertex
100
AcDb2dVertex
 10
130.0001497027256
 20
132.6999424075002
 30
0.0
  0
VERTEX
  5
10A
330
107
100
AcDbEntity
  8
Layer 2
 62
     7
420
 16777215
370
    25
100
AcDbVertex
100
AcDb2dVertex
 10
130.0001497027256
 20
146.6999427934172
 30
0.0
  0
VERTEX
  5
10B
330
107
100
AcDbEntity
  8
Layer 2
 62
     7
420
 16777215
370
    25
100
AcDbVertex
100
AcDb2dVertex
 10
116.0001493168086
 20
146.6999427934172
 30
0.0
  0
VERTEX
  5
10C
330
107
100
AcDbEntity
  8
Layer 2
 62
     7
420
 16777215
370
    25
100
AcDbVertex
100
AcDb2dVertex
 10
116.0001493168086
 20
132.6999424075002
 30
0.0
  0
SEQEND
  5
10D
330
107
100
AcDbEntity
  8
Layer 2
 62
     7
420
 16777215
370
    25
  0
POLYLINE
  5
10E
330
1F
100
AcDbEntity
  8
Layer 2
 62
     7
420
 16777215
370
    25
100
AcDb2dPolyline
 66
     1
 10
0.0
 20
0.0
 30
0.0
  0
VERTEX
  5
10F
330
10E
100
AcDbEntity
  8
Layer 2
 62
     7
420
 16777215
370
    25
100
AcDbVertex
100
AcDb2dVertex
 10
146.9563879631015
 20
132.6999424075002
 30
0.0
  0
VERTEX
  5
110
330
10E
100
AcDbEntity
  8
Layer 2
 62
     7
420
 16777215
370
    25
100
AcDbVertex
100
AcDb2dVertex
 10
160.9563883490185
 20
132.6999424075002
 30
0.0
  0
VERTEX
  5
111
330
10E
100
AcDbEntity
  8
Layer 2
 62
     7
420
 16777215
370
    25
100
AcDbVertex
100
AcDb2dVertex
 10
160.9563883490185
 20
146.6999427934172
 30
0.0
  0
VERTEX
  5
112
330
10E
100
AcDbEntity
  8
Layer 2
 62
     7
420
 16777215
370
    25
100
AcDbVertex
100
AcDb2dVertex
 10
146.9563879631015
 20
146.6999427934172
 30
0.0
  0
VERTEX
  5
113
330
10E
100
AcDbEntity
  8
Layer 2
 62
     7
420
 16777215
370
    25
100
AcDbVertex
100
AcDb2dVertex
 10
146.9563879631015
 20
132.6999424075002
 30
0.0
  0
SEQEND
  5
114
330
10E
100
AcDbEntity
  8
Layer 2
 62
     7
420
 16777215
370
    25
  0
POLYLINE
  5
115
330
1F
100
AcDbEntity
  8
Layer 2
 62
     7
420
 16777215
370
    25
100
AcDb2dPolyline
 66
     1
 10
0.0
 20
0.0
 30
0.0
  0
VERTEX
  5
116
330
115
100
AcDbEntity
  8
Layer 2
 62
     7
420
 16777215
370
    25
100
AcDbVertex
100
AcDb2dVertex
 10
177.9126571269734
 20
132.6999424075002
 30
0.0
  0
VERTEX
  5
117
330
115
100
AcDbEntity
  8
Layer 2
 62
     7
420
 16777215
370
    25
100
AcDbVertex
100
AcDb2dVertex
 10
191.9126575128904
 20
132.6999424075002
 30
0.0
  0
VERTEX
  5
118
330
115
100
AcDbEntity
  8
Layer 2
 62
     7
420
 16777215
370
    25
100
AcDbVertex
100
AcDb2dVertex
 10
191.9126575128904
 20
146.6999427934172
 30
0.0
  0
VERTEX
  5
119
330
115
100
AcDbEntity
  8
Layer 2
 62
     7
420
 16777215
370
    25
100
AcDbVertex
100
AcDb2dVertex
 10
177.9126571269734
 20
146.6999427934172
 30
0.0
  0
VERTEX
  5
11A
330
115
100
AcDbEntity
  8
Layer 2
 62
     7
420
 16777215
370
    25
100
AcDbVertex
100
AcDb2dVertex
 10
177.9126571269734
 20
132.6999424075002
 30
0.0
  0
SEQEND
  5
11B
330
115
100
AcDbEntity
  8
Layer 2
 62
     7
420
 16777215
370
    25
  0
POLYLINE
  5
11C
330
1F
100
AcDbEntity
  8
Layer 2
 62
     7
420
 16777215
370
    25
100
AcDb2dPolyline
 66
     1
 10
0.0
 20
0.0
 30
0.0
  0
VERTEX
  5
11D
330
11C
100
AcDbEntity
  8
Layer 2
 62
     7
420
 16777215
370
    25
100
AcDbVertex
100
AcDb2dVertex
 10
30.27514085023987
 20
113.6499388306195
 30
0.0
  0
VERTEX
  5
11E
330
11C
100
AcDbEntity
  8
Layer 2
 62
     7
420
 16777215
370
    25
100
AcDbVertex
100
AcDb2dVertex
 10
44.27514123615688
 20
113.6499388306195
 30
0.0
  0
VERTEX
  5
11F
330
11C
100
AcDbEntity
  8
Layer 2
 62
     7
420
 16777215
370
    25
100
AcDbVertex
100
AcDb2dVertex
 10
44.27514123615688
 20
127.6499392165365
 30
0.0
  0
VERTEX
  5
120
330
11C
100
AcDbEntity
  8
Layer 2
 62
     7
420
 16777215
370
    25
100
AcDbVertex
100
AcDb2dVertex
 10
30.27514085023987
 20
127.6499392165365
 30
0.0
  0
VERTEX
  5
121
330
11C
100
AcDbEntity
  8
Layer 2
 62
     7
420
 16777215
370
    25
100
AcDbVertex
100
AcDb2dVertex
 10
30.27514085023987
 20
113.6499388306195
 30
0.0
  0
SEQEND
  5
122
330
11C
100
AcDbEntity
  8
Layer 2
 62
     7
420
 16777215
370
    25
  0
POLYLINE
  5
123
330
1F
100
AcDbEntity
  8
Layer 2
 62
     7
420
 16777215
370
    25
100
AcDb2dPolyline
 66
     1
 10
0.0
 20
0.0
 30
0.0
  0
VERTEX
  5
124
330
123
100
AcDbEntity
  8
Layer 2
 62
     7
420
 16777215
370
    25
100
AcDbVertex
100
AcDb2dVertex
 10
49.32515968591004
 20
113.6499388306195
 30
0.0
  0
VERTEX
  5
125
330
123
100
AcDbEntity
  8
Layer 2
 62
     7
420
 16777215
370
    25
100
AcDbVertex
100
AcDb2dVertex
 10
63.32516007182706
 20
113.6499388306195
 30
0.0
  0
VERTEX
  5
126
330
123
100
AcDbEntity
  8
Layer 2
 62
     7
420
 16777215
370
    25
100
AcDbVertex
100
AcDb2dVertex
 10
63.32516007182706
 20
127.6499392165365
 30
0.0
  0
VERTEX
  5
127
330
123
100
AcDbEntity
  8
Layer 2
 62
     7
420
 16777215
370
    25
100
AcDbVertex
100
AcDb2dVertex
 10
49.32515968591004
 20
127.6499392165365
 30
0.0
  0
VERTEX
  5
128
330
123
100
AcDbEntity
  8
Layer 2
 62
     7
420
 16777215
370
    25
100
AcDbVertex
100
AcDb2dVertex
 10
49.32515968591004
 20
113.6499388306195
 30
0.0
  0
SEQEND
  5
129
330
123
100
AcDbEntity
  8
Layer 2
 62
     7
420
 16777215
370
    25
  0
POLYLINE
  5
12A
330
1F
100
AcDbEntity
  8
Layer 2
 62
     7
420
 16777215
370
    25
100
AcDb2dPolyline
 66
     1
 10
0.0
 20
0.0
 30
0.0
  0
VERTEX
  5
12B
330
12A
100
AcDbEntity
  8
Layer 2
 62
     7
420
 16777215
370
    25
100
AcDbVertex
100
AcDb2dVertex
 10
68.37514800400125
 20
113.6499388306195
 30
0.0
  0
VERTEX
  5
12C
330
12A
100
AcDbEntity
  8
Layer 2
 62
     7
420
 16777215
370
    25
100
AcDbVertex
100
AcDb2dVertex
 10
82.37514838991827
 20
113.6499388306195
 30
0.0
  0
VERTEX
  5
12D
330
12A
100
AcDbEntity
  8
Layer 2
 62
     7
420
 16777215
370
    25
100
AcDbVertex
100
AcDb2dVertex
 10
82.37514838991827
 20
127.6499392165365
 30
0.0
  0
VERTEX
  5
12E
330
12A
100
AcDbEntity
  8
Layer 2
 62
     7
420
 16777215
370
    25
100
AcDbVertex
100
AcDb2dVertex
 10
68.37514800400125
 20
127.6499392165365
 30
0.0
  0
VERTEX
  5
12F
330
12A
100
AcDbEntity
  8
Layer 2
 62
     7
420
 16777215
370
    25
100
AcDbVertex
100
AcDb2dVertex
 10
68.37514800400125
 20
113.6499388306195
 30
0.0
  0
SEQEND
  5
130
330
12A
100
AcDbEntity
  8
Layer 2
 62
     7
420
 16777215
370
    25
  0
POLYLINE
  5
131
330
1F
100
AcDbEntity
  8
Layer 2
 62
     7
420
 16777215
370
    25
100
AcDb2dPolyline
 66
     1
 10
0.0
 20
0.0
 30
0.0
  0
VERTEX
  5
132
330
131
100
AcDbEntity
  8
Layer 2
 62
     7
420
 16777215
370
    25
100
AcDbVertex
100
AcDb2dVertex
 10
87.42513632209246
 20
113.6499388306195
 30
0.0
  0
VERTEX
  5
133
330
131
100
AcDbEntity
  8
Layer 2
 62
     7
420
 16777215
370
    25
100
AcDbVertex
100
AcDb2dVertex
 10
101.4251367080095
 20
113.6499388306195
 30
0.0
  0
VERTEX
  5
134
330
131
100
AcDbEntity
  8
Layer 2
 62
     7
420
 16777215
370
    25
100
AcDbVertex
100
AcDb2dVertex
 10
101.4251367080095
 20
127.6499392165365
 30
0.0
  0
VERTEX
  5
135
330
131
100
AcDbEntity
  8
Layer 2
 62
     7
420
 16777215
370
    25
100
AcDbVertex
100
AcDb2dVertex
 10
87.42513632209246
 20
127.6499392165365
 30
0.0
  0
VERTEX
  5
136
330
131
100
AcDbEntity
  8
Layer 2
 62
     7
420
 16777215
370
    25
100
AcDbVertex
100
AcDb2dVertex
 10
87.42513632209246
 20
113.6499388306195
 30
0.0
  0
SEQEND
  5
137
330
131
100
AcDbEntity
  8
Layer 2
 62
     7
420
 16777215
370
    25
  0
POLYLINE
  5
138
330
1F
100
AcDbEntity
  8
Layer 2
 62
     7
420
 16777215
370
    25
100
AcDb2dPolyline
 66
     1
 10
0.0
 20
0.0
 30
0.0
  0
VERTEX
  5
139
330
138
100
AcDbEntity
  8
Layer 2
 62
     7
420
 16777215
370
    25
100
AcDbVertex
100
AcDb2dVertex
 10
106.4751551577626
 20
113.6499388306195
 30
0.0
  0
VERTEX
  5
13A
330
138
100
AcDbEntity
  8
Layer 2
 62
     7
420
 16777215
370
    25
100
AcDbVertex
100
AcDb2dVertex
 10
120.47515554368
 20
113.6499388306195
 30
0.0
  0
VERTEX
  5
13B
330
138
100
AcDbEntity
  8
Layer 2
 62
     7
420
 16777215
370
    25
100
AcDbVertex
100
AcDb2dVertex
 10
120.47515554368
 20
127.6499392165365
 30
0.0
  0
VERTEX
  5
13C
330
138
100
AcDbEntity
  8
Layer 2
 62
     7
420
 16777215
370
    25
100
AcDbVertex
100
AcDb2dVertex
 10
106.4751551577626
 20
127.6499392165365
 30
0.0
  0
VERTEX
  5
13D
330
138
100
AcDbEntity
  8
Layer 2
 62
     7
420
 16777215
370
    25
100
AcDbVertex
100
AcDb2dVertex
 10
106.4751551577626
 20
113.6499388306195
 30
0.0
  0
SEQEND
  5
13E
330
138
100
AcDbEntity
  8
Layer 2
 62
     7
420
 16777215
370
    25
  0
POLYLINE
  5
13F
330
1F
100
AcDbEntity
  8
Layer 2
 62
     7
420
 16777215
370
    25
100
AcDb2dPolyline
 66
     1
 10
0.0
 20
0.0
 30
0.0
  0
VERTEX
  5
140
330
13F
100
AcDbEntity
  8
Layer 2
 62
     7
420
 16777215
370
    25
100
AcDbVertex
100
AcDb2dVertex
 10
132.6689119833226
 20
113.6499388306195
 30
0.0
  0
VERTEX
  5
141
330
13F
100
AcDbEntity
  8
Layer 2
 62
     7
420
 16777215
370
    25
100
AcDbVertex
100
AcDb2dVertex
 10
146.6689123692396
 20
113.6499388306195
 30
0.0
  0
VERTEX
  5
142
330
13F
100
AcDbEntity
  8
Layer 2
 62
     7
420
 16777215
370
    25
100
AcDbVertex
100
AcDb2dVertex
 10
146.6689123692396
 20
127.6499392165365
 30
0.0
  0
VERTEX
  5
143
330
13F
100
AcDbEntity
  8
Layer 2
 62
     7
420
 16777215
370
    25
100
AcDbVertex
100
AcDb2dVertex
 10
132.6689119833226
 20
127.6499392165365
 30
0.0
  0
VERTEX
  5
144
330
13F
100
AcDbEntity
  8
Layer 2
 62
     7
420
 16777215
370
    25
100
AcDbVertex
100
AcDb2dVertex
 10
132.6689119833226
 20
113.6499388306195
 30
0.0
  0
SEQEND
  5
145
330
13F
100
AcDbEntity
  8
Layer 2
 62
     7
420
 16777215
370
    25
  0
POLYLINE
  5
146
330
1F
100
AcDbEntity
  8
Layer 2
 62
     7
420
 16777215
370
    25
100
AcDb2dPolyline
 66
     1
 10
0.0
 20
0.0
 30
0.0
  0
VERTEX
  5
147
330
146
100
AcDbEntity
  8
Layer 2
 62
     7
420
 16777215
370
    25
100
AcDbVertex
100
AcDb2dVertex
 10
158.8626382913033
 20
113.6499388306195
 30
0.0
  0
VERTEX
  5
148
330
146
100
AcDbEntity
  8
Layer 2
 62
     7
420
 16777215
370
    25
100
AcDbVertex
100
AcDb2dVertex
 10
172.8626386772203
 20
113.6499388306195
 30
0.0
  0
VERTEX
  5
149
330
146
100
AcDbEntity
  8
Layer 2
 62
     7
420
 16777215
370
    25
100
AcDbVertex
100
AcDb2dVertex
 10
172.8626386772203
 20
127.6499392165365
 30
0.0
  0
VERTEX
  5
14A
330
146
100
AcDbEntity
  8
Layer 2
 62
     7
420
 16777215
370
    25
100
AcDbVertex
100
AcDb2dVertex
 10
158.8626382913033
 20
127.6499392165365
 30
0.0
  0
VERTEX
  5
14B
330
146
100
AcDbEntity
  8
Layer 2
 62
     7
420
 16777215
370
    25
100
AcDbVertex
100
AcDb2dVertex
 10
158.8626382913033
 20
113.6499388306195
 30
0.0
  0
SEQEND
  5
14C
330
146
100
AcDbEntity
  8
Layer 2
 62
     7
420
 16777215
370
    25
  0
POLYLINE
  5
14D
330
1F
100
AcDbEntity
  8
Layer 2
 62
     7
420
 16777215
370
    25
100
AcDb2dPolyline
 66
     1
 10
0.0
 20
0.0
 30
0.0
  0
VERTEX
  5
14E
330
14D
100
AcDbEntity
  8
Layer 2
 62
     7
420
 16777215
370
    25
100
AcDbVertex
100
AcDb2dVertex
 10
177.9126571269734
 20
113.6499388306195
 30
0.0
  0
VERTEX
  5
14F
330
14D
100
AcDbEntity
  8
Layer 2
 62
     7
420
 16777215
370
    25
100
AcDbVertex
100
AcDb2dVertex
 10
191.9126575128904
 20
113.6499388306195
 30
0.0
  0
VERTEX
  5
150
330
14D
100
AcDbEntity
  8
Layer 2
 62
     7
420
 16777215
370
    25
100
AcDbVertex
100
AcDb2dVertex
 10
191.9126575128904
 20
127.6499392165365
 30
0.0
  0
VERTEX
  5
151
330
14D
100
AcDbEntity
  8
Layer 2
 62
     7
420
 16777215
370
    25
100
AcDbVertex
100
AcDb2dVertex
 10
177.9126571269734
 20
127.6499392165365
 30
0.0
  0
VERTEX
  5
152
330
14D
100
AcDbEntity
  8
Layer 2
 62
     7
420
 16777215
370
    25
100
AcDbVertex
100
AcDb2dVertex
 10
177.9126571269734
 20
113.6499388306195
 30
0.0
  0
SEQEND
  5
153
330
14D
100
AcDbEntity
  8
Layer 2
 62
     7
420
 16777215
370
    25
  0
POLYLINE
  5
154
330
1F
100
AcDbEntity
  8
Layer 2
 62
     7
420
 16777215
370
    25
100
AcDb2dPolyline
 66
     1
 10
0.0
 20
0.0
 30
0.0
  0
VERTEX
  5
155
330
154
100
AcDbEntity
  8
Layer 2
 62
     7
420
 16777215
370
    25
100
AcDbVertex
100
AcDb2dVertex
 10
46.94390351675391
 20
94.59994288313354
 30
0.0
  0
VERTEX
  5
156
330
154
100
AcDbEntity
  8
Layer 2
 62
     7
420
 16777215
370
    25
100
AcDbVertex
100
AcDb2dVertex
 10
60.94390390267092
 20
94.59994288313354
 30
0.0
  0
VERTEX
  5
157
330
154
100
AcDbEntity
  8
Layer 2
 62
     7
420
 16777215
370
    25
100
AcDbVertex
100
AcDb2dVertex
 10
60.94390390267092
 20
108.5999432690506
 30
0.0
  0
VERTEX
  5
158
330
154
100
AcDbEntity
  8
Layer 2
 62
     7
420
 16777215
370
    25
100
AcDbVertex
100
AcDb2dVertex
 10
46.94390351675391
 20
108.5999432690506
 30
0.0
  0
VERTEX
  5
159
330
154
100
AcDbEntity
  8
Layer 2
 62
     7
420
 16777215
370
    25
100
AcDbVertex
100
AcDb2dVertex
 10
46.94390351675391
 20
94.59994288313354
 30
0.0
  0
SEQEND
  5
15A
330
154
100
AcDbEntity
  8
Layer 2
 62
     7
420
 16777215
370
    25
  0
POLYLINE
  5
15B
330
1F
100
AcDbEntity
  8
Layer 2
 62
     7
420
 16777215
370
    25
100
AcDb2dPolyline
 66
     1
 10
0.0
 20
0.0
 30
0.0
  0
VERTEX
  5
15C
330
15B
100
AcDbEntity
  8
Layer 2
 62
     7
420
 16777215
370
    25
100
AcDbVertex
100
AcDb2dVertex
 10
85.04391067051529
 20
94.59994288313354
 30
0.0
  0
VERTEX
  5
15D
330
15B
100
AcDbEntity
  8
Layer 2
 62
     7
420
 16777215
370
    25
100
AcDbVertex
100
AcDb2dVertex
 10
99.0439110564323
 20
94.59994288313354
 30
0.0
  0
VERTEX
  5
15E
330
15B
100
AcDbEntity
  8
Layer 2
 62
     7
420
 16777215
370
    25
100
AcDbVertex
100
AcDb2dVertex
 10
99.0439110564323
 20
108.5999432690506
 30
0.0
  0
VERTEX
  5
15F
330
15B
100
AcDbEntity
  8
Layer 2
 62
     7
420
 16777215
370
    25
100
AcDbVertex
100
AcDb2dVertex
 10
85.04391067051529
 20
108.5999432690506
 30
0.0
  0
VERTEX
  5
160
330
15B
100
AcDbEntity
  8
Layer 2
 62
     7
420
 16777215
370
    25
100
AcDbVertex
100
AcDb2dVertex
 10
85.04391067051529
 20
94.59994288313354
 30
0.0
  0
SEQEND
  5
161
330
15B
100
AcDbEntity
  8
Layer 2
 62
     7
420
 16777215
370
    25
  0
POLYLINE
  5
162
330
1F
100
AcDbEntity
  8
Layer 2
 62
     7
420
 16777215
370
    25
100
AcDb2dPolyline
 66
     1
 10
0.0
 20
0.0
 30
0.0
  0
VERTEX
  5
163
330
162
100
AcDbEntity
  8
Layer 2
 62
     7
420
 16777215
370
    25
100
AcDbVertex
100
AcDb2dVertex
 10
108.8564113269191
 20
94.59994288313354
 30
0.0
  0
VERTEX
  5
164
330
162
100
AcDbEntity
  8
Layer 2
 62
     7
420
 16777215
370
    25
100
AcDbVertex
100
AcDb2dVertex
 10
122.8564117128361
 20
94.59994288313354
 30
0.0
  0
VERTEX
  5
165
330
162
100
AcDbEntity
  8
Layer 2
 62
     7
420
 16777215
370
    25
100
AcDbVertex
100
AcDb2dVertex
 10
122.8564117128361
 20
108.5999432690506
 30
0.0
  0
VERTEX
  5
166
330
162
100
AcDbEntity
  8
Layer 2
 62
     7
420
 16777215
370
    25
100
AcDbVertex
100
AcDb2dVertex
 10
108.8564113269191
 20
108.5999432690506
 30
0.0
  0
VERTEX
  5
167
330
162
100
AcDbEntity
  8
Layer 2
 62
     7
420
 16777215
370
    25
100
AcDbVertex
100
AcDb2dVertex
 10
108.8564113269191
 20
94.59994288313354
 30
0.0
  0
SEQEND
  5
168
330
162
100
AcDbEntity
  8
Layer 2
 62
     7
420
 16777215
370
    25
  0
POLYLINE
  5
169
330
1F
100
AcDbEntity
  8
Layer 2
 62
     7
420
 16777215
370
    25
100
AcDb2dPolyline
 66
     1
 10
0.0
 20
0.0
 30
0.0
  0
VERTEX
  5
16A
330
169
100
AcDbEntity
  8
Layer 2
 62
     7
420
 16777215
370
    25
100
AcDbVertex
100
AcDb2dVertex
 10
139.812649973212
 20
94.59994288313354
 30
0.0
  0
VERTEX
  5
16B
330
169
100
AcDbEntity
  8
Layer 2
 62
     7
420
 16777215
370
    25
100
AcDbVertex
100
AcDb2dVertex
 10
153.8126503591291
 20
94.59994288313354
 30
0.0
  0
VERTEX
  5
16C
330
169
100
AcDbEntity
  8
Layer 2
 62
     7
420
 16777215
370
    25
100
AcDbVertex
100
AcDb2dVertex
 10
153.8126503591291
 20
108.5999432690506
 30
0.0
  0
VERTEX
  5
16D
330
169
100
AcDbEntity
  8
Layer 2
 62
     7
420
 16777215
370
    25
100
AcDbVertex
100
AcDb2dVertex
 10
139.812649973212
 20
108.5999432690506
 30
0.0
  0
VERTEX
  5
16E
330
169
100
AcDbEntity
  8
Layer 2
 62
     7
420
 16777215
370
    25
100
AcDbVertex
100
AcDb2dVertex
 10
139.812649973212
 20
94.59994288313354
 30
0.0
  0
SEQEND
  5
16F
330
169
100
AcDbEntity
  8
Layer 2
 62
     7
420
 16777215
370
    25
  0
POLYLINE
  5
170
330
1F
100
AcDbEntity
  8
Layer 2
 62
     7
420
 16777215
370
    25
100
AcDb2dPolyline
 66
     1
 10
0.0
 20
0.0
 30
0.0
  0
VERTEX
  5
171
330
170
100
AcDbEntity
  8
Layer 2
 62
     7
420
 16777215
370
    25
100
AcDbVertex
100
AcDb2dVertex
 10
158.8626382913033
 20
94.59994288313354
 30
0.0
  0
VERTEX
  5
172
330
170
100
AcDbEntity
  8
Layer 2
 62
     7
420
 16777215
370
    25
100
AcDbVertex
100
AcDb2dVertex
 10
172.8626386772203
 20
94.59994288313354
 30
0.0
  0
VERTEX
  5
173
330
170
100
AcDbEntity
  8
Layer 2
 62
     7
420
 16777215
370
    25
100
AcDbVertex
100
AcDb2dVertex
 10
172.8626386772203
 20
108.5999432690506
 30
0.0
  0
VERTEX
  5
174
330
170
100
AcDbEntity
  8
Layer 2
 62
     7
420
 16777215
370
    25
100
AcDbVertex
100
AcDb2dVertex
 10
158.8626382913033
 20
108.5999432690506
 30
0.0
  0
VERTEX
  5
175
330
170
100
AcDbEntity
  8
Layer 2
 62
     7
420
 16777215
370
    25
100
AcDbVertex
100
AcDb2dVertex
 10
158.8626382913033
 20
94.59994288313354
 30
0.0
  0
SEQEND
  5
176
330
170
100
AcDbEntity
  8
Layer 2
 62
     7
420
 16777215
370
    25
  0
POLYLINE
  5
177
330
1F
100
AcDbEntity
  8
Layer 2
 62
     7
420
 16777215
370
    25
100
AcDb2dPolyline
 66
     1
 10
0.0
 20
0.0
 30
0.0
  0
VERTEX
  5
178
330
177
100
AcDbEntity
  8
Layer 2
 62
     7
420
 16777215
370
    25
100
AcDbVertex
100
AcDb2dVertex
 10
177.9126571269734
 20
94.59994288313354
 30
0.0
  0
VERTEX
  5
179
330
177
100
AcDbEntity
  8
Layer 2
 62
     7
420
 16777215
370
    25
100
AcDbVertex
100
AcDb2dVertex
 10
191.9126575128904
 20
94.59994288313354
 30
0.0
  0
VERTEX
  5
17A
330
177
100
AcDbEntity
  8
Layer 2
 62
     7
420
 16777215
370
    25
100
AcDbVertex
100
AcDb2dVertex
 10
191.9126575128904
 20
108.5999432690506
 30
0.0
  0
VERTEX
  5
17B
330
177
100
AcDbEntity
  8
Layer 2
 62
     7
420
 16777215
370
    25
100
AcDbVertex
100
AcDb2dVertex
 10
177.9126571269734
 20
108.5999432690506
 30
0.0
  0
VERTEX
  5
17C
330
177
100
AcDbEntity
  8
Layer 2
 62
     7
420
 16777215
370
    25
100
AcDbVertex
100
AcDb2dVertex
 10
177.9126571269734
 20
94.59994288313354
 30
0.0
  0
SEQEND
  5
17D
330
177
100
AcDbEntity
  8
Layer 2
 62
     7
420
 16777215
370
    25
  0
POLYLINE
  5
17E
330
1F
100
AcDbEntity
  8
Layer 2
 62
     7
420
 16777215
370
    25
100
AcDb2dPolyline
 66
     1
 10
0.0
 20
0.0
 30
0.0
  0
VERTEX
  5
17F
330
17E
100
AcDbEntity
  8
Layer 2
 62
     7
420
 16777215
370
    25
100
AcDbVertex
100
AcDb2dVertex
 10
138.5183994492541
 20
131.6999423799347
 30
0.0
  0
VERTEX
  5
180
330
17E
100
AcDbEntity
  8
Layer 2
 62
     7
420
 16777215
370
    25
100
AcDbVertex
100
AcDb2dVertex
 10
145.5183996422126
 20
131.6999423799347
 30
0.0
  0
VERTEX
  5
181
330
17E
100
AcDbEntity
  8
Layer 2
 62
     7
420
 16777215
370
    25
100
AcDbVertex
100
AcDb2dVertex
 10
145.5183996422126
 20
146.6999427934172
 30
0.0
  0
VERTEX
  5
182
330
17E
100
AcDbEntity
  8
Layer 2
 62
     7
420
 16777215
370
    25
100
AcDbVertex
100
AcDb2dVertex
 10
138.5183994492541
 20
146.6999427934172
 30
0.0
  0
VERTEX
  5
183
330
17E
100
AcDbEntity
  8
Layer 2
 62
     7
420
 16777215
370
    25
100
AcDbVertex
100
AcDb2dVertex
 10
138.5183994492541
 20
131.6999423799347
 30
0.0
  0
SEQEND
  5
184
330
17E
100
AcDbEntity
  8
Layer 2
 62
     7
420
 16777215
370
    25
  0
POLYLINE
  5
185
330
1F
100
AcDbEntity
  8
Layer 2
 62
     7
420
 16777215
370
    25
100
AcDb2dPolyline
 66
     1
 10
0.0
 20
0.0
 30
0.0
  0
VERTEX
  5
186
330
185
100
AcDbEntity
  8
Layer 2
 62
     7
420
 16777215
370
    25
100
AcDbVertex
100
AcDb2dVertex
 10
162.3944071874864
 20
131.6999423799347
 30
0.0
  0
VERTEX
  5
187
330
185
100
AcDbEntity
  8
Layer 2
 62
     7
420
 16777215
370
    25
100
AcDbVertex
100
AcDb2dVertex
 10
169.3944073804448
 20
131.6999423799347
 30
0.0
  0
VERTEX
  5
188
330
185
100
AcDbEntity
  8
Layer 2
 62
     7
420
 16777215
370
    25
100
AcDbVertex
100
AcDb2dVertex
 10
169.3944073804448
 20
146.6999427934172
 30
0.0
  0
VERTEX
  5
189
330
185
100
AcDbEntity
  8
Layer 2
 62
     7
420
 16777215
370
    25
100
AcDbVertex
100
AcDb2dVertex
 10
162.3944071874864
 20
146.6999427934172
 30
0.0
  0
VERTEX
  5
18A
330
185
100
AcDbEntity
  8
Layer 2
 62
     7
420
 16777215
370
    25
100
AcDbVertex
100
AcDb2dVertex
 10
162.3944071874864
 20
131.6999423799347
 30
0.0
  0
SEQEND
  5
18B
330
185
100
AcDbEntity
  8
Layer 2
 62
     7
420
 16777215
370
    25
  0
POLYLINE
  5
18C
330
1F
100
AcDbEntity
  8
Layer 2
 62
     7
420
 16777215
370
    25
100
AcDb2dPolyline
 66
     1
 10
0.0
 20
0.0
 30
0.0
  0
VERTEX
  5
18D
330
18C
100
AcDbEntity
  8
Layer 2
 62
     7
420
 16777215
370
    25
100
AcDbVertex
100
AcDb2dVertex
 10
69.38189241651828
 20
109.599943296616
 30
0.0
  0
VERTEX
  5
18E
330
18C
100
AcDbEntity
  8
Layer 2
 62
     7
420
 16777215
370
    25
100
AcDbVertex
100
AcDb2dVertex
 10
62.38189222355978
 20
109.599943296616
 30
0.0
  0
VERTEX
  5
18F
330
18C
100
AcDbEntity
  8
Layer 2
 62
     7
420
 16777215
370
    25
100
AcDbVertex
100
AcDb2dVertex
 10
62.38189222355978
 20
94.59994288313354
 30
0.0
  0
VERTEX
  5
190
330
18C
100
AcDbEntity
  8
Layer 2
 62
     7
420
 16777215
370
    25
100
AcDbVertex
100
AcDb2dVertex
 10
69.38189241651828
 20
94.59994288313354
 30
0.0
  0
VERTEX
  5
191
330
18C
100
AcDbEntity
  8
Layer 2
 62
     7
420
 16777215
370
    25
100
AcDbVertex
100
AcDb2dVertex
 10
69.38189241651828
 20
109.599943296616
 30
0.0
  0
SEQEND
  5
192
330
18C
100
AcDbEntity
  8
Layer 2
 62
     7
420
 16777215
370
    25
  0
POLYLINE
  5
193
330
1F
100
AcDbEntity
  8
Layer 2
 62
     7
420
 16777215
370
    25
100
AcDb2dPolyline
 66
     1
 10
0.0
 20
0.0
 30
0.0
  0
VERTEX
  5
194
330
193
100
AcDbEntity
  8
Layer 2
 62
     7
420
 16777215
370
    25
100
AcDbVertex
100
AcDb2dVertex
 10
45.50588467828607
 20
109.599943296616
 30
0.0
  0
VERTEX
  5
195
330
193
100
AcDbEntity
  8
Layer 2
 62
     7
420
 16777215
370
    25
100
AcDbVertex
100
AcDb2dVertex
 10
38.50589974411704
 20
109.599943296616
 30
0.0
  0
VERTEX
  5
196
330
193
100
AcDbEntity
  8
Layer 2
 62
     7
420
 16777215
370
    25
100
AcDbVertex
100
AcDb2dVertex
 10
38.50589974411704
 20
94.59994288313354
 30
0.0
  0
VERTEX
  5
197
330
193
100
AcDbEntity
  8
Layer 2
 62
     7
420
 16777215
370
    25
100
AcDbVertex
100
AcDb2dVertex
 10
45.50588467828607
 20
94.59994288313354
 30
0.0
  0
VERTEX
  5
198
330
193
100
AcDbEntity
  8
Layer 2
 62
     7
420
 16777215
370
    25
100
AcDbVertex
100
AcDb2dVertex
 10
45.50588467828607
 20
109.599943296616
 30
0.0
  0
SEQEND
  5
199
330
193
100
AcDbEntity
  8
Layer 2
 62
     7
420
 16777215
370
    25
  0
ENDSEC
  0
SECTION
  2
OBJECTS
  0
DICTIONARY
  5
C
330
0
100
AcDbDictionary
281
     1
  3
ACAD_GROUP
350
D
  3
ACAD_LAYOUT
350
1A
  3
ACAD_MATERIAL
350
3B
  3
ACAD_MLEADERSTYLE
350
19B
  3
ACAD_MLINESTYLE
350
17
  3
ACAD_PLOTSETTINGS
350
19
  3
ACAD_PLOTSTYLENAME
350
E
  3
ACAD_TABLESTYLE
350
19A
  3
ACAD_VISUALSTYLE
350
2A
  0
SUN
  5
3F
330
29
100
AcDbSun
 90
        1
290
     0
 63
     7
421
 16777215
 40
1.0
291
     1
 91
  2455826
 92
 54000000
292
     0
 70
     2
 71
   256
280
     1
  0
DICTIONARY
  5
D
102
{ACAD_REACTORS
330
C
102
}
330
C
100
AcDbDictionary
281
     1
  0
DICTIONARY
  5
1A
102
{ACAD_REACTORS
330
C
102
}
330
C
100
AcDbDictionary
281
     1
  3
Layout1
350
1E
  3
Layout2
350
26
  3
Model
350
22
  0
DICTIONARY
  5
3B
102
{ACAD_REACTORS
330
C
102
}
330
C
100
AcDbDictionary
281
     1
  3
ByBlock
350
3D
  3
ByLayer
350
3C
  3
Global
350
3E
  0
DICTIONARY
  5
19B
102
{ACAD_REACTORS
330
C
102
}
330
C
100
AcDbDictionary
281
     1
  0
DICTIONARY
  5
17
102
{ACAD_REACTORS
330
C
102
}
330
C
100
AcDbDictionary
281
     1
  3
Standard
350
18
  0
DICTIONARY
  5
19
102
{ACAD_REACTORS
330
C
102
}
330
C
100
AcDbDictionary
281
     1
  0
ACDBDICTIONARYWDFLT
  5
E
102
{ACAD_REACTORS
330
C
102
}
330
C
100
AcDbDictionary
281
     1
  3
Normal
350
F
100
AcDbDictionaryWithDefault
340
F
  0
DICTIONARY
  5
19A
102
{ACAD_REACTORS
330
C
102
}
330
C
100
AcDbDictionary
281
     1
  0
DICTIONARY
  5
2A
102
{ACAD_REACTORS
330
C
102
}
330
C
100
AcDbDictionary
281
     1
  3
2dWireframe
350
2F
  3
3D Hidden
350
31
  3
3dWireframe
350
30
  3
Basic
350
32
  3
Brighten
350
36
  3
ColorChange
350
3A
  3
Conceptual
350
34
  3
Dim
350
35
  3
Facepattern
350
39
  3
Flat
350
2B
  3
FlatWithEdges
350
2C
  3
Gouraud
350
2D
  3
GouraudWithEdges
350
2E
  3
Linepattern
350
38
  3
Realistic
350
33
  3
Thicken
350
37
  0
LAYOUT
  5
1E
102
{ACAD_REACTORS
330
1A
102
}
330
1A
100
AcDbPlotSettings
  1

  2
none_device
  4

  6

 40
0.0
 41
0.0
 42
0.0
 43
0.0
 44
0.0
 45
0.0
 46
0.0
 47
0.0
 48
0.0
 49
0.0
140
0.0
141
0.0
142
1.0
143
1.0
 70
   688
 72
     0
 73
     0
 74
     5
  7

 75
    16
 76
     0
 77
     2
 78
   300
147
1.0
148
0.0
149
0.0
100
AcDbLayout
  1
Layout1
 70
     1
 71
     1
 10
0.0
 20
0.0
 11
12.0
 21
9.0
 12
0.0
 22
0.0
 32
0.0
 14
1.000000000000000E+20
 24
1.000000000000000E+20
 34
1.000000000000000E+20
 15
-1.000000000000000E+20
 25
-1.000000000000000E+20
 35
-1.000000000000000E+20
146
0.0
 13
0.0
 23
0.0
 33
0.0
 16
1.0
 26
0.0
 36
0.0
 17
0.0
 27
1.0
 37
0.0
 76
     0
330
1B
  0
LAYOUT
  5
26
102
{ACAD_REACTORS
330
1A
102
}
330
1A
100
AcDbPlotSettings
  1

  2
none_device
  4

  6

 40
0.0
 41
0.0
 42
0.0
 43
0.0
 44
0.0
 45
0.0
 46
0.0
 47
0.0
 48
0.0
 49
0.0
140
0.0
141
0.0
142
1.0
143
1.0
 70
   688
 72
     0
 73
     0
 74
     5
  7

 75
    16
 76
     0
 77
     2
 78
   300
147
1.0
148
0.0
149
0.0
100
AcDbLayout
  1
Layout2
 70
     1
 71
     2
 10
0.0
 20
0.0
 11
0.0
 21
0.0
 12
0.0
 22
0.0
 32
0.0
 14
0.0
 24
0.0
 34
0.0
 15
0.0
 25
0.0
 35
0.0
146
0.0
 13
0.0
 23
0.0
 33
0.0
 16
1.0
 26
0.0
 36
0.0
 17
0.0
 27
1.0
 37
0.0
 76
     0
330
23
  0
LAYOUT
  5
22
102
{ACAD_REACTORS
330
1A
102
}
330
1A
100
AcDbPlotSettings
  1

  2
none_device
  4

  6

 40
0.0
 41
0.0
 42
0.0
 43
0.0
 44
0.0
 45
0.0
 46
0.0
 47
0.0
 48
0.0
 49
0.0
140
0.0
141
0.0
142
1.0
143
1.0
 70
  1712
 72
     0
 73
     0
 74
     0
  7

 75
     0
 76
     0
 77
     2
 78
   300
147
1.0
148
0.0
149
0.0
100
AcDbLayout
  1
Model
 70
     1
 71
     0
 10
0.0
 20
0.0
 11
12.0
 21
9.0
 12
0.0
 22
0.0
 32
0.0
 14
1.000000000000000E+20
 24
1.000000000000000E+20
 34
1.000000000000000E+20
 15
-1.000000000000000E+20
 25
-1.000000000000000E+20
 35
-1.000000000000000E+20
146
0.0
 13
0.0
 23
0.0
 33
0.0
 16
1.0
 26
0.0
 36
0.0
 17
0.0
 27
1.0
 37
0.0
 76
     0
330
1F
331
29
  0
MATERIAL
  5
3D
102
{ACAD_REACTORS
330
3B
102
}
330
3B
100
AcDbMaterial
  1
ByBlock
 72
     1
 94
      127
  0
MATERIAL
  5
3C
102
{ACAD_REACTORS
330
3B
102
}
330
3B
100
AcDbMaterial
  1
ByLayer
 72
     1
 94
      127
  0
MATERIAL
  5
3E
102
{ACAD_REACTORS
330
3B
102
}
330
3B
100
AcDbMaterial
  1
Global
 72
     1
 94
      127
  0
MLINESTYLE
  5
18
102
{ACAD_REACTORS
330
17
102
}
330
17
100
AcDbMlineStyle
  2
Standard
 70
     0
  3

 62
   256
 51
90.0
 52
90.0
 71
     2
 49
0.5
 62
   256
  6
BYLAYER
 49
-0.5
 62
   256
  6
BYLAYER
  0
ACDBPLACEHOLDER
  5
F
102
{ACAD_REACTORS
330
E
102
}
330
E
  0
VISUALSTYLE
  5
2F
102
{ACAD_REACTORS
330
2A
102
}
330
2A
100
AcDbVisualStyle
  2
2dWireframe
 70
     4
177
     2
291
     0
 71
     0
176
     1
 72
     2
176
     1
 73
     0
176
     1
 90
        0
176
     1
 40
-0.6
176
     1
 41
-30.0
176
     1
 62
     5
 63
     7
421
 16777215
176
     1
 74
     1
176
     1
 91
        4
176
     1
 64
     7
176
     1
 65
   257
176
     1
 75
     1
176
     1
175
     1
176
     1
 42
1.0
176
     1
 92
        0
176
     1
 66
   257
176
     1
 43
1.0
176
     1
 76
     1
176
     1
 77
     6
176
     1
 78
     2
176
     1
 67
     7
176
     1
 79
     5
176
     1
170
     0
176
     1
171
     0
176
     1
290
     0
176
     1
 93
        1
176
     1
 44
0.0
176
     1
173
     0
176
     1
  0
VISUALSTYLE
  5
31
102
{ACAD_REACTORS
330
2A
102
}
330
2A
100
AcDbVisualStyle
  2
3D Hidden
 70
     6
177
     2
291
     0
 71
     1
176
     1
 72
     2
176
     1
 73
     2
176
     1
 90
        0
176
     1
 40
-0.6
176
     1
 41
-30.0
176
     1
 62
     5
 63
     7
421
 16777215
176
     1
 74
     2
176
     1
 91
        2
176
     1
 64
     7
176
     1
 65
   257
176
     1
 75
     2
176
     1
175
     1
176
     1
 42
40.0
176
     1
 92
        0
176
     1
 66
   257
176
     1
 43
1.0
176
     1
 76
     1
176
     1
 77
     6
176
     1
 78
     2
176
     1
 67
     7
176
     1
 79
     3
176
     1
170
     0
176
     1
171
     0
176
     1
290
     0
176
     1
 93
        1
176
     1
 44
0.0
176
     1
173
     0
176
     1
  0
VISUALSTYLE
  5
30
102
{ACAD_REACTORS
330
2A
102
}
330
2A
100
AcDbVisualStyle
  2
3dWireframe
 70
     5
177
     2
291
     0
 71
     0
176
     1
 72
     2
176
     1
 73
     0
176
     1
 90
        0
176
     1
 40
-0.6
176
     1
 41
-30.0
176
     1
 62
     5
 63
     7
421
 16777215
176
     1
 74
     1
176
     1
 91
        4
176
     1
 64
     7
176
     1
 65
   257
176
     1
 75
     1
176
     1
175
     1
176
     1
 42
1.0
176
     1
 92
        0
176
     1
 66
   257
176
     1
 43
1.0
176
     1
 76
     1
176
     1
 77
     6
176
     1
 78
     2
176
     1
 67
     7
176
     1
 79
     5
176
     1
170
     0
176
     1
171
     0
176
     1
290
     0
176
     1
 93
        1
176
     1
 44
0.0
176
     1
173
     0
176
     1
  0
VISUALSTYLE
  5
32
102
{ACAD_REACTORS
330
2A
102
}
330
2A
100
AcDbVisualStyle
  2
Basic
 70
     7
177
     2
291
     1
 71
     1
176
     1
 72
     0
176
     1
 73
     1
176
     1
 90
        0
176
     1
 40
-0.6
176
     1
 41
-30.0
176
     1
 62
     5
 63
     7
421
 16777215
176
     1
 74
     0
176
     1
 91
        4
176
     1
 64
     7
176
     1
 65
   257
176
     1
 75
     1
176
     1
175
     1
176
     1
 42
1.0
176
     1
 92
        8
176
     1
 66
     7
176
     1
 43
1.0
176
     1
 76
     1
176
     1
 77
     6
176
     1
 78
     2
176
     1
 67
     7
176
     1
 79
     5
176
     1
170
     0
176
     1
171
     0
176
     1
290
     0
176
     1
 93
        1
176
     1
 44
0.0
176
     1
173
     0
176
     1
  0
VISUALSTYLE
  5
36
102
{ACAD_REACTORS
330
2A
102
}
330
2A
100
AcDbVisualStyle
  2
Brighten
 70
    12
177
     2
291
     1
 71
     2
176
     1
 72
     2
176
     1
 73
     0
176
     1
 90
        0
176
     1
 40
-0.6
176
     1
 41
-30.0
176
     1
 62
     5
 63
     7
421
 16777215
176
     1
 74
     1
176
     1
 91
        4
176
     1
 64
     7
176
     1
 65
   257
176
     1
 75
     1
176
     1
175
     1
176
     1
 42
1.0
176
     1
 92
        8
176
     1
 66
     7
176
     1
 43
1.0
176
     1
 76
     1
176
     1
 77
     6
176
     1
 78
     2
176
     1
 67
     7
176
     1
 79
     5
176
     1
170
     0
176
     1
171
     0
176
     1
290
     0
176
     1
 93
        1
176
     1
 44
50.0
176
     1
173
     0
176
     1
  0
VISUALSTYLE
  5
3A
102
{ACAD_REACTORS
330
2A
102
}
330
2A
100
AcDbVisualStyle
  2
ColorChange
 70
    16
177
     2
291
     1
 71
     2
176
     1
 72
     2
176
     1
 73
     3
176
     1
 90
        0
176
     1
 40
-0.6
176
     1
 41
-30.0
176
     1
 62
     5
 63
     8
421
  8421504
176
     1
 74
     1
176
     1
 91
        4
176
     1
 64
     7
176
     1
 65
   257
176
     1
 75
     1
176
     1
175
     1
176
     1
 42
1.0
176
     1
 92
        8
176
     1
 66
     8
424
  8421504
176
     1
 43
1.0
176
     1
 76
     1
176
     1
 77
     6
176
     1
 78
     2
176
     1
 67
     7
176
     1
 79
     5
176
     1
170
     0
176
     1
171
     0
176
     1
290
     0
176
     1
 93
        1
176
     1
 44
0.0
176
     1
173
     0
176
     1
  0
VISUALSTYLE
  5
34
102
{ACAD_REACTORS
330
2A
102
}
330
2A
100
AcDbVisualStyle
  2
Conceptual
 70
     9
177
     2
291
     0
 71
     3
176
     1
 72
     2
176
     1
 73
     0
176
     1
 90
        0
176
     1
 40
-0.6
176
     1
 41
-30.0
176
     1
 62
     5
 63
     7
421
 16777215
176
     1
 74
     2
176
     1
 91
        2
176
     1
 64
     7
176
     1
 65
   257
176
     1
 75
     1
176
     1
175
     1
176
     1
 42
40.0
176
     1
 92
        8
176
     1
 66
     7
176
     1
 43
1.0
176
     1
 76
     1
176
     1
 77
     6
176
     1
 78
     2
176
     1
 67
     7
176
     1
 79
     3
176
     1
170
     0
176
     1
171
     0
176
     1
290
     0
176
     1
 93
        1
176
     1
 44
0.0
176
     1
173
     0
176
     1
  0
VISUALSTYLE
  5
35
102
{ACAD_REACTORS
330
2A
102
}
330
2A
100
AcDbVisualStyle
  2
Dim
 70
    11
177
     2
291
     1
 71
     2
176
     1
 72
     2
176
     1
 73
     0
176
     1
 90
        0
176
     1
 40
-0.6
176
     1
 41
-30.0
176
     1
 62
     5
 63
     7
421
 16777215
176
     1
 74
     1
176
     1
 91
        4
176
     1
 64
     7
176
     1
 65
   257
176
     1
 75
     1
176
     1
175
     1
176
     1
 42
1.0
176
     1
 92
        8
176
     1
 66
     7
176
     1
 43
1.0
176
     1
 76
     1
176
     1
 77
     6
176
     1
 78
     2
176
     1
 67
     7
176
     1
 79
     5
176
     1
170
     0
176
     1
171
     0
176
     1
290
     0
176
     1
 93
        1
176
     1
 44
-50.0
176
     1
173
     0
176
     1
  0
VISUALSTYLE
  5
39
102
{ACAD_REACTORS
330
2A
102
}
330
2A
100
AcDbVisualStyle
  2
Facepattern
 70
    15
177
     2
291
     1
 71
     2
176
     1
 72
     2
176
     1
 73
     0
176
     1
 90
        0
176
     1
 40
-0.6
176
     1
 41
-30.0
176
     1
 62
     5
 63
     7
421
 16777215
176
     1
 74
     1
176
     1
 91
        4
176
     1
 64
     7
176
     1
 65
   257
176
     1
 75
     1
176
     1
175
     1
176
     1
 42
1.0
176
     1
 92
        8
176
     1
 66
     7
176
     1
 43
1.0
176
     1
 76
     1
176
     1
 77
     6
176
     1
 78
     2
176
     1
 67
     7
176
     1
 79
     5
176
     1
170
     0
176
     1
171
     0
176
     1
290
     0
176
     1
 93
        1
176
     1
 44
0.0
176
     1
173
     0
176
     1
  0
VISUALSTYLE
  5
2B
102
{ACAD_REACTORS
330
2A
102
}
330
2A
100
AcDbVisualStyle
  2
Flat
 70
     0
177
     2
291
     1
 71
     2
176
     1
 72
     1
176
     1
 73
     1
176
     1
 90
        2
176
     1
 40
-0.6
176
     1
 41
30.0
176
     1
 62
     5
 63
     7
421
 16777215
176
     1
 74
     0
176
     1
 91
        4
176
     1
 64
     7
176
     1
 65
   257
176
     1
 75
     1
176
     1
175
     1
176
     1
 42
1.0
176
     1
 92
        8
176
     1
 66
     7
176
     1
 43
1.0
176
     1
 76
     1
176
     1
 77
     6
176
     1
 78
     2
176
     1
 67
     7
176
     1
 79
     5
176
     1
170
     0
176
     1
171
     0
176
     1
290
     0
176
     1
 93
       13
176
     1
 44
0.0
176
     1
173
     0
176
     1
  0
VISUALSTYLE
  5
2C
102
{ACAD_REACTORS
330
2A
102
}
330
2A
100
AcDbVisualStyle
  2
FlatWithEdges
 70
     1
177
     2
291
     1
 71
     2
176
     1
 72
     1
176
     1
 73
     1
176
     1
 90
        2
176
     1
 40
-0.6
176
     1
 41
30.0
176
     1
 62
     5
 63
     7
421
 16777215
176
     1
 74
     1
176
     1
 91
        4
176
     1
 64
     7
176
     1
 65
   257
176
     1
 75
     1
176
     1
175
     1
176
     1
 42
1.0
176
     1
 92
        0
176
     1
 66
   257
176
     1
 43
1.0
176
     1
 76
     1
176
     1
 77
     6
176
     1
 78
     2
176
     1
 67
     7
176
     1
 79
     5
176
     1
170
     0
176
     1
171
     0
176
     1
290
     0
176
     1
 93
       13
176
     1
 44
0.0
176
     1
173
     0
176
     1
  0
VISUALSTYLE
  5
2D
102
{ACAD_REACTORS
330
2A
102
}
330
2A
100
AcDbVisualStyle
  2
Gouraud
 70
     2
177
     2
291
     1
 71
     2
176
     1
 72
     2
176
     1
 73
     1
176
     1
 90
        2
176
     1
 40
-0.6
176
     1
 41
30.0
176
     1
 62
     5
 63
     7
421
 16777215
176
     1
 74
     0
176
     1
 91
        4
176
     1
 64
     7
176
     1
 65
   257
176
     1
 75
     1
176
     1
175
     1
176
     1
 42
1.0
176
     1
 92
        0
176
     1
 66
     7
176
     1
 43
1.0
176
     1
 76
     1
176
     1
 77
     6
176
     1
 78
     2
176
     1
 67
     7
176
     1
 79
     5
176
     1
170
     0
176
     1
171
     0
176
     1
290
     0
176
     1
 93
       13
176
     1
 44
0.0
176
     1
173
     0
176
     1
  0
VISUALSTYLE
  5
2E
102
{ACAD_REACTORS
330
2A
102
}
330
2A
100
AcDbVisualStyle
  2
GouraudWithEdges
 70
     3
177
     2
291
     1
 71
     2
176
     1
 72
     2
176
     1
 73
     1
176
     1
 90
        2
176
     1
 40
-0.6
176
     1
 41
30.0
176
     1
 62
     5
 63
     7
421
 16777215
176
     1
 74
     1
176
     1
 91
        4
176
     1
 64
     7
176
     1
 65
   257
176
     1
 75
     1
176
     1
175
     1
176
     1
 42
1.0
176
     1
 92
        0
176
     1
 66
   257
176
     1
 43
1.0
176
     1
 76
     1
176
     1
 77
     6
176
     1
 78
     2
176
     1
 67
     7
176
     1
 79
     5
176
     1
170
     0
176
     1
171
     0
176
     1
290
     0
176
     1
 93
       13
176
     1
 44
0.0
176
     1
173
     0
176
     1
  0
VISUALSTYLE
  5
38
102
{ACAD_REACTORS
330
2A
102
}
330
2A
100
AcDbVisualStyle
  2
Linepattern
 70
    14
177
     2
291
     1
 71
     2
176
     1
 72
     2
176
     1
 73
     0
176
     1
 90
        0
176
     1
 40
-0.6
176
     1
 41
-30.0
176
     1
 62
     5
 63
     7
421
 16777215
176
     1
 74
     1
176
     1
 91
        4
176
     1
 64
     7
176
     1
 65
   257
176
     1
 75
     7
176
     1
175
     7
176
     1
 42
1.0
176
     1
 92
        8
176
     1
 66
     7
176
     1
 43
1.0
176
     1
 76
     1
176
     1
 77
     6
176
     1
 78
     2
176
     1
 67
     7
176
     1
 79
     5
176
     1
170
     0
176
     1
171
     0
176
     1
290
     0
176
     1
 93
        1
176
     1
 44
0.0
176
     1
173
     0
176
     1
  0
VISUALSTYLE
  5
33
102
{ACAD_REACTORS
330
2A
102
}
330
2A
100
AcDbVisualStyle
  2
Realistic
 70
     8
177
     2
291
     0
 71
     2
176
     1
 72
     2
176
     1
 73
     0
176
     1
 90
        0
176
     1
 40
-0.6
176
     1
 41
-30.0
176
     1
 62
     5
 63
     7
421
 16777215
176
     1
 74
     1
176
     1
 91
        0
176
     1
 64
     7
176
     1
 65
   257
176
     1
 75
     1
176
     1
175
     1
176
     1
 42
1.0
176
     1
 92
        8
176
     1
 66
     8
424
  7895160
176
     1
 43
1.0
176
     1
 76
     1
176
     1
 77
     6
176
     1
 78
     2
176
     1
 67
     7
176
     1
 79
     5
176
     1
170
     0
176
     1
171
     0
176
     1
290
     0
176
     1
 93
       13
176
     1
 44
0.0
176
     1
173
     0
176
     1
  0
VISUALSTYLE
  5
37
102
{ACAD_REACTORS
330
2A
102
}
330
2A
100
AcDbVisualStyle
  2
Thicken
 70
    13
177
     2
291
     1
 71
     2
176
     1
 72
     2
176
     1
 73
     0
176
     1
 90
        0
176
     1
 40
-0.6
176
     1
 41
-30.0
176
     1
 62
     5
 63
     7
421
 16777215
176
     1
 74
     1
176
     1
 91
        4
176
     1
 64
     7
176
     1
 65
   257
176
     1
 75
     1
176
     1
175
     1
176
     1
 42
1.0
176
     1
 92
       12
176
     1
 66
     7
176
     1
 43
1.0
176
     1
 76
     1
176
     1
 77
     6
176
     1
 78
     2
176
     1
 67
     7
176
     1
 79
     5
176
     1
170
     0
176
     1
171
     0
176
     1
290
     0
176
     1
 93
        1
176
     1
 44
0.0
176
     1
173
     0
176
     1
  0
ENDSEC
  0
EOF
