  0
SECTION
  2
HEADER
  9
$ACADVER
  1
AC1024
  9
$ACADMAINTVER
 70
     6
  9
$DWGCODEPAGE
  3
UNDEFINED
  9
$INSBASE
 10
0.0
 20
0.0
 30
0.0
  9
$EXTMIN
 10
1.000000000000000E+20
 20
1.000000000000000E+20
 30
1.000000000000000E+20
  9
$EXTMAX
 10
-1.000000000000000E+20
 20
-1.000000000000000E+20
 30
-1.000000000000000E+20
  9
$LIMMIN
 10
0.0
 20
0.0
  9
$LIMMAX
 10
12.0
 20
9.0
  9
$ORTHOMODE
 70
     0
  9
$REGENMODE
 70
     1
  9
$FILLMODE
 70
     1
  9
$QTEXTMODE
 70
     0
  9
$MIRRTEXT
 70
     1
  9
$LTSCALE
 40
1.0
  9
$ATTMODE
 70
     1
  9
$TEXTSIZE
 40
0.2
  9
$TRACEWID
 40
0.05
  9
$TEXTSTYLE
  7
Standard
  9
$CLAYER
  8
0
  9
$CELTYPE
  6
ByLayer
  9
$CECOLOR
 62
   256
  9
$CELTSCALE
 40
1.0
  9
$DISPSILH
 70
     0
  9
$DIMSCALE
 40
1.0
  9
$DIMASZ
 40
0.18
  9
$DIMEXO
 40
0.0625
  9
$DIMDLI
 40
0.38
  9
$DIMRND
 40
0.0
  9
$DIMDLE
 40
0.0
  9
$DIMEXE
 40
0.18
  9
$DIMTP
 40
0.0
  9
$DIMTM
 40
0.0
  9
$DIMTXT
 40
0.18
  9
$DIMCEN
 40
0.09
  9
$DIMTSZ
 40
0.0
  9
$DIMTOL
 70
     0
  9
$DIMLIM
 70
     0
  9
$DIMTIH
 70
     1
  9
$DIMTOH
 70
     1
  9
$DIMSE1
 70
     0
  9
$DIMSE2
 70
     0
  9
$DIMTAD
 70
     0
  9
$DIMZIN
 70
     0
  9
$DIMBLK
  1

  9
$DIMASO
 70
     1
  9
$DIMSHO
 70
     1
  9
$DIMPOST
  1

  9
$DIMAPOST
  1

  9
$DIMALT
 70
     0
  9
$DIMALTD
 70
     2
  9
$DIMALTF
 40
25.4
  9
$DIMLFAC
 40
1.0
  9
$DIMTOFL
 70
     0
  9
$DIMTVP
 40
0.0
  9
$DIMTIX
 70
     0
  9
$DIMSOXD
 70
     0
  9
$DIMSAH
 70
     0
  9
$DIMBLK1
  1

  9
$DIMBLK2
  1

  9
$DIMSTYLE
  2
Standard
  9
$DIMCLRD
 70
     0
  9
$DIMCLRE
 70
     0
  9
$DIMCLRT
 70
     0
  9
$DIMTFAC
 40
1.0
  9
$DIMGAP
 40
0.09
  9
$DIMJUST
 70
     0
  9
$DIMSD1
 70
     0
  9
$DIMSD2
 70
     0
  9
$DIMTOLJ
 70
     1
  9
$DIMTZIN
 70
     0
  9
$DIMALTZ
 70
     0
  9
$DIMALTTZ
 70
     0
  9
$DIMUPT
 70
     0
  9
$DIMDEC
 70
     4
  9
$DIMTDEC
 70
     4
  9
$DIMALTU
 70
     2
  9
$DIMALTTD
 70
     2
  9
$DIMTXSTY
  7
Standard
  9
$DIMAUNIT
 70
     0
  9
$DIMADEC
 70
     0
  9
$DIMALTRND
 40
0.0
  9
$DIMAZIN
 70
     0
  9
$DIMDSEP
 70
    46
  9
$DIMATFIT
 70
     3
  9
$DIMFRAC
 70
     0
  9
$DIMLDRBLK
  1

  9
$DIMLUNIT
 70
     2
  9
$DIMLWD
 70
    -2
  9
$DIMLWE
 70
    -2
  9
$DIMTMOVE
 70
     0
  9
$DIMFXL
 40
1.0
  9
$DIMFXLON
 70
     0
  9
$DIMJOGANG
 40
0.7853981633974483
  9
$DIMTFILL
 70
     0
  9
$DIMTFILLCLR
 70
     0
  9
$DIMARCSYM
 70
     0
  9
$DIMLTYPE
  6

  9
$DIMLTEX1
  6

  9
$DIMLTEX2
  6

  9
$DIMTXTDIRECTION
 70
     0
  9
$LUNITS
 70
     2
  9
$LUPREC
 70
     4
  9
$SKETCHINC
 40
0.1
  9
$FILLETRAD
 40
0.5
  9
$AUNITS
 70
     0
  9
$AUPREC
 70
     0
  9
$MENU
  1
.
  9
$ELEVATION
 40
0.0
  9
$PELEVATION
 40
0.0
  9
$THICKNESS
 40
0.0
  9
$LIMCHECK
 70
     0
  9
$CHAMFERA
 40
0.5
  9
$CHAMFERB
 40
0.5
  9
$CHAMFERC
 40
1.0
  9
$CHAMFERD
 40
0.0
  9
$SKPOLY
 70
     0
  9
$TDCREATE
 40
2459741.460069444
  9
$TDUCREATE
 40
2459741.668402778
  9
$TDUPDATE
 40
2459741.460069444
  9
$TDUUPDATE
 40
2459741.668402778
  9
$TDINDWG
 40
0.0000000116
  9
$TDUSRTIMER
 40
0.0000000116
  9
$USRTIMER
 70
     1
  9
$ANGBASE
 50
0.0
  9
$ANGDIR
 70
     0
  9
$PDMODE
 70
     0
  9
$PDSIZE
 40
0.0
  9
$PLINEWID
 40
0.0
  9
$SPLFRAME
 70
     0
  9
$SPLINETYPE
 70
     6
  9
$SPLINESEGS
 70
     8
  9
$HANDSEED
  5
1E9
  9
$SURFTAB1
 70
     6
  9
$SURFTAB2
 70
     6
  9
$SURFTYPE
 70
     6
  9
$SURFU
 70
     6
  9
$SURFV
 70
     6
  9
$UCSBASE
  2

  9
$UCSNAME
  2

  9
$UCSORG
 10
0.0
 20
0.0
 30
0.0
  9
$UCSXDIR
 10
1.0
 20
0.0
 30
0.0
  9
$UCSYDIR
 10
0.0
 20
1.0
 30
0.0
  9
$UCSORTHOREF
  2

  9
$UCSORTHOVIEW
 70
     0
  9
$UCSORGTOP
 10
0.0
 20
0.0
 30
0.0
  9
$UCSORGBOTTOM
 10
0.0
 20
0.0
 30
0.0
  9
$UCSORGLEFT
 10
0.0
 20
0.0
 30
0.0
  9
$UCSORGRIGHT
 10
0.0
 20
0.0
 30
0.0
  9
$UCSORGFRONT
 10
0.0
 20
0.0
 30
0.0
  9
$UCSORGBACK
 10
0.0
 20
0.0
 30
0.0
  9
$PUCSBASE
  2

  9
$PUCSNAME
  2

  9
$PUCSORG
 10
0.0
 20
0.0
 30
0.0
  9
$PUCSXDIR
 10
1.0
 20
0.0
 30
0.0
  9
$PUCSYDIR
 10
0.0
 20
1.0
 30
0.0
  9
$PUCSORTHOREF
  2

  9
$PUCSORTHOVIEW
 70
     0
  9
$PUCSORGTOP
 10
0.0
 20
0.0
 30
0.0
  9
$PUCSORGBOTTOM
 10
0.0
 20
0.0
 30
0.0
  9
$PUCSORGLEFT
 10
0.0
 20
0.0
 30
0.0
  9
$PUCSORGRIGHT
 10
0.0
 20
0.0
 30
0.0
  9
$PUCSORGFRONT
 10
0.0
 20
0.0
 30
0.0
  9
$PUCSORGBACK
 10
0.0
 20
0.0
 30
0.0
  9
$USERI1
 70
     0
  9
$USERI2
 70
     0
  9
$USERI3
 70
     0
  9
$USERI4
 70
     0
  9
$USERI5
 70
     0
  9
$USERR1
 40
0.0
  9
$USERR2
 40
0.0
  9
$USERR3
 40
0.0
  9
$USERR4
 40
0.0
  9
$USERR5
 40
0.0
  9
$WORLDVIEW
 70
     1
  9
$SHADEDGE
 70
     3
  9
$SHADEDIF
 70
    70
  9
$TILEMODE
 70
     1
  9
$MAXACTVP
 70
    64
  9
$PINSBASE
 10
0.0
 20
0.0
 30
0.0
  9
$PLIMCHECK
 70
     0
  9
$PEXTMIN
 10
1.000000000000000E+20
 20
1.000000000000000E+20
 30
1.000000000000000E+20
  9
$PEXTMAX
 10
-1.000000000000000E+20
 20
-1.000000000000000E+20
 30
-1.000000000000000E+20
  9
$PLIMMIN
 10
0.0
 20
0.0
  9
$PLIMMAX
 10
12.0
 20
9.0
  9
$UNITMODE
 70
     0
  9
$VISRETAIN
 70
     1
  9
$PLINEGEN
 70
     0
  9
$PSLTSCALE
 70
     1
  9
$TREEDEPTH
 70
  3020
  9
$CMLSTYLE
  2
Standard
  9
$CMLJUST
 70
     0
  9
$CMLSCALE
 40
1.0
  9
$PROXYGRAPHICS
 70
     1
  9
$MEASUREMENT
 70
     0
  9
$CELWEIGHT
370
    -1
  9
$ENDCAPS
280
     0
  9
$JOINSTYLE
280
     0
  9
$LWDISPLAY
290
     1
  9
$INSUNITS
 70
     4
  9
$HYPERLINKBASE
  1

  9
$STYLESHEET
  1

  9
$XEDIT
290
     1
  9
$CEPSNTYPE
380
     0
  9
$PSTYLEMODE
290
     1
  9
$FINGERPRINTGUID
  2
{D9FFFFC0-D715-5F7F-C4FE-1813F9152923}
  9
$VERSIONGUID
  2
{FAEB1C32-E019-11D5-929B-00C0DF256EC4}
  9
$EXTNAMES
290
     1
  9
$PSVPSCALE
 40
0.0
  9
$OLESTARTUP
290
     0
  9
$SORTENTS
280
   127
  9
$INDEXCTL
280
     0
  9
$HIDETEXT
280
     1
  9
$XCLIPFRAME
280
     2
  9
$HALOGAP
280
     0
  9
$OBSCOLOR
 70
   257
  9
$OBSLTYPE
280
     0
  9
$INTERSECTIONDISPLAY
280
     0
  9
$INTERSECTIONCOLOR
 70
   257
  9
$DIMASSOC
280
     2
  9
$PROJECTNAME
  1

  9
$CAMERADISPLAY
290
     0
  9
$LENSLENGTH
 40
50.0
  9
$CAMERAHEIGHT
 40
0.0
  9
$STEPSPERSEC
 40
2.0
  9
$STEPSIZE
 40
6.0
  9
$3DDWFPREC
 40
2.0
  9
$PSOLWIDTH
 40
0.25
  9
$PSOLHEIGHT
 40
4.0
  9
$LOFTANG1
 40
1.570796326794897
  9
$LOFTANG2
 40
1.570796326794897
  9
$LOFTMAG1
 40
0.0
  9
$LOFTMAG2
 40
0.0
  9
$LOFTPARAM
 70
     7
  9
$LOFTNORMALS
280
     1
  9
$LATITUDE
 40
37.795
  9
$LONGITUDE
 40
-122.394
  9
$NORTHDIRECTION
 40
0.0
  9
$TIMEZONE
 70
 -8000
  9
$LIGHTGLYPHDISPLAY
280
     1
  9
$TILEMODELIGHTSYNCH
280
     1
  9
$CMATERIAL
347
3C
  9
$SOLIDHIST
280
     1
  9
$SHOWHIST
280
     1
  9
$DWFFRAME
280
     2
  9
$DGNFRAME
280
     2
  9
$REALWORLDSCALE
290
     1
  9
$INTERFERECOLOR
 62
   256
  9
$CSHADOW
280
     0
  9
$SHADOWPLANELOCATION
 40
0.0
  0
ENDSEC
  0
SECTION
  2
CLASSES
  0
CLASS
  1
ACDBDICTIONARYWDFLT
  2
AcDbDictionaryWithDefault
  3
ObjectDBX Classes
 90
        0
 91
        4
280
     0
281
     0
  0
CLASS
  1
VISUALSTYLE
  2
AcDbVisualStyle
  3
ObjectDBX Classes
 90
     4095
 91
        4
280
     0
281
     0
  0
CLASS
  1
MATERIAL
  2
AcDbMaterial
  3
ObjectDBX Classes
 90
     1153
 91
        4
280
     0
281
     0
  0
CLASS
  1
SUN
  2
AcDbSun
  3
SCENEOE
 90
     1024
 91
        4
280
     0
281
     0
  0
ENDSEC
  0
SECTION
  2
TABLES
  0
TABLE
  2
VPORT
  5
8
330
0
100
AcDbSymbolTable
 70
     1
  0
VPORT
  5
29
330
8
100
AcDbSymbolTableRecord
100
AcDbViewportTableRecord
  2
*Active
 70
     0
 10
0.0
 20
0.0
 11
1.0
 21
1.0
 12
0.0
 22
0.0
 13
0.0
 23
0.0
 14
0.5
 24
0.5
 15
0.5
 25
0.5
 16
0.0
 26
0.0
 36
1.0
 17
103.9501611916752
 27
22.92497459499988
 37
0.0
 40
111.4998846904511
 41
1.526232183050696
 42
50.0
 43
0.0
 44
0.0
 50
0.0
 51
0.0
 71
     0
 72
   100
 73
     1
 74
     3
 75
     0
 76
     0
 77
     0
 78
     0
281
     0
 65
     1
110
0.0
120
0.0
130
0.0
111
1.0
121
0.0
131
0.0
112
0.0
122
1.0
132
0.0
 79
     0
146
0.0
 60
     3
 61
     5
292
     1
282
     1
141
0.0
142
0.0
 63
   250
361
3F
  0
ENDTAB
  0
TABLE
  2
LTYPE
  5
5
330
0
100
AcDbSymbolTable
 70
     1
  0
LTYPE
  5
14
330
5
100
AcDbSymbolTableRecord
100
AcDbLinetypeTableRecord
  2
ByBlock
 70
     0
  3

 72
    65
 73
     0
 40
0.0
  0
LTYPE
  5
15
330
5
100
AcDbSymbolTableRecord
100
AcDbLinetypeTableRecord
  2
ByLayer
 70
     0
  3

 72
    65
 73
     0
 40
0.0
  0
LTYPE
  5
16
330
5
100
AcDbSymbolTableRecord
100
AcDbLinetypeTableRecord
  2
Continuous
 70
     0
  3
Solid line
 72
    65
 73
     0
 40
0.0
  0
ENDTAB
  0
TABLE
  2
LAYER
  5
2
330
0
100
AcDbSymbolTable
 70
     3
  0
LAYER
  5
10
330
2
100
AcDbSymbolTableRecord
100
AcDbLayerTableRecord
  2
0
 70
     0
 62
     7
  6
Continuous
370
    -3
390
F
347
3E
  0
LAYER
  5
40
330
2
100
AcDbSymbolTableRecord
100
AcDbLayerTableRecord
  2
Layer 1
 70
     0
 62
     7
  6
Continuous
370
    -3
390
F
347
3E
  0
LAYER
  5
41
330
2
100
AcDbSymbolTableRecord
100
AcDbLayerTableRecord
  2
Layer 2
 70
     0
 62
     7
  6
Continuous
370
    -3
390
F
347
3E
  0
ENDTAB
  0
TABLE
  2
STYLE
  5
3
330
0
100
AcDbSymbolTable
 70
     1
  0
STYLE
  5
11
330
3
100
AcDbSymbolTableRecord
100
AcDbTextStyleTableRecord
  2
Standard
 70
     0
 40
0.0
 41
1.0
 50
0.0
 71
     0
 42
0.2
  3
txt
  4

  0
ENDTAB
  0
TABLE
  2
VIEW
  5
6
330
0
100
AcDbSymbolTable
 70
     0
  0
ENDTAB
  0
TABLE
  2
UCS
  5
7
330
0
100
AcDbSymbolTable
 70
     0
  0
ENDTAB
  0
TABLE
  2
APPID
  5
9
330
0
100
AcDbSymbolTable
 70
     1
  0
APPID
  5
12
330
9
100
AcDbSymbolTableRecord
100
AcDbRegAppTableRecord
  2
ACAD
 70
     0
  0
ENDTAB
  0
TABLE
  2
DIMSTYLE
  5
A
330
0
100
AcDbSymbolTable
 70
     1
100
AcDbDimStyleTable
  0
DIMSTYLE
105
27
330
A
100
AcDbSymbolTableRecord
100
AcDbDimStyleTableRecord
  2
Standard
 70
     0
178
     0
340
11
  0
ENDTAB
  0
TABLE
  2
BLOCK_RECORD
  5
1
330
0
100
AcDbSymbolTable
 70
    39
  0
BLOCK_RECORD
  5
1F
330
1
100
AcDbSymbolTableRecord
100
AcDbBlockTableRecord
  2
*Model_Space
340
22
 70
     0
280
     1
281
     0
  0
BLOCK_RECORD
  5
1B
330
1
100
AcDbSymbolTableRecord
100
AcDbBlockTableRecord
  2
*Paper_Space
340
1E
 70
     0
280
     1
281
     0
  0
BLOCK_RECORD
  5
23
330
1
100
AcDbSymbolTableRecord
100
AcDbBlockTableRecord
  2
*Paper_Space0
340
26
 70
     0
280
     1
281
     0
  0
BLOCK_RECORD
  5
43
330
1
100
AcDbSymbolTableRecord
100
AcDbBlockTableRecord
  2
block 2
340
0
102
{BLKREFS
331
44
102
}
 70
     0
280
     1
281
     0
  0
BLOCK_RECORD
  5
4E
330
1
100
AcDbSymbolTableRecord
100
AcDbBlockTableRecord
  2
block 3
340
0
102
{BLKREFS
331
4F
102
}
 70
     0
280
     1
281
     0
  0
BLOCK_RECORD
  5
59
330
1
100
AcDbSymbolTableRecord
100
AcDbBlockTableRecord
  2
block 4
340
0
102
{BLKREFS
331
5A
102
}
 70
     0
280
     1
281
     0
  0
BLOCK_RECORD
  5
64
330
1
100
AcDbSymbolTableRecord
100
AcDbBlockTableRecord
  2
block 5
340
0
102
{BLKREFS
331
65
102
}
 70
     0
280
     1
281
     0
  0
BLOCK_RECORD
  5
6F
330
1
100
AcDbSymbolTableRecord
100
AcDbBlockTableRecord
  2
block 6
340
0
102
{BLKREFS
331
70
102
}
 70
     0
280
     1
281
     0
  0
BLOCK_RECORD
  5
7A
330
1
100
AcDbSymbolTableRecord
100
AcDbBlockTableRecord
  2
block 7
340
0
102
{BLKREFS
331
7B
102
}
 70
     0
280
     1
281
     0
  0
BLOCK_RECORD
  5
85
330
1
100
AcDbSymbolTableRecord
100
AcDbBlockTableRecord
  2
block 8
340
0
102
{BLKREFS
331
86
102
}
 70
     0
280
     1
281
     0
  0
BLOCK_RECORD
  5
90
330
1
100
AcDbSymbolTableRecord
100
AcDbBlockTableRecord
  2
block 9
340
0
102
{BLKREFS
331
91
102
}
 70
     0
280
     1
281
     0
  0
BLOCK_RECORD
  5
9B
330
1
100
AcDbSymbolTableRecord
100
AcDbBlockTableRecord
  2
block 10
340
0
102
{BLKREFS
331
9C
102
}
 70
     0
280
     1
281
     0
  0
BLOCK_RECORD
  5
A6
330
1
100
AcDbSymbolTableRecord
100
AcDbBlockTableRecord
  2
block 11
340
0
102
{BLKREFS
331
A7
102
}
 70
     0
280
     1
281
     0
  0
BLOCK_RECORD
  5
B1
330
1
100
AcDbSymbolTableRecord
100
AcDbBlockTableRecord
  2
block 12
340
0
102
{BLKREFS
331
B2
102
}
 70
     0
280
     1
281
     0
  0
BLOCK_RECORD
  5
BC
330
1
100
AcDbSymbolTableRecord
100
AcDbBlockTableRecord
  2
block 13
340
0
102
{BLKREFS
331
BD
102
}
 70
     0
280
     1
281
     0
  0
BLOCK_RECORD
  5
C7
330
1
100
AcDbSymbolTableRecord
100
AcDbBlockTableRecord
  2
block 14
340
0
102
{BLKREFS
331
C8
102
}
 70
     0
280
     1
281
     0
  0
BLOCK_RECORD
  5
D2
330
1
100
AcDbSymbolTableRecord
100
AcDbBlockTableRecord
  2
block 15
340
0
102
{BLKREFS
331
D3
102
}
 70
     0
280
     1
281
     0
  0
BLOCK_RECORD
  5
DD
330
1
100
AcDbSymbolTableRecord
100
AcDbBlockTableRecord
  2
block 16
340
0
102
{BLKREFS
331
DE
102
}
 70
     0
280
     1
281
     0
  0
BLOCK_RECORD
  5
E8
330
1
100
AcDbSymbolTableRecord
100
AcDbBlockTableRecord
  2
block 17
340
0
102
{BLKREFS
331
E9
102
}
 70
     0
280
     1
281
     0
  0
BLOCK_RECORD
  5
F3
330
1
100
AcDbSymbolTableRecord
100
AcDbBlockTableRecord
  2
block 18
340
0
102
{BLKREFS
331
F4
102
}
 70
     0
280
     1
281
     0
  0
BLOCK_RECORD
  5
FE
330
1
100
AcDbSymbolTableRecord
100
AcDbBlockTableRecord
  2
block 19
340
0
102
{BLKREFS
331
FF
102
}
 70
     0
280
     1
281
     0
  0
BLOCK_RECORD
  5
109
330
1
100
AcDbSymbolTableRecord
100
AcDbBlockTableRecord
  2
block 20
340
0
102
{BLKREFS
331
10A
102
}
 70
     0
280
     1
281
     0
  0
BLOCK_RECORD
  5
114
330
1
100
AcDbSymbolTableRecord
100
AcDbBlockTableRecord
  2
block 21
340
0
102
{BLKREFS
331
115
102
}
 70
     0
280
     1
281
     0
  0
BLOCK_RECORD
  5
11F
330
1
100
AcDbSymbolTableRecord
100
AcDbBlockTableRecord
  2
block 22
340
0
102
{BLKREFS
331
120
102
}
 70
     0
280
     1
281
     0
  0
BLOCK_RECORD
  5
12A
330
1
100
AcDbSymbolTableRecord
100
AcDbBlockTableRecord
  2
block 23
340
0
102
{BLKREFS
331
12B
102
}
 70
     0
280
     1
281
     0
  0
BLOCK_RECORD
  5
135
330
1
100
AcDbSymbolTableRecord
100
AcDbBlockTableRecord
  2
block 24
340
0
102
{BLKREFS
331
136
102
}
 70
     0
280
     1
281
     0
  0
BLOCK_RECORD
  5
148
330
1
100
AcDbSymbolTableRecord
100
AcDbBlockTableRecord
  2
block 25
340
0
102
{BLKREFS
331
149
102
}
 70
     0
280
     1
281
     0
  0
BLOCK_RECORD
  5
14D
330
1
100
AcDbSymbolTableRecord
100
AcDbBlockTableRecord
  2
block 26
340
0
102
{BLKREFS
331
14E
102
}
 70
     0
280
     1
281
     0
  0
BLOCK_RECORD
  5
158
330
1
100
AcDbSymbolTableRecord
100
AcDbBlockTableRecord
  2
block 27
340
0
102
{BLKREFS
331
159
102
}
 70
     0
280
     1
281
     0
  0
BLOCK_RECORD
  5
163
330
1
100
AcDbSymbolTableRecord
100
AcDbBlockTableRecord
  2
block 28
340
0
102
{BLKREFS
331
164
102
}
 70
     0
280
     1
281
     0
  0
BLOCK_RECORD
  5
16E
330
1
100
AcDbSymbolTableRecord
100
AcDbBlockTableRecord
  2
block 29
340
0
102
{BLKREFS
331
16F
102
}
 70
     0
280
     1
281
     0
  0
BLOCK_RECORD
  5
179
330
1
100
AcDbSymbolTableRecord
100
AcDbBlockTableRecord
  2
block 30
340
0
102
{BLKREFS
331
17A
102
}
 70
     0
280
     1
281
     0
  0
BLOCK_RECORD
  5
184
330
1
100
AcDbSymbolTableRecord
100
AcDbBlockTableRecord
  2
block 31
340
0
102
{BLKREFS
331
185
102
}
 70
     0
280
     1
281
     0
  0
BLOCK_RECORD
  5
18F
330
1
100
AcDbSymbolTableRecord
100
AcDbBlockTableRecord
  2
block 32
340
0
102
{BLKREFS
331
190
102
}
 70
     0
280
     1
281
     0
  0
BLOCK_RECORD
  5
19A
330
1
100
AcDbSymbolTableRecord
100
AcDbBlockTableRecord
  2
block 33
340
0
102
{BLKREFS
331
19B
102
}
 70
     0
280
     1
281
     0
  0
BLOCK_RECORD
  5
1A5
330
1
100
AcDbSymbolTableRecord
100
AcDbBlockTableRecord
  2
block 34
340
0
102
{BLKREFS
331
1A6
102
}
 70
     0
280
     1
281
     0
  0
BLOCK_RECORD
  5
1B0
330
1
100
AcDbSymbolTableRecord
100
AcDbBlockTableRecord
  2
block 35
340
0
102
{BLKREFS
331
1B1
102
}
 70
     0
280
     1
281
     0
  0
BLOCK_RECORD
  5
1BB
330
1
100
AcDbSymbolTableRecord
100
AcDbBlockTableRecord
  2
block 36
340
0
102
{BLKREFS
331
1BC
102
}
 70
     0
280
     1
281
     0
  0
BLOCK_RECORD
  5
1C6
330
1
100
AcDbSymbolTableRecord
100
AcDbBlockTableRecord
  2
block 37
340
0
102
{BLKREFS
331
1C7
102
}
 70
     0
280
     1
281
     0
  0
BLOCK_RECORD
  5
1D1
330
1
100
AcDbSymbolTableRecord
100
AcDbBlockTableRecord
  2
block 38
340
0
102
{BLKREFS
331
1D2
102
}
 70
     0
280
     1
281
     0
  0
BLOCK_RECORD
  5
1DC
330
1
100
AcDbSymbolTableRecord
100
AcDbBlockTableRecord
  2
block 39
340
0
102
{BLKREFS
331
1DD
102
}
 70
     0
280
     1
281
     0
  0
ENDTAB
  0
ENDSEC
  0
SECTION
  2
BLOCKS
  0
BLOCK
  5
20
330
1F
100
AcDbEntity
  8
0
100
AcDbBlockBegin
  2
*Model_Space
 70
     0
 10
0.0
 20
0.0
 30
0.0
  3
*Model_Space
  1

  0
ENDBLK
  5
21
330
1F
100
AcDbEntity
  8
0
100
AcDbBlockEnd
  0
BLOCK
  5
1C
330
1B
100
AcDbEntity
 67
     1
  8
0
100
AcDbBlockBegin
  2
*Paper_Space
 70
     0
 10
0.0
 20
0.0
 30
0.0
  3
*Paper_Space
  1

  0
ENDBLK
  5
1D
330
1B
100
AcDbEntity
 67
     1
  8
0
100
AcDbBlockEnd
  0
BLOCK
  5
24
330
23
100
AcDbEntity
  8
0
100
AcDbBlockBegin
  2
*Paper_Space0
 70
     0
 10
0.0
 20
0.0
 30
0.0
  3
*Paper_Space0
  1

  0
ENDBLK
  5
25
330
23
100
AcDbEntity
  8
0
100
AcDbBlockEnd
  0
BLOCK
  5
45
330
43
100
AcDbEntity
  8
0
100
AcDbBlockBegin
  2
block 2
 70
     0
 10
0.0
 20
0.0
 30
0.0
  3
block 2
  1

  0
POLYLINE
  5
47
330
43
100
AcDbEntity
  8
Layer 2
 62
   195
420
  7949726
370
    25
100
AcDb2dPolyline
 66
     1
 10
0.0
 20
0.0
 30
0.0
  0
VERTEX
  5
48
330
47
100
AcDbEntity
  8
Layer 2
 62
   195
420
  7949726
370
    25
100
AcDbVertex
100
AcDb2dVertex
 10
31.03751744359593
 20
54.02491694770917
 30
0.0
  0
VERTEX
  5
49
330
47
100
AcDbEntity
  8
Layer 2
 62
   195
420
  7949726
370
    25
100
AcDbVertex
100
AcDb2dVertex
 10
45.03751744359578
 20
54.02491694770917
 30
0.0
  0
VERTEX
  5
4A
330
47
100
AcDbEntity
  8
Layer 2
 62
   195
420
  7949726
370
    25
100
AcDbVertex
100
AcDb2dVertex
 10
45.03751744359578
 20
68.02491694770902
 30
0.0
  0
VERTEX
  5
4B
330
47
100
AcDbEntity
  8
Layer 2
 62
   195
420
  7949726
370
    25
100
AcDbVertex
100
AcDb2dVertex
 10
31.03751744359593
 20
68.02491694770902
 30
0.0
  0
VERTEX
  5
4C
330
47
100
AcDbEntity
  8
Layer 2
 62
   195
420
  7949726
370
    25
100
AcDbVertex
100
AcDb2dVertex
 10
31.03751744359593
 20
54.02491694770917
 30
0.0
  0
SEQEND
  5
4D
330
47
100
AcDbEntity
  8
Layer 2
 62
   195
420
  7949726
370
    25
  0
ENDBLK
  5
46
330
43
100
AcDbEntity
  8
0
100
AcDbBlockEnd
  0
BLOCK
  5
50
330
4E
100
AcDbEntity
  8
0
100
AcDbBlockBegin
  2
block 3
 70
     0
 10
0.0
 20
0.0
 30
0.0
  3
block 3
  1

  0
POLYLINE
  5
52
330
4E
100
AcDbEntity
  8
Layer 2
 62
   195
420
  7949726
370
    25
100
AcDb2dPolyline
 66
     1
 10
0.0
 20
0.0
 30
0.0
  0
VERTEX
  5
53
330
52
100
AcDbEntity
  8
Layer 2
 62
   195
420
  7949726
370
    25
100
AcDbVertex
100
AcDb2dVertex
 10
50.08751743883343
 20
54.02491694770917
 30
0.0
  0
VERTEX
  5
54
330
52
100
AcDbEntity
  8
Layer 2
 62
   195
420
  7949726
370
    25
100
AcDbVertex
100
AcDb2dVertex
 10
64.08751743883329
 20
54.02491694770917
 30
0.0
  0
VERTEX
  5
55
330
52
100
AcDbEntity
  8
Layer 2
 62
   195
420
  7949726
370
    25
100
AcDbVertex
100
AcDb2dVertex
 10
64.08751743883329
 20
68.02491694770902
 30
0.0
  0
VERTEX
  5
56
330
52
100
AcDbEntity
  8
Layer 2
 62
   195
420
  7949726
370
    25
100
AcDbVertex
100
AcDb2dVertex
 10
50.08751743883343
 20
68.02491694770902
 30
0.0
  0
VERTEX
  5
57
330
52
100
AcDbEntity
  8
Layer 2
 62
   195
420
  7949726
370
    25
100
AcDbVertex
100
AcDb2dVertex
 10
50.08751743883343
 20
54.02491694770917
 30
0.0
  0
SEQEND
  5
58
330
52
100
AcDbEntity
  8
Layer 2
 62
   195
420
  7949726
370
    25
  0
ENDBLK
  5
51
330
4E
100
AcDbEntity
  8
0
100
AcDbBlockEnd
  0
BLOCK
  5
5B
330
59
100
AcDbEntity
  8
0
100
AcDbBlockBegin
  2
block 4
 70
     0
 10
0.0
 20
0.0
 30
0.0
  3
block 4
  1

  0
POLYLINE
  5
5D
330
59
100
AcDbEntity
  8
Layer 2
 62
   195
420
  7949726
370
    25
100
AcDb2dPolyline
 66
     1
 10
0.0
 20
0.0
 30
0.0
  0
VERTEX
  5
5E
330
5D
100
AcDbEntity
  8
Layer 2
 62
   195
420
  7949726
370
    25
100
AcDbVertex
100
AcDb2dVertex
 10
69.13751743407093
 20
54.02491694770917
 30
0.0
  0
VERTEX
  5
5F
330
5D
100
AcDbEntity
  8
Layer 2
 62
   195
420
  7949726
370
    25
100
AcDbVertex
100
AcDb2dVertex
 10
83.13751743407079
 20
54.02491694770917
 30
0.0
  0
VERTEX
  5
60
330
5D
100
AcDbEntity
  8
Layer 2
 62
   195
420
  7949726
370
    25
100
AcDbVertex
100
AcDb2dVertex
 10
83.13751743407079
 20
68.02491694770902
 30
0.0
  0
VERTEX
  5
61
330
5D
100
AcDbEntity
  8
Layer 2
 62
   195
420
  7949726
370
    25
100
AcDbVertex
100
AcDb2dVertex
 10
69.13751743407093
 20
68.02491694770902
 30
0.0
  0
VERTEX
  5
62
330
5D
100
AcDbEntity
  8
Layer 2
 62
   195
420
  7949726
370
    25
100
AcDbVertex
100
AcDb2dVertex
 10
69.13751743407093
 20
54.02491694770917
 30
0.0
  0
SEQEND
  5
63
330
5D
100
AcDbEntity
  8
Layer 2
 62
   195
420
  7949726
370
    25
  0
ENDBLK
  5
5C
330
59
100
AcDbEntity
  8
0
100
AcDbBlockEnd
  0
BLOCK
  5
66
330
64
100
AcDbEntity
  8
0
100
AcDbBlockBegin
  2
block 5
 70
     0
 10
0.0
 20
0.0
 30
0.0
  3
block 5
  1

  0
POLYLINE
  5
68
330
64
100
AcDbEntity
  8
Layer 2
 62
   195
420
  7949726
370
    25
100
AcDb2dPolyline
 66
     1
 10
0.0
 20
0.0
 30
0.0
  0
VERTEX
  5
69
330
68
100
AcDbEntity
  8
Layer 2
 62
   195
420
  7949726
370
    25
100
AcDbVertex
100
AcDb2dVertex
 10
88.18751742930843
 20
54.02491694770917
 30
0.0
  0
VERTEX
  5
6A
330
68
100
AcDbEntity
  8
Layer 2
 62
   195
420
  7949726
370
    25
100
AcDbVertex
100
AcDb2dVertex
 10
102.1875174293083
 20
54.02491694770917
 30
0.0
  0
VERTEX
  5
6B
330
68
100
AcDbEntity
  8
Layer 2
 62
   195
420
  7949726
370
    25
100
AcDbVertex
100
AcDb2dVertex
 10
102.1875174293083
 20
68.02491694770902
 30
0.0
  0
VERTEX
  5
6C
330
68
100
AcDbEntity
  8
Layer 2
 62
   195
420
  7949726
370
    25
100
AcDbVertex
100
AcDb2dVertex
 10
88.18751742930843
 20
68.02491694770902
 30
0.0
  0
VERTEX
  5
6D
330
68
100
AcDbEntity
  8
Layer 2
 62
   195
420
  7949726
370
    25
100
AcDbVertex
100
AcDb2dVertex
 10
88.18751742930843
 20
54.02491694770917
 30
0.0
  0
SEQEND
  5
6E
330
68
100
AcDbEntity
  8
Layer 2
 62
   195
420
  7949726
370
    25
  0
ENDBLK
  5
67
330
64
100
AcDbEntity
  8
0
100
AcDbBlockEnd
  0
BLOCK
  5
71
330
6F
100
AcDbEntity
  8
0
100
AcDbBlockBegin
  2
block 6
 70
     0
 10
0.0
 20
0.0
 30
0.0
  3
block 6
  1

  0
POLYLINE
  5
73
330
6F
100
AcDbEntity
  8
Layer 2
 62
   195
420
  7949726
370
    25
100
AcDb2dPolyline
 66
     1
 10
0.0
 20
0.0
 30
0.0
  0
VERTEX
  5
74
330
73
100
AcDbEntity
  8
Layer 2
 62
   195
420
  7949726
370
    25
100
AcDbVertex
100
AcDb2dVertex
 10
107.2375174245459
 20
54.02491694770917
 30
0.0
  0
VERTEX
  5
75
330
73
100
AcDbEntity
  8
Layer 2
 62
   195
420
  7949726
370
    25
100
AcDbVertex
100
AcDb2dVertex
 10
121.2375174245458
 20
54.02491694770917
 30
0.0
  0
VERTEX
  5
76
330
73
100
AcDbEntity
  8
Layer 2
 62
   195
420
  7949726
370
    25
100
AcDbVertex
100
AcDb2dVertex
 10
121.2375174245458
 20
68.02491694770902
 30
0.0
  0
VERTEX
  5
77
330
73
100
AcDbEntity
  8
Layer 2
 62
   195
420
  7949726
370
    25
100
AcDbVertex
100
AcDb2dVertex
 10
107.2375174245459
 20
68.02491694770902
 30
0.0
  0
VERTEX
  5
78
330
73
100
AcDbEntity
  8
Layer 2
 62
   195
420
  7949726
370
    25
100
AcDbVertex
100
AcDb2dVertex
 10
107.2375174245459
 20
54.02491694770917
 30
0.0
  0
SEQEND
  5
79
330
73
100
AcDbEntity
  8
Layer 2
 62
   195
420
  7949726
370
    25
  0
ENDBLK
  5
72
330
6F
100
AcDbEntity
  8
0
100
AcDbBlockEnd
  0
BLOCK
  5
7C
330
7A
100
AcDbEntity
  8
0
100
AcDbBlockBegin
  2
block 7
 70
     0
 10
0.0
 20
0.0
 30
0.0
  3
block 7
  1

  0
POLYLINE
  5
7E
330
7A
100
AcDbEntity
  8
Layer 2
 62
   195
420
  7949726
370
    25
100
AcDb2dPolyline
 66
     1
 10
0.0
 20
0.0
 30
0.0
  0
VERTEX
  5
7F
330
7E
100
AcDbEntity
  8
Layer 2
 62
   195
420
  7949726
370
    25
100
AcDbVertex
100
AcDb2dVertex
 10
126.2875174197834
 20
54.02491694770917
 30
0.0
  0
VERTEX
  5
80
330
7E
100
AcDbEntity
  8
Layer 2
 62
   195
420
  7949726
370
    25
100
AcDbVertex
100
AcDb2dVertex
 10
140.2875174197833
 20
54.02491694770917
 30
0.0
  0
VERTEX
  5
81
330
7E
100
AcDbEntity
  8
Layer 2
 62
   195
420
  7949726
370
    25
100
AcDbVertex
100
AcDb2dVertex
 10
140.2875174197833
 20
68.02491694770902
 30
0.0
  0
VERTEX
  5
82
330
7E
100
AcDbEntity
  8
Layer 2
 62
   195
420
  7949726
370
    25
100
AcDbVertex
100
AcDb2dVertex
 10
126.2875174197834
 20
68.02491694770902
 30
0.0
  0
VERTEX
  5
83
330
7E
100
AcDbEntity
  8
Layer 2
 62
   195
420
  7949726
370
    25
100
AcDbVertex
100
AcDb2dVertex
 10
126.2875174197834
 20
54.02491694770917
 30
0.0
  0
SEQEND
  5
84
330
7E
100
AcDbEntity
  8
Layer 2
 62
   195
420
  7949726
370
    25
  0
ENDBLK
  5
7D
330
7A
100
AcDbEntity
  8
0
100
AcDbBlockEnd
  0
BLOCK
  5
87
330
85
100
AcDbEntity
  8
0
100
AcDbBlockBegin
  2
block 8
 70
     0
 10
0.0
 20
0.0
 30
0.0
  3
block 8
  1

  0
POLYLINE
  5
89
330
85
100
AcDbEntity
  8
Layer 2
 62
   195
420
  7949726
370
    25
100
AcDb2dPolyline
 66
     1
 10
0.0
 20
0.0
 30
0.0
  0
VERTEX
  5
8A
330
89
100
AcDbEntity
  8
Layer 2
 62
   195
420
  7949726
370
    25
100
AcDbVertex
100
AcDb2dVertex
 10
21.51251744359584
 20
34.97491694770898
 30
0.0
  0
VERTEX
  5
8B
330
89
100
AcDbEntity
  8
Layer 2
 62
   195
420
  7949726
370
    25
100
AcDbVertex
100
AcDb2dVertex
 10
35.51251744359569
 20
34.97491694770898
 30
0.0
  0
VERTEX
  5
8C
330
89
100
AcDbEntity
  8
Layer 2
 62
   195
420
  7949726
370
    25
100
AcDbVertex
100
AcDb2dVertex
 10
35.51251744359569
 20
48.97491694770947
 30
0.0
  0
VERTEX
  5
8D
330
89
100
AcDbEntity
  8
Layer 2
 62
   195
420
  7949726
370
    25
100
AcDbVertex
100
AcDb2dVertex
 10
21.51251744359584
 20
48.97491694770947
 30
0.0
  0
VERTEX
  5
8E
330
89
100
AcDbEntity
  8
Layer 2
 62
   195
420
  7949726
370
    25
100
AcDbVertex
100
AcDb2dVertex
 10
21.51251744359584
 20
34.97491694770898
 30
0.0
  0
SEQEND
  5
8F
330
89
100
AcDbEntity
  8
Layer 2
 62
   195
420
  7949726
370
    25
  0
ENDBLK
  5
88
330
85
100
AcDbEntity
  8
0
100
AcDbBlockEnd
  0
BLOCK
  5
92
330
90
100
AcDbEntity
  8
0
100
AcDbBlockBegin
  2
block 9
 70
     0
 10
0.0
 20
0.0
 30
0.0
  3
block 9
  1

  0
POLYLINE
  5
94
330
90
100
AcDbEntity
  8
Layer 2
 62
   195
420
  7949726
370
    25
100
AcDb2dPolyline
 66
     1
 10
0.0
 20
0.0
 30
0.0
  0
VERTEX
  5
95
330
94
100
AcDbEntity
  8
Layer 2
 62
   195
420
  7949726
370
    25
100
AcDbVertex
100
AcDb2dVertex
 10
40.56251743883334
 20
34.97491694770898
 30
0.0
  0
VERTEX
  5
96
330
94
100
AcDbEntity
  8
Layer 2
 62
   195
420
  7949726
370
    25
100
AcDbVertex
100
AcDb2dVertex
 10
54.56251743883319
 20
34.97491694770898
 30
0.0
  0
VERTEX
  5
97
330
94
100
AcDbEntity
  8
Layer 2
 62
   195
420
  7949726
370
    25
100
AcDbVertex
100
AcDb2dVertex
 10
54.56251743883319
 20
48.97491694770947
 30
0.0
  0
VERTEX
  5
98
330
94
100
AcDbEntity
  8
Layer 2
 62
   195
420
  7949726
370
    25
100
AcDbVertex
100
AcDb2dVertex
 10
40.56251743883334
 20
48.97491694770947
 30
0.0
  0
VERTEX
  5
99
330
94
100
AcDbEntity
  8
Layer 2
 62
   195
420
  7949726
370
    25
100
AcDbVertex
100
AcDb2dVertex
 10
40.56251743883334
 20
34.97491694770898
 30
0.0
  0
SEQEND
  5
9A
330
94
100
AcDbEntity
  8
Layer 2
 62
   195
420
  7949726
370
    25
  0
ENDBLK
  5
93
330
90
100
AcDbEntity
  8
0
100
AcDbBlockEnd
  0
BLOCK
  5
9D
330
9B
100
AcDbEntity
  8
0
100
AcDbBlockBegin
  2
block 10
 70
     0
 10
0.0
 20
0.0
 30
0.0
  3
block 10
  1

  0
POLYLINE
  5
9F
330
9B
100
AcDbEntity
  8
Layer 2
 62
   195
420
  7949726
370
    25
100
AcDb2dPolyline
 66
     1
 10
0.0
 20
0.0
 30
0.0
  0
VERTEX
  5
A0
330
9F
100
AcDbEntity
  8
Layer 2
 62
   195
420
  7949726
370
    25
100
AcDbVertex
100
AcDb2dVertex
 10
59.61251743407084
 20
34.97491694770898
 30
0.0
  0
VERTEX
  5
A1
330
9F
100
AcDbEntity
  8
Layer 2
 62
   195
420
  7949726
370
    25
100
AcDbVertex
100
AcDb2dVertex
 10
73.6125174340707
 20
34.97491694770898
 30
0.0
  0
VERTEX
  5
A2
330
9F
100
AcDbEntity
  8
Layer 2
 62
   195
420
  7949726
370
    25
100
AcDbVertex
100
AcDb2dVertex
 10
73.6125174340707
 20
48.97491694770947
 30
0.0
  0
VERTEX
  5
A3
330
9F
100
AcDbEntity
  8
Layer 2
 62
   195
420
  7949726
370
    25
100
AcDbVertex
100
AcDb2dVertex
 10
59.61251743407084
 20
48.97491694770947
 30
0.0
  0
VERTEX
  5
A4
330
9F
100
AcDbEntity
  8
Layer 2
 62
   195
420
  7949726
370
    25
100
AcDbVertex
100
AcDb2dVertex
 10
59.61251743407084
 20
34.97491694770898
 30
0.0
  0
SEQEND
  5
A5
330
9F
100
AcDbEntity
  8
Layer 2
 62
   195
420
  7949726
370
    25
  0
ENDBLK
  5
9E
330
9B
100
AcDbEntity
  8
0
100
AcDbBlockEnd
  0
BLOCK
  5
A8
330
A6
100
AcDbEntity
  8
0
100
AcDbBlockBegin
  2
block 11
 70
     0
 10
0.0
 20
0.0
 30
0.0
  3
block 11
  1

  0
POLYLINE
  5
AA
330
A6
100
AcDbEntity
  8
Layer 2
 62
   195
420
  7949726
370
    25
100
AcDb2dPolyline
 66
     1
 10
0.0
 20
0.0
 30
0.0
  0
VERTEX
  5
AB
330
AA
100
AcDbEntity
  8
Layer 2
 62
   195
420
  7949726
370
    25
100
AcDbVertex
100
AcDb2dVertex
 10
78.66251742930834
 20
34.97491694770898
 30
0.0
  0
VERTEX
  5
AC
330
AA
100
AcDbEntity
  8
Layer 2
 62
   195
420
  7949726
370
    25
100
AcDbVertex
100
AcDb2dVertex
 10
92.6625174293082
 20
34.97491694770898
 30
0.0
  0
VERTEX
  5
AD
330
AA
100
AcDbEntity
  8
Layer 2
 62
   195
420
  7949726
370
    25
100
AcDbVertex
100
AcDb2dVertex
 10
92.6625174293082
 20
48.97491694770947
 30
0.0
  0
VERTEX
  5
AE
330
AA
100
AcDbEntity
  8
Layer 2
 62
   195
420
  7949726
370
    25
100
AcDbVertex
100
AcDb2dVertex
 10
78.66251742930834
 20
48.97491694770947
 30
0.0
  0
VERTEX
  5
AF
330
AA
100
AcDbEntity
  8
Layer 2
 62
   195
420
  7949726
370
    25
100
AcDbVertex
100
AcDb2dVertex
 10
78.66251742930834
 20
34.97491694770898
 30
0.0
  0
SEQEND
  5
B0
330
AA
100
AcDbEntity
  8
Layer 2
 62
   195
420
  7949726
370
    25
  0
ENDBLK
  5
A9
330
A6
100
AcDbEntity
  8
0
100
AcDbBlockEnd
  0
BLOCK
  5
B3
330
B1
100
AcDbEntity
  8
0
100
AcDbBlockBegin
  2
block 12
 70
     0
 10
0.0
 20
0.0
 30
0.0
  3
block 12
  1

  0
POLYLINE
  5
B5
330
B1
100
AcDbEntity
  8
Layer 2
 62
   195
420
  7949726
370
    25
100
AcDb2dPolyline
 66
     1
 10
0.0
 20
0.0
 30
0.0
  0
VERTEX
  5
B6
330
B5
100
AcDbEntity
  8
Layer 2
 62
   195
420
  7949726
370
    25
100
AcDbVertex
100
AcDb2dVertex
 10
97.71251742454584
 20
34.97491694770898
 30
0.0
  0
VERTEX
  5
B7
330
B5
100
AcDbEntity
  8
Layer 2
 62
   195
420
  7949726
370
    25
100
AcDbVertex
100
AcDb2dVertex
 10
111.7125174245457
 20
34.97491694770898
 30
0.0
  0
VERTEX
  5
B8
330
B5
100
AcDbEntity
  8
Layer 2
 62
   195
420
  7949726
370
    25
100
AcDbVertex
100
AcDb2dVertex
 10
111.7125174245457
 20
48.97491694770947
 30
0.0
  0
VERTEX
  5
B9
330
B5
100
AcDbEntity
  8
Layer 2
 62
   195
420
  7949726
370
    25
100
AcDbVertex
100
AcDb2dVertex
 10
97.71251742454584
 20
48.97491694770947
 30
0.0
  0
VERTEX
  5
BA
330
B5
100
AcDbEntity
  8
Layer 2
 62
   195
420
  7949726
370
    25
100
AcDbVertex
100
AcDb2dVertex
 10
97.71251742454584
 20
34.97491694770898
 30
0.0
  0
SEQEND
  5
BB
330
B5
100
AcDbEntity
  8
Layer 2
 62
   195
420
  7949726
370
    25
  0
ENDBLK
  5
B4
330
B1
100
AcDbEntity
  8
0
100
AcDbBlockEnd
  0
BLOCK
  5
BE
330
BC
100
AcDbEntity
  8
0
100
AcDbBlockBegin
  2
block 13
 70
     0
 10
0.0
 20
0.0
 30
0.0
  3
block 13
  1

  0
POLYLINE
  5
C0
330
BC
100
AcDbEntity
  8
Layer 2
 62
   195
420
  7949726
370
    25
100
AcDb2dPolyline
 66
     1
 10
0.0
 20
0.0
 30
0.0
  0
VERTEX
  5
C1
330
C0
100
AcDbEntity
  8
Layer 2
 62
   195
420
  7949726
370
    25
100
AcDbVertex
100
AcDb2dVertex
 10
116.7625174197833
 20
34.97491694770898
 30
0.0
  0
VERTEX
  5
C2
330
C0
100
AcDbEntity
  8
Layer 2
 62
   195
420
  7949726
370
    25
100
AcDbVertex
100
AcDb2dVertex
 10
130.7625174197832
 20
34.97491694770898
 30
0.0
  0
VERTEX
  5
C3
330
C0
100
AcDbEntity
  8
Layer 2
 62
   195
420
  7949726
370
    25
100
AcDbVertex
100
AcDb2dVertex
 10
130.7625174197832
 20
48.97491694770947
 30
0.0
  0
VERTEX
  5
C4
330
C0
100
AcDbEntity
  8
Layer 2
 62
   195
420
  7949726
370
    25
100
AcDbVertex
100
AcDb2dVertex
 10
116.7625174197833
 20
48.97491694770947
 30
0.0
  0
VERTEX
  5
C5
330
C0
100
AcDbEntity
  8
Layer 2
 62
   195
420
  7949726
370
    25
100
AcDbVertex
100
AcDb2dVertex
 10
116.7625174197833
 20
34.97491694770898
 30
0.0
  0
SEQEND
  5
C6
330
C0
100
AcDbEntity
  8
Layer 2
 62
   195
420
  7949726
370
    25
  0
ENDBLK
  5
BF
330
BC
100
AcDbEntity
  8
0
100
AcDbBlockEnd
  0
BLOCK
  5
C9
330
C7
100
AcDbEntity
  8
0
100
AcDbBlockBegin
  2
block 14
 70
     0
 10
0.0
 20
0.0
 30
0.0
  3
block 14
  1

  0
POLYLINE
  5
CB
330
C7
100
AcDbEntity
  8
Layer 2
 62
   195
420
  7949726
370
    25
100
AcDb2dPolyline
 66
     1
 10
0.0
 20
0.0
 30
0.0
  0
VERTEX
  5
CC
330
CB
100
AcDbEntity
  8
Layer 2
 62
   195
420
  7949726
370
    25
100
AcDbVertex
100
AcDb2dVertex
 10
135.8125174150208
 20
34.97491694770898
 30
0.0
  0
VERTEX
  5
CD
330
CB
100
AcDbEntity
  8
Layer 2
 62
   195
420
  7949726
370
    25
100
AcDbVertex
100
AcDb2dVertex
 10
149.8125174150207
 20
34.97491694770898
 30
0.0
  0
VERTEX
  5
CE
330
CB
100
AcDbEntity
  8
Layer 2
 62
   195
420
  7949726
370
    25
100
AcDbVertex
100
AcDb2dVertex
 10
149.8125174150207
 20
48.97491694770947
 30
0.0
  0
VERTEX
  5
CF
330
CB
100
AcDbEntity
  8
Layer 2
 62
   195
420
  7949726
370
    25
100
AcDbVertex
100
AcDb2dVertex
 10
135.8125174150208
 20
48.97491694770947
 30
0.0
  0
VERTEX
  5
D0
330
CB
100
AcDbEntity
  8
Layer 2
 62
   195
420
  7949726
370
    25
100
AcDbVertex
100
AcDb2dVertex
 10
135.8125174150208
 20
34.97491694770898
 30
0.0
  0
SEQEND
  5
D1
330
CB
100
AcDbEntity
  8
Layer 2
 62
   195
420
  7949726
370
    25
  0
ENDBLK
  5
CA
330
C7
100
AcDbEntity
  8
0
100
AcDbBlockEnd
  0
BLOCK
  5
D4
330
D2
100
AcDbEntity
  8
0
100
AcDbBlockBegin
  2
block 15
 70
     0
 10
0.0
 20
0.0
 30
0.0
  3
block 15
  1

  0
POLYLINE
  5
D6
330
D2
100
AcDbEntity
  8
Layer 2
 62
   195
420
  7949726
370
    25
100
AcDb2dPolyline
 66
     1
 10
0.0
 20
0.0
 30
0.0
  0
VERTEX
  5
D7
330
D6
100
AcDbEntity
  8
Layer 2
 62
   195
420
  7949726
370
    25
100
AcDbVertex
100
AcDb2dVertex
 10
26.27501744359556
 20
15.92491694770942
 30
0.0
  0
VERTEX
  5
D8
330
D6
100
AcDbEntity
  8
Layer 2
 62
   195
420
  7949726
370
    25
100
AcDbVertex
100
AcDb2dVertex
 10
40.27501744359606
 20
15.92491694770942
 30
0.0
  0
VERTEX
  5
D9
330
D6
100
AcDbEntity
  8
Layer 2
 62
   195
420
  7949726
370
    25
100
AcDbVertex
100
AcDb2dVertex
 10
40.27501744359606
 20
29.92491694770928
 30
0.0
  0
VERTEX
  5
DA
330
D6
100
AcDbEntity
  8
Layer 2
 62
   195
420
  7949726
370
    25
100
AcDbVertex
100
AcDb2dVertex
 10
26.27501744359556
 20
29.92491694770928
 30
0.0
  0
VERTEX
  5
DB
330
D6
100
AcDbEntity
  8
Layer 2
 62
   195
420
  7949726
370
    25
100
AcDbVertex
100
AcDb2dVertex
 10
26.27501744359556
 20
15.92491694770942
 30
0.0
  0
SEQEND
  5
DC
330
D6
100
AcDbEntity
  8
Layer 2
 62
   195
420
  7949726
370
    25
  0
ENDBLK
  5
D5
330
D2
100
AcDbEntity
  8
0
100
AcDbBlockEnd
  0
BLOCK
  5
DF
330
DD
100
AcDbEntity
  8
0
100
AcDbBlockBegin
  2
block 16
 70
     0
 10
0.0
 20
0.0
 30
0.0
  3
block 16
  1

  0
POLYLINE
  5
E1
330
DD
100
AcDbEntity
  8
Layer 2
 62
   195
420
  7949726
370
    25
100
AcDb2dPolyline
 66
     1
 10
0.0
 20
0.0
 30
0.0
  0
VERTEX
  5
E2
330
E1
100
AcDbEntity
  8
Layer 2
 62
   195
420
  7949726
370
    25
100
AcDbVertex
100
AcDb2dVertex
 10
45.32501743883306
 20
15.92491694770942
 30
0.0
  0
VERTEX
  5
E3
330
E1
100
AcDbEntity
  8
Layer 2
 62
   195
420
  7949726
370
    25
100
AcDbVertex
100
AcDb2dVertex
 10
59.32501743883356
 20
15.92491694770942
 30
0.0
  0
VERTEX
  5
E4
330
E1
100
AcDbEntity
  8
Layer 2
 62
   195
420
  7949726
370
    25
100
AcDbVertex
100
AcDb2dVertex
 10
59.32501743883356
 20
29.92491694770928
 30
0.0
  0
VERTEX
  5
E5
330
E1
100
AcDbEntity
  8
Layer 2
 62
   195
420
  7949726
370
    25
100
AcDbVertex
100
AcDb2dVertex
 10
45.32501743883306
 20
29.92491694770928
 30
0.0
  0
VERTEX
  5
E6
330
E1
100
AcDbEntity
  8
Layer 2
 62
   195
420
  7949726
370
    25
100
AcDbVertex
100
AcDb2dVertex
 10
45.32501743883306
 20
15.92491694770942
 30
0.0
  0
SEQEND
  5
E7
330
E1
100
AcDbEntity
  8
Layer 2
 62
   195
420
  7949726
370
    25
  0
ENDBLK
  5
E0
330
DD
100
AcDbEntity
  8
0
100
AcDbBlockEnd
  0
BLOCK
  5
EA
330
E8
100
AcDbEntity
  8
0
100
AcDbBlockBegin
  2
block 17
 70
     0
 10
0.0
 20
0.0
 30
0.0
  3
block 17
  1

  0
POLYLINE
  5
EC
330
E8
100
AcDbEntity
  8
Layer 2
 62
   195
420
  7949726
370
    25
100
AcDb2dPolyline
 66
     1
 10
0.0
 20
0.0
 30
0.0
  0
VERTEX
  5
ED
330
EC
100
AcDbEntity
  8
Layer 2
 62
   195
420
  7949726
370
    25
100
AcDbVertex
100
AcDb2dVertex
 10
64.37501743407057
 20
15.92491694770942
 30
0.0
  0
VERTEX
  5
EE
330
EC
100
AcDbEntity
  8
Layer 2
 62
   195
420
  7949726
370
    25
100
AcDbVertex
100
AcDb2dVertex
 10
78.37501743407105
 20
15.92491694770942
 30
0.0
  0
VERTEX
  5
EF
330
EC
100
AcDbEntity
  8
Layer 2
 62
   195
420
  7949726
370
    25
100
AcDbVertex
100
AcDb2dVertex
 10
78.37501743407105
 20
29.92491694770928
 30
0.0
  0
VERTEX
  5
F0
330
EC
100
AcDbEntity
  8
Layer 2
 62
   195
420
  7949726
370
    25
100
AcDbVertex
100
AcDb2dVertex
 10
64.37501743407057
 20
29.92491694770928
 30
0.0
  0
VERTEX
  5
F1
330
EC
100
AcDbEntity
  8
Layer 2
 62
   195
420
  7949726
370
    25
100
AcDbVertex
100
AcDb2dVertex
 10
64.37501743407057
 20
15.92491694770942
 30
0.0
  0
SEQEND
  5
F2
330
EC
100
AcDbEntity
  8
Layer 2
 62
   195
420
  7949726
370
    25
  0
ENDBLK
  5
EB
330
E8
100
AcDbEntity
  8
0
100
AcDbBlockEnd
  0
BLOCK
  5
F5
330
F3
100
AcDbEntity
  8
0
100
AcDbBlockBegin
  2
block 18
 70
     0
 10
0.0
 20
0.0
 30
0.0
  3
block 18
  1

  0
POLYLINE
  5
F7
330
F3
100
AcDbEntity
  8
Layer 2
 62
   195
420
  7949726
370
    25
100
AcDb2dPolyline
 66
     1
 10
0.0
 20
0.0
 30
0.0
  0
VERTEX
  5
F8
330
F7
100
AcDbEntity
  8
Layer 2
 62
   195
420
  7949726
370
    25
100
AcDbVertex
100
AcDb2dVertex
 10
83.42501742930807
 20
15.92491694770942
 30
0.0
  0
VERTEX
  5
F9
330
F7
100
AcDbEntity
  8
Layer 2
 62
   195
420
  7949726
370
    25
100
AcDbVertex
100
AcDb2dVertex
 10
97.42501742930855
 20
15.92491694770942
 30
0.0
  0
VERTEX
  5
FA
330
F7
100
AcDbEntity
  8
Layer 2
 62
   195
420
  7949726
370
    25
100
AcDbVertex
100
AcDb2dVertex
 10
97.42501742930855
 20
29.92491694770928
 30
0.0
  0
VERTEX
  5
FB
330
F7
100
AcDbEntity
  8
Layer 2
 62
   195
420
  7949726
370
    25
100
AcDbVertex
100
AcDb2dVertex
 10
83.42501742930807
 20
29.92491694770928
 30
0.0
  0
VERTEX
  5
FC
330
F7
100
AcDbEntity
  8
Layer 2
 62
   195
420
  7949726
370
    25
100
AcDbVertex
100
AcDb2dVertex
 10
83.42501742930807
 20
15.92491694770942
 30
0.0
  0
SEQEND
  5
FD
330
F7
100
AcDbEntity
  8
Layer 2
 62
   195
420
  7949726
370
    25
  0
ENDBLK
  5
F6
330
F3
100
AcDbEntity
  8
0
100
AcDbBlockEnd
  0
BLOCK
  5
100
330
FE
100
AcDbEntity
  8
0
100
AcDbBlockBegin
  2
block 19
 70
     0
 10
0.0
 20
0.0
 30
0.0
  3
block 19
  1

  0
POLYLINE
  5
102
330
FE
100
AcDbEntity
  8
Layer 2
 62
   195
420
  7949726
370
    25
100
AcDb2dPolyline
 66
     1
 10
0.0
 20
0.0
 30
0.0
  0
VERTEX
  5
103
330
102
100
AcDbEntity
  8
Layer 2
 62
   195
420
  7949726
370
    25
100
AcDbVertex
100
AcDb2dVertex
 10
102.4750174245456
 20
15.92491694770942
 30
0.0
  0
VERTEX
  5
104
330
102
100
AcDbEntity
  8
Layer 2
 62
   195
420
  7949726
370
    25
100
AcDbVertex
100
AcDb2dVertex
 10
116.4750174245461
 20
15.92491694770942
 30
0.0
  0
VERTEX
  5
105
330
102
100
AcDbEntity
  8
Layer 2
 62
   195
420
  7949726
370
    25
100
AcDbVertex
100
AcDb2dVertex
 10
116.4750174245461
 20
29.92491694770928
 30
0.0
  0
VERTEX
  5
106
330
102
100
AcDbEntity
  8
Layer 2
 62
   195
420
  7949726
370
    25
100
AcDbVertex
100
AcDb2dVertex
 10
102.4750174245456
 20
29.92491694770928
 30
0.0
  0
VERTEX
  5
107
330
102
100
AcDbEntity
  8
Layer 2
 62
   195
420
  7949726
370
    25
100
AcDbVertex
100
AcDb2dVertex
 10
102.4750174245456
 20
15.92491694770942
 30
0.0
  0
SEQEND
  5
108
330
102
100
AcDbEntity
  8
Layer 2
 62
   195
420
  7949726
370
    25
  0
ENDBLK
  5
101
330
FE
100
AcDbEntity
  8
0
100
AcDbBlockEnd
  0
BLOCK
  5
10B
330
109
100
AcDbEntity
  8
0
100
AcDbBlockBegin
  2
block 20
 70
     0
 10
0.0
 20
0.0
 30
0.0
  3
block 20
  1

  0
POLYLINE
  5
10D
330
109
100
AcDbEntity
  8
Layer 2
 62
   195
420
  7949726
370
    25
100
AcDb2dPolyline
 66
     1
 10
0.0
 20
0.0
 30
0.0
  0
VERTEX
  5
10E
330
10D
100
AcDbEntity
  8
Layer 2
 62
   195
420
  7949726
370
    25
100
AcDbVertex
100
AcDb2dVertex
 10
121.5250174197831
 20
15.92491694770942
 30
0.0
  0
VERTEX
  5
10F
330
10D
100
AcDbEntity
  8
Layer 2
 62
   195
420
  7949726
370
    25
100
AcDbVertex
100
AcDb2dVertex
 10
135.5250174197836
 20
15.92491694770942
 30
0.0
  0
VERTEX
  5
110
330
10D
100
AcDbEntity
  8
Layer 2
 62
   195
420
  7949726
370
    25
100
AcDbVertex
100
AcDb2dVertex
 10
135.5250174197836
 20
29.92491694770928
 30
0.0
  0
VERTEX
  5
111
330
10D
100
AcDbEntity
  8
Layer 2
 62
   195
420
  7949726
370
    25
100
AcDbVertex
100
AcDb2dVertex
 10
121.5250174197831
 20
29.92491694770928
 30
0.0
  0
VERTEX
  5
112
330
10D
100
AcDbEntity
  8
Layer 2
 62
   195
420
  7949726
370
    25
100
AcDbVertex
100
AcDb2dVertex
 10
121.5250174197831
 20
15.92491694770942
 30
0.0
  0
SEQEND
  5
113
330
10D
100
AcDbEntity
  8
Layer 2
 62
   195
420
  7949726
370
    25
  0
ENDBLK
  5
10C
330
109
100
AcDbEntity
  8
0
100
AcDbBlockEnd
  0
BLOCK
  5
116
330
114
100
AcDbEntity
  8
0
100
AcDbBlockBegin
  2
block 21
 70
     0
 10
0.0
 20
0.0
 30
0.0
  3
block 21
  1

  0
POLYLINE
  5
118
330
114
100
AcDbEntity
  8
Layer 2
 62
   195
420
  7949726
370
    25
100
AcDb2dPolyline
 66
     1
 10
0.0
 20
0.0
 30
0.0
  0
VERTEX
  5
119
330
118
100
AcDbEntity
  8
Layer 2
 62
   195
420
  7949726
370
    25
100
AcDbVertex
100
AcDb2dVertex
 10
35.80001744359566
 20
-3.125083052290767
 30
0.0
  0
VERTEX
  5
11A
330
118
100
AcDbEntity
  8
Layer 2
 62
   195
420
  7949726
370
    25
100
AcDbVertex
100
AcDb2dVertex
 10
49.80001744359615
 20
-3.125083052290767
 30
0.0
  0
VERTEX
  5
11B
330
118
100
AcDbEntity
  8
Layer 2
 62
   195
420
  7949726
370
    25
100
AcDbVertex
100
AcDb2dVertex
 10
49.80001744359615
 20
10.87491694770909
 30
0.0
  0
VERTEX
  5
11C
330
118
100
AcDbEntity
  8
Layer 2
 62
   195
420
  7949726
370
    25
100
AcDbVertex
100
AcDb2dVertex
 10
35.80001744359566
 20
10.87491694770909
 30
0.0
  0
VERTEX
  5
11D
330
118
100
AcDbEntity
  8
Layer 2
 62
   195
420
  7949726
370
    25
100
AcDbVertex
100
AcDb2dVertex
 10
35.80001744359566
 20
-3.125083052290767
 30
0.0
  0
SEQEND
  5
11E
330
118
100
AcDbEntity
  8
Layer 2
 62
   195
420
  7949726
370
    25
  0
ENDBLK
  5
117
330
114
100
AcDbEntity
  8
0
100
AcDbBlockEnd
  0
BLOCK
  5
121
330
11F
100
AcDbEntity
  8
0
100
AcDbBlockBegin
  2
block 22
 70
     0
 10
0.0
 20
0.0
 30
0.0
  3
block 22
  1

  0
POLYLINE
  5
123
330
11F
100
AcDbEntity
  8
Layer 2
 62
   195
420
  7949726
370
    25
100
AcDb2dPolyline
 66
     1
 10
0.0
 20
0.0
 30
0.0
  0
VERTEX
  5
124
330
123
100
AcDbEntity
  8
Layer 2
 62
   195
420
  7949726
370
    25
100
AcDbVertex
100
AcDb2dVertex
 10
54.85001743883316
 20
-3.125083052290767
 30
0.0
  0
VERTEX
  5
125
330
123
100
AcDbEntity
  8
Layer 2
 62
   195
420
  7949726
370
    25
100
AcDbVertex
100
AcDb2dVertex
 10
68.85001743883366
 20
-3.125083052290767
 30
0.0
  0
VERTEX
  5
126
330
123
100
AcDbEntity
  8
Layer 2
 62
   195
420
  7949726
370
    25
100
AcDbVertex
100
AcDb2dVertex
 10
68.85001743883366
 20
10.87491694770909
 30
0.0
  0
VERTEX
  5
127
330
123
100
AcDbEntity
  8
Layer 2
 62
   195
420
  7949726
370
    25
100
AcDbVertex
100
AcDb2dVertex
 10
54.85001743883316
 20
10.87491694770909
 30
0.0
  0
VERTEX
  5
128
330
123
100
AcDbEntity
  8
Layer 2
 62
   195
420
  7949726
370
    25
100
AcDbVertex
100
AcDb2dVertex
 10
54.85001743883316
 20
-3.125083052290767
 30
0.0
  0
SEQEND
  5
129
330
123
100
AcDbEntity
  8
Layer 2
 62
   195
420
  7949726
370
    25
  0
ENDBLK
  5
122
330
11F
100
AcDbEntity
  8
0
100
AcDbBlockEnd
  0
BLOCK
  5
12C
330
12A
100
AcDbEntity
  8
0
100
AcDbBlockBegin
  2
block 23
 70
     0
 10
0.0
 20
0.0
 30
0.0
  3
block 23
  1

  0
POLYLINE
  5
12E
330
12A
100
AcDbEntity
  8
Layer 2
 62
   195
420
  7949726
370
    25
100
AcDb2dPolyline
 66
     1
 10
0.0
 20
0.0
 30
0.0
  0
VERTEX
  5
12F
330
12E
100
AcDbEntity
  8
Layer 2
 62
   195
420
  7949726
370
    25
100
AcDbVertex
100
AcDb2dVertex
 10
73.90001743407066
 20
-3.125083052290767
 30
0.0
  0
VERTEX
  5
130
330
12E
100
AcDbEntity
  8
Layer 2
 62
   195
420
  7949726
370
    25
100
AcDbVertex
100
AcDb2dVertex
 10
87.90001743407116
 20
-3.125083052290767
 30
0.0
  0
VERTEX
  5
131
330
12E
100
AcDbEntity
  8
Layer 2
 62
   195
420
  7949726
370
    25
100
AcDbVertex
100
AcDb2dVertex
 10
87.90001743407116
 20
10.87491694770909
 30
0.0
  0
VERTEX
  5
132
330
12E
100
AcDbEntity
  8
Layer 2
 62
   195
420
  7949726
370
    25
100
AcDbVertex
100
AcDb2dVertex
 10
73.90001743407066
 20
10.87491694770909
 30
0.0
  0
VERTEX
  5
133
330
12E
100
AcDbEntity
  8
Layer 2
 62
   195
420
  7949726
370
    25
100
AcDbVertex
100
AcDb2dVertex
 10
73.90001743407066
 20
-3.125083052290767
 30
0.0
  0
SEQEND
  5
134
330
12E
100
AcDbEntity
  8
Layer 2
 62
   195
420
  7949726
370
    25
  0
ENDBLK
  5
12D
330
12A
100
AcDbEntity
  8
0
100
AcDbBlockEnd
  0
BLOCK
  5
137
330
135
100
AcDbEntity
  8
0
100
AcDbBlockBegin
  2
block 24
 70
     0
 10
0.0
 20
0.0
 30
0.0
  3
block 24
  1

  0
POLYLINE
  5
139
330
135
100
AcDbEntity
  8
Layer 2
 62
   195
420
  7949726
370
    25
100
AcDb2dPolyline
 66
     1
 10
0.0
 20
0.0
 30
0.0
  0
VERTEX
  5
13A
330
139
100
AcDbEntity
  8
Layer 2
 62
   195
420
  7949726
370
    25
100
AcDbVertex
100
AcDb2dVertex
 10
92.95001742930816
 20
-3.125083052290767
 30
0.0
  0
VERTEX
  5
13B
330
139
100
AcDbEntity
  8
Layer 2
 62
   195
420
  7949726
370
    25
100
AcDbVertex
100
AcDb2dVertex
 10
106.9500174293087
 20
-3.125083052290767
 30
0.0
  0
VERTEX
  5
13C
330
139
100
AcDbEntity
  8
Layer 2
 62
   195
420
  7949726
370
    25
100
AcDbVertex
100
AcDb2dVertex
 10
106.9500174293087
 20
10.87491694770909
 30
0.0
  0
VERTEX
  5
13D
330
139
100
AcDbEntity
  8
Layer 2
 62
   195
420
  7949726
370
    25
100
AcDbVertex
100
AcDb2dVertex
 10
92.95001742930816
 20
10.87491694770909
 30
0.0
  0
VERTEX
  5
13E
330
139
100
AcDbEntity
  8
Layer 2
 62
   195
420
  7949726
370
    25
100
AcDbVertex
100
AcDb2dVertex
 10
92.95001742930816
 20
-3.125083052290767
 30
0.0
  0
SEQEND
  5
13F
330
139
100
AcDbEntity
  8
Layer 2
 62
   195
420
  7949726
370
    25
  0
ENDBLK
  5
138
330
135
100
AcDbEntity
  8
0
100
AcDbBlockEnd
  0
BLOCK
  5
14A
330
148
100
AcDbEntity
  8
0
100
AcDbBlockBegin
  2
block 25
 70
     0
 10
0.0
 20
0.0
 30
0.0
  3
block 25
  1

  0
SPLINE
  5
14C
330
148
100
AcDbEntity
  8
Layer 2
 62
   195
420
  7949726
370
    25
100
AcDbSpline
210
0.0
220
0.0
230
1.0
 70
    11
 71
     3
 72
    44
 73
    40
 74
     0
 42
0.0000000001
 43
0.0000000001
 12
1.0
 22
0.0
 32
0.0
 13
1.0
 23
0.0
 33
0.0
 40
0.0
 40
0.0
 40
0.0
 40
0.0
 40
1.0
 40
1.0
 40
1.0
 40
2.0
 40
2.0
 40
2.0
 40
3.0
 40
3.0
 40
3.0
 40
4.0
 40
4.0
 40
4.0
 40
5.0
 40
5.0
 40
5.0
 40
6.0
 40
6.0
 40
6.0
 40
7.0
 40
7.0
 40
7.0
 40
8.0
 40
8.0
 40
8.0
 40
9.0
 40
9.0
 40
9.0
 40
10.0
 40
10.0
 40
10.0
 40
11.0
 40
11.0
 40
11.0
 40
12.0
 40
12.0
 40
12.0
 40
13.0
 40
13.0
 40
13.0
 40
13.0
 10
154.8624998969196
 20
54.024916561792
 30
0.0
 10
159.584086339658
 20
54.024916561792
 30
0.0
 10
165.586396676652
 20
54.024916561792
 30
0.0
 10
170.3005191213045
 20
54.024916561792
 30
0.0
 10
170.3005191213045
 20
54.024916561792
 30
0.0
 10
170.3005191213045
 20
53.02491653422651
 30
0.0
 10
170.3005191213045
 20
53.02491653422651
 30
0.0
 10
170.3005191213045
 20
53.02491653422651
 30
0.0
 10
177.300519314263
 20
53.02491653422651
 30
0.0
 10
177.300519314263
 20
53.02491653422651
 30
0.0
 10
177.300519314263
 20
53.02491653422651
 30
0.0
 10
177.300519314263
 20
54.024916561792
 30
0.0
 10
177.300519314263
 20
54.024916561792
 30
0.0
 10
177.300519314263
 20
54.024916561792
 30
0.0
 10
178.3874944418822
 20
54.024916561792
 30
0.0
 10
178.3874944418822
 20
54.024916561792
 30
0.0
 10
178.3874944418822
 20
54.024916561792
 30
0.0
 10
178.3874944418822
 20
68.02491694770902
 30
0.0
 10
178.3874944418822
 20
68.02491694770902
 30
0.0
 10
167.6541592036168
 20
68.02491694770902
 30
0.0
 10
156.0705444720588
 20
68.02491694770902
 30
0.0
 10
145.337505737874
 20
68.02491694770902
 30
0.0
 10
145.337505737874
 20
68.02491694770902
 30
0.0
 10
145.337505737874
 20
54.024916561792
 30
0.0
 10
145.337505737874
 20
54.024916561792
 30
0.0
 10
145.337505737874
 20
54.024916561792
 30
0.0
 10
146.4245113830722
 20
54.024916561792
 30
0.0
 10
146.4245113830722
 20
54.024916561792
 30
0.0
 10
146.4245113830722
 20
54.024916561792
 30
0.0
 10
146.4245113830722
 20
53.02491653422651
 30
0.0
 10
146.4245113830722
 20
53.02491653422651
 30
0.0
 10
146.4245113830722
 20
53.02491653422651
 30
0.0
 10
153.4245115760307
 20
53.02491653422651
 30
0.0
 10
153.4245115760307
 20
53.02491653422651
 30
0.0
 10
153.4245115760307
 20
53.02491653422651
 30
0.0
 10
153.4245115760307
 20
54.024916561792
 30
0.0
 10
153.4245115760307
 20
54.024916561792
 30
0.0
 10
153.4245115760307
 20
54.024916561792
 30
0.0
 10
154.8624998969196
 20
54.024916561792
 30
0.0
 10
154.8624998969196
 20
54.024916561792
 30
0.0
  0
ENDBLK
  5
14B
330
148
100
AcDbEntity
  8
0
100
AcDbBlockEnd
  0
BLOCK
  5
14F
330
14D
100
AcDbEntity
  8
0
100
AcDbBlockBegin
  2
block 26
 70
     0
 10
0.0
 20
0.0
 30
0.0
  3
block 26
  1

  0
POLYLINE
  5
151
330
14D
100
AcDbEntity
  8
Layer 2
 62
   195
420
  7949726
370
    25
100
AcDb2dPolyline
 66
     1
 10
0.0
 20
0.0
 30
0.0
  0
VERTEX
  5
152
330
151
100
AcDbEntity
  8
Layer 2
 62
   195
420
  7949726
370
    25
100
AcDbVertex
100
AcDb2dVertex
 10
159.6250122352319
 20
34.97491679960869
 30
0.0
  0
VERTEX
  5
153
330
151
100
AcDbEntity
  8
Layer 2
 62
   195
420
  7949726
370
    25
100
AcDbVertex
100
AcDb2dVertex
 10
173.6250126211489
 20
34.97491679960869
 30
0.0
  0
VERTEX
  5
154
330
151
100
AcDbEntity
  8
Layer 2
 62
   195
420
  7949726
370
    25
100
AcDbVertex
100
AcDb2dVertex
 10
173.6250126211489
 20
48.9749171855257
 30
0.0
  0
VERTEX
  5
155
330
151
100
AcDbEntity
  8
Layer 2
 62
   195
420
  7949726
370
    25
100
AcDbVertex
100
AcDb2dVertex
 10
159.6250122352319
 20
48.9749171855257
 30
0.0
  0
VERTEX
  5
156
330
151
100
AcDbEntity
  8
Layer 2
 62
   195
420
  7949726
370
    25
100
AcDbVertex
100
AcDb2dVertex
 10
159.6250122352319
 20
34.97491679960869
 30
0.0
  0
SEQEND
  5
157
330
151
100
AcDbEntity
  8
Layer 2
 62
   195
420
  7949726
370
    25
  0
ENDBLK
  5
150
330
14D
100
AcDbEntity
  8
0
100
AcDbBlockEnd
  0
BLOCK
  5
15A
330
158
100
AcDbEntity
  8
0
100
AcDbBlockBegin
  2
block 27
 70
     0
 10
0.0
 20
0.0
 30
0.0
  3
block 27
  1

  0
POLYLINE
  5
15C
330
158
100
AcDbEntity
  8
Layer 2
 62
   195
420
  7949726
370
    25
100
AcDb2dPolyline
 66
     1
 10
0.0
 20
0.0
 30
0.0
  0
VERTEX
  5
15D
330
15C
100
AcDbEntity
  8
Layer 2
 62
   195
420
  7949726
370
    25
100
AcDbVertex
100
AcDb2dVertex
 10
152.4812437277635
 20
15.92491703742537
 30
0.0
  0
VERTEX
  5
15E
330
15C
100
AcDbEntity
  8
Layer 2
 62
   195
420
  7949726
370
    25
100
AcDbVertex
100
AcDb2dVertex
 10
166.4812441136805
 20
15.92491703742537
 30
0.0
  0
VERTEX
  5
15F
330
15C
100
AcDbEntity
  8
Layer 2
 62
   195
420
  7949726
370
    25
100
AcDbVertex
100
AcDb2dVertex
 10
166.4812441136805
 20
29.92491742334238
 30
0.0
  0
VERTEX
  5
160
330
15C
100
AcDbEntity
  8
Layer 2
 62
   195
420
  7949726
370
    25
100
AcDbVertex
100
AcDb2dVertex
 10
152.4812437277635
 20
29.92491742334238
 30
0.0
  0
VERTEX
  5
161
330
15C
100
AcDbEntity
  8
Layer 2
 62
   195
420
  7949726
370
    25
100
AcDbVertex
100
AcDb2dVertex
 10
152.4812437277635
 20
15.92491703742537
 30
0.0
  0
SEQEND
  5
162
330
15C
100
AcDbEntity
  8
Layer 2
 62
   195
420
  7949726
370
    25
  0
ENDBLK
  5
15B
330
158
100
AcDbEntity
  8
0
100
AcDbBlockEnd
  0
BLOCK
  5
165
330
163
100
AcDbEntity
  8
0
100
AcDbBlockBegin
  2
block 28
 70
     0
 10
0.0
 20
0.0
 30
0.0
  3
block 28
  1

  0
POLYLINE
  5
167
330
163
100
AcDbEntity
  8
Layer 2
 62
   195
420
  7949726
370
    25
100
AcDb2dPolyline
 66
     1
 10
0.0
 20
0.0
 30
0.0
  0
VERTEX
  5
168
330
167
100
AcDbEntity
  8
Layer 2
 62
   195
420
  7949726
370
    25
100
AcDbVertex
100
AcDb2dVertex
 10
112.0000109224249
 20
-3.125086539455323
 30
0.0
  0
VERTEX
  5
169
330
167
100
AcDbEntity
  8
Layer 2
 62
   195
420
  7949726
370
    25
100
AcDbVertex
100
AcDb2dVertex
 10
126.0000113083426
 20
-3.125086539455323
 30
0.0
  0
VERTEX
  5
16A
330
167
100
AcDbEntity
  8
Layer 2
 62
   195
420
  7949726
370
    25
100
AcDbVertex
100
AcDb2dVertex
 10
126.0000113083426
 20
10.87491384646169
 30
0.0
  0
VERTEX
  5
16B
330
167
100
AcDbEntity
  8
Layer 2
 62
   195
420
  7949726
370
    25
100
AcDbVertex
100
AcDb2dVertex
 10
112.0000109224249
 20
10.87491384646169
 30
0.0
  0
VERTEX
  5
16C
330
167
100
AcDbEntity
  8
Layer 2
 62
   195
420
  7949726
370
    25
100
AcDbVertex
100
AcDb2dVertex
 10
112.0000109224249
 20
-3.125086539455323
 30
0.0
  0
SEQEND
  5
16D
330
167
100
AcDbEntity
  8
Layer 2
 62
   195
420
  7949726
370
    25
  0
ENDBLK
  5
166
330
163
100
AcDbEntity
  8
0
100
AcDbBlockEnd
  0
BLOCK
  5
170
330
16E
100
AcDbEntity
  8
0
100
AcDbBlockBegin
  2
block 29
 70
     0
 10
0.0
 20
0.0
 30
0.0
  3
block 29
  1

  0
POLYLINE
  5
172
330
16E
100
AcDbEntity
  8
Layer 2
 62
   195
420
  7949726
370
    25
100
AcDb2dPolyline
 66
     1
 10
0.0
 20
0.0
 30
0.0
  0
VERTEX
  5
173
330
172
100
AcDbEntity
  8
Layer 2
 62
   195
420
  7949726
370
    25
100
AcDbVertex
100
AcDb2dVertex
 10
138.1937677479845
 20
-3.125086539455323
 30
0.0
  0
VERTEX
  5
174
330
172
100
AcDbEntity
  8
Layer 2
 62
   195
420
  7949726
370
    25
100
AcDbVertex
100
AcDb2dVertex
 10
152.1937681339016
 20
-3.125086539455323
 30
0.0
  0
VERTEX
  5
175
330
172
100
AcDbEntity
  8
Layer 2
 62
   195
420
  7949726
370
    25
100
AcDbVertex
100
AcDb2dVertex
 10
152.1937681339016
 20
10.87491384646169
 30
0.0
  0
VERTEX
  5
176
330
172
100
AcDbEntity
  8
Layer 2
 62
   195
420
  7949726
370
    25
100
AcDbVertex
100
AcDb2dVertex
 10
138.1937677479845
 20
10.87491384646169
 30
0.0
  0
VERTEX
  5
177
330
172
100
AcDbEntity
  8
Layer 2
 62
   195
420
  7949726
370
    25
100
AcDbVertex
100
AcDb2dVertex
 10
138.1937677479845
 20
-3.125086539455323
 30
0.0
  0
SEQEND
  5
178
330
172
100
AcDbEntity
  8
Layer 2
 62
   195
420
  7949726
370
    25
  0
ENDBLK
  5
171
330
16E
100
AcDbEntity
  8
0
100
AcDbBlockEnd
  0
BLOCK
  5
17B
330
179
100
AcDbEntity
  8
0
100
AcDbBlockBegin
  2
block 30
 70
     0
 10
0.0
 20
0.0
 30
0.0
  3
block 30
  1

  0
POLYLINE
  5
17D
330
179
100
AcDbEntity
  8
Layer 2
 62
   195
420
  7949726
370
    25
100
AcDb2dPolyline
 66
     1
 10
0.0
 20
0.0
 30
0.0
  0
VERTEX
  5
17E
330
17D
100
AcDbEntity
  8
Layer 2
 62
   195
420
  7949726
370
    25
100
AcDbVertex
100
AcDb2dVertex
 10
164.3874940559652
 20
-3.125086539455323
 30
0.0
  0
VERTEX
  5
17F
330
17D
100
AcDbEntity
  8
Layer 2
 62
   195
420
  7949726
370
    25
100
AcDbVertex
100
AcDb2dVertex
 10
178.3874944418822
 20
-3.125086539455323
 30
0.0
  0
VERTEX
  5
180
330
17D
100
AcDbEntity
  8
Layer 2
 62
   195
420
  7949726
370
    25
100
AcDbVertex
100
AcDb2dVertex
 10
178.3874944418822
 20
10.87491384646169
 30
0.0
  0
VERTEX
  5
181
330
17D
100
AcDbEntity
  8
Layer 2
 62
   195
420
  7949726
370
    25
100
AcDbVertex
100
AcDb2dVertex
 10
164.3874940559652
 20
10.87491384646169
 30
0.0
  0
VERTEX
  5
182
330
17D
100
AcDbEntity
  8
Layer 2
 62
   195
420
  7949726
370
    25
100
AcDbVertex
100
AcDb2dVertex
 10
164.3874940559652
 20
-3.125086539455323
 30
0.0
  0
SEQEND
  5
183
330
17D
100
AcDbEntity
  8
Layer 2
 62
   195
420
  7949726
370
    25
  0
ENDBLK
  5
17C
330
179
100
AcDbEntity
  8
0
100
AcDbBlockEnd
  0
BLOCK
  5
186
330
184
100
AcDbEntity
  8
0
100
AcDbBlockBegin
  2
block 31
 70
     0
 10
0.0
 20
0.0
 30
0.0
  3
block 31
  1

  0
POLYLINE
  5
188
330
184
100
AcDbEntity
  8
Layer 2
 62
   195
420
  7949726
370
    25
100
AcDb2dPolyline
 66
     1
 10
0.0
 20
0.0
 30
0.0
  0
VERTEX
  5
189
330
188
100
AcDbEntity
  8
Layer 2
 62
   195
420
  7949726
370
    25
100
AcDbVertex
100
AcDb2dVertex
 10
52.4687592814165
 20
-22.17508248694127
 30
0.0
  0
VERTEX
  5
18A
330
188
100
AcDbEntity
  8
Layer 2
 62
   195
420
  7949726
370
    25
100
AcDbVertex
100
AcDb2dVertex
 10
66.46875966733319
 20
-22.17508248694127
 30
0.0
  0
VERTEX
  5
18B
330
188
100
AcDbEntity
  8
Layer 2
 62
   195
420
  7949726
370
    25
100
AcDbVertex
100
AcDb2dVertex
 10
66.46875966733319
 20
-8.175082101024257
 30
0.0
  0
VERTEX
  5
18C
330
188
100
AcDbEntity
  8
Layer 2
 62
   195
420
  7949726
370
    25
100
AcDbVertex
100
AcDb2dVertex
 10
52.4687592814165
 20
-8.175082101024257
 30
0.0
  0
VERTEX
  5
18D
330
188
100
AcDbEntity
  8
Layer 2
 62
   195
420
  7949726
370
    25
100
AcDbVertex
100
AcDb2dVertex
 10
52.4687592814165
 20
-22.17508248694127
 30
0.0
  0
SEQEND
  5
18E
330
188
100
AcDbEntity
  8
Layer 2
 62
   195
420
  7949726
370
    25
  0
ENDBLK
  5
187
330
184
100
AcDbEntity
  8
0
100
AcDbBlockEnd
  0
BLOCK
  5
191
330
18F
100
AcDbEntity
  8
0
100
AcDbBlockBegin
  2
block 32
 70
     0
 10
0.0
 20
0.0
 30
0.0
  3
block 32
  1

  0
POLYLINE
  5
193
330
18F
100
AcDbEntity
  8
Layer 2
 62
   195
420
  7949726
370
    25
100
AcDb2dPolyline
 66
     1
 10
0.0
 20
0.0
 30
0.0
  0
VERTEX
  5
194
330
193
100
AcDbEntity
  8
Layer 2
 62
   195
420
  7949726
370
    25
100
AcDbVertex
100
AcDb2dVertex
 10
90.56876643517755
 20
-22.17508248694127
 30
0.0
  0
VERTEX
  5
195
330
193
100
AcDbEntity
  8
Layer 2
 62
   195
420
  7949726
370
    25
100
AcDbVertex
100
AcDb2dVertex
 10
104.5687668210946
 20
-22.17508248694127
 30
0.0
  0
VERTEX
  5
196
330
193
100
AcDbEntity
  8
Layer 2
 62
   195
420
  7949726
370
    25
100
AcDbVertex
100
AcDb2dVertex
 10
104.5687668210946
 20
-8.175082101024257
 30
0.0
  0
VERTEX
  5
197
330
193
100
AcDbEntity
  8
Layer 2
 62
   195
420
  7949726
370
    25
100
AcDbVertex
100
AcDb2dVertex
 10
90.56876643517755
 20
-8.175082101024257
 30
0.0
  0
VERTEX
  5
198
330
193
100
AcDbEntity
  8
Layer 2
 62
   195
420
  7949726
370
    25
100
AcDbVertex
100
AcDb2dVertex
 10
90.56876643517755
 20
-22.17508248694127
 30
0.0
  0
SEQEND
  5
199
330
193
100
AcDbEntity
  8
Layer 2
 62
   195
420
  7949726
370
    25
  0
ENDBLK
  5
192
330
18F
100
AcDbEntity
  8
0
100
AcDbBlockEnd
  0
BLOCK
  5
19C
330
19A
100
AcDbEntity
  8
0
100
AcDbBlockBegin
  2
block 33
 70
     0
 10
0.0
 20
0.0
 30
0.0
  3
block 33
  1

  0
POLYLINE
  5
19E
330
19A
100
AcDbEntity
  8
Layer 2
 62
   195
420
  7949726
370
    25
100
AcDb2dPolyline
 66
     1
 10
0.0
 20
0.0
 30
0.0
  0
VERTEX
  5
19F
330
19E
100
AcDbEntity
  8
Layer 2
 62
   195
420
  7949726
370
    25
100
AcDbVertex
100
AcDb2dVertex
 10
114.3812670915817
 20
-22.17508248694127
 30
0.0
  0
VERTEX
  5
1A0
330
19E
100
AcDbEntity
  8
Layer 2
 62
   195
420
  7949726
370
    25
100
AcDbVertex
100
AcDb2dVertex
 10
128.3812674774987
 20
-22.17508248694127
 30
0.0
  0
VERTEX
  5
1A1
330
19E
100
AcDbEntity
  8
Layer 2
 62
   195
420
  7949726
370
    25
100
AcDbVertex
100
AcDb2dVertex
 10
128.3812674774987
 20
-8.175082101024257
 30
0.0
  0
VERTEX
  5
1A2
330
19E
100
AcDbEntity
  8
Layer 2
 62
   195
420
  7949726
370
    25
100
AcDbVertex
100
AcDb2dVertex
 10
114.3812670915817
 20
-8.175082101024257
 30
0.0
  0
VERTEX
  5
1A3
330
19E
100
AcDbEntity
  8
Layer 2
 62
   195
420
  7949726
370
    25
100
AcDbVertex
100
AcDb2dVertex
 10
114.3812670915817
 20
-22.17508248694127
 30
0.0
  0
SEQEND
  5
1A4
330
19E
100
AcDbEntity
  8
Layer 2
 62
   195
420
  7949726
370
    25
  0
ENDBLK
  5
19D
330
19A
100
AcDbEntity
  8
0
100
AcDbBlockEnd
  0
BLOCK
  5
1A7
330
1A5
100
AcDbEntity
  8
0
100
AcDbBlockBegin
  2
block 34
 70
     0
 10
0.0
 20
0.0
 30
0.0
  3
block 34
  1

  0
POLYLINE
  5
1A9
330
1A5
100
AcDbEntity
  8
Layer 2
 62
   195
420
  7949726
370
    25
100
AcDb2dPolyline
 66
     1
 10
0.0
 20
0.0
 30
0.0
  0
VERTEX
  5
1AA
330
1A9
100
AcDbEntity
  8
Layer 2
 62
   195
420
  7949726
370
    25
100
AcDbVertex
100
AcDb2dVertex
 10
145.337505737874
 20
-22.17508248694127
 30
0.0
  0
VERTEX
  5
1AB
330
1A9
100
AcDbEntity
  8
Layer 2
 62
   195
420
  7949726
370
    25
100
AcDbVertex
100
AcDb2dVertex
 10
159.337506123791
 20
-22.17508248694127
 30
0.0
  0
VERTEX
  5
1AC
330
1A9
100
AcDbEntity
  8
Layer 2
 62
   195
420
  7949726
370
    25
100
AcDbVertex
100
AcDb2dVertex
 10
159.337506123791
 20
-8.175082101024257
 30
0.0
  0
VERTEX
  5
1AD
330
1A9
100
AcDbEntity
  8
Layer 2
 62
   195
420
  7949726
370
    25
100
AcDbVertex
100
AcDb2dVertex
 10
145.337505737874
 20
-8.175082101024257
 30
0.0
  0
VERTEX
  5
1AE
330
1A9
100
AcDbEntity
  8
Layer 2
 62
   195
420
  7949726
370
    25
100
AcDbVertex
100
AcDb2dVertex
 10
145.337505737874
 20
-22.17508248694127
 30
0.0
  0
SEQEND
  5
1AF
330
1A9
100
AcDbEntity
  8
Layer 2
 62
   195
420
  7949726
370
    25
  0
ENDBLK
  5
1A8
330
1A5
100
AcDbEntity
  8
0
100
AcDbBlockEnd
  0
BLOCK
  5
1B2
330
1B0
100
AcDbEntity
  8
0
100
AcDbBlockBegin
  2
block 35
 70
     0
 10
0.0
 20
0.0
 30
0.0
  3
block 35
  1

  0
POLYLINE
  5
1B4
330
1B0
100
AcDbEntity
  8
Layer 2
 62
   195
420
  7949726
370
    25
100
AcDb2dPolyline
 66
     1
 10
0.0
 20
0.0
 30
0.0
  0
VERTEX
  5
1B5
330
1B4
100
AcDbEntity
  8
Layer 2
 62
   195
420
  7949726
370
    25
100
AcDbVertex
100
AcDb2dVertex
 10
164.3874940559652
 20
-22.17508248694127
 30
0.0
  0
VERTEX
  5
1B6
330
1B4
100
AcDbEntity
  8
Layer 2
 62
   195
420
  7949726
370
    25
100
AcDbVertex
100
AcDb2dVertex
 10
178.3874944418822
 20
-22.17508248694127
 30
0.0
  0
VERTEX
  5
1B7
330
1B4
100
AcDbEntity
  8
Layer 2
 62
   195
420
  7949726
370
    25
100
AcDbVertex
100
AcDb2dVertex
 10
178.3874944418822
 20
-8.175082101024257
 30
0.0
  0
VERTEX
  5
1B8
330
1B4
100
AcDbEntity
  8
Layer 2
 62
   195
420
  7949726
370
    25
100
AcDbVertex
100
AcDb2dVertex
 10
164.3874940559652
 20
-8.175082101024257
 30
0.0
  0
VERTEX
  5
1B9
330
1B4
100
AcDbEntity
  8
Layer 2
 62
   195
420
  7949726
370
    25
100
AcDbVertex
100
AcDb2dVertex
 10
164.3874940559652
 20
-22.17508248694127
 30
0.0
  0
SEQEND
  5
1BA
330
1B4
100
AcDbEntity
  8
Layer 2
 62
   195
420
  7949726
370
    25
  0
ENDBLK
  5
1B3
330
1B0
100
AcDbEntity
  8
0
100
AcDbBlockEnd
  0
BLOCK
  5
1BD
330
1BB
100
AcDbEntity
  8
0
100
AcDbBlockBegin
  2
block 36
 70
     0
 10
0.0
 20
0.0
 30
0.0
  3
block 36
  1

  0
POLYLINE
  5
1BF
330
1BB
100
AcDbEntity
  8
Layer 2
 62
   195
420
  7949726
370
    25
100
AcDb2dPolyline
 66
     1
 10
0.0
 20
0.0
 30
0.0
  0
VERTEX
  5
1C0
330
1BF
100
AcDbEntity
  8
Layer 2
 62
   195
420
  7949726
370
    25
100
AcDbVertex
100
AcDb2dVertex
 10
144.0432552139161
 20
14.92491700985987
 30
0.0
  0
VERTEX
  5
1C1
330
1BF
100
AcDbEntity
  8
Layer 2
 62
   195
420
  7949726
370
    25
100
AcDbVertex
100
AcDb2dVertex
 10
151.0432554068746
 20
14.92491700985987
 30
0.0
  0
VERTEX
  5
1C2
330
1BF
100
AcDbEntity
  8
Layer 2
 62
   195
420
  7949726
370
    25
100
AcDbVertex
100
AcDb2dVertex
 10
151.0432554068746
 20
29.92491742334238
 30
0.0
  0
VERTEX
  5
1C3
330
1BF
100
AcDbEntity
  8
Layer 2
 62
   195
420
  7949726
370
    25
100
AcDbVertex
100
AcDb2dVertex
 10
144.0432552139161
 20
29.92491742334238
 30
0.0
  0
VERTEX
  5
1C4
330
1BF
100
AcDbEntity
  8
Layer 2
 62
   195
420
  7949726
370
    25
100
AcDbVertex
100
AcDb2dVertex
 10
144.0432552139161
 20
14.92491700985987
 30
0.0
  0
SEQEND
  5
1C5
330
1BF
100
AcDbEntity
  8
Layer 2
 62
   195
420
  7949726
370
    25
  0
ENDBLK
  5
1BE
330
1BB
100
AcDbEntity
  8
0
100
AcDbBlockEnd
  0
BLOCK
  5
1C8
330
1C6
100
AcDbEntity
  8
0
100
AcDbBlockBegin
  2
block 37
 70
     0
 10
0.0
 20
0.0
 30
0.0
  3
block 37
  1

  0
POLYLINE
  5
1CA
330
1C6
100
AcDbEntity
  8
Layer 2
 62
   195
420
  7949726
370
    25
100
AcDb2dPolyline
 66
     1
 10
0.0
 20
0.0
 30
0.0
  0
VERTEX
  5
1CB
330
1CA
100
AcDbEntity
  8
Layer 2
 62
   195
420
  7949726
370
    25
100
AcDbVertex
100
AcDb2dVertex
 10
167.9192629521483
 20
14.92491700985987
 30
0.0
  0
VERTEX
  5
1CC
330
1CA
100
AcDbEntity
  8
Layer 2
 62
   195
420
  7949726
370
    25
100
AcDbVertex
100
AcDb2dVertex
 10
174.9192631451068
 20
14.92491700985987
 30
0.0
  0
VERTEX
  5
1CD
330
1CA
100
AcDbEntity
  8
Layer 2
 62
   195
420
  7949726
370
    25
100
AcDbVertex
100
AcDb2dVertex
 10
174.9192631451068
 20
29.92491742334238
 30
0.0
  0
VERTEX
  5
1CE
330
1CA
100
AcDbEntity
  8
Layer 2
 62
   195
420
  7949726
370
    25
100
AcDbVertex
100
AcDb2dVertex
 10
167.9192629521483
 20
29.92491742334238
 30
0.0
  0
VERTEX
  5
1CF
330
1CA
100
AcDbEntity
  8
Layer 2
 62
   195
420
  7949726
370
    25
100
AcDbVertex
100
AcDb2dVertex
 10
167.9192629521483
 20
14.92491700985987
 30
0.0
  0
SEQEND
  5
1D0
330
1CA
100
AcDbEntity
  8
Layer 2
 62
   195
420
  7949726
370
    25
  0
ENDBLK
  5
1C9
330
1C6
100
AcDbEntity
  8
0
100
AcDbBlockEnd
  0
BLOCK
  5
1D3
330
1D1
100
AcDbEntity
  8
0
100
AcDbBlockBegin
  2
block 38
 70
     0
 10
0.0
 20
0.0
 30
0.0
  3
block 38
  1

  0
POLYLINE
  5
1D5
330
1D1
100
AcDbEntity
  8
Layer 2
 62
   195
420
  7949726
370
    25
100
AcDb2dPolyline
 66
     1
 10
0.0
 20
0.0
 30
0.0
  0
VERTEX
  5
1D6
330
1D5
100
AcDbEntity
  8
Layer 2
 62
   195
420
  7949726
370
    25
100
AcDbVertex
100
AcDb2dVertex
 10
74.90674818118056
 20
-7.175082073458756
 30
0.0
  0
VERTEX
  5
1D7
330
1D5
100
AcDbEntity
  8
Layer 2
 62
   195
420
  7949726
370
    25
100
AcDbVertex
100
AcDb2dVertex
 10
67.90674798822207
 20
-7.175082073458756
 30
0.0
  0
VERTEX
  5
1D8
330
1D5
100
AcDbEntity
  8
Layer 2
 62
   195
420
  7949726
370
    25
100
AcDbVertex
100
AcDb2dVertex
 10
67.90674798822207
 20
-22.17508248694127
 30
0.0
  0
VERTEX
  5
1D9
330
1D5
100
AcDbEntity
  8
Layer 2
 62
   195
420
  7949726
370
    25
100
AcDbVertex
100
AcDb2dVertex
 10
74.90674818118056
 20
-22.17508248694127
 30
0.0
  0
VERTEX
  5
1DA
330
1D5
100
AcDbEntity
  8
Layer 2
 62
   195
420
  7949726
370
    25
100
AcDbVertex
100
AcDb2dVertex
 10
74.90674818118056
 20
-7.175082073458756
 30
0.0
  0
SEQEND
  5
1DB
330
1D5
100
AcDbEntity
  8
Layer 2
 62
   195
420
  7949726
370
    25
  0
ENDBLK
  5
1D4
330
1D1
100
AcDbEntity
  8
0
100
AcDbBlockEnd
  0
BLOCK
  5
1DE
330
1DC
100
AcDbEntity
  8
0
100
AcDbBlockBegin
  2
block 39
 70
     0
 10
0.0
 20
0.0
 30
0.0
  3
block 39
  1

  0
POLYLINE
  5
1E0
330
1DC
100
AcDbEntity
  8
Layer 2
 62
   195
420
  7949726
370
    25
100
AcDb2dPolyline
 66
     1
 10
0.0
 20
0.0
 30
0.0
  0
VERTEX
  5
1E1
330
1E0
100
AcDbEntity
  8
Layer 2
 62
   195
420
  7949726
370
    25
100
AcDbVertex
100
AcDb2dVertex
 10
51.03074044294867
 20
-7.175082073458756
 30
0.0
  0
VERTEX
  5
1E2
330
1E0
100
AcDbEntity
  8
Layer 2
 62
   195
420
  7949726
370
    25
100
AcDbVertex
100
AcDb2dVertex
 10
44.03075550877964
 20
-7.175082073458756
 30
0.0
  0
VERTEX
  5
1E3
330
1E0
100
AcDbEntity
  8
Layer 2
 62
   195
420
  7949726
370
    25
100
AcDbVertex
100
AcDb2dVertex
 10
44.03075550877964
 20
-22.17508248694127
 30
0.0
  0
VERTEX
  5
1E4
330
1E0
100
AcDbEntity
  8
Layer 2
 62
   195
420
  7949726
370
    25
100
AcDbVertex
100
AcDb2dVertex
 10
51.03074044294867
 20
-22.17508248694127
 30
0.0
  0
VERTEX
  5
1E5
330
1E0
100
AcDbEntity
  8
Layer 2
 62
   195
420
  7949726
370
    25
100
AcDbVertex
100
AcDb2dVertex
 10
51.03074044294867
 20
-7.175082073458756
 30
0.0
  0
SEQEND
  5
1E6
330
1E0
100
AcDbEntity
  8
Layer 2
 62
   195
420
  7949726
370
    25
  0
ENDBLK
  5
1DF
330
1DC
100
AcDbEntity
  8
0
100
AcDbBlockEnd
  0
ENDSEC
  0
SECTION
  2
ENTITIES
  0
SPLINE
  5
42
330
1F
100
AcDbEntity
  8
Layer 2
 62
   195
420
  7949726
370
    25
100
AcDbSpline
210
0.0
220
0.0
230
1.0
 70
    11
 71
     3
 72
    65
 73
    61
 74
     0
 42
0.0000000001
 43
0.0000000001
 12
1.0
 22
0.0
 32
0.0
 13
1.0
 23
0.0
 33
0.0
 40
0.0
 40
0.0
 40
0.0
 40
0.0
 40
1.0
 40
1.0
 40
1.0
 40
2.0
 40
2.0
 40
2.0
 40
3.0
 40
3.0
 40
3.0
 40
4.0
 40
4.0
 40
4.0
 40
5.0
 40
5.0
 40
5.0
 40
6.0
 40
6.0
 40
6.0
 40
7.0
 40
7.0
 40
7.0
 40
8.0
 40
8.0
 40
8.0
 40
9.0
 40
9.0
 40
9.0
 40
10.0
 40
10.0
 40
10.0
 40
11.0
 40
11.0
 40
11.0
 40
12.0
 40
12.0
 40
12.0
 40
13.0
 40
13.0
 40
13.0
 40
14.0
 40
14.0
 40
14.0
 40
15.0
 40
15.0
 40
15.0
 40
16.0
 40
16.0
 40
16.0
 40
17.0
 40
17.0
 40
17.0
 40
18.0
 40
18.0
 40
18.0
 40
19.0
 40
19.0
 40
19.0
 40
20.0
 40
20.0
 40
20.0
 40
20.0
 10
30.51280498173586
 20
78.54991693677972
 30
0.0
 10
30.51280498173586
 20
78.54991693677972
 30
0.0
 10
184.9125173997338
 20
78.54991693677972
 30
0.0
 10
184.9125173997338
 20
78.54991693677972
 30
0.0
 10
187.1216563985045
 20
78.54991693677972
 30
0.0
 10
188.9125173987335
 20
76.75905593655068
 30
0.0
 10
188.9125173987335
 20
74.54991693778
 30
0.0
 10
188.9125173987335
 20
74.54991693778
 30
0.0
 10
188.9125173987335
 20
-28.69996774778024
 30
0.0
 10
188.9125173987335
 20
-28.69996774778024
 30
0.0
 10
188.9125173987335
 20
-30.90910674655092
 30
0.0
 10
187.1216563985045
 20
-32.69996774677998
 30
0.0
 10
184.9125173997338
 20
-32.69996774677998
 30
0.0
 10
184.9125173997338
 20
-32.69996774677998
 30
0.0
 10
35.27530498054523
 20
-32.69996774677998
 30
0.0
 10
35.27530498054523
 20
-32.69996774677998
 30
0.0
 10
34.17073548115989
 20
-32.69996774677998
 30
0.0
 10
33.27530498104505
 20
-31.80453724666512
 30
0.0
 10
33.27530498104505
 20
-30.69996774727979
 30
0.0
 10
33.27530498104505
 20
-30.69996774727979
 30
0.0
 10
33.27530498104505
 20
11.40003224219559
 30
0.0
 10
33.27530498104505
 20
11.40003224219559
 30
0.0
 10
33.27530498104505
 20
12.50460174158093
 30
0.0
 10
32.3798744809302
 20
13.40003224169578
 30
0.0
 10
31.27530498154486
 20
13.40003224169578
 30
0.0
 10
31.27530498154486
 20
13.40003224169578
 30
0.0
 10
25.75030498292648
 20
13.40003224169578
 30
0.0
 10
25.75030498292648
 20
13.40003224169578
 30
0.0
 10
24.64573548354114
 20
13.40003224169578
 30
0.0
 10
23.75030498342629
 20
14.29546274181063
 30
0.0
 10
23.75030498342629
 20
15.40003224119596
 30
0.0
 10
23.75030498342629
 20
15.40003224119596
 30
0.0
 10
23.75030498342629
 20
30.45003223743309
 30
0.0
 10
23.75030498342629
 20
30.45003223743309
 30
0.0
 10
23.75030498342629
 20
31.55460173681843
 30
0.0
 10
22.85487448331144
 20
32.45003223693327
 30
0.0
 10
21.75030498392611
 20
32.45003223693327
 30
0.0
 10
21.75030498392611
 20
32.45003223693327
 30
0.0
 10
20.9878049841171
 20
32.45003223693327
 30
0.0
 10
20.9878049841171
 20
32.45003223693327
 30
0.0
 10
19.88323548473177
 20
32.45003223693327
 30
0.0
 10
18.98780498461692
 20
33.34546273704812
 30
0.0
 10
18.98780498461692
 20
34.45003223643347
 30
0.0
 10
18.98780498461692
 20
34.45003223643347
 30
0.0
 10
18.98780498461692
 20
49.49991694404194
 30
0.0
 10
18.98780498461692
 20
49.49991694404194
 30
0.0
 10
18.98780498461692
 20
50.60448644342792
 30
0.0
 10
19.88323548473113
 20
51.49991694354213
 30
0.0
 10
20.9878049841171
 20
51.49991694354213
 30
0.0
 10
20.9878049841171
 20
51.49991694354213
 30
0.0
 10
26.51280498273548
 20
51.49991694354213
 30
0.0
 10
26.51280498273548
 20
51.49991694354213
 30
0.0
 10
27.61737448212146
 20
51.49991694354213
 30
0.0
 10
28.51280498223567
 20
52.39534744365633
 30
0.0
 10
28.51280498223567
 20
53.49991694304231
 30
0.0
 10
28.51280498223567
 20
53.49991694304231
 30
0.0
 10
28.51280498223567
 20
76.54991693728019
 30
0.0
 10
28.51280498223567
 20
76.54991693728019
 30
0.0
 10
28.51280498223567
 20
77.65448643666488
 30
0.0
 10
29.40823548234988
 20
78.54991693677972
 30
0.0
 10
30.51280498173586
 20
78.54991693677972
 30
0.0
  0
INSERT
  5
44
330
1F
100
AcDbEntity
  8
Layer 2
100
AcDbBlockReference
  2
block 2
 10
0.0
 20
0.0
 30
0.0
  0
INSERT
  5
4F
330
1F
100
AcDbEntity
  8
Layer 2
100
AcDbBlockReference
  2
block 3
 10
0.0
 20
0.0
 30
0.0
  0
INSERT
  5
5A
330
1F
100
AcDbEntity
  8
Layer 2
100
AcDbBlockReference
  2
block 4
 10
0.0
 20
0.0
 30
0.0
  0
INSERT
  5
65
330
1F
100
AcDbEntity
  8
Layer 2
100
AcDbBlockReference
  2
block 5
 10
0.0
 20
0.0
 30
0.0
  0
INSERT
  5
70
330
1F
100
AcDbEntity
  8
Layer 2
100
AcDbBlockReference
  2
block 6
 10
0.0
 20
0.0
 30
0.0
  0
INSERT
  5
7B
330
1F
100
AcDbEntity
  8
Layer 2
100
AcDbBlockReference
  2
block 7
 10
0.0
 20
0.0
 30
0.0
  0
INSERT
  5
86
330
1F
100
AcDbEntity
  8
Layer 2
100
AcDbBlockReference
  2
block 8
 10
0.0
 20
0.0
 30
0.0
  0
INSERT
  5
91
330
1F
100
AcDbEntity
  8
Layer 2
100
AcDbBlockReference
  2
block 9
 10
0.0
 20
0.0
 30
0.0
  0
INSERT
  5
9C
330
1F
100
AcDbEntity
  8
Layer 2
100
AcDbBlockReference
  2
block 10
 10
0.0
 20
0.0
 30
0.0
  0
INSERT
  5
A7
330
1F
100
AcDbEntity
  8
Layer 2
100
AcDbBlockReference
  2
block 11
 10
0.0
 20
0.0
 30
0.0
  0
INSERT
  5
B2
330
1F
100
AcDbEntity
  8
Layer 2
100
AcDbBlockReference
  2
block 12
 10
0.0
 20
0.0
 30
0.0
  0
INSERT
  5
BD
330
1F
100
AcDbEntity
  8
Layer 2
100
AcDbBlockReference
  2
block 13
 10
0.0
 20
0.0
 30
0.0
  0
INSERT
  5
C8
330
1F
100
AcDbEntity
  8
Layer 2
100
AcDbBlockReference
  2
block 14
 10
0.0
 20
0.0
 30
0.0
  0
INSERT
  5
D3
330
1F
100
AcDbEntity
  8
Layer 2
100
AcDbBlockReference
  2
block 15
 10
0.0
 20
0.0
 30
0.0
  0
INSERT
  5
DE
330
1F
100
AcDbEntity
  8
Layer 2
100
AcDbBlockReference
  2
block 16
 10
0.0
 20
0.0
 30
0.0
  0
INSERT
  5
E9
330
1F
100
AcDbEntity
  8
Layer 2
100
AcDbBlockReference
  2
block 17
 10
0.0
 20
0.0
 30
0.0
  0
INSERT
  5
F4
330
1F
100
AcDbEntity
  8
Layer 2
100
AcDbBlockReference
  2
block 18
 10
0.0
 20
0.0
 30
0.0
  0
INSERT
  5
FF
330
1F
100
AcDbEntity
  8
Layer 2
100
AcDbBlockReference
  2
block 19
 10
0.0
 20
0.0
 30
0.0
  0
INSERT
  5
10A
330
1F
100
AcDbEntity
  8
Layer 2
100
AcDbBlockReference
  2
block 20
 10
0.0
 20
0.0
 30
0.0
  0
INSERT
  5
115
330
1F
100
AcDbEntity
  8
Layer 2
100
AcDbBlockReference
  2
block 21
 10
0.0
 20
0.0
 30
0.0
  0
INSERT
  5
120
330
1F
100
AcDbEntity
  8
Layer 2
100
AcDbBlockReference
  2
block 22
 10
0.0
 20
0.0
 30
0.0
  0
INSERT
  5
12B
330
1F
100
AcDbEntity
  8
Layer 2
100
AcDbBlockReference
  2
block 23
 10
0.0
 20
0.0
 30
0.0
  0
INSERT
  5
136
330
1F
100
AcDbEntity
  8
Layer 2
100
AcDbBlockReference
  2
block 24
 10
0.0
 20
0.0
 30
0.0
  0
SPLINE
  5
140
330
1F
100
AcDbEntity
  8
Layer 2
 62
   195
420
  7949726
370
    25
100
AcDbSpline
210
0.0
220
0.0
230
1.0
 70
    11
 71
     3
 72
    17
 73
    13
 74
     0
 42
0.0000000001
 43
0.0000000001
 12
1.0
 22
0.0
 32
0.0
 13
1.0
 23
0.0
 33
0.0
 40
0.0
 40
0.0
 40
0.0
 40
0.0
 40
1.0
 40
1.0
 40
1.0
 40
2.0
 40
2.0
 40
2.0
 40
3.0
 40
3.0
 40
3.0
 40
4.0
 40
4.0
 40
4.0
 40
4.0
 10
111.8750497684876
 20
-28.70011538690235
 30
0.0
 10
111.8750497684876
 20
-29.30762861152934
 30
0.0
 10
111.3825629933908
 20
-29.80011538662742
 30
0.0
 10
110.7750497687625
 20
-29.80011538662742
 30
0.0
 10
110.1675365441343
 20
-29.80011538662742
 30
0.0
 10
109.6750497690375
 20
-29.30762861152934
 30
0.0
 10
109.6750497690375
 20
-28.70011538690235
 30
0.0
 10
109.6750497690375
 20
-28.09260216227407
 30
0.0
 10
110.1675365441343
 20
-27.60011538717728
 30
0.0
 10
110.7750497687625
 20
-27.60011538717728
 30
0.0
 10
111.3825629933908
 20
-27.60011538717728
 30
0.0
 10
111.8750497684876
 20
-28.09260216227407
 30
0.0
 10
111.8750497684876
 20
-28.70011538690235
 30
0.0
  0
SPLINE
  5
141
330
1F
100
AcDbEntity
  8
Layer 2
 62
   195
420
  7949726
370
    25
100
AcDbSpline
210
0.0
220
0.0
230
1.0
 70
    11
 71
     3
 72
    17
 73
    13
 74
     0
 42
0.0000000001
 43
0.0000000001
 12
1.0
 22
0.0
 32
0.0
 13
1.0
 23
0.0
 33
0.0
 40
0.0
 40
0.0
 40
0.0
 40
0.0
 40
1.0
 40
1.0
 40
1.0
 40
2.0
 40
2.0
 40
2.0
 40
3.0
 40
3.0
 40
3.0
 40
4.0
 40
4.0
 40
4.0
 40
4.0
 10
185.3125173996337
 20
73.84991693795483
 30
0.0
 10
185.3125173996337
 20
73.24240371332719
 30
0.0
 10
184.8200306245369
 20
72.74991693822976
 30
0.0
 10
184.2125173999086
 20
72.74991693822976
 30
0.0
 10
183.6050041752803
 20
72.74991693822976
 30
0.0
 10
183.1125174001835
 20
73.24240371332719
 30
0.0
 10
183.1125174001835
 20
73.84991693795483
 30
0.0
 10
183.1125174001835
 20
74.45743016258311
 30
0.0
 10
183.6050041752803
 20
74.9499169376799
 30
0.0
 10
184.2125173999086
 20
74.9499169376799
 30
0.0
 10
184.8200306245369
 20
74.9499169376799
 30
0.0
 10
185.3125173996337
 20
74.45743016258311
 30
0.0
 10
185.3125173996337
 20
73.84991693795483
 30
0.0
  0
SPLINE
  5
142
330
1F
100
AcDbEntity
  8
Layer 2
 62
   195
420
  7949726
370
    25
100
AcDbSpline
210
0.0
220
0.0
230
1.0
 70
    11
 71
     3
 72
    17
 73
    13
 74
     0
 42
0.0000000001
 43
0.0000000001
 12
1.0
 22
0.0
 32
0.0
 13
1.0
 23
0.0
 33
0.0
 40
0.0
 40
0.0
 40
0.0
 40
0.0
 40
1.0
 40
1.0
 40
1.0
 40
2.0
 40
2.0
 40
2.0
 40
3.0
 40
3.0
 40
3.0
 40
4.0
 40
4.0
 40
4.0
 40
4.0
 10
185.3125173996337
 20
-28.00008303658309
 30
0.0
 10
185.3125173996337
 20
-28.60759626121009
 30
0.0
 10
184.8200306245369
 20
-29.10008303630816
 30
0.0
 10
184.2125173999086
 20
-29.10008303630816
 30
0.0
 10
183.6050041752803
 20
-29.10008303630816
 30
0.0
 10
183.1125174001835
 20
-28.60759626121009
 30
0.0
 10
183.1125174001835
 20
-28.00008303658309
 30
0.0
 10
183.1125174001835
 20
-27.39256981195481
 30
0.0
 10
183.6050041752803
 20
-26.90008303685802
 30
0.0
 10
184.2125173999086
 20
-26.90008303685802
 30
0.0
 10
184.8200306245369
 20
-26.90008303685802
 30
0.0
 10
185.3125173996337
 20
-27.39256981195481
 30
0.0
 10
185.3125173996337
 20
-28.00008303658309
 30
0.0
  0
SPLINE
  5
143
330
1F
100
AcDbEntity
  8
Layer 2
 62
   195
420
  7949726
370
    25
100
AcDbSpline
210
0.0
220
0.0
230
1.0
 70
    11
 71
     3
 72
    17
 73
    13
 74
     0
 42
0.0000000001
 43
0.0000000001
 12
1.0
 22
0.0
 32
0.0
 13
1.0
 23
0.0
 33
0.0
 40
0.0
 40
0.0
 40
0.0
 40
0.0
 40
1.0
 40
1.0
 40
1.0
 40
2.0
 40
2.0
 40
2.0
 40
3.0
 40
3.0
 40
3.0
 40
4.0
 40
4.0
 40
4.0
 40
4.0
 10
33.6125174375582
 20
74.54994928827409
 30
0.0
 10
33.6125174375582
 20
73.94243606364645
 30
0.0
 10
33.1200306624614
 20
73.44994928854902
 30
0.0
 10
32.51251743783313
 20
73.44994928854902
 30
0.0
 10
31.90500421320485
 20
73.44994928854902
 30
0.0
 10
31.41251743810805
 20
73.94243606364645
 30
0.0
 10
31.41251743810805
 20
74.54994928827409
 30
0.0
 10
31.41251743810805
 20
75.15746251290237
 30
0.0
 10
31.90500421320485
 20
75.64994928799916
 30
0.0
 10
32.51251743783313
 20
75.64994928799916
 30
0.0
 10
33.1200306624614
 20
75.64994928799916
 30
0.0
 10
33.6125174375582
 20
75.15746251290237
 30
0.0
 10
33.6125174375582
 20
74.54994928827409
 30
0.0
  0
SPLINE
  5
144
330
1F
100
AcDbEntity
  8
Layer 2
 62
   195
420
  7949726
370
    25
100
AcDbSpline
210
0.0
220
0.0
230
1.0
 70
    11
 71
     3
 72
    17
 73
    13
 74
     0
 42
0.0000000001
 43
0.0000000001
 12
1.0
 22
0.0
 32
0.0
 13
1.0
 23
0.0
 33
0.0
 40
0.0
 40
0.0
 40
0.0
 40
0.0
 40
1.0
 40
1.0
 40
1.0
 40
2.0
 40
2.0
 40
2.0
 40
3.0
 40
3.0
 40
3.0
 40
4.0
 40
4.0
 40
4.0
 40
4.0
 10
57.63814227356596
 20
74.54994928827409
 30
0.0
 10
57.63814227356596
 20
73.94243606364645
 30
0.0
 10
57.14565549846917
 20
73.44994928854902
 30
0.0
 10
56.53814227384089
 20
73.44994928854902
 30
0.0
 10
55.93062904921261
 20
73.44994928854902
 30
0.0
 10
55.43814227411582
 20
73.94243606364645
 30
0.0
 10
55.43814227411582
 20
74.54994928827409
 30
0.0
 10
55.43814227411582
 20
75.15746251290237
 30
0.0
 10
55.93062904921261
 20
75.64994928799916
 30
0.0
 10
56.53814227384089
 20
75.64994928799916
 30
0.0
 10
57.14565549846917
 20
75.64994928799916
 30
0.0
 10
57.63814227356596
 20
75.15746251290237
 30
0.0
 10
57.63814227356596
 20
74.54994928827409
 30
0.0
  0
SPLINE
  5
145
330
1F
100
AcDbEntity
  8
Layer 2
 62
   195
420
  7949726
370
    25
100
AcDbSpline
210
0.0
220
0.0
230
1.0
 70
    11
 71
     3
 72
    17
 73
    13
 74
     0
 42
0.0000000001
 43
0.0000000001
 12
1.0
 22
0.0
 32
0.0
 13
1.0
 23
0.0
 33
0.0
 40
0.0
 40
0.0
 40
0.0
 40
0.0
 40
1.0
 40
1.0
 40
1.0
 40
2.0
 40
2.0
 40
2.0
 40
3.0
 40
3.0
 40
3.0
 40
4.0
 40
4.0
 40
4.0
 40
4.0
 10
132.8528127654902
 20
74.54994928827409
 30
0.0
 10
132.8528127654902
 20
73.94243606364581
 30
0.0
 10
132.3603259903934
 20
73.44994928854902
 30
0.0
 10
131.7528127657652
 20
73.44994928854902
 30
0.0
 10
131.1452995411369
 20
73.44994928854902
 30
0.0
 10
130.6528127660401
 20
73.94243606364581
 30
0.0
 10
130.6528127660401
 20
74.54994928827409
 30
0.0
 10
130.6528127660401
 20
75.15746251290237
 30
0.0
 10
131.1452995411369
 20
75.64994928799916
 30
0.0
 10
131.7528127657652
 20
75.64994928799916
 30
0.0
 10
132.3603259903934
 20
75.64994928799916
 30
0.0
 10
132.8528127654902
 20
75.15746251290237
 30
0.0
 10
132.8528127654902
 20
74.54994928827409
 30
0.0
  0
SPLINE
  5
146
330
1F
100
AcDbEntity
  8
Layer 2
 62
   195
420
  7949726
370
    25
100
AcDbSpline
210
0.0
220
0.0
230
1.0
 70
    11
 71
     3
 72
    17
 73
    13
 74
     0
 42
0.0000000001
 43
0.0000000001
 12
1.0
 22
0.0
 32
0.0
 13
1.0
 23
0.0
 33
0.0
 40
0.0
 40
0.0
 40
0.0
 40
0.0
 40
1.0
 40
1.0
 40
1.0
 40
2.0
 40
2.0
 40
2.0
 40
3.0
 40
3.0
 40
3.0
 40
4.0
 40
4.0
 40
4.0
 40
4.0
 10
154.9722366326507
 20
74.54994928827409
 30
0.0
 10
154.9722366326507
 20
73.94243606364581
 30
0.0
 10
154.4797498575539
 20
73.44994928854902
 30
0.0
 10
153.8722366329256
 20
73.44994928854902
 30
0.0
 10
153.2647234082973
 20
73.44994928854902
 30
0.0
 10
152.7722366332005
 20
73.94243606364581
 30
0.0
 10
152.7722366332005
 20
74.54994928827409
 30
0.0
 10
152.7722366332005
 20
75.15746251290237
 30
0.0
 10
153.2647234082973
 20
75.64994928799916
 30
0.0
 10
153.8722366329256
 20
75.64994928799916
 30
0.0
 10
154.4797498575539
 20
75.64994928799916
 30
0.0
 10
154.9722366326507
 20
75.15746251290237
 30
0.0
 10
154.9722366326507
 20
74.54994928827409
 30
0.0
  0
SPLINE
  5
147
330
1F
100
AcDbEntity
  8
Layer 2
 62
   195
420
  7949726
370
    25
100
AcDbSpline
210
0.0
220
0.0
230
1.0
 70
    11
 71
     3
 72
    17
 73
    13
 74
     0
 42
0.0000000001
 43
0.0000000001
 12
1.0
 22
0.0
 32
0.0
 13
1.0
 23
0.0
 33
0.0
 40
0.0
 40
0.0
 40
0.0
 40
0.0
 40
1.0
 40
1.0
 40
1.0
 40
2.0
 40
2.0
 40
2.0
 40
3.0
 40
3.0
 40
3.0
 40
4.0
 40
4.0
 40
4.0
 40
4.0
 10
38.37504978686231
 20
-28.70011538690235
 30
0.0
 10
38.37504978686231
 20
-29.30762861152934
 30
0.0
 10
37.88256301176551
 20
-29.80011538662742
 30
0.0
 10
37.27504978713723
 20
-29.80011538662742
 30
0.0
 10
36.66753656250896
 20
-29.80011538662742
 30
0.0
 10
36.17504978741216
 20
-29.30762861152934
 30
0.0
 10
36.17504978741216
 20
-28.70011538690235
 30
0.0
 10
36.17504978741216
 20
-28.09260216227407
 30
0.0
 10
36.66753656250896
 20
-27.60011538717728
 30
0.0
 10
37.27504978713723
 20
-27.60011538717728
 30
0.0
 10
37.88256301176551
 20
-27.60011538717728
 30
0.0
 10
38.37504978686231
 20
-28.09260216227407
 30
0.0
 10
38.37504978686231
 20
-28.70011538690235
 30
0.0
  0
INSERT
  5
149
330
1F
100
AcDbEntity
  8
Layer 2
100
AcDbBlockReference
  2
block 25
 10
0.0
 20
0.0
 30
0.0
  0
INSERT
  5
14E
330
1F
100
AcDbEntity
  8
Layer 2
100
AcDbBlockReference
  2
block 26
 10
0.0
 20
0.0
 30
0.0
  0
INSERT
  5
159
330
1F
100
AcDbEntity
  8
Layer 2
100
AcDbBlockReference
  2
block 27
 10
0.0
 20
0.0
 30
0.0
  0
INSERT
  5
164
330
1F
100
AcDbEntity
  8
Layer 2
100
AcDbBlockReference
  2
block 28
 10
0.0
 20
0.0
 30
0.0
  0
INSERT
  5
16F
330
1F
100
AcDbEntity
  8
Layer 2
100
AcDbBlockReference
  2
block 29
 10
0.0
 20
0.0
 30
0.0
  0
INSERT
  5
17A
330
1F
100
AcDbEntity
  8
Layer 2
100
AcDbBlockReference
  2
block 30
 10
0.0
 20
0.0
 30
0.0
  0
INSERT
  5
185
330
1F
100
AcDbEntity
  8
Layer 2
100
AcDbBlockReference
  2
block 31
 10
0.0
 20
0.0
 30
0.0
  0
INSERT
  5
190
330
1F
100
AcDbEntity
  8
Layer 2
100
AcDbBlockReference
  2
block 32
 10
0.0
 20
0.0
 30
0.0
  0
INSERT
  5
19B
330
1F
100
AcDbEntity
  8
Layer 2
100
AcDbBlockReference
  2
block 33
 10
0.0
 20
0.0
 30
0.0
  0
INSERT
  5
1A6
330
1F
100
AcDbEntity
  8
Layer 2
100
AcDbBlockReference
  2
block 34
 10
0.0
 20
0.0
 30
0.0
  0
INSERT
  5
1B1
330
1F
100
AcDbEntity
  8
Layer 2
100
AcDbBlockReference
  2
block 35
 10
0.0
 20
0.0
 30
0.0
  0
INSERT
  5
1BC
330
1F
100
AcDbEntity
  8
Layer 2
100
AcDbBlockReference
  2
block 36
 10
0.0
 20
0.0
 30
0.0
  0
INSERT
  5
1C7
330
1F
100
AcDbEntity
  8
Layer 2
100
AcDbBlockReference
  2
block 37
 10
0.0
 20
0.0
 30
0.0
  0
INSERT
  5
1D2
330
1F
100
AcDbEntity
  8
Layer 2
100
AcDbBlockReference
  2
block 38
 10
0.0
 20
0.0
 30
0.0
  0
INSERT
  5
1DD
330
1F
100
AcDbEntity
  8
Layer 2
100
AcDbBlockReference
  2
block 39
 10
0.0
 20
0.0
 30
0.0
  0
ENDSEC
  0
SECTION
  2
OBJECTS
  0
DICTIONARY
  5
C
330
0
100
AcDbDictionary
281
     1
  3
ACAD_GROUP
350
D
  3
ACAD_LAYOUT
350
1A
  3
ACAD_MATERIAL
350
3B
  3
ACAD_MLEADERSTYLE
350
1E8
  3
ACAD_MLINESTYLE
350
17
  3
ACAD_PLOTSETTINGS
350
19
  3
ACAD_PLOTSTYLENAME
350
E
  3
ACAD_TABLESTYLE
350
1E7
  3
ACAD_VISUALSTYLE
350
2A
  0
SUN
  5
3F
330
29
100
AcDbSun
 90
        1
290
     0
 63
     7
421
 16777215
 40
1.0
291
     1
 91
  2455826
 92
 54000000
292
     0
 70
     2
 71
   256
280
     1
  0
DICTIONARY
  5
D
102
{ACAD_REACTORS
330
C
102
}
330
C
100
AcDbDictionary
281
     1
  0
DICTIONARY
  5
1A
102
{ACAD_REACTORS
330
C
102
}
330
C
100
AcDbDictionary
281
     1
  3
Layout1
350
1E
  3
Layout2
350
26
  3
Model
350
22
  0
DICTIONARY
  5
3B
102
{ACAD_REACTORS
330
C
102
}
330
C
100
AcDbDictionary
281
     1
  3
ByBlock
350
3D
  3
ByLayer
350
3C
  3
Global
350
3E
  0
DICTIONARY
  5
1E8
102
{ACAD_REACTORS
330
C
102
}
330
C
100
AcDbDictionary
281
     1
  0
DICTIONARY
  5
17
102
{ACAD_REACTORS
330
C
102
}
330
C
100
AcDbDictionary
281
     1
  3
Standard
350
18
  0
DICTIONARY
  5
19
102
{ACAD_REACTORS
330
C
102
}
330
C
100
AcDbDictionary
281
     1
  0
ACDBDICTIONARYWDFLT
  5
E
102
{ACAD_REACTORS
330
C
102
}
330
C
100
AcDbDictionary
281
     1
  3
Normal
350
F
100
AcDbDictionaryWithDefault
340
F
  0
DICTIONARY
  5
1E7
102
{ACAD_REACTORS
330
C
102
}
330
C
100
AcDbDictionary
281
     1
  0
DICTIONARY
  5
2A
102
{ACAD_REACTORS
330
C
102
}
330
C
100
AcDbDictionary
281
     1
  3
2dWireframe
350
2F
  3
3D Hidden
350
31
  3
3dWireframe
350
30
  3
Basic
350
32
  3
Brighten
350
36
  3
ColorChange
350
3A
  3
Conceptual
350
34
  3
Dim
350
35
  3
Facepattern
350
39
  3
Flat
350
2B
  3
FlatWithEdges
350
2C
  3
Gouraud
350
2D
  3
GouraudWithEdges
350
2E
  3
Linepattern
350
38
  3
Realistic
350
33
  3
Thicken
350
37
  0
LAYOUT
  5
1E
102
{ACAD_REACTORS
330
1A
102
}
330
1A
100
AcDbPlotSettings
  1

  2
none_device
  4

  6

 40
0.0
 41
0.0
 42
0.0
 43
0.0
 44
0.0
 45
0.0
 46
0.0
 47
0.0
 48
0.0
 49
0.0
140
0.0
141
0.0
142
1.0
143
1.0
 70
   688
 72
     0
 73
     0
 74
     5
  7

 75
    16
 76
     0
 77
     2
 78
   300
147
1.0
148
0.0
149
0.0
100
AcDbLayout
  1
Layout1
 70
     1
 71
     1
 10
0.0
 20
0.0
 11
12.0
 21
9.0
 12
0.0
 22
0.0
 32
0.0
 14
1.000000000000000E+20
 24
1.000000000000000E+20
 34
1.000000000000000E+20
 15
-1.000000000000000E+20
 25
-1.000000000000000E+20
 35
-1.000000000000000E+20
146
0.0
 13
0.0
 23
0.0
 33
0.0
 16
1.0
 26
0.0
 36
0.0
 17
0.0
 27
1.0
 37
0.0
 76
     0
330
1B
  0
LAYOUT
  5
26
102
{ACAD_REACTORS
330
1A
102
}
330
1A
100
AcDbPlotSettings
  1

  2
none_device
  4

  6

 40
0.0
 41
0.0
 42
0.0
 43
0.0
 44
0.0
 45
0.0
 46
0.0
 47
0.0
 48
0.0
 49
0.0
140
0.0
141
0.0
142
1.0
143
1.0
 70
   688
 72
     0
 73
     0
 74
     5
  7

 75
    16
 76
     0
 77
     2
 78
   300
147
1.0
148
0.0
149
0.0
100
AcDbLayout
  1
Layout2
 70
     1
 71
     2
 10
0.0
 20
0.0
 11
0.0
 21
0.0
 12
0.0
 22
0.0
 32
0.0
 14
0.0
 24
0.0
 34
0.0
 15
0.0
 25
0.0
 35
0.0
146
0.0
 13
0.0
 23
0.0
 33
0.0
 16
1.0
 26
0.0
 36
0.0
 17
0.0
 27
1.0
 37
0.0
 76
     0
330
23
  0
LAYOUT
  5
22
102
{ACAD_REACTORS
330
1A
102
}
330
1A
100
AcDbPlotSettings
  1

  2
none_device
  4

  6

 40
0.0
 41
0.0
 42
0.0
 43
0.0
 44
0.0
 45
0.0
 46
0.0
 47
0.0
 48
0.0
 49
0.0
140
0.0
141
0.0
142
1.0
143
1.0
 70
  1712
 72
     0
 73
     0
 74
     0
  7

 75
     0
 76
     0
 77
     2
 78
   300
147
1.0
148
0.0
149
0.0
100
AcDbLayout
  1
Model
 70
     1
 71
     0
 10
0.0
 20
0.0
 11
12.0
 21
9.0
 12
0.0
 22
0.0
 32
0.0
 14
1.000000000000000E+20
 24
1.000000000000000E+20
 34
1.000000000000000E+20
 15
-1.000000000000000E+20
 25
-1.000000000000000E+20
 35
-1.000000000000000E+20
146
0.0
 13
0.0
 23
0.0
 33
0.0
 16
1.0
 26
0.0
 36
0.0
 17
0.0
 27
1.0
 37
0.0
 76
     0
330
1F
331
29
  0
MATERIAL
  5
3D
102
{ACAD_REACTORS
330
3B
102
}
330
3B
100
AcDbMaterial
  1
ByBlock
 72
     1
 94
      127
  0
MATERIAL
  5
3C
102
{ACAD_REACTORS
330
3B
102
}
330
3B
100
AcDbMaterial
  1
ByLayer
 72
     1
 94
      127
  0
MATERIAL
  5
3E
102
{ACAD_REACTORS
330
3B
102
}
330
3B
100
AcDbMaterial
  1
Global
 72
     1
 94
      127
  0
MLINESTYLE
  5
18
102
{ACAD_REACTORS
330
17
102
}
330
17
100
AcDbMlineStyle
  2
Standard
 70
     0
  3

 62
   256
 51
90.0
 52
90.0
 71
     2
 49
0.5
 62
   256
  6
BYLAYER
 49
-0.5
 62
   256
  6
BYLAYER
  0
ACDBPLACEHOLDER
  5
F
102
{ACAD_REACTORS
330
E
102
}
330
E
  0
VISUALSTYLE
  5
2F
102
{ACAD_REACTORS
330
2A
102
}
330
2A
100
AcDbVisualStyle
  2
2dWireframe
 70
     4
177
     2
291
     0
 71
     0
176
     1
 72
     2
176
     1
 73
     0
176
     1
 90
        0
176
     1
 40
-0.6
176
     1
 41
-30.0
176
     1
 62
     5
 63
     7
421
 16777215
176
     1
 74
     1
176
     1
 91
        4
176
     1
 64
     7
176
     1
 65
   257
176
     1
 75
     1
176
     1
175
     1
176
     1
 42
1.0
176
     1
 92
        0
176
     1
 66
   257
176
     1
 43
1.0
176
     1
 76
     1
176
     1
 77
     6
176
     1
 78
     2
176
     1
 67
     7
176
     1
 79
     5
176
     1
170
     0
176
     1
171
     0
176
     1
290
     0
176
     1
 93
        1
176
     1
 44
0.0
176
     1
173
     0
176
     1
  0
VISUALSTYLE
  5
31
102
{ACAD_REACTORS
330
2A
102
}
330
2A
100
AcDbVisualStyle
  2
3D Hidden
 70
     6
177
     2
291
     0
 71
     1
176
     1
 72
     2
176
     1
 73
     2
176
     1
 90
        0
176
     1
 40
-0.6
176
     1
 41
-30.0
176
     1
 62
     5
 63
     7
421
 16777215
176
     1
 74
     2
176
     1
 91
        2
176
     1
 64
     7
176
     1
 65
   257
176
     1
 75
     2
176
     1
175
     1
176
     1
 42
40.0
176
     1
 92
        0
176
     1
 66
   257
176
     1
 43
1.0
176
     1
 76
     1
176
     1
 77
     6
176
     1
 78
     2
176
     1
 67
     7
176
     1
 79
     3
176
     1
170
     0
176
     1
171
     0
176
     1
290
     0
176
     1
 93
        1
176
     1
 44
0.0
176
     1
173
     0
176
     1
  0
VISUALSTYLE
  5
30
102
{ACAD_REACTORS
330
2A
102
}
330
2A
100
AcDbVisualStyle
  2
3dWireframe
 70
     5
177
     2
291
     0
 71
     0
176
     1
 72
     2
176
     1
 73
     0
176
     1
 90
        0
176
     1
 40
-0.6
176
     1
 41
-30.0
176
     1
 62
     5
 63
     7
421
 16777215
176
     1
 74
     1
176
     1
 91
        4
176
     1
 64
     7
176
     1
 65
   257
176
     1
 75
     1
176
     1
175
     1
176
     1
 42
1.0
176
     1
 92
        0
176
     1
 66
   257
176
     1
 43
1.0
176
     1
 76
     1
176
     1
 77
     6
176
     1
 78
     2
176
     1
 67
     7
176
     1
 79
     5
176
     1
170
     0
176
     1
171
     0
176
     1
290
     0
176
     1
 93
        1
176
     1
 44
0.0
176
     1
173
     0
176
     1
  0
VISUALSTYLE
  5
32
102
{ACAD_REACTORS
330
2A
102
}
330
2A
100
AcDbVisualStyle
  2
Basic
 70
     7
177
     2
291
     1
 71
     1
176
     1
 72
     0
176
     1
 73
     1
176
     1
 90
        0
176
     1
 40
-0.6
176
     1
 41
-30.0
176
     1
 62
     5
 63
     7
421
 16777215
176
     1
 74
     0
176
     1
 91
        4
176
     1
 64
     7
176
     1
 65
   257
176
     1
 75
     1
176
     1
175
     1
176
     1
 42
1.0
176
     1
 92
        8
176
     1
 66
     7
176
     1
 43
1.0
176
     1
 76
     1
176
     1
 77
     6
176
     1
 78
     2
176
     1
 67
     7
176
     1
 79
     5
176
     1
170
     0
176
     1
171
     0
176
     1
290
     0
176
     1
 93
        1
176
     1
 44
0.0
176
     1
173
     0
176
     1
  0
VISUALSTYLE
  5
36
102
{ACAD_REACTORS
330
2A
102
}
330
2A
100
AcDbVisualStyle
  2
Brighten
 70
    12
177
     2
291
     1
 71
     2
176
     1
 72
     2
176
     1
 73
     0
176
     1
 90
        0
176
     1
 40
-0.6
176
     1
 41
-30.0
176
     1
 62
     5
 63
     7
421
 16777215
176
     1
 74
     1
176
     1
 91
        4
176
     1
 64
     7
176
     1
 65
   257
176
     1
 75
     1
176
     1
175
     1
176
     1
 42
1.0
176
     1
 92
        8
176
     1
 66
     7
176
     1
 43
1.0
176
     1
 76
     1
176
     1
 77
     6
176
     1
 78
     2
176
     1
 67
     7
176
     1
 79
     5
176
     1
170
     0
176
     1
171
     0
176
     1
290
     0
176
     1
 93
        1
176
     1
 44
50.0
176
     1
173
     0
176
     1
  0
VISUALSTYLE
  5
3A
102
{ACAD_REACTORS
330
2A
102
}
330
2A
100
AcDbVisualStyle
  2
ColorChange
 70
    16
177
     2
291
     1
 71
     2
176
     1
 72
     2
176
     1
 73
     3
176
     1
 90
        0
176
     1
 40
-0.6
176
     1
 41
-30.0
176
     1
 62
     5
 63
     8
421
  8421504
176
     1
 74
     1
176
     1
 91
        4
176
     1
 64
     7
176
     1
 65
   257
176
     1
 75
     1
176
     1
175
     1
176
     1
 42
1.0
176
     1
 92
        8
176
     1
 66
     8
424
  8421504
176
     1
 43
1.0
176
     1
 76
     1
176
     1
 77
     6
176
     1
 78
     2
176
     1
 67
     7
176
     1
 79
     5
176
     1
170
     0
176
     1
171
     0
176
     1
290
     0
176
     1
 93
        1
176
     1
 44
0.0
176
     1
173
     0
176
     1
  0
VISUALSTYLE
  5
34
102
{ACAD_REACTORS
330
2A
102
}
330
2A
100
AcDbVisualStyle
  2
Conceptual
 70
     9
177
     2
291
     0
 71
     3
176
     1
 72
     2
176
     1
 73
     0
176
     1
 90
        0
176
     1
 40
-0.6
176
     1
 41
-30.0
176
     1
 62
     5
 63
     7
421
 16777215
176
     1
 74
     2
176
     1
 91
        2
176
     1
 64
     7
176
     1
 65
   257
176
     1
 75
     1
176
     1
175
     1
176
     1
 42
40.0
176
     1
 92
        8
176
     1
 66
     7
176
     1
 43
1.0
176
     1
 76
     1
176
     1
 77
     6
176
     1
 78
     2
176
     1
 67
     7
176
     1
 79
     3
176
     1
170
     0
176
     1
171
     0
176
     1
290
     0
176
     1
 93
        1
176
     1
 44
0.0
176
     1
173
     0
176
     1
  0
VISUALSTYLE
  5
35
102
{ACAD_REACTORS
330
2A
102
}
330
2A
100
AcDbVisualStyle
  2
Dim
 70
    11
177
     2
291
     1
 71
     2
176
     1
 72
     2
176
     1
 73
     0
176
     1
 90
        0
176
     1
 40
-0.6
176
     1
 41
-30.0
176
     1
 62
     5
 63
     7
421
 16777215
176
     1
 74
     1
176
     1
 91
        4
176
     1
 64
     7
176
     1
 65
   257
176
     1
 75
     1
176
     1
175
     1
176
     1
 42
1.0
176
     1
 92
        8
176
     1
 66
     7
176
     1
 43
1.0
176
     1
 76
     1
176
     1
 77
     6
176
     1
 78
     2
176
     1
 67
     7
176
     1
 79
     5
176
     1
170
     0
176
     1
171
     0
176
     1
290
     0
176
     1
 93
        1
176
     1
 44
-50.0
176
     1
173
     0
176
     1
  0
VISUALSTYLE
  5
39
102
{ACAD_REACTORS
330
2A
102
}
330
2A
100
AcDbVisualStyle
  2
Facepattern
 70
    15
177
     2
291
     1
 71
     2
176
     1
 72
     2
176
     1
 73
     0
176
     1
 90
        0
176
     1
 40
-0.6
176
     1
 41
-30.0
176
     1
 62
     5
 63
     7
421
 16777215
176
     1
 74
     1
176
     1
 91
        4
176
     1
 64
     7
176
     1
 65
   257
176
     1
 75
     1
176
     1
175
     1
176
     1
 42
1.0
176
     1
 92
        8
176
     1
 66
     7
176
     1
 43
1.0
176
     1
 76
     1
176
     1
 77
     6
176
     1
 78
     2
176
     1
 67
     7
176
     1
 79
     5
176
     1
170
     0
176
     1
171
     0
176
     1
290
     0
176
     1
 93
        1
176
     1
 44
0.0
176
     1
173
     0
176
     1
  0
VISUALSTYLE
  5
2B
102
{ACAD_REACTORS
330
2A
102
}
330
2A
100
AcDbVisualStyle
  2
Flat
 70
     0
177
     2
291
     1
 71
     2
176
     1
 72
     1
176
     1
 73
     1
176
     1
 90
        2
176
     1
 40
-0.6
176
     1
 41
30.0
176
     1
 62
     5
 63
     7
421
 16777215
176
     1
 74
     0
176
     1
 91
        4
176
     1
 64
     7
176
     1
 65
   257
176
     1
 75
     1
176
     1
175
     1
176
     1
 42
1.0
176
     1
 92
        8
176
     1
 66
     7
176
     1
 43
1.0
176
     1
 76
     1
176
     1
 77
     6
176
     1
 78
     2
176
     1
 67
     7
176
     1
 79
     5
176
     1
170
     0
176
     1
171
     0
176
     1
290
     0
176
     1
 93
       13
176
     1
 44
0.0
176
     1
173
     0
176
     1
  0
VISUALSTYLE
  5
2C
102
{ACAD_REACTORS
330
2A
102
}
330
2A
100
AcDbVisualStyle
  2
FlatWithEdges
 70
     1
177
     2
291
     1
 71
     2
176
     1
 72
     1
176
     1
 73
     1
176
     1
 90
        2
176
     1
 40
-0.6
176
     1
 41
30.0
176
     1
 62
     5
 63
     7
421
 16777215
176
     1
 74
     1
176
     1
 91
        4
176
     1
 64
     7
176
     1
 65
   257
176
     1
 75
     1
176
     1
175
     1
176
     1
 42
1.0
176
     1
 92
        0
176
     1
 66
   257
176
     1
 43
1.0
176
     1
 76
     1
176
     1
 77
     6
176
     1
 78
     2
176
     1
 67
     7
176
     1
 79
     5
176
     1
170
     0
176
     1
171
     0
176
     1
290
     0
176
     1
 93
       13
176
     1
 44
0.0
176
     1
173
     0
176
     1
  0
VISUALSTYLE
  5
2D
102
{ACAD_REACTORS
330
2A
102
}
330
2A
100
AcDbVisualStyle
  2
Gouraud
 70
     2
177
     2
291
     1
 71
     2
176
     1
 72
     2
176
     1
 73
     1
176
     1
 90
        2
176
     1
 40
-0.6
176
     1
 41
30.0
176
     1
 62
     5
 63
     7
421
 16777215
176
     1
 74
     0
176
     1
 91
        4
176
     1
 64
     7
176
     1
 65
   257
176
     1
 75
     1
176
     1
175
     1
176
     1
 42
1.0
176
     1
 92
        0
176
     1
 66
     7
176
     1
 43
1.0
176
     1
 76
     1
176
     1
 77
     6
176
     1
 78
     2
176
     1
 67
     7
176
     1
 79
     5
176
     1
170
     0
176
     1
171
     0
176
     1
290
     0
176
     1
 93
       13
176
     1
 44
0.0
176
     1
173
     0
176
     1
  0
VISUALSTYLE
  5
2E
102
{ACAD_REACTORS
330
2A
102
}
330
2A
100
AcDbVisualStyle
  2
GouraudWithEdges
 70
     3
177
     2
291
     1
 71
     2
176
     1
 72
     2
176
     1
 73
     1
176
     1
 90
        2
176
     1
 40
-0.6
176
     1
 41
30.0
176
     1
 62
     5
 63
     7
421
 16777215
176
     1
 74
     1
176
     1
 91
        4
176
     1
 64
     7
176
     1
 65
   257
176
     1
 75
     1
176
     1
175
     1
176
     1
 42
1.0
176
     1
 92
        0
176
     1
 66
   257
176
     1
 43
1.0
176
     1
 76
     1
176
     1
 77
     6
176
     1
 78
     2
176
     1
 67
     7
176
     1
 79
     5
176
     1
170
     0
176
     1
171
     0
176
     1
290
     0
176
     1
 93
       13
176
     1
 44
0.0
176
     1
173
     0
176
     1
  0
VISUALSTYLE
  5
38
102
{ACAD_REACTORS
330
2A
102
}
330
2A
100
AcDbVisualStyle
  2
Linepattern
 70
    14
177
     2
291
     1
 71
     2
176
     1
 72
     2
176
     1
 73
     0
176
     1
 90
        0
176
     1
 40
-0.6
176
     1
 41
-30.0
176
     1
 62
     5
 63
     7
421
 16777215
176
     1
 74
     1
176
     1
 91
        4
176
     1
 64
     7
176
     1
 65
   257
176
     1
 75
     7
176
     1
175
     7
176
     1
 42
1.0
176
     1
 92
        8
176
     1
 66
     7
176
     1
 43
1.0
176
     1
 76
     1
176
     1
 77
     6
176
     1
 78
     2
176
     1
 67
     7
176
     1
 79
     5
176
     1
170
     0
176
     1
171
     0
176
     1
290
     0
176
     1
 93
        1
176
     1
 44
0.0
176
     1
173
     0
176
     1
  0
VISUALSTYLE
  5
33
102
{ACAD_REACTORS
330
2A
102
}
330
2A
100
AcDbVisualStyle
  2
Realistic
 70
     8
177
     2
291
     0
 71
     2
176
     1
 72
     2
176
     1
 73
     0
176
     1
 90
        0
176
     1
 40
-0.6
176
     1
 41
-30.0
176
     1
 62
     5
 63
     7
421
 16777215
176
     1
 74
     1
176
     1
 91
        0
176
     1
 64
     7
176
     1
 65
   257
176
     1
 75
     1
176
     1
175
     1
176
     1
 42
1.0
176
     1
 92
        8
176
     1
 66
     8
424
  7895160
176
     1
 43
1.0
176
     1
 76
     1
176
     1
 77
     6
176
     1
 78
     2
176
     1
 67
     7
176
     1
 79
     5
176
     1
170
     0
176
     1
171
     0
176
     1
290
     0
176
     1
 93
       13
176
     1
 44
0.0
176
     1
173
     0
176
     1
  0
VISUALSTYLE
  5
37
102
{ACAD_REACTORS
330
2A
102
}
330
2A
100
AcDbVisualStyle
  2
Thicken
 70
    13
177
     2
291
     1
 71
     2
176
     1
 72
     2
176
     1
 73
     0
176
     1
 90
        0
176
     1
 40
-0.6
176
     1
 41
-30.0
176
     1
 62
     5
 63
     7
421
 16777215
176
     1
 74
     1
176
     1
 91
        4
176
     1
 64
     7
176
     1
 65
   257
176
     1
 75
     1
176
     1
175
     1
176
     1
 42
1.0
176
     1
 92
       12
176
     1
 66
     7
176
     1
 43
1.0
176
     1
 76
     1
176
     1
 77
     6
176
     1
 78
     2
176
     1
 67
     7
176
     1
 79
     5
176
     1
170
     0
176
     1
171
     0
176
     1
290
     0
176
     1
 93
        1
176
     1
 44
0.0
176
     1
173
     0
176
     1
  0
ENDSEC
  0
EOF
