  0
SECTION
  2
HEADER
  9
$ACADVER
  1
AC1024
  9
$ACADMAINTVER
 70
     6
  9
$DWGCODEPAGE
  3
UNDEFINED
  9
$INSBASE
 10
0.0
 20
0.0
 30
0.0
  9
$EXTMIN
 10
1.000000000000000E+20
 20
1.000000000000000E+20
 30
1.000000000000000E+20
  9
$EXTMAX
 10
-1.000000000000000E+20
 20
-1.000000000000000E+20
 30
-1.000000000000000E+20
  9
$LIMMIN
 10
0.0
 20
0.0
  9
$LIMMAX
 10
12.0
 20
9.0
  9
$ORTHOMODE
 70
     0
  9
$REGENMODE
 70
     1
  9
$FILLMODE
 70
     1
  9
$QTEXTMODE
 70
     0
  9
$MIRRTEXT
 70
     1
  9
$LTSCALE
 40
1.0
  9
$ATTMODE
 70
     1
  9
$TEXTSIZE
 40
0.2
  9
$TRACEWID
 40
0.05
  9
$TEXTSTYLE
  7
Standard
  9
$CLAYER
  8
0
  9
$CELTYPE
  6
ByLayer
  9
$CECOLOR
 62
   256
  9
$CELTSCALE
 40
1.0
  9
$DISPSILH
 70
     0
  9
$DIMSCALE
 40
1.0
  9
$DIMASZ
 40
0.18
  9
$DIMEXO
 40
0.0625
  9
$DIMDLI
 40
0.38
  9
$DIMRND
 40
0.0
  9
$DIMDLE
 40
0.0
  9
$DIMEXE
 40
0.18
  9
$DIMTP
 40
0.0
  9
$DIMTM
 40
0.0
  9
$DIMTXT
 40
0.18
  9
$DIMCEN
 40
0.09
  9
$DIMTSZ
 40
0.0
  9
$DIMTOL
 70
     0
  9
$DIMLIM
 70
     0
  9
$DIMTIH
 70
     1
  9
$DIMTOH
 70
     1
  9
$DIMSE1
 70
     0
  9
$DIMSE2
 70
     0
  9
$DIMTAD
 70
     0
  9
$DIMZIN
 70
     0
  9
$DIMBLK
  1

  9
$DIMASO
 70
     1
  9
$DIMSHO
 70
     1
  9
$DIMPOST
  1

  9
$DIMAPOST
  1

  9
$DIMALT
 70
     0
  9
$DIMALTD
 70
     2
  9
$DIMALTF
 40
25.4
  9
$DIMLFAC
 40
1.0
  9
$DIMTOFL
 70
     0
  9
$DIMTVP
 40
0.0
  9
$DIMTIX
 70
     0
  9
$DIMSOXD
 70
     0
  9
$DIMSAH
 70
     0
  9
$DIMBLK1
  1

  9
$DIMBLK2
  1

  9
$DIMSTYLE
  2
Standard
  9
$DIMCLRD
 70
     0
  9
$DIMCLRE
 70
     0
  9
$DIMCLRT
 70
     0
  9
$DIMTFAC
 40
1.0
  9
$DIMGAP
 40
0.09
  9
$DIMJUST
 70
     0
  9
$DIMSD1
 70
     0
  9
$DIMSD2
 70
     0
  9
$DIMTOLJ
 70
     1
  9
$DIMTZIN
 70
     0
  9
$DIMALTZ
 70
     0
  9
$DIMALTTZ
 70
     0
  9
$DIMUPT
 70
     0
  9
$DIMDEC
 70
     4
  9
$DIMTDEC
 70
     4
  9
$DIMALTU
 70
     2
  9
$DIMALTTD
 70
     2
  9
$DIMTXSTY
  7
Standard
  9
$DIMAUNIT
 70
     0
  9
$DIMADEC
 70
     0
  9
$DIMALTRND
 40
0.0
  9
$DIMAZIN
 70
     0
  9
$DIMDSEP
 70
    46
  9
$DIMATFIT
 70
     3
  9
$DIMFRAC
 70
     0
  9
$DIMLDRBLK
  1

  9
$DIMLUNIT
 70
     2
  9
$DIMLWD
 70
    -2
  9
$DIMLWE
 70
    -2
  9
$DIMTMOVE
 70
     0
  9
$DIMFXL
 40
1.0
  9
$DIMFXLON
 70
     0
  9
$DIMJOGANG
 40
0.7853981633974483
  9
$DIMTFILL
 70
     0
  9
$DIMTFILLCLR
 70
     0
  9
$DIMARCSYM
 70
     0
  9
$DIMLTYPE
  6

  9
$DIMLTEX1
  6

  9
$DIMLTEX2
  6

  9
$DIMTXTDIRECTION
 70
     0
  9
$LUNITS
 70
     2
  9
$LUPREC
 70
     4
  9
$SKETCHINC
 40
0.1
  9
$FILLETRAD
 40
0.5
  9
$AUNITS
 70
     0
  9
$AUPREC
 70
     0
  9
$MENU
  1
.
  9
$ELEVATION
 40
0.0
  9
$PELEVATION
 40
0.0
  9
$THICKNESS
 40
0.0
  9
$LIMCHECK
 70
     0
  9
$CHAMFERA
 40
0.5
  9
$CHAMFERB
 40
0.5
  9
$CHAMFERC
 40
1.0
  9
$CHAMFERD
 40
0.0
  9
$SKPOLY
 70
     0
  9
$TDCREATE
 40
2459069.750671285
  9
$TDUCREATE
 40
2459069.959004629
  9
$TDUPDATE
 40
2459069.750671285
  9
$TDUUPDATE
 40
2459069.959004629
  9
$TDINDWG
 40
0.0000000116
  9
$TDUSRTIMER
 40
0.0000000116
  9
$USRTIMER
 70
     1
  9
$ANGBASE
 50
0.0
  9
$ANGDIR
 70
     0
  9
$PDMODE
 70
     0
  9
$PDSIZE
 40
0.0
  9
$PLINEWID
 40
0.0
  9
$SPLFRAME
 70
     0
  9
$SPLINETYPE
 70
     6
  9
$SPLINESEGS
 70
     8
  9
$HANDSEED
  5
13D
  9
$SURFTAB1
 70
     6
  9
$SURFTAB2
 70
     6
  9
$SURFTYPE
 70
     6
  9
$SURFU
 70
     6
  9
$SURFV
 70
     6
  9
$UCSBASE
  2

  9
$UCSNAME
  2

  9
$UCSORG
 10
0.0
 20
0.0
 30
0.0
  9
$UCSXDIR
 10
1.0
 20
0.0
 30
0.0
  9
$UCSYDIR
 10
0.0
 20
1.0
 30
0.0
  9
$UCSORTHOREF
  2

  9
$UCSORTHOVIEW
 70
     0
  9
$UCSORGTOP
 10
0.0
 20
0.0
 30
0.0
  9
$UCSORGBOTTOM
 10
0.0
 20
0.0
 30
0.0
  9
$UCSORGLEFT
 10
0.0
 20
0.0
 30
0.0
  9
$UCSORGRIGHT
 10
0.0
 20
0.0
 30
0.0
  9
$UCSORGFRONT
 10
0.0
 20
0.0
 30
0.0
  9
$UCSORGBACK
 10
0.0
 20
0.0
 30
0.0
  9
$PUCSBASE
  2

  9
$PUCSNAME
  2

  9
$PUCSORG
 10
0.0
 20
0.0
 30
0.0
  9
$PUCSXDIR
 10
1.0
 20
0.0
 30
0.0
  9
$PUCSYDIR
 10
0.0
 20
1.0
 30
0.0
  9
$PUCSORTHOREF
  2

  9
$PUCSORTHOVIEW
 70
     0
  9
$PUCSORGTOP
 10
0.0
 20
0.0
 30
0.0
  9
$PUCSORGBOTTOM
 10
0.0
 20
0.0
 30
0.0
  9
$PUCSORGLEFT
 10
0.0
 20
0.0
 30
0.0
  9
$PUCSORGRIGHT
 10
0.0
 20
0.0
 30
0.0
  9
$PUCSORGFRONT
 10
0.0
 20
0.0
 30
0.0
  9
$PUCSORGBACK
 10
0.0
 20
0.0
 30
0.0
  9
$USERI1
 70
     0
  9
$USERI2
 70
     0
  9
$USERI3
 70
     0
  9
$USERI4
 70
     0
  9
$USERI5
 70
     0
  9
$USERR1
 40
0.0
  9
$USERR2
 40
0.0
  9
$USERR3
 40
0.0
  9
$USERR4
 40
0.0
  9
$USERR5
 40
0.0
  9
$WORLDVIEW
 70
     1
  9
$SHADEDGE
 70
     3
  9
$SHADEDIF
 70
    70
  9
$TILEMODE
 70
     1
  9
$MAXACTVP
 70
    64
  9
$PINSBASE
 10
0.0
 20
0.0
 30
0.0
  9
$PLIMCHECK
 70
     0
  9
$PEXTMIN
 10
1.000000000000000E+20
 20
1.000000000000000E+20
 30
1.000000000000000E+20
  9
$PEXTMAX
 10
-1.000000000000000E+20
 20
-1.000000000000000E+20
 30
-1.000000000000000E+20
  9
$PLIMMIN
 10
0.0
 20
0.0
  9
$PLIMMAX
 10
12.0
 20
9.0
  9
$UNITMODE
 70
     0
  9
$VISRETAIN
 70
     1
  9
$PLINEGEN
 70
     0
  9
$PSLTSCALE
 70
     1
  9
$TREEDEPTH
 70
  3020
  9
$CMLSTYLE
  2
Standard
  9
$CMLJUST
 70
     0
  9
$CMLSCALE
 40
1.0
  9
$PROXYGRAPHICS
 70
     1
  9
$MEASUREMENT
 70
     0
  9
$CELWEIGHT
370
    -1
  9
$ENDCAPS
280
     0
  9
$JOINSTYLE
280
     0
  9
$LWDISPLAY
290
     1
  9
$INSUNITS
 70
     1
  9
$HYPERLINKBASE
  1

  9
$STYLESHEET
  1

  9
$XEDIT
290
     1
  9
$CEPSNTYPE
380
     0
  9
$PSTYLEMODE
290
     1
  9
$FINGERPRINTGUID
  2
{4D7D82C4-67BF-ED86-99DE-4F905C2F18D5}
  9
$VERSIONGUID
  2
{FAEB1C32-E019-11D5-929B-00C0DF256EC4}
  9
$EXTNAMES
290
     1
  9
$PSVPSCALE
 40
0.0
  9
$OLESTARTUP
290
     0
  9
$SORTENTS
280
   127
  9
$INDEXCTL
280
     0
  9
$HIDETEXT
280
     1
  9
$XCLIPFRAME
280
     2
  9
$HALOGAP
280
     0
  9
$OBSCOLOR
 70
   257
  9
$OBSLTYPE
280
     0
  9
$INTERSECTIONDISPLAY
280
     0
  9
$INTERSECTIONCOLOR
 70
   257
  9
$DIMASSOC
280
     2
  9
$PROJECTNAME
  1

  9
$CAMERADISPLAY
290
     0
  9
$LENSLENGTH
 40
50.0
  9
$CAMERAHEIGHT
 40
0.0
  9
$STEPSPERSEC
 40
2.0
  9
$STEPSIZE
 40
6.0
  9
$3DDWFPREC
 40
2.0
  9
$PSOLWIDTH
 40
0.25
  9
$PSOLHEIGHT
 40
4.0
  9
$LOFTANG1
 40
1.570796326794897
  9
$LOFTANG2
 40
1.570796326794897
  9
$LOFTMAG1
 40
0.0
  9
$LOFTMAG2
 40
0.0
  9
$LOFTPARAM
 70
     7
  9
$LOFTNORMALS
280
     1
  9
$LATITUDE
 40
37.795
  9
$LONGITUDE
 40
-122.394
  9
$NORTHDIRECTION
 40
0.0
  9
$TIMEZONE
 70
 -8000
  9
$LIGHTGLYPHDISPLAY
280
     1
  9
$TILEMODELIGHTSYNCH
280
     1
  9
$CMATERIAL
347
3C
  9
$SOLIDHIST
280
     1
  9
$SHOWHIST
280
     1
  9
$DWFFRAME
280
     2
  9
$DGNFRAME
280
     2
  9
$REALWORLDSCALE
290
     1
  9
$INTERFERECOLOR
 62
   256
  9
$CSHADOW
280
     0
  9
$SHADOWPLANELOCATION
 40
0.0
  0
ENDSEC
  0
SECTION
  2
CLASSES
  0
CLASS
  1
ACDBDICTIONARYWDFLT
  2
AcDbDictionaryWithDefault
  3
ObjectDBX Classes
 90
        0
 91
        4
280
     0
281
     0
  0
CLASS
  1
VISUALSTYLE
  2
AcDbVisualStyle
  3
ObjectDBX Classes
 90
     4095
 91
        4
280
     0
281
     0
  0
CLASS
  1
MATERIAL
  2
AcDbMaterial
  3
ObjectDBX Classes
 90
     1153
 91
        4
280
     0
281
     0
  0
CLASS
  1
SUN
  2
AcDbSun
  3
SCENEOE
 90
     1024
 91
        4
280
     0
281
     0
  0
ENDSEC
  0
SECTION
  2
TABLES
  0
TABLE
  2
VPORT
  5
8
330
0
100
AcDbSymbolTable
 70
     1
  0
VPORT
  5
29
330
8
100
AcDbSymbolTableRecord
100
AcDbViewportTableRecord
  2
*Active
 70
     0
 10
0.0
 20
0.0
 11
1.0
 21
1.0
 12
0.0
 22
0.0
 13
0.0
 23
0.0
 14
0.5
 24
0.5
 15
0.5
 25
0.5
 16
0.0
 26
0.0
 36
1.0
 17
149.9103302325682
 27
-150.3163546141994
 37
0.0
 40
111.4992367897363
 41
1.739808824161109
 42
50.0
 43
0.0
 44
0.0
 50
0.0
 51
0.0
 71
     0
 72
   100
 73
     1
 74
     3
 75
     0
 76
     0
 77
     0
 78
     0
281
     0
 65
     1
110
0.0
120
0.0
130
0.0
111
1.0
121
0.0
131
0.0
112
0.0
122
1.0
132
0.0
 79
     0
146
0.0
 60
     3
 61
     5
292
     1
282
     1
141
0.0
142
0.0
 63
   250
361
3F
  0
ENDTAB
  0
TABLE
  2
LTYPE
  5
5
330
0
100
AcDbSymbolTable
 70
     1
  0
LTYPE
  5
14
330
5
100
AcDbSymbolTableRecord
100
AcDbLinetypeTableRecord
  2
ByBlock
 70
     0
  3

 72
    65
 73
     0
 40
0.0
  0
LTYPE
  5
15
330
5
100
AcDbSymbolTableRecord
100
AcDbLinetypeTableRecord
  2
ByLayer
 70
     0
  3

 72
    65
 73
     0
 40
0.0
  0
LTYPE
  5
16
330
5
100
AcDbSymbolTableRecord
100
AcDbLinetypeTableRecord
  2
Continuous
 70
     0
  3
Solid line
 72
    65
 73
     0
 40
0.0
  0
ENDTAB
  0
TABLE
  2
LAYER
  5
2
330
0
100
AcDbSymbolTable
 70
     2
  0
LAYER
  5
10
330
2
100
AcDbSymbolTableRecord
100
AcDbLayerTableRecord
  2
0
 70
     0
 62
     7
  6
Continuous
370
    -3
390
F
347
3E
  0
LAYER
  5
40
330
2
100
AcDbSymbolTableRecord
100
AcDbLayerTableRecord
  2
Layer 1
 70
     0
 62
     7
  6
Continuous
370
    -3
390
F
347
3E
  0
ENDTAB
  0
TABLE
  2
STYLE
  5
3
330
0
100
AcDbSymbolTable
 70
     1
  0
STYLE
  5
11
330
3
100
AcDbSymbolTableRecord
100
AcDbTextStyleTableRecord
  2
Standard
 70
     0
 40
0.0
 41
1.0
 50
0.0
 71
     0
 42
0.2
  3
txt
  4

  0
ENDTAB
  0
TABLE
  2
VIEW
  5
6
330
0
100
AcDbSymbolTable
 70
     0
  0
ENDTAB
  0
TABLE
  2
UCS
  5
7
330
0
100
AcDbSymbolTable
 70
     0
  0
ENDTAB
  0
TABLE
  2
APPID
  5
9
330
0
100
AcDbSymbolTable
 70
     1
  0
APPID
  5
12
330
9
100
AcDbSymbolTableRecord
100
AcDbRegAppTableRecord
  2
ACAD
 70
     0
  0
ENDTAB
  0
TABLE
  2
DIMSTYLE
  5
A
330
0
100
AcDbSymbolTable
 70
     1
100
AcDbDimStyleTable
  0
DIMSTYLE
105
27
330
A
100
AcDbSymbolTableRecord
100
AcDbDimStyleTableRecord
  2
Standard
 70
     0
178
     0
340
11
  0
ENDTAB
  0
TABLE
  2
BLOCK_RECORD
  5
1
330
0
100
AcDbSymbolTable
 70
     2
  0
BLOCK_RECORD
  5
1F
330
1
100
AcDbSymbolTableRecord
100
AcDbBlockTableRecord
  2
*Model_Space
340
22
 70
     0
280
     1
281
     0
  0
BLOCK_RECORD
  5
1B
330
1
100
AcDbSymbolTableRecord
100
AcDbBlockTableRecord
  2
*Paper_Space
340
1E
 70
     0
280
     1
281
     0
  0
BLOCK_RECORD
  5
23
330
1
100
AcDbSymbolTableRecord
100
AcDbBlockTableRecord
  2
*Paper_Space0
340
26
 70
     0
280
     1
281
     0
  0
BLOCK_RECORD
  5
4A
330
1
100
AcDbSymbolTableRecord
100
AcDbBlockTableRecord
  2
block 2
340
0
102
{BLKREFS
331
4B
102
}
 70
     0
280
     1
281
     0
  0
ENDTAB
  0
ENDSEC
  0
SECTION
  2
BLOCKS
  0
BLOCK
  5
20
330
1F
100
AcDbEntity
  8
0
100
AcDbBlockBegin
  2
*Model_Space
 70
     0
 10
0.0
 20
0.0
 30
0.0
  3
*Model_Space
  1

  0
ENDBLK
  5
21
330
1F
100
AcDbEntity
  8
0
100
AcDbBlockEnd
  0
BLOCK
  5
1C
330
1B
100
AcDbEntity
 67
     1
  8
0
100
AcDbBlockBegin
  2
*Paper_Space
 70
     0
 10
0.0
 20
0.0
 30
0.0
  3
*Paper_Space
  1

  0
ENDBLK
  5
1D
330
1B
100
AcDbEntity
 67
     1
  8
0
100
AcDbBlockEnd
  0
BLOCK
  5
24
330
23
100
AcDbEntity
  8
0
100
AcDbBlockBegin
  2
*Paper_Space0
 70
     0
 10
0.0
 20
0.0
 30
0.0
  3
*Paper_Space0
  1

  0
ENDBLK
  5
25
330
23
100
AcDbEntity
  8
0
100
AcDbBlockEnd
  0
BLOCK
  5
4C
330
4A
100
AcDbEntity
  8
0
100
AcDbBlockBegin
  2
block 2
 70
     0
 10
0.0
 20
0.0
 30
0.0
  3
block 2
  1

  0
SPLINE
  5
4E
330
4A
100
AcDbEntity
  8
Layer 1
 62
   178
420
    65793
370
    25
100
AcDbSpline
210
0.0
220
0.0
230
1.0
 70
    11
 71
     3
 72
    53
 73
    49
 74
     0
 42
0.0000000001
 43
0.0000000001
 12
1.0
 22
0.0
 32
0.0
 13
1.0
 23
0.0
 33
0.0
 40
0.0
 40
0.0
 40
0.0
 40
0.0
 40
1.0
 40
1.0
 40
1.0
 40
2.0
 40
2.0
 40
2.0
 40
3.0
 40
3.0
 40
3.0
 40
4.0
 40
4.0
 40
4.0
 40
5.0
 40
5.0
 40
5.0
 40
6.0
 40
6.0
 40
6.0
 40
7.0
 40
7.0
 40
7.0
 40
8.0
 40
8.0
 40
8.0
 40
9.0
 40
9.0
 40
9.0
 40
10.0
 40
10.0
 40
10.0
 40
11.0
 40
11.0
 40
11.0
 40
12.0
 40
12.0
 40
12.0
 40
13.0
 40
13.0
 40
13.0
 40
14.0
 40
14.0
 40
14.0
 40
15.0
 40
15.0
 40
15.0
 40
16.0
 40
16.0
 40
16.0
 40
16.0
 10
185.0104034625017
 20
-195.416628654049
 30
0.0
 10
203.9645691257705
 20
-195.416628654049
 30
0.0
 10
222.9187347890393
 20
-195.416628654049
 30
0.0
 10
241.8729004523081
 20
-195.416628654049
 30
0.0
 10
241.8729004523081
 20
-195.416628654049
 30
0.0
 10
241.8729004523081
 20
-181.416628268132
 30
0.0
 10
241.8729004523081
 20
-181.416628268132
 30
0.0
 10
241.8729004523081
 20
-181.416628268132
 30
0.0
 10
240.7859100658994
 20
-181.416628268132
 30
0.0
 10
240.7859100658994
 20
-181.416628268132
 30
0.0
 10
240.7859100658994
 20
-181.416628268132
 30
0.0
 10
240.7859100658994
 20
-179.416628213001
 30
0.0
 10
240.7859100658994
 20
-179.416628213001
 30
0.0
 10
240.7859100658994
 20
-179.416628213001
 30
0.0
 10
233.7859098729409
 20
-179.416628213001
 30
0.0
 10
233.7859098729409
 20
-179.416628213001
 30
0.0
 10
233.7859098729409
 20
-179.416628213001
 30
0.0
 10
233.7859098729409
 20
-181.416628268132
 30
0.0
 10
233.7859098729409
 20
-181.416628268132
 30
0.0
 10
228.1817430517926
 20
-181.416628268132
 30
0.0
 10
222.5775762306442
 20
-181.416628268132
 30
0.0
 10
216.9734094094959
 20
-181.416628268132
 30
0.0
 10
216.9734094094959
 20
-181.416628268132
 30
0.0
 10
216.9734094094959
 20
-179.416628213001
 30
0.0
 10
216.9734094094959
 20
-179.416628213001
 30
0.0
 10
214.6189069845668
 20
-179.416628213001
 30
0.0
 10
212.2644045596377
 20
-179.416628213001
 30
0.0
 10
209.9099021347087
 20
-179.416628213001
 30
0.0
 10
209.9099021347087
 20
-179.416628213001
 30
0.0
 10
209.9099021347087
 20
-181.416628268132
 30
0.0
 10
209.9099021347087
 20
-181.416628268132
 30
0.0
 10
204.3057353135603
 20
-181.416628268132
 30
0.0
 10
198.701568492412
 20
-181.416628268132
 30
0.0
 10
193.0974016712637
 20
-181.416628268132
 30
0.0
 10
193.0974016712637
 20
-181.416628268132
 30
0.0
 10
193.0974016712637
 20
-179.416628213001
 30
0.0
 10
193.0974016712637
 20
-179.416628213001
 30
0.0
 10
193.0974016712637
 20
-179.416628213001
 30
0.0
 10
186.0974014783052
 20
-179.416628213001
 30
0.0
 10
186.0974014783052
 20
-179.416628213001
 30
0.0
 10
186.0974014783052
 20
-179.416628213001
 30
0.0
 10
186.0974014783052
 20
-181.416628268132
 30
0.0
 10
186.0974014783052
 20
-181.416628268132
 30
0.0
 10
186.0974014783052
 20
-181.416628268132
 30
0.0
 10
185.0104034625017
 20
-181.416628268132
 30
0.0
 10
185.0104034625017
 20
-181.416628268132
 30
0.0
 10
185.0104034625017
 20
-181.416628268132
 30
0.0
 10
185.0104034625017
 20
-195.416628654049
 30
0.0
 10
185.0104034625017
 20
-195.416628654049
 30
0.0
  0
SPLINE
  5
4F
330
4A
100
AcDbEntity
  8
Layer 1
 62
   178
420
    65793
370
    25
100
AcDbSpline
210
0.0
220
0.0
230
1.0
 70
    11
 71
     3
 72
    44
 73
    40
 74
     0
 42
0.0000000001
 43
0.0000000001
 12
1.0
 22
0.0
 32
0.0
 13
1.0
 23
0.0
 33
0.0
 40
0.0
 40
0.0
 40
0.0
 40
0.0
 40
1.0
 40
1.0
 40
1.0
 40
2.0
 40
2.0
 40
2.0
 40
3.0
 40
3.0
 40
3.0
 40
4.0
 40
4.0
 40
4.0
 40
5.0
 40
5.0
 40
5.0
 40
6.0
 40
6.0
 40
6.0
 40
7.0
 40
7.0
 40
7.0
 40
8.0
 40
8.0
 40
8.0
 40
9.0
 40
9.0
 40
9.0
 40
10.0
 40
10.0
 40
10.0
 40
11.0
 40
11.0
 40
11.0
 40
12.0
 40
12.0
 40
12.0
 40
13.0
 40
13.0
 40
13.0
 40
13.0
 10
123.0979032817312
 20
-176.3666327065631
 30
0.0
 10
128.2439046035963
 20
-176.3666327065631
 30
0.0
 10
133.3899059254614
 20
-176.3666327065631
 30
0.0
 10
138.5359072473266
 20
-176.3666327065631
 30
0.0
 10
138.5359072473266
 20
-176.3666327065631
 30
0.0
 10
138.5359072473266
 20
-178.3666327616941
 30
0.0
 10
138.5359072473266
 20
-178.3666327616941
 30
0.0
 10
138.5359072473266
 20
-178.3666327616941
 30
0.0
 10
145.5359074402851
 20
-178.3666327616941
 30
0.0
 10
145.5359074402851
 20
-178.3666327616941
 30
0.0
 10
145.5359074402851
 20
-178.3666327616941
 30
0.0
 10
145.5359074402851
 20
-176.3666327065631
 30
0.0
 10
145.5359074402851
 20
-176.3666327065631
 30
0.0
 10
145.5359074402851
 20
-176.3666327065631
 30
0.0
 10
149.00415399585
 20
-176.3666327065631
 30
0.0
 10
149.00415399585
 20
-176.3666327065631
 30
0.0
 10
149.00415399585
 20
-176.3666327065631
 30
0.0
 10
149.00415399585
 20
-162.3666323206461
 30
0.0
 10
149.00415399585
 20
-162.3666323206461
 30
0.0
 10
137.193736494997
 20
-162.3666323206461
 30
0.0
 10
125.3833189941439
 20
-162.3666323206461
 30
0.0
 10
113.5729014932909
 20
-162.3666323206461
 30
0.0
 10
113.5729014932909
 20
-162.3666323206461
 30
0.0
 10
113.5729014932909
 20
-176.3666327065631
 30
0.0
 10
113.5729014932909
 20
-176.3666327065631
 30
0.0
 10
113.5729014932909
 20
-176.3666327065631
 30
0.0
 10
114.6599033237917
 20
-176.3666327065631
 30
0.0
 10
114.6599033237917
 20
-176.3666327065631
 30
0.0
 10
114.6599033237917
 20
-176.3666327065631
 30
0.0
 10
114.6599033237917
 20
-178.3666327616941
 30
0.0
 10
114.6599033237917
 20
-178.3666327616941
 30
0.0
 10
114.6599033237917
 20
-178.3666327616941
 30
0.0
 10
121.6599035167502
 20
-178.3666327616941
 30
0.0
 10
121.6599035167502
 20
-178.3666327616941
 30
0.0
 10
121.6599035167502
 20
-178.3666327616941
 30
0.0
 10
121.6599035167502
 20
-176.3666327065631
 30
0.0
 10
121.6599035167502
 20
-176.3666327065631
 30
0.0
 10
121.6599035167502
 20
-176.3666327065631
 30
0.0
 10
123.0979032817312
 20
-176.3666327065631
 30
0.0
 10
123.0979032817312
 20
-176.3666327065631
 30
0.0
  0
SPLINE
  5
50
330
4A
100
AcDbEntity
  8
Layer 1
 62
   178
420
    65793
370
    25
100
AcDbSpline
210
0.0
220
0.0
230
1.0
 70
    11
 71
     3
 72
    17
 73
    13
 74
     0
 42
0.0000000001
 43
0.0000000001
 12
1.0
 22
0.0
 32
0.0
 13
1.0
 23
0.0
 33
0.0
 40
0.0
 40
0.0
 40
0.0
 40
0.0
 40
1.0
 40
1.0
 40
1.0
 40
2.0
 40
2.0
 40
2.0
 40
3.0
 40
3.0
 40
3.0
 40
4.0
 40
4.0
 40
4.0
 40
4.0
 10
113.5729014932909
 20
-157.3166291296824
 30
0.0
 10
119.8270698582357
 20
-157.3166291296824
 30
0.0
 10
126.0812382231806
 20
-157.3166291296824
 30
0.0
 10
132.3354065881254
 20
-157.3166291296824
 30
0.0
 10
132.3354065881254
 20
-157.3166291296824
 30
0.0
 10
132.3354065881254
 20
-143.316628743766
 30
0.0
 10
132.3354065881254
 20
-143.316628743766
 30
0.0
 10
126.0812382231806
 20
-143.316628743766
 30
0.0
 10
119.8270698582357
 20
-143.316628743766
 30
0.0
 10
113.5729014932909
 20
-143.316628743766
 30
0.0
 10
113.5729014932909
 20
-143.316628743766
 30
0.0
 10
113.5729014932909
 20
-157.3166291296824
 30
0.0
 10
113.5729014932909
 20
-157.3166291296824
 30
0.0
  0
POLYLINE
  5
51
330
4A
100
AcDbEntity
  8
Layer 1
 62
   178
420
    65793
370
    25
100
AcDb2dPolyline
 66
     1
 10
0.0
 20
0.0
 30
0.0
  0
VERTEX
  5
52
330
51
100
AcDbEntity
  8
Layer 1
 62
   178
420
    65793
370
    25
100
AcDbVertex
100
AcDb2dVertex
 10
63.56665164072249
 20
-120.716629646664
 30
0.0
  0
VERTEX
  5
53
330
51
100
AcDbEntity
  8
Layer 1
 62
   178
420
    65793
370
    25
100
AcDbVertex
100
AcDb2dVertex
 10
77.5666520266395
 20
-120.716629646664
 30
0.0
  0
VERTEX
  5
54
330
51
100
AcDbEntity
  8
Layer 1
 62
   178
420
    65793
370
    25
100
AcDbVertex
100
AcDb2dVertex
 10
77.5666520266395
 20
-104.2166291918332
 30
0.0
  0
VERTEX
  5
55
330
51
100
AcDbEntity
  8
Layer 1
 62
   178
420
    65793
370
    25
100
AcDbVertex
100
AcDb2dVertex
 10
63.56665164072249
 20
-104.2166291918332
 30
0.0
  0
VERTEX
  5
56
330
51
100
AcDbEntity
  8
Layer 1
 62
   178
420
    65793
370
    25
100
AcDbVertex
100
AcDb2dVertex
 10
63.56665164072249
 20
-120.716629646664
 30
0.0
  0
SEQEND
  5
57
330
51
100
AcDbEntity
  8
Layer 1
 62
   178
420
    65793
370
    25
  0
SPLINE
  5
58
330
4A
100
AcDbEntity
  8
Layer 1
 62
   178
420
    65793
370
    25
100
AcDbSpline
210
0.0
220
0.0
230
1.0
 70
    11
 71
     3
 72
    17
 73
    13
 74
     0
 42
0.0000000001
 43
0.0000000001
 12
1.0
 22
0.0
 32
0.0
 13
1.0
 23
0.0
 33
0.0
 40
0.0
 40
0.0
 40
0.0
 40
0.0
 40
1.0
 40
1.0
 40
1.0
 40
2.0
 40
2.0
 40
2.0
 40
3.0
 40
3.0
 40
3.0
 40
4.0
 40
4.0
 40
4.0
 40
4.0
 10
137.3854021496944
 20
-195.416628654049
 30
0.0
 10
142.8458184582538
 20
-195.416628654049
 30
0.0
 10
148.3062347668133
 20
-195.416628654049
 30
0.0
 10
153.7666510753731
 20
-195.416628654049
 30
0.0
 10
153.7666510753731
 20
-195.416628654049
 30
0.0
 10
153.7666510753731
 20
-181.416628268132
 30
0.0
 10
153.7666510753731
 20
-181.416628268132
 30
0.0
 10
148.3062347668133
 20
-181.416628268132
 30
0.0
 10
142.8458184582538
 20
-181.416628268132
 30
0.0
 10
137.3854021496944
 20
-181.416628268132
 30
0.0
 10
137.3854021496944
 20
-181.416628268132
 30
0.0
 10
137.3854021496944
 20
-195.416628654049
 30
0.0
 10
137.3854021496944
 20
-195.416628654049
 30
0.0
  0
SPLINE
  5
59
330
4A
100
AcDbEntity
  8
Layer 1
 62
   178
420
    65793
370
    25
100
AcDbSpline
210
0.0
220
0.0
230
1.0
 70
    11
 71
     3
 72
    17
 73
    13
 74
     0
 42
0.0000000001
 43
0.0000000001
 12
1.0
 22
0.0
 32
0.0
 13
1.0
 23
0.0
 33
0.0
 40
0.0
 40
0.0
 40
0.0
 40
0.0
 40
1.0
 40
1.0
 40
1.0
 40
2.0
 40
2.0
 40
2.0
 40
3.0
 40
3.0
 40
3.0
 40
4.0
 40
4.0
 40
4.0
 40
4.0
 10
161.1979028060982
 20
-195.416628654049
 30
0.0
 10
166.6583191146576
 20
-195.416628654049
 30
0.0
 10
172.1187354232171
 20
-195.416628654049
 30
0.0
 10
177.5791517317766
 20
-195.416628654049
 30
0.0
 10
177.5791517317766
 20
-195.416628654049
 30
0.0
 10
177.5791517317766
 20
-181.416628268132
 30
0.0
 10
177.5791517317766
 20
-181.416628268132
 30
0.0
 10
172.1187354232171
 20
-181.416628268132
 30
0.0
 10
166.6583191146576
 20
-181.416628268132
 30
0.0
 10
161.1979028060982
 20
-181.416628268132
 30
0.0
 10
161.1979028060982
 20
-181.416628268132
 30
0.0
 10
161.1979028060982
 20
-195.416628654049
 30
0.0
 10
161.1979028060982
 20
-195.416628654049
 30
0.0
  0
SPLINE
  5
5A
330
4A
100
AcDbEntity
  8
Layer 1
 62
   178
420
    65793
370
    25
100
AcDbSpline
210
0.0
220
0.0
230
1.0
 70
    11
 71
     3
 72
    17
 73
    13
 74
     0
 42
0.0000000001
 43
0.0000000001
 12
1.0
 22
0.0
 32
0.0
 13
1.0
 23
0.0
 33
0.0
 40
0.0
 40
0.0
 40
0.0
 40
0.0
 40
1.0
 40
1.0
 40
1.0
 40
2.0
 40
2.0
 40
2.0
 40
3.0
 40
3.0
 40
3.0
 40
4.0
 40
4.0
 40
4.0
 40
4.0
 10
113.5729014932909
 20
-195.416628654049
 30
0.0
 10
119.0333178018503
 20
-195.416628654049
 30
0.0
 10
124.4937341104098
 20
-195.416628654049
 30
0.0
 10
129.9541504189693
 20
-195.416628654049
 30
0.0
 10
129.9541504189693
 20
-195.416628654049
 30
0.0
 10
129.9541504189693
 20
-181.416628268132
 30
0.0
 10
129.9541504189693
 20
-181.416628268132
 30
0.0
 10
124.4937341104098
 20
-181.416628268132
 30
0.0
 10
119.0333178018503
 20
-181.416628268132
 30
0.0
 10
113.5729014932909
 20
-181.416628268132
 30
0.0
 10
113.5729014932909
 20
-181.416628268132
 30
0.0
 10
113.5729014932909
 20
-195.416628654049
 30
0.0
 10
113.5729014932909
 20
-195.416628654049
 30
0.0
  0
POLYLINE
  5
5B
330
4A
100
AcDbEntity
  8
Layer 1
 62
   178
420
    65793
370
    25
100
AcDb2dPolyline
 66
     1
 10
0.0
 20
0.0
 30
0.0
  0
VERTEX
  5
5C
330
5B
100
AcDbEntity
  8
Layer 1
 62
   178
420
    65793
370
    25
100
AcDbVertex
100
AcDb2dVertex
 10
82.6166514029058
 20
-119.2166296053157
 30
0.0
  0
VERTEX
  5
5D
330
5B
100
AcDbEntity
  8
Layer 1
 62
   178
420
    65793
370
    25
100
AcDbVertex
100
AcDb2dVertex
 10
96.61665178882282
 20
-119.2166296053157
 30
0.0
  0
VERTEX
  5
5E
330
5B
100
AcDbEntity
  8
Layer 1
 62
   178
420
    65793
370
    25
100
AcDbVertex
100
AcDb2dVertex
 10
96.61665178882282
 20
-105.2166292193987
 30
0.0
  0
VERTEX
  5
5F
330
5B
100
AcDbEntity
  8
Layer 1
 62
   178
420
    65793
370
    25
100
AcDbVertex
100
AcDb2dVertex
 10
82.6166514029058
 20
-105.2166292193987
 30
0.0
  0
VERTEX
  5
60
330
5B
100
AcDbEntity
  8
Layer 1
 62
   178
420
    65793
370
    25
100
AcDbVertex
100
AcDb2dVertex
 10
82.6166514029058
 20
-119.2166296053157
 30
0.0
  0
SEQEND
  5
61
330
5B
100
AcDbEntity
  8
Layer 1
 62
   178
420
    65793
370
    25
  0
POLYLINE
  5
62
330
4A
100
AcDbEntity
  8
Layer 1
 62
   178
420
    65793
370
    25
100
AcDb2dPolyline
 66
     1
 10
0.0
 20
0.0
 30
0.0
  0
VERTEX
  5
63
330
62
100
AcDbEntity
  8
Layer 1
 62
   178
420
    65793
370
    25
100
AcDbVertex
100
AcDb2dVertex
 10
111.1916529535295
 20
-119.2166296053157
 30
0.0
  0
VERTEX
  5
64
330
62
100
AcDbEntity
  8
Layer 1
 62
   178
420
    65793
370
    25
100
AcDbVertex
100
AcDb2dVertex
 10
125.1916533394465
 20
-119.2166296053157
 30
0.0
  0
VERTEX
  5
65
330
62
100
AcDbEntity
  8
Layer 1
 62
   178
420
    65793
370
    25
100
AcDbVertex
100
AcDb2dVertex
 10
125.1916533394465
 20
-105.2166292193987
 30
0.0
  0
VERTEX
  5
66
330
62
100
AcDbEntity
  8
Layer 1
 62
   178
420
    65793
370
    25
100
AcDbVertex
100
AcDb2dVertex
 10
111.1916529535295
 20
-105.2166292193987
 30
0.0
  0
VERTEX
  5
67
330
62
100
AcDbEntity
  8
Layer 1
 62
   178
420
    65793
370
    25
100
AcDbVertex
100
AcDb2dVertex
 10
111.1916529535295
 20
-119.2166296053157
 30
0.0
  0
SEQEND
  5
68
330
62
100
AcDbEntity
  8
Layer 1
 62
   178
420
    65793
370
    25
  0
POLYLINE
  5
69
330
4A
100
AcDbEntity
  8
Layer 1
 62
   178
420
    65793
370
    25
100
AcDb2dPolyline
 66
     1
 10
0.0
 20
0.0
 30
0.0
  0
VERTEX
  5
6A
330
69
100
AcDbEntity
  8
Layer 1
 62
   178
420
    65793
370
    25
100
AcDbVertex
100
AcDb2dVertex
 10
130.2416565304102
 20
-119.2166296053157
 30
0.0
  0
VERTEX
  5
6B
330
69
100
AcDbEntity
  8
Layer 1
 62
   178
420
    65793
370
    25
100
AcDbVertex
100
AcDb2dVertex
 10
144.2416569163272
 20
-119.2166296053157
 30
0.0
  0
VERTEX
  5
6C
330
69
100
AcDbEntity
  8
Layer 1
 62
   178
420
    65793
370
    25
100
AcDbVertex
100
AcDb2dVertex
 10
144.2416569163272
 20
-105.2166292193987
 30
0.0
  0
VERTEX
  5
6D
330
69
100
AcDbEntity
  8
Layer 1
 62
   178
420
    65793
370
    25
100
AcDbVertex
100
AcDb2dVertex
 10
130.2416565304102
 20
-105.2166292193987
 30
0.0
  0
VERTEX
  5
6E
330
69
100
AcDbEntity
  8
Layer 1
 62
   178
420
    65793
370
    25
100
AcDbVertex
100
AcDb2dVertex
 10
130.2416565304102
 20
-119.2166296053157
 30
0.0
  0
SEQEND
  5
6F
330
69
100
AcDbEntity
  8
Layer 1
 62
   178
420
    65793
370
    25
  0
POLYLINE
  5
70
330
4A
100
AcDbEntity
  8
Layer 1
 62
   178
420
    65793
370
    25
100
AcDb2dPolyline
 66
     1
 10
0.0
 20
0.0
 30
0.0
  0
VERTEX
  5
71
330
70
100
AcDbEntity
  8
Layer 1
 62
   178
420
    65793
370
    25
100
AcDbVertex
100
AcDb2dVertex
 10
149.2916524778961
 20
-119.2166296053157
 30
0.0
  0
VERTEX
  5
72
330
70
100
AcDbEntity
  8
Layer 1
 62
   178
420
    65793
370
    25
100
AcDbVertex
100
AcDb2dVertex
 10
163.2916528638135
 20
-119.2166296053157
 30
0.0
  0
VERTEX
  5
73
330
70
100
AcDbEntity
  8
Layer 1
 62
   178
420
    65793
370
    25
100
AcDbVertex
100
AcDb2dVertex
 10
163.2916528638135
 20
-105.2166292193987
 30
0.0
  0
VERTEX
  5
74
330
70
100
AcDbEntity
  8
Layer 1
 62
   178
420
    65793
370
    25
100
AcDbVertex
100
AcDb2dVertex
 10
149.2916524778961
 20
-105.2166292193987
 30
0.0
  0
VERTEX
  5
75
330
70
100
AcDbEntity
  8
Layer 1
 62
   178
420
    65793
370
    25
100
AcDbVertex
100
AcDb2dVertex
 10
149.2916524778961
 20
-119.2166296053157
 30
0.0
  0
SEQEND
  5
76
330
70
100
AcDbEntity
  8
Layer 1
 62
   178
420
    65793
370
    25
  0
POLYLINE
  5
77
330
4A
100
AcDbEntity
  8
Layer 1
 62
   178
420
    65793
370
    25
100
AcDb2dPolyline
 66
     1
 10
0.0
 20
0.0
 30
0.0
  0
VERTEX
  5
78
330
77
100
AcDbEntity
  8
Layer 1
 62
   178
420
    65793
370
    25
100
AcDbVertex
100
AcDb2dVertex
 10
168.3416560547771
 20
-119.2166296053157
 30
0.0
  0
VERTEX
  5
79
330
77
100
AcDbEntity
  8
Layer 1
 62
   178
420
    65793
370
    25
100
AcDbVertex
100
AcDb2dVertex
 10
182.3416564406941
 20
-119.2166296053157
 30
0.0
  0
VERTEX
  5
7A
330
77
100
AcDbEntity
  8
Layer 1
 62
   178
420
    65793
370
    25
100
AcDbVertex
100
AcDb2dVertex
 10
182.3416564406941
 20
-105.2166292193987
 30
0.0
  0
VERTEX
  5
7B
330
77
100
AcDbEntity
  8
Layer 1
 62
   178
420
    65793
370
    25
100
AcDbVertex
100
AcDb2dVertex
 10
168.3416560547771
 20
-105.2166292193987
 30
0.0
  0
VERTEX
  5
7C
330
77
100
AcDbEntity
  8
Layer 1
 62
   178
420
    65793
370
    25
100
AcDbVertex
100
AcDb2dVertex
 10
168.3416560547771
 20
-119.2166296053157
 30
0.0
  0
SEQEND
  5
7D
330
77
100
AcDbEntity
  8
Layer 1
 62
   178
420
    65793
370
    25
  0
POLYLINE
  5
7E
330
4A
100
AcDbEntity
  8
Layer 1
 62
   178
420
    65793
370
    25
100
AcDb2dPolyline
 66
     1
 10
0.0
 20
0.0
 30
0.0
  0
VERTEX
  5
7F
330
7E
100
AcDbEntity
  8
Layer 1
 62
   178
420
    65793
370
    25
100
AcDbVertex
100
AcDb2dVertex
 10
187.3916520022631
 20
-119.2166296053157
 30
0.0
  0
VERTEX
  5
80
330
7E
100
AcDbEntity
  8
Layer 1
 62
   178
420
    65793
370
    25
100
AcDbVertex
100
AcDb2dVertex
 10
201.3916523881801
 20
-119.2166296053157
 30
0.0
  0
VERTEX
  5
81
330
7E
100
AcDbEntity
  8
Layer 1
 62
   178
420
    65793
370
    25
100
AcDbVertex
100
AcDb2dVertex
 10
201.3916523881801
 20
-105.2166292193987
 30
0.0
  0
VERTEX
  5
82
330
7E
100
AcDbEntity
  8
Layer 1
 62
   178
420
    65793
370
    25
100
AcDbVertex
100
AcDb2dVertex
 10
187.3916520022631
 20
-105.2166292193987
 30
0.0
  0
VERTEX
  5
83
330
7E
100
AcDbEntity
  8
Layer 1
 62
   178
420
    65793
370
    25
100
AcDbVertex
100
AcDb2dVertex
 10
187.3916520022631
 20
-119.2166296053157
 30
0.0
  0
SEQEND
  5
84
330
7E
100
AcDbEntity
  8
Layer 1
 62
   178
420
    65793
370
    25
  0
POLYLINE
  5
85
330
4A
100
AcDbEntity
  8
Layer 1
 62
   178
420
    65793
370
    25
100
AcDb2dPolyline
 66
     1
 10
0.0
 20
0.0
 30
0.0
  0
VERTEX
  5
86
330
85
100
AcDbEntity
  8
Layer 1
 62
   178
420
    65793
370
    25
100
AcDbVertex
100
AcDb2dVertex
 10
206.4416555791438
 20
-119.2166296053157
 30
0.0
  0
VERTEX
  5
87
330
85
100
AcDbEntity
  8
Layer 1
 62
   178
420
    65793
370
    25
100
AcDbVertex
100
AcDb2dVertex
 10
220.4416559650608
 20
-119.2166296053157
 30
0.0
  0
VERTEX
  5
88
330
85
100
AcDbEntity
  8
Layer 1
 62
   178
420
    65793
370
    25
100
AcDbVertex
100
AcDb2dVertex
 10
220.4416559650608
 20
-105.2166292193987
 30
0.0
  0
VERTEX
  5
89
330
85
100
AcDbEntity
  8
Layer 1
 62
   178
420
    65793
370
    25
100
AcDbVertex
100
AcDb2dVertex
 10
206.4416555791438
 20
-105.2166292193987
 30
0.0
  0
VERTEX
  5
8A
330
85
100
AcDbEntity
  8
Layer 1
 62
   178
420
    65793
370
    25
100
AcDbVertex
100
AcDb2dVertex
 10
206.4416555791438
 20
-119.2166296053157
 30
0.0
  0
SEQEND
  5
8B
330
85
100
AcDbEntity
  8
Layer 1
 62
   178
420
    65793
370
    25
  0
POLYLINE
  5
8C
330
4A
100
AcDbEntity
  8
Layer 1
 62
   178
420
    65793
370
    25
100
AcDb2dPolyline
 66
     1
 10
0.0
 20
0.0
 30
0.0
  0
VERTEX
  5
8D
330
8C
100
AcDbEntity
  8
Layer 1
 62
   178
420
    65793
370
    25
100
AcDbVertex
100
AcDb2dVertex
 10
225.4916591560244
 20
-119.2166296053157
 30
0.0
  0
VERTEX
  5
8E
330
8C
100
AcDbEntity
  8
Layer 1
 62
   178
420
    65793
370
    25
100
AcDbVertex
100
AcDb2dVertex
 10
239.4916595419415
 20
-119.2166296053157
 30
0.0
  0
VERTEX
  5
8F
330
8C
100
AcDbEntity
  8
Layer 1
 62
   178
420
    65793
370
    25
100
AcDbVertex
100
AcDb2dVertex
 10
239.4916595419415
 20
-105.2166292193987
 30
0.0
  0
VERTEX
  5
90
330
8C
100
AcDbEntity
  8
Layer 1
 62
   178
420
    65793
370
    25
100
AcDbVertex
100
AcDb2dVertex
 10
225.4916591560244
 20
-105.2166292193987
 30
0.0
  0
VERTEX
  5
91
330
8C
100
AcDbEntity
  8
Layer 1
 62
   178
420
    65793
370
    25
100
AcDbVertex
100
AcDb2dVertex
 10
225.4916591560244
 20
-119.2166296053157
 30
0.0
  0
SEQEND
  5
92
330
8C
100
AcDbEntity
  8
Layer 1
 62
   178
420
    65793
370
    25
  0
POLYLINE
  5
93
330
4A
100
AcDbEntity
  8
Layer 1
 62
   178
420
    65793
370
    25
100
AcDb2dPolyline
 66
     1
 10
0.0
 20
0.0
 30
0.0
  0
VERTEX
  5
94
330
93
100
AcDbEntity
  8
Layer 1
 62
   178
420
    65793
370
    25
100
AcDbVertex
100
AcDb2dVertex
 10
63.56665164072249
 20
-138.2666293674988
 30
0.0
  0
VERTEX
  5
95
330
93
100
AcDbEntity
  8
Layer 1
 62
   178
420
    65793
370
    25
100
AcDbVertex
100
AcDb2dVertex
 10
77.5666520266395
 20
-138.2666293674988
 30
0.0
  0
VERTEX
  5
96
330
93
100
AcDbEntity
  8
Layer 1
 62
   178
420
    65793
370
    25
100
AcDbVertex
100
AcDb2dVertex
 10
77.5666520266395
 20
-124.266628981582
 30
0.0
  0
VERTEX
  5
97
330
93
100
AcDbEntity
  8
Layer 1
 62
   178
420
    65793
370
    25
100
AcDbVertex
100
AcDb2dVertex
 10
63.56665164072249
 20
-124.266628981582
 30
0.0
  0
VERTEX
  5
98
330
93
100
AcDbEntity
  8
Layer 1
 62
   178
420
    65793
370
    25
100
AcDbVertex
100
AcDb2dVertex
 10
63.56665164072249
 20
-138.2666293674988
 30
0.0
  0
SEQEND
  5
99
330
93
100
AcDbEntity
  8
Layer 1
 62
   178
420
    65793
370
    25
  0
POLYLINE
  5
9A
330
4A
100
AcDbEntity
  8
Layer 1
 62
   178
420
    65793
370
    25
100
AcDb2dPolyline
 66
     1
 10
0.0
 20
0.0
 30
0.0
  0
VERTEX
  5
9B
330
9A
100
AcDbEntity
  8
Layer 1
 62
   178
420
    65793
370
    25
100
AcDbVertex
100
AcDb2dVertex
 10
82.6166514029058
 20
-138.2666293674988
 30
0.0
  0
VERTEX
  5
9C
330
9A
100
AcDbEntity
  8
Layer 1
 62
   178
420
    65793
370
    25
100
AcDbVertex
100
AcDb2dVertex
 10
96.61665178882282
 20
-138.2666293674988
 30
0.0
  0
VERTEX
  5
9D
330
9A
100
AcDbEntity
  8
Layer 1
 62
   178
420
    65793
370
    25
100
AcDbVertex
100
AcDb2dVertex
 10
96.61665178882282
 20
-124.266628981582
 30
0.0
  0
VERTEX
  5
9E
330
9A
100
AcDbEntity
  8
Layer 1
 62
   178
420
    65793
370
    25
100
AcDbVertex
100
AcDb2dVertex
 10
82.6166514029058
 20
-124.266628981582
 30
0.0
  0
VERTEX
  5
9F
330
9A
100
AcDbEntity
  8
Layer 1
 62
   178
420
    65793
370
    25
100
AcDbVertex
100
AcDb2dVertex
 10
82.6166514029058
 20
-138.2666293674988
 30
0.0
  0
SEQEND
  5
A0
330
9A
100
AcDbEntity
  8
Layer 1
 62
   178
420
    65793
370
    25
  0
POLYLINE
  5
A1
330
4A
100
AcDbEntity
  8
Layer 1
 62
   178
420
    65793
370
    25
100
AcDb2dPolyline
 66
     1
 10
0.0
 20
0.0
 30
0.0
  0
VERTEX
  5
A2
330
A1
100
AcDbEntity
  8
Layer 1
 62
   178
420
    65793
370
    25
100
AcDbVertex
100
AcDb2dVertex
 10
139.7666506894558
 20
-138.2666293674988
 30
0.0
  0
VERTEX
  5
A3
330
A1
100
AcDbEntity
  8
Layer 1
 62
   178
420
    65793
370
    25
100
AcDbVertex
100
AcDb2dVertex
 10
153.7666510753731
 20
-138.2666293674988
 30
0.0
  0
VERTEX
  5
A4
330
A1
100
AcDbEntity
  8
Layer 1
 62
   178
420
    65793
370
    25
100
AcDbVertex
100
AcDb2dVertex
 10
153.7666510753731
 20
-124.266628981582
 30
0.0
  0
VERTEX
  5
A5
330
A1
100
AcDbEntity
  8
Layer 1
 62
   178
420
    65793
370
    25
100
AcDbVertex
100
AcDb2dVertex
 10
139.7666506894558
 20
-124.266628981582
 30
0.0
  0
VERTEX
  5
A6
330
A1
100
AcDbEntity
  8
Layer 1
 62
   178
420
    65793
370
    25
100
AcDbVertex
100
AcDb2dVertex
 10
139.7666506894558
 20
-138.2666293674988
 30
0.0
  0
SEQEND
  5
A7
330
A1
100
AcDbEntity
  8
Layer 1
 62
   178
420
    65793
370
    25
  0
POLYLINE
  5
A8
330
4A
100
AcDbEntity
  8
Layer 1
 62
   178
420
    65793
370
    25
100
AcDb2dPolyline
 66
     1
 10
0.0
 20
0.0
 30
0.0
  0
VERTEX
  5
A9
330
A8
100
AcDbEntity
  8
Layer 1
 62
   178
420
    65793
370
    25
100
AcDbVertex
100
AcDb2dVertex
 10
158.8166542663368
 20
-138.2666293674988
 30
0.0
  0
VERTEX
  5
AA
330
A8
100
AcDbEntity
  8
Layer 1
 62
   178
420
    65793
370
    25
100
AcDbVertex
100
AcDb2dVertex
 10
172.8166546522538
 20
-138.2666293674988
 30
0.0
  0
VERTEX
  5
AB
330
A8
100
AcDbEntity
  8
Layer 1
 62
   178
420
    65793
370
    25
100
AcDbVertex
100
AcDb2dVertex
 10
172.8166546522538
 20
-124.266628981582
 30
0.0
  0
VERTEX
  5
AC
330
A8
100
AcDbEntity
  8
Layer 1
 62
   178
420
    65793
370
    25
100
AcDbVertex
100
AcDb2dVertex
 10
158.8166542663368
 20
-124.266628981582
 30
0.0
  0
VERTEX
  5
AD
330
A8
100
AcDbEntity
  8
Layer 1
 62
   178
420
    65793
370
    25
100
AcDbVertex
100
AcDb2dVertex
 10
158.8166542663368
 20
-138.2666293674988
 30
0.0
  0
SEQEND
  5
AE
330
A8
100
AcDbEntity
  8
Layer 1
 62
   178
420
    65793
370
    25
  0
POLYLINE
  5
AF
330
4A
100
AcDbEntity
  8
Layer 1
 62
   178
420
    65793
370
    25
100
AcDb2dPolyline
 66
     1
 10
0.0
 20
0.0
 30
0.0
  0
VERTEX
  5
B0
330
AF
100
AcDbEntity
  8
Layer 1
 62
   178
420
    65793
370
    25
100
AcDbVertex
100
AcDb2dVertex
 10
196.9166614200982
 20
-138.2666293674988
 30
0.0
  0
VERTEX
  5
B1
330
AF
100
AcDbEntity
  8
Layer 1
 62
   178
420
    65793
370
    25
100
AcDbVertex
100
AcDb2dVertex
 10
210.9166618060152
 20
-138.2666293674988
 30
0.0
  0
VERTEX
  5
B2
330
AF
100
AcDbEntity
  8
Layer 1
 62
   178
420
    65793
370
    25
100
AcDbVertex
100
AcDb2dVertex
 10
210.9166618060152
 20
-124.266628981582
 30
0.0
  0
VERTEX
  5
B3
330
AF
100
AcDbEntity
  8
Layer 1
 62
   178
420
    65793
370
    25
100
AcDbVertex
100
AcDb2dVertex
 10
196.9166614200982
 20
-124.266628981582
 30
0.0
  0
VERTEX
  5
B4
330
AF
100
AcDbEntity
  8
Layer 1
 62
   178
420
    65793
370
    25
100
AcDbVertex
100
AcDb2dVertex
 10
196.9166614200982
 20
-138.2666293674988
 30
0.0
  0
SEQEND
  5
B5
330
AF
100
AcDbEntity
  8
Layer 1
 62
   178
420
    65793
370
    25
  0
POLYLINE
  5
B6
330
4A
100
AcDbEntity
  8
Layer 1
 62
   178
420
    65793
370
    25
100
AcDb2dPolyline
 66
     1
 10
0.0
 20
0.0
 30
0.0
  0
VERTEX
  5
B7
330
B6
100
AcDbEntity
  8
Layer 1
 62
   178
420
    65793
370
    25
100
AcDbVertex
100
AcDb2dVertex
 10
215.9666497381893
 20
-138.2666293674988
 30
0.0
  0
VERTEX
  5
B8
330
B6
100
AcDbEntity
  8
Layer 1
 62
   178
420
    65793
370
    25
100
AcDbVertex
100
AcDb2dVertex
 10
229.9666501241064
 20
-138.2666293674988
 30
0.0
  0
VERTEX
  5
B9
330
B6
100
AcDbEntity
  8
Layer 1
 62
   178
420
    65793
370
    25
100
AcDbVertex
100
AcDb2dVertex
 10
229.9666501241064
 20
-124.266628981582
 30
0.0
  0
VERTEX
  5
BA
330
B6
100
AcDbEntity
  8
Layer 1
 62
   178
420
    65793
370
    25
100
AcDbVertex
100
AcDb2dVertex
 10
215.9666497381893
 20
-124.266628981582
 30
0.0
  0
VERTEX
  5
BB
330
B6
100
AcDbEntity
  8
Layer 1
 62
   178
420
    65793
370
    25
100
AcDbVertex
100
AcDb2dVertex
 10
215.9666497381893
 20
-138.2666293674988
 30
0.0
  0
SEQEND
  5
BC
330
B6
100
AcDbEntity
  8
Layer 1
 62
   178
420
    65793
370
    25
  0
POLYLINE
  5
BD
330
4A
100
AcDbEntity
  8
Layer 1
 62
   178
420
    65793
370
    25
100
AcDb2dPolyline
 66
     1
 10
0.0
 20
0.0
 30
0.0
  0
VERTEX
  5
BE
330
BD
100
AcDbEntity
  8
Layer 1
 62
   178
420
    65793
370
    25
100
AcDbVertex
100
AcDb2dVertex
 10
63.56665164072249
 20
-157.3166291296824
 30
0.0
  0
VERTEX
  5
BF
330
BD
100
AcDbEntity
  8
Layer 1
 62
   178
420
    65793
370
    25
100
AcDbVertex
100
AcDb2dVertex
 10
77.5666520266395
 20
-157.3166291296824
 30
0.0
  0
VERTEX
  5
C0
330
BD
100
AcDbEntity
  8
Layer 1
 62
   178
420
    65793
370
    25
100
AcDbVertex
100
AcDb2dVertex
 10
77.5666520266395
 20
-143.316628743766
 30
0.0
  0
VERTEX
  5
C1
330
BD
100
AcDbEntity
  8
Layer 1
 62
   178
420
    65793
370
    25
100
AcDbVertex
100
AcDb2dVertex
 10
63.56665164072249
 20
-143.316628743766
 30
0.0
  0
VERTEX
  5
C2
330
BD
100
AcDbEntity
  8
Layer 1
 62
   178
420
    65793
370
    25
100
AcDbVertex
100
AcDb2dVertex
 10
63.56665164072249
 20
-157.3166291296824
 30
0.0
  0
SEQEND
  5
C3
330
BD
100
AcDbEntity
  8
Layer 1
 62
   178
420
    65793
370
    25
  0
POLYLINE
  5
C4
330
4A
100
AcDbEntity
  8
Layer 1
 62
   178
420
    65793
370
    25
100
AcDb2dPolyline
 66
     1
 10
0.0
 20
0.0
 30
0.0
  0
VERTEX
  5
C5
330
C4
100
AcDbEntity
  8
Layer 1
 62
   178
420
    65793
370
    25
100
AcDbVertex
100
AcDb2dVertex
 10
82.6166514029058
 20
-157.3166291296824
 30
0.0
  0
VERTEX
  5
C6
330
C4
100
AcDbEntity
  8
Layer 1
 62
   178
420
    65793
370
    25
100
AcDbVertex
100
AcDb2dVertex
 10
96.61665178882282
 20
-157.3166291296824
 30
0.0
  0
VERTEX
  5
C7
330
C4
100
AcDbEntity
  8
Layer 1
 62
   178
420
    65793
370
    25
100
AcDbVertex
100
AcDb2dVertex
 10
96.61665178882282
 20
-143.316628743766
 30
0.0
  0
VERTEX
  5
C8
330
C4
100
AcDbEntity
  8
Layer 1
 62
   178
420
    65793
370
    25
100
AcDbVertex
100
AcDb2dVertex
 10
82.6166514029058
 20
-143.316628743766
 30
0.0
  0
VERTEX
  5
C9
330
C4
100
AcDbEntity
  8
Layer 1
 62
   178
420
    65793
370
    25
100
AcDbVertex
100
AcDb2dVertex
 10
82.6166514029058
 20
-157.3166291296824
 30
0.0
  0
SEQEND
  5
CA
330
C4
100
AcDbEntity
  8
Layer 1
 62
   178
420
    65793
370
    25
  0
POLYLINE
  5
CB
330
4A
100
AcDbEntity
  8
Layer 1
 62
   178
420
    65793
370
    25
100
AcDb2dPolyline
 66
     1
 10
0.0
 20
0.0
 30
0.0
  0
VERTEX
  5
CC
330
CB
100
AcDbEntity
  8
Layer 1
 62
   178
420
    65793
370
    25
100
AcDbVertex
100
AcDb2dVertex
 10
144.5291553983733
 20
-157.3166291296824
 30
0.0
  0
VERTEX
  5
CD
330
CB
100
AcDbEntity
  8
Layer 1
 62
   178
420
    65793
370
    25
100
AcDbVertex
100
AcDb2dVertex
 10
158.5291557842907
 20
-157.3166291296824
 30
0.0
  0
VERTEX
  5
CE
330
CB
100
AcDbEntity
  8
Layer 1
 62
   178
420
    65793
370
    25
100
AcDbVertex
100
AcDb2dVertex
 10
158.5291557842907
 20
-143.316628743766
 30
0.0
  0
VERTEX
  5
CF
330
CB
100
AcDbEntity
  8
Layer 1
 62
   178
420
    65793
370
    25
100
AcDbVertex
100
AcDb2dVertex
 10
144.5291553983733
 20
-143.316628743766
 30
0.0
  0
VERTEX
  5
D0
330
CB
100
AcDbEntity
  8
Layer 1
 62
   178
420
    65793
370
    25
100
AcDbVertex
100
AcDb2dVertex
 10
144.5291553983733
 20
-157.3166291296824
 30
0.0
  0
SEQEND
  5
D1
330
CB
100
AcDbEntity
  8
Layer 1
 62
   178
420
    65793
370
    25
  0
POLYLINE
  5
D2
330
4A
100
AcDbEntity
  8
Layer 1
 62
   178
420
    65793
370
    25
100
AcDb2dPolyline
 66
     1
 10
0.0
 20
0.0
 30
0.0
  0
VERTEX
  5
D3
330
D2
100
AcDbEntity
  8
Layer 1
 62
   178
420
    65793
370
    25
100
AcDbVertex
100
AcDb2dVertex
 10
163.5791513458596
 20
-157.3166291296824
 30
0.0
  0
VERTEX
  5
D4
330
D2
100
AcDbEntity
  8
Layer 1
 62
   178
420
    65793
370
    25
100
AcDbVertex
100
AcDb2dVertex
 10
177.5791517317766
 20
-157.3166291296824
 30
0.0
  0
VERTEX
  5
D5
330
D2
100
AcDbEntity
  8
Layer 1
 62
   178
420
    65793
370
    25
100
AcDbVertex
100
AcDb2dVertex
 10
177.5791517317766
 20
-143.316628743766
 30
0.0
  0
VERTEX
  5
D6
330
D2
100
AcDbEntity
  8
Layer 1
 62
   178
420
    65793
370
    25
100
AcDbVertex
100
AcDb2dVertex
 10
163.5791513458596
 20
-143.316628743766
 30
0.0
  0
VERTEX
  5
D7
330
D2
100
AcDbEntity
  8
Layer 1
 62
   178
420
    65793
370
    25
100
AcDbVertex
100
AcDb2dVertex
 10
163.5791513458596
 20
-157.3166291296824
 30
0.0
  0
SEQEND
  5
D8
330
D2
100
AcDbEntity
  8
Layer 1
 62
   178
420
    65793
370
    25
  0
POLYLINE
  5
D9
330
4A
100
AcDbEntity
  8
Layer 1
 62
   178
420
    65793
370
    25
100
AcDb2dPolyline
 66
     1
 10
0.0
 20
0.0
 30
0.0
  0
VERTEX
  5
DA
330
D9
100
AcDbEntity
  8
Layer 1
 62
   178
420
    65793
370
    25
100
AcDbVertex
100
AcDb2dVertex
 10
182.6291549227403
 20
-157.3166291296824
 30
0.0
  0
VERTEX
  5
DB
330
D9
100
AcDbEntity
  8
Layer 1
 62
   178
420
    65793
370
    25
100
AcDbVertex
100
AcDb2dVertex
 10
196.6291553086573
 20
-157.3166291296824
 30
0.0
  0
VERTEX
  5
DC
330
D9
100
AcDbEntity
  8
Layer 1
 62
   178
420
    65793
370
    25
100
AcDbVertex
100
AcDb2dVertex
 10
196.6291553086573
 20
-143.316628743766
 30
0.0
  0
VERTEX
  5
DD
330
D9
100
AcDbEntity
  8
Layer 1
 62
   178
420
    65793
370
    25
100
AcDbVertex
100
AcDb2dVertex
 10
182.6291549227403
 20
-143.316628743766
 30
0.0
  0
VERTEX
  5
DE
330
D9
100
AcDbEntity
  8
Layer 1
 62
   178
420
    65793
370
    25
100
AcDbVertex
100
AcDb2dVertex
 10
182.6291549227403
 20
-157.3166291296824
 30
0.0
  0
SEQEND
  5
DF
330
D9
100
AcDbEntity
  8
Layer 1
 62
   178
420
    65793
370
    25
  0
POLYLINE
  5
E0
330
4A
100
AcDbEntity
  8
Layer 1
 62
   178
420
    65793
370
    25
100
AcDb2dPolyline
 66
     1
 10
0.0
 20
0.0
 30
0.0
  0
VERTEX
  5
E1
330
E0
100
AcDbEntity
  8
Layer 1
 62
   178
420
    65793
370
    25
100
AcDbVertex
100
AcDb2dVertex
 10
201.679158499621
 20
-157.3166291296824
 30
0.0
  0
VERTEX
  5
E2
330
E0
100
AcDbEntity
  8
Layer 1
 62
   178
420
    65793
370
    25
100
AcDbVertex
100
AcDb2dVertex
 10
215.679158885538
 20
-157.3166291296824
 30
0.0
  0
VERTEX
  5
E3
330
E0
100
AcDbEntity
  8
Layer 1
 62
   178
420
    65793
370
    25
100
AcDbVertex
100
AcDb2dVertex
 10
215.679158885538
 20
-143.316628743766
 30
0.0
  0
VERTEX
  5
E4
330
E0
100
AcDbEntity
  8
Layer 1
 62
   178
420
    65793
370
    25
100
AcDbVertex
100
AcDb2dVertex
 10
201.679158499621
 20
-143.316628743766
 30
0.0
  0
VERTEX
  5
E5
330
E0
100
AcDbEntity
  8
Layer 1
 62
   178
420
    65793
370
    25
100
AcDbVertex
100
AcDb2dVertex
 10
201.679158499621
 20
-157.3166291296824
 30
0.0
  0
SEQEND
  5
E6
330
E0
100
AcDbEntity
  8
Layer 1
 62
   178
420
    65793
370
    25
  0
POLYLINE
  5
E7
330
4A
100
AcDbEntity
  8
Layer 1
 62
   178
420
    65793
370
    25
100
AcDb2dPolyline
 66
     1
 10
0.0
 20
0.0
 30
0.0
  0
VERTEX
  5
E8
330
E7
100
AcDbEntity
  8
Layer 1
 62
   178
420
    65793
370
    25
100
AcDbVertex
100
AcDb2dVertex
 10
220.7291620765016
 20
-157.3166291296824
 30
0.0
  0
VERTEX
  5
E9
330
E7
100
AcDbEntity
  8
Layer 1
 62
   178
420
    65793
370
    25
100
AcDbVertex
100
AcDb2dVertex
 10
234.7291624624187
 20
-157.3166291296824
 30
0.0
  0
VERTEX
  5
EA
330
E7
100
AcDbEntity
  8
Layer 1
 62
   178
420
    65793
370
    25
100
AcDbVertex
100
AcDb2dVertex
 10
234.7291624624187
 20
-143.316628743766
 30
0.0
  0
VERTEX
  5
EB
330
E7
100
AcDbEntity
  8
Layer 1
 62
   178
420
    65793
370
    25
100
AcDbVertex
100
AcDb2dVertex
 10
220.7291620765016
 20
-143.316628743766
 30
0.0
  0
VERTEX
  5
EC
330
E7
100
AcDbEntity
  8
Layer 1
 62
   178
420
    65793
370
    25
100
AcDbVertex
100
AcDb2dVertex
 10
220.7291620765016
 20
-157.3166291296824
 30
0.0
  0
SEQEND
  5
ED
330
E7
100
AcDbEntity
  8
Layer 1
 62
   178
420
    65793
370
    25
  0
POLYLINE
  5
EE
330
4A
100
AcDbEntity
  8
Layer 1
 62
   178
420
    65793
370
    25
100
AcDb2dPolyline
 66
     1
 10
0.0
 20
0.0
 30
0.0
  0
VERTEX
  5
EF
330
EE
100
AcDbEntity
  8
Layer 1
 62
   178
420
    65793
370
    25
100
AcDbVertex
100
AcDb2dVertex
 10
63.56665164072249
 20
-176.3666327065631
 30
0.0
  0
VERTEX
  5
F0
330
EE
100
AcDbEntity
  8
Layer 1
 62
   178
420
    65793
370
    25
100
AcDbVertex
100
AcDb2dVertex
 10
77.5666520266395
 20
-176.3666327065631
 30
0.0
  0
VERTEX
  5
F1
330
EE
100
AcDbEntity
  8
Layer 1
 62
   178
420
    65793
370
    25
100
AcDbVertex
100
AcDb2dVertex
 10
77.5666520266395
 20
-162.3666323206461
 30
0.0
  0
VERTEX
  5
F2
330
EE
100
AcDbEntity
  8
Layer 1
 62
   178
420
    65793
370
    25
100
AcDbVertex
100
AcDb2dVertex
 10
63.56665164072249
 20
-162.3666323206461
 30
0.0
  0
VERTEX
  5
F3
330
EE
100
AcDbEntity
  8
Layer 1
 62
   178
420
    65793
370
    25
100
AcDbVertex
100
AcDb2dVertex
 10
63.56665164072249
 20
-176.3666327065631
 30
0.0
  0
SEQEND
  5
F4
330
EE
100
AcDbEntity
  8
Layer 1
 62
   178
420
    65793
370
    25
  0
POLYLINE
  5
F5
330
4A
100
AcDbEntity
  8
Layer 1
 62
   178
420
    65793
370
    25
100
AcDb2dPolyline
 66
     1
 10
0.0
 20
0.0
 30
0.0
  0
VERTEX
  5
F6
330
F5
100
AcDbEntity
  8
Layer 1
 62
   178
420
    65793
370
    25
100
AcDbVertex
100
AcDb2dVertex
 10
82.6166514029058
 20
-176.3666327065631
 30
0.0
  0
VERTEX
  5
F7
330
F5
100
AcDbEntity
  8
Layer 1
 62
   178
420
    65793
370
    25
100
AcDbVertex
100
AcDb2dVertex
 10
96.61665178882282
 20
-176.3666327065631
 30
0.0
  0
VERTEX
  5
F8
330
F5
100
AcDbEntity
  8
Layer 1
 62
   178
420
    65793
370
    25
100
AcDbVertex
100
AcDb2dVertex
 10
96.61665178882282
 20
-162.3666323206461
 30
0.0
  0
VERTEX
  5
F9
330
F5
100
AcDbEntity
  8
Layer 1
 62
   178
420
    65793
370
    25
100
AcDbVertex
100
AcDb2dVertex
 10
82.6166514029058
 20
-162.3666323206461
 30
0.0
  0
VERTEX
  5
FA
330
F5
100
AcDbEntity
  8
Layer 1
 62
   178
420
    65793
370
    25
100
AcDbVertex
100
AcDb2dVertex
 10
82.6166514029058
 20
-176.3666327065631
 30
0.0
  0
SEQEND
  5
FB
330
F5
100
AcDbEntity
  8
Layer 1
 62
   178
420
    65793
370
    25
  0
POLYLINE
  5
FC
330
4A
100
AcDbEntity
  8
Layer 1
 62
   178
420
    65793
370
    25
100
AcDb2dPolyline
 66
     1
 10
0.0
 20
0.0
 30
0.0
  0
VERTEX
  5
FD
330
FC
100
AcDbEntity
  8
Layer 1
 62
   178
420
    65793
370
    25
100
AcDbVertex
100
AcDb2dVertex
 10
154.054157186814
 20
-176.3666327065631
 30
0.0
  0
VERTEX
  5
FE
330
FC
100
AcDbEntity
  8
Layer 1
 62
   178
420
    65793
370
    25
100
AcDbVertex
100
AcDb2dVertex
 10
168.054157572731
 20
-176.3666327065631
 30
0.0
  0
VERTEX
  5
FF
330
FC
100
AcDbEntity
  8
Layer 1
 62
   178
420
    65793
370
    25
100
AcDbVertex
100
AcDb2dVertex
 10
168.054157572731
 20
-162.3666323206461
 30
0.0
  0
VERTEX
  5
100
330
FC
100
AcDbEntity
  8
Layer 1
 62
   178
420
    65793
370
    25
100
AcDbVertex
100
AcDb2dVertex
 10
154.054157186814
 20
-162.3666323206461
 30
0.0
  0
VERTEX
  5
101
330
FC
100
AcDbEntity
  8
Layer 1
 62
   178
420
    65793
370
    25
100
AcDbVertex
100
AcDb2dVertex
 10
154.054157186814
 20
-176.3666327065631
 30
0.0
  0
SEQEND
  5
102
330
FC
100
AcDbEntity
  8
Layer 1
 62
   178
420
    65793
370
    25
  0
POLYLINE
  5
103
330
4A
100
AcDbEntity
  8
Layer 1
 62
   178
420
    65793
370
    25
100
AcDb2dPolyline
 66
     1
 10
0.0
 20
0.0
 30
0.0
  0
VERTEX
  5
104
330
103
100
AcDbEntity
  8
Layer 1
 62
   178
420
    65793
370
    25
100
AcDbVertex
100
AcDb2dVertex
 10
173.1041531342999
 20
-176.3666327065631
 30
0.0
  0
VERTEX
  5
105
330
103
100
AcDbEntity
  8
Layer 1
 62
   178
420
    65793
370
    25
100
AcDbVertex
100
AcDb2dVertex
 10
187.1041535202169
 20
-176.3666327065631
 30
0.0
  0
VERTEX
  5
106
330
103
100
AcDbEntity
  8
Layer 1
 62
   178
420
    65793
370
    25
100
AcDbVertex
100
AcDb2dVertex
 10
187.1041535202169
 20
-162.3666323206461
 30
0.0
  0
VERTEX
  5
107
330
103
100
AcDbEntity
  8
Layer 1
 62
   178
420
    65793
370
    25
100
AcDbVertex
100
AcDb2dVertex
 10
173.1041531342999
 20
-162.3666323206461
 30
0.0
  0
VERTEX
  5
108
330
103
100
AcDbEntity
  8
Layer 1
 62
   178
420
    65793
370
    25
100
AcDbVertex
100
AcDb2dVertex
 10
173.1041531342999
 20
-176.3666327065631
 30
0.0
  0
SEQEND
  5
109
330
103
100
AcDbEntity
  8
Layer 1
 62
   178
420
    65793
370
    25
  0
POLYLINE
  5
10A
330
4A
100
AcDbEntity
  8
Layer 1
 62
   178
420
    65793
370
    25
100
AcDb2dPolyline
 66
     1
 10
0.0
 20
0.0
 30
0.0
  0
VERTEX
  5
10B
330
10A
100
AcDbEntity
  8
Layer 1
 62
   178
420
    65793
370
    25
100
AcDbVertex
100
AcDb2dVertex
 10
192.1541490817859
 20
-176.3666327065631
 30
0.0
  0
VERTEX
  5
10C
330
10A
100
AcDbEntity
  8
Layer 1
 62
   178
420
    65793
370
    25
100
AcDbVertex
100
AcDb2dVertex
 10
206.1541494677029
 20
-176.3666327065631
 30
0.0
  0
VERTEX
  5
10D
330
10A
100
AcDbEntity
  8
Layer 1
 62
   178
420
    65793
370
    25
100
AcDbVertex
100
AcDb2dVertex
 10
206.1541494677029
 20
-162.3666323206461
 30
0.0
  0
VERTEX
  5
10E
330
10A
100
AcDbEntity
  8
Layer 1
 62
   178
420
    65793
370
    25
100
AcDbVertex
100
AcDb2dVertex
 10
192.1541490817859
 20
-162.3666323206461
 30
0.0
  0
VERTEX
  5
10F
330
10A
100
AcDbEntity
  8
Layer 1
 62
   178
420
    65793
370
    25
100
AcDbVertex
100
AcDb2dVertex
 10
192.1541490817859
 20
-176.3666327065631
 30
0.0
  0
SEQEND
  5
110
330
10A
100
AcDbEntity
  8
Layer 1
 62
   178
420
    65793
370
    25
  0
POLYLINE
  5
111
330
4A
100
AcDbEntity
  8
Layer 1
 62
   178
420
    65793
370
    25
100
AcDb2dPolyline
 66
     1
 10
0.0
 20
0.0
 30
0.0
  0
VERTEX
  5
112
330
111
100
AcDbEntity
  8
Layer 1
 62
   178
420
    65793
370
    25
100
AcDbVertex
100
AcDb2dVertex
 10
211.2041526586666
 20
-176.3666327065631
 30
0.0
  0
VERTEX
  5
113
330
111
100
AcDbEntity
  8
Layer 1
 62
   178
420
    65793
370
    25
100
AcDbVertex
100
AcDb2dVertex
 10
225.2041530445836
 20
-176.3666327065631
 30
0.0
  0
VERTEX
  5
114
330
111
100
AcDbEntity
  8
Layer 1
 62
   178
420
    65793
370
    25
100
AcDbVertex
100
AcDb2dVertex
 10
225.2041530445836
 20
-162.3666323206461
 30
0.0
  0
VERTEX
  5
115
330
111
100
AcDbEntity
  8
Layer 1
 62
   178
420
    65793
370
    25
100
AcDbVertex
100
AcDb2dVertex
 10
211.2041526586666
 20
-162.3666323206461
 30
0.0
  0
VERTEX
  5
116
330
111
100
AcDbEntity
  8
Layer 1
 62
   178
420
    65793
370
    25
100
AcDbVertex
100
AcDb2dVertex
 10
211.2041526586666
 20
-176.3666327065631
 30
0.0
  0
SEQEND
  5
117
330
111
100
AcDbEntity
  8
Layer 1
 62
   178
420
    65793
370
    25
  0
POLYLINE
  5
118
330
4A
100
AcDbEntity
  8
Layer 1
 62
   178
420
    65793
370
    25
100
AcDb2dPolyline
 66
     1
 10
0.0
 20
0.0
 30
0.0
  0
VERTEX
  5
119
330
118
100
AcDbEntity
  8
Layer 1
 62
   178
420
    65793
370
    25
100
AcDbVertex
100
AcDb2dVertex
 10
230.2541562355472
 20
-176.3666327065631
 30
0.0
  0
VERTEX
  5
11A
330
118
100
AcDbEntity
  8
Layer 1
 62
   178
420
    65793
370
    25
100
AcDbVertex
100
AcDb2dVertex
 10
244.2541566214643
 20
-176.3666327065631
 30
0.0
  0
VERTEX
  5
11B
330
118
100
AcDbEntity
  8
Layer 1
 62
   178
420
    65793
370
    25
100
AcDbVertex
100
AcDb2dVertex
 10
244.2541566214643
 20
-162.3666323206461
 30
0.0
  0
VERTEX
  5
11C
330
118
100
AcDbEntity
  8
Layer 1
 62
   178
420
    65793
370
    25
100
AcDbVertex
100
AcDb2dVertex
 10
230.2541562355472
 20
-162.3666323206461
 30
0.0
  0
VERTEX
  5
11D
330
118
100
AcDbEntity
  8
Layer 1
 62
   178
420
    65793
370
    25
100
AcDbVertex
100
AcDb2dVertex
 10
230.2541562355472
 20
-176.3666327065631
 30
0.0
  0
SEQEND
  5
11E
330
118
100
AcDbEntity
  8
Layer 1
 62
   178
420
    65793
370
    25
  0
POLYLINE
  5
11F
330
4A
100
AcDbEntity
  8
Layer 1
 62
   178
420
    65793
370
    25
100
AcDb2dPolyline
 66
     1
 10
0.0
 20
0.0
 30
0.0
  0
VERTEX
  5
120
330
11F
100
AcDbEntity
  8
Layer 1
 62
   178
420
    65793
370
    25
100
AcDbVertex
100
AcDb2dVertex
 10
63.56665164072249
 20
-195.416628654049
 30
0.0
  0
VERTEX
  5
121
330
11F
100
AcDbEntity
  8
Layer 1
 62
   178
420
    65793
370
    25
100
AcDbVertex
100
AcDb2dVertex
 10
77.5666520266395
 20
-195.416628654049
 30
0.0
  0
VERTEX
  5
122
330
11F
100
AcDbEntity
  8
Layer 1
 62
   178
420
    65793
370
    25
100
AcDbVertex
100
AcDb2dVertex
 10
77.5666520266395
 20
-181.416628268132
 30
0.0
  0
VERTEX
  5
123
330
11F
100
AcDbEntity
  8
Layer 1
 62
   178
420
    65793
370
    25
100
AcDbVertex
100
AcDb2dVertex
 10
63.56665164072249
 20
-181.416628268132
 30
0.0
  0
VERTEX
  5
124
330
11F
100
AcDbEntity
  8
Layer 1
 62
   178
420
    65793
370
    25
100
AcDbVertex
100
AcDb2dVertex
 10
63.56665164072249
 20
-195.416628654049
 30
0.0
  0
SEQEND
  5
125
330
11F
100
AcDbEntity
  8
Layer 1
 62
   178
420
    65793
370
    25
  0
POLYLINE
  5
126
330
4A
100
AcDbEntity
  8
Layer 1
 62
   178
420
    65793
370
    25
100
AcDb2dPolyline
 66
     1
 10
0.0
 20
0.0
 30
0.0
  0
VERTEX
  5
127
330
126
100
AcDbEntity
  8
Layer 1
 62
   178
420
    65793
370
    25
100
AcDbVertex
100
AcDb2dVertex
 10
82.6166514029058
 20
-195.416628654049
 30
0.0
  0
VERTEX
  5
128
330
126
100
AcDbEntity
  8
Layer 1
 62
   178
420
    65793
370
    25
100
AcDbVertex
100
AcDb2dVertex
 10
96.61665178882282
 20
-195.416628654049
 30
0.0
  0
VERTEX
  5
129
330
126
100
AcDbEntity
  8
Layer 1
 62
   178
420
    65793
370
    25
100
AcDbVertex
100
AcDb2dVertex
 10
96.61665178882282
 20
-181.416628268132
 30
0.0
  0
VERTEX
  5
12A
330
126
100
AcDbEntity
  8
Layer 1
 62
   178
420
    65793
370
    25
100
AcDbVertex
100
AcDb2dVertex
 10
82.6166514029058
 20
-181.416628268132
 30
0.0
  0
VERTEX
  5
12B
330
126
100
AcDbEntity
  8
Layer 1
 62
   178
420
    65793
370
    25
100
AcDbVertex
100
AcDb2dVertex
 10
82.6166514029058
 20
-195.416628654049
 30
0.0
  0
SEQEND
  5
12C
330
126
100
AcDbEntity
  8
Layer 1
 62
   178
420
    65793
370
    25
  0
POLYLINE
  5
12D
330
4A
100
AcDbEntity
  8
Layer 1
 62
   178
420
    65793
370
    25
100
AcDb2dPolyline
 66
     1
 10
0.0
 20
0.0
 30
0.0
  0
VERTEX
  5
12E
330
12D
100
AcDbEntity
  8
Layer 1
 62
   178
420
    65793
370
    25
100
AcDbVertex
100
AcDb2dVertex
 10
115.9541538477497
 20
-138.2666293674988
 30
0.0
  0
VERTEX
  5
12F
330
12D
100
AcDbEntity
  8
Layer 1
 62
   178
420
    65793
370
    25
100
AcDbVertex
100
AcDb2dVertex
 10
129.9541504189693
 20
-138.2666293674988
 30
0.0
  0
VERTEX
  5
130
330
12D
100
AcDbEntity
  8
Layer 1
 62
   178
420
    65793
370
    25
100
AcDbVertex
100
AcDb2dVertex
 10
129.9541504189693
 20
-124.266628981582
 30
0.0
  0
VERTEX
  5
131
330
12D
100
AcDbEntity
  8
Layer 1
 62
   178
420
    65793
370
    25
100
AcDbVertex
100
AcDb2dVertex
 10
115.9541538477497
 20
-124.266628981582
 30
0.0
  0
VERTEX
  5
132
330
12D
100
AcDbEntity
  8
Layer 1
 62
   178
420
    65793
370
    25
100
AcDbVertex
100
AcDb2dVertex
 10
115.9541538477497
 20
-138.2666293674988
 30
0.0
  0
SEQEND
  5
133
330
12D
100
AcDbEntity
  8
Layer 1
 62
   178
420
    65793
370
    25
  0
POLYLINE
  5
134
330
4A
100
AcDbEntity
  8
Layer 1
 62
   178
420
    65793
370
    25
100
AcDb2dPolyline
 66
     1
 10
0.0
 20
0.0
 30
0.0
  0
VERTEX
  5
135
330
134
100
AcDbEntity
  8
Layer 1
 62
   178
420
    65793
370
    25
100
AcDbVertex
100
AcDb2dVertex
 10
177.8666578432175
 20
-138.2666293674988
 30
0.0
  0
VERTEX
  5
136
330
134
100
AcDbEntity
  8
Layer 1
 62
   178
420
    65793
370
    25
100
AcDbVertex
100
AcDb2dVertex
 10
191.8666582291345
 20
-138.2666293674988
 30
0.0
  0
VERTEX
  5
137
330
134
100
AcDbEntity
  8
Layer 1
 62
   178
420
    65793
370
    25
100
AcDbVertex
100
AcDb2dVertex
 10
191.8666582291345
 20
-124.266628981582
 30
0.0
  0
VERTEX
  5
138
330
134
100
AcDbEntity
  8
Layer 1
 62
   178
420
    65793
370
    25
100
AcDbVertex
100
AcDb2dVertex
 10
177.8666578432175
 20
-124.266628981582
 30
0.0
  0
VERTEX
  5
139
330
134
100
AcDbEntity
  8
Layer 1
 62
   178
420
    65793
370
    25
100
AcDbVertex
100
AcDb2dVertex
 10
177.8666578432175
 20
-138.2666293674988
 30
0.0
  0
SEQEND
  5
13A
330
134
100
AcDbEntity
  8
Layer 1
 62
   178
420
    65793
370
    25
  0
ENDBLK
  5
4D
330
4A
100
AcDbEntity
  8
0
100
AcDbBlockEnd
  0
ENDSEC
  0
SECTION
  2
ENTITIES
  0
SPLINE
  5
41
330
1F
100
AcDbEntity
  8
Layer 1
 62
   175
420
  4737438
370
    25
100
AcDbSpline
210
0.0
220
0.0
230
1.0
 70
    11
 71
     3
 72
    71
 73
    67
 74
     0
 42
0.0000000001
 43
0.0000000001
 12
1.0
 22
0.0
 32
0.0
 13
1.0
 23
0.0
 33
0.0
 40
0.0
 40
0.0
 40
0.0
 40
0.0
 40
1.0
 40
1.0
 40
1.0
 40
2.0
 40
2.0
 40
2.0
 40
3.0
 40
3.0
 40
3.0
 40
4.0
 40
4.0
 40
4.0
 40
5.0
 40
5.0
 40
5.0
 40
6.0
 40
6.0
 40
6.0
 40
7.0
 40
7.0
 40
7.0
 40
8.0
 40
8.0
 40
8.0
 40
9.0
 40
9.0
 40
9.0
 40
10.0
 40
10.0
 40
10.0
 40
11.0
 40
11.0
 40
11.0
 40
12.0
 40
12.0
 40
12.0
 40
13.0
 40
13.0
 40
13.0
 40
14.0
 40
14.0
 40
14.0
 40
15.0
 40
15.0
 40
15.0
 40
16.0
 40
16.0
 40
16.0
 40
17.0
 40
17.0
 40
17.0
 40
18.0
 40
18.0
 40
18.0
 40
19.0
 40
19.0
 40
19.0
 40
20.0
 40
20.0
 40
20.0
 40
21.0
 40
21.0
 40
21.0
 40
22.0
 40
22.0
 40
22.0
 40
22.0
 10
57.04175923936847
 20
-94.69668457295646
 30
0.0
 10
57.04175923936847
 20
-94.69668457295646
 30
0.0
 10
240.0166520295205
 20
-94.69668457295646
 30
0.0
 10
240.0166520295205
 20
-94.69668457295646
 30
0.0
 10
241.1212215289065
 20
-94.69668457295646
 30
0.0
 10
242.0166520290207
 20
-95.59211507307131
 30
0.0
 10
242.0166520290207
 20
-96.69668457245632
 30
0.0
 10
242.0166520290207
 20
-96.69668457245632
 30
0.0
 10
242.0166520290207
 20
-104.6568126704141
 30
0.0
 10
242.0166520290207
 20
-104.6568126704141
 30
0.0
 10
242.0166520290207
 20
-104.6568126704141
 30
0.0
 10
242.0166520290207
 20
-119.701975688807
 30
0.0
 10
242.0166520290207
 20
-119.701975688807
 30
0.0
 10
242.0166520290207
 20
-120.8048082802147
 30
0.0
 10
241.1239305441306
 20
-121.6995176817962
 30
0.0
 10
240.0211006809262
 20
-121.7019707406757
 30
0.0
 10
240.0211006809262
 20
-121.7019707406757
 30
0.0
 10
234.4872033794965
 20
-121.7142799611337
 30
0.0
 10
234.4872033794965
 20
-121.7142799611337
 30
0.0
 10
233.3843735162921
 20
-121.7167330200128
 30
0.0
 10
232.491652031402
 20
-122.6114424215947
 30
0.0
 10
232.491652031402
 20
-123.7142750130024
 30
0.0
 10
232.491652031402
 20
-123.7142750130024
 30
0.0
 10
232.491652031402
 20
-138.7687187240086
 30
0.0
 10
232.491652031402
 20
-138.7687187240086
 30
0.0
 10
232.491652031402
 20
-139.873288223394
 30
0.0
 10
233.3870825315162
 20
-140.7687187235082
 30
0.0
 10
234.4916520309015
 20
-140.7687187235082
 30
0.0
 10
234.4916520309015
 20
-140.7687187235082
 30
0.0
 10
235.2541520307112
 20
-140.7687187235082
 30
0.0
 10
235.2541520307112
 20
-140.7687187235082
 30
0.0
 10
236.3587215300971
 20
-140.7687187235082
 30
0.0
 10
237.2541520302113
 20
-141.6641492236224
 30
0.0
 10
237.2541520302113
 20
-142.7687187230084
 30
0.0
 10
237.2541520302113
 20
-142.7687187230084
 30
0.0
 10
237.2541520302113
 20
-157.8296721617321
 30
0.0
 10
237.2541520302113
 20
-157.8296721617321
 30
0.0
 10
237.2541520302113
 20
-158.9299547760031
 30
0.0
 10
238.1429025707492
 20
-159.8235995599146
 30
0.0
 10
239.2431685932005
 20
-159.8296420020352
 30
0.0
 10
239.2431685932005
 20
-159.8296420020352
 30
0.0
 10
244.7899916931395
 20
-159.8601040510758
 30
0.0
 10
244.7899916931395
 20
-159.8601040510758
 30
0.0
 10
245.8902577155907
 20
-159.8661464931963
 30
0.0
 10
246.7790082561286
 20
-160.7597912771078
 30
0.0
 10
246.7790082561286
 20
-161.8600738913788
 30
0.0
 10
246.7790082561286
 20
-161.8600738913788
 30
0.0
 10
246.7790082561286
 20
-203.91046006829
 30
0.0
 10
246.7790082561286
 20
-203.91046006829
 30
0.0
 10
246.7790082561286
 20
-205.014902625939
 30
0.0
 10
245.8837758598088
 20
-205.9102805362598
 30
0.0
 10
244.7793333167469
 20
-205.910460041374
 30
0.0
 10
244.7793333167469
 20
-205.910460041374
 30
0.0
 10
57.04230798193638
 20
-205.9409729516319
 30
0.0
 10
57.04230798193638
 20
-205.9409729516319
 30
0.0
 10
54.83291520586742
 20
-205.9413320443757
 30
0.0
 10
53.0416579836809
 20
-204.1503660297452
 30
0.0
 10
53.04165786269945
 20
-201.940973224495
 30
0.0
 10
53.04165786269945
 20
-201.940973224495
 30
0.0
 10
53.04165220900782
 20
-98.69173639979138
 30
0.0
 10
53.04165220900782
 20
-98.69173639979138
 30
0.0
 10
53.04165211070883
 20
-96.48255553305148
 30
0.0
 10
54.83257837341947
 20
-94.69167711133198
 30
0.0
 10
57.04175923936847
 20
-94.69173622424067
 30
0.0
 10
57.04175923936847
 20
-94.69173622424067
 30
0.0
 10
57.04175923936847
 20
-94.69668457295646
 30
0.0
 10
57.04175923936847
 20
-94.69668457295646
 30
0.0
  0
SPLINE
  5
42
330
1F
100
AcDbEntity
  8
Layer 1
 62
   195
420
  7949726
370
    25
100
AcDbSpline
210
0.0
220
0.0
230
1.0
 70
    11
 71
     3
 72
    17
 73
    13
 74
     0
 42
0.0000000001
 43
0.0000000001
 12
1.0
 22
0.0
 32
0.0
 13
1.0
 23
0.0
 33
0.0
 40
0.0
 40
0.0
 40
0.0
 40
0.0
 40
1.0
 40
1.0
 40
1.0
 40
2.0
 40
2.0
 40
2.0
 40
3.0
 40
3.0
 40
3.0
 40
4.0
 40
4.0
 40
4.0
 40
4.0
 10
139.8765702526798
 20
-98.5666291866303
 30
0.0
 10
139.8765702526798
 20
-99.17414241125793
 30
0.0
 10
139.384083477583
 20
-99.66662918635537
 30
0.0
 10
138.7765702529547
 20
-99.66662918635537
 30
0.0
 10
138.1690570283265
 20
-99.66662918635537
 30
0.0
 10
137.6765702532297
 20
-99.17414241125793
 30
0.0
 10
137.6765702532297
 20
-98.5666291866303
 30
0.0
 10
137.6765702532297
 20
-97.95911596200202
 30
0.0
 10
138.1690570283265
 20
-97.46662918690522
 30
0.0
 10
138.7765702529547
 20
-97.46662918690522
 30
0.0
 10
139.384083477583
 20
-97.46662918690522
 30
0.0
 10
139.8765702526798
 20
-97.95911596200202
 30
0.0
 10
139.8765702526798
 20
-98.5666291866303
 30
0.0
  0
SPLINE
  5
43
330
1F
100
AcDbEntity
  8
Layer 1
 62
   195
420
  7949726
370
    25
100
AcDbSpline
210
0.0
220
0.0
230
1.0
 70
    11
 71
     3
 72
    17
 73
    13
 74
     0
 42
0.0000000001
 43
0.0000000001
 12
1.0
 22
0.0
 32
0.0
 13
1.0
 23
0.0
 33
0.0
 40
0.0
 40
0.0
 40
0.0
 40
0.0
 40
1.0
 40
1.0
 40
1.0
 40
2.0
 40
2.0
 40
2.0
 40
3.0
 40
3.0
 40
3.0
 40
4.0
 40
4.0
 40
4.0
 40
4.0
 10
243.8791520285554
 20
-201.9187187082204
 30
0.0
 10
243.8791520285554
 20
-202.5262319328474
 30
0.0
 10
243.3866652534586
 20
-203.0187187079455
 30
0.0
 10
242.7791520288304
 20
-203.0187187079455
 30
0.0
 10
242.1716388042021
 20
-203.0187187079455
 30
0.0
 10
241.6791520291053
 20
-202.5262319328474
 30
0.0
 10
241.6791520291053
 20
-201.9187187082204
 30
0.0
 10
241.6791520291053
 20
-201.3112054835921
 30
0.0
 10
242.1716388042021
 20
-200.8187187084953
 30
0.0
 10
242.7791520288304
 20
-200.8187187084953
 30
0.0
 10
243.3866652534586
 20
-200.8187187084953
 30
0.0
 10
243.8791520285554
 20
-201.3112054835921
 30
0.0
 10
243.8791520285554
 20
-201.9187187082204
 30
0.0
  0
SPLINE
  5
44
330
1F
100
AcDbEntity
  8
Layer 1
 62
   195
420
  7949726
370
    25
100
AcDbSpline
210
0.0
220
0.0
230
1.0
 70
    11
 71
     3
 72
    17
 73
    13
 74
     0
 42
0.0000000001
 43
0.0000000001
 12
1.0
 22
0.0
 32
0.0
 13
1.0
 23
0.0
 33
0.0
 40
0.0
 40
0.0
 40
0.0
 40
0.0
 40
1.0
 40
1.0
 40
1.0
 40
2.0
 40
2.0
 40
2.0
 40
3.0
 40
3.0
 40
3.0
 40
4.0
 40
4.0
 40
4.0
 40
4.0
 10
239.1166520297454
 20
-98.69162920151265
 30
0.0
 10
239.1166520297454
 20
-99.29914242613965
 30
0.0
 10
238.6241652546486
 20
-99.79162920123773
 30
0.0
 10
238.016652030021
 20
-99.79162920123773
 30
0.0
 10
237.4091388053914
 20
-99.79162920123773
 30
0.0
 10
236.9166520302946
 20
-99.29914242613965
 30
0.0
 10
236.9166520302946
 20
-98.69162920151265
 30
0.0
 10
236.9166520302946
 20
-98.08411597688438
 30
0.0
 10
237.4091388053914
 20
-97.59162920178758
 30
0.0
 10
238.016652030021
 20
-97.59162920178758
 30
0.0
 10
238.6241652546486
 20
-97.59162920178758
 30
0.0
 10
239.1166520297454
 20
-98.08411597688438
 30
0.0
 10
239.1166520297454
 20
-98.69162920151265
 30
0.0
  0
SPLINE
  5
45
330
1F
100
AcDbEntity
  8
Layer 1
 62
   195
420
  7949726
370
    25
100
AcDbSpline
210
0.0
220
0.0
230
1.0
 70
    11
 71
     3
 72
    17
 73
    13
 74
     0
 42
0.0000000001
 43
0.0000000001
 12
1.0
 22
0.0
 32
0.0
 13
1.0
 23
0.0
 33
0.0
 40
0.0
 40
0.0
 40
0.0
 40
0.0
 40
1.0
 40
1.0
 40
1.0
 40
2.0
 40
2.0
 40
2.0
 40
3.0
 40
3.0
 40
3.0
 40
4.0
 40
4.0
 40
4.0
 40
4.0
 10
215.0915543187406
 20
-98.66593475707475
 30
0.0
 10
215.0915543187406
 20
-99.27344798170303
 30
0.0
 10
214.5990675436438
 20
-99.76593475680046
 30
0.0
 10
213.9915543190149
 20
-99.76593475680046
 30
0.0
 10
213.3840410943873
 20
-99.76593475680046
 30
0.0
 10
212.8915543192905
 20
-99.27344798170303
 30
0.0
 10
212.8915543192905
 20
-98.66593475707475
 30
0.0
 10
212.8915543192905
 20
-98.05842153244711
 30
0.0
 10
213.3840410943873
 20
-97.56593475735032
 30
0.0
 10
213.9915543190149
 20
-97.56593475735032
 30
0.0
 10
214.5990675436438
 20
-97.56593475735032
 30
0.0
 10
215.0915543187406
 20
-98.05842153244711
 30
0.0
 10
215.0915543187406
 20
-98.66593475707475
 30
0.0
  0
SPLINE
  5
46
330
1F
100
AcDbEntity
  8
Layer 1
 62
   195
420
  7949726
370
    25
100
AcDbSpline
210
0.0
220
0.0
230
1.0
 70
    11
 71
     3
 72
    17
 73
    13
 74
     0
 42
0.0000000001
 43
0.0000000001
 12
1.0
 22
0.0
 32
0.0
 13
1.0
 23
0.0
 33
0.0
 40
0.0
 40
0.0
 40
0.0
 40
0.0
 40
1.0
 40
1.0
 40
1.0
 40
2.0
 40
2.0
 40
2.0
 40
3.0
 40
3.0
 40
3.0
 40
4.0
 40
4.0
 40
4.0
 40
4.0
 10
151.37915205168
 20
-201.9416291882019
 30
0.0
 10
151.37915205168
 20
-202.5491424128288
 30
0.0
 10
150.8866652765832
 20
-203.0416291879269
 30
0.0
 10
150.2791520519552
 20
-203.0416291879269
 30
0.0
 10
149.6716388273266
 20
-203.0416291879269
 30
0.0
 10
149.1791520522298
 20
-202.5491424128288
 30
0.0
 10
149.1791520522298
 20
-201.9416291882019
 30
0.0
 10
149.1791520522298
 20
-201.3341159635736
 30
0.0
 10
149.6716388273266
 20
-200.8416291884768
 30
0.0
 10
150.2791520519552
 20
-200.8416291884768
 30
0.0
 10
150.8866652765832
 20
-200.8416291884768
 30
0.0
 10
151.37915205168
 20
-201.3341159635736
 30
0.0
 10
151.37915205168
 20
-201.9416291882019
 30
0.0
  0
SPLINE
  5
47
330
1F
100
AcDbEntity
  8
Layer 1
 62
   195
420
  7949726
370
    25
100
AcDbSpline
210
0.0
220
0.0
230
1.0
 70
    11
 71
     3
 72
    17
 73
    13
 74
     0
 42
0.0000000001
 43
0.0000000001
 12
1.0
 22
0.0
 32
0.0
 13
1.0
 23
0.0
 33
0.0
 40
0.0
 40
0.0
 40
0.0
 40
0.0
 40
1.0
 40
1.0
 40
1.0
 40
2.0
 40
2.0
 40
2.0
 40
3.0
 40
3.0
 40
3.0
 40
4.0
 40
4.0
 40
4.0
 40
4.0
 10
117.7582280786128
 20
-98.5666291866303
 30
0.0
 10
117.7582280786128
 20
-99.17414241125793
 30
0.0
 10
117.2657413035161
 20
-99.66662918635537
 30
0.0
 10
116.6582280788878
 20
-99.66662918635537
 30
0.0
 10
116.0507148542595
 20
-99.66662918635537
 30
0.0
 10
115.5582280791627
 20
-99.17414241125793
 30
0.0
 10
115.5582280791627
 20
-98.5666291866303
 30
0.0
 10
115.5582280791627
 20
-97.95911596200202
 30
0.0
 10
116.0507148542595
 20
-97.46662918690522
 30
0.0
 10
116.6582280788878
 20
-97.46662918690522
 30
0.0
 10
117.2657413035161
 20
-97.46662918690522
 30
0.0
 10
117.7582280786128
 20
-97.95911596200202
 30
0.0
 10
117.7582280786128
 20
-98.5666291866303
 30
0.0
  0
SPLINE
  5
48
330
1F
100
AcDbEntity
  8
Layer 1
 62
   195
420
  7949726
370
    25
100
AcDbSpline
210
0.0
220
0.0
230
1.0
 70
    11
 71
     3
 72
    17
 73
    13
 74
     0
 42
0.0000000001
 43
0.0000000001
 12
1.0
 22
0.0
 32
0.0
 13
1.0
 23
0.0
 33
0.0
 40
0.0
 40
0.0
 40
0.0
 40
0.0
 40
1.0
 40
1.0
 40
1.0
 40
2.0
 40
2.0
 40
2.0
 40
3.0
 40
3.0
 40
3.0
 40
4.0
 40
4.0
 40
4.0
 40
4.0
 10
58.84165539245097
 20
-201.2416258254964
 30
0.0
 10
58.84165539245097
 20
-201.8491390501234
 30
0.0
 10
58.34916861735418
 20
-202.3416258252215
 30
0.0
 10
57.74165539272622
 20
-202.3416258252215
 30
0.0
 10
57.13414216809762
 20
-202.3416258252215
 30
0.0
 10
56.64165539300083
 20
-201.8491390501234
 30
0.0
 10
56.64165539300083
 20
-201.2416258254964
 30
0.0
 10
56.64165539300083
 20
-200.6341126008681
 30
0.0
 10
57.13414216809762
 20
-200.1416258257713
 30
0.0
 10
57.74165539272622
 20
-200.1416258257713
 30
0.0
 10
58.34916861735418
 20
-200.1416258257713
 30
0.0
 10
58.84165539245097
 20
-200.6341126008681
 30
0.0
 10
58.84165539245097
 20
-201.2416258254964
 30
0.0
  0
SPLINE
  5
49
330
1F
100
AcDbEntity
  8
Layer 1
 62
   195
420
  7949726
370
    25
100
AcDbSpline
210
0.0
220
0.0
230
1.0
 70
    11
 71
     3
 72
    17
 73
    13
 74
     0
 42
0.0000000001
 43
0.0000000001
 12
1.0
 22
0.0
 32
0.0
 13
1.0
 23
0.0
 33
0.0
 40
0.0
 40
0.0
 40
0.0
 40
0.0
 40
1.0
 40
1.0
 40
1.0
 40
2.0
 40
2.0
 40
2.0
 40
3.0
 40
3.0
 40
3.0
 40
4.0
 40
4.0
 40
4.0
 40
4.0
 10
58.84165202957069
 20
-99.39162918883656
 30
0.0
 10
58.84165202957069
 20
-99.99914241346356
 30
0.0
 10
58.3491652544739
 20
-100.4916291885616
 30
0.0
 10
57.74165202984594
 20
-100.4916291885616
 30
0.0
 10
57.13413880521733
 20
-100.4916291885616
 30
0.0
 10
56.64165203012055
 20
-99.99914241346356
 30
0.0
 10
56.64165203012055
 20
-99.39162918883656
 30
0.0
 10
56.64165203012055
 20
-98.78411596420828
 30
0.0
 10
57.13413880521733
 20
-98.29162918911149
 30
0.0
 10
57.74165202984594
 20
-98.29162918911149
 30
0.0
 10
58.3491652544739
 20
-98.29162918911149
 30
0.0
 10
58.84165202957069
 20
-98.78411596420828
 30
0.0
 10
58.84165202957069
 20
-99.39162918883656
 30
0.0
  0
INSERT
  5
4B
330
1F
100
AcDbEntity
  8
Layer 1
100
AcDbBlockReference
  2
block 2
 10
0.0
 20
0.0
 30
0.0
  0
ENDSEC
  0
SECTION
  2
OBJECTS
  0
DICTIONARY
  5
C
330
0
100
AcDbDictionary
281
     1
  3
ACAD_GROUP
350
D
  3
ACAD_LAYOUT
350
1A
  3
ACAD_MATERIAL
350
3B
  3
ACAD_MLEADERSTYLE
350
13C
  3
ACAD_MLINESTYLE
350
17
  3
ACAD_PLOTSETTINGS
350
19
  3
ACAD_PLOTSTYLENAME
350
E
  3
ACAD_TABLESTYLE
350
13B
  3
ACAD_VISUALSTYLE
350
2A
  0
SUN
  5
3F
330
29
100
AcDbSun
 90
        1
290
     0
 63
     7
421
 16777215
 40
1.0
291
     1
 91
  2455826
 92
 54000000
292
     0
 70
     2
 71
   256
280
     1
  0
DICTIONARY
  5
D
102
{ACAD_REACTORS
330
C
102
}
330
C
100
AcDbDictionary
281
     1
  0
DICTIONARY
  5
1A
102
{ACAD_REACTORS
330
C
102
}
330
C
100
AcDbDictionary
281
     1
  3
Layout1
350
1E
  3
Layout2
350
26
  3
Model
350
22
  0
DICTIONARY
  5
3B
102
{ACAD_REACTORS
330
C
102
}
330
C
100
AcDbDictionary
281
     1
  3
ByBlock
350
3D
  3
ByLayer
350
3C
  3
Global
350
3E
  0
DICTIONARY
  5
13C
102
{ACAD_REACTORS
330
C
102
}
330
C
100
AcDbDictionary
281
     1
  0
DICTIONARY
  5
17
102
{ACAD_REACTORS
330
C
102
}
330
C
100
AcDbDictionary
281
     1
  3
Standard
350
18
  0
DICTIONARY
  5
19
102
{ACAD_REACTORS
330
C
102
}
330
C
100
AcDbDictionary
281
     1
  0
ACDBDICTIONARYWDFLT
  5
E
102
{ACAD_REACTORS
330
C
102
}
330
C
100
AcDbDictionary
281
     1
  3
Normal
350
F
100
AcDbDictionaryWithDefault
340
F
  0
DICTIONARY
  5
13B
102
{ACAD_REACTORS
330
C
102
}
330
C
100
AcDbDictionary
281
     1
  0
DICTIONARY
  5
2A
102
{ACAD_REACTORS
330
C
102
}
330
C
100
AcDbDictionary
281
     1
  3
2dWireframe
350
2F
  3
3D Hidden
350
31
  3
3dWireframe
350
30
  3
Basic
350
32
  3
Brighten
350
36
  3
ColorChange
350
3A
  3
Conceptual
350
34
  3
Dim
350
35
  3
Facepattern
350
39
  3
Flat
350
2B
  3
FlatWithEdges
350
2C
  3
Gouraud
350
2D
  3
GouraudWithEdges
350
2E
  3
Linepattern
350
38
  3
Realistic
350
33
  3
Thicken
350
37
  0
LAYOUT
  5
1E
102
{ACAD_REACTORS
330
1A
102
}
330
1A
100
AcDbPlotSettings
  1

  2
none_device
  4

  6

 40
0.0
 41
0.0
 42
0.0
 43
0.0
 44
0.0
 45
0.0
 46
0.0
 47
0.0
 48
0.0
 49
0.0
140
0.0
141
0.0
142
1.0
143
1.0
 70
   688
 72
     0
 73
     0
 74
     5
  7

 75
    16
 76
     0
 77
     2
 78
   300
147
1.0
148
0.0
149
0.0
100
AcDbLayout
  1
Layout1
 70
     1
 71
     1
 10
0.0
 20
0.0
 11
12.0
 21
9.0
 12
0.0
 22
0.0
 32
0.0
 14
1.000000000000000E+20
 24
1.000000000000000E+20
 34
1.000000000000000E+20
 15
-1.000000000000000E+20
 25
-1.000000000000000E+20
 35
-1.000000000000000E+20
146
0.0
 13
0.0
 23
0.0
 33
0.0
 16
1.0
 26
0.0
 36
0.0
 17
0.0
 27
1.0
 37
0.0
 76
     0
330
1B
  0
LAYOUT
  5
26
102
{ACAD_REACTORS
330
1A
102
}
330
1A
100
AcDbPlotSettings
  1

  2
none_device
  4

  6

 40
0.0
 41
0.0
 42
0.0
 43
0.0
 44
0.0
 45
0.0
 46
0.0
 47
0.0
 48
0.0
 49
0.0
140
0.0
141
0.0
142
1.0
143
1.0
 70
   688
 72
     0
 73
     0
 74
     5
  7

 75
    16
 76
     0
 77
     2
 78
   300
147
1.0
148
0.0
149
0.0
100
AcDbLayout
  1
Layout2
 70
     1
 71
     2
 10
0.0
 20
0.0
 11
0.0
 21
0.0
 12
0.0
 22
0.0
 32
0.0
 14
0.0
 24
0.0
 34
0.0
 15
0.0
 25
0.0
 35
0.0
146
0.0
 13
0.0
 23
0.0
 33
0.0
 16
1.0
 26
0.0
 36
0.0
 17
0.0
 27
1.0
 37
0.0
 76
     0
330
23
  0
LAYOUT
  5
22
102
{ACAD_REACTORS
330
1A
102
}
330
1A
100
AcDbPlotSettings
  1

  2
none_device
  4

  6

 40
0.0
 41
0.0
 42
0.0
 43
0.0
 44
0.0
 45
0.0
 46
0.0
 47
0.0
 48
0.0
 49
0.0
140
0.0
141
0.0
142
1.0
143
1.0
 70
  1712
 72
     0
 73
     0
 74
     0
  7

 75
     0
 76
     0
 77
     2
 78
   300
147
1.0
148
0.0
149
0.0
100
AcDbLayout
  1
Model
 70
     1
 71
     0
 10
0.0
 20
0.0
 11
12.0
 21
9.0
 12
0.0
 22
0.0
 32
0.0
 14
1.000000000000000E+20
 24
1.000000000000000E+20
 34
1.000000000000000E+20
 15
-1.000000000000000E+20
 25
-1.000000000000000E+20
 35
-1.000000000000000E+20
146
0.0
 13
0.0
 23
0.0
 33
0.0
 16
1.0
 26
0.0
 36
0.0
 17
0.0
 27
1.0
 37
0.0
 76
     0
330
1F
331
29
  0
MATERIAL
  5
3D
102
{ACAD_REACTORS
330
3B
102
}
330
3B
100
AcDbMaterial
  1
ByBlock
 72
     1
 94
      127
  0
MATERIAL
  5
3C
102
{ACAD_REACTORS
330
3B
102
}
330
3B
100
AcDbMaterial
  1
ByLayer
 72
     1
 94
      127
  0
MATERIAL
  5
3E
102
{ACAD_REACTORS
330
3B
102
}
330
3B
100
AcDbMaterial
  1
Global
 72
     1
 94
      127
  0
MLINESTYLE
  5
18
102
{ACAD_REACTORS
330
17
102
}
330
17
100
AcDbMlineStyle
  2
Standard
 70
     0
  3

 62
   256
 51
90.0
 52
90.0
 71
     2
 49
0.5
 62
   256
  6
BYLAYER
 49
-0.5
 62
   256
  6
BYLAYER
  0
ACDBPLACEHOLDER
  5
F
102
{ACAD_REACTORS
330
E
102
}
330
E
  0
VISUALSTYLE
  5
2F
102
{ACAD_REACTORS
330
2A
102
}
330
2A
100
AcDbVisualStyle
  2
2dWireframe
 70
     4
177
     2
291
     0
 71
     0
176
     1
 72
     2
176
     1
 73
     0
176
     1
 90
        0
176
     1
 40
-0.6
176
     1
 41
-30.0
176
     1
 62
     5
 63
     7
421
 16777215
176
     1
 74
     1
176
     1
 91
        4
176
     1
 64
     7
176
     1
 65
   257
176
     1
 75
     1
176
     1
175
     1
176
     1
 42
1.0
176
     1
 92
        0
176
     1
 66
   257
176
     1
 43
1.0
176
     1
 76
     1
176
     1
 77
     6
176
     1
 78
     2
176
     1
 67
     7
176
     1
 79
     5
176
     1
170
     0
176
     1
171
     0
176
     1
290
     0
176
     1
 93
        1
176
     1
 44
0.0
176
     1
173
     0
176
     1
  0
VISUALSTYLE
  5
31
102
{ACAD_REACTORS
330
2A
102
}
330
2A
100
AcDbVisualStyle
  2
3D Hidden
 70
     6
177
     2
291
     0
 71
     1
176
     1
 72
     2
176
     1
 73
     2
176
     1
 90
        0
176
     1
 40
-0.6
176
     1
 41
-30.0
176
     1
 62
     5
 63
     7
421
 16777215
176
     1
 74
     2
176
     1
 91
        2
176
     1
 64
     7
176
     1
 65
   257
176
     1
 75
     2
176
     1
175
     1
176
     1
 42
40.0
176
     1
 92
        0
176
     1
 66
   257
176
     1
 43
1.0
176
     1
 76
     1
176
     1
 77
     6
176
     1
 78
     2
176
     1
 67
     7
176
     1
 79
     3
176
     1
170
     0
176
     1
171
     0
176
     1
290
     0
176
     1
 93
        1
176
     1
 44
0.0
176
     1
173
     0
176
     1
  0
VISUALSTYLE
  5
30
102
{ACAD_REACTORS
330
2A
102
}
330
2A
100
AcDbVisualStyle
  2
3dWireframe
 70
     5
177
     2
291
     0
 71
     0
176
     1
 72
     2
176
     1
 73
     0
176
     1
 90
        0
176
     1
 40
-0.6
176
     1
 41
-30.0
176
     1
 62
     5
 63
     7
421
 16777215
176
     1
 74
     1
176
     1
 91
        4
176
     1
 64
     7
176
     1
 65
   257
176
     1
 75
     1
176
     1
175
     1
176
     1
 42
1.0
176
     1
 92
        0
176
     1
 66
   257
176
     1
 43
1.0
176
     1
 76
     1
176
     1
 77
     6
176
     1
 78
     2
176
     1
 67
     7
176
     1
 79
     5
176
     1
170
     0
176
     1
171
     0
176
     1
290
     0
176
     1
 93
        1
176
     1
 44
0.0
176
     1
173
     0
176
     1
  0
VISUALSTYLE
  5
32
102
{ACAD_REACTORS
330
2A
102
}
330
2A
100
AcDbVisualStyle
  2
Basic
 70
     7
177
     2
291
     1
 71
     1
176
     1
 72
     0
176
     1
 73
     1
176
     1
 90
        0
176
     1
 40
-0.6
176
     1
 41
-30.0
176
     1
 62
     5
 63
     7
421
 16777215
176
     1
 74
     0
176
     1
 91
        4
176
     1
 64
     7
176
     1
 65
   257
176
     1
 75
     1
176
     1
175
     1
176
     1
 42
1.0
176
     1
 92
        8
176
     1
 66
     7
176
     1
 43
1.0
176
     1
 76
     1
176
     1
 77
     6
176
     1
 78
     2
176
     1
 67
     7
176
     1
 79
     5
176
     1
170
     0
176
     1
171
     0
176
     1
290
     0
176
     1
 93
        1
176
     1
 44
0.0
176
     1
173
     0
176
     1
  0
VISUALSTYLE
  5
36
102
{ACAD_REACTORS
330
2A
102
}
330
2A
100
AcDbVisualStyle
  2
Brighten
 70
    12
177
     2
291
     1
 71
     2
176
     1
 72
     2
176
     1
 73
     0
176
     1
 90
        0
176
     1
 40
-0.6
176
     1
 41
-30.0
176
     1
 62
     5
 63
     7
421
 16777215
176
     1
 74
     1
176
     1
 91
        4
176
     1
 64
     7
176
     1
 65
   257
176
     1
 75
     1
176
     1
175
     1
176
     1
 42
1.0
176
     1
 92
        8
176
     1
 66
     7
176
     1
 43
1.0
176
     1
 76
     1
176
     1
 77
     6
176
     1
 78
     2
176
     1
 67
     7
176
     1
 79
     5
176
     1
170
     0
176
     1
171
     0
176
     1
290
     0
176
     1
 93
        1
176
     1
 44
50.0
176
     1
173
     0
176
     1
  0
VISUALSTYLE
  5
3A
102
{ACAD_REACTORS
330
2A
102
}
330
2A
100
AcDbVisualStyle
  2
ColorChange
 70
    16
177
     2
291
     1
 71
     2
176
     1
 72
     2
176
     1
 73
     3
176
     1
 90
        0
176
     1
 40
-0.6
176
     1
 41
-30.0
176
     1
 62
     5
 63
     8
421
  8421504
176
     1
 74
     1
176
     1
 91
        4
176
     1
 64
     7
176
     1
 65
   257
176
     1
 75
     1
176
     1
175
     1
176
     1
 42
1.0
176
     1
 92
        8
176
     1
 66
     8
424
  8421504
176
     1
 43
1.0
176
     1
 76
     1
176
     1
 77
     6
176
     1
 78
     2
176
     1
 67
     7
176
     1
 79
     5
176
     1
170
     0
176
     1
171
     0
176
     1
290
     0
176
     1
 93
        1
176
     1
 44
0.0
176
     1
173
     0
176
     1
  0
VISUALSTYLE
  5
34
102
{ACAD_REACTORS
330
2A
102
}
330
2A
100
AcDbVisualStyle
  2
Conceptual
 70
     9
177
     2
291
     0
 71
     3
176
     1
 72
     2
176
     1
 73
     0
176
     1
 90
        0
176
     1
 40
-0.6
176
     1
 41
-30.0
176
     1
 62
     5
 63
     7
421
 16777215
176
     1
 74
     2
176
     1
 91
        2
176
     1
 64
     7
176
     1
 65
   257
176
     1
 75
     1
176
     1
175
     1
176
     1
 42
40.0
176
     1
 92
        8
176
     1
 66
     7
176
     1
 43
1.0
176
     1
 76
     1
176
     1
 77
     6
176
     1
 78
     2
176
     1
 67
     7
176
     1
 79
     3
176
     1
170
     0
176
     1
171
     0
176
     1
290
     0
176
     1
 93
        1
176
     1
 44
0.0
176
     1
173
     0
176
     1
  0
VISUALSTYLE
  5
35
102
{ACAD_REACTORS
330
2A
102
}
330
2A
100
AcDbVisualStyle
  2
Dim
 70
    11
177
     2
291
     1
 71
     2
176
     1
 72
     2
176
     1
 73
     0
176
     1
 90
        0
176
     1
 40
-0.6
176
     1
 41
-30.0
176
     1
 62
     5
 63
     7
421
 16777215
176
     1
 74
     1
176
     1
 91
        4
176
     1
 64
     7
176
     1
 65
   257
176
     1
 75
     1
176
     1
175
     1
176
     1
 42
1.0
176
     1
 92
        8
176
     1
 66
     7
176
     1
 43
1.0
176
     1
 76
     1
176
     1
 77
     6
176
     1
 78
     2
176
     1
 67
     7
176
     1
 79
     5
176
     1
170
     0
176
     1
171
     0
176
     1
290
     0
176
     1
 93
        1
176
     1
 44
-50.0
176
     1
173
     0
176
     1
  0
VISUALSTYLE
  5
39
102
{ACAD_REACTORS
330
2A
102
}
330
2A
100
AcDbVisualStyle
  2
Facepattern
 70
    15
177
     2
291
     1
 71
     2
176
     1
 72
     2
176
     1
 73
     0
176
     1
 90
        0
176
     1
 40
-0.6
176
     1
 41
-30.0
176
     1
 62
     5
 63
     7
421
 16777215
176
     1
 74
     1
176
     1
 91
        4
176
     1
 64
     7
176
     1
 65
   257
176
     1
 75
     1
176
     1
175
     1
176
     1
 42
1.0
176
     1
 92
        8
176
     1
 66
     7
176
     1
 43
1.0
176
     1
 76
     1
176
     1
 77
     6
176
     1
 78
     2
176
     1
 67
     7
176
     1
 79
     5
176
     1
170
     0
176
     1
171
     0
176
     1
290
     0
176
     1
 93
        1
176
     1
 44
0.0
176
     1
173
     0
176
     1
  0
VISUALSTYLE
  5
2B
102
{ACAD_REACTORS
330
2A
102
}
330
2A
100
AcDbVisualStyle
  2
Flat
 70
     0
177
     2
291
     1
 71
     2
176
     1
 72
     1
176
     1
 73
     1
176
     1
 90
        2
176
     1
 40
-0.6
176
     1
 41
30.0
176
     1
 62
     5
 63
     7
421
 16777215
176
     1
 74
     0
176
     1
 91
        4
176
     1
 64
     7
176
     1
 65
   257
176
     1
 75
     1
176
     1
175
     1
176
     1
 42
1.0
176
     1
 92
        8
176
     1
 66
     7
176
     1
 43
1.0
176
     1
 76
     1
176
     1
 77
     6
176
     1
 78
     2
176
     1
 67
     7
176
     1
 79
     5
176
     1
170
     0
176
     1
171
     0
176
     1
290
     0
176
     1
 93
       13
176
     1
 44
0.0
176
     1
173
     0
176
     1
  0
VISUALSTYLE
  5
2C
102
{ACAD_REACTORS
330
2A
102
}
330
2A
100
AcDbVisualStyle
  2
FlatWithEdges
 70
     1
177
     2
291
     1
 71
     2
176
     1
 72
     1
176
     1
 73
     1
176
     1
 90
        2
176
     1
 40
-0.6
176
     1
 41
30.0
176
     1
 62
     5
 63
     7
421
 16777215
176
     1
 74
     1
176
     1
 91
        4
176
     1
 64
     7
176
     1
 65
   257
176
     1
 75
     1
176
     1
175
     1
176
     1
 42
1.0
176
     1
 92
        0
176
     1
 66
   257
176
     1
 43
1.0
176
     1
 76
     1
176
     1
 77
     6
176
     1
 78
     2
176
     1
 67
     7
176
     1
 79
     5
176
     1
170
     0
176
     1
171
     0
176
     1
290
     0
176
     1
 93
       13
176
     1
 44
0.0
176
     1
173
     0
176
     1
  0
VISUALSTYLE
  5
2D
102
{ACAD_REACTORS
330
2A
102
}
330
2A
100
AcDbVisualStyle
  2
Gouraud
 70
     2
177
     2
291
     1
 71
     2
176
     1
 72
     2
176
     1
 73
     1
176
     1
 90
        2
176
     1
 40
-0.6
176
     1
 41
30.0
176
     1
 62
     5
 63
     7
421
 16777215
176
     1
 74
     0
176
     1
 91
        4
176
     1
 64
     7
176
     1
 65
   257
176
     1
 75
     1
176
     1
175
     1
176
     1
 42
1.0
176
     1
 92
        0
176
     1
 66
     7
176
     1
 43
1.0
176
     1
 76
     1
176
     1
 77
     6
176
     1
 78
     2
176
     1
 67
     7
176
     1
 79
     5
176
     1
170
     0
176
     1
171
     0
176
     1
290
     0
176
     1
 93
       13
176
     1
 44
0.0
176
     1
173
     0
176
     1
  0
VISUALSTYLE
  5
2E
102
{ACAD_REACTORS
330
2A
102
}
330
2A
100
AcDbVisualStyle
  2
GouraudWithEdges
 70
     3
177
     2
291
     1
 71
     2
176
     1
 72
     2
176
     1
 73
     1
176
     1
 90
        2
176
     1
 40
-0.6
176
     1
 41
30.0
176
     1
 62
     5
 63
     7
421
 16777215
176
     1
 74
     1
176
     1
 91
        4
176
     1
 64
     7
176
     1
 65
   257
176
     1
 75
     1
176
     1
175
     1
176
     1
 42
1.0
176
     1
 92
        0
176
     1
 66
   257
176
     1
 43
1.0
176
     1
 76
     1
176
     1
 77
     6
176
     1
 78
     2
176
     1
 67
     7
176
     1
 79
     5
176
     1
170
     0
176
     1
171
     0
176
     1
290
     0
176
     1
 93
       13
176
     1
 44
0.0
176
     1
173
     0
176
     1
  0
VISUALSTYLE
  5
38
102
{ACAD_REACTORS
330
2A
102
}
330
2A
100
AcDbVisualStyle
  2
Linepattern
 70
    14
177
     2
291
     1
 71
     2
176
     1
 72
     2
176
     1
 73
     0
176
     1
 90
        0
176
     1
 40
-0.6
176
     1
 41
-30.0
176
     1
 62
     5
 63
     7
421
 16777215
176
     1
 74
     1
176
     1
 91
        4
176
     1
 64
     7
176
     1
 65
   257
176
     1
 75
     7
176
     1
175
     7
176
     1
 42
1.0
176
     1
 92
        8
176
     1
 66
     7
176
     1
 43
1.0
176
     1
 76
     1
176
     1
 77
     6
176
     1
 78
     2
176
     1
 67
     7
176
     1
 79
     5
176
     1
170
     0
176
     1
171
     0
176
     1
290
     0
176
     1
 93
        1
176
     1
 44
0.0
176
     1
173
     0
176
     1
  0
VISUALSTYLE
  5
33
102
{ACAD_REACTORS
330
2A
102
}
330
2A
100
AcDbVisualStyle
  2
Realistic
 70
     8
177
     2
291
     0
 71
     2
176
     1
 72
     2
176
     1
 73
     0
176
     1
 90
        0
176
     1
 40
-0.6
176
     1
 41
-30.0
176
     1
 62
     5
 63
     7
421
 16777215
176
     1
 74
     1
176
     1
 91
        0
176
     1
 64
     7
176
     1
 65
   257
176
     1
 75
     1
176
     1
175
     1
176
     1
 42
1.0
176
     1
 92
        8
176
     1
 66
     8
424
  7895160
176
     1
 43
1.0
176
     1
 76
     1
176
     1
 77
     6
176
     1
 78
     2
176
     1
 67
     7
176
     1
 79
     5
176
     1
170
     0
176
     1
171
     0
176
     1
290
     0
176
     1
 93
       13
176
     1
 44
0.0
176
     1
173
     0
176
     1
  0
VISUALSTYLE
  5
37
102
{ACAD_REACTORS
330
2A
102
}
330
2A
100
AcDbVisualStyle
  2
Thicken
 70
    13
177
     2
291
     1
 71
     2
176
     1
 72
     2
176
     1
 73
     0
176
     1
 90
        0
176
     1
 40
-0.6
176
     1
 41
-30.0
176
     1
 62
     5
 63
     7
421
 16777215
176
     1
 74
     1
176
     1
 91
        4
176
     1
 64
     7
176
     1
 65
   257
176
     1
 75
     1
176
     1
175
     1
176
     1
 42
1.0
176
     1
 92
       12
176
     1
 66
     7
176
     1
 43
1.0
176
     1
 76
     1
176
     1
 77
     6
176
     1
 78
     2
176
     1
 67
     7
176
     1
 79
     5
176
     1
170
     0
176
     1
171
     0
176
     1
290
     0
176
     1
 93
        1
176
     1
 44
0.0
176
     1
173
     0
176
     1
  0
ENDSEC
  0
EOF
