<?xml version="1.0" encoding="UTF-8" standalone="no"?>
<!-- Created with Inkscape (http://www.inkscape.org/) -->

<svg
   xmlns:dc="http://purl.org/dc/elements/1.1/"
   xmlns:cc="http://creativecommons.org/ns#"
   xmlns:rdf="http://www.w3.org/1999/02/22-rdf-syntax-ns#"
   xmlns:svg="http://www.w3.org/2000/svg"
   xmlns="http://www.w3.org/2000/svg"
   xmlns:sodipodi="http://sodipodi.sourceforge.net/DTD/sodipodi-0.dtd"
   xmlns:inkscape="http://www.inkscape.org/namespaces/inkscape"
   version="1.1"
   id="svg2"
   xml:space="preserve"
   width="156.37631mm"
   height="121.5144mm"
   viewBox="0 0 591.02855 459.26699"
   sodipodi:docname="middle-layer-left.svg"
   inkscape:version="0.92.4 5da689c313, 2019-01-14"><metadata
     id="metadata8"><rdf:RDF><cc:Work
         rdf:about=""><dc:format>image/svg+xml</dc:format><dc:type
           rdf:resource="http://purl.org/dc/dcmitype/StillImage" /><dc:title></dc:title></cc:Work></rdf:RDF></metadata><defs
     id="defs6"><clipPath
       clipPathUnits="userSpaceOnUse"
       id="clipPath262"><path
         d="M 0,315.639 H 855.638 V 0 H 0 Z"
         id="path260"
         inkscape:connector-curvature="0" /></clipPath><clipPath
       clipPathUnits="userSpaceOnUse"
       id="clipPath274"><path
         d="M 0,315.639 H 855.638 V 0 H 0 Z"
         id="path272"
         inkscape:connector-curvature="0" /></clipPath><clipPath
       clipPathUnits="userSpaceOnUse"
       id="clipPath286"><path
         d="M 0,315.639 H 855.638 V 0 H 0 Z"
         id="path284"
         inkscape:connector-curvature="0" /></clipPath><clipPath
       clipPathUnits="userSpaceOnUse"
       id="clipPath298"><path
         d="M 0,315.639 H 855.638 V 0 H 0 Z"
         id="path296"
         inkscape:connector-curvature="0" /></clipPath><clipPath
       clipPathUnits="userSpaceOnUse"
       id="clipPath334"><path
         d="M 0,315.639 H 855.638 V 0 H 0 Z"
         id="path332"
         inkscape:connector-curvature="0" /></clipPath><clipPath
       clipPathUnits="userSpaceOnUse"
       id="clipPath370"><path
         d="M 0,315.639 H 855.638 V 0 H 0 Z"
         id="path368"
         inkscape:connector-curvature="0" /></clipPath><clipPath
       clipPathUnits="userSpaceOnUse"
       id="clipPath406"><path
         d="M 0,315.639 H 855.638 V 0 H 0 Z"
         id="path404"
         inkscape:connector-curvature="0" /></clipPath><clipPath
       clipPathUnits="userSpaceOnUse"
       id="clipPath418"><path
         d="M 0,315.639 H 855.638 V 0 H 0 Z"
         id="path416"
         inkscape:connector-curvature="0" /></clipPath></defs><sodipodi:namedview
     pagecolor="#ffffff"
     bordercolor="#666666"
     borderopacity="1"
     objecttolerance="10"
     gridtolerance="10"
     guidetolerance="10"
     inkscape:pageopacity="0"
     inkscape:pageshadow="2"
     inkscape:window-width="1366"
     inkscape:window-height="726"
     id="namedview4"
     showgrid="false"
     showguides="true"
     inkscape:guide-bbox="true"
     inkscape:zoom="1"
     inkscape:cx="297.5576"
     inkscape:cy="186.15777"
     inkscape:window-x="0"
     inkscape:window-y="18"
     inkscape:window-maximized="0"
     inkscape:current-layer="g10"
     units="mm"
     fit-margin-top="5"
     fit-margin-left="5"
     fit-margin-right="5"
     fit-margin-bottom="5" /><g
     id="g10"
     inkscape:groupmode="layer"
     inkscape:label="quefrency-design"
     transform="matrix(1.3333333,0,0,-1.3333333,19.208171,440.05909)"><g
       id="g256"
       style="fill:none;stroke:#4c2c2c;stroke-opacity:1"><g
         id="g258"
         clip-path="url(#clipPath262)"
         style="fill:none;stroke:#4c2c2c;stroke-opacity:1"><g
           id="g264"
           transform="translate(22.8191,22.8181)"
           style="fill:none;stroke:#4c2c2c;stroke-opacity:1" /></g></g><g
       id="g268"
       style="fill:none;stroke:#4c2c2c;stroke-opacity:1"><g
         id="g270"
         clip-path="url(#clipPath274)"
         style="fill:none;stroke:#4c2c2c;stroke-opacity:1"><g
           id="g276"
           transform="translate(387.3181,136.4881)"
           style="fill:none;stroke:#4c2c2c;stroke-opacity:1" /></g></g><g
       id="g292"
       style="fill:none;stroke:#4c2c2c;stroke-opacity:1"><g
         id="g294"
         clip-path="url(#clipPath298)"
         style="fill:none;stroke:#4c2c2c;stroke-opacity:1" /></g><g
       id="g328"
       style="fill:none;stroke:#4c2c2c;stroke-opacity:1"><g
         id="g330"
         clip-path="url(#clipPath334)"
         style="fill:none;stroke:#4c2c2c;stroke-opacity:1"><g
           id="g336"
           transform="translate(17.8583,302.4567)"
           style="fill:none;stroke:#4c2c2c;stroke-opacity:1"><path
             d="m 0,0 c 0,-2.583 -2.094,-4.677 -4.677,-4.677 -2.583,0 -4.677,2.094 -4.677,4.677 0,2.583 2.094,4.677 4.677,4.677 C -2.094,4.677 0,2.583 0,0 Z"
             style="fill:none;stroke:#4c2c2c;stroke-width:0.28299999;stroke-linecap:butt;stroke-linejoin:miter;stroke-miterlimit:4;stroke-dasharray:none;stroke-opacity:1"
             id="path338"
             inkscape:connector-curvature="0" /></g><g
           id="g340"
           transform="translate(17.8583,13.1811)"
           style="fill:none;stroke:#4c2c2c;stroke-opacity:1"><path
             d="m 0,0 c 0,-2.583 -2.094,-4.677 -4.677,-4.677 -2.583,0 -4.677,2.094 -4.677,4.677 0,2.583 2.094,4.677 4.677,4.677 C -2.094,4.677 0,2.583 0,0 Z"
             style="fill:none;stroke:#4c2c2c;stroke-width:0.28299999;stroke-linecap:butt;stroke-linejoin:miter;stroke-miterlimit:4;stroke-dasharray:none;stroke-opacity:1"
             id="path342"
             inkscape:connector-curvature="0" /></g><g
           id="g344"
           transform="translate(16.1575,157.8189)"
           style="fill:none;stroke:#4c2c2c;stroke-opacity:1"><path
             d="m 0,0 c 0,-2.583 -2.094,-4.677 -4.677,-4.677 -2.583,0 -4.677,2.094 -4.677,4.677 0,2.583 2.094,4.677 4.677,4.677 C -2.094,4.677 0,2.583 0,0 Z"
             style="fill:none;stroke:#4c2c2c;stroke-width:0.28299999;stroke-linecap:butt;stroke-linejoin:miter;stroke-miterlimit:4;stroke-dasharray:none;stroke-opacity:1"
             id="path346"
             inkscape:connector-curvature="0" /></g><g
           id="g348"
           transform="translate(394.1575,304.1575)"
           style="fill:none;stroke:#4c2c2c;stroke-opacity:1"><path
             d="m 0,0 c 0,-2.583 -2.094,-4.677 -4.677,-4.677 -2.583,0 -4.677,2.094 -4.677,4.677 0,2.583 2.094,4.677 4.677,4.677 C -2.094,4.677 0,2.583 0,0 Z"
             style="fill:none;stroke:#4c2c2c;stroke-width:0.28299999;stroke-linecap:butt;stroke-linejoin:miter;stroke-miterlimit:4;stroke-dasharray:none;stroke-opacity:1"
             id="path350"
             inkscape:connector-curvature="0" /></g><g
           id="g352"
           transform="translate(205.0866,304.1575)"
           style="fill:none;stroke:#4c2c2c;stroke-opacity:1"><path
             d="m 0,0 c 0,-2.583 -2.094,-4.677 -4.677,-4.677 -2.583,0 -4.677,2.094 -4.677,4.677 0,2.583 2.094,4.677 4.677,4.677 C -2.094,4.677 0,2.583 0,0 Z"
             style="fill:none;stroke:#4c2c2c;stroke-width:0.28299999;stroke-linecap:butt;stroke-linejoin:miter;stroke-miterlimit:4;stroke-dasharray:none;stroke-opacity:1"
             id="path354"
             inkscape:connector-curvature="0" /></g><g
           id="g356"
           transform="translate(211.8898,11.4803)"
           style="fill:none;stroke:#4c2c2c;stroke-opacity:1"><path
             d="m 0,0 c 0,-2.583 -2.094,-4.677 -4.677,-4.677 -2.583,0 -4.677,2.094 -4.677,4.677 0,2.583 2.094,4.677 4.677,4.677 C -2.094,4.677 0,2.583 0,0 Z"
             style="fill:none;stroke:#4c2c2c;stroke-width:0.28299999;stroke-linecap:butt;stroke-linejoin:miter;stroke-miterlimit:4;stroke-dasharray:none;stroke-opacity:1"
             id="path358"
             inkscape:connector-curvature="0" /></g><g
           id="g360"
           transform="translate(407.6504,11.4803)"
           style="fill:none;stroke:#4c2c2c;stroke-opacity:1"><path
             d="m 0,0 c 0,-2.583 -2.094,-4.677 -4.677,-4.677 -2.583,0 -4.677,2.094 -4.677,4.677 0,2.583 2.094,4.677 4.677,4.677 C -2.094,4.677 0,2.583 0,0 Z"
             style="fill:none;stroke:#4c2c2c;stroke-width:0.28299999;stroke-linecap:butt;stroke-linejoin:miter;stroke-miterlimit:4;stroke-dasharray:none;stroke-opacity:1"
             id="path362"
             inkscape:connector-curvature="0" /></g></g></g><path
       id="path4310"
       style="fill:none;stroke:#4c2c2c;stroke-width:0.75px;stroke-linecap:butt;stroke-linejoin:miter;stroke-opacity:1"
       d="M 14.053749,191.99998 V 178.7092 h 8.883028 m -8.883029,56.04079 v 16.09613 h 8.617864 M 379.4871,238.8191 h 15.662 m 0,0 c 3.132,0 5.67,2.538 5.67,5.669 m 0,0 v 48.331 m 0,0 v 17.008 m 0,0 c 0,3.131 -2.538,5.669 -5.67,5.669 m 0,0 h -37.18257 m -53.77707,0 H 11.4801 c -6.262,0 -11.338,-5.077 -11.338,-11.339 v -69.41712 l -0.0224348,0.01 H 14.06836 m 8.750742,16.08786 v 41.98054 H 304.19817 m 53.82142,0 h 37.06651 l 0.26517,-46.14238 c 0.007,-1.25298 -1.015,-2.268 -2.268,-2.268 h -15.662 c -5.009,0 -9.33517,-6.24862 -9.33517,-11.25762 v -42.662 c 0,-5.01 4.061,-11.25862 9.071,-11.25862 h 2.161 c 1.252,0 2.267,-1.015 2.267,-2.267 v -40.47438 c 0,-5.009 4.061,-11.25761 9.07,-11.25761 h 15.662 c 1.252,0 2.268,-1.016 2.268,-2.269 V 22.8181 H 22.8191 v 155.88697 m -8.74878,13.29907 H 0.05983262 L 0.1421,192.00014 V 11.48026 c 0,-6.262 5.076,-11.338 11.338,-11.338 h 397.168 c 3.131,0 5.669,2.538 5.669,5.669 v 119.338 c 0,3.131 -2.538,5.67 -5.669,5.67 h -15.661 c -3.131,0 -5.669,2.538 -5.669,5.669 v 42.661 c 0,3.131 -2.538,5.67 -5.669,5.67 h -2.162 c -3.131,0 -5.669,2.538 -5.669,5.669 v 42.661 c 0,3.131 2.538,5.67 5.669,5.67 m -21.51427,76.7006 v -22.73639 m -53.78378,-0.054 v 22.78288"
       inkscape:connector-curvature="0"
       sodipodi:nodetypes="cccccccccccccccccccssccccccccssssssssssssccccccsssssssssssssccccc" /></g></svg>