<?xml version="1.0" encoding="UTF-8" standalone="no"?>
<!-- Created with Inkscape (http://www.inkscape.org/) -->

<svg
   xmlns:dc="http://purl.org/dc/elements/1.1/"
   xmlns:cc="http://creativecommons.org/ns#"
   xmlns:rdf="http://www.w3.org/1999/02/22-rdf-syntax-ns#"
   xmlns:svg="http://www.w3.org/2000/svg"
   xmlns="http://www.w3.org/2000/svg"
   xmlns:sodipodi="http://sodipodi.sourceforge.net/DTD/sodipodi-0.dtd"
   xmlns:inkscape="http://www.inkscape.org/namespaces/inkscape"
   version="1.1"
   id="svg2669"
   xml:space="preserve"
   width="180.18951mm"
   height="121.51447mm"
   viewBox="0 0 681.03126 459.26729"
   sodipodi:docname="middle-layer-right.svg"
   inkscape:version="0.92.4 5da689c313, 2019-01-14"><metadata
     id="metadata2675"><rdf:RDF><cc:Work
         rdf:about=""><dc:format>image/svg+xml</dc:format><dc:type
           rdf:resource="http://purl.org/dc/dcmitype/StillImage" /><dc:title></dc:title></cc:Work></rdf:RDF></metadata><defs
     id="defs2673"><inkscape:perspective
       sodipodi:type="inkscape:persp3d"
       inkscape:vp_x="0 : 210.42599 : 1"
       inkscape:vp_y="0 : 999.99997 : 0"
       inkscape:vp_z="1140.8507 : 210.42599 : 1"
       inkscape:persp3d-origin="570.42536 : 140.284 : 1"
       id="perspective4054" /><clipPath
       clipPathUnits="userSpaceOnUse"
       id="clipPath2929"><path
         d="M 0,315.639 H 855.638 V 0 H 0 Z"
         id="path2927"
         inkscape:connector-curvature="0" /></clipPath><clipPath
       clipPathUnits="userSpaceOnUse"
       id="clipPath2941"><path
         d="M 0,315.639 H 855.638 V 0 H 0 Z"
         id="path2939"
         inkscape:connector-curvature="0" /></clipPath><clipPath
       clipPathUnits="userSpaceOnUse"
       id="clipPath2953"><path
         d="M 0,315.639 H 855.638 V 0 H 0 Z"
         id="path2951"
         inkscape:connector-curvature="0" /></clipPath><clipPath
       clipPathUnits="userSpaceOnUse"
       id="clipPath2965"><path
         d="M 0,315.639 H 855.638 V 0 H 0 Z"
         id="path2963"
         inkscape:connector-curvature="0" /></clipPath><clipPath
       clipPathUnits="userSpaceOnUse"
       id="clipPath3001"><path
         d="M 0,315.639 H 855.638 V 0 H 0 Z"
         id="path2999"
         inkscape:connector-curvature="0" /></clipPath><clipPath
       clipPathUnits="userSpaceOnUse"
       id="clipPath3037"><path
         d="M 0,315.639 H 855.638 V 0 H 0 Z"
         id="path3035"
         inkscape:connector-curvature="0" /></clipPath><clipPath
       clipPathUnits="userSpaceOnUse"
       id="clipPath3073"><path
         d="M 0,315.639 H 855.638 V 0 H 0 Z"
         id="path3071"
         inkscape:connector-curvature="0" /></clipPath><clipPath
       clipPathUnits="userSpaceOnUse"
       id="clipPath3085"><path
         d="M 0,315.639 H 855.638 V 0 H 0 Z"
         id="path3083"
         inkscape:connector-curvature="0" /></clipPath></defs><sodipodi:namedview
     pagecolor="#ffffff"
     bordercolor="#666666"
     borderopacity="1"
     objecttolerance="10"
     gridtolerance="10"
     guidetolerance="10"
     inkscape:pageopacity="0"
     inkscape:pageshadow="2"
     inkscape:window-width="1366"
     inkscape:window-height="726"
     id="namedview2671"
     showgrid="false"
     showguides="true"
     inkscape:guide-bbox="true"
     inkscape:zoom="0.70710678"
     inkscape:cx="195.66077"
     inkscape:cy="272.32888"
     inkscape:window-x="0"
     inkscape:window-y="18"
     inkscape:window-maximized="0"
     inkscape:current-layer="g2677"
     fit-margin-top="5"
     fit-margin-left="5"
     fit-margin-right="5"
     fit-margin-bottom="5"
     units="mm" /><g
     id="g2677"
     inkscape:groupmode="layer"
     inkscape:label="quefrency-design"
     transform="matrix(1.3333333,0,0,-1.3333333,-479.02742,440.05989)"><g
       id="g2947"
       style="fill:none;stroke:#000000;stroke-opacity:1"><g
         id="g2949"
         clip-path="url(#clipPath2953)"
         style="fill:none;stroke:#000000;stroke-opacity:1"><g
           id="g2955"
           transform="translate(414.3178,5.8117)"
           style="fill:none;stroke:#000000;stroke-opacity:1" /></g></g><g
       id="g3031"
       style="fill:none;stroke:#000000;stroke-opacity:1"><g
         id="g3033"
         clip-path="url(#clipPath3037)"
         style="fill:none;stroke:#000000;stroke-opacity:1"><g
           id="g3039"
           transform="translate(638.7307,11.4803)"
           style="fill:none;stroke:#000000;stroke-opacity:1"><path
             d="m 0,0 c 0,-2.583 -2.094,-4.677 -4.677,-4.677 -2.583,0 -4.677,2.094 -4.677,4.677 0,2.583 2.094,4.677 4.677,4.677 C -2.094,4.677 0,2.583 0,0 Z"
             style="fill:none;stroke:#000000;stroke-width:0.28299999;stroke-linecap:butt;stroke-linejoin:miter;stroke-miterlimit:4;stroke-dasharray:none;stroke-opacity:1"
             id="path3041"
             inkscape:connector-curvature="0" /></g><g
           id="g3043"
           transform="translate(837.7795,302.4567)"
           style="fill:none;stroke:#000000;stroke-opacity:1"><path
             d="M 0,0 C 0,-2.583 2.094,-4.677 4.677,-4.677 7.26,-4.677 9.354,-2.583 9.354,0 9.354,2.583 7.26,4.677 4.677,4.677 2.094,4.677 0,2.583 0,0 Z"
             style="fill:none;stroke:#000000;stroke-width:0.28299999;stroke-linecap:butt;stroke-linejoin:miter;stroke-miterlimit:4;stroke-dasharray:none;stroke-opacity:1"
             id="path3045"
             inkscape:connector-curvature="0" /></g><g
           id="g3047"
           transform="translate(837.7795,13.1811)"
           style="fill:none;stroke:#000000;stroke-opacity:1"><path
             d="M 0,0 C 0,-2.583 2.094,-4.677 4.677,-4.677 7.26,-4.677 9.354,-2.583 9.354,0 9.354,2.583 7.26,4.677 4.677,4.677 2.094,4.677 0,2.583 0,0 Z"
             style="fill:none;stroke:#000000;stroke-width:0.28299999;stroke-linecap:butt;stroke-linejoin:miter;stroke-miterlimit:4;stroke-dasharray:none;stroke-opacity:1"
             id="path3049"
             inkscape:connector-curvature="0" /></g><g
           id="g3051"
           transform="translate(839.4803,157.8189)"
           style="fill:none;stroke:#000000;stroke-opacity:1"><path
             d="M 0,0 C 0,-2.583 2.094,-4.677 4.677,-4.677 7.26,-4.677 9.354,-2.583 9.354,0 9.354,2.583 7.26,4.677 4.677,4.677 2.094,4.677 0,2.583 0,0 Z"
             style="fill:none;stroke:#000000;stroke-width:0.28299999;stroke-linecap:butt;stroke-linejoin:miter;stroke-miterlimit:4;stroke-dasharray:none;stroke-opacity:1"
             id="path3053"
             inkscape:connector-curvature="0" /></g><g
           id="g3055"
           transform="translate(416.8347,304.1575)"
           style="fill:none;stroke:#000000;stroke-opacity:1"><path
             d="m 0,0 c 0,-2.583 -2.094,-4.677 -4.677,-4.677 -2.583,0 -4.677,2.094 -4.677,4.677 0,2.583 2.094,4.677 4.677,4.677 C -2.094,4.677 0,2.583 0,0 Z"
             style="fill:none;stroke:#000000;stroke-width:0.28299999;stroke-linecap:butt;stroke-linejoin:miter;stroke-miterlimit:4;stroke-dasharray:none;stroke-opacity:1"
             id="path3057"
             inkscape:connector-curvature="0" /></g><g
           id="g3059"
           transform="translate(430.3275,11.4803)"
           style="fill:none;stroke:#000000;stroke-opacity:1"><path
             d="m 0,0 c 0,-2.583 -2.094,-4.677 -4.677,-4.677 -2.583,0 -4.677,2.094 -4.677,4.677 0,2.583 2.094,4.677 4.677,4.677 C -2.094,4.677 0,2.583 0,0 Z"
             style="fill:none;stroke:#000000;stroke-width:0.28299999;stroke-linecap:butt;stroke-linejoin:miter;stroke-miterlimit:4;stroke-dasharray:none;stroke-opacity:1"
             id="path3061"
             inkscape:connector-curvature="0" /></g><g
           id="g3063"
           transform="translate(622.6299,304.1588)"
           style="fill:none;stroke:#000000;stroke-opacity:1"><path
             d="M 0,0 C 0,-2.583 2.094,-4.677 4.677,-4.677 7.26,-4.677 9.354,-2.583 9.354,0 9.354,2.583 7.26,4.677 4.677,4.677 2.094,4.677 0,2.583 0,0 Z"
             style="fill:none;stroke:#000000;stroke-width:0.28299999;stroke-linecap:butt;stroke-linejoin:miter;stroke-miterlimit:4;stroke-dasharray:none;stroke-opacity:1"
             id="path3065"
             inkscape:connector-curvature="0" /></g></g></g><g
       id="g3067"
       style="fill:none;stroke:#000000;stroke-opacity:1"><g
         id="g3069"
         clip-path="url(#clipPath3073)"
         style="fill:none;stroke:#000000;stroke-opacity:1"><g
           id="g3075"
           transform="translate(417.722,22.8196)"
           style="fill:none;stroke:#000000;stroke-opacity:1" /></g></g><g
       id="g3079"
       style="fill:none;stroke:#000000;stroke-opacity:1" /><path
       id="path6270"
       style="fill:none;stroke:#000000;stroke-width:0.75px;stroke-linecap:butt;stroke-linejoin:miter;stroke-opacity:1"
       d="m 729.46905,292.66408 v 5.91178 h 105.28097 m 0,-120.11977 h 6.1875 v 14.12004 m 14.55825,0.008 h -14.59111 m 0,39.05403 h 14.59111 M 834.75002,178.38979 V 22.8196 H 419.95787 l -0.003,102.332 c 0.14923,5.40452 -3.27641,11.27313 -9.071,11.27313 h -15.66 c -1.253,0 -2.269,1.016 -2.269,2.268 v 40.45887 c 0,5.34934 -2.56367,10.89812 -9.07,10.89812 h -2.161 c -1.253,0 -2.268,1.015 -2.268,2.267 v 38.59625 c 0,1.252 1.015,2.267 2.268,2.267 h 15.662 c 8.39388,0 9.07,6.39248 9.07,11.30863 v 48.331 h 35.9709 l -0.003,22.6771 m 392.32625,-69.7838 v 52.86296 M 729.4732,292.8196 H 494.47853 v 22.6771 M 855.4958,192.58389 V 11.4807 c 0,-6.262 -5.076,-11.338 -11.338,-11.338 h -424.168 c -3.131,0 -5.669,2.538 -5.669,5.669 h -0.003 v 119.339 c 0,3.131 -2.538,5.669 -5.669,5.669 h -15.661 c -3.131,0 -5.669,2.538 -5.669,5.669 v 42.662 c 0,3.131 -2.539,5.669 -5.67,5.669 h -2.161 c -3.131,0 -5.669,2.538 -5.669,5.669 v 42.662 c 0,3.131 2.538,5.669 5.669,5.669 h 15.662 c 3.131,0 5.669,2.538 5.669,5.669 v 48.331 17.008 c 0,3.131 2.539,5.669 5.67,5.669 h 35.09129 m 52.89844,0 H 844.1578 c 6.262,0 11.338,-5.076 11.338,-11.339 v -72.51978 m -20.74578,14.08084 h 6.1875 l -0.0329,-14.0806"
       inkscape:connector-curvature="0"
       sodipodi:nodetypes="ccccccccccccccssssssssssscccccccccsssccsssssssssssscssccsscccc" /></g></svg>