  0
SECTION
  2
HEADER
  9
$ACADVER
  1
AC1024
  9
$ACADMAINTVER
 70
     6
  9
$DWGCODEPAGE
  3
UNDEFINED
  9
$INSBASE
 10
0.0
 20
0.0
 30
0.0
  9
$EXTMIN
 10
1.000000000000000E+20
 20
1.000000000000000E+20
 30
1.000000000000000E+20
  9
$EXTMAX
 10
-1.000000000000000E+20
 20
-1.000000000000000E+20
 30
-1.000000000000000E+20
  9
$LIMMIN
 10
0.0
 20
0.0
  9
$LIMMAX
 10
12.0
 20
9.0
  9
$ORTHOMODE
 70
     0
  9
$REGENMODE
 70
     1
  9
$FILLMODE
 70
     1
  9
$QTEXTMODE
 70
     0
  9
$MIRRTEXT
 70
     1
  9
$LTSCALE
 40
1.0
  9
$ATTMODE
 70
     1
  9
$TEXTSIZE
 40
0.2
  9
$TRACEWID
 40
0.05
  9
$TEXTSTYLE
  7
Standard
  9
$CLAYER
  8
0
  9
$CELTYPE
  6
ByLayer
  9
$CECOLOR
 62
   256
  9
$CELTSCALE
 40
1.0
  9
$DISPSILH
 70
     0
  9
$DIMSCALE
 40
1.0
  9
$DIMASZ
 40
0.18
  9
$DIMEXO
 40
0.0625
  9
$DIMDLI
 40
0.38
  9
$DIMRND
 40
0.0
  9
$DIMDLE
 40
0.0
  9
$DIMEXE
 40
0.18
  9
$DIMTP
 40
0.0
  9
$DIMTM
 40
0.0
  9
$DIMTXT
 40
0.18
  9
$DIMCEN
 40
0.09
  9
$DIMTSZ
 40
0.0
  9
$DIMTOL
 70
     0
  9
$DIMLIM
 70
     0
  9
$DIMTIH
 70
     1
  9
$DIMTOH
 70
     1
  9
$DIMSE1
 70
     0
  9
$DIMSE2
 70
     0
  9
$DIMTAD
 70
     0
  9
$DIMZIN
 70
     0
  9
$DIMBLK
  1

  9
$DIMASO
 70
     1
  9
$DIMSHO
 70
     1
  9
$DIMPOST
  1

  9
$DIMAPOST
  1

  9
$DIMALT
 70
     0
  9
$DIMALTD
 70
     2
  9
$DIMALTF
 40
25.4
  9
$DIMLFAC
 40
1.0
  9
$DIMTOFL
 70
     0
  9
$DIMTVP
 40
0.0
  9
$DIMTIX
 70
     0
  9
$DIMSOXD
 70
     0
  9
$DIMSAH
 70
     0
  9
$DIMBLK1
  1

  9
$DIMBLK2
  1

  9
$DIMSTYLE
  2
Standard
  9
$DIMCLRD
 70
     0
  9
$DIMCLRE
 70
     0
  9
$DIMCLRT
 70
     0
  9
$DIMTFAC
 40
1.0
  9
$DIMGAP
 40
0.09
  9
$DIMJUST
 70
     0
  9
$DIMSD1
 70
     0
  9
$DIMSD2
 70
     0
  9
$DIMTOLJ
 70
     1
  9
$DIMTZIN
 70
     0
  9
$DIMALTZ
 70
     0
  9
$DIMALTTZ
 70
     0
  9
$DIMUPT
 70
     0
  9
$DIMDEC
 70
     4
  9
$DIMTDEC
 70
     4
  9
$DIMALTU
 70
     2
  9
$DIMALTTD
 70
     2
  9
$DIMTXSTY
  7
Standard
  9
$DIMAUNIT
 70
     0
  9
$DIMADEC
 70
     0
  9
$DIMALTRND
 40
0.0
  9
$DIMAZIN
 70
     0
  9
$DIMDSEP
 70
    46
  9
$DIMATFIT
 70
     3
  9
$DIMFRAC
 70
     0
  9
$DIMLDRBLK
  1

  9
$DIMLUNIT
 70
     2
  9
$DIMLWD
 70
    -2
  9
$DIMLWE
 70
    -2
  9
$DIMTMOVE
 70
     0
  9
$DIMFXL
 40
1.0
  9
$DIMFXLON
 70
     0
  9
$DIMJOGANG
 40
0.7853981633974483
  9
$DIMTFILL
 70
     0
  9
$DIMTFILLCLR
 70
     0
  9
$DIMARCSYM
 70
     0
  9
$DIMLTYPE
  6

  9
$DIMLTEX1
  6

  9
$DIMLTEX2
  6

  9
$DIMTXTDIRECTION
 70
     0
  9
$LUNITS
 70
     2
  9
$LUPREC
 70
     4
  9
$SKETCHINC
 40
0.1
  9
$FILLETRAD
 40
0.5
  9
$AUNITS
 70
     0
  9
$AUPREC
 70
     0
  9
$MENU
  1
.
  9
$ELEVATION
 40
0.0
  9
$PELEVATION
 40
0.0
  9
$THICKNESS
 40
0.0
  9
$LIMCHECK
 70
     0
  9
$CHAMFERA
 40
0.5
  9
$CHAMFERB
 40
0.5
  9
$CHAMFERC
 40
1.0
  9
$CHAMFERD
 40
0.0
  9
$SKPOLY
 70
     0
  9
$TDCREATE
 40
2459073.536643507
  9
$TDUCREATE
 40
2459073.744976852
  9
$TDUPDATE
 40
2459073.536643507
  9
$TDUUPDATE
 40
2459073.744976852
  9
$TDINDWG
 40
0.0000000116
  9
$TDUSRTIMER
 40
0.0000000116
  9
$USRTIMER
 70
     1
  9
$ANGBASE
 50
0.0
  9
$ANGDIR
 70
     0
  9
$PDMODE
 70
     0
  9
$PDSIZE
 40
0.0
  9
$PLINEWID
 40
0.0
  9
$SPLFRAME
 70
     0
  9
$SPLINETYPE
 70
     6
  9
$SPLINESEGS
 70
     8
  9
$HANDSEED
  5
1E0
  9
$SURFTAB1
 70
     6
  9
$SURFTAB2
 70
     6
  9
$SURFTYPE
 70
     6
  9
$SURFU
 70
     6
  9
$SURFV
 70
     6
  9
$UCSBASE
  2

  9
$UCSNAME
  2

  9
$UCSORG
 10
0.0
 20
0.0
 30
0.0
  9
$UCSXDIR
 10
1.0
 20
0.0
 30
0.0
  9
$UCSYDIR
 10
0.0
 20
1.0
 30
0.0
  9
$UCSORTHOREF
  2

  9
$UCSORTHOVIEW
 70
     0
  9
$UCSORGTOP
 10
0.0
 20
0.0
 30
0.0
  9
$UCSORGBOTTOM
 10
0.0
 20
0.0
 30
0.0
  9
$UCSORGLEFT
 10
0.0
 20
0.0
 30
0.0
  9
$UCSORGRIGHT
 10
0.0
 20
0.0
 30
0.0
  9
$UCSORGFRONT
 10
0.0
 20
0.0
 30
0.0
  9
$UCSORGBACK
 10
0.0
 20
0.0
 30
0.0
  9
$PUCSBASE
  2

  9
$PUCSNAME
  2

  9
$PUCSORG
 10
0.0
 20
0.0
 30
0.0
  9
$PUCSXDIR
 10
1.0
 20
0.0
 30
0.0
  9
$PUCSYDIR
 10
0.0
 20
1.0
 30
0.0
  9
$PUCSORTHOREF
  2

  9
$PUCSORTHOVIEW
 70
     0
  9
$PUCSORGTOP
 10
0.0
 20
0.0
 30
0.0
  9
$PUCSORGBOTTOM
 10
0.0
 20
0.0
 30
0.0
  9
$PUCSORGLEFT
 10
0.0
 20
0.0
 30
0.0
  9
$PUCSORGRIGHT
 10
0.0
 20
0.0
 30
0.0
  9
$PUCSORGFRONT
 10
0.0
 20
0.0
 30
0.0
  9
$PUCSORGBACK
 10
0.0
 20
0.0
 30
0.0
  9
$USERI1
 70
     0
  9
$USERI2
 70
     0
  9
$USERI3
 70
     0
  9
$USERI4
 70
     0
  9
$USERI5
 70
     0
  9
$USERR1
 40
0.0
  9
$USERR2
 40
0.0
  9
$USERR3
 40
0.0
  9
$USERR4
 40
0.0
  9
$USERR5
 40
0.0
  9
$WORLDVIEW
 70
     1
  9
$SHADEDGE
 70
     3
  9
$SHADEDIF
 70
    70
  9
$TILEMODE
 70
     1
  9
$MAXACTVP
 70
    64
  9
$PINSBASE
 10
0.0
 20
0.0
 30
0.0
  9
$PLIMCHECK
 70
     0
  9
$PEXTMIN
 10
1.000000000000000E+20
 20
1.000000000000000E+20
 30
1.000000000000000E+20
  9
$PEXTMAX
 10
-1.000000000000000E+20
 20
-1.000000000000000E+20
 30
-1.000000000000000E+20
  9
$PLIMMIN
 10
0.0
 20
0.0
  9
$PLIMMAX
 10
12.0
 20
9.0
  9
$UNITMODE
 70
     0
  9
$VISRETAIN
 70
     1
  9
$PLINEGEN
 70
     0
  9
$PSLTSCALE
 70
     1
  9
$TREEDEPTH
 70
  3020
  9
$CMLSTYLE
  2
Standard
  9
$CMLJUST
 70
     0
  9
$CMLSCALE
 40
1.0
  9
$PROXYGRAPHICS
 70
     1
  9
$MEASUREMENT
 70
     0
  9
$CELWEIGHT
370
    -1
  9
$ENDCAPS
280
     0
  9
$JOINSTYLE
280
     0
  9
$LWDISPLAY
290
     1
  9
$INSUNITS
 70
     1
  9
$HYPERLINKBASE
  1

  9
$STYLESHEET
  1

  9
$XEDIT
290
     1
  9
$CEPSNTYPE
380
     0
  9
$PSTYLEMODE
290
     1
  9
$FINGERPRINTGUID
  2
{9662B3FC-E9F7-3A84-97C5-A1B173C16FE9}
  9
$VERSIONGUID
  2
{FAEB1C32-E019-11D5-929B-00C0DF256EC4}
  9
$EXTNAMES
290
     1
  9
$PSVPSCALE
 40
0.0
  9
$OLESTARTUP
290
     0
  9
$SORTENTS
280
   127
  9
$INDEXCTL
280
     0
  9
$HIDETEXT
280
     1
  9
$XCLIPFRAME
280
     2
  9
$HALOGAP
280
     0
  9
$OBSCOLOR
 70
   257
  9
$OBSLTYPE
280
     0
  9
$INTERSECTIONDISPLAY
280
     0
  9
$INTERSECTIONCOLOR
 70
   257
  9
$DIMASSOC
280
     2
  9
$PROJECTNAME
  1

  9
$CAMERADISPLAY
290
     0
  9
$LENSLENGTH
 40
50.0
  9
$CAMERAHEIGHT
 40
0.0
  9
$STEPSPERSEC
 40
2.0
  9
$STEPSIZE
 40
6.0
  9
$3DDWFPREC
 40
2.0
  9
$PSOLWIDTH
 40
0.25
  9
$PSOLHEIGHT
 40
4.0
  9
$LOFTANG1
 40
1.570796326794897
  9
$LOFTANG2
 40
1.570796326794897
  9
$LOFTMAG1
 40
0.0
  9
$LOFTMAG2
 40
0.0
  9
$LOFTPARAM
 70
     7
  9
$LOFTNORMALS
280
     1
  9
$LATITUDE
 40
37.795
  9
$LONGITUDE
 40
-122.394
  9
$NORTHDIRECTION
 40
0.0
  9
$TIMEZONE
 70
 -8000
  9
$LIGHTGLYPHDISPLAY
280
     1
  9
$TILEMODELIGHTSYNCH
280
     1
  9
$CMATERIAL
347
3C
  9
$SOLIDHIST
280
     1
  9
$SHOWHIST
280
     1
  9
$DWFFRAME
280
     2
  9
$DGNFRAME
280
     2
  9
$REALWORLDSCALE
290
     1
  9
$INTERFERECOLOR
 62
   256
  9
$CSHADOW
280
     0
  9
$SHADOWPLANELOCATION
 40
0.0
  0
ENDSEC
  0
SECTION
  2
CLASSES
  0
CLASS
  1
ACDBDICTIONARYWDFLT
  2
AcDbDictionaryWithDefault
  3
ObjectDBX Classes
 90
        0
 91
        4
280
     0
281
     0
  0
CLASS
  1
VISUALSTYLE
  2
AcDbVisualStyle
  3
ObjectDBX Classes
 90
     4095
 91
        4
280
     0
281
     0
  0
CLASS
  1
MATERIAL
  2
AcDbMaterial
  3
ObjectDBX Classes
 90
     1153
 91
        4
280
     0
281
     0
  0
CLASS
  1
SUN
  2
AcDbSun
  3
SCENEOE
 90
     1024
 91
        4
280
     0
281
     0
  0
ENDSEC
  0
SECTION
  2
TABLES
  0
TABLE
  2
VPORT
  5
8
330
0
100
AcDbSymbolTable
 70
     1
  0
VPORT
  5
29
330
8
100
AcDbSymbolTableRecord
100
AcDbViewportTableRecord
  2
*Active
 70
     0
 10
0.0
 20
0.0
 11
1.0
 21
1.0
 12
0.0
 22
0.0
 13
0.0
 23
0.0
 14
0.5
 24
0.5
 15
0.5
 25
0.5
 16
0.0
 26
0.0
 36
1.0
 17
149.3558243306979
 27
-107.9828652347437
 37
0.0
 40
111.4998846904508
 41
1.440806023415748
 42
50.0
 43
0.0
 44
0.0
 50
0.0
 51
0.0
 71
     0
 72
   100
 73
     1
 74
     3
 75
     0
 76
     0
 77
     0
 78
     0
281
     0
 65
     1
110
0.0
120
0.0
130
0.0
111
1.0
121
0.0
131
0.0
112
0.0
122
1.0
132
0.0
 79
     0
146
0.0
 60
     3
 61
     5
292
     1
282
     1
141
0.0
142
0.0
 63
   250
361
3F
  0
ENDTAB
  0
TABLE
  2
LTYPE
  5
5
330
0
100
AcDbSymbolTable
 70
     1
  0
LTYPE
  5
14
330
5
100
AcDbSymbolTableRecord
100
AcDbLinetypeTableRecord
  2
ByBlock
 70
     0
  3

 72
    65
 73
     0
 40
0.0
  0
LTYPE
  5
15
330
5
100
AcDbSymbolTableRecord
100
AcDbLinetypeTableRecord
  2
ByLayer
 70
     0
  3

 72
    65
 73
     0
 40
0.0
  0
LTYPE
  5
16
330
5
100
AcDbSymbolTableRecord
100
AcDbLinetypeTableRecord
  2
Continuous
 70
     0
  3
Solid line
 72
    65
 73
     0
 40
0.0
  0
ENDTAB
  0
TABLE
  2
LAYER
  5
2
330
0
100
AcDbSymbolTable
 70
     2
  0
LAYER
  5
10
330
2
100
AcDbSymbolTableRecord
100
AcDbLayerTableRecord
  2
0
 70
     0
 62
     7
  6
Continuous
370
    -3
390
F
347
3E
  0
LAYER
  5
40
330
2
100
AcDbSymbolTableRecord
100
AcDbLayerTableRecord
  2
Layer 1
 70
     0
 62
     7
  6
Continuous
370
    -3
390
F
347
3E
  0
ENDTAB
  0
TABLE
  2
STYLE
  5
3
330
0
100
AcDbSymbolTable
 70
     1
  0
STYLE
  5
11
330
3
100
AcDbSymbolTableRecord
100
AcDbTextStyleTableRecord
  2
Standard
 70
     0
 40
0.0
 41
1.0
 50
0.0
 71
     0
 42
0.2
  3
txt
  4

  0
ENDTAB
  0
TABLE
  2
VIEW
  5
6
330
0
100
AcDbSymbolTable
 70
     0
  0
ENDTAB
  0
TABLE
  2
UCS
  5
7
330
0
100
AcDbSymbolTable
 70
     0
  0
ENDTAB
  0
TABLE
  2
APPID
  5
9
330
0
100
AcDbSymbolTable
 70
     1
  0
APPID
  5
12
330
9
100
AcDbSymbolTableRecord
100
AcDbRegAppTableRecord
  2
ACAD
 70
     0
  0
ENDTAB
  0
TABLE
  2
DIMSTYLE
  5
A
330
0
100
AcDbSymbolTable
 70
     1
100
AcDbDimStyleTable
  0
DIMSTYLE
105
27
330
A
100
AcDbSymbolTableRecord
100
AcDbDimStyleTableRecord
  2
Standard
 70
     0
178
     0
340
11
  0
ENDTAB
  0
TABLE
  2
BLOCK_RECORD
  5
1
330
0
100
AcDbSymbolTable
 70
    25
  0
BLOCK_RECORD
  5
1F
330
1
100
AcDbSymbolTableRecord
100
AcDbBlockTableRecord
  2
*Model_Space
340
22
 70
     0
280
     1
281
     0
  0
BLOCK_RECORD
  5
1B
330
1
100
AcDbSymbolTableRecord
100
AcDbBlockTableRecord
  2
*Paper_Space
340
1E
 70
     0
280
     1
281
     0
  0
BLOCK_RECORD
  5
23
330
1
100
AcDbSymbolTableRecord
100
AcDbBlockTableRecord
  2
*Paper_Space0
340
26
 70
     0
280
     1
281
     0
  0
BLOCK_RECORD
  5
42
330
1
100
AcDbSymbolTableRecord
100
AcDbBlockTableRecord
  2
block 2
340
0
102
{BLKREFS
331
43
102
}
 70
     0
280
     1
281
     0
  0
BLOCK_RECORD
  5
4D
330
1
100
AcDbSymbolTableRecord
100
AcDbBlockTableRecord
  2
block 3
340
0
102
{BLKREFS
331
4E
102
}
 70
     0
280
     1
281
     0
  0
BLOCK_RECORD
  5
58
330
1
100
AcDbSymbolTableRecord
100
AcDbBlockTableRecord
  2
block 4
340
0
102
{BLKREFS
331
59
102
}
 70
     0
280
     1
281
     0
  0
BLOCK_RECORD
  5
63
330
1
100
AcDbSymbolTableRecord
100
AcDbBlockTableRecord
  2
block 5
340
0
102
{BLKREFS
331
64
102
}
 70
     0
280
     1
281
     0
  0
BLOCK_RECORD
  5
6E
330
1
100
AcDbSymbolTableRecord
100
AcDbBlockTableRecord
  2
block 6
340
0
102
{BLKREFS
331
6F
102
}
 70
     0
280
     1
281
     0
  0
BLOCK_RECORD
  5
79
330
1
100
AcDbSymbolTableRecord
100
AcDbBlockTableRecord
  2
block 7
340
0
102
{BLKREFS
331
7A
102
}
 70
     0
280
     1
281
     0
  0
BLOCK_RECORD
  5
84
330
1
100
AcDbSymbolTableRecord
100
AcDbBlockTableRecord
  2
block 8
340
0
102
{BLKREFS
331
85
102
}
 70
     0
280
     1
281
     0
  0
BLOCK_RECORD
  5
8F
330
1
100
AcDbSymbolTableRecord
100
AcDbBlockTableRecord
  2
block 9
340
0
102
{BLKREFS
331
90
102
}
 70
     0
280
     1
281
     0
  0
BLOCK_RECORD
  5
9A
330
1
100
AcDbSymbolTableRecord
100
AcDbBlockTableRecord
  2
block 10
340
0
102
{BLKREFS
331
9B
102
}
 70
     0
280
     1
281
     0
  0
BLOCK_RECORD
  5
A5
330
1
100
AcDbSymbolTableRecord
100
AcDbBlockTableRecord
  2
block 11
340
0
102
{BLKREFS
331
A6
102
}
 70
     0
280
     1
281
     0
  0
BLOCK_RECORD
  5
B0
330
1
100
AcDbSymbolTableRecord
100
AcDbBlockTableRecord
  2
block 12
340
0
102
{BLKREFS
331
B1
102
}
 70
     0
280
     1
281
     0
  0
BLOCK_RECORD
  5
BB
330
1
100
AcDbSymbolTableRecord
100
AcDbBlockTableRecord
  2
block 13
340
0
102
{BLKREFS
331
BC
102
}
 70
     0
280
     1
281
     0
  0
BLOCK_RECORD
  5
C6
330
1
100
AcDbSymbolTableRecord
100
AcDbBlockTableRecord
  2
block 14
340
0
102
{BLKREFS
331
C7
102
}
 70
     0
280
     1
281
     0
  0
BLOCK_RECORD
  5
D1
330
1
100
AcDbSymbolTableRecord
100
AcDbBlockTableRecord
  2
block 15
340
0
102
{BLKREFS
331
D2
102
}
 70
     0
280
     1
281
     0
  0
BLOCK_RECORD
  5
DC
330
1
100
AcDbSymbolTableRecord
100
AcDbBlockTableRecord
  2
block 16
340
0
102
{BLKREFS
331
DD
102
}
 70
     0
280
     1
281
     0
  0
BLOCK_RECORD
  5
E7
330
1
100
AcDbSymbolTableRecord
100
AcDbBlockTableRecord
  2
block 17
340
0
102
{BLKREFS
331
E8
102
}
 70
     0
280
     1
281
     0
  0
BLOCK_RECORD
  5
F2
330
1
100
AcDbSymbolTableRecord
100
AcDbBlockTableRecord
  2
block 18
340
0
102
{BLKREFS
331
F3
102
}
 70
     0
280
     1
281
     0
  0
BLOCK_RECORD
  5
FD
330
1
100
AcDbSymbolTableRecord
100
AcDbBlockTableRecord
  2
block 19
340
0
102
{BLKREFS
331
FE
102
}
 70
     0
280
     1
281
     0
  0
BLOCK_RECORD
  5
108
330
1
100
AcDbSymbolTableRecord
100
AcDbBlockTableRecord
  2
block 20
340
0
102
{BLKREFS
331
109
102
}
 70
     0
280
     1
281
     0
  0
BLOCK_RECORD
  5
136
330
1
100
AcDbSymbolTableRecord
100
AcDbBlockTableRecord
  2
block 21
340
0
102
{BLKREFS
331
137
102
}
 70
     0
280
     1
281
     0
  0
BLOCK_RECORD
  5
141
330
1
100
AcDbSymbolTableRecord
100
AcDbBlockTableRecord
  2
block 22
340
0
102
{BLKREFS
331
142
102
}
 70
     0
280
     1
281
     0
  0
BLOCK_RECORD
  5
14C
330
1
100
AcDbSymbolTableRecord
100
AcDbBlockTableRecord
  2
block 23
340
0
102
{BLKREFS
331
14D
102
}
 70
     0
280
     1
281
     0
  0
BLOCK_RECORD
  5
157
330
1
100
AcDbSymbolTableRecord
100
AcDbBlockTableRecord
  2
block 24
340
0
102
{BLKREFS
331
158
102
}
 70
     0
280
     1
281
     0
  0
BLOCK_RECORD
  5
16D
330
1
100
AcDbSymbolTableRecord
100
AcDbBlockTableRecord
  2
block 25
340
0
102
{BLKREFS
331
16E
102
}
 70
     0
280
     1
281
     0
  0
ENDTAB
  0
ENDSEC
  0
SECTION
  2
BLOCKS
  0
BLOCK
  5
20
330
1F
100
AcDbEntity
  8
0
100
AcDbBlockBegin
  2
*Model_Space
 70
     0
 10
0.0
 20
0.0
 30
0.0
  3
*Model_Space
  1

  0
ENDBLK
  5
21
330
1F
100
AcDbEntity
  8
0
100
AcDbBlockEnd
  0
BLOCK
  5
1C
330
1B
100
AcDbEntity
 67
     1
  8
0
100
AcDbBlockBegin
  2
*Paper_Space
 70
     0
 10
0.0
 20
0.0
 30
0.0
  3
*Paper_Space
  1

  0
ENDBLK
  5
1D
330
1B
100
AcDbEntity
 67
     1
  8
0
100
AcDbBlockEnd
  0
BLOCK
  5
24
330
23
100
AcDbEntity
  8
0
100
AcDbBlockBegin
  2
*Paper_Space0
 70
     0
 10
0.0
 20
0.0
 30
0.0
  3
*Paper_Space0
  1

  0
ENDBLK
  5
25
330
23
100
AcDbEntity
  8
0
100
AcDbBlockEnd
  0
BLOCK
  5
44
330
42
100
AcDbEntity
  8
0
100
AcDbBlockBegin
  2
block 2
 70
     0
 10
0.0
 20
0.0
 30
0.0
  3
block 2
  1

  0
POLYLINE
  5
46
330
42
100
AcDbEntity
  8
Layer 1
 62
     7
420
 16777215
370
    25
100
AcDb2dPolyline
 66
     1
 10
0.0
 20
0.0
 30
0.0
  0
VERTEX
  5
47
330
46
100
AcDbEntity
  8
Layer 1
 62
     7
420
 16777215
370
    25
100
AcDbVertex
100
AcDb2dVertex
 10
76.1531792433101
 20
-76.90510766029352
 30
0.0
  0
VERTEX
  5
48
330
46
100
AcDbEntity
  8
Layer 1
 62
     7
420
 16777215
370
    25
100
AcDbVertex
100
AcDb2dVertex
 10
90.15317924330996
 20
-76.90510766029352
 30
0.0
  0
VERTEX
  5
49
330
46
100
AcDbEntity
  8
Layer 1
 62
     7
420
 16777215
370
    25
100
AcDbVertex
100
AcDb2dVertex
 10
90.15317924330996
 20
-62.90510766029335
 30
0.0
  0
VERTEX
  5
4A
330
46
100
AcDbEntity
  8
Layer 1
 62
     7
420
 16777215
370
    25
100
AcDbVertex
100
AcDb2dVertex
 10
76.1531792433101
 20
-62.90510766029335
 30
0.0
  0
VERTEX
  5
4B
330
46
100
AcDbEntity
  8
Layer 1
 62
     7
420
 16777215
370
    25
100
AcDbVertex
100
AcDb2dVertex
 10
76.1531792433101
 20
-76.90510766029352
 30
0.0
  0
SEQEND
  5
4C
330
46
100
AcDbEntity
  8
Layer 1
 62
     7
420
 16777215
370
    25
  0
ENDBLK
  5
45
330
42
100
AcDbEntity
  8
0
100
AcDbBlockEnd
  0
BLOCK
  5
4F
330
4D
100
AcDbEntity
  8
0
100
AcDbBlockBegin
  2
block 3
 70
     0
 10
0.0
 20
0.0
 30
0.0
  3
block 3
  1

  0
POLYLINE
  5
51
330
4D
100
AcDbEntity
  8
Layer 1
 62
     7
420
 16777215
370
    25
100
AcDb2dPolyline
 66
     1
 10
0.0
 20
0.0
 30
0.0
  0
VERTEX
  5
52
330
51
100
AcDbEntity
  8
Layer 1
 62
     7
420
 16777215
370
    25
100
AcDbVertex
100
AcDb2dVertex
 10
95.20317923854762
 20
-76.90510766029352
 30
0.0
  0
VERTEX
  5
53
330
51
100
AcDbEntity
  8
Layer 1
 62
     7
420
 16777215
370
    25
100
AcDbVertex
100
AcDb2dVertex
 10
109.2031792385478
 20
-76.90510766029352
 30
0.0
  0
VERTEX
  5
54
330
51
100
AcDbEntity
  8
Layer 1
 62
     7
420
 16777215
370
    25
100
AcDbVertex
100
AcDb2dVertex
 10
109.2031792385478
 20
-62.90510766029335
 30
0.0
  0
VERTEX
  5
55
330
51
100
AcDbEntity
  8
Layer 1
 62
     7
420
 16777215
370
    25
100
AcDbVertex
100
AcDb2dVertex
 10
95.20317923854762
 20
-62.90510766029335
 30
0.0
  0
VERTEX
  5
56
330
51
100
AcDbEntity
  8
Layer 1
 62
     7
420
 16777215
370
    25
100
AcDbVertex
100
AcDb2dVertex
 10
95.20317923854762
 20
-76.90510766029352
 30
0.0
  0
SEQEND
  5
57
330
51
100
AcDbEntity
  8
Layer 1
 62
     7
420
 16777215
370
    25
  0
ENDBLK
  5
50
330
4D
100
AcDbEntity
  8
0
100
AcDbBlockEnd
  0
BLOCK
  5
5A
330
58
100
AcDbEntity
  8
0
100
AcDbBlockBegin
  2
block 4
 70
     0
 10
0.0
 20
0.0
 30
0.0
  3
block 4
  1

  0
POLYLINE
  5
5C
330
58
100
AcDbEntity
  8
Layer 1
 62
     7
420
 16777215
370
    25
100
AcDb2dPolyline
 66
     1
 10
0.0
 20
0.0
 30
0.0
  0
VERTEX
  5
5D
330
5C
100
AcDbEntity
  8
Layer 1
 62
     7
420
 16777215
370
    25
100
AcDbVertex
100
AcDb2dVertex
 10
114.2531792337848
 20
-76.90510766029352
 30
0.0
  0
VERTEX
  5
5E
330
5C
100
AcDbEntity
  8
Layer 1
 62
     7
420
 16777215
370
    25
100
AcDbVertex
100
AcDb2dVertex
 10
128.2531792337853
 20
-76.90510766029352
 30
0.0
  0
VERTEX
  5
5F
330
5C
100
AcDbEntity
  8
Layer 1
 62
     7
420
 16777215
370
    25
100
AcDbVertex
100
AcDb2dVertex
 10
128.2531792337853
 20
-62.90510766029335
 30
0.0
  0
VERTEX
  5
60
330
5C
100
AcDbEntity
  8
Layer 1
 62
     7
420
 16777215
370
    25
100
AcDbVertex
100
AcDb2dVertex
 10
114.2531792337848
 20
-62.90510766029335
 30
0.0
  0
VERTEX
  5
61
330
5C
100
AcDbEntity
  8
Layer 1
 62
     7
420
 16777215
370
    25
100
AcDbVertex
100
AcDb2dVertex
 10
114.2531792337848
 20
-76.90510766029352
 30
0.0
  0
SEQEND
  5
62
330
5C
100
AcDbEntity
  8
Layer 1
 62
     7
420
 16777215
370
    25
  0
ENDBLK
  5
5B
330
58
100
AcDbEntity
  8
0
100
AcDbBlockEnd
  0
BLOCK
  5
65
330
63
100
AcDbEntity
  8
0
100
AcDbBlockBegin
  2
block 5
 70
     0
 10
0.0
 20
0.0
 30
0.0
  3
block 5
  1

  0
POLYLINE
  5
67
330
63
100
AcDbEntity
  8
Layer 1
 62
     7
420
 16777215
370
    25
100
AcDb2dPolyline
 66
     1
 10
0.0
 20
0.0
 30
0.0
  0
VERTEX
  5
68
330
67
100
AcDbEntity
  8
Layer 1
 62
     7
420
 16777215
370
    25
100
AcDbVertex
100
AcDb2dVertex
 10
133.3031792290223
 20
-76.90510766029352
 30
0.0
  0
VERTEX
  5
69
330
67
100
AcDbEntity
  8
Layer 1
 62
     7
420
 16777215
370
    25
100
AcDbVertex
100
AcDb2dVertex
 10
147.3031792290228
 20
-76.90510766029352
 30
0.0
  0
VERTEX
  5
6A
330
67
100
AcDbEntity
  8
Layer 1
 62
     7
420
 16777215
370
    25
100
AcDbVertex
100
AcDb2dVertex
 10
147.3031792290228
 20
-62.90510766029335
 30
0.0
  0
VERTEX
  5
6B
330
67
100
AcDbEntity
  8
Layer 1
 62
     7
420
 16777215
370
    25
100
AcDbVertex
100
AcDb2dVertex
 10
133.3031792290223
 20
-62.90510766029335
 30
0.0
  0
VERTEX
  5
6C
330
67
100
AcDbEntity
  8
Layer 1
 62
     7
420
 16777215
370
    25
100
AcDbVertex
100
AcDb2dVertex
 10
133.3031792290223
 20
-76.90510766029352
 30
0.0
  0
SEQEND
  5
6D
330
67
100
AcDbEntity
  8
Layer 1
 62
     7
420
 16777215
370
    25
  0
ENDBLK
  5
66
330
63
100
AcDbEntity
  8
0
100
AcDbBlockEnd
  0
BLOCK
  5
70
330
6E
100
AcDbEntity
  8
0
100
AcDbBlockBegin
  2
block 6
 70
     0
 10
0.0
 20
0.0
 30
0.0
  3
block 6
  1

  0
POLYLINE
  5
72
330
6E
100
AcDbEntity
  8
Layer 1
 62
     7
420
 16777215
370
    25
100
AcDb2dPolyline
 66
     1
 10
0.0
 20
0.0
 30
0.0
  0
VERTEX
  5
73
330
72
100
AcDbEntity
  8
Layer 1
 62
     7
420
 16777215
370
    25
100
AcDbVertex
100
AcDb2dVertex
 10
152.3531792242598
 20
-76.90510766029352
 30
0.0
  0
VERTEX
  5
74
330
72
100
AcDbEntity
  8
Layer 1
 62
     7
420
 16777215
370
    25
100
AcDbVertex
100
AcDb2dVertex
 10
166.3531792242603
 20
-76.90510766029352
 30
0.0
  0
VERTEX
  5
75
330
72
100
AcDbEntity
  8
Layer 1
 62
     7
420
 16777215
370
    25
100
AcDbVertex
100
AcDb2dVertex
 10
166.3531792242603
 20
-62.90510766029335
 30
0.0
  0
VERTEX
  5
76
330
72
100
AcDbEntity
  8
Layer 1
 62
     7
420
 16777215
370
    25
100
AcDbVertex
100
AcDb2dVertex
 10
152.3531792242598
 20
-62.90510766029335
 30
0.0
  0
VERTEX
  5
77
330
72
100
AcDbEntity
  8
Layer 1
 62
     7
420
 16777215
370
    25
100
AcDbVertex
100
AcDb2dVertex
 10
152.3531792242598
 20
-76.90510766029352
 30
0.0
  0
SEQEND
  5
78
330
72
100
AcDbEntity
  8
Layer 1
 62
     7
420
 16777215
370
    25
  0
ENDBLK
  5
71
330
6E
100
AcDbEntity
  8
0
100
AcDbBlockEnd
  0
BLOCK
  5
7B
330
79
100
AcDbEntity
  8
0
100
AcDbBlockBegin
  2
block 7
 70
     0
 10
0.0
 20
0.0
 30
0.0
  3
block 7
  1

  0
POLYLINE
  5
7D
330
79
100
AcDbEntity
  8
Layer 1
 62
     7
420
 16777215
370
    25
100
AcDb2dPolyline
 66
     1
 10
0.0
 20
0.0
 30
0.0
  0
VERTEX
  5
7E
330
7D
100
AcDbEntity
  8
Layer 1
 62
     7
420
 16777215
370
    25
100
AcDbVertex
100
AcDb2dVertex
 10
171.4031792194973
 20
-76.90510766029352
 30
0.0
  0
VERTEX
  5
7F
330
7D
100
AcDbEntity
  8
Layer 1
 62
     7
420
 16777215
370
    25
100
AcDbVertex
100
AcDb2dVertex
 10
185.4031792194978
 20
-76.90510766029352
 30
0.0
  0
VERTEX
  5
80
330
7D
100
AcDbEntity
  8
Layer 1
 62
     7
420
 16777215
370
    25
100
AcDbVertex
100
AcDb2dVertex
 10
185.4031792194978
 20
-62.90510766029335
 30
0.0
  0
VERTEX
  5
81
330
7D
100
AcDbEntity
  8
Layer 1
 62
     7
420
 16777215
370
    25
100
AcDbVertex
100
AcDb2dVertex
 10
171.4031792194973
 20
-62.90510766029335
 30
0.0
  0
VERTEX
  5
82
330
7D
100
AcDbEntity
  8
Layer 1
 62
     7
420
 16777215
370
    25
100
AcDbVertex
100
AcDb2dVertex
 10
171.4031792194973
 20
-76.90510766029352
 30
0.0
  0
SEQEND
  5
83
330
7D
100
AcDbEntity
  8
Layer 1
 62
     7
420
 16777215
370
    25
  0
ENDBLK
  5
7C
330
79
100
AcDbEntity
  8
0
100
AcDbBlockEnd
  0
BLOCK
  5
86
330
84
100
AcDbEntity
  8
0
100
AcDbBlockBegin
  2
block 8
 70
     0
 10
0.0
 20
0.0
 30
0.0
  3
block 8
  1

  0
POLYLINE
  5
88
330
84
100
AcDbEntity
  8
Layer 1
 62
     7
420
 16777215
370
    25
100
AcDb2dPolyline
 66
     1
 10
0.0
 20
0.0
 30
0.0
  0
VERTEX
  5
89
330
88
100
AcDbEntity
  8
Layer 1
 62
     7
420
 16777215
370
    25
100
AcDbVertex
100
AcDb2dVertex
 10
66.62817924331002
 20
-95.95510766029372
 30
0.0
  0
VERTEX
  5
8A
330
88
100
AcDbEntity
  8
Layer 1
 62
     7
420
 16777215
370
    25
100
AcDbVertex
100
AcDb2dVertex
 10
80.62817924330987
 20
-95.95510766029372
 30
0.0
  0
VERTEX
  5
8B
330
88
100
AcDbEntity
  8
Layer 1
 62
     7
420
 16777215
370
    25
100
AcDbVertex
100
AcDb2dVertex
 10
80.62817924330987
 20
-81.95510766029322
 30
0.0
  0
VERTEX
  5
8C
330
88
100
AcDbEntity
  8
Layer 1
 62
     7
420
 16777215
370
    25
100
AcDbVertex
100
AcDb2dVertex
 10
66.62817924331002
 20
-81.95510766029322
 30
0.0
  0
VERTEX
  5
8D
330
88
100
AcDbEntity
  8
Layer 1
 62
     7
420
 16777215
370
    25
100
AcDbVertex
100
AcDb2dVertex
 10
66.62817924331002
 20
-95.95510766029372
 30
0.0
  0
SEQEND
  5
8E
330
88
100
AcDbEntity
  8
Layer 1
 62
     7
420
 16777215
370
    25
  0
ENDBLK
  5
87
330
84
100
AcDbEntity
  8
0
100
AcDbBlockEnd
  0
BLOCK
  5
91
330
8F
100
AcDbEntity
  8
0
100
AcDbBlockBegin
  2
block 9
 70
     0
 10
0.0
 20
0.0
 30
0.0
  3
block 9
  1

  0
POLYLINE
  5
93
330
8F
100
AcDbEntity
  8
Layer 1
 62
     7
420
 16777215
370
    25
100
AcDb2dPolyline
 66
     1
 10
0.0
 20
0.0
 30
0.0
  0
VERTEX
  5
94
330
93
100
AcDbEntity
  8
Layer 1
 62
     7
420
 16777215
370
    25
100
AcDbVertex
100
AcDb2dVertex
 10
85.67817923854751
 20
-95.95510766029372
 30
0.0
  0
VERTEX
  5
95
330
93
100
AcDbEntity
  8
Layer 1
 62
     7
420
 16777215
370
    25
100
AcDbVertex
100
AcDb2dVertex
 10
99.67817923854737
 20
-95.95510766029372
 30
0.0
  0
VERTEX
  5
96
330
93
100
AcDbEntity
  8
Layer 1
 62
     7
420
 16777215
370
    25
100
AcDbVertex
100
AcDb2dVertex
 10
99.67817923854737
 20
-81.95510766029322
 30
0.0
  0
VERTEX
  5
97
330
93
100
AcDbEntity
  8
Layer 1
 62
     7
420
 16777215
370
    25
100
AcDbVertex
100
AcDb2dVertex
 10
85.67817923854751
 20
-81.95510766029322
 30
0.0
  0
VERTEX
  5
98
330
93
100
AcDbEntity
  8
Layer 1
 62
     7
420
 16777215
370
    25
100
AcDbVertex
100
AcDb2dVertex
 10
85.67817923854751
 20
-95.95510766029372
 30
0.0
  0
SEQEND
  5
99
330
93
100
AcDbEntity
  8
Layer 1
 62
     7
420
 16777215
370
    25
  0
ENDBLK
  5
92
330
8F
100
AcDbEntity
  8
0
100
AcDbBlockEnd
  0
BLOCK
  5
9C
330
9A
100
AcDbEntity
  8
0
100
AcDbBlockBegin
  2
block 10
 70
     0
 10
0.0
 20
0.0
 30
0.0
  3
block 10
  1

  0
POLYLINE
  5
9E
330
9A
100
AcDbEntity
  8
Layer 1
 62
     7
420
 16777215
370
    25
100
AcDb2dPolyline
 66
     1
 10
0.0
 20
0.0
 30
0.0
  0
VERTEX
  5
9F
330
9E
100
AcDbEntity
  8
Layer 1
 62
     7
420
 16777215
370
    25
100
AcDbVertex
100
AcDb2dVertex
 10
104.7281792337853
 20
-95.95510766029372
 30
0.0
  0
VERTEX
  5
A0
330
9E
100
AcDbEntity
  8
Layer 1
 62
     7
420
 16777215
370
    25
100
AcDbVertex
100
AcDb2dVertex
 10
118.7281792337845
 20
-95.95510766029372
 30
0.0
  0
VERTEX
  5
A1
330
9E
100
AcDbEntity
  8
Layer 1
 62
     7
420
 16777215
370
    25
100
AcDbVertex
100
AcDb2dVertex
 10
118.7281792337845
 20
-81.95510766029322
 30
0.0
  0
VERTEX
  5
A2
330
9E
100
AcDbEntity
  8
Layer 1
 62
     7
420
 16777215
370
    25
100
AcDbVertex
100
AcDb2dVertex
 10
104.7281792337853
 20
-81.95510766029322
 30
0.0
  0
VERTEX
  5
A3
330
9E
100
AcDbEntity
  8
Layer 1
 62
     7
420
 16777215
370
    25
100
AcDbVertex
100
AcDb2dVertex
 10
104.7281792337853
 20
-95.95510766029372
 30
0.0
  0
SEQEND
  5
A4
330
9E
100
AcDbEntity
  8
Layer 1
 62
     7
420
 16777215
370
    25
  0
ENDBLK
  5
9D
330
9A
100
AcDbEntity
  8
0
100
AcDbBlockEnd
  0
BLOCK
  5
A7
330
A5
100
AcDbEntity
  8
0
100
AcDbBlockBegin
  2
block 11
 70
     0
 10
0.0
 20
0.0
 30
0.0
  3
block 11
  1

  0
POLYLINE
  5
A9
330
A5
100
AcDbEntity
  8
Layer 1
 62
     7
420
 16777215
370
    25
100
AcDb2dPolyline
 66
     1
 10
0.0
 20
0.0
 30
0.0
  0
VERTEX
  5
AA
330
A9
100
AcDbEntity
  8
Layer 1
 62
     7
420
 16777215
370
    25
100
AcDbVertex
100
AcDb2dVertex
 10
123.7781792290228
 20
-95.95510766029372
 30
0.0
  0
VERTEX
  5
AB
330
A9
100
AcDbEntity
  8
Layer 1
 62
     7
420
 16777215
370
    25
100
AcDbVertex
100
AcDb2dVertex
 10
137.778179229022
 20
-95.95510766029372
 30
0.0
  0
VERTEX
  5
AC
330
A9
100
AcDbEntity
  8
Layer 1
 62
     7
420
 16777215
370
    25
100
AcDbVertex
100
AcDb2dVertex
 10
137.778179229022
 20
-81.95510766029322
 30
0.0
  0
VERTEX
  5
AD
330
A9
100
AcDbEntity
  8
Layer 1
 62
     7
420
 16777215
370
    25
100
AcDbVertex
100
AcDb2dVertex
 10
123.7781792290228
 20
-81.95510766029322
 30
0.0
  0
VERTEX
  5
AE
330
A9
100
AcDbEntity
  8
Layer 1
 62
     7
420
 16777215
370
    25
100
AcDbVertex
100
AcDb2dVertex
 10
123.7781792290228
 20
-95.95510766029372
 30
0.0
  0
SEQEND
  5
AF
330
A9
100
AcDbEntity
  8
Layer 1
 62
     7
420
 16777215
370
    25
  0
ENDBLK
  5
A8
330
A5
100
AcDbEntity
  8
0
100
AcDbBlockEnd
  0
BLOCK
  5
B2
330
B0
100
AcDbEntity
  8
0
100
AcDbBlockBegin
  2
block 12
 70
     0
 10
0.0
 20
0.0
 30
0.0
  3
block 12
  1

  0
POLYLINE
  5
B4
330
B0
100
AcDbEntity
  8
Layer 1
 62
     7
420
 16777215
370
    25
100
AcDb2dPolyline
 66
     1
 10
0.0
 20
0.0
 30
0.0
  0
VERTEX
  5
B5
330
B4
100
AcDbEntity
  8
Layer 1
 62
     7
420
 16777215
370
    25
100
AcDbVertex
100
AcDb2dVertex
 10
142.8281792242603
 20
-95.95510766029372
 30
0.0
  0
VERTEX
  5
B6
330
B4
100
AcDbEntity
  8
Layer 1
 62
     7
420
 16777215
370
    25
100
AcDbVertex
100
AcDb2dVertex
 10
156.8281792242595
 20
-95.95510766029372
 30
0.0
  0
VERTEX
  5
B7
330
B4
100
AcDbEntity
  8
Layer 1
 62
     7
420
 16777215
370
    25
100
AcDbVertex
100
AcDb2dVertex
 10
156.8281792242595
 20
-81.95510766029322
 30
0.0
  0
VERTEX
  5
B8
330
B4
100
AcDbEntity
  8
Layer 1
 62
     7
420
 16777215
370
    25
100
AcDbVertex
100
AcDb2dVertex
 10
142.8281792242603
 20
-81.95510766029322
 30
0.0
  0
VERTEX
  5
B9
330
B4
100
AcDbEntity
  8
Layer 1
 62
     7
420
 16777215
370
    25
100
AcDbVertex
100
AcDb2dVertex
 10
142.8281792242603
 20
-95.95510766029372
 30
0.0
  0
SEQEND
  5
BA
330
B4
100
AcDbEntity
  8
Layer 1
 62
     7
420
 16777215
370
    25
  0
ENDBLK
  5
B3
330
B0
100
AcDbEntity
  8
0
100
AcDbBlockEnd
  0
BLOCK
  5
BD
330
BB
100
AcDbEntity
  8
0
100
AcDbBlockBegin
  2
block 13
 70
     0
 10
0.0
 20
0.0
 30
0.0
  3
block 13
  1

  0
POLYLINE
  5
BF
330
BB
100
AcDbEntity
  8
Layer 1
 62
     7
420
 16777215
370
    25
100
AcDb2dPolyline
 66
     1
 10
0.0
 20
0.0
 30
0.0
  0
VERTEX
  5
C0
330
BF
100
AcDbEntity
  8
Layer 1
 62
     7
420
 16777215
370
    25
100
AcDbVertex
100
AcDb2dVertex
 10
161.8781792194978
 20
-95.95510766029372
 30
0.0
  0
VERTEX
  5
C1
330
BF
100
AcDbEntity
  8
Layer 1
 62
     7
420
 16777215
370
    25
100
AcDbVertex
100
AcDb2dVertex
 10
175.878179219497
 20
-95.95510766029372
 30
0.0
  0
VERTEX
  5
C2
330
BF
100
AcDbEntity
  8
Layer 1
 62
     7
420
 16777215
370
    25
100
AcDbVertex
100
AcDb2dVertex
 10
175.878179219497
 20
-81.95510766029322
 30
0.0
  0
VERTEX
  5
C3
330
BF
100
AcDbEntity
  8
Layer 1
 62
     7
420
 16777215
370
    25
100
AcDbVertex
100
AcDb2dVertex
 10
161.8781792194978
 20
-81.95510766029322
 30
0.0
  0
VERTEX
  5
C4
330
BF
100
AcDbEntity
  8
Layer 1
 62
     7
420
 16777215
370
    25
100
AcDbVertex
100
AcDb2dVertex
 10
161.8781792194978
 20
-95.95510766029372
 30
0.0
  0
SEQEND
  5
C5
330
BF
100
AcDbEntity
  8
Layer 1
 62
     7
420
 16777215
370
    25
  0
ENDBLK
  5
BE
330
BB
100
AcDbEntity
  8
0
100
AcDbBlockEnd
  0
BLOCK
  5
C8
330
C6
100
AcDbEntity
  8
0
100
AcDbBlockBegin
  2
block 14
 70
     0
 10
0.0
 20
0.0
 30
0.0
  3
block 14
  1

  0
POLYLINE
  5
CA
330
C6
100
AcDbEntity
  8
Layer 1
 62
     7
420
 16777215
370
    25
100
AcDb2dPolyline
 66
     1
 10
0.0
 20
0.0
 30
0.0
  0
VERTEX
  5
CB
330
CA
100
AcDbEntity
  8
Layer 1
 62
     7
420
 16777215
370
    25
100
AcDbVertex
100
AcDb2dVertex
 10
180.9281792147353
 20
-95.95510766029372
 30
0.0
  0
VERTEX
  5
CC
330
CA
100
AcDbEntity
  8
Layer 1
 62
     7
420
 16777215
370
    25
100
AcDbVertex
100
AcDb2dVertex
 10
194.9281792147345
 20
-95.95510766029372
 30
0.0
  0
VERTEX
  5
CD
330
CA
100
AcDbEntity
  8
Layer 1
 62
     7
420
 16777215
370
    25
100
AcDbVertex
100
AcDb2dVertex
 10
194.9281792147345
 20
-81.95510766029322
 30
0.0
  0
VERTEX
  5
CE
330
CA
100
AcDbEntity
  8
Layer 1
 62
     7
420
 16777215
370
    25
100
AcDbVertex
100
AcDb2dVertex
 10
180.9281792147353
 20
-81.95510766029322
 30
0.0
  0
VERTEX
  5
CF
330
CA
100
AcDbEntity
  8
Layer 1
 62
     7
420
 16777215
370
    25
100
AcDbVertex
100
AcDb2dVertex
 10
180.9281792147353
 20
-95.95510766029372
 30
0.0
  0
SEQEND
  5
D0
330
CA
100
AcDbEntity
  8
Layer 1
 62
     7
420
 16777215
370
    25
  0
ENDBLK
  5
C9
330
C6
100
AcDbEntity
  8
0
100
AcDbBlockEnd
  0
BLOCK
  5
D3
330
D1
100
AcDbEntity
  8
0
100
AcDbBlockBegin
  2
block 15
 70
     0
 10
0.0
 20
0.0
 30
0.0
  3
block 15
  1

  0
POLYLINE
  5
D5
330
D1
100
AcDbEntity
  8
Layer 1
 62
     7
420
 16777215
370
    25
100
AcDb2dPolyline
 66
     1
 10
0.0
 20
0.0
 30
0.0
  0
VERTEX
  5
D6
330
D5
100
AcDbEntity
  8
Layer 1
 62
     7
420
 16777215
370
    25
100
AcDbVertex
100
AcDb2dVertex
 10
71.39067924330975
 20
-115.0051076602929
 30
0.0
  0
VERTEX
  5
D7
330
D5
100
AcDbEntity
  8
Layer 1
 62
     7
420
 16777215
370
    25
100
AcDbVertex
100
AcDb2dVertex
 10
85.39067924331023
 20
-115.0051076602929
 30
0.0
  0
VERTEX
  5
D8
330
D5
100
AcDbEntity
  8
Layer 1
 62
     7
420
 16777215
370
    25
100
AcDbVertex
100
AcDb2dVertex
 10
85.39067924331023
 20
-101.0051076602937
 30
0.0
  0
VERTEX
  5
D9
330
D5
100
AcDbEntity
  8
Layer 1
 62
     7
420
 16777215
370
    25
100
AcDbVertex
100
AcDb2dVertex
 10
71.39067924330975
 20
-101.0051076602937
 30
0.0
  0
VERTEX
  5
DA
330
D5
100
AcDbEntity
  8
Layer 1
 62
     7
420
 16777215
370
    25
100
AcDbVertex
100
AcDb2dVertex
 10
71.39067924330975
 20
-115.0051076602929
 30
0.0
  0
SEQEND
  5
DB
330
D5
100
AcDbEntity
  8
Layer 1
 62
     7
420
 16777215
370
    25
  0
ENDBLK
  5
D4
330
D1
100
AcDbEntity
  8
0
100
AcDbBlockEnd
  0
BLOCK
  5
DE
330
DC
100
AcDbEntity
  8
0
100
AcDbBlockBegin
  2
block 16
 70
     0
 10
0.0
 20
0.0
 30
0.0
  3
block 16
  1

  0
POLYLINE
  5
E0
330
DC
100
AcDbEntity
  8
Layer 1
 62
     7
420
 16777215
370
    25
100
AcDb2dPolyline
 66
     1
 10
0.0
 20
0.0
 30
0.0
  0
VERTEX
  5
E1
330
E0
100
AcDbEntity
  8
Layer 1
 62
     7
420
 16777215
370
    25
100
AcDbVertex
100
AcDb2dVertex
 10
90.44067923854725
 20
-115.0051076602929
 30
0.0
  0
VERTEX
  5
E2
330
E0
100
AcDbEntity
  8
Layer 1
 62
     7
420
 16777215
370
    25
100
AcDbVertex
100
AcDb2dVertex
 10
104.4406792385474
 20
-115.0051076602929
 30
0.0
  0
VERTEX
  5
E3
330
E0
100
AcDbEntity
  8
Layer 1
 62
     7
420
 16777215
370
    25
100
AcDbVertex
100
AcDb2dVertex
 10
104.4406792385474
 20
-101.0051076602937
 30
0.0
  0
VERTEX
  5
E4
330
E0
100
AcDbEntity
  8
Layer 1
 62
     7
420
 16777215
370
    25
100
AcDbVertex
100
AcDb2dVertex
 10
90.44067923854725
 20
-101.0051076602937
 30
0.0
  0
VERTEX
  5
E5
330
E0
100
AcDbEntity
  8
Layer 1
 62
     7
420
 16777215
370
    25
100
AcDbVertex
100
AcDb2dVertex
 10
90.44067923854725
 20
-115.0051076602929
 30
0.0
  0
SEQEND
  5
E6
330
E0
100
AcDbEntity
  8
Layer 1
 62
     7
420
 16777215
370
    25
  0
ENDBLK
  5
DF
330
DC
100
AcDbEntity
  8
0
100
AcDbBlockEnd
  0
BLOCK
  5
E9
330
E7
100
AcDbEntity
  8
0
100
AcDbBlockBegin
  2
block 17
 70
     0
 10
0.0
 20
0.0
 30
0.0
  3
block 17
  1

  0
POLYLINE
  5
EB
330
E7
100
AcDbEntity
  8
Layer 1
 62
     7
420
 16777215
370
    25
100
AcDb2dPolyline
 66
     1
 10
0.0
 20
0.0
 30
0.0
  0
VERTEX
  5
EC
330
EB
100
AcDbEntity
  8
Layer 1
 62
     7
420
 16777215
370
    25
100
AcDbVertex
100
AcDb2dVertex
 10
109.4906792337844
 20
-115.0051076602929
 30
0.0
  0
VERTEX
  5
ED
330
EB
100
AcDbEntity
  8
Layer 1
 62
     7
420
 16777215
370
    25
100
AcDbVertex
100
AcDb2dVertex
 10
123.4906792337849
 20
-115.0051076602929
 30
0.0
  0
VERTEX
  5
EE
330
EB
100
AcDbEntity
  8
Layer 1
 62
     7
420
 16777215
370
    25
100
AcDbVertex
100
AcDb2dVertex
 10
123.4906792337849
 20
-101.0051076602937
 30
0.0
  0
VERTEX
  5
EF
330
EB
100
AcDbEntity
  8
Layer 1
 62
     7
420
 16777215
370
    25
100
AcDbVertex
100
AcDb2dVertex
 10
109.4906792337844
 20
-101.0051076602937
 30
0.0
  0
VERTEX
  5
F0
330
EB
100
AcDbEntity
  8
Layer 1
 62
     7
420
 16777215
370
    25
100
AcDbVertex
100
AcDb2dVertex
 10
109.4906792337844
 20
-115.0051076602929
 30
0.0
  0
SEQEND
  5
F1
330
EB
100
AcDbEntity
  8
Layer 1
 62
     7
420
 16777215
370
    25
  0
ENDBLK
  5
EA
330
E7
100
AcDbEntity
  8
0
100
AcDbBlockEnd
  0
BLOCK
  5
F4
330
F2
100
AcDbEntity
  8
0
100
AcDbBlockBegin
  2
block 18
 70
     0
 10
0.0
 20
0.0
 30
0.0
  3
block 18
  1

  0
POLYLINE
  5
F6
330
F2
100
AcDbEntity
  8
Layer 1
 62
     7
420
 16777215
370
    25
100
AcDb2dPolyline
 66
     1
 10
0.0
 20
0.0
 30
0.0
  0
VERTEX
  5
F7
330
F6
100
AcDbEntity
  8
Layer 1
 62
     7
420
 16777215
370
    25
100
AcDbVertex
100
AcDb2dVertex
 10
128.5406792290219
 20
-115.0051076602929
 30
0.0
  0
VERTEX
  5
F8
330
F6
100
AcDbEntity
  8
Layer 1
 62
     7
420
 16777215
370
    25
100
AcDbVertex
100
AcDb2dVertex
 10
142.5406792290224
 20
-115.0051076602929
 30
0.0
  0
VERTEX
  5
F9
330
F6
100
AcDbEntity
  8
Layer 1
 62
     7
420
 16777215
370
    25
100
AcDbVertex
100
AcDb2dVertex
 10
142.5406792290224
 20
-101.0051076602937
 30
0.0
  0
VERTEX
  5
FA
330
F6
100
AcDbEntity
  8
Layer 1
 62
     7
420
 16777215
370
    25
100
AcDbVertex
100
AcDb2dVertex
 10
128.5406792290219
 20
-101.0051076602937
 30
0.0
  0
VERTEX
  5
FB
330
F6
100
AcDbEntity
  8
Layer 1
 62
     7
420
 16777215
370
    25
100
AcDbVertex
100
AcDb2dVertex
 10
128.5406792290219
 20
-115.0051076602929
 30
0.0
  0
SEQEND
  5
FC
330
F6
100
AcDbEntity
  8
Layer 1
 62
     7
420
 16777215
370
    25
  0
ENDBLK
  5
F5
330
F2
100
AcDbEntity
  8
0
100
AcDbBlockEnd
  0
BLOCK
  5
FF
330
FD
100
AcDbEntity
  8
0
100
AcDbBlockBegin
  2
block 19
 70
     0
 10
0.0
 20
0.0
 30
0.0
  3
block 19
  1

  0
POLYLINE
  5
101
330
FD
100
AcDbEntity
  8
Layer 1
 62
     7
420
 16777215
370
    25
100
AcDb2dPolyline
 66
     1
 10
0.0
 20
0.0
 30
0.0
  0
VERTEX
  5
102
330
101
100
AcDbEntity
  8
Layer 1
 62
     7
420
 16777215
370
    25
100
AcDbVertex
100
AcDb2dVertex
 10
147.5906792242594
 20
-115.0051076602929
 30
0.0
  0
VERTEX
  5
103
330
101
100
AcDbEntity
  8
Layer 1
 62
     7
420
 16777215
370
    25
100
AcDbVertex
100
AcDb2dVertex
 10
161.5906792242599
 20
-115.0051076602929
 30
0.0
  0
VERTEX
  5
104
330
101
100
AcDbEntity
  8
Layer 1
 62
     7
420
 16777215
370
    25
100
AcDbVertex
100
AcDb2dVertex
 10
161.5906792242599
 20
-101.0051076602937
 30
0.0
  0
VERTEX
  5
105
330
101
100
AcDbEntity
  8
Layer 1
 62
     7
420
 16777215
370
    25
100
AcDbVertex
100
AcDb2dVertex
 10
147.5906792242594
 20
-101.0051076602937
 30
0.0
  0
VERTEX
  5
106
330
101
100
AcDbEntity
  8
Layer 1
 62
     7
420
 16777215
370
    25
100
AcDbVertex
100
AcDb2dVertex
 10
147.5906792242594
 20
-115.0051076602929
 30
0.0
  0
SEQEND
  5
107
330
101
100
AcDbEntity
  8
Layer 1
 62
     7
420
 16777215
370
    25
  0
ENDBLK
  5
100
330
FD
100
AcDbEntity
  8
0
100
AcDbBlockEnd
  0
BLOCK
  5
10A
330
108
100
AcDbEntity
  8
0
100
AcDbBlockBegin
  2
block 20
 70
     0
 10
0.0
 20
0.0
 30
0.0
  3
block 20
  1

  0
POLYLINE
  5
10C
330
108
100
AcDbEntity
  8
Layer 1
 62
     7
420
 16777215
370
    25
100
AcDb2dPolyline
 66
     1
 10
0.0
 20
0.0
 30
0.0
  0
VERTEX
  5
10D
330
10C
100
AcDbEntity
  8
Layer 1
 62
     7
420
 16777215
370
    25
100
AcDbVertex
100
AcDb2dVertex
 10
166.6406792194969
 20
-115.0051076602929
 30
0.0
  0
VERTEX
  5
10E
330
10C
100
AcDbEntity
  8
Layer 1
 62
     7
420
 16777215
370
    25
100
AcDbVertex
100
AcDb2dVertex
 10
180.6406792194974
 20
-115.0051076602929
 30
0.0
  0
VERTEX
  5
10F
330
10C
100
AcDbEntity
  8
Layer 1
 62
     7
420
 16777215
370
    25
100
AcDbVertex
100
AcDb2dVertex
 10
180.6406792194974
 20
-101.0051076602937
 30
0.0
  0
VERTEX
  5
110
330
10C
100
AcDbEntity
  8
Layer 1
 62
     7
420
 16777215
370
    25
100
AcDbVertex
100
AcDb2dVertex
 10
166.6406792194969
 20
-101.0051076602937
 30
0.0
  0
VERTEX
  5
111
330
10C
100
AcDbEntity
  8
Layer 1
 62
     7
420
 16777215
370
    25
100
AcDbVertex
100
AcDb2dVertex
 10
166.6406792194969
 20
-115.0051076602929
 30
0.0
  0
SEQEND
  5
112
330
10C
100
AcDbEntity
  8
Layer 1
 62
     7
420
 16777215
370
    25
  0
ENDBLK
  5
10B
330
108
100
AcDbEntity
  8
0
100
AcDbBlockEnd
  0
BLOCK
  5
138
330
136
100
AcDbEntity
  8
0
100
AcDbBlockBegin
  2
block 21
 70
     0
 10
0.0
 20
0.0
 30
0.0
  3
block 21
  1

  0
POLYLINE
  5
13A
330
136
100
AcDbEntity
  8
Layer 1
 62
     7
420
 16777215
370
    25
100
AcDb2dPolyline
 66
     1
 10
0.0
 20
0.0
 30
0.0
  0
VERTEX
  5
13B
330
13A
100
AcDbEntity
  8
Layer 1
 62
     7
420
 16777215
370
    25
100
AcDbVertex
100
AcDb2dVertex
 10
80.91567924330984
 20
-134.0551076602931
 30
0.0
  0
VERTEX
  5
13C
330
13A
100
AcDbEntity
  8
Layer 1
 62
     7
420
 16777215
370
    25
100
AcDbVertex
100
AcDb2dVertex
 10
94.91567924331034
 20
-134.0551076602931
 30
0.0
  0
VERTEX
  5
13D
330
13A
100
AcDbEntity
  8
Layer 1
 62
     7
420
 16777215
370
    25
100
AcDbVertex
100
AcDb2dVertex
 10
94.91567924331034
 20
-120.0551076602939
 30
0.0
  0
VERTEX
  5
13E
330
13A
100
AcDbEntity
  8
Layer 1
 62
     7
420
 16777215
370
    25
100
AcDbVertex
100
AcDb2dVertex
 10
80.91567924330984
 20
-120.0551076602939
 30
0.0
  0
VERTEX
  5
13F
330
13A
100
AcDbEntity
  8
Layer 1
 62
     7
420
 16777215
370
    25
100
AcDbVertex
100
AcDb2dVertex
 10
80.91567924330984
 20
-134.0551076602931
 30
0.0
  0
SEQEND
  5
140
330
13A
100
AcDbEntity
  8
Layer 1
 62
     7
420
 16777215
370
    25
  0
ENDBLK
  5
139
330
136
100
AcDbEntity
  8
0
100
AcDbBlockEnd
  0
BLOCK
  5
143
330
141
100
AcDbEntity
  8
0
100
AcDbBlockBegin
  2
block 22
 70
     0
 10
0.0
 20
0.0
 30
0.0
  3
block 22
  1

  0
POLYLINE
  5
145
330
141
100
AcDbEntity
  8
Layer 1
 62
     7
420
 16777215
370
    25
100
AcDb2dPolyline
 66
     1
 10
0.0
 20
0.0
 30
0.0
  0
VERTEX
  5
146
330
145
100
AcDbEntity
  8
Layer 1
 62
     7
420
 16777215
370
    25
100
AcDbVertex
100
AcDb2dVertex
 10
99.96567923854734
 20
-134.0551076602931
 30
0.0
  0
VERTEX
  5
147
330
145
100
AcDbEntity
  8
Layer 1
 62
     7
420
 16777215
370
    25
100
AcDbVertex
100
AcDb2dVertex
 10
113.9656792385481
 20
-134.0551076602931
 30
0.0
  0
VERTEX
  5
148
330
145
100
AcDbEntity
  8
Layer 1
 62
     7
420
 16777215
370
    25
100
AcDbVertex
100
AcDb2dVertex
 10
113.9656792385481
 20
-120.0551076602939
 30
0.0
  0
VERTEX
  5
149
330
145
100
AcDbEntity
  8
Layer 1
 62
     7
420
 16777215
370
    25
100
AcDbVertex
100
AcDb2dVertex
 10
99.96567923854734
 20
-120.0551076602939
 30
0.0
  0
VERTEX
  5
14A
330
145
100
AcDbEntity
  8
Layer 1
 62
     7
420
 16777215
370
    25
100
AcDbVertex
100
AcDb2dVertex
 10
99.96567923854734
 20
-134.0551076602931
 30
0.0
  0
SEQEND
  5
14B
330
145
100
AcDbEntity
  8
Layer 1
 62
     7
420
 16777215
370
    25
  0
ENDBLK
  5
144
330
141
100
AcDbEntity
  8
0
100
AcDbBlockEnd
  0
BLOCK
  5
14E
330
14C
100
AcDbEntity
  8
0
100
AcDbBlockBegin
  2
block 23
 70
     0
 10
0.0
 20
0.0
 30
0.0
  3
block 23
  1

  0
POLYLINE
  5
150
330
14C
100
AcDbEntity
  8
Layer 1
 62
     7
420
 16777215
370
    25
100
AcDb2dPolyline
 66
     1
 10
0.0
 20
0.0
 30
0.0
  0
VERTEX
  5
151
330
150
100
AcDbEntity
  8
Layer 1
 62
     7
420
 16777215
370
    25
100
AcDbVertex
100
AcDb2dVertex
 10
119.0156792337852
 20
-134.0551076602931
 30
0.0
  0
VERTEX
  5
152
330
150
100
AcDbEntity
  8
Layer 1
 62
     7
420
 16777215
370
    25
100
AcDbVertex
100
AcDb2dVertex
 10
133.0156792337856
 20
-134.0551076602931
 30
0.0
  0
VERTEX
  5
153
330
150
100
AcDbEntity
  8
Layer 1
 62
     7
420
 16777215
370
    25
100
AcDbVertex
100
AcDb2dVertex
 10
133.0156792337856
 20
-120.0551076602939
 30
0.0
  0
VERTEX
  5
154
330
150
100
AcDbEntity
  8
Layer 1
 62
     7
420
 16777215
370
    25
100
AcDbVertex
100
AcDb2dVertex
 10
119.0156792337852
 20
-120.0551076602939
 30
0.0
  0
VERTEX
  5
155
330
150
100
AcDbEntity
  8
Layer 1
 62
     7
420
 16777215
370
    25
100
AcDbVertex
100
AcDb2dVertex
 10
119.0156792337852
 20
-134.0551076602931
 30
0.0
  0
SEQEND
  5
156
330
150
100
AcDbEntity
  8
Layer 1
 62
     7
420
 16777215
370
    25
  0
ENDBLK
  5
14F
330
14C
100
AcDbEntity
  8
0
100
AcDbBlockEnd
  0
BLOCK
  5
159
330
157
100
AcDbEntity
  8
0
100
AcDbBlockBegin
  2
block 24
 70
     0
 10
0.0
 20
0.0
 30
0.0
  3
block 24
  1

  0
POLYLINE
  5
15B
330
157
100
AcDbEntity
  8
Layer 1
 62
     7
420
 16777215
370
    25
100
AcDb2dPolyline
 66
     1
 10
0.0
 20
0.0
 30
0.0
  0
VERTEX
  5
15C
330
15B
100
AcDbEntity
  8
Layer 1
 62
     7
420
 16777215
370
    25
100
AcDbVertex
100
AcDb2dVertex
 10
138.0656792290227
 20
-134.0551076602931
 30
0.0
  0
VERTEX
  5
15D
330
15B
100
AcDbEntity
  8
Layer 1
 62
     7
420
 16777215
370
    25
100
AcDbVertex
100
AcDb2dVertex
 10
152.0656792290231
 20
-134.0551076602931
 30
0.0
  0
VERTEX
  5
15E
330
15B
100
AcDbEntity
  8
Layer 1
 62
     7
420
 16777215
370
    25
100
AcDbVertex
100
AcDb2dVertex
 10
152.0656792290231
 20
-120.0551076602939
 30
0.0
  0
VERTEX
  5
15F
330
15B
100
AcDbEntity
  8
Layer 1
 62
     7
420
 16777215
370
    25
100
AcDbVertex
100
AcDb2dVertex
 10
138.0656792290227
 20
-120.0551076602939
 30
0.0
  0
VERTEX
  5
160
330
15B
100
AcDbEntity
  8
Layer 1
 62
     7
420
 16777215
370
    25
100
AcDbVertex
100
AcDb2dVertex
 10
138.0656792290227
 20
-134.0551076602931
 30
0.0
  0
SEQEND
  5
161
330
15B
100
AcDbEntity
  8
Layer 1
 62
     7
420
 16777215
370
    25
  0
ENDBLK
  5
15A
330
157
100
AcDbEntity
  8
0
100
AcDbBlockEnd
  0
BLOCK
  5
16F
330
16D
100
AcDbEntity
  8
0
100
AcDbBlockBegin
  2
block 25
 70
     0
 10
0.0
 20
0.0
 30
0.0
  3
block 25
  1

  0
POLYLINE
  5
171
330
16D
100
AcDbEntity
  8
Layer 1
 62
     7
420
 16777215
370
    25
100
AcDb2dPolyline
 66
     1
 10
0.0
 20
0.0
 30
0.0
  0
VERTEX
  5
172
330
171
100
AcDbEntity
  8
Layer 1
 62
     7
420
 16777215
370
    25
100
AcDbVertex
100
AcDb2dVertex
 10
209.5031758137365
 20
-120.0551042634626
 30
0.0
  0
VERTEX
  5
173
330
171
100
AcDbEntity
  8
Layer 1
 62
     7
420
 16777215
370
    25
100
AcDbVertex
100
AcDb2dVertex
 10
209.5031758137365
 20
-121.0551078235967
 30
0.0
  0
VERTEX
  5
174
330
171
100
AcDbEntity
  8
Layer 1
 62
     7
420
 16777215
370
    25
100
AcDbVertex
100
AcDb2dVertex
 10
208.397429354052
 20
-121.0551078235967
 30
0.0
  0
VERTEX
  5
175
330
171
100
AcDbEntity
  8
Layer 1
 62
     7
420
 16777215
370
    25
100
AcDbVertex
100
AcDb2dVertex
 10
208.397429354052
 20
-135.0551146017808
 30
0.0
  0
VERTEX
  5
176
330
171
100
AcDbEntity
  8
Layer 1
 62
     7
420
 16777215
370
    25
100
AcDbVertex
100
AcDb2dVertex
 10
215.1474264701488
 20
-135.0551146017808
 30
0.0
  0
VERTEX
  5
177
330
171
100
AcDbEntity
  8
Layer 1
 62
     7
420
 16777215
370
    25
100
AcDbVertex
100
AcDb2dVertex
 10
215.1474264701488
 20
-134.0551110416467
 30
0.0
  0
VERTEX
  5
178
330
171
100
AcDbEntity
  8
Layer 1
 62
     7
420
 16777215
370
    25
100
AcDbVertex
100
AcDb2dVertex
 10
223.5031825919205
 20
-134.0551110416467
 30
0.0
  0
VERTEX
  5
179
330
171
100
AcDbEntity
  8
Layer 1
 62
     7
420
 16777215
370
    25
100
AcDbVertex
100
AcDb2dVertex
 10
223.5031825919205
 20
-120.0551042634626
 30
0.0
  0
VERTEX
  5
17A
330
171
100
AcDbEntity
  8
Layer 1
 62
     7
420
 16777215
370
    25
100
AcDbVertex
100
AcDb2dVertex
 10
209.5031758137365
 20
-120.0551042634626
 30
0.0
  0
SEQEND
  5
17B
330
171
100
AcDbEntity
  8
Layer 1
 62
     7
420
 16777215
370
    25
  0
POLYLINE
  5
17C
330
16D
100
AcDbEntity
  8
Layer 1
 62
     7
420
 16777215
370
    25
100
AcDb2dPolyline
 66
     1
 10
0.0
 20
0.0
 30
0.0
  0
VERTEX
  5
17D
330
17C
100
AcDbEntity
  8
Layer 1
 62
     7
420
 16777215
370
    25
100
AcDbVertex
100
AcDb2dVertex
 10
197.309432598469
 20
-120.0551042634626
 30
0.0
  0
VERTEX
  5
17E
330
17C
100
AcDbEntity
  8
Layer 1
 62
     7
420
 16777215
370
    25
100
AcDbVertex
100
AcDb2dVertex
 10
192.8344258179037
 20
-120.0551042634626
 30
0.0
  0
VERTEX
  5
17F
330
17C
100
AcDbEntity
  8
Layer 1
 62
     7
420
 16777215
370
    25
100
AcDbVertex
100
AcDb2dVertex
 10
190.453175818499
 20
-120.0551042634626
 30
0.0
  0
VERTEX
  5
180
330
17C
100
AcDbEntity
  8
Layer 1
 62
     7
420
 16777215
370
    25
100
AcDbVertex
100
AcDb2dVertex
 10
183.3094258202849
 20
-120.0551042634626
 30
0.0
  0
VERTEX
  5
181
330
17C
100
AcDbEntity
  8
Layer 1
 62
     7
420
 16777215
370
    25
100
AcDbVertex
100
AcDb2dVertex
 10
183.3094258202849
 20
-134.0551110416467
 30
0.0
  0
VERTEX
  5
182
330
17C
100
AcDbEntity
  8
Layer 1
 62
     7
420
 16777215
370
    25
100
AcDbVertex
100
AcDb2dVertex
 10
184.5214319438426
 20
-134.0551110416467
 30
0.0
  0
VERTEX
  5
183
330
17C
100
AcDbEntity
  8
Layer 1
 62
     7
420
 16777215
370
    25
100
AcDbVertex
100
AcDb2dVertex
 10
184.5214319438426
 20
-135.0551146017808
 30
0.0
  0
VERTEX
  5
184
330
17C
100
AcDbEntity
  8
Layer 1
 62
     7
420
 16777215
370
    25
100
AcDbVertex
100
AcDb2dVertex
 10
191.2714290599394
 20
-135.0551146017808
 30
0.0
  0
VERTEX
  5
185
330
17C
100
AcDbEntity
  8
Layer 1
 62
     7
420
 16777215
370
    25
100
AcDbVertex
100
AcDb2dVertex
 10
191.2714290599394
 20
-134.0551110416467
 30
0.0
  0
VERTEX
  5
186
330
17C
100
AcDbEntity
  8
Layer 1
 62
     7
420
 16777215
370
    25
100
AcDbVertex
100
AcDb2dVertex
 10
192.8344258179037
 20
-134.0551110416467
 30
0.0
  0
VERTEX
  5
187
330
17C
100
AcDbEntity
  8
Layer 1
 62
     7
420
 16777215
370
    25
100
AcDbVertex
100
AcDb2dVertex
 10
197.309432598469
 20
-134.0551110416467
 30
0.0
  0
VERTEX
  5
188
330
17C
100
AcDbEntity
  8
Layer 1
 62
     7
420
 16777215
370
    25
100
AcDbVertex
100
AcDb2dVertex
 10
204.453182596683
 20
-134.0551110416467
 30
0.0
  0
VERTEX
  5
189
330
17C
100
AcDbEntity
  8
Layer 1
 62
     7
420
 16777215
370
    25
100
AcDbVertex
100
AcDb2dVertex
 10
206.8344325960877
 20
-134.0551110416467
 30
0.0
  0
VERTEX
  5
18A
330
17C
100
AcDbEntity
  8
Layer 1
 62
     7
420
 16777215
370
    25
100
AcDbVertex
100
AcDb2dVertex
 10
206.8344325960877
 20
-120.0551042634626
 30
0.0
  0
VERTEX
  5
18B
330
17C
100
AcDbEntity
  8
Layer 1
 62
     7
420
 16777215
370
    25
100
AcDbVertex
100
AcDb2dVertex
 10
204.453182596683
 20
-120.0551042634626
 30
0.0
  0
VERTEX
  5
18C
330
17C
100
AcDbEntity
  8
Layer 1
 62
     7
420
 16777215
370
    25
100
AcDbVertex
100
AcDb2dVertex
 10
197.309432598469
 20
-120.0551042634626
 30
0.0
  0
SEQEND
  5
18D
330
17C
100
AcDbEntity
  8
Layer 1
 62
     7
420
 16777215
370
    25
  0
ENDBLK
  5
170
330
16D
100
AcDbEntity
  8
0
100
AcDbBlockEnd
  0
ENDSEC
  0
SECTION
  2
ENTITIES
  0
SPLINE
  5
41
330
1F
100
AcDbEntity
  8
Layer 1
 62
   195
420
  7949726
370
    25
100
AcDbSpline
210
0.0
220
0.0
230
1.0
 70
    11
 71
     3
 72
    65
 73
    61
 74
     0
 42
0.0000000001
 43
0.0000000001
 12
1.0
 22
0.0
 32
0.0
 13
1.0
 23
0.0
 33
0.0
 40
0.0
 40
0.0
 40
0.0
 40
0.0
 40
1.0
 40
1.0
 40
1.0
 40
2.0
 40
2.0
 40
2.0
 40
3.0
 40
3.0
 40
3.0
 40
4.0
 40
4.0
 40
4.0
 40
5.0
 40
5.0
 40
5.0
 40
6.0
 40
6.0
 40
6.0
 40
7.0
 40
7.0
 40
7.0
 40
8.0
 40
8.0
 40
8.0
 40
9.0
 40
9.0
 40
9.0
 40
10.0
 40
10.0
 40
10.0
 40
11.0
 40
11.0
 40
11.0
 40
12.0
 40
12.0
 40
12.0
 40
13.0
 40
13.0
 40
13.0
 40
14.0
 40
14.0
 40
14.0
 40
15.0
 40
15.0
 40
15.0
 40
16.0
 40
16.0
 40
16.0
 40
17.0
 40
17.0
 40
17.0
 40
18.0
 40
18.0
 40
18.0
 40
19.0
 40
19.0
 40
19.0
 40
20.0
 40
20.0
 40
20.0
 40
20.0
 10
75.62846678145003
 20
-52.38010767122296
 30
0.0
 10
75.62846678145003
 20
-52.38010767122296
 30
0.0
 10
230.0281791994476
 20
-52.38010767122296
 30
0.0
 10
230.0281791994476
 20
-52.38010767122296
 30
0.0
 10
232.2373181982183
 20
-52.38010767122296
 30
0.0
 10
234.028179198448
 20
-54.17096867145202
 30
0.0
 10
234.028179198448
 20
-56.38010767022269
 30
0.0
 10
234.028179198448
 20
-56.38010767022269
 30
0.0
 10
234.028179198448
 20
-159.6299923557826
 30
0.0
 10
234.028179198448
 20
-159.6299923557826
 30
0.0
 10
234.028179198448
 20
-161.8391313545533
 30
0.0
 10
232.2373181982183
 20
-163.629992354783
 30
0.0
 10
230.0281791994476
 20
-163.629992354783
 30
0.0
 10
230.0281791994476
 20
-163.629992354783
 30
0.0
 10
80.39096678025942
 20
-163.629992354783
 30
0.0
 10
80.39096678025942
 20
-163.629992354783
 30
0.0
 10
79.28639728087407
 20
-163.629992354783
 30
0.0
 10
78.39096678075923
 20
-162.7345618546681
 30
0.0
 10
78.39096678075923
 20
-161.6299923552822
 30
0.0
 10
78.39096678075923
 20
-161.6299923552822
 30
0.0
 10
78.39096678075923
 20
-119.5299923658068
 30
0.0
 10
78.39096678075923
 20
-119.5299923658068
 30
0.0
 10
78.39096678075923
 20
-118.4254228664221
 30
0.0
 10
77.49553628064437
 20
-117.5299923663072
 30
0.0
 10
76.39096678125904
 20
-117.5299923663072
 30
0.0
 10
76.39096678125904
 20
-117.5299923663072
 30
0.0
 10
70.86596678264065
 20
-117.5299923663072
 30
0.0
 10
70.86596678264065
 20
-117.5299923663072
 30
0.0
 10
69.76139728325532
 20
-117.5299923663072
 30
0.0
 10
68.86596678314048
 20
-116.6345618661924
 30
0.0
 10
68.86596678314048
 20
-115.5299923668064
 30
0.0
 10
68.86596678314048
 20
-115.5299923668064
 30
0.0
 10
68.86596678314048
 20
-100.4799923705693
 30
0.0
 10
68.86596678314048
 20
-100.4799923705693
 30
0.0
 10
68.86596678314048
 20
-99.37542287118426
 30
0.0
 10
67.97053628302562
 20
-98.47999237106941
 30
0.0
 10
66.86596678364029
 20
-98.47999237106941
 30
0.0
 10
66.86596678364029
 20
-98.47999237106941
 30
0.0
 10
66.10346678383128
 20
-98.47999237106941
 30
0.0
 10
66.10346678383128
 20
-98.47999237106941
 30
0.0
 10
64.99889728444595
 20
-98.47999237106941
 30
0.0
 10
64.1034667843311
 20
-97.58456187095456
 30
0.0
 10
64.1034667843311
 20
-96.47999237156922
 30
0.0
 10
64.1034667843311
 20
-96.47999237156922
 30
0.0
 10
64.1034667843311
 20
-81.43010766396043
 30
0.0
 10
64.1034667843311
 20
-81.43010766396043
 30
0.0
 10
64.1034667843311
 20
-80.3255381645751
 30
0.0
 10
64.9988972844453
 20
-79.43010766446056
 30
0.0
 10
66.10346678383128
 20
-79.43010766446056
 30
0.0
 10
66.10346678383128
 20
-79.43010766446056
 30
0.0
 10
71.62846678244966
 20
-79.43010766446056
 30
0.0
 10
71.62846678244966
 20
-79.43010766446056
 30
0.0
 10
72.73303628183564
 20
-79.43010766446056
 30
0.0
 10
73.62846678194985
 20
-78.53467716434604
 30
0.0
 10
73.62846678194985
 20
-77.4301076649607
 30
0.0
 10
73.62846678194985
 20
-77.4301076649607
 30
0.0
 10
73.62846678194985
 20
-54.38010767072282
 30
0.0
 10
73.62846678194985
 20
-54.38010767072282
 30
0.0
 10
73.62846678194985
 20
-53.27553817133781
 30
0.0
 10
74.52389728206406
 20
-52.38010767122296
 30
0.0
 10
75.62846678145003
 20
-52.38010767122296
 30
0.0
  0
INSERT
  5
43
330
1F
100
AcDbEntity
  8
Layer 1
100
AcDbBlockReference
  2
block 2
 10
0.0
 20
0.0
 30
0.0
  0
INSERT
  5
4E
330
1F
100
AcDbEntity
  8
Layer 1
100
AcDbBlockReference
  2
block 3
 10
0.0
 20
0.0
 30
0.0
  0
INSERT
  5
59
330
1F
100
AcDbEntity
  8
Layer 1
100
AcDbBlockReference
  2
block 4
 10
0.0
 20
0.0
 30
0.0
  0
INSERT
  5
64
330
1F
100
AcDbEntity
  8
Layer 1
100
AcDbBlockReference
  2
block 5
 10
0.0
 20
0.0
 30
0.0
  0
INSERT
  5
6F
330
1F
100
AcDbEntity
  8
Layer 1
100
AcDbBlockReference
  2
block 6
 10
0.0
 20
0.0
 30
0.0
  0
INSERT
  5
7A
330
1F
100
AcDbEntity
  8
Layer 1
100
AcDbBlockReference
  2
block 7
 10
0.0
 20
0.0
 30
0.0
  0
INSERT
  5
85
330
1F
100
AcDbEntity
  8
Layer 1
100
AcDbBlockReference
  2
block 8
 10
0.0
 20
0.0
 30
0.0
  0
INSERT
  5
90
330
1F
100
AcDbEntity
  8
Layer 1
100
AcDbBlockReference
  2
block 9
 10
0.0
 20
0.0
 30
0.0
  0
INSERT
  5
9B
330
1F
100
AcDbEntity
  8
Layer 1
100
AcDbBlockReference
  2
block 10
 10
0.0
 20
0.0
 30
0.0
  0
INSERT
  5
A6
330
1F
100
AcDbEntity
  8
Layer 1
100
AcDbBlockReference
  2
block 11
 10
0.0
 20
0.0
 30
0.0
  0
INSERT
  5
B1
330
1F
100
AcDbEntity
  8
Layer 1
100
AcDbBlockReference
  2
block 12
 10
0.0
 20
0.0
 30
0.0
  0
INSERT
  5
BC
330
1F
100
AcDbEntity
  8
Layer 1
100
AcDbBlockReference
  2
block 13
 10
0.0
 20
0.0
 30
0.0
  0
INSERT
  5
C7
330
1F
100
AcDbEntity
  8
Layer 1
100
AcDbBlockReference
  2
block 14
 10
0.0
 20
0.0
 30
0.0
  0
INSERT
  5
D2
330
1F
100
AcDbEntity
  8
Layer 1
100
AcDbBlockReference
  2
block 15
 10
0.0
 20
0.0
 30
0.0
  0
INSERT
  5
DD
330
1F
100
AcDbEntity
  8
Layer 1
100
AcDbBlockReference
  2
block 16
 10
0.0
 20
0.0
 30
0.0
  0
INSERT
  5
E8
330
1F
100
AcDbEntity
  8
Layer 1
100
AcDbBlockReference
  2
block 17
 10
0.0
 20
0.0
 30
0.0
  0
INSERT
  5
F3
330
1F
100
AcDbEntity
  8
Layer 1
100
AcDbBlockReference
  2
block 18
 10
0.0
 20
0.0
 30
0.0
  0
INSERT
  5
FE
330
1F
100
AcDbEntity
  8
Layer 1
100
AcDbBlockReference
  2
block 19
 10
0.0
 20
0.0
 30
0.0
  0
INSERT
  5
109
330
1F
100
AcDbEntity
  8
Layer 1
100
AcDbBlockReference
  2
block 20
 10
0.0
 20
0.0
 30
0.0
  0
POLYLINE
  5
113
330
1F
100
AcDbEntity
  8
Layer 1
 62
     7
420
 16777215
370
    25
100
AcDb2dPolyline
 66
     1
 10
0.0
 20
0.0
 30
0.0
  0
VERTEX
  5
114
330
113
100
AcDbEntity
  8
Layer 1
 62
     7
420
 16777215
370
    25
100
AcDbVertex
100
AcDb2dVertex
 10
221.1219325925158
 20
-105.4801110487904
 30
0.0
  0
VERTEX
  5
115
330
113
100
AcDbEntity
  8
Layer 1
 62
     7
420
 16777215
370
    25
100
AcDbVertex
100
AcDb2dVertex
 10
221.1219325925158
 20
-91.48010427060605
 30
0.0
  0
VERTEX
  5
116
330
113
100
AcDbEntity
  8
Layer 1
 62
     7
420
 16777215
370
    25
100
AcDbVertex
100
AcDb2dVertex
 10
218.7406825931112
 20
-91.48010427060605
 30
0.0
  0
VERTEX
  5
117
330
113
100
AcDbEntity
  8
Layer 1
 62
     7
420
 16777215
370
    25
100
AcDbVertex
100
AcDb2dVertex
 10
218.7406825931112
 20
-89.91710751264145
 30
0.0
  0
VERTEX
  5
118
330
113
100
AcDbEntity
  8
Layer 1
 62
     7
420
 16777215
370
    25
100
AcDbVertex
100
AcDb2dVertex
 10
220.1219290323817
 20
-89.91710751264145
 30
0.0
  0
VERTEX
  5
119
330
113
100
AcDbEntity
  8
Layer 1
 62
     7
420
 16777215
370
    25
100
AcDbVertex
100
AcDb2dVertex
 10
220.1219290323817
 20
-83.16711039654498
 30
0.0
  0
VERTEX
  5
11A
330
113
100
AcDbEntity
  8
Layer 1
 62
     7
420
 16777215
370
    25
100
AcDbVertex
100
AcDb2dVertex
 10
218.7406825931112
 20
-83.16711039654498
 30
0.0
  0
VERTEX
  5
11B
330
113
100
AcDbEntity
  8
Layer 1
 62
     7
420
 16777215
370
    25
100
AcDbVertex
100
AcDb2dVertex
 10
218.7406825931112
 20
-81.9551042729873
 30
0.0
  0
VERTEX
  5
11C
330
113
100
AcDbEntity
  8
Layer 1
 62
     7
420
 16777215
370
    25
100
AcDbVertex
100
AcDb2dVertex
 10
204.7406758149271
 20
-81.9551042729873
 30
0.0
  0
VERTEX
  5
11D
330
113
100
AcDbEntity
  8
Layer 1
 62
     7
420
 16777215
370
    25
100
AcDbVertex
100
AcDb2dVertex
 10
204.7406758149271
 20
-95.95511105117133
 30
0.0
  0
VERTEX
  5
11E
330
113
100
AcDbEntity
  8
Layer 1
 62
     7
420
 16777215
370
    25
100
AcDbVertex
100
AcDb2dVertex
 10
207.1219258143318
 20
-95.95511105117133
 30
0.0
  0
VERTEX
  5
11F
330
113
100
AcDbEntity
  8
Layer 1
 62
     7
420
 16777215
370
    25
100
AcDbVertex
100
AcDb2dVertex
 10
207.1219258143318
 20
-101.0051042682251
 30
0.0
  0
VERTEX
  5
120
330
113
100
AcDbEntity
  8
Layer 1
 62
     7
420
 16777215
370
    25
100
AcDbVertex
100
AcDb2dVertex
 10
199.6906825978736
 20
-101.0051042682251
 30
0.0
  0
VERTEX
  5
121
330
113
100
AcDbEntity
  8
Layer 1
 62
     7
420
 16777215
370
    25
100
AcDbVertex
100
AcDb2dVertex
 10
197.5969258167131
 20
-101.0051042682251
 30
0.0
  0
VERTEX
  5
122
330
113
100
AcDbEntity
  8
Layer 1
 62
     7
420
 16777215
370
    25
100
AcDbVertex
100
AcDb2dVertex
 10
185.6906758196896
 20
-101.0051042682251
 30
0.0
  0
VERTEX
  5
123
330
113
100
AcDbEntity
  8
Layer 1
 62
     7
420
 16777215
370
    25
100
AcDbVertex
100
AcDb2dVertex
 10
185.6906758196896
 20
-115.0051110464092
 30
0.0
  0
VERTEX
  5
124
330
113
100
AcDbEntity
  8
Layer 1
 62
     7
420
 16777215
370
    25
100
AcDbVertex
100
AcDb2dVertex
 10
189.283931942652
 20
-115.0051110464092
 30
0.0
  0
VERTEX
  5
125
330
113
100
AcDbEntity
  8
Layer 1
 62
     7
420
 16777215
370
    25
100
AcDbVertex
100
AcDb2dVertex
 10
189.283931942652
 20
-116.0051146065433
 30
0.0
  0
VERTEX
  5
126
330
113
100
AcDbEntity
  8
Layer 1
 62
     7
420
 16777215
370
    25
100
AcDbVertex
100
AcDb2dVertex
 10
196.0339290587488
 20
-116.0051146065433
 30
0.0
  0
VERTEX
  5
127
330
113
100
AcDbEntity
  8
Layer 1
 62
     7
420
 16777215
370
    25
100
AcDbVertex
100
AcDb2dVertex
 10
196.0339290587488
 20
-115.0051110464092
 30
0.0
  0
VERTEX
  5
128
330
113
100
AcDbEntity
  8
Layer 1
 62
     7
420
 16777215
370
    25
100
AcDbVertex
100
AcDb2dVertex
 10
197.5969258167131
 20
-115.0051110464092
 30
0.0
  0
VERTEX
  5
129
330
113
100
AcDbEntity
  8
Layer 1
 62
     7
420
 16777215
370
    25
100
AcDbVertex
100
AcDb2dVertex
 10
199.6906825978736
 20
-115.0051110464092
 30
0.0
  0
VERTEX
  5
12A
330
113
100
AcDbEntity
  8
Layer 1
 62
     7
420
 16777215
370
    25
100
AcDbVertex
100
AcDb2dVertex
 10
211.5969325948971
 20
-115.0051110464092
 30
0.0
  0
VERTEX
  5
12B
330
113
100
AcDbEntity
  8
Layer 1
 62
     7
420
 16777215
370
    25
100
AcDbVertex
100
AcDb2dVertex
 10
211.5969325948971
 20
-113.7931049228515
 30
0.0
  0
VERTEX
  5
12C
330
113
100
AcDbEntity
  8
Layer 1
 62
     7
420
 16777215
370
    25
100
AcDbVertex
100
AcDb2dVertex
 10
213.1599293528614
 20
-113.7931049228515
 30
0.0
  0
VERTEX
  5
12D
330
113
100
AcDbEntity
  8
Layer 1
 62
     7
420
 16777215
370
    25
100
AcDbVertex
100
AcDb2dVertex
 10
213.1599293528614
 20
-116.0051146065433
 30
0.0
  0
VERTEX
  5
12E
330
113
100
AcDbEntity
  8
Layer 1
 62
     7
420
 16777215
370
    25
100
AcDbVertex
100
AcDb2dVertex
 10
219.9099264689582
 20
-116.0051146065433
 30
0.0
  0
VERTEX
  5
12F
330
113
100
AcDbEntity
  8
Layer 1
 62
     7
420
 16777215
370
    25
100
AcDbVertex
100
AcDb2dVertex
 10
219.9099264689582
 20
-113.7931049228515
 30
0.0
  0
VERTEX
  5
130
330
113
100
AcDbEntity
  8
Layer 1
 62
     7
420
 16777215
370
    25
100
AcDbVertex
100
AcDb2dVertex
 10
220.1219290323817
 20
-113.7931049228515
 30
0.0
  0
VERTEX
  5
131
330
113
100
AcDbEntity
  8
Layer 1
 62
     7
420
 16777215
370
    25
100
AcDbVertex
100
AcDb2dVertex
 10
220.1219290323817
 20
-107.0431078067547
 30
0.0
  0
VERTEX
  5
132
330
113
100
AcDbEntity
  8
Layer 1
 62
     7
420
 16777215
370
    25
100
AcDbVertex
100
AcDb2dVertex
 10
219.9099264689582
 20
-107.0431078067547
 30
0.0
  0
VERTEX
  5
133
330
113
100
AcDbEntity
  8
Layer 1
 62
     7
420
 16777215
370
    25
100
AcDbVertex
100
AcDb2dVertex
 10
219.9099264689582
 20
-105.4801110487904
 30
0.0
  0
VERTEX
  5
134
330
113
100
AcDbEntity
  8
Layer 1
 62
     7
420
 16777215
370
    25
100
AcDbVertex
100
AcDb2dVertex
 10
221.1219325925158
 20
-105.4801110487904
 30
0.0
  0
SEQEND
  5
135
330
113
100
AcDbEntity
  8
Layer 1
 62
     7
420
 16777215
370
    25
  0
INSERT
  5
137
330
1F
100
AcDbEntity
  8
Layer 1
100
AcDbBlockReference
  2
block 21
 10
0.0
 20
0.0
 30
0.0
  0
INSERT
  5
142
330
1F
100
AcDbEntity
  8
Layer 1
100
AcDbBlockReference
  2
block 22
 10
0.0
 20
0.0
 30
0.0
  0
INSERT
  5
14D
330
1F
100
AcDbEntity
  8
Layer 1
100
AcDbBlockReference
  2
block 23
 10
0.0
 20
0.0
 30
0.0
  0
INSERT
  5
158
330
1F
100
AcDbEntity
  8
Layer 1
100
AcDbBlockReference
  2
block 24
 10
0.0
 20
0.0
 30
0.0
  0
POLYLINE
  5
162
330
1F
100
AcDbEntity
  8
Layer 1
 62
     7
420
 16777215
370
    25
100
AcDb2dPolyline
 66
     1
 10
0.0
 20
0.0
 30
0.0
  0
VERTEX
  5
163
330
162
100
AcDbEntity
  8
Layer 1
 62
     7
420
 16777215
370
    25
100
AcDbVertex
100
AcDb2dVertex
 10
171.1156826050174
 20
-120.0551042634626
 30
0.0
  0
VERTEX
  5
164
330
162
100
AcDbEntity
  8
Layer 1
 62
     7
420
 16777215
370
    25
100
AcDbVertex
100
AcDb2dVertex
 10
164.2594258250474
 20
-120.0551042634626
 30
0.0
  0
VERTEX
  5
165
330
162
100
AcDbEntity
  8
Layer 1
 62
     7
420
 16777215
370
    25
100
AcDbVertex
100
AcDb2dVertex
 10
157.1156758268334
 20
-120.0551042634626
 30
0.0
  0
VERTEX
  5
166
330
162
100
AcDbEntity
  8
Layer 1
 62
     7
420
 16777215
370
    25
100
AcDbVertex
100
AcDb2dVertex
 10
157.1156758268334
 20
-134.0551110416467
 30
0.0
  0
VERTEX
  5
167
330
162
100
AcDbEntity
  8
Layer 1
 62
     7
420
 16777215
370
    25
100
AcDbVertex
100
AcDb2dVertex
 10
164.2594258250474
 20
-134.0551110416467
 30
0.0
  0
VERTEX
  5
168
330
162
100
AcDbEntity
  8
Layer 1
 62
     7
420
 16777215
370
    25
100
AcDbVertex
100
AcDb2dVertex
 10
171.1156826050174
 20
-134.0551110416467
 30
0.0
  0
VERTEX
  5
169
330
162
100
AcDbEntity
  8
Layer 1
 62
     7
420
 16777215
370
    25
100
AcDbVertex
100
AcDb2dVertex
 10
178.2594326032315
 20
-134.0551110416467
 30
0.0
  0
VERTEX
  5
16A
330
162
100
AcDbEntity
  8
Layer 1
 62
     7
420
 16777215
370
    25
100
AcDbVertex
100
AcDb2dVertex
 10
178.2594326032315
 20
-120.0551042634626
 30
0.0
  0
VERTEX
  5
16B
330
162
100
AcDbEntity
  8
Layer 1
 62
     7
420
 16777215
370
    25
100
AcDbVertex
100
AcDb2dVertex
 10
171.1156826050174
 20
-120.0551042634626
 30
0.0
  0
SEQEND
  5
16C
330
162
100
AcDbEntity
  8
Layer 1
 62
     7
420
 16777215
370
    25
  0
INSERT
  5
16E
330
1F
100
AcDbEntity
  8
Layer 1
100
AcDbBlockReference
  2
block 25
 10
0.0
 20
0.0
 30
0.0
  0
POLYLINE
  5
18E
330
1F
100
AcDbEntity
  8
Layer 1
 62
     7
420
 16777215
370
    25
100
AcDb2dPolyline
 66
     1
 10
0.0
 20
0.0
 30
0.0
  0
VERTEX
  5
18F
330
18E
100
AcDbEntity
  8
Layer 1
 62
     7
420
 16777215
370
    25
100
AcDbVertex
100
AcDb2dVertex
 10
123.4906826169236
 20
-153.1051145972679
 30
0.0
  0
VERTEX
  5
190
330
18E
100
AcDbEntity
  8
Layer 1
 62
     7
420
 16777215
370
    25
100
AcDbVertex
100
AcDb2dVertex
 10
92.82192584290712
 20
-153.1051145972679
 30
0.0
  0
VERTEX
  5
191
330
18E
100
AcDbEntity
  8
Layer 1
 62
     7
420
 16777215
370
    25
100
AcDbVertex
100
AcDb2dVertex
 10
83.29692584528837
 20
-153.1051145972679
 30
0.0
  0
VERTEX
  5
192
330
18E
100
AcDbEntity
  8
Layer 1
 62
     7
420
 16777215
370
    25
100
AcDbVertex
100
AcDb2dVertex
 10
83.29692584528837
 20
-139.1051078190838
 30
0.0
  0
VERTEX
  5
193
330
18E
100
AcDbEntity
  8
Layer 1
 62
     7
420
 16777215
370
    25
100
AcDbVertex
100
AcDb2dVertex
 10
84.50893196884604
 20
-139.1051078190838
 30
0.0
  0
VERTEX
  5
194
330
18E
100
AcDbEntity
  8
Layer 1
 62
     7
420
 16777215
370
    25
100
AcDbVertex
100
AcDb2dVertex
 10
84.50893196884604
 20
-138.1051042589497
 30
0.0
  0
VERTEX
  5
195
330
18E
100
AcDbEntity
  8
Layer 1
 62
     7
420
 16777215
370
    25
100
AcDbVertex
100
AcDb2dVertex
 10
89.27143196765542
 20
-138.1051042589497
 30
0.0
  0
VERTEX
  5
196
330
18E
100
AcDbEntity
  8
Layer 1
 62
     7
420
 16777215
370
    25
100
AcDbVertex
100
AcDb2dVertex
 10
91.25892908494284
 20
-138.1051042589497
 30
0.0
  0
VERTEX
  5
197
330
18E
100
AcDbEntity
  8
Layer 1
 62
     7
420
 16777215
370
    25
100
AcDbVertex
100
AcDb2dVertex
 10
96.02142908375221
 20
-138.1051042589497
 30
0.0
  0
VERTEX
  5
198
330
18E
100
AcDbEntity
  8
Layer 1
 62
     7
420
 16777215
370
    25
100
AcDbVertex
100
AcDb2dVertex
 10
96.02142908375221
 20
-139.1051078190838
 30
0.0
  0
VERTEX
  5
199
330
18E
100
AcDbEntity
  8
Layer 1
 62
     7
420
 16777215
370
    25
100
AcDbVertex
100
AcDb2dVertex
 10
97.2969326234724
 20
-139.1051078190838
 30
0.0
  0
VERTEX
  5
19A
330
18E
100
AcDbEntity
  8
Layer 1
 62
     7
420
 16777215
370
    25
100
AcDbVertex
100
AcDb2dVertex
 10
97.5844258417165
 20
-139.1051078190838
 30
0.0
  0
VERTEX
  5
19B
330
18E
100
AcDbEntity
  8
Layer 1
 62
     7
420
 16777215
370
    25
100
AcDbVertex
100
AcDb2dVertex
 10
106.8219326210908
 20
-139.1051078190838
 30
0.0
  0
VERTEX
  5
19C
330
18E
100
AcDbEntity
  8
Layer 1
 62
     7
420
 16777215
370
    25
100
AcDbVertex
100
AcDb2dVertex
 10
108.3849293790551
 20
-139.1051078190838
 30
0.0
  0
VERTEX
  5
19D
330
18E
100
AcDbEntity
  8
Layer 1
 62
     7
420
 16777215
370
    25
100
AcDbVertex
100
AcDb2dVertex
 10
108.3849293790551
 20
-138.1051042589497
 30
0.0
  0
VERTEX
  5
19E
330
18E
100
AcDbEntity
  8
Layer 1
 62
     7
420
 16777215
370
    25
100
AcDbVertex
100
AcDb2dVertex
 10
113.1474293778645
 20
-138.1051042589497
 30
0.0
  0
VERTEX
  5
19F
330
18E
100
AcDbEntity
  8
Layer 1
 62
     7
420
 16777215
370
    25
100
AcDbVertex
100
AcDb2dVertex
 10
115.1349264951519
 20
-138.1051042589497
 30
0.0
  0
VERTEX
  5
1A0
330
18E
100
AcDbEntity
  8
Layer 1
 62
     7
420
 16777215
370
    25
100
AcDbVertex
100
AcDb2dVertex
 10
119.8974264939613
 20
-138.1051042589497
 30
0.0
  0
VERTEX
  5
1A1
330
18E
100
AcDbEntity
  8
Layer 1
 62
     7
420
 16777215
370
    25
100
AcDbVertex
100
AcDb2dVertex
 10
119.8974264939613
 20
-139.1051078190838
 30
0.0
  0
VERTEX
  5
1A2
330
18E
100
AcDbEntity
  8
Layer 1
 62
     7
420
 16777215
370
    25
100
AcDbVertex
100
AcDb2dVertex
 10
123.4906826169236
 20
-139.1051078190838
 30
0.0
  0
VERTEX
  5
1A3
330
18E
100
AcDbEntity
  8
Layer 1
 62
     7
420
 16777215
370
    25
100
AcDbVertex
100
AcDb2dVertex
 10
123.4906826169236
 20
-153.1051145972679
 30
0.0
  0
SEQEND
  5
1A4
330
18E
100
AcDbEntity
  8
Layer 1
 62
     7
420
 16777215
370
    25
  0
POLYLINE
  5
1A5
330
1F
100
AcDbEntity
  8
Layer 1
 62
     7
420
 16777215
370
    25
100
AcDb2dPolyline
 66
     1
 10
0.0
 20
0.0
 30
0.0
  0
VERTEX
  5
1A6
330
1A5
100
AcDbEntity
  8
Layer 1
 62
     7
420
 16777215
370
    25
100
AcDbVertex
100
AcDb2dVertex
 10
221.1219325925158
 20
-139.1051042587001
 30
0.0
  0
VERTEX
  5
1A7
330
1A5
100
AcDbEntity
  8
Layer 1
 62
     7
420
 16777215
370
    25
100
AcDbVertex
100
AcDb2dVertex
 10
209.5031758137365
 20
-139.1051042587001
 30
0.0
  0
VERTEX
  5
1A8
330
1A5
100
AcDbEntity
  8
Layer 1
 62
     7
420
 16777215
370
    25
100
AcDbVertex
100
AcDb2dVertex
 10
207.1219258143318
 20
-139.1051042587001
 30
0.0
  0
VERTEX
  5
1A9
330
1A5
100
AcDbEntity
  8
Layer 1
 62
     7
420
 16777215
370
    25
100
AcDbVertex
100
AcDb2dVertex
 10
207.1219258143318
 20
-153.1051110368842
 30
0.0
  0
VERTEX
  5
1AA
330
1A5
100
AcDbEntity
  8
Layer 1
 62
     7
420
 16777215
370
    25
100
AcDbVertex
100
AcDb2dVertex
 10
209.5031758137365
 20
-153.1051110368842
 30
0.0
  0
VERTEX
  5
1AB
330
1A5
100
AcDbEntity
  8
Layer 1
 62
     7
420
 16777215
370
    25
100
AcDbVertex
100
AcDb2dVertex
 10
221.1219325925158
 20
-153.1051110368842
 30
0.0
  0
VERTEX
  5
1AC
330
1A5
100
AcDbEntity
  8
Layer 1
 62
     7
420
 16777215
370
    25
100
AcDbVertex
100
AcDb2dVertex
 10
223.5031825919205
 20
-153.1051110368842
 30
0.0
  0
VERTEX
  5
1AD
330
1A5
100
AcDbEntity
  8
Layer 1
 62
     7
420
 16777215
370
    25
100
AcDbVertex
100
AcDb2dVertex
 10
223.5031825919205
 20
-139.1051042587001
 30
0.0
  0
VERTEX
  5
1AE
330
1A5
100
AcDbEntity
  8
Layer 1
 62
     7
420
 16777215
370
    25
100
AcDbVertex
100
AcDb2dVertex
 10
221.1219325925158
 20
-139.1051042587001
 30
0.0
  0
SEQEND
  5
1AF
330
1A5
100
AcDbEntity
  8
Layer 1
 62
     7
420
 16777215
370
    25
  0
POLYLINE
  5
1B0
330
1F
100
AcDbEntity
  8
Layer 1
 62
     7
420
 16777215
370
    25
100
AcDb2dPolyline
 66
     1
 10
0.0
 20
0.0
 30
0.0
  0
VERTEX
  5
1B1
330
1B0
100
AcDbEntity
  8
Layer 1
 62
     7
420
 16777215
370
    25
100
AcDbVertex
100
AcDb2dVertex
 10
126.1594258345724
 20
-139.1051042587001
 30
0.0
  0
VERTEX
  5
1B2
330
1B0
100
AcDbEntity
  8
Layer 1
 62
     7
420
 16777215
370
    25
100
AcDbVertex
100
AcDb2dVertex
 10
126.1594258345724
 20
-153.1051110368842
 30
0.0
  0
VERTEX
  5
1B3
330
1B0
100
AcDbEntity
  8
Layer 1
 62
     7
420
 16777215
370
    25
100
AcDbVertex
100
AcDb2dVertex
 10
204.453182596683
 20
-153.1051110368842
 30
0.0
  0
VERTEX
  5
1B4
330
1B0
100
AcDbEntity
  8
Layer 1
 62
     7
420
 16777215
370
    25
100
AcDbVertex
100
AcDb2dVertex
 10
204.453182596683
 20
-139.1051042587001
 30
0.0
  0
VERTEX
  5
1B5
330
1B0
100
AcDbEntity
  8
Layer 1
 62
     7
420
 16777215
370
    25
100
AcDbVertex
100
AcDb2dVertex
 10
126.1594258345724
 20
-139.1051042587001
 30
0.0
  0
SEQEND
  5
1B6
330
1B0
100
AcDbEntity
  8
Layer 1
 62
     7
420
 16777215
370
    25
  0
POLYLINE
  5
1B7
330
1F
100
AcDbEntity
  8
Layer 1
 62
     7
420
 16777215
370
    25
100
AcDb2dPolyline
 66
     1
 10
0.0
 20
0.0
 30
0.0
  0
VERTEX
  5
1B8
330
1B7
100
AcDbEntity
  8
Layer 1
 62
     7
420
 16777215
370
    25
100
AcDbVertex
100
AcDb2dVertex
 10
222.2911764683628
 20
-62.9051042777498
 30
0.0
  0
VERTEX
  5
1B9
330
1B7
100
AcDbEntity
  8
Layer 1
 62
     7
420
 16777215
370
    25
100
AcDbVertex
100
AcDb2dVertex
 10
222.2911764683628
 20
-61.90510071761569
 30
0.0
  0
VERTEX
  5
1BA
330
1B7
100
AcDbEntity
  8
Layer 1
 62
     7
420
 16777215
370
    25
100
AcDbVertex
100
AcDb2dVertex
 10
215.5411793522661
 20
-61.90510071761569
 30
0.0
  0
VERTEX
  5
1BB
330
1B7
100
AcDbEntity
  8
Layer 1
 62
     7
420
 16777215
370
    25
100
AcDbVertex
100
AcDb2dVertex
 10
215.5411793522661
 20
-62.9051042777498
 30
0.0
  0
VERTEX
  5
1BC
330
1B7
100
AcDbEntity
  8
Layer 1
 62
     7
420
 16777215
370
    25
100
AcDbVertex
100
AcDb2dVertex
 10
213.9781825943018
 20
-62.9051042777498
 30
0.0
  0
VERTEX
  5
1BD
330
1B7
100
AcDbEntity
  8
Layer 1
 62
     7
420
 16777215
370
    25
100
AcDbVertex
100
AcDb2dVertex
 10
209.5031758137365
 20
-62.9051042777498
 30
0.0
  0
VERTEX
  5
1BE
330
1B7
100
AcDbEntity
  8
Layer 1
 62
     7
420
 16777215
370
    25
100
AcDbVertex
100
AcDb2dVertex
 10
204.453182596683
 20
-62.9051042777498
 30
0.0
  0
VERTEX
  5
1BF
330
1B7
100
AcDbEntity
  8
Layer 1
 62
     7
420
 16777215
370
    25
100
AcDbVertex
100
AcDb2dVertex
 10
199.9781758161178
 20
-62.9051042777498
 30
0.0
  0
VERTEX
  5
1C0
330
1B7
100
AcDbEntity
  8
Layer 1
 62
     7
420
 16777215
370
    25
100
AcDbVertex
100
AcDb2dVertex
 10
198.4151790581535
 20
-62.9051042777498
 30
0.0
  0
VERTEX
  5
1C1
330
1B7
100
AcDbEntity
  8
Layer 1
 62
     7
420
 16777215
370
    25
100
AcDbVertex
100
AcDb2dVertex
 10
198.4151790581535
 20
-61.90510071761569
 30
0.0
  0
VERTEX
  5
1C2
330
1B7
100
AcDbEntity
  8
Layer 1
 62
     7
420
 16777215
370
    25
100
AcDbVertex
100
AcDb2dVertex
 10
191.6651819420567
 20
-61.90510071761569
 30
0.0
  0
VERTEX
  5
1C3
330
1B7
100
AcDbEntity
  8
Layer 1
 62
     7
420
 16777215
370
    25
100
AcDbVertex
100
AcDb2dVertex
 10
191.6651819420567
 20
-62.9051042777498
 30
0.0
  0
VERTEX
  5
1C4
330
1B7
100
AcDbEntity
  8
Layer 1
 62
     7
420
 16777215
370
    25
100
AcDbVertex
100
AcDb2dVertex
 10
190.453175818499
 20
-62.9051042777498
 30
0.0
  0
VERTEX
  5
1C5
330
1B7
100
AcDbEntity
  8
Layer 1
 62
     7
420
 16777215
370
    25
100
AcDbVertex
100
AcDb2dVertex
 10
190.453175818499
 20
-76.90511105593383
 30
0.0
  0
VERTEX
  5
1C6
330
1B7
100
AcDbEntity
  8
Layer 1
 62
     7
420
 16777215
370
    25
100
AcDbVertex
100
AcDb2dVertex
 10
191.6651819420567
 20
-76.90511105593383
 30
0.0
  0
VERTEX
  5
1C7
330
1B7
100
AcDbEntity
  8
Layer 1
 62
     7
420
 16777215
370
    25
100
AcDbVertex
100
AcDb2dVertex
 10
191.6651819420567
 20
-77.90511461606795
 30
0.0
  0
VERTEX
  5
1C8
330
1B7
100
AcDbEntity
  8
Layer 1
 62
     7
420
 16777215
370
    25
100
AcDbVertex
100
AcDb2dVertex
 10
198.4151790581535
 20
-77.90511461606795
 30
0.0
  0
VERTEX
  5
1C9
330
1B7
100
AcDbEntity
  8
Layer 1
 62
     7
420
 16777215
370
    25
100
AcDbVertex
100
AcDb2dVertex
 10
198.4151790581535
 20
-76.90511105593383
 30
0.0
  0
VERTEX
  5
1CA
330
1B7
100
AcDbEntity
  8
Layer 1
 62
     7
420
 16777215
370
    25
100
AcDbVertex
100
AcDb2dVertex
 10
199.9781758161178
 20
-76.90511105593383
 30
0.0
  0
VERTEX
  5
1CB
330
1B7
100
AcDbEntity
  8
Layer 1
 62
     7
420
 16777215
370
    25
100
AcDbVertex
100
AcDb2dVertex
 10
204.453182596683
 20
-76.90511105593383
 30
0.0
  0
VERTEX
  5
1CC
330
1B7
100
AcDbEntity
  8
Layer 1
 62
     7
420
 16777215
370
    25
100
AcDbVertex
100
AcDb2dVertex
 10
209.5031758137365
 20
-76.90511105593383
 30
0.0
  0
VERTEX
  5
1CD
330
1B7
100
AcDbEntity
  8
Layer 1
 62
     7
420
 16777215
370
    25
100
AcDbVertex
100
AcDb2dVertex
 10
213.9781825943018
 20
-76.90511105593383
 30
0.0
  0
VERTEX
  5
1CE
330
1B7
100
AcDbEntity
  8
Layer 1
 62
     7
420
 16777215
370
    25
100
AcDbVertex
100
AcDb2dVertex
 10
215.5411793522661
 20
-76.90511105593383
 30
0.0
  0
VERTEX
  5
1CF
330
1B7
100
AcDbEntity
  8
Layer 1
 62
     7
420
 16777215
370
    25
100
AcDbVertex
100
AcDb2dVertex
 10
215.5411793522661
 20
-77.90511461606795
 30
0.0
  0
VERTEX
  5
1D0
330
1B7
100
AcDbEntity
  8
Layer 1
 62
     7
420
 16777215
370
    25
100
AcDbVertex
100
AcDb2dVertex
 10
222.2911764683628
 20
-77.90511461606795
 30
0.0
  0
VERTEX
  5
1D1
330
1B7
100
AcDbEntity
  8
Layer 1
 62
     7
420
 16777215
370
    25
100
AcDbVertex
100
AcDb2dVertex
 10
222.2911764683628
 20
-76.90511105593383
 30
0.0
  0
VERTEX
  5
1D2
330
1B7
100
AcDbEntity
  8
Layer 1
 62
     7
420
 16777215
370
    25
100
AcDbVertex
100
AcDb2dVertex
 10
223.5031825919205
 20
-76.90511105593383
 30
0.0
  0
VERTEX
  5
1D3
330
1B7
100
AcDbEntity
  8
Layer 1
 62
     7
420
 16777215
370
    25
100
AcDbVertex
100
AcDb2dVertex
 10
223.5031825919205
 20
-62.9051042777498
 30
0.0
  0
VERTEX
  5
1D4
330
1B7
100
AcDbEntity
  8
Layer 1
 62
     7
420
 16777215
370
    25
100
AcDbVertex
100
AcDb2dVertex
 10
222.2911764683628
 20
-62.9051042777498
 30
0.0
  0
SEQEND
  5
1D5
330
1B7
100
AcDbEntity
  8
Layer 1
 62
     7
420
 16777215
370
    25
  0
SPLINE
  5
1D6
330
1F
100
AcDbEntity
  8
Layer 1
 62
   195
420
  7949726
370
    25
100
AcDbSpline
210
0.0
220
0.0
230
1.0
 70
    11
 71
     3
 72
    17
 73
    13
 74
     0
 42
0.0000000001
 43
0.0000000001
 12
1.0
 22
0.0
 32
0.0
 13
1.0
 23
0.0
 33
0.0
 40
0.0
 40
0.0
 40
0.0
 40
0.0
 40
1.0
 40
1.0
 40
1.0
 40
2.0
 40
2.0
 40
2.0
 40
3.0
 40
3.0
 40
3.0
 40
4.0
 40
4.0
 40
4.0
 40
4.0
 10
156.9907115682021
 20
-159.6301399949047
 30
0.0
 10
156.9907115682021
 20
-160.2376532195317
 30
0.0
 10
156.4982247931053
 20
-160.7301399946298
 30
0.0
 10
155.890711568477
 20
-160.7301399946298
 30
0.0
 10
155.2831983438488
 20
-160.7301399946298
 30
0.0
 10
154.790711568752
 20
-160.2376532195317
 30
0.0
 10
154.790711568752
 20
-159.6301399949047
 30
0.0
 10
154.790711568752
 20
-159.0226267702764
 30
0.0
 10
155.2831983438488
 20
-158.5301399951796
 30
0.0
 10
155.890711568477
 20
-158.5301399951796
 30
0.0
 10
156.4982247931053
 20
-158.5301399951796
 30
0.0
 10
156.9907115682021
 20
-159.0226267702764
 30
0.0
 10
156.9907115682021
 20
-159.6301399949047
 30
0.0
  0
SPLINE
  5
1D7
330
1F
100
AcDbEntity
  8
Layer 1
 62
   195
420
  7949726
370
    25
100
AcDbSpline
210
0.0
220
0.0
230
1.0
 70
    11
 71
     3
 72
    17
 73
    13
 74
     0
 42
0.0000000001
 43
0.0000000001
 12
1.0
 22
0.0
 32
0.0
 13
1.0
 23
0.0
 33
0.0
 40
0.0
 40
0.0
 40
0.0
 40
0.0
 40
1.0
 40
1.0
 40
1.0
 40
2.0
 40
2.0
 40
2.0
 40
3.0
 40
3.0
 40
3.0
 40
4.0
 40
4.0
 40
4.0
 40
4.0
 10
230.4281791993475
 20
-57.08010767004785
 30
0.0
 10
230.4281791993475
 20
-57.68762089467549
 30
0.0
 10
229.9356924242508
 20
-58.18010766977292
 30
0.0
 10
229.3281791996225
 20
-58.18010766977292
 30
0.0
 10
228.7206659749942
 20
-58.18010766977292
 30
0.0
 10
228.2281791998974
 20
-57.68762089467549
 30
0.0
 10
228.2281791998974
 20
-57.08010767004785
 30
0.0
 10
228.2281791998974
 20
-56.47259444541957
 30
0.0
 10
228.7206659749942
 20
-55.98010767032278
 30
0.0
 10
229.3281791996225
 20
-55.98010767032278
 30
0.0
 10
229.9356924242508
 20
-55.98010767032278
 30
0.0
 10
230.4281791993475
 20
-56.47259444541957
 30
0.0
 10
230.4281791993475
 20
-57.08010767004785
 30
0.0
  0
SPLINE
  5
1D8
330
1F
100
AcDbEntity
  8
Layer 1
 62
   195
420
  7949726
370
    25
100
AcDbSpline
210
0.0
220
0.0
230
1.0
 70
    11
 71
     3
 72
    17
 73
    13
 74
     0
 42
0.0000000001
 43
0.0000000001
 12
1.0
 22
0.0
 32
0.0
 13
1.0
 23
0.0
 33
0.0
 40
0.0
 40
0.0
 40
0.0
 40
0.0
 40
1.0
 40
1.0
 40
1.0
 40
2.0
 40
2.0
 40
2.0
 40
3.0
 40
3.0
 40
3.0
 40
4.0
 40
4.0
 40
4.0
 40
4.0
 10
230.4281791993475
 20
-158.9301076445861
 30
0.0
 10
230.4281791993475
 20
-159.5376208692131
 30
0.0
 10
229.9356924242508
 20
-160.0301076443112
 30
0.0
 10
229.3281791996225
 20
-160.0301076443112
 30
0.0
 10
228.7206659749942
 20
-160.0301076443112
 30
0.0
 10
228.2281791998974
 20
-159.5376208692131
 30
0.0
 10
228.2281791998974
 20
-158.9301076445861
 30
0.0
 10
228.2281791998974
 20
-158.3225944199578
 30
0.0
 10
228.7206659749942
 20
-157.830107644861
 30
0.0
 10
229.3281791996225
 20
-157.830107644861
 30
0.0
 10
229.9356924242508
 20
-157.830107644861
 30
0.0
 10
230.4281791993475
 20
-158.3225944199578
 30
0.0
 10
230.4281791993475
 20
-158.9301076445861
 30
0.0
  0
SPLINE
  5
1D9
330
1F
100
AcDbEntity
  8
Layer 1
 62
   195
420
  7949726
370
    25
100
AcDbSpline
210
0.0
220
0.0
230
1.0
 70
    11
 71
     3
 72
    17
 73
    13
 74
     0
 42
0.0000000001
 43
0.0000000001
 12
1.0
 22
0.0
 32
0.0
 13
1.0
 23
0.0
 33
0.0
 40
0.0
 40
0.0
 40
0.0
 40
0.0
 40
1.0
 40
1.0
 40
1.0
 40
2.0
 40
2.0
 40
2.0
 40
3.0
 40
3.0
 40
3.0
 40
4.0
 40
4.0
 40
4.0
 40
4.0
 10
78.72817923727237
 20
-56.3800753197286
 30
0.0
 10
78.72817923727237
 20
-56.98758854435624
 30
0.0
 10
78.23569246217558
 20
-57.48007531945367
 30
0.0
 10
77.6281792375473
 20
-57.48007531945367
 30
0.0
 10
77.02066601291902
 20
-57.48007531945367
 30
0.0
 10
76.52817923782223
 20
-56.98758854435624
 30
0.0
 10
76.52817923782223
 20
-56.3800753197286
 30
0.0
 10
76.52817923782223
 20
-55.77256209510032
 30
0.0
 10
77.02066601291902
 20
-55.28007532000353
 30
0.0
 10
77.6281792375473
 20
-55.28007532000353
 30
0.0
 10
78.23569246217558
 20
-55.28007532000353
 30
0.0
 10
78.72817923727237
 20
-55.77256209510032
 30
0.0
 10
78.72817923727237
 20
-56.3800753197286
 30
0.0
  0
SPLINE
  5
1DA
330
1F
100
AcDbEntity
  8
Layer 1
 62
   195
420
  7949726
370
    25
100
AcDbSpline
210
0.0
220
0.0
230
1.0
 70
    11
 71
     3
 72
    17
 73
    13
 74
     0
 42
0.0000000001
 43
0.0000000001
 12
1.0
 22
0.0
 32
0.0
 13
1.0
 23
0.0
 33
0.0
 40
0.0
 40
0.0
 40
0.0
 40
0.0
 40
1.0
 40
1.0
 40
1.0
 40
2.0
 40
2.0
 40
2.0
 40
3.0
 40
3.0
 40
3.0
 40
4.0
 40
4.0
 40
4.0
 40
4.0
 10
102.7538040732805
 20
-56.3800753197286
 30
0.0
 10
102.7538040732805
 20
-56.98758854435624
 30
0.0
 10
102.2613172981837
 20
-57.48007531945367
 30
0.0
 10
101.6538040735554
 20
-57.48007531945367
 30
0.0
 10
101.0462908489271
 20
-57.48007531945367
 30
0.0
 10
100.5538040738303
 20
-56.98758854435624
 30
0.0
 10
100.5538040738303
 20
-56.3800753197286
 30
0.0
 10
100.5538040738303
 20
-55.77256209510032
 30
0.0
 10
101.0462908489271
 20
-55.28007532000353
 30
0.0
 10
101.6538040735554
 20
-55.28007532000353
 30
0.0
 10
102.2613172981837
 20
-55.28007532000353
 30
0.0
 10
102.7538040732805
 20
-55.77256209510032
 30
0.0
 10
102.7538040732805
 20
-56.3800753197286
 30
0.0
  0
SPLINE
  5
1DB
330
1F
100
AcDbEntity
  8
Layer 1
 62
   195
420
  7949726
370
    25
100
AcDbSpline
210
0.0
220
0.0
230
1.0
 70
    11
 71
     3
 72
    17
 73
    13
 74
     0
 42
0.0000000001
 43
0.0000000001
 12
1.0
 22
0.0
 32
0.0
 13
1.0
 23
0.0
 33
0.0
 40
0.0
 40
0.0
 40
0.0
 40
0.0
 40
1.0
 40
1.0
 40
1.0
 40
2.0
 40
2.0
 40
2.0
 40
3.0
 40
3.0
 40
3.0
 40
4.0
 40
4.0
 40
4.0
 40
4.0
 10
177.9684745652047
 20
-56.3800753197286
 30
0.0
 10
177.9684745652047
 20
-56.98758854435656
 30
0.0
 10
177.475987790108
 20
-57.48007531945399
 30
0.0
 10
176.8684745654797
 20
-57.48007531945399
 30
0.0
 10
176.2609613408514
 20
-57.48007531945399
 30
0.0
 10
175.7684745657546
 20
-56.98758854435656
 30
0.0
 10
175.7684745657546
 20
-56.3800753197286
 30
0.0
 10
175.7684745657546
 20
-55.77256209510064
 30
0.0
 10
176.2609613408514
 20
-55.28007532000385
 30
0.0
 10
176.8684745654797
 20
-55.28007532000385
 30
0.0
 10
177.475987790108
 20
-55.28007532000385
 30
0.0
 10
177.9684745652047
 20
-55.77256209510064
 30
0.0
 10
177.9684745652047
 20
-56.3800753197286
 30
0.0
  0
SPLINE
  5
1DC
330
1F
100
AcDbEntity
  8
Layer 1
 62
   195
420
  7949726
370
    25
100
AcDbSpline
210
0.0
220
0.0
230
1.0
 70
    11
 71
     3
 72
    17
 73
    13
 74
     0
 42
0.0000000001
 43
0.0000000001
 12
1.0
 22
0.0
 32
0.0
 13
1.0
 23
0.0
 33
0.0
 40
0.0
 40
0.0
 40
0.0
 40
0.0
 40
1.0
 40
1.0
 40
1.0
 40
2.0
 40
2.0
 40
2.0
 40
3.0
 40
3.0
 40
3.0
 40
4.0
 40
4.0
 40
4.0
 40
4.0
 10
200.0878984323652
 20
-56.3800753197286
 30
0.0
 10
200.0878984323652
 20
-56.98758854435656
 30
0.0
 10
199.5954116572684
 20
-57.48007531945399
 30
0.0
 10
198.9878984326401
 20
-57.48007531945399
 30
0.0
 10
198.3803852080118
 20
-57.48007531945399
 30
0.0
 10
197.887898432915
 20
-56.98758854435656
 30
0.0
 10
197.887898432915
 20
-56.3800753197286
 30
0.0
 10
197.887898432915
 20
-55.77256209510064
 30
0.0
 10
198.3803852080118
 20
-55.28007532000385
 30
0.0
 10
198.9878984326401
 20
-55.28007532000385
 30
0.0
 10
199.5954116572684
 20
-55.28007532000385
 30
0.0
 10
200.0878984323652
 20
-55.77256209510064
 30
0.0
 10
200.0878984323652
 20
-56.3800753197286
 30
0.0
  0
SPLINE
  5
1DD
330
1F
100
AcDbEntity
  8
Layer 1
 62
   195
420
  7949726
370
    25
100
AcDbSpline
210
0.0
220
0.0
230
1.0
 70
    11
 71
     3
 72
    17
 73
    13
 74
     0
 42
0.0000000001
 43
0.0000000001
 12
1.0
 22
0.0
 32
0.0
 13
1.0
 23
0.0
 33
0.0
 40
0.0
 40
0.0
 40
0.0
 40
0.0
 40
1.0
 40
1.0
 40
1.0
 40
2.0
 40
2.0
 40
2.0
 40
3.0
 40
3.0
 40
3.0
 40
4.0
 40
4.0
 40
4.0
 40
4.0
 10
83.49071158657648
 20
-159.6301399949047
 30
0.0
 10
83.49071158657648
 20
-160.2376532195317
 30
0.0
 10
82.99822481147969
 20
-160.7301399946298
 30
0.0
 10
82.39071158685141
 20
-160.7301399946298
 30
0.0
 10
81.78319836222313
 20
-160.7301399946298
 30
0.0
 10
81.29071158712634
 20
-160.2376532195317
 30
0.0
 10
81.29071158712634
 20
-159.6301399949047
 30
0.0
 10
81.29071158712634
 20
-159.0226267702764
 30
0.0
 10
81.78319836222313
 20
-158.5301399951796
 30
0.0
 10
82.39071158685141
 20
-158.5301399951796
 30
0.0
 10
82.99822481147969
 20
-158.5301399951796
 30
0.0
 10
83.49071158657648
 20
-159.0226267702764
 30
0.0
 10
83.49071158657648
 20
-159.6301399949047
 30
0.0
  0
ENDSEC
  0
SECTION
  2
OBJECTS
  0
DICTIONARY
  5
C
330
0
100
AcDbDictionary
281
     1
  3
ACAD_GROUP
350
D
  3
ACAD_LAYOUT
350
1A
  3
ACAD_MATERIAL
350
3B
  3
ACAD_MLEADERSTYLE
350
1DF
  3
ACAD_MLINESTYLE
350
17
  3
ACAD_PLOTSETTINGS
350
19
  3
ACAD_PLOTSTYLENAME
350
E
  3
ACAD_TABLESTYLE
350
1DE
  3
ACAD_VISUALSTYLE
350
2A
  0
SUN
  5
3F
330
29
100
AcDbSun
 90
        1
290
     0
 63
     7
421
 16777215
 40
1.0
291
     1
 91
  2455826
 92
 54000000
292
     0
 70
     2
 71
   256
280
     1
  0
DICTIONARY
  5
D
102
{ACAD_REACTORS
330
C
102
}
330
C
100
AcDbDictionary
281
     1
  0
DICTIONARY
  5
1A
102
{ACAD_REACTORS
330
C
102
}
330
C
100
AcDbDictionary
281
     1
  3
Layout1
350
1E
  3
Layout2
350
26
  3
Model
350
22
  0
DICTIONARY
  5
3B
102
{ACAD_REACTORS
330
C
102
}
330
C
100
AcDbDictionary
281
     1
  3
ByBlock
350
3D
  3
ByLayer
350
3C
  3
Global
350
3E
  0
DICTIONARY
  5
1DF
102
{ACAD_REACTORS
330
C
102
}
330
C
100
AcDbDictionary
281
     1
  0
DICTIONARY
  5
17
102
{ACAD_REACTORS
330
C
102
}
330
C
100
AcDbDictionary
281
     1
  3
Standard
350
18
  0
DICTIONARY
  5
19
102
{ACAD_REACTORS
330
C
102
}
330
C
100
AcDbDictionary
281
     1
  0
ACDBDICTIONARYWDFLT
  5
E
102
{ACAD_REACTORS
330
C
102
}
330
C
100
AcDbDictionary
281
     1
  3
Normal
350
F
100
AcDbDictionaryWithDefault
340
F
  0
DICTIONARY
  5
1DE
102
{ACAD_REACTORS
330
C
102
}
330
C
100
AcDbDictionary
281
     1
  0
DICTIONARY
  5
2A
102
{ACAD_REACTORS
330
C
102
}
330
C
100
AcDbDictionary
281
     1
  3
2dWireframe
350
2F
  3
3D Hidden
350
31
  3
3dWireframe
350
30
  3
Basic
350
32
  3
Brighten
350
36
  3
ColorChange
350
3A
  3
Conceptual
350
34
  3
Dim
350
35
  3
Facepattern
350
39
  3
Flat
350
2B
  3
FlatWithEdges
350
2C
  3
Gouraud
350
2D
  3
GouraudWithEdges
350
2E
  3
Linepattern
350
38
  3
Realistic
350
33
  3
Thicken
350
37
  0
LAYOUT
  5
1E
102
{ACAD_REACTORS
330
1A
102
}
330
1A
100
AcDbPlotSettings
  1

  2
none_device
  4

  6

 40
0.0
 41
0.0
 42
0.0
 43
0.0
 44
0.0
 45
0.0
 46
0.0
 47
0.0
 48
0.0
 49
0.0
140
0.0
141
0.0
142
1.0
143
1.0
 70
   688
 72
     0
 73
     0
 74
     5
  7

 75
    16
 76
     0
 77
     2
 78
   300
147
1.0
148
0.0
149
0.0
100
AcDbLayout
  1
Layout1
 70
     1
 71
     1
 10
0.0
 20
0.0
 11
12.0
 21
9.0
 12
0.0
 22
0.0
 32
0.0
 14
1.000000000000000E+20
 24
1.000000000000000E+20
 34
1.000000000000000E+20
 15
-1.000000000000000E+20
 25
-1.000000000000000E+20
 35
-1.000000000000000E+20
146
0.0
 13
0.0
 23
0.0
 33
0.0
 16
1.0
 26
0.0
 36
0.0
 17
0.0
 27
1.0
 37
0.0
 76
     0
330
1B
  0
LAYOUT
  5
26
102
{ACAD_REACTORS
330
1A
102
}
330
1A
100
AcDbPlotSettings
  1

  2
none_device
  4

  6

 40
0.0
 41
0.0
 42
0.0
 43
0.0
 44
0.0
 45
0.0
 46
0.0
 47
0.0
 48
0.0
 49
0.0
140
0.0
141
0.0
142
1.0
143
1.0
 70
   688
 72
     0
 73
     0
 74
     5
  7

 75
    16
 76
     0
 77
     2
 78
   300
147
1.0
148
0.0
149
0.0
100
AcDbLayout
  1
Layout2
 70
     1
 71
     2
 10
0.0
 20
0.0
 11
0.0
 21
0.0
 12
0.0
 22
0.0
 32
0.0
 14
0.0
 24
0.0
 34
0.0
 15
0.0
 25
0.0
 35
0.0
146
0.0
 13
0.0
 23
0.0
 33
0.0
 16
1.0
 26
0.0
 36
0.0
 17
0.0
 27
1.0
 37
0.0
 76
     0
330
23
  0
LAYOUT
  5
22
102
{ACAD_REACTORS
330
1A
102
}
330
1A
100
AcDbPlotSettings
  1

  2
none_device
  4

  6

 40
0.0
 41
0.0
 42
0.0
 43
0.0
 44
0.0
 45
0.0
 46
0.0
 47
0.0
 48
0.0
 49
0.0
140
0.0
141
0.0
142
1.0
143
1.0
 70
  1712
 72
     0
 73
     0
 74
     0
  7

 75
     0
 76
     0
 77
     2
 78
   300
147
1.0
148
0.0
149
0.0
100
AcDbLayout
  1
Model
 70
     1
 71
     0
 10
0.0
 20
0.0
 11
12.0
 21
9.0
 12
0.0
 22
0.0
 32
0.0
 14
1.000000000000000E+20
 24
1.000000000000000E+20
 34
1.000000000000000E+20
 15
-1.000000000000000E+20
 25
-1.000000000000000E+20
 35
-1.000000000000000E+20
146
0.0
 13
0.0
 23
0.0
 33
0.0
 16
1.0
 26
0.0
 36
0.0
 17
0.0
 27
1.0
 37
0.0
 76
     0
330
1F
331
29
  0
MATERIAL
  5
3D
102
{ACAD_REACTORS
330
3B
102
}
330
3B
100
AcDbMaterial
  1
ByBlock
 72
     1
 94
      127
  0
MATERIAL
  5
3C
102
{ACAD_REACTORS
330
3B
102
}
330
3B
100
AcDbMaterial
  1
ByLayer
 72
     1
 94
      127
  0
MATERIAL
  5
3E
102
{ACAD_REACTORS
330
3B
102
}
330
3B
100
AcDbMaterial
  1
Global
 72
     1
 94
      127
  0
MLINESTYLE
  5
18
102
{ACAD_REACTORS
330
17
102
}
330
17
100
AcDbMlineStyle
  2
Standard
 70
     0
  3

 62
   256
 51
90.0
 52
90.0
 71
     2
 49
0.5
 62
   256
  6
BYLAYER
 49
-0.5
 62
   256
  6
BYLAYER
  0
ACDBPLACEHOLDER
  5
F
102
{ACAD_REACTORS
330
E
102
}
330
E
  0
VISUALSTYLE
  5
2F
102
{ACAD_REACTORS
330
2A
102
}
330
2A
100
AcDbVisualStyle
  2
2dWireframe
 70
     4
177
     2
291
     0
 71
     0
176
     1
 72
     2
176
     1
 73
     0
176
     1
 90
        0
176
     1
 40
-0.6
176
     1
 41
-30.0
176
     1
 62
     5
 63
     7
421
 16777215
176
     1
 74
     1
176
     1
 91
        4
176
     1
 64
     7
176
     1
 65
   257
176
     1
 75
     1
176
     1
175
     1
176
     1
 42
1.0
176
     1
 92
        0
176
     1
 66
   257
176
     1
 43
1.0
176
     1
 76
     1
176
     1
 77
     6
176
     1
 78
     2
176
     1
 67
     7
176
     1
 79
     5
176
     1
170
     0
176
     1
171
     0
176
     1
290
     0
176
     1
 93
        1
176
     1
 44
0.0
176
     1
173
     0
176
     1
  0
VISUALSTYLE
  5
31
102
{ACAD_REACTORS
330
2A
102
}
330
2A
100
AcDbVisualStyle
  2
3D Hidden
 70
     6
177
     2
291
     0
 71
     1
176
     1
 72
     2
176
     1
 73
     2
176
     1
 90
        0
176
     1
 40
-0.6
176
     1
 41
-30.0
176
     1
 62
     5
 63
     7
421
 16777215
176
     1
 74
     2
176
     1
 91
        2
176
     1
 64
     7
176
     1
 65
   257
176
     1
 75
     2
176
     1
175
     1
176
     1
 42
40.0
176
     1
 92
        0
176
     1
 66
   257
176
     1
 43
1.0
176
     1
 76
     1
176
     1
 77
     6
176
     1
 78
     2
176
     1
 67
     7
176
     1
 79
     3
176
     1
170
     0
176
     1
171
     0
176
     1
290
     0
176
     1
 93
        1
176
     1
 44
0.0
176
     1
173
     0
176
     1
  0
VISUALSTYLE
  5
30
102
{ACAD_REACTORS
330
2A
102
}
330
2A
100
AcDbVisualStyle
  2
3dWireframe
 70
     5
177
     2
291
     0
 71
     0
176
     1
 72
     2
176
     1
 73
     0
176
     1
 90
        0
176
     1
 40
-0.6
176
     1
 41
-30.0
176
     1
 62
     5
 63
     7
421
 16777215
176
     1
 74
     1
176
     1
 91
        4
176
     1
 64
     7
176
     1
 65
   257
176
     1
 75
     1
176
     1
175
     1
176
     1
 42
1.0
176
     1
 92
        0
176
     1
 66
   257
176
     1
 43
1.0
176
     1
 76
     1
176
     1
 77
     6
176
     1
 78
     2
176
     1
 67
     7
176
     1
 79
     5
176
     1
170
     0
176
     1
171
     0
176
     1
290
     0
176
     1
 93
        1
176
     1
 44
0.0
176
     1
173
     0
176
     1
  0
VISUALSTYLE
  5
32
102
{ACAD_REACTORS
330
2A
102
}
330
2A
100
AcDbVisualStyle
  2
Basic
 70
     7
177
     2
291
     1
 71
     1
176
     1
 72
     0
176
     1
 73
     1
176
     1
 90
        0
176
     1
 40
-0.6
176
     1
 41
-30.0
176
     1
 62
     5
 63
     7
421
 16777215
176
     1
 74
     0
176
     1
 91
        4
176
     1
 64
     7
176
     1
 65
   257
176
     1
 75
     1
176
     1
175
     1
176
     1
 42
1.0
176
     1
 92
        8
176
     1
 66
     7
176
     1
 43
1.0
176
     1
 76
     1
176
     1
 77
     6
176
     1
 78
     2
176
     1
 67
     7
176
     1
 79
     5
176
     1
170
     0
176
     1
171
     0
176
     1
290
     0
176
     1
 93
        1
176
     1
 44
0.0
176
     1
173
     0
176
     1
  0
VISUALSTYLE
  5
36
102
{ACAD_REACTORS
330
2A
102
}
330
2A
100
AcDbVisualStyle
  2
Brighten
 70
    12
177
     2
291
     1
 71
     2
176
     1
 72
     2
176
     1
 73
     0
176
     1
 90
        0
176
     1
 40
-0.6
176
     1
 41
-30.0
176
     1
 62
     5
 63
     7
421
 16777215
176
     1
 74
     1
176
     1
 91
        4
176
     1
 64
     7
176
     1
 65
   257
176
     1
 75
     1
176
     1
175
     1
176
     1
 42
1.0
176
     1
 92
        8
176
     1
 66
     7
176
     1
 43
1.0
176
     1
 76
     1
176
     1
 77
     6
176
     1
 78
     2
176
     1
 67
     7
176
     1
 79
     5
176
     1
170
     0
176
     1
171
     0
176
     1
290
     0
176
     1
 93
        1
176
     1
 44
50.0
176
     1
173
     0
176
     1
  0
VISUALSTYLE
  5
3A
102
{ACAD_REACTORS
330
2A
102
}
330
2A
100
AcDbVisualStyle
  2
ColorChange
 70
    16
177
     2
291
     1
 71
     2
176
     1
 72
     2
176
     1
 73
     3
176
     1
 90
        0
176
     1
 40
-0.6
176
     1
 41
-30.0
176
     1
 62
     5
 63
     8
421
  8421504
176
     1
 74
     1
176
     1
 91
        4
176
     1
 64
     7
176
     1
 65
   257
176
     1
 75
     1
176
     1
175
     1
176
     1
 42
1.0
176
     1
 92
        8
176
     1
 66
     8
424
  8421504
176
     1
 43
1.0
176
     1
 76
     1
176
     1
 77
     6
176
     1
 78
     2
176
     1
 67
     7
176
     1
 79
     5
176
     1
170
     0
176
     1
171
     0
176
     1
290
     0
176
     1
 93
        1
176
     1
 44
0.0
176
     1
173
     0
176
     1
  0
VISUALSTYLE
  5
34
102
{ACAD_REACTORS
330
2A
102
}
330
2A
100
AcDbVisualStyle
  2
Conceptual
 70
     9
177
     2
291
     0
 71
     3
176
     1
 72
     2
176
     1
 73
     0
176
     1
 90
        0
176
     1
 40
-0.6
176
     1
 41
-30.0
176
     1
 62
     5
 63
     7
421
 16777215
176
     1
 74
     2
176
     1
 91
        2
176
     1
 64
     7
176
     1
 65
   257
176
     1
 75
     1
176
     1
175
     1
176
     1
 42
40.0
176
     1
 92
        8
176
     1
 66
     7
176
     1
 43
1.0
176
     1
 76
     1
176
     1
 77
     6
176
     1
 78
     2
176
     1
 67
     7
176
     1
 79
     3
176
     1
170
     0
176
     1
171
     0
176
     1
290
     0
176
     1
 93
        1
176
     1
 44
0.0
176
     1
173
     0
176
     1
  0
VISUALSTYLE
  5
35
102
{ACAD_REACTORS
330
2A
102
}
330
2A
100
AcDbVisualStyle
  2
Dim
 70
    11
177
     2
291
     1
 71
     2
176
     1
 72
     2
176
     1
 73
     0
176
     1
 90
        0
176
     1
 40
-0.6
176
     1
 41
-30.0
176
     1
 62
     5
 63
     7
421
 16777215
176
     1
 74
     1
176
     1
 91
        4
176
     1
 64
     7
176
     1
 65
   257
176
     1
 75
     1
176
     1
175
     1
176
     1
 42
1.0
176
     1
 92
        8
176
     1
 66
     7
176
     1
 43
1.0
176
     1
 76
     1
176
     1
 77
     6
176
     1
 78
     2
176
     1
 67
     7
176
     1
 79
     5
176
     1
170
     0
176
     1
171
     0
176
     1
290
     0
176
     1
 93
        1
176
     1
 44
-50.0
176
     1
173
     0
176
     1
  0
VISUALSTYLE
  5
39
102
{ACAD_REACTORS
330
2A
102
}
330
2A
100
AcDbVisualStyle
  2
Facepattern
 70
    15
177
     2
291
     1
 71
     2
176
     1
 72
     2
176
     1
 73
     0
176
     1
 90
        0
176
     1
 40
-0.6
176
     1
 41
-30.0
176
     1
 62
     5
 63
     7
421
 16777215
176
     1
 74
     1
176
     1
 91
        4
176
     1
 64
     7
176
     1
 65
   257
176
     1
 75
     1
176
     1
175
     1
176
     1
 42
1.0
176
     1
 92
        8
176
     1
 66
     7
176
     1
 43
1.0
176
     1
 76
     1
176
     1
 77
     6
176
     1
 78
     2
176
     1
 67
     7
176
     1
 79
     5
176
     1
170
     0
176
     1
171
     0
176
     1
290
     0
176
     1
 93
        1
176
     1
 44
0.0
176
     1
173
     0
176
     1
  0
VISUALSTYLE
  5
2B
102
{ACAD_REACTORS
330
2A
102
}
330
2A
100
AcDbVisualStyle
  2
Flat
 70
     0
177
     2
291
     1
 71
     2
176
     1
 72
     1
176
     1
 73
     1
176
     1
 90
        2
176
     1
 40
-0.6
176
     1
 41
30.0
176
     1
 62
     5
 63
     7
421
 16777215
176
     1
 74
     0
176
     1
 91
        4
176
     1
 64
     7
176
     1
 65
   257
176
     1
 75
     1
176
     1
175
     1
176
     1
 42
1.0
176
     1
 92
        8
176
     1
 66
     7
176
     1
 43
1.0
176
     1
 76
     1
176
     1
 77
     6
176
     1
 78
     2
176
     1
 67
     7
176
     1
 79
     5
176
     1
170
     0
176
     1
171
     0
176
     1
290
     0
176
     1
 93
       13
176
     1
 44
0.0
176
     1
173
     0
176
     1
  0
VISUALSTYLE
  5
2C
102
{ACAD_REACTORS
330
2A
102
}
330
2A
100
AcDbVisualStyle
  2
FlatWithEdges
 70
     1
177
     2
291
     1
 71
     2
176
     1
 72
     1
176
     1
 73
     1
176
     1
 90
        2
176
     1
 40
-0.6
176
     1
 41
30.0
176
     1
 62
     5
 63
     7
421
 16777215
176
     1
 74
     1
176
     1
 91
        4
176
     1
 64
     7
176
     1
 65
   257
176
     1
 75
     1
176
     1
175
     1
176
     1
 42
1.0
176
     1
 92
        0
176
     1
 66
   257
176
     1
 43
1.0
176
     1
 76
     1
176
     1
 77
     6
176
     1
 78
     2
176
     1
 67
     7
176
     1
 79
     5
176
     1
170
     0
176
     1
171
     0
176
     1
290
     0
176
     1
 93
       13
176
     1
 44
0.0
176
     1
173
     0
176
     1
  0
VISUALSTYLE
  5
2D
102
{ACAD_REACTORS
330
2A
102
}
330
2A
100
AcDbVisualStyle
  2
Gouraud
 70
     2
177
     2
291
     1
 71
     2
176
     1
 72
     2
176
     1
 73
     1
176
     1
 90
        2
176
     1
 40
-0.6
176
     1
 41
30.0
176
     1
 62
     5
 63
     7
421
 16777215
176
     1
 74
     0
176
     1
 91
        4
176
     1
 64
     7
176
     1
 65
   257
176
     1
 75
     1
176
     1
175
     1
176
     1
 42
1.0
176
     1
 92
        0
176
     1
 66
     7
176
     1
 43
1.0
176
     1
 76
     1
176
     1
 77
     6
176
     1
 78
     2
176
     1
 67
     7
176
     1
 79
     5
176
     1
170
     0
176
     1
171
     0
176
     1
290
     0
176
     1
 93
       13
176
     1
 44
0.0
176
     1
173
     0
176
     1
  0
VISUALSTYLE
  5
2E
102
{ACAD_REACTORS
330
2A
102
}
330
2A
100
AcDbVisualStyle
  2
GouraudWithEdges
 70
     3
177
     2
291
     1
 71
     2
176
     1
 72
     2
176
     1
 73
     1
176
     1
 90
        2
176
     1
 40
-0.6
176
     1
 41
30.0
176
     1
 62
     5
 63
     7
421
 16777215
176
     1
 74
     1
176
     1
 91
        4
176
     1
 64
     7
176
     1
 65
   257
176
     1
 75
     1
176
     1
175
     1
176
     1
 42
1.0
176
     1
 92
        0
176
     1
 66
   257
176
     1
 43
1.0
176
     1
 76
     1
176
     1
 77
     6
176
     1
 78
     2
176
     1
 67
     7
176
     1
 79
     5
176
     1
170
     0
176
     1
171
     0
176
     1
290
     0
176
     1
 93
       13
176
     1
 44
0.0
176
     1
173
     0
176
     1
  0
VISUALSTYLE
  5
38
102
{ACAD_REACTORS
330
2A
102
}
330
2A
100
AcDbVisualStyle
  2
Linepattern
 70
    14
177
     2
291
     1
 71
     2
176
     1
 72
     2
176
     1
 73
     0
176
     1
 90
        0
176
     1
 40
-0.6
176
     1
 41
-30.0
176
     1
 62
     5
 63
     7
421
 16777215
176
     1
 74
     1
176
     1
 91
        4
176
     1
 64
     7
176
     1
 65
   257
176
     1
 75
     7
176
     1
175
     7
176
     1
 42
1.0
176
     1
 92
        8
176
     1
 66
     7
176
     1
 43
1.0
176
     1
 76
     1
176
     1
 77
     6
176
     1
 78
     2
176
     1
 67
     7
176
     1
 79
     5
176
     1
170
     0
176
     1
171
     0
176
     1
290
     0
176
     1
 93
        1
176
     1
 44
0.0
176
     1
173
     0
176
     1
  0
VISUALSTYLE
  5
33
102
{ACAD_REACTORS
330
2A
102
}
330
2A
100
AcDbVisualStyle
  2
Realistic
 70
     8
177
     2
291
     0
 71
     2
176
     1
 72
     2
176
     1
 73
     0
176
     1
 90
        0
176
     1
 40
-0.6
176
     1
 41
-30.0
176
     1
 62
     5
 63
     7
421
 16777215
176
     1
 74
     1
176
     1
 91
        0
176
     1
 64
     7
176
     1
 65
   257
176
     1
 75
     1
176
     1
175
     1
176
     1
 42
1.0
176
     1
 92
        8
176
     1
 66
     8
424
  7895160
176
     1
 43
1.0
176
     1
 76
     1
176
     1
 77
     6
176
     1
 78
     2
176
     1
 67
     7
176
     1
 79
     5
176
     1
170
     0
176
     1
171
     0
176
     1
290
     0
176
     1
 93
       13
176
     1
 44
0.0
176
     1
173
     0
176
     1
  0
VISUALSTYLE
  5
37
102
{ACAD_REACTORS
330
2A
102
}
330
2A
100
AcDbVisualStyle
  2
Thicken
 70
    13
177
     2
291
     1
 71
     2
176
     1
 72
     2
176
     1
 73
     0
176
     1
 90
        0
176
     1
 40
-0.6
176
     1
 41
-30.0
176
     1
 62
     5
 63
     7
421
 16777215
176
     1
 74
     1
176
     1
 91
        4
176
     1
 64
     7
176
     1
 65
   257
176
     1
 75
     1
176
     1
175
     1
176
     1
 42
1.0
176
     1
 92
       12
176
     1
 66
     7
176
     1
 43
1.0
176
     1
 76
     1
176
     1
 77
     6
176
     1
 78
     2
176
     1
 67
     7
176
     1
 79
     5
176
     1
170
     0
176
     1
171
     0
176
     1
290
     0
176
     1
 93
        1
176
     1
 44
0.0
176
     1
173
     0
176
     1
  0
ENDSEC
  0
EOF
