  0
SECTION
  2
HEADER
  9
$ACADVER
  1
AC1024
  9
$ACADMAINTVER
 70
     6
  9
$DWGCODEPAGE
  3
UNDEFINED
  9
$INSBASE
 10
0.0
 20
0.0
 30
0.0
  9
$EXTMIN
 10
1.000000000000000E+20
 20
1.000000000000000E+20
 30
1.000000000000000E+20
  9
$EXTMAX
 10
-1.000000000000000E+20
 20
-1.000000000000000E+20
 30
-1.000000000000000E+20
  9
$LIMMIN
 10
0.0
 20
0.0
  9
$LIMMAX
 10
12.0
 20
9.0
  9
$ORTHOMODE
 70
     0
  9
$REGENMODE
 70
     1
  9
$FILLMODE
 70
     1
  9
$QTEXTMODE
 70
     0
  9
$MIRRTEXT
 70
     1
  9
$LTSCALE
 40
1.0
  9
$ATTMODE
 70
     1
  9
$TEXTSIZE
 40
0.2
  9
$TRACEWID
 40
0.05
  9
$TEXTSTYLE
  7
Standard
  9
$CLAYER
  8
0
  9
$CELTYPE
  6
ByLayer
  9
$CECOLOR
 62
   256
  9
$CELTSCALE
 40
1.0
  9
$DISPSILH
 70
     0
  9
$DIMSCALE
 40
1.0
  9
$DIMASZ
 40
0.18
  9
$DIMEXO
 40
0.0625
  9
$DIMDLI
 40
0.38
  9
$DIMRND
 40
0.0
  9
$DIMDLE
 40
0.0
  9
$DIMEXE
 40
0.18
  9
$DIMTP
 40
0.0
  9
$DIMTM
 40
0.0
  9
$DIMTXT
 40
0.18
  9
$DIMCEN
 40
0.09
  9
$DIMTSZ
 40
0.0
  9
$DIMTOL
 70
     0
  9
$DIMLIM
 70
     0
  9
$DIMTIH
 70
     1
  9
$DIMTOH
 70
     1
  9
$DIMSE1
 70
     0
  9
$DIMSE2
 70
     0
  9
$DIMTAD
 70
     0
  9
$DIMZIN
 70
     0
  9
$DIMBLK
  1

  9
$DIMASO
 70
     1
  9
$DIMSHO
 70
     1
  9
$DIMPOST
  1

  9
$DIMAPOST
  1

  9
$DIMALT
 70
     0
  9
$DIMALTD
 70
     2
  9
$DIMALTF
 40
25.4
  9
$DIMLFAC
 40
1.0
  9
$DIMTOFL
 70
     0
  9
$DIMTVP
 40
0.0
  9
$DIMTIX
 70
     0
  9
$DIMSOXD
 70
     0
  9
$DIMSAH
 70
     0
  9
$DIMBLK1
  1

  9
$DIMBLK2
  1

  9
$DIMSTYLE
  2
Standard
  9
$DIMCLRD
 70
     0
  9
$DIMCLRE
 70
     0
  9
$DIMCLRT
 70
     0
  9
$DIMTFAC
 40
1.0
  9
$DIMGAP
 40
0.09
  9
$DIMJUST
 70
     0
  9
$DIMSD1
 70
     0
  9
$DIMSD2
 70
     0
  9
$DIMTOLJ
 70
     1
  9
$DIMTZIN
 70
     0
  9
$DIMALTZ
 70
     0
  9
$DIMALTTZ
 70
     0
  9
$DIMUPT
 70
     0
  9
$DIMDEC
 70
     4
  9
$DIMTDEC
 70
     4
  9
$DIMALTU
 70
     2
  9
$DIMALTTD
 70
     2
  9
$DIMTXSTY
  7
Standard
  9
$DIMAUNIT
 70
     0
  9
$DIMADEC
 70
     0
  9
$DIMALTRND
 40
0.0
  9
$DIMAZIN
 70
     0
  9
$DIMDSEP
 70
    46
  9
$DIMATFIT
 70
     3
  9
$DIMFRAC
 70
     0
  9
$DIMLDRBLK
  1

  9
$DIMLUNIT
 70
     2
  9
$DIMLWD
 70
    -2
  9
$DIMLWE
 70
    -2
  9
$DIMTMOVE
 70
     0
  9
$DIMFXL
 40
1.0
  9
$DIMFXLON
 70
     0
  9
$DIMJOGANG
 40
0.7853981633974483
  9
$DIMTFILL
 70
     0
  9
$DIMTFILLCLR
 70
     0
  9
$DIMARCSYM
 70
     0
  9
$DIMLTYPE
  6

  9
$DIMLTEX1
  6

  9
$DIMLTEX2
  6

  9
$DIMTXTDIRECTION
 70
     0
  9
$LUNITS
 70
     2
  9
$LUPREC
 70
     4
  9
$SKETCHINC
 40
0.1
  9
$FILLETRAD
 40
0.5
  9
$AUNITS
 70
     0
  9
$AUPREC
 70
     0
  9
$MENU
  1
.
  9
$ELEVATION
 40
0.0
  9
$PELEVATION
 40
0.0
  9
$THICKNESS
 40
0.0
  9
$LIMCHECK
 70
     0
  9
$CHAMFERA
 40
0.5
  9
$CHAMFERB
 40
0.5
  9
$CHAMFERC
 40
1.0
  9
$CHAMFERD
 40
0.0
  9
$SKPOLY
 70
     0
  9
$TDCREATE
 40
2459069.753634247
  9
$TDUCREATE
 40
2459069.961967593
  9
$TDUPDATE
 40
2459069.753634247
  9
$TDUUPDATE
 40
2459069.961967593
  9
$TDINDWG
 40
0.0000000116
  9
$TDUSRTIMER
 40
0.0000000116
  9
$USRTIMER
 70
     1
  9
$ANGBASE
 50
0.0
  9
$ANGDIR
 70
     0
  9
$PDMODE
 70
     0
  9
$PDSIZE
 40
0.0
  9
$PLINEWID
 40
0.0
  9
$SPLFRAME
 70
     0
  9
$SPLINETYPE
 70
     6
  9
$SPLINESEGS
 70
     8
  9
$HANDSEED
  5
F4
  9
$SURFTAB1
 70
     6
  9
$SURFTAB2
 70
     6
  9
$SURFTYPE
 70
     6
  9
$SURFU
 70
     6
  9
$SURFV
 70
     6
  9
$UCSBASE
  2

  9
$UCSNAME
  2

  9
$UCSORG
 10
0.0
 20
0.0
 30
0.0
  9
$UCSXDIR
 10
1.0
 20
0.0
 30
0.0
  9
$UCSYDIR
 10
0.0
 20
1.0
 30
0.0
  9
$UCSORTHOREF
  2

  9
$UCSORTHOVIEW
 70
     0
  9
$UCSORGTOP
 10
0.0
 20
0.0
 30
0.0
  9
$UCSORGBOTTOM
 10
0.0
 20
0.0
 30
0.0
  9
$UCSORGLEFT
 10
0.0
 20
0.0
 30
0.0
  9
$UCSORGRIGHT
 10
0.0
 20
0.0
 30
0.0
  9
$UCSORGFRONT
 10
0.0
 20
0.0
 30
0.0
  9
$UCSORGBACK
 10
0.0
 20
0.0
 30
0.0
  9
$PUCSBASE
  2

  9
$PUCSNAME
  2

  9
$PUCSORG
 10
0.0
 20
0.0
 30
0.0
  9
$PUCSXDIR
 10
1.0
 20
0.0
 30
0.0
  9
$PUCSYDIR
 10
0.0
 20
1.0
 30
0.0
  9
$PUCSORTHOREF
  2

  9
$PUCSORTHOVIEW
 70
     0
  9
$PUCSORGTOP
 10
0.0
 20
0.0
 30
0.0
  9
$PUCSORGBOTTOM
 10
0.0
 20
0.0
 30
0.0
  9
$PUCSORGLEFT
 10
0.0
 20
0.0
 30
0.0
  9
$PUCSORGRIGHT
 10
0.0
 20
0.0
 30
0.0
  9
$PUCSORGFRONT
 10
0.0
 20
0.0
 30
0.0
  9
$PUCSORGBACK
 10
0.0
 20
0.0
 30
0.0
  9
$USERI1
 70
     0
  9
$USERI2
 70
     0
  9
$USERI3
 70
     0
  9
$USERI4
 70
     0
  9
$USERI5
 70
     0
  9
$USERR1
 40
0.0
  9
$USERR2
 40
0.0
  9
$USERR3
 40
0.0
  9
$USERR4
 40
0.0
  9
$USERR5
 40
0.0
  9
$WORLDVIEW
 70
     1
  9
$SHADEDGE
 70
     3
  9
$SHADEDIF
 70
    70
  9
$TILEMODE
 70
     1
  9
$MAXACTVP
 70
    64
  9
$PINSBASE
 10
0.0
 20
0.0
 30
0.0
  9
$PLIMCHECK
 70
     0
  9
$PEXTMIN
 10
1.000000000000000E+20
 20
1.000000000000000E+20
 30
1.000000000000000E+20
  9
$PEXTMAX
 10
-1.000000000000000E+20
 20
-1.000000000000000E+20
 30
-1.000000000000000E+20
  9
$PLIMMIN
 10
0.0
 20
0.0
  9
$PLIMMAX
 10
12.0
 20
9.0
  9
$UNITMODE
 70
     0
  9
$VISRETAIN
 70
     1
  9
$PLINEGEN
 70
     0
  9
$PSLTSCALE
 70
     1
  9
$TREEDEPTH
 70
  3020
  9
$CMLSTYLE
  2
Standard
  9
$CMLJUST
 70
     0
  9
$CMLSCALE
 40
1.0
  9
$PROXYGRAPHICS
 70
     1
  9
$MEASUREMENT
 70
     0
  9
$CELWEIGHT
370
    -1
  9
$ENDCAPS
280
     0
  9
$JOINSTYLE
280
     0
  9
$LWDISPLAY
290
     1
  9
$INSUNITS
 70
     1
  9
$HYPERLINKBASE
  1

  9
$STYLESHEET
  1

  9
$XEDIT
290
     1
  9
$CEPSNTYPE
380
     0
  9
$PSTYLEMODE
290
     1
  9
$FINGERPRINTGUID
  2
{0A5F99AF-1EDA-67C6-5792-31181592D473}
  9
$VERSIONGUID
  2
{FAEB1C32-E019-11D5-929B-00C0DF256EC4}
  9
$EXTNAMES
290
     1
  9
$PSVPSCALE
 40
0.0
  9
$OLESTARTUP
290
     0
  9
$SORTENTS
280
   127
  9
$INDEXCTL
280
     0
  9
$HIDETEXT
280
     1
  9
$XCLIPFRAME
280
     2
  9
$HALOGAP
280
     0
  9
$OBSCOLOR
 70
   257
  9
$OBSLTYPE
280
     0
  9
$INTERSECTIONDISPLAY
280
     0
  9
$INTERSECTIONCOLOR
 70
   257
  9
$DIMASSOC
280
     2
  9
$PROJECTNAME
  1

  9
$CAMERADISPLAY
290
     0
  9
$LENSLENGTH
 40
50.0
  9
$CAMERAHEIGHT
 40
0.0
  9
$STEPSPERSEC
 40
2.0
  9
$STEPSIZE
 40
6.0
  9
$3DDWFPREC
 40
2.0
  9
$PSOLWIDTH
 40
0.25
  9
$PSOLHEIGHT
 40
4.0
  9
$LOFTANG1
 40
1.570796326794897
  9
$LOFTANG2
 40
1.570796326794897
  9
$LOFTMAG1
 40
0.0
  9
$LOFTMAG2
 40
0.0
  9
$LOFTPARAM
 70
     7
  9
$LOFTNORMALS
280
     1
  9
$LATITUDE
 40
37.795
  9
$LONGITUDE
 40
-122.394
  9
$NORTHDIRECTION
 40
0.0
  9
$TIMEZONE
 70
 -8000
  9
$LIGHTGLYPHDISPLAY
280
     1
  9
$TILEMODELIGHTSYNCH
280
     1
  9
$CMATERIAL
347
3C
  9
$SOLIDHIST
280
     1
  9
$SHOWHIST
280
     1
  9
$DWFFRAME
280
     2
  9
$DGNFRAME
280
     2
  9
$REALWORLDSCALE
290
     1
  9
$INTERFERECOLOR
 62
   256
  9
$CSHADOW
280
     0
  9
$SHADOWPLANELOCATION
 40
0.0
  0
ENDSEC
  0
SECTION
  2
CLASSES
  0
CLASS
  1
ACDBDICTIONARYWDFLT
  2
AcDbDictionaryWithDefault
  3
ObjectDBX Classes
 90
        0
 91
        4
280
     0
281
     0
  0
CLASS
  1
VISUALSTYLE
  2
AcDbVisualStyle
  3
ObjectDBX Classes
 90
     4095
 91
        4
280
     0
281
     0
  0
CLASS
  1
MATERIAL
  2
AcDbMaterial
  3
ObjectDBX Classes
 90
     1153
 91
        4
280
     0
281
     0
  0
CLASS
  1
SUN
  2
AcDbSun
  3
SCENEOE
 90
     1024
 91
        4
280
     0
281
     0
  0
ENDSEC
  0
SECTION
  2
TABLES
  0
TABLE
  2
VPORT
  5
8
330
0
100
AcDbSymbolTable
 70
     1
  0
VPORT
  5
29
330
8
100
AcDbSymbolTableRecord
100
AcDbViewportTableRecord
  2
*Active
 70
     0
 10
0.0
 20
0.0
 11
1.0
 21
1.0
 12
0.0
 22
0.0
 13
0.0
 23
0.0
 14
0.5
 24
0.5
 15
0.5
 25
0.5
 16
0.0
 26
0.0
 36
1.0
 17
149.8961485243416
 27
-150.0747288243016
 37
0.0
 40
111.4998846904511
 41
1.526232183050695
 42
50.0
 43
0.0
 44
0.0
 50
0.0
 51
0.0
 71
     0
 72
   100
 73
     1
 74
     3
 75
     0
 76
     0
 77
     0
 78
     0
281
     0
 65
     1
110
0.0
120
0.0
130
0.0
111
1.0
121
0.0
131
0.0
112
0.0
122
1.0
132
0.0
 79
     0
146
0.0
 60
     3
 61
     5
292
     1
282
     1
141
0.0
142
0.0
 63
   250
361
3F
  0
ENDTAB
  0
TABLE
  2
LTYPE
  5
5
330
0
100
AcDbSymbolTable
 70
     1
  0
LTYPE
  5
14
330
5
100
AcDbSymbolTableRecord
100
AcDbLinetypeTableRecord
  2
ByBlock
 70
     0
  3

 72
    65
 73
     0
 40
0.0
  0
LTYPE
  5
15
330
5
100
AcDbSymbolTableRecord
100
AcDbLinetypeTableRecord
  2
ByLayer
 70
     0
  3

 72
    65
 73
     0
 40
0.0
  0
LTYPE
  5
16
330
5
100
AcDbSymbolTableRecord
100
AcDbLinetypeTableRecord
  2
Continuous
 70
     0
  3
Solid line
 72
    65
 73
     0
 40
0.0
  0
ENDTAB
  0
TABLE
  2
LAYER
  5
2
330
0
100
AcDbSymbolTable
 70
     2
  0
LAYER
  5
10
330
2
100
AcDbSymbolTableRecord
100
AcDbLayerTableRecord
  2
0
 70
     0
 62
     7
  6
Continuous
370
    -3
390
F
347
3E
  0
LAYER
  5
40
330
2
100
AcDbSymbolTableRecord
100
AcDbLayerTableRecord
  2
Layer 1
 70
     0
 62
     7
  6
Continuous
370
    -3
390
F
347
3E
  0
ENDTAB
  0
TABLE
  2
STYLE
  5
3
330
0
100
AcDbSymbolTable
 70
     1
  0
STYLE
  5
11
330
3
100
AcDbSymbolTableRecord
100
AcDbTextStyleTableRecord
  2
Standard
 70
     0
 40
0.0
 41
1.0
 50
0.0
 71
     0
 42
0.2
  3
txt
  4

  0
ENDTAB
  0
TABLE
  2
VIEW
  5
6
330
0
100
AcDbSymbolTable
 70
     0
  0
ENDTAB
  0
TABLE
  2
UCS
  5
7
330
0
100
AcDbSymbolTable
 70
     0
  0
ENDTAB
  0
TABLE
  2
APPID
  5
9
330
0
100
AcDbSymbolTable
 70
     1
  0
APPID
  5
12
330
9
100
AcDbSymbolTableRecord
100
AcDbRegAppTableRecord
  2
ACAD
 70
     0
  0
ENDTAB
  0
TABLE
  2
DIMSTYLE
  5
A
330
0
100
AcDbSymbolTable
 70
     1
100
AcDbDimStyleTable
  0
DIMSTYLE
105
27
330
A
100
AcDbSymbolTableRecord
100
AcDbDimStyleTableRecord
  2
Standard
 70
     0
178
     0
340
11
  0
ENDTAB
  0
TABLE
  2
BLOCK_RECORD
  5
1
330
0
100
AcDbSymbolTable
 70
     1
  0
BLOCK_RECORD
  5
1F
330
1
100
AcDbSymbolTableRecord
100
AcDbBlockTableRecord
  2
*Model_Space
340
22
 70
     0
280
     1
281
     0
  0
BLOCK_RECORD
  5
1B
330
1
100
AcDbSymbolTableRecord
100
AcDbBlockTableRecord
  2
*Paper_Space
340
1E
 70
     0
280
     1
281
     0
  0
BLOCK_RECORD
  5
23
330
1
100
AcDbSymbolTableRecord
100
AcDbBlockTableRecord
  2
*Paper_Space0
340
26
 70
     0
280
     1
281
     0
  0
ENDTAB
  0
ENDSEC
  0
SECTION
  2
BLOCKS
  0
BLOCK
  5
20
330
1F
100
AcDbEntity
  8
0
100
AcDbBlockBegin
  2
*Model_Space
 70
     0
 10
0.0
 20
0.0
 30
0.0
  3
*Model_Space
  1

  0
ENDBLK
  5
21
330
1F
100
AcDbEntity
  8
0
100
AcDbBlockEnd
  0
BLOCK
  5
1C
330
1B
100
AcDbEntity
 67
     1
  8
0
100
AcDbBlockBegin
  2
*Paper_Space
 70
     0
 10
0.0
 20
0.0
 30
0.0
  3
*Paper_Space
  1

  0
ENDBLK
  5
1D
330
1B
100
AcDbEntity
 67
     1
  8
0
100
AcDbBlockEnd
  0
BLOCK
  5
24
330
23
100
AcDbEntity
  8
0
100
AcDbBlockBegin
  2
*Paper_Space0
 70
     0
 10
0.0
 20
0.0
 30
0.0
  3
*Paper_Space0
  1

  0
ENDBLK
  5
25
330
23
100
AcDbEntity
  8
0
100
AcDbBlockEnd
  0
ENDSEC
  0
SECTION
  2
ENTITIES
  0
SPLINE
  5
41
330
1F
100
AcDbEntity
  8
Layer 1
 62
   195
420
  7949726
370
    25
100
AcDbSpline
210
0.0
220
0.0
230
1.0
 70
    11
 71
     3
 72
    65
 73
    61
 74
     0
 42
0.0000000001
 43
0.0000000001
 12
1.0
 22
0.0
 32
0.0
 13
1.0
 23
0.0
 33
0.0
 40
0.0
 40
0.0
 40
0.0
 40
0.0
 40
1.0
 40
1.0
 40
1.0
 40
2.0
 40
2.0
 40
2.0
 40
3.0
 40
3.0
 40
3.0
 40
4.0
 40
4.0
 40
4.0
 40
5.0
 40
5.0
 40
5.0
 40
6.0
 40
6.0
 40
6.0
 40
7.0
 40
7.0
 40
7.0
 40
8.0
 40
8.0
 40
8.0
 40
9.0
 40
9.0
 40
9.0
 40
10.0
 40
10.0
 40
10.0
 40
11.0
 40
11.0
 40
11.0
 40
12.0
 40
12.0
 40
12.0
 40
13.0
 40
13.0
 40
13.0
 40
14.0
 40
14.0
 40
14.0
 40
15.0
 40
15.0
 40
15.0
 40
16.0
 40
16.0
 40
16.0
 40
17.0
 40
17.0
 40
17.0
 40
18.0
 40
18.0
 40
18.0
 40
19.0
 40
19.0
 40
19.0
 40
20.0
 40
20.0
 40
20.0
 40
20.0
 10
76.45879231440229
 20
-94.44978648252177
 30
0.0
 10
76.45879231440229
 20
-94.44978648252177
 30
0.0
 10
230.8585047324002
 20
-94.44978648252177
 30
0.0
 10
230.8585047324002
 20
-94.44978648252177
 30
0.0
 10
233.0676437311709
 20
-94.44978648252177
 30
0.0
 10
234.8585047313999
 20
-96.24064748275083
 30
0.0
 10
234.8585047313999
 20
-98.4497864815215
 30
0.0
 10
234.8585047313999
 20
-98.4497864815215
 30
0.0
 10
234.8585047313999
 20
-201.6996711670817
 30
0.0
 10
234.8585047313999
 20
-201.6996711670817
 30
0.0
 10
234.8585047313999
 20
-203.9088101658524
 30
0.0
 10
233.0676437311709
 20
-205.6996711660815
 30
0.0
 10
230.8585047324002
 20
-205.6996711660815
 30
0.0
 10
230.8585047324002
 20
-205.6996711660815
 30
0.0
 10
81.22129231321166
 20
-205.6996711660815
 30
0.0
 10
81.22129231321166
 20
-205.6996711660815
 30
0.0
 10
80.11672281382633
 20
-205.6996711660815
 30
0.0
 10
79.22129231371147
 20
-204.8042406659666
 30
0.0
 10
79.22129231371147
 20
-203.6996711665813
 30
0.0
 10
79.22129231371147
 20
-203.6996711665813
 30
0.0
 10
79.22129231371147
 20
-161.5996711771059
 30
0.0
 10
79.22129231371147
 20
-161.5996711771059
 30
0.0
 10
79.22129231371147
 20
-160.4951016777206
 30
0.0
 10
78.32586181359663
 20
-159.5996711776057
 30
0.0
 10
77.2212923142113
 20
-159.5996711776057
 30
0.0
 10
77.2212923142113
 20
-159.5996711776057
 30
0.0
 10
71.69629231559291
 20
-159.5996711776057
 30
0.0
 10
71.69629231559291
 20
-159.5996711776057
 30
0.0
 10
70.59172281620758
 20
-159.5996711776057
 30
0.0
 10
69.69629231609272
 20
-158.7042406774909
 30
0.0
 10
69.69629231609272
 20
-157.5996711781056
 30
0.0
 10
69.69629231609272
 20
-157.5996711781056
 30
0.0
 10
69.69629231609272
 20
-142.5496711818684
 30
0.0
 10
69.69629231609272
 20
-142.5496711818684
 30
0.0
 10
69.69629231609272
 20
-141.4451016824831
 30
0.0
 10
68.80086181597788
 20
-140.5496711823682
 30
0.0
 10
67.69629231659255
 20
-140.5496711823682
 30
0.0
 10
67.69629231659255
 20
-140.5496711823682
 30
0.0
 10
66.93379231678354
 20
-140.5496711823682
 30
0.0
 10
66.93379231678354
 20
-140.5496711823682
 30
0.0
 10
65.8292228173982
 20
-140.5496711823682
 30
0.0
 10
64.93379231728335
 20
-139.6542406822534
 30
0.0
 10
64.93379231728335
 20
-138.549671182868
 30
0.0
 10
64.93379231728335
 20
-138.549671182868
 30
0.0
 10
64.93379231728335
 20
-123.4997864752592
 30
0.0
 10
64.93379231728335
 20
-123.4997864752592
 30
0.0
 10
64.93379231728335
 20
-122.3952169758739
 30
0.0
 10
65.82922281739756
 20
-121.4997864757594
 30
0.0
 10
66.93379231678354
 20
-121.4997864757594
 30
0.0
 10
66.93379231678354
 20
-121.4997864757594
 30
0.0
 10
72.45879231540192
 20
-121.4997864757594
 30
0.0
 10
72.45879231540192
 20
-121.4997864757594
 30
0.0
 10
73.5633618147879
 20
-121.4997864757594
 30
0.0
 10
74.4587923149021
 20
-120.6043559756449
 30
0.0
 10
74.4587923149021
 20
-119.4997864762595
 30
0.0
 10
74.4587923149021
 20
-119.4997864762595
 30
0.0
 10
74.4587923149021
 20
-96.44978648202164
 30
0.0
 10
74.4587923149021
 20
-96.44978648202164
 30
0.0
 10
74.4587923149021
 20
-95.34521698263663
 30
0.0
 10
75.35422281501631
 20
-94.44978648252177
 30
0.0
 10
76.45879231440229
 20
-94.44978648252177
 30
0.0
  0
SPLINE
  5
42
330
1F
100
AcDbEntity
  8
Layer 1
 62
   195
420
  7949726
370
    25
100
AcDbSpline
210
0.0
220
0.0
230
1.0
 70
    11
 71
     3
 72
    17
 73
    13
 74
     0
 42
0.0000000001
 43
0.0000000001
 12
1.0
 22
0.0
 32
0.0
 13
1.0
 23
0.0
 33
0.0
 40
0.0
 40
0.0
 40
0.0
 40
0.0
 40
1.0
 40
1.0
 40
1.0
 40
2.0
 40
2.0
 40
2.0
 40
3.0
 40
3.0
 40
3.0
 40
4.0
 40
4.0
 40
4.0
 40
4.0
 10
157.821037101154
 20
-201.6998188062038
 30
0.0
 10
157.821037101154
 20
-202.3073320308308
 30
0.0
 10
157.3285503260572
 20
-202.7998188059289
 30
0.0
 10
156.721037101429
 20
-202.7998188059289
 30
0.0
 10
156.1135238768007
 20
-202.7998188059289
 30
0.0
 10
155.6210371017039
 20
-202.3073320308308
 30
0.0
 10
155.6210371017039
 20
-201.6998188062038
 30
0.0
 10
155.6210371017039
 20
-201.0923055815756
 30
0.0
 10
156.1135238768007
 20
-200.5998188064788
 30
0.0
 10
156.721037101429
 20
-200.5998188064788
 30
0.0
 10
157.3285503260572
 20
-200.5998188064788
 30
0.0
 10
157.821037101154
 20
-201.0923055815756
 30
0.0
 10
157.821037101154
 20
-201.6998188062038
 30
0.0
  0
SPLINE
  5
43
330
1F
100
AcDbEntity
  8
Layer 1
 62
   195
420
  7949726
370
    25
100
AcDbSpline
210
0.0
220
0.0
230
1.0
 70
    11
 71
     3
 72
    17
 73
    13
 74
     0
 42
0.0000000001
 43
0.0000000001
 12
1.0
 22
0.0
 32
0.0
 13
1.0
 23
0.0
 33
0.0
 40
0.0
 40
0.0
 40
0.0
 40
0.0
 40
1.0
 40
1.0
 40
1.0
 40
2.0
 40
2.0
 40
2.0
 40
3.0
 40
3.0
 40
3.0
 40
4.0
 40
4.0
 40
4.0
 40
4.0
 10
231.2585047323001
 20
-99.14978648134667
 30
0.0
 10
231.2585047323001
 20
-99.7572997059743
 30
0.0
 10
230.7660179572033
 20
-100.2497864810717
 30
0.0
 10
230.158504732575
 20
-100.2497864810717
 30
0.0
 10
229.5509915079468
 20
-100.2497864810717
 30
0.0
 10
229.05850473285
 20
-99.7572997059743
 30
0.0
 10
229.05850473285
 20
-99.14978648134667
 30
0.0
 10
229.05850473285
 20
-98.54227325671839
 30
0.0
 10
229.5509915079468
 20
-98.0497864816216
 30
0.0
 10
230.158504732575
 20
-98.0497864816216
 30
0.0
 10
230.7660179572033
 20
-98.0497864816216
 30
0.0
 10
231.2585047323001
 20
-98.54227325671839
 30
0.0
 10
231.2585047323001
 20
-99.14978648134667
 30
0.0
  0
SPLINE
  5
44
330
1F
100
AcDbEntity
  8
Layer 1
 62
   195
420
  7949726
370
    25
100
AcDbSpline
210
0.0
220
0.0
230
1.0
 70
    11
 71
     3
 72
    17
 73
    13
 74
     0
 42
0.0000000001
 43
0.0000000001
 12
1.0
 22
0.0
 32
0.0
 13
1.0
 23
0.0
 33
0.0
 40
0.0
 40
0.0
 40
0.0
 40
0.0
 40
1.0
 40
1.0
 40
1.0
 40
2.0
 40
2.0
 40
2.0
 40
3.0
 40
3.0
 40
3.0
 40
4.0
 40
4.0
 40
4.0
 40
4.0
 10
231.2585047323001
 20
-200.9997864558846
 30
0.0
 10
231.2585047323001
 20
-201.6072996805116
 30
0.0
 10
230.7660179572033
 20
-202.0997864556097
 30
0.0
 10
230.158504732575
 20
-202.0997864556097
 30
0.0
 10
229.5509915079468
 20
-202.0997864556097
 30
0.0
 10
229.05850473285
 20
-201.6072996805116
 30
0.0
 10
229.05850473285
 20
-200.9997864558846
 30
0.0
 10
229.05850473285
 20
-200.3922732312563
 30
0.0
 10
229.5509915079468
 20
-199.8997864561595
 30
0.0
 10
230.158504732575
 20
-199.8997864561595
 30
0.0
 10
230.7660179572033
 20
-199.8997864561595
 30
0.0
 10
231.2585047323001
 20
-200.3922732312563
 30
0.0
 10
231.2585047323001
 20
-200.9997864558846
 30
0.0
  0
SPLINE
  5
45
330
1F
100
AcDbEntity
  8
Layer 1
 62
   195
420
  7949726
370
    25
100
AcDbSpline
210
0.0
220
0.0
230
1.0
 70
    11
 71
     3
 72
    17
 73
    13
 74
     0
 42
0.0000000001
 43
0.0000000001
 12
1.0
 22
0.0
 32
0.0
 13
1.0
 23
0.0
 33
0.0
 40
0.0
 40
0.0
 40
0.0
 40
0.0
 40
1.0
 40
1.0
 40
1.0
 40
2.0
 40
2.0
 40
2.0
 40
3.0
 40
3.0
 40
3.0
 40
4.0
 40
4.0
 40
4.0
 40
4.0
 10
79.55850477022463
 20
-98.44975413102742
 30
0.0
 10
79.55850477022463
 20
-99.05726735565506
 30
0.0
 10
79.06601799512784
 20
-99.54975413075249
 30
0.0
 10
78.45850477049956
 20
-99.54975413075249
 30
0.0
 10
77.85099154587128
 20
-99.54975413075249
 30
0.0
 10
77.35850477077449
 20
-99.05726735565506
 30
0.0
 10
77.35850477077449
 20
-98.44975413102742
 30
0.0
 10
77.35850477077449
 20
-97.84224090639914
 30
0.0
 10
77.85099154587128
 20
-97.34975413130235
 30
0.0
 10
78.45850477049956
 20
-97.34975413130235
 30
0.0
 10
79.06601799512784
 20
-97.34975413130235
 30
0.0
 10
79.55850477022463
 20
-97.84224090639914
 30
0.0
 10
79.55850477022463
 20
-98.44975413102742
 30
0.0
  0
SPLINE
  5
46
330
1F
100
AcDbEntity
  8
Layer 1
 62
   195
420
  7949726
370
    25
100
AcDbSpline
210
0.0
220
0.0
230
1.0
 70
    11
 71
     3
 72
    17
 73
    13
 74
     0
 42
0.0000000001
 43
0.0000000001
 12
1.0
 22
0.0
 32
0.0
 13
1.0
 23
0.0
 33
0.0
 40
0.0
 40
0.0
 40
0.0
 40
0.0
 40
1.0
 40
1.0
 40
1.0
 40
2.0
 40
2.0
 40
2.0
 40
3.0
 40
3.0
 40
3.0
 40
4.0
 40
4.0
 40
4.0
 40
4.0
 10
103.5841296062324
 20
-98.44975413102742
 30
0.0
 10
103.5841296062324
 20
-99.05726735565506
 30
0.0
 10
103.0916428311356
 20
-99.54975413075249
 30
0.0
 10
102.4841296065073
 20
-99.54975413075249
 30
0.0
 10
101.876616381879
 20
-99.54975413075249
 30
0.0
 10
101.3841296067823
 20
-99.05726735565506
 30
0.0
 10
101.3841296067823
 20
-98.44975413102742
 30
0.0
 10
101.3841296067823
 20
-97.84224090639914
 30
0.0
 10
101.876616381879
 20
-97.34975413130235
 30
0.0
 10
102.4841296065073
 20
-97.34975413130235
 30
0.0
 10
103.0916428311356
 20
-97.34975413130235
 30
0.0
 10
103.5841296062324
 20
-97.84224090639914
 30
0.0
 10
103.5841296062324
 20
-98.44975413102742
 30
0.0
  0
SPLINE
  5
47
330
1F
100
AcDbEntity
  8
Layer 1
 62
   195
420
  7949726
370
    25
100
AcDbSpline
210
0.0
220
0.0
230
1.0
 70
    11
 71
     3
 72
    17
 73
    13
 74
     0
 42
0.0000000001
 43
0.0000000001
 12
1.0
 22
0.0
 32
0.0
 13
1.0
 23
0.0
 33
0.0
 40
0.0
 40
0.0
 40
0.0
 40
0.0
 40
1.0
 40
1.0
 40
1.0
 40
2.0
 40
2.0
 40
2.0
 40
3.0
 40
3.0
 40
3.0
 40
4.0
 40
4.0
 40
4.0
 40
4.0
 10
178.7988000981567
 20
-98.44975413102742
 30
0.0
 10
178.7988000981567
 20
-99.05726735565537
 30
0.0
 10
178.3063133230599
 20
-99.5497541307528
 30
0.0
 10
177.6988000984316
 20
-99.5497541307528
 30
0.0
 10
177.0912868738033
 20
-99.5497541307528
 30
0.0
 10
176.5988000987065
 20
-99.05726735565537
 30
0.0
 10
176.5988000987065
 20
-98.44975413102742
 30
0.0
 10
176.5988000987065
 20
-97.84224090639945
 30
0.0
 10
177.0912868738033
 20
-97.34975413130266
 30
0.0
 10
177.6988000984316
 20
-97.34975413130266
 30
0.0
 10
178.3063133230599
 20
-97.34975413130266
 30
0.0
 10
178.7988000981567
 20
-97.84224090639945
 30
0.0
 10
178.7988000981567
 20
-98.44975413102742
 30
0.0
  0
SPLINE
  5
48
330
1F
100
AcDbEntity
  8
Layer 1
 62
   195
420
  7949726
370
    25
100
AcDbSpline
210
0.0
220
0.0
230
1.0
 70
    11
 71
     3
 72
    17
 73
    13
 74
     0
 42
0.0000000001
 43
0.0000000001
 12
1.0
 22
0.0
 32
0.0
 13
1.0
 23
0.0
 33
0.0
 40
0.0
 40
0.0
 40
0.0
 40
0.0
 40
1.0
 40
1.0
 40
1.0
 40
2.0
 40
2.0
 40
2.0
 40
3.0
 40
3.0
 40
3.0
 40
4.0
 40
4.0
 40
4.0
 40
4.0
 10
200.9182239653171
 20
-98.44975413102742
 30
0.0
 10
200.9182239653171
 20
-99.05726735565537
 30
0.0
 10
200.4257371902203
 20
-99.5497541307528
 30
0.0
 10
199.818223965592
 20
-99.5497541307528
 30
0.0
 10
199.2107107409637
 20
-99.5497541307528
 30
0.0
 10
198.718223965867
 20
-99.05726735565537
 30
0.0
 10
198.718223965867
 20
-98.44975413102742
 30
0.0
 10
198.718223965867
 20
-97.84224090639945
 30
0.0
 10
199.2107107409637
 20
-97.34975413130266
 30
0.0
 10
199.818223965592
 20
-97.34975413130266
 30
0.0
 10
200.4257371902203
 20
-97.34975413130266
 30
0.0
 10
200.9182239653171
 20
-97.84224090639945
 30
0.0
 10
200.9182239653171
 20
-98.44975413102742
 30
0.0
  0
SPLINE
  5
49
330
1F
100
AcDbEntity
  8
Layer 1
 62
   195
420
  7949726
370
    25
100
AcDbSpline
210
0.0
220
0.0
230
1.0
 70
    11
 71
     3
 72
    17
 73
    13
 74
     0
 42
0.0000000001
 43
0.0000000001
 12
1.0
 22
0.0
 32
0.0
 13
1.0
 23
0.0
 33
0.0
 40
0.0
 40
0.0
 40
0.0
 40
0.0
 40
1.0
 40
1.0
 40
1.0
 40
2.0
 40
2.0
 40
2.0
 40
3.0
 40
3.0
 40
3.0
 40
4.0
 40
4.0
 40
4.0
 40
4.0
 10
84.32103711952874
 20
-201.6998188062038
 30
0.0
 10
84.32103711952874
 20
-202.3073320308308
 30
0.0
 10
83.82855034443195
 20
-202.7998188059289
 30
0.0
 10
83.22103711980367
 20
-202.7998188059289
 30
0.0
 10
82.61352389517539
 20
-202.7998188059289
 30
0.0
 10
82.1210371200786
 20
-202.3073320308308
 30
0.0
 10
82.1210371200786
 20
-201.6998188062038
 30
0.0
 10
82.1210371200786
 20
-201.0923055815756
 30
0.0
 10
82.61352389517539
 20
-200.5998188064788
 30
0.0
 10
83.22103711980367
 20
-200.5998188064788
 30
0.0
 10
83.82855034443195
 20
-200.5998188064788
 30
0.0
 10
84.32103711952874
 20
-201.0923055815756
 30
0.0
 10
84.32103711952874
 20
-201.6998188062038
 30
0.0
  0
SPLINE
  5
4A
330
1F
100
AcDbEntity
  8
Layer 1
 62
   178
420
    65793
370
    25
100
AcDbSpline
210
0.0
220
0.0
230
1.0
 70
    11
 71
     3
 72
    17
 73
    13
 74
     0
 42
0.0000000001
 43
0.0000000001
 12
1.0
 22
0.0
 32
0.0
 13
1.0
 23
0.0
 33
0.0
 40
0.0
 40
0.0
 40
0.0
 40
0.0
 40
1.0
 40
1.0
 40
1.0
 40
2.0
 40
2.0
 40
2.0
 40
3.0
 40
3.0
 40
3.0
 40
4.0
 40
4.0
 40
4.0
 40
4.0
 10
126.9897582906651
 20
-195.174791985917
 30
0.0
 10
153.0876797457445
 20
-195.174791985917
 30
0.0
 10
179.1856012008238
 20
-195.174791985917
 30
0.0
 10
205.2835226559032
 20
-195.174791985917
 30
0.0
 10
205.2835226559032
 20
-195.174791985917
 30
0.0
 10
205.2835226559032
 20
-181.1747916
 30
0.0
 10
205.2835226559032
 20
-181.1747916
 30
0.0
 10
179.1856012008238
 20
-181.1747916
 30
0.0
 10
153.0876797457445
 20
-181.1747916
 30
0.0
 10
126.9897582906651
 20
-181.1747916
 30
0.0
 10
126.9897582906651
 20
-181.1747916
 30
0.0
 10
126.9897582906651
 20
-195.174791985917
 30
0.0
 10
126.9897582906651
 20
-195.174791985917
 30
0.0
  0
SPLINE
  5
4B
330
1F
100
AcDbEntity
  8
Layer 1
 62
   178
420
    65793
370
    25
100
AcDbSpline
210
0.0
220
0.0
230
1.0
 70
    11
 71
     3
 72
    83
 73
    79
 74
     0
 42
0.0000000001
 43
0.0000000001
 12
1.0
 22
0.0
 32
0.0
 13
1.0
 23
0.0
 33
0.0
 40
0.0
 40
0.0
 40
0.0
 40
0.0
 40
1.0
 40
1.0
 40
1.0
 40
2.0
 40
2.0
 40
2.0
 40
3.0
 40
3.0
 40
3.0
 40
4.0
 40
4.0
 40
4.0
 40
5.0
 40
5.0
 40
5.0
 40
6.0
 40
6.0
 40
6.0
 40
7.0
 40
7.0
 40
7.0
 40
8.0
 40
8.0
 40
8.0
 40
9.0
 40
9.0
 40
9.0
 40
10.0
 40
10.0
 40
10.0
 40
11.0
 40
11.0
 40
11.0
 40
12.0
 40
12.0
 40
12.0
 40
13.0
 40
13.0
 40
13.0
 40
14.0
 40
14.0
 40
14.0
 40
15.0
 40
15.0
 40
15.0
 40
16.0
 40
16.0
 40
16.0
 40
17.0
 40
17.0
 40
17.0
 40
18.0
 40
18.0
 40
18.0
 40
19.0
 40
19.0
 40
19.0
 40
20.0
 40
20.0
 40
20.0
 40
21.0
 40
21.0
 40
21.0
 40
22.0
 40
22.0
 40
22.0
 40
23.0
 40
23.0
 40
23.0
 40
24.0
 40
24.0
 40
24.0
 40
25.0
 40
25.0
 40
25.0
 40
26.0
 40
26.0
 40
26.0
 40
26.0
 10
219.5709986356821
 20
-124.0247865914033
 30
0.0
 10
219.5709986356821
 20
-124.0247865914033
 30
0.0
 10
205.5709982497651
 20
-124.0247865914033
 30
0.0
 10
205.5709982497651
 20
-124.0247865914033
 30
0.0
 10
205.5709982497651
 20
-124.0247865914033
 30
0.0
 10
205.5709982497651
 20
-125.1117865145558
 30
0.0
 10
205.5709982497651
 20
-125.1117865145558
 30
0.0
 10
205.5709982497651
 20
-125.1117865145558
 30
0.0
 10
204.5522604287143
 20
-125.1117865145558
 30
0.0
 10
204.5522604287143
 20
-125.1117865145558
 30
0.0
 10
204.5522604287143
 20
-131.0994537633485
 30
0.0
 10
204.5522604287143
 20
-137.0871210121424
 30
0.0
 10
204.5522604287143
 20
-143.0747882609353
 30
0.0
 10
202.0312642654718
 20
-143.0747882609353
 30
0.0
 10
199.5102681022293
 20
-143.0747882609353
 30
0.0
 10
196.9892719389867
 20
-143.0747882609353
 30
0.0
 10
196.9892719389867
 20
-143.0747882609353
 30
0.0
 10
196.9892719389867
 20
-141.4747859280127
 30
0.0
 10
196.9892719389867
 20
-141.4747859280127
 30
0.0
 10
196.9892719389867
 20
-141.4747859280127
 30
0.0
 10
189.9892717460282
 20
-141.4747859280127
 30
0.0
 10
189.9892717460282
 20
-141.4747859280127
 30
0.0
 10
189.9892717460282
 20
-141.4747859280127
 30
0.0
 10
189.9892717460282
 20
-143.0747882609353
 30
0.0
 10
189.9892717460282
 20
-143.0747882609353
 30
0.0
 10
189.9892717460282
 20
-143.0747882609353
 30
0.0
 10
186.5210099316739
 20
-143.0747882609353
 30
0.0
 10
186.5210099316739
 20
-143.0747882609353
 30
0.0
 10
186.5210099316739
 20
-143.0747882609353
 30
0.0
 10
186.5210099316739
 20
-157.0747886468524
 30
0.0
 10
186.5210099316739
 20
-157.0747886468524
 30
0.0
 10
186.5210099316739
 20
-157.0747886468524
 30
0.0
 10
189.9892717460282
 20
-157.0747886468524
 30
0.0
 10
189.9892717460282
 20
-157.0747886468524
 30
0.0
 10
189.9892717460282
 20
-157.0747886468524
 30
0.0
 10
189.9892717460282
 20
-160.4747864517573
 30
0.0
 10
189.9892717460282
 20
-160.4747864517573
 30
0.0
 10
200.2812642172321
 20
-160.4747864517573
 30
0.0
 10
210.5732566884361
 20
-160.4747864517573
 30
0.0
 10
220.86524915964
 20
-160.4747864517573
 30
0.0
 10
220.86524915964
 20
-160.4747864517573
 30
0.0
 10
220.86524915964
 20
-155.9877868163522
 30
0.0
 10
220.86524915964
 20
-155.9877868163522
 30
0.0
 10
220.86524915964
 20
-155.9877868163522
 30
0.0
 10
223.5522609524588
 20
-155.9877868163522
 30
0.0
 10
223.5522609524588
 20
-155.9877868163522
 30
0.0
 10
223.5522609524588
 20
-155.9877868163522
 30
0.0
 10
223.5522609524588
 20
-148.9877866233936
 30
0.0
 10
223.5522609524588
 20
-148.9877866233936
 30
0.0
 10
223.5522609524588
 20
-148.9877866233936
 30
0.0
 10
220.86524915964
 20
-148.9877866233936
 30
0.0
 10
220.86524915964
 20
-148.9877866233936
 30
0.0
 10
220.86524915964
 20
-148.9877866233936
 30
0.0
 10
220.86524915964
 20
-147.549786858412
 30
0.0
 10
220.86524915964
 20
-147.549786858412
 30
0.0
 10
220.86524915964
 20
-147.549786858412
 30
0.0
 10
221.9522548048382
 20
-147.549786858412
 30
0.0
 10
221.9522548048382
 20
-147.549786858412
 30
0.0
 10
221.9522548048382
 20
-147.549786858412
 30
0.0
 10
221.9522548048382
 20
-133.5497864724947
 30
0.0
 10
221.9522548048382
 20
-133.5497864724947
 30
0.0
 10
221.9522548048382
 20
-133.5497864724947
 30
0.0
 10
219.5709986356821
 20
-133.5497864724947
 30
0.0
 10
219.5709986356821
 20
-133.5497864724947
 30
0.0
 10
219.5709986356821
 20
-133.5497864724947
 30
0.0
 10
219.5709986356821
 20
-132.1117867075143
 30
0.0
 10
219.5709986356821
 20
-132.1117867075143
 30
0.0
 10
219.5709986356821
 20
-132.1117867075143
 30
0.0
 10
223.5522609524588
 20
-132.1117867075143
 30
0.0
 10
223.5522609524588
 20
-132.1117867075143
 30
0.0
 10
223.5522609524588
 20
-132.1117867075143
 30
0.0
 10
223.5522609524588
 20
-125.1117865145558
 30
0.0
 10
223.5522609524588
 20
-125.1117865145558
 30
0.0
 10
223.5522609524588
 20
-125.1117865145558
 30
0.0
 10
219.5709986356821
 20
-125.1117865145558
 30
0.0
 10
219.5709986356821
 20
-125.1117865145558
 30
0.0
 10
219.5709986356821
 20
-125.1117865145558
 30
0.0
 10
219.5709986356821
 20
-124.0247865914033
 30
0.0
 10
219.5709986356821
 20
-124.0247865914033
 30
0.0
  0
SPLINE
  5
4C
330
1F
100
AcDbEntity
  8
Layer 1
 62
   178
420
    65793
370
    25
100
AcDbSpline
210
0.0
220
0.0
230
1.0
 70
    11
 71
     3
 72
    59
 73
    55
 74
     0
 42
0.0000000001
 43
0.0000000001
 12
1.0
 22
0.0
 32
0.0
 13
1.0
 23
0.0
 33
0.0
 40
0.0
 40
0.0
 40
0.0
 40
0.0
 40
1.0
 40
1.0
 40
1.0
 40
2.0
 40
2.0
 40
2.0
 40
3.0
 40
3.0
 40
3.0
 40
4.0
 40
4.0
 40
4.0
 40
5.0
 40
5.0
 40
5.0
 40
6.0
 40
6.0
 40
6.0
 40
7.0
 40
7.0
 40
7.0
 40
8.0
 40
8.0
 40
8.0
 40
9.0
 40
9.0
 40
9.0
 40
10.0
 40
10.0
 40
10.0
 40
11.0
 40
11.0
 40
11.0
 40
12.0
 40
12.0
 40
12.0
 40
13.0
 40
13.0
 40
13.0
 40
14.0
 40
14.0
 40
14.0
 40
15.0
 40
15.0
 40
15.0
 40
16.0
 40
16.0
 40
16.0
 40
17.0
 40
17.0
 40
17.0
 40
18.0
 40
18.0
 40
18.0
 40
18.0
 10
207.6647483074804
 20
-162.1247880231193
 30
0.0
 10
202.5187520718784
 20
-162.1247880231193
 30
0.0
 10
197.3727558362764
 20
-162.1247880231193
 30
0.0
 10
192.2267596006745
 20
-162.1247880231193
 30
0.0
 10
192.2267596006745
 20
-162.1247880231193
 30
0.0
 10
192.2267596006745
 20
-160.5247895048934
 30
0.0
 10
192.2267596006745
 20
-160.5247895048934
 30
0.0
 10
192.2267596006745
 20
-160.5247895048934
 30
0.0
 10
185.2267594077159
 20
-160.5247895048934
 30
0.0
 10
185.2267594077159
 20
-160.5247895048934
 30
0.0
 10
185.2267594077159
 20
-160.5247895048934
 30
0.0
 10
185.2267594077159
 20
-162.1247880231193
 30
0.0
 10
185.2267594077159
 20
-162.1247880231193
 30
0.0
 10
185.2267594077159
 20
-162.1247880231193
 30
0.0
 10
184.1397537625177
 20
-162.1247880231193
 30
0.0
 10
184.1397537625177
 20
-162.1247880231193
 30
0.0
 10
184.1397537625177
 20
-162.1247880231193
 30
0.0
 10
184.1397537625177
 20
-176.1247884090363
 30
0.0
 10
184.1397537625177
 20
-176.1247884090363
 30
0.0
 10
184.1397537625177
 20
-176.1247884090363
 30
0.0
 10
185.2267594077159
 20
-176.1247884090363
 30
0.0
 10
185.2267594077159
 20
-176.1247884090363
 30
0.0
 10
185.2267594077159
 20
-176.1247884090363
 30
0.0
 10
185.2267594077159
 20
-179.524790028638
 30
0.0
 10
185.2267594077159
 20
-179.524790028638
 30
0.0
 10
195.5187620514462
 20
-179.524790028638
 30
0.0
 10
205.8107646951764
 20
-179.524790028638
 30
0.0
 10
216.1027673389067
 20
-179.524790028638
 30
0.0
 10
216.1027673389067
 20
-179.524790028638
 30
0.0
 10
216.1027673389067
 20
-176.1247884090363
 30
0.0
 10
216.1027673389067
 20
-176.1247884090363
 30
0.0
 10
216.1027673389067
 20
-176.1247884090363
 30
0.0
 10
224.3335109739944
 20
-176.1247884090363
 30
0.0
 10
224.3335109739944
 20
-176.1247884090363
 30
0.0
 10
224.3335109739944
 20
-176.1247884090363
 30
0.0
 10
224.3335109739944
 20
-162.1247880231193
 30
0.0
 10
224.3335109739944
 20
-162.1247880231193
 30
0.0
 10
224.3335109739944
 20
-162.1247880231193
 30
0.0
 10
216.1027673389067
 20
-162.1247880231193
 30
0.0
 10
216.1027673389067
 20
-162.1247880231193
 30
0.0
 10
216.1027673389067
 20
-162.1247880231193
 30
0.0
 10
216.1027673389067
 20
-160.5247895048934
 30
0.0
 10
216.1027673389067
 20
-160.5247895048934
 30
0.0
 10
216.1027673389067
 20
-160.5247895048934
 30
0.0
 10
209.1027671459482
 20
-160.5247895048934
 30
0.0
 10
209.1027671459482
 20
-160.5247895048934
 30
0.0
 10
209.1027671459482
 20
-160.5247895048934
 30
0.0
 10
209.1027671459482
 20
-175.9247914552811
 30
0.0
 10
209.1027671459482
 20
-175.9247914552811
 30
0.0
 10
209.1027671459482
 20
-175.9247914552811
 30
0.0
 10
207.6647483074804
 20
-175.9247914552811
 30
0.0
 10
207.6647483074804
 20
-175.9247914552811
 30
0.0
 10
207.6647483074804
 20
-175.9247914552811
 30
0.0
 10
207.6647483074804
 20
-162.1247880231193
 30
0.0
 10
207.6647483074804
 20
-162.1247880231193
 30
0.0
  0
SPLINE
  5
4D
330
1F
100
AcDbEntity
  8
Layer 1
 62
   178
420
    65793
370
    25
100
AcDbSpline
210
0.0
220
0.0
230
1.0
 70
    11
 71
     3
 72
    56
 73
    52
 74
     0
 42
0.0000000001
 43
0.0000000001
 12
1.0
 22
0.0
 32
0.0
 13
1.0
 23
0.0
 33
0.0
 40
0.0
 40
0.0
 40
0.0
 40
0.0
 40
1.0
 40
1.0
 40
1.0
 40
2.0
 40
2.0
 40
2.0
 40
3.0
 40
3.0
 40
3.0
 40
4.0
 40
4.0
 40
4.0
 40
5.0
 40
5.0
 40
5.0
 40
6.0
 40
6.0
 40
6.0
 40
7.0
 40
7.0
 40
7.0
 40
8.0
 40
8.0
 40
8.0
 40
9.0
 40
9.0
 40
9.0
 40
10.0
 40
10.0
 40
10.0
 40
11.0
 40
11.0
 40
11.0
 40
12.0
 40
12.0
 40
12.0
 40
13.0
 40
13.0
 40
13.0
 40
14.0
 40
14.0
 40
14.0
 40
15.0
 40
15.0
 40
15.0
 40
16.0
 40
16.0
 40
16.0
 40
17.0
 40
17.0
 40
17.0
 40
17.0
 10
98.41476055473885
 20
-195.174791985917
 30
0.0
 10
101.9732577638332
 20
-195.174791985917
 30
0.0
 10
105.5317549729276
 20
-195.174791985917
 30
0.0
 10
109.0902521820219
 20
-195.174791985917
 30
0.0
 10
109.0902521820219
 20
-195.174791985917
 30
0.0
 10
109.0902521820219
 20
-196.7747905041429
 30
0.0
 10
109.0902521820219
 20
-196.7747905041429
 30
0.0
 10
113.0110896924455
 20
-196.7747905041429
 30
0.0
 10
116.9319272028691
 20
-196.7747905041429
 30
0.0
 10
120.8527647132927
 20
-196.7747905041429
 30
0.0
 10
120.8527647132927
 20
-196.7747905041429
 30
0.0
 10
120.8527647132927
 20
-195.174791985917
 30
0.0
 10
120.8527647132927
 20
-195.174791985917
 30
0.0
 10
120.8527647132927
 20
-195.174791985917
 30
0.0
 10
124.3210112688576
 20
-195.174791985917
 30
0.0
 10
124.3210112688576
 20
-195.174791985917
 30
0.0
 10
124.3210112688576
 20
-195.174791985917
 30
0.0
 10
124.3210112688576
 20
-181.1747916
 30
0.0
 10
124.3210112688576
 20
-181.1747916
 30
0.0
 10
124.3210112688576
 20
-181.1747916
 30
0.0
 10
120.8527647132927
 20
-181.1747916
 30
0.0
 10
120.8527647132927
 20
-181.1747916
 30
0.0
 10
120.8527647132927
 20
-181.1747916
 30
0.0
 10
120.8527647132927
 20
-177.7747899803983
 30
0.0
 10
120.8527647132927
 20
-177.7747899803983
 30
0.0
 10
108.9732630430549
 20
-177.7747899803983
 30
0.0
 10
97.09376137281703
 20
-177.7747899803983
 30
0.0
 10
85.21425970257918
 20
-177.7747899803983
 30
0.0
 10
85.21425970257918
 20
-177.7747899803983
 30
0.0
 10
85.21425970257918
 20
-181.1747916
 30
0.0
 10
85.21425970257918
 20
-181.1747916
 30
0.0
 10
85.21425970257918
 20
-181.1747916
 30
0.0
 10
84.12725405738097
 20
-181.1747916
 30
0.0
 10
84.12725405738097
 20
-181.1747916
 30
0.0
 10
84.12725405738097
 20
-181.1747916
 30
0.0
 10
84.12725405738097
 20
-195.174791985917
 30
0.0
 10
84.12725405738097
 20
-195.174791985917
 30
0.0
 10
84.12725405738097
 20
-195.174791985917
 30
0.0
 10
85.21425970257918
 20
-195.174791985917
 30
0.0
 10
85.21425970257918
 20
-195.174791985917
 30
0.0
 10
85.21425970257918
 20
-195.174791985917
 30
0.0
 10
85.21425970257918
 20
-196.7747905041429
 30
0.0
 10
85.21425970257918
 20
-196.7747905041429
 30
0.0
 10
89.13509212673962
 20
-196.7747905041429
 30
0.0
 10
93.05592455090006
 20
-196.7747905041429
 30
0.0
 10
96.9767569750605
 20
-196.7747905041429
 30
0.0
 10
96.9767569750605
 20
-196.7747905041429
 30
0.0
 10
96.9767569750605
 20
-195.174791985917
 30
0.0
 10
96.9767569750605
 20
-195.174791985917
 30
0.0
 10
97.45609150161995
 20
-195.174791985917
 30
0.0
 10
97.93542602817939
 20
-195.174791985917
 30
0.0
 10
98.41476055473885
 20
-195.174791985917
 30
0.0
  0
SPLINE
  5
4E
330
1F
100
AcDbEntity
  8
Layer 1
 62
   178
420
    65793
370
    25
100
AcDbSpline
210
0.0
220
0.0
230
1.0
 70
    11
 71
     3
 72
    53
 73
    49
 74
     0
 42
0.0000000001
 43
0.0000000001
 12
1.0
 22
0.0
 32
0.0
 13
1.0
 23
0.0
 33
0.0
 40
0.0
 40
0.0
 40
0.0
 40
0.0
 40
1.0
 40
1.0
 40
1.0
 40
2.0
 40
2.0
 40
2.0
 40
3.0
 40
3.0
 40
3.0
 40
4.0
 40
4.0
 40
4.0
 40
5.0
 40
5.0
 40
5.0
 40
6.0
 40
6.0
 40
6.0
 40
7.0
 40
7.0
 40
7.0
 40
8.0
 40
8.0
 40
8.0
 40
9.0
 40
9.0
 40
9.0
 40
10.0
 40
10.0
 40
10.0
 40
11.0
 40
11.0
 40
11.0
 40
12.0
 40
12.0
 40
12.0
 40
13.0
 40
13.0
 40
13.0
 40
14.0
 40
14.0
 40
14.0
 40
15.0
 40
15.0
 40
15.0
 40
16.0
 40
16.0
 40
16.0
 40
16.0
 10
191.2835222699862
 20
-118.974787215137
 30
0.0
 10
191.2835222699862
 20
-118.974787215137
 30
0.0
 10
192.3704973976054
 20
-118.974787215137
 30
0.0
 10
192.3704973976054
 20
-118.974787215137
 30
0.0
 10
192.3704973976054
 20
-118.974787215137
 30
0.0
 10
192.3704973976054
 20
-122.3747869273903
 30
0.0
 10
192.3704973976054
 20
-122.3747869273903
 30
0.0
 10
202.6625000413356
 20
-122.3747869273903
 30
0.0
 10
212.9545026850659
 20
-122.3747869273903
 30
0.0
 10
223.2465053287961
 20
-122.3747869273903
 30
0.0
 10
223.2465053287961
 20
-122.3747869273903
 30
0.0
 10
223.2465053287961
 20
-118.974787215137
 30
0.0
 10
223.2465053287961
 20
-118.974787215137
 30
0.0
 10
223.2465053287961
 20
-118.974787215137
 30
0.0
 10
224.3335109739944
 20
-118.974787215137
 30
0.0
 10
224.3335109739944
 20
-118.974787215137
 30
0.0
 10
224.3335109739944
 20
-118.974787215137
 30
0.0
 10
224.3335109739944
 20
-104.9747864715922
 30
0.0
 10
224.3335109739944
 20
-104.9747864715922
 30
0.0
 10
224.3335109739944
 20
-104.9747864715922
 30
0.0
 10
223.2465053287961
 20
-104.9747864715922
 30
0.0
 10
223.2465053287961
 20
-104.9747864715922
 30
0.0
 10
223.2465053287961
 20
-104.9747864715922
 30
0.0
 10
223.2465053287961
 20
-103.3747864036458
 30
0.0
 10
223.2465053287961
 20
-103.3747864036458
 30
0.0
 10
223.2465053287961
 20
-103.3747864036458
 30
0.0
 10
216.2465051358377
 20
-103.3747864036458
 30
0.0
 10
216.2465051358377
 20
-103.3747864036458
 30
0.0
 10
216.2465051358377
 20
-103.3747864036458
 30
0.0
 10
216.2465051358377
 20
-104.9747864715922
 30
0.0
 10
216.2465051358377
 20
-104.9747864715922
 30
0.0
 10
210.6211692874131
 20
-104.9747864715922
 30
0.0
 10
204.9958334389885
 20
-104.9747864715922
 30
0.0
 10
199.3704975905639
 20
-104.9747864715922
 30
0.0
 10
199.3704975905639
 20
-104.9747864715922
 30
0.0
 10
199.3704975905639
 20
-103.3747864036458
 30
0.0
 10
199.3704975905639
 20
-103.3747864036458
 30
0.0
 10
199.3704975905639
 20
-103.3747864036458
 30
0.0
 10
192.3704973976054
 20
-103.3747864036458
 30
0.0
 10
192.3704973976054
 20
-103.3747864036458
 30
0.0
 10
192.3704973976054
 20
-103.3747864036458
 30
0.0
 10
192.3704973976054
 20
-104.9747864715922
 30
0.0
 10
192.3704973976054
 20
-104.9747864715922
 30
0.0
 10
192.3704973976054
 20
-104.9747864715922
 30
0.0
 10
191.2835222699862
 20
-104.9747864715922
 30
0.0
 10
191.2835222699862
 20
-104.9747864715922
 30
0.0
 10
191.2835222699862
 20
-104.9747864715922
 30
0.0
 10
191.2835222699862
 20
-118.974787215137
 30
0.0
 10
191.2835222699862
 20
-118.974787215137
 30
0.0
  0
SPLINE
  5
4F
330
1F
100
AcDbEntity
  8
Layer 1
 62
   178
420
    65793
370
    25
100
AcDbSpline
210
0.0
220
0.0
230
1.0
 70
    11
 71
     3
 72
    20
 73
    16
 74
     0
 42
0.0000000001
 43
0.0000000001
 12
1.0
 22
0.0
 32
0.0
 13
1.0
 23
0.0
 33
0.0
 40
0.0
 40
0.0
 40
0.0
 40
0.0
 40
1.0
 40
1.0
 40
1.0
 40
2.0
 40
2.0
 40
2.0
 40
3.0
 40
3.0
 40
3.0
 40
4.0
 40
4.0
 40
4.0
 40
5.0
 40
5.0
 40
5.0
 40
5.0
 10
165.0897654444265
 20
-176.1247884090363
 30
0.0
 10
169.7564322397322
 20
-176.1247884090363
 30
0.0
 10
174.4230990350379
 20
-176.1247884090363
 30
0.0
 10
179.0897658303435
 20
-176.1247884090363
 30
0.0
 10
179.0897658303435
 20
-176.1247884090363
 30
0.0
 10
179.0897658303435
 20
-162.1247880231193
 30
0.0
 10
179.0897658303435
 20
-162.1247880231193
 30
0.0
 10
172.0418428658817
 20
-162.1247880231193
 30
0.0
 10
164.9939199014199
 20
-162.1247880231193
 30
0.0
 10
157.9459969369581
 20
-162.1247880231193
 30
0.0
 10
157.9459969369581
 20
-162.1247880231193
 30
0.0
 10
157.9459969369581
 20
-176.1247884090363
 30
0.0
 10
157.9459969369581
 20
-176.1247884090363
 30
0.0
 10
157.9459969369581
 20
-176.1247884090363
 30
0.0
 10
165.0897654444265
 20
-176.1247884090363
 30
0.0
 10
165.0897654444265
 20
-176.1247884090363
 30
0.0
  0
SPLINE
  5
50
330
1F
100
AcDbEntity
  8
Layer 1
 62
   178
420
    65793
370
    25
100
AcDbSpline
210
0.0
220
0.0
230
1.0
 70
    11
 71
     3
 72
    17
 73
    13
 74
     0
 42
0.0000000001
 43
0.0000000001
 12
1.0
 22
0.0
 32
0.0
 13
1.0
 23
0.0
 33
0.0
 40
0.0
 40
0.0
 40
0.0
 40
0.0
 40
1.0
 40
1.0
 40
1.0
 40
2.0
 40
2.0
 40
2.0
 40
3.0
 40
3.0
 40
3.0
 40
4.0
 40
4.0
 40
4.0
 40
4.0
 10
207.9522544189212
 20
-195.174791985917
 30
0.0
 10
213.4126732706123
 20
-195.174791985917
 30
0.0
 10
218.8730921223033
 20
-195.174791985917
 30
0.0
 10
224.3335109739944
 20
-195.174791985917
 30
0.0
 10
224.3335109739944
 20
-195.174791985917
 30
0.0
 10
224.3335109739944
 20
-181.1747916
 30
0.0
 10
224.3335109739944
 20
-181.1747916
 30
0.0
 10
218.8730921223033
 20
-181.1747916
 30
0.0
 10
213.4126732706123
 20
-181.1747916
 30
0.0
 10
207.9522544189212
 20
-181.1747916
 30
0.0
 10
207.9522544189212
 20
-181.1747916
 30
0.0
 10
207.9522544189212
 20
-195.174791985917
 30
0.0
 10
207.9522544189212
 20
-195.174791985917
 30
0.0
  0
POLYLINE
  5
51
330
1F
100
AcDbEntity
  8
Layer 1
 62
   178
420
    65793
370
    25
100
AcDb2dPolyline
 66
     1
 10
0.0
 20
0.0
 30
0.0
  0
VERTEX
  5
52
330
51
100
AcDbEntity
  8
Layer 1
 62
   178
420
    65793
370
    25
100
AcDbVertex
100
AcDb2dVertex
 10
76.98350080870202
 20
-118.974787215137
 30
0.0
  0
VERTEX
  5
53
330
51
100
AcDbEntity
  8
Layer 1
 62
   178
420
    65793
370
    25
100
AcDbVertex
100
AcDb2dVertex
 10
90.98350119461904
 20
-118.974787215137
 30
0.0
  0
VERTEX
  5
54
330
51
100
AcDbEntity
  8
Layer 1
 62
   178
420
    65793
370
    25
100
AcDbVertex
100
AcDb2dVertex
 10
90.98350119461904
 20
-104.9747864715922
 30
0.0
  0
VERTEX
  5
55
330
51
100
AcDbEntity
  8
Layer 1
 62
   178
420
    65793
370
    25
100
AcDbVertex
100
AcDb2dVertex
 10
76.98350080870202
 20
-104.9747864715922
 30
0.0
  0
VERTEX
  5
56
330
51
100
AcDbEntity
  8
Layer 1
 62
   178
420
    65793
370
    25
100
AcDbVertex
100
AcDb2dVertex
 10
76.98350080870202
 20
-118.974787215137
 30
0.0
  0
SEQEND
  5
57
330
51
100
AcDbEntity
  8
Layer 1
 62
   178
420
    65793
370
    25
  0
POLYLINE
  5
58
330
1F
100
AcDbEntity
  8
Layer 1
 62
   178
420
    65793
370
    25
100
AcDb2dPolyline
 66
     1
 10
0.0
 20
0.0
 30
0.0
  0
VERTEX
  5
59
330
58
100
AcDbEntity
  8
Layer 1
 62
   178
420
    65793
370
    25
100
AcDbVertex
100
AcDb2dVertex
 10
96.0335043855827
 20
-118.974787215137
 30
0.0
  0
VERTEX
  5
5A
330
58
100
AcDbEntity
  8
Layer 1
 62
   178
420
    65793
370
    25
100
AcDbVertex
100
AcDb2dVertex
 10
110.0335047714997
 20
-118.974787215137
 30
0.0
  0
VERTEX
  5
5B
330
58
100
AcDbEntity
  8
Layer 1
 62
   178
420
    65793
370
    25
100
AcDbVertex
100
AcDb2dVertex
 10
110.0335047714997
 20
-104.9747864715922
 30
0.0
  0
VERTEX
  5
5C
330
58
100
AcDbEntity
  8
Layer 1
 62
   178
420
    65793
370
    25
100
AcDbVertex
100
AcDb2dVertex
 10
96.0335043855827
 20
-104.9747864715922
 30
0.0
  0
VERTEX
  5
5D
330
58
100
AcDbEntity
  8
Layer 1
 62
   178
420
    65793
370
    25
100
AcDbVertex
100
AcDb2dVertex
 10
96.0335043855827
 20
-118.974787215137
 30
0.0
  0
SEQEND
  5
5E
330
58
100
AcDbEntity
  8
Layer 1
 62
   178
420
    65793
370
    25
  0
POLYLINE
  5
5F
330
1F
100
AcDbEntity
  8
Layer 1
 62
   178
420
    65793
370
    25
100
AcDb2dPolyline
 66
     1
 10
0.0
 20
0.0
 30
0.0
  0
VERTEX
  5
60
330
5F
100
AcDbEntity
  8
Layer 1
 62
   178
420
    65793
370
    25
100
AcDbVertex
100
AcDb2dVertex
 10
115.0835079624634
 20
-118.974787215137
 30
0.0
  0
VERTEX
  5
61
330
5F
100
AcDbEntity
  8
Layer 1
 62
   178
420
    65793
370
    25
100
AcDbVertex
100
AcDb2dVertex
 10
129.0835083483804
 20
-118.974787215137
 30
0.0
  0
VERTEX
  5
62
330
5F
100
AcDbEntity
  8
Layer 1
 62
   178
420
    65793
370
    25
100
AcDbVertex
100
AcDb2dVertex
 10
129.0835083483804
 20
-104.9747864715922
 30
0.0
  0
VERTEX
  5
63
330
5F
100
AcDbEntity
  8
Layer 1
 62
   178
420
    65793
370
    25
100
AcDbVertex
100
AcDb2dVertex
 10
115.0835079624634
 20
-104.9747864715922
 30
0.0
  0
VERTEX
  5
64
330
5F
100
AcDbEntity
  8
Layer 1
 62
   178
420
    65793
370
    25
100
AcDbVertex
100
AcDb2dVertex
 10
115.0835079624634
 20
-118.974787215137
 30
0.0
  0
SEQEND
  5
65
330
5F
100
AcDbEntity
  8
Layer 1
 62
   178
420
    65793
370
    25
  0
POLYLINE
  5
66
330
1F
100
AcDbEntity
  8
Layer 1
 62
   178
420
    65793
370
    25
100
AcDb2dPolyline
 66
     1
 10
0.0
 20
0.0
 30
0.0
  0
VERTEX
  5
67
330
66
100
AcDbEntity
  8
Layer 1
 62
   178
420
    65793
370
    25
100
AcDbVertex
100
AcDb2dVertex
 10
134.1334962805546
 20
-118.974787215137
 30
0.0
  0
VERTEX
  5
68
330
66
100
AcDbEntity
  8
Layer 1
 62
   178
420
    65793
370
    25
100
AcDbVertex
100
AcDb2dVertex
 10
148.1334966664716
 20
-118.974787215137
 30
0.0
  0
VERTEX
  5
69
330
66
100
AcDbEntity
  8
Layer 1
 62
   178
420
    65793
370
    25
100
AcDbVertex
100
AcDb2dVertex
 10
148.1334966664716
 20
-104.9747864715922
 30
0.0
  0
VERTEX
  5
6A
330
66
100
AcDbEntity
  8
Layer 1
 62
   178
420
    65793
370
    25
100
AcDbVertex
100
AcDb2dVertex
 10
134.1334962805546
 20
-104.9747864715922
 30
0.0
  0
VERTEX
  5
6B
330
66
100
AcDbEntity
  8
Layer 1
 62
   178
420
    65793
370
    25
100
AcDbVertex
100
AcDb2dVertex
 10
134.1334962805546
 20
-118.974787215137
 30
0.0
  0
SEQEND
  5
6C
330
66
100
AcDbEntity
  8
Layer 1
 62
   178
420
    65793
370
    25
  0
POLYLINE
  5
6D
330
1F
100
AcDbEntity
  8
Layer 1
 62
   178
420
    65793
370
    25
100
AcDb2dPolyline
 66
     1
 10
0.0
 20
0.0
 30
0.0
  0
VERTEX
  5
6E
330
6D
100
AcDbEntity
  8
Layer 1
 62
   178
420
    65793
370
    25
100
AcDbVertex
100
AcDb2dVertex
 10
153.1835151162248
 20
-118.974787215137
 30
0.0
  0
VERTEX
  5
6F
330
6D
100
AcDbEntity
  8
Layer 1
 62
   178
420
    65793
370
    25
100
AcDbVertex
100
AcDb2dVertex
 10
167.1835155021418
 20
-118.974787215137
 30
0.0
  0
VERTEX
  5
70
330
6D
100
AcDbEntity
  8
Layer 1
 62
   178
420
    65793
370
    25
100
AcDbVertex
100
AcDb2dVertex
 10
167.1835155021418
 20
-104.9747864715922
 30
0.0
  0
VERTEX
  5
71
330
6D
100
AcDbEntity
  8
Layer 1
 62
   178
420
    65793
370
    25
100
AcDbVertex
100
AcDb2dVertex
 10
153.1835151162248
 20
-104.9747864715922
 30
0.0
  0
VERTEX
  5
72
330
6D
100
AcDbEntity
  8
Layer 1
 62
   178
420
    65793
370
    25
100
AcDbVertex
100
AcDb2dVertex
 10
153.1835151162248
 20
-118.974787215137
 30
0.0
  0
SEQEND
  5
73
330
6D
100
AcDbEntity
  8
Layer 1
 62
   178
420
    65793
370
    25
  0
POLYLINE
  5
74
330
1F
100
AcDbEntity
  8
Layer 1
 62
   178
420
    65793
370
    25
100
AcDb2dPolyline
 66
     1
 10
0.0
 20
0.0
 30
0.0
  0
VERTEX
  5
75
330
74
100
AcDbEntity
  8
Layer 1
 62
   178
420
    65793
370
    25
100
AcDbVertex
100
AcDb2dVertex
 10
172.233503434316
 20
-118.974787215137
 30
0.0
  0
VERTEX
  5
76
330
74
100
AcDbEntity
  8
Layer 1
 62
   178
420
    65793
370
    25
100
AcDbVertex
100
AcDb2dVertex
 10
186.233503820233
 20
-118.974787215137
 30
0.0
  0
VERTEX
  5
77
330
74
100
AcDbEntity
  8
Layer 1
 62
   178
420
    65793
370
    25
100
AcDbVertex
100
AcDb2dVertex
 10
186.233503820233
 20
-104.9747864715922
 30
0.0
  0
VERTEX
  5
78
330
74
100
AcDbEntity
  8
Layer 1
 62
   178
420
    65793
370
    25
100
AcDbVertex
100
AcDb2dVertex
 10
172.233503434316
 20
-104.9747864715922
 30
0.0
  0
VERTEX
  5
79
330
74
100
AcDbEntity
  8
Layer 1
 62
   178
420
    65793
370
    25
100
AcDbVertex
100
AcDb2dVertex
 10
172.233503434316
 20
-118.974787215137
 30
0.0
  0
SEQEND
  5
7A
330
74
100
AcDbEntity
  8
Layer 1
 62
   178
420
    65793
370
    25
  0
POLYLINE
  5
7B
330
1F
100
AcDbEntity
  8
Layer 1
 62
   178
420
    65793
370
    25
100
AcDb2dPolyline
 66
     1
 10
0.0
 20
0.0
 30
0.0
  0
VERTEX
  5
7C
330
7B
100
AcDbEntity
  8
Layer 1
 62
   178
420
    65793
370
    25
100
AcDbVertex
100
AcDb2dVertex
 10
67.45850664965641
 20
-138.0247888846694
 30
0.0
  0
VERTEX
  5
7D
330
7B
100
AcDbEntity
  8
Layer 1
 62
   178
420
    65793
370
    25
100
AcDbVertex
100
AcDb2dVertex
 10
81.45850703557343
 20
-138.0247888846694
 30
0.0
  0
VERTEX
  5
7E
330
7B
100
AcDbEntity
  8
Layer 1
 62
   178
420
    65793
370
    25
100
AcDbVertex
100
AcDb2dVertex
 10
81.45850703557343
 20
-124.0247865914033
 30
0.0
  0
VERTEX
  5
7F
330
7B
100
AcDbEntity
  8
Layer 1
 62
   178
420
    65793
370
    25
100
AcDbVertex
100
AcDb2dVertex
 10
67.45850664965641
 20
-124.0247865914033
 30
0.0
  0
VERTEX
  5
80
330
7B
100
AcDbEntity
  8
Layer 1
 62
   178
420
    65793
370
    25
100
AcDbVertex
100
AcDb2dVertex
 10
67.45850664965641
 20
-138.0247888846694
 30
0.0
  0
SEQEND
  5
81
330
7B
100
AcDbEntity
  8
Layer 1
 62
   178
420
    65793
370
    25
  0
POLYLINE
  5
82
330
1F
100
AcDbEntity
  8
Layer 1
 62
   178
420
    65793
370
    25
100
AcDb2dPolyline
 66
     1
 10
0.0
 20
0.0
 30
0.0
  0
VERTEX
  5
83
330
82
100
AcDbEntity
  8
Layer 1
 62
   178
420
    65793
370
    25
100
AcDbVertex
100
AcDb2dVertex
 10
86.5085102265371
 20
-138.0247888846694
 30
0.0
  0
VERTEX
  5
84
330
82
100
AcDbEntity
  8
Layer 1
 62
   178
420
    65793
370
    25
100
AcDbVertex
100
AcDb2dVertex
 10
100.5085106124541
 20
-138.0247888846694
 30
0.0
  0
VERTEX
  5
85
330
82
100
AcDbEntity
  8
Layer 1
 62
   178
420
    65793
370
    25
100
AcDbVertex
100
AcDb2dVertex
 10
100.5085106124541
 20
-124.0247865914033
 30
0.0
  0
VERTEX
  5
86
330
82
100
AcDbEntity
  8
Layer 1
 62
   178
420
    65793
370
    25
100
AcDbVertex
100
AcDb2dVertex
 10
86.5085102265371
 20
-124.0247865914033
 30
0.0
  0
VERTEX
  5
87
330
82
100
AcDbEntity
  8
Layer 1
 62
   178
420
    65793
370
    25
100
AcDbVertex
100
AcDb2dVertex
 10
86.5085102265371
 20
-138.0247888846694
 30
0.0
  0
SEQEND
  5
88
330
82
100
AcDbEntity
  8
Layer 1
 62
   178
420
    65793
370
    25
  0
POLYLINE
  5
89
330
1F
100
AcDbEntity
  8
Layer 1
 62
   178
420
    65793
370
    25
100
AcDb2dPolyline
 66
     1
 10
0.0
 20
0.0
 30
0.0
  0
VERTEX
  5
8A
330
89
100
AcDbEntity
  8
Layer 1
 62
   178
420
    65793
370
    25
100
AcDbVertex
100
AcDb2dVertex
 10
105.5585138034178
 20
-138.0247888846694
 30
0.0
  0
VERTEX
  5
8B
330
89
100
AcDbEntity
  8
Layer 1
 62
   178
420
    65793
370
    25
100
AcDbVertex
100
AcDb2dVertex
 10
119.5585141893348
 20
-138.0247888846694
 30
0.0
  0
VERTEX
  5
8C
330
89
100
AcDbEntity
  8
Layer 1
 62
   178
420
    65793
370
    25
100
AcDbVertex
100
AcDb2dVertex
 10
119.5585141893348
 20
-124.0247865914033
 30
0.0
  0
VERTEX
  5
8D
330
89
100
AcDbEntity
  8
Layer 1
 62
   178
420
    65793
370
    25
100
AcDbVertex
100
AcDb2dVertex
 10
105.5585138034178
 20
-124.0247865914033
 30
0.0
  0
VERTEX
  5
8E
330
89
100
AcDbEntity
  8
Layer 1
 62
   178
420
    65793
370
    25
100
AcDbVertex
100
AcDb2dVertex
 10
105.5585138034178
 20
-138.0247888846694
 30
0.0
  0
SEQEND
  5
8F
330
89
100
AcDbEntity
  8
Layer 1
 62
   178
420
    65793
370
    25
  0
POLYLINE
  5
90
330
1F
100
AcDbEntity
  8
Layer 1
 62
   178
420
    65793
370
    25
100
AcDb2dPolyline
 66
     1
 10
0.0
 20
0.0
 30
0.0
  0
VERTEX
  5
91
330
90
100
AcDbEntity
  8
Layer 1
 62
   178
420
    65793
370
    25
100
AcDbVertex
100
AcDb2dVertex
 10
124.608502121509
 20
-138.0247888846694
 30
0.0
  0
VERTEX
  5
92
330
90
100
AcDbEntity
  8
Layer 1
 62
   178
420
    65793
370
    25
100
AcDbVertex
100
AcDb2dVertex
 10
138.608502507426
 20
-138.0247888846694
 30
0.0
  0
VERTEX
  5
93
330
90
100
AcDbEntity
  8
Layer 1
 62
   178
420
    65793
370
    25
100
AcDbVertex
100
AcDb2dVertex
 10
138.608502507426
 20
-124.0247865914033
 30
0.0
  0
VERTEX
  5
94
330
90
100
AcDbEntity
  8
Layer 1
 62
   178
420
    65793
370
    25
100
AcDbVertex
100
AcDb2dVertex
 10
124.608502121509
 20
-124.0247865914033
 30
0.0
  0
VERTEX
  5
95
330
90
100
AcDbEntity
  8
Layer 1
 62
   178
420
    65793
370
    25
100
AcDbVertex
100
AcDb2dVertex
 10
124.608502121509
 20
-138.0247888846694
 30
0.0
  0
SEQEND
  5
96
330
90
100
AcDbEntity
  8
Layer 1
 62
   178
420
    65793
370
    25
  0
POLYLINE
  5
97
330
1F
100
AcDbEntity
  8
Layer 1
 62
   178
420
    65793
370
    25
100
AcDb2dPolyline
 66
     1
 10
0.0
 20
0.0
 30
0.0
  0
VERTEX
  5
98
330
97
100
AcDbEntity
  8
Layer 1
 62
   178
420
    65793
370
    25
100
AcDbVertex
100
AcDb2dVertex
 10
143.6585209571792
 20
-138.0247888846694
 30
0.0
  0
VERTEX
  5
99
330
97
100
AcDbEntity
  8
Layer 1
 62
   178
420
    65793
370
    25
100
AcDbVertex
100
AcDb2dVertex
 10
157.6585213430962
 20
-138.0247888846694
 30
0.0
  0
VERTEX
  5
9A
330
97
100
AcDbEntity
  8
Layer 1
 62
   178
420
    65793
370
    25
100
AcDbVertex
100
AcDb2dVertex
 10
157.6585213430962
 20
-124.0247865914033
 30
0.0
  0
VERTEX
  5
9B
330
97
100
AcDbEntity
  8
Layer 1
 62
   178
420
    65793
370
    25
100
AcDbVertex
100
AcDb2dVertex
 10
143.6585209571792
 20
-124.0247865914033
 30
0.0
  0
VERTEX
  5
9C
330
97
100
AcDbEntity
  8
Layer 1
 62
   178
420
    65793
370
    25
100
AcDbVertex
100
AcDb2dVertex
 10
143.6585209571792
 20
-138.0247888846694
 30
0.0
  0
SEQEND
  5
9D
330
97
100
AcDbEntity
  8
Layer 1
 62
   178
420
    65793
370
    25
  0
POLYLINE
  5
9E
330
1F
100
AcDbEntity
  8
Layer 1
 62
   178
420
    65793
370
    25
100
AcDb2dPolyline
 66
     1
 10
0.0
 20
0.0
 30
0.0
  0
VERTEX
  5
9F
330
9E
100
AcDbEntity
  8
Layer 1
 62
   178
420
    65793
370
    25
100
AcDbVertex
100
AcDb2dVertex
 10
162.7085092752704
 20
-138.0247888846694
 30
0.0
  0
VERTEX
  5
A0
330
9E
100
AcDbEntity
  8
Layer 1
 62
   178
420
    65793
370
    25
100
AcDbVertex
100
AcDb2dVertex
 10
176.7085096611874
 20
-138.0247888846694
 30
0.0
  0
VERTEX
  5
A1
330
9E
100
AcDbEntity
  8
Layer 1
 62
   178
420
    65793
370
    25
100
AcDbVertex
100
AcDb2dVertex
 10
176.7085096611874
 20
-124.0247865914033
 30
0.0
  0
VERTEX
  5
A2
330
9E
100
AcDbEntity
  8
Layer 1
 62
   178
420
    65793
370
    25
100
AcDbVertex
100
AcDb2dVertex
 10
162.7085092752704
 20
-124.0247865914033
 30
0.0
  0
VERTEX
  5
A3
330
9E
100
AcDbEntity
  8
Layer 1
 62
   178
420
    65793
370
    25
100
AcDbVertex
100
AcDb2dVertex
 10
162.7085092752704
 20
-138.0247888846694
 30
0.0
  0
SEQEND
  5
A4
330
9E
100
AcDbEntity
  8
Layer 1
 62
   178
420
    65793
370
    25
  0
POLYLINE
  5
A5
330
1F
100
AcDbEntity
  8
Layer 1
 62
   178
420
    65793
370
    25
100
AcDb2dPolyline
 66
     1
 10
0.0
 20
0.0
 30
0.0
  0
VERTEX
  5
A6
330
A5
100
AcDbEntity
  8
Layer 1
 62
   178
420
    65793
370
    25
100
AcDbVertex
100
AcDb2dVertex
 10
181.7584975933616
 20
-138.0247888846694
 30
0.0
  0
VERTEX
  5
A7
330
A5
100
AcDbEntity
  8
Layer 1
 62
   178
420
    65793
370
    25
100
AcDbVertex
100
AcDb2dVertex
 10
195.7584979792786
 20
-138.0247888846694
 30
0.0
  0
VERTEX
  5
A8
330
A5
100
AcDbEntity
  8
Layer 1
 62
   178
420
    65793
370
    25
100
AcDbVertex
100
AcDb2dVertex
 10
195.7584979792786
 20
-124.0247865914033
 30
0.0
  0
VERTEX
  5
A9
330
A5
100
AcDbEntity
  8
Layer 1
 62
   178
420
    65793
370
    25
100
AcDbVertex
100
AcDb2dVertex
 10
181.7584975933616
 20
-124.0247865914033
 30
0.0
  0
VERTEX
  5
AA
330
A5
100
AcDbEntity
  8
Layer 1
 62
   178
420
    65793
370
    25
100
AcDbVertex
100
AcDb2dVertex
 10
181.7584975933616
 20
-138.0247888846694
 30
0.0
  0
SEQEND
  5
AB
330
A5
100
AcDbEntity
  8
Layer 1
 62
   178
420
    65793
370
    25
  0
POLYLINE
  5
AC
330
1F
100
AcDbEntity
  8
Layer 1
 62
   178
420
    65793
370
    25
100
AcDb2dPolyline
 66
     1
 10
0.0
 20
0.0
 30
0.0
  0
VERTEX
  5
AD
330
AC
100
AcDbEntity
  8
Layer 1
 62
   178
420
    65793
370
    25
100
AcDbVertex
100
AcDb2dVertex
 10
72.22100372917922
 20
-157.0747886468524
 30
0.0
  0
VERTEX
  5
AE
330
AC
100
AcDbEntity
  8
Layer 1
 62
   178
420
    65793
370
    25
100
AcDbVertex
100
AcDb2dVertex
 10
86.22100411509624
 20
-157.0747886468524
 30
0.0
  0
VERTEX
  5
AF
330
AC
100
AcDbEntity
  8
Layer 1
 62
   178
420
    65793
370
    25
100
AcDbVertex
100
AcDb2dVertex
 10
86.22100411509624
 20
-143.0747882609353
 30
0.0
  0
VERTEX
  5
B0
330
AC
100
AcDbEntity
  8
Layer 1
 62
   178
420
    65793
370
    25
100
AcDbVertex
100
AcDb2dVertex
 10
72.22100372917922
 20
-143.0747882609353
 30
0.0
  0
VERTEX
  5
B1
330
AC
100
AcDbEntity
  8
Layer 1
 62
   178
420
    65793
370
    25
100
AcDbVertex
100
AcDb2dVertex
 10
72.22100372917922
 20
-157.0747886468524
 30
0.0
  0
SEQEND
  5
B2
330
AC
100
AcDbEntity
  8
Layer 1
 62
   178
420
    65793
370
    25
  0
POLYLINE
  5
B3
330
1F
100
AcDbEntity
  8
Layer 1
 62
   178
420
    65793
370
    25
100
AcDb2dPolyline
 66
     1
 10
0.0
 20
0.0
 30
0.0
  0
VERTEX
  5
B4
330
B3
100
AcDbEntity
  8
Layer 1
 62
   178
420
    65793
370
    25
100
AcDbVertex
100
AcDb2dVertex
 10
91.2710073060599
 20
-157.0747886468524
 30
0.0
  0
VERTEX
  5
B5
330
B3
100
AcDbEntity
  8
Layer 1
 62
   178
420
    65793
370
    25
100
AcDbVertex
100
AcDb2dVertex
 10
105.2710076919769
 20
-157.0747886468524
 30
0.0
  0
VERTEX
  5
B6
330
B3
100
AcDbEntity
  8
Layer 1
 62
   178
420
    65793
370
    25
100
AcDbVertex
100
AcDb2dVertex
 10
105.2710076919769
 20
-143.0747882609353
 30
0.0
  0
VERTEX
  5
B7
330
B3
100
AcDbEntity
  8
Layer 1
 62
   178
420
    65793
370
    25
100
AcDbVertex
100
AcDb2dVertex
 10
91.2710073060599
 20
-143.0747882609353
 30
0.0
  0
VERTEX
  5
B8
330
B3
100
AcDbEntity
  8
Layer 1
 62
   178
420
    65793
370
    25
100
AcDbVertex
100
AcDb2dVertex
 10
91.2710073060599
 20
-157.0747886468524
 30
0.0
  0
SEQEND
  5
B9
330
B3
100
AcDbEntity
  8
Layer 1
 62
   178
420
    65793
370
    25
  0
POLYLINE
  5
BA
330
1F
100
AcDbEntity
  8
Layer 1
 62
   178
420
    65793
370
    25
100
AcDb2dPolyline
 66
     1
 10
0.0
 20
0.0
 30
0.0
  0
VERTEX
  5
BB
330
BA
100
AcDbEntity
  8
Layer 1
 62
   178
420
    65793
370
    25
100
AcDbVertex
100
AcDb2dVertex
 10
110.3210108829406
 20
-157.0747886468524
 30
0.0
  0
VERTEX
  5
BC
330
BA
100
AcDbEntity
  8
Layer 1
 62
   178
420
    65793
370
    25
100
AcDbVertex
100
AcDb2dVertex
 10
124.3210112688576
 20
-157.0747886468524
 30
0.0
  0
VERTEX
  5
BD
330
BA
100
AcDbEntity
  8
Layer 1
 62
   178
420
    65793
370
    25
100
AcDbVertex
100
AcDb2dVertex
 10
124.3210112688576
 20
-143.0747882609353
 30
0.0
  0
VERTEX
  5
BE
330
BA
100
AcDbEntity
  8
Layer 1
 62
   178
420
    65793
370
    25
100
AcDbVertex
100
AcDb2dVertex
 10
110.3210108829406
 20
-143.0747882609353
 30
0.0
  0
VERTEX
  5
BF
330
BA
100
AcDbEntity
  8
Layer 1
 62
   178
420
    65793
370
    25
100
AcDbVertex
100
AcDb2dVertex
 10
110.3210108829406
 20
-157.0747886468524
 30
0.0
  0
SEQEND
  5
C0
330
BA
100
AcDbEntity
  8
Layer 1
 62
   178
420
    65793
370
    25
  0
POLYLINE
  5
C1
330
1F
100
AcDbEntity
  8
Layer 1
 62
   178
420
    65793
370
    25
100
AcDb2dPolyline
 66
     1
 10
0.0
 20
0.0
 30
0.0
  0
VERTEX
  5
C2
330
C1
100
AcDbEntity
  8
Layer 1
 62
   178
420
    65793
370
    25
100
AcDbVertex
100
AcDb2dVertex
 10
129.3710144598213
 20
-157.0747886468524
 30
0.0
  0
VERTEX
  5
C3
330
C1
100
AcDbEntity
  8
Layer 1
 62
   178
420
    65793
370
    25
100
AcDbVertex
100
AcDb2dVertex
 10
143.3710148457383
 20
-157.0747886468524
 30
0.0
  0
VERTEX
  5
C4
330
C1
100
AcDbEntity
  8
Layer 1
 62
   178
420
    65793
370
    25
100
AcDbVertex
100
AcDb2dVertex
 10
143.3710148457383
 20
-143.0747882609353
 30
0.0
  0
VERTEX
  5
C5
330
C1
100
AcDbEntity
  8
Layer 1
 62
   178
420
    65793
370
    25
100
AcDbVertex
100
AcDb2dVertex
 10
129.3710144598213
 20
-143.0747882609353
 30
0.0
  0
VERTEX
  5
C6
330
C1
100
AcDbEntity
  8
Layer 1
 62
   178
420
    65793
370
    25
100
AcDbVertex
100
AcDb2dVertex
 10
129.3710144598213
 20
-157.0747886468524
 30
0.0
  0
SEQEND
  5
C7
330
C1
100
AcDbEntity
  8
Layer 1
 62
   178
420
    65793
370
    25
  0
POLYLINE
  5
C8
330
1F
100
AcDbEntity
  8
Layer 1
 62
   178
420
    65793
370
    25
100
AcDb2dPolyline
 66
     1
 10
0.0
 20
0.0
 30
0.0
  0
VERTEX
  5
C9
330
C8
100
AcDbEntity
  8
Layer 1
 62
   178
420
    65793
370
    25
100
AcDbVertex
100
AcDb2dVertex
 10
148.4210027779125
 20
-157.0747886468524
 30
0.0
  0
VERTEX
  5
CA
330
C8
100
AcDbEntity
  8
Layer 1
 62
   178
420
    65793
370
    25
100
AcDbVertex
100
AcDb2dVertex
 10
162.4210031638295
 20
-157.0747886468524
 30
0.0
  0
VERTEX
  5
CB
330
C8
100
AcDbEntity
  8
Layer 1
 62
   178
420
    65793
370
    25
100
AcDbVertex
100
AcDb2dVertex
 10
162.4210031638295
 20
-143.0747882609353
 30
0.0
  0
VERTEX
  5
CC
330
C8
100
AcDbEntity
  8
Layer 1
 62
   178
420
    65793
370
    25
100
AcDbVertex
100
AcDb2dVertex
 10
148.4210027779125
 20
-143.0747882609353
 30
0.0
  0
VERTEX
  5
CD
330
C8
100
AcDbEntity
  8
Layer 1
 62
   178
420
    65793
370
    25
100
AcDbVertex
100
AcDb2dVertex
 10
148.4210027779125
 20
-157.0747886468524
 30
0.0
  0
SEQEND
  5
CE
330
C8
100
AcDbEntity
  8
Layer 1
 62
   178
420
    65793
370
    25
  0
POLYLINE
  5
CF
330
1F
100
AcDbEntity
  8
Layer 1
 62
   178
420
    65793
370
    25
100
AcDb2dPolyline
 66
     1
 10
0.0
 20
0.0
 30
0.0
  0
VERTEX
  5
D0
330
CF
100
AcDbEntity
  8
Layer 1
 62
   178
420
    65793
370
    25
100
AcDbVertex
100
AcDb2dVertex
 10
167.4710216135826
 20
-157.0747886468524
 30
0.0
  0
VERTEX
  5
D1
330
CF
100
AcDbEntity
  8
Layer 1
 62
   178
420
    65793
370
    25
100
AcDbVertex
100
AcDb2dVertex
 10
181.4710219994997
 20
-157.0747886468524
 30
0.0
  0
VERTEX
  5
D2
330
CF
100
AcDbEntity
  8
Layer 1
 62
   178
420
    65793
370
    25
100
AcDbVertex
100
AcDb2dVertex
 10
181.4710219994997
 20
-143.0747882609353
 30
0.0
  0
VERTEX
  5
D3
330
CF
100
AcDbEntity
  8
Layer 1
 62
   178
420
    65793
370
    25
100
AcDbVertex
100
AcDb2dVertex
 10
167.4710216135826
 20
-143.0747882609353
 30
0.0
  0
VERTEX
  5
D4
330
CF
100
AcDbEntity
  8
Layer 1
 62
   178
420
    65793
370
    25
100
AcDbVertex
100
AcDb2dVertex
 10
167.4710216135826
 20
-157.0747886468524
 30
0.0
  0
SEQEND
  5
D5
330
CF
100
AcDbEntity
  8
Layer 1
 62
   178
420
    65793
370
    25
  0
POLYLINE
  5
D6
330
1F
100
AcDbEntity
  8
Layer 1
 62
   178
420
    65793
370
    25
100
AcDb2dPolyline
 66
     1
 10
0.0
 20
0.0
 30
0.0
  0
VERTEX
  5
D7
330
D6
100
AcDbEntity
  8
Layer 1
 62
   178
420
    65793
370
    25
100
AcDbVertex
100
AcDb2dVertex
 10
81.74601314701431
 20
-176.1247884090363
 30
0.0
  0
VERTEX
  5
D8
330
D6
100
AcDbEntity
  8
Layer 1
 62
   178
420
    65793
370
    25
100
AcDbVertex
100
AcDb2dVertex
 10
95.74601353293131
 20
-176.1247884090363
 30
0.0
  0
VERTEX
  5
D9
330
D6
100
AcDbEntity
  8
Layer 1
 62
   178
420
    65793
370
    25
100
AcDbVertex
100
AcDb2dVertex
 10
95.74601353293131
 20
-162.1247880231193
 30
0.0
  0
VERTEX
  5
DA
330
D6
100
AcDbEntity
  8
Layer 1
 62
   178
420
    65793
370
    25
100
AcDbVertex
100
AcDb2dVertex
 10
81.74601314701431
 20
-162.1247880231193
 30
0.0
  0
VERTEX
  5
DB
330
D6
100
AcDbEntity
  8
Layer 1
 62
   178
420
    65793
370
    25
100
AcDbVertex
100
AcDb2dVertex
 10
81.74601314701431
 20
-176.1247884090363
 30
0.0
  0
SEQEND
  5
DC
330
D6
100
AcDbEntity
  8
Layer 1
 62
   178
420
    65793
370
    25
  0
POLYLINE
  5
DD
330
1F
100
AcDbEntity
  8
Layer 1
 62
   178
420
    65793
370
    25
100
AcDb2dPolyline
 66
     1
 10
0.0
 20
0.0
 30
0.0
  0
VERTEX
  5
DE
330
DD
100
AcDbEntity
  8
Layer 1
 62
   178
420
    65793
370
    25
100
AcDbVertex
100
AcDb2dVertex
 10
100.7960014651055
 20
-176.1247884090363
 30
0.0
  0
VERTEX
  5
DF
330
DD
100
AcDbEntity
  8
Layer 1
 62
   178
420
    65793
370
    25
100
AcDbVertex
100
AcDb2dVertex
 10
114.7960018510225
 20
-176.1247884090363
 30
0.0
  0
VERTEX
  5
E0
330
DD
100
AcDbEntity
  8
Layer 1
 62
   178
420
    65793
370
    25
100
AcDbVertex
100
AcDb2dVertex
 10
114.7960018510225
 20
-162.1247880231193
 30
0.0
  0
VERTEX
  5
E1
330
DD
100
AcDbEntity
  8
Layer 1
 62
   178
420
    65793
370
    25
100
AcDbVertex
100
AcDb2dVertex
 10
100.7960014651055
 20
-162.1247880231193
 30
0.0
  0
VERTEX
  5
E2
330
DD
100
AcDbEntity
  8
Layer 1
 62
   178
420
    65793
370
    25
100
AcDbVertex
100
AcDb2dVertex
 10
100.7960014651055
 20
-176.1247884090363
 30
0.0
  0
SEQEND
  5
E3
330
DD
100
AcDbEntity
  8
Layer 1
 62
   178
420
    65793
370
    25
  0
POLYLINE
  5
E4
330
1F
100
AcDbEntity
  8
Layer 1
 62
   178
420
    65793
370
    25
100
AcDb2dPolyline
 66
     1
 10
0.0
 20
0.0
 30
0.0
  0
VERTEX
  5
E5
330
E4
100
AcDbEntity
  8
Layer 1
 62
   178
420
    65793
370
    25
100
AcDbVertex
100
AcDb2dVertex
 10
119.8460050419862
 20
-176.1247884090363
 30
0.0
  0
VERTEX
  5
E6
330
E4
100
AcDbEntity
  8
Layer 1
 62
   178
420
    65793
370
    25
100
AcDbVertex
100
AcDb2dVertex
 10
133.8460206866927
 20
-176.1247884090363
 30
0.0
  0
VERTEX
  5
E7
330
E4
100
AcDbEntity
  8
Layer 1
 62
   178
420
    65793
370
    25
100
AcDbVertex
100
AcDb2dVertex
 10
133.8460206866927
 20
-162.1247880231193
 30
0.0
  0
VERTEX
  5
E8
330
E4
100
AcDbEntity
  8
Layer 1
 62
   178
420
    65793
370
    25
100
AcDbVertex
100
AcDb2dVertex
 10
119.8460050419862
 20
-162.1247880231193
 30
0.0
  0
VERTEX
  5
E9
330
E4
100
AcDbEntity
  8
Layer 1
 62
   178
420
    65793
370
    25
100
AcDbVertex
100
AcDb2dVertex
 10
119.8460050419862
 20
-176.1247884090363
 30
0.0
  0
SEQEND
  5
EA
330
E4
100
AcDbEntity
  8
Layer 1
 62
   178
420
    65793
370
    25
  0
POLYLINE
  5
EB
330
1F
100
AcDbEntity
  8
Layer 1
 62
   178
420
    65793
370
    25
100
AcDb2dPolyline
 66
     1
 10
0.0
 20
0.0
 30
0.0
  0
VERTEX
  5
EC
330
EB
100
AcDbEntity
  8
Layer 1
 62
   178
420
    65793
370
    25
100
AcDbVertex
100
AcDb2dVertex
 10
138.8960086188669
 20
-176.1247884090363
 30
0.0
  0
VERTEX
  5
ED
330
EB
100
AcDbEntity
  8
Layer 1
 62
   178
420
    65793
370
    25
100
AcDbVertex
100
AcDb2dVertex
 10
152.8960090047839
 20
-176.1247884090363
 30
0.0
  0
VERTEX
  5
EE
330
EB
100
AcDbEntity
  8
Layer 1
 62
   178
420
    65793
370
    25
100
AcDbVertex
100
AcDb2dVertex
 10
152.8960090047839
 20
-162.1247880231193
 30
0.0
  0
VERTEX
  5
EF
330
EB
100
AcDbEntity
  8
Layer 1
 62
   178
420
    65793
370
    25
100
AcDbVertex
100
AcDb2dVertex
 10
138.8960086188669
 20
-162.1247880231193
 30
0.0
  0
VERTEX
  5
F0
330
EB
100
AcDbEntity
  8
Layer 1
 62
   178
420
    65793
370
    25
100
AcDbVertex
100
AcDb2dVertex
 10
138.8960086188669
 20
-176.1247884090363
 30
0.0
  0
SEQEND
  5
F1
330
EB
100
AcDbEntity
  8
Layer 1
 62
   178
420
    65793
370
    25
  0
ENDSEC
  0
SECTION
  2
OBJECTS
  0
DICTIONARY
  5
C
330
0
100
AcDbDictionary
281
     1
  3
ACAD_GROUP
350
D
  3
ACAD_LAYOUT
350
1A
  3
ACAD_MATERIAL
350
3B
  3
ACAD_MLEADERSTYLE
350
F3
  3
ACAD_MLINESTYLE
350
17
  3
ACAD_PLOTSETTINGS
350
19
  3
ACAD_PLOTSTYLENAME
350
E
  3
ACAD_TABLESTYLE
350
F2
  3
ACAD_VISUALSTYLE
350
2A
  0
SUN
  5
3F
330
29
100
AcDbSun
 90
        1
290
     0
 63
     7
421
 16777215
 40
1.0
291
     1
 91
  2455826
 92
 54000000
292
     0
 70
     2
 71
   256
280
     1
  0
DICTIONARY
  5
D
102
{ACAD_REACTORS
330
C
102
}
330
C
100
AcDbDictionary
281
     1
  0
DICTIONARY
  5
1A
102
{ACAD_REACTORS
330
C
102
}
330
C
100
AcDbDictionary
281
     1
  3
Layout1
350
1E
  3
Layout2
350
26
  3
Model
350
22
  0
DICTIONARY
  5
3B
102
{ACAD_REACTORS
330
C
102
}
330
C
100
AcDbDictionary
281
     1
  3
ByBlock
350
3D
  3
ByLayer
350
3C
  3
Global
350
3E
  0
DICTIONARY
  5
F3
102
{ACAD_REACTORS
330
C
102
}
330
C
100
AcDbDictionary
281
     1
  0
DICTIONARY
  5
17
102
{ACAD_REACTORS
330
C
102
}
330
C
100
AcDbDictionary
281
     1
  3
Standard
350
18
  0
DICTIONARY
  5
19
102
{ACAD_REACTORS
330
C
102
}
330
C
100
AcDbDictionary
281
     1
  0
ACDBDICTIONARYWDFLT
  5
E
102
{ACAD_REACTORS
330
C
102
}
330
C
100
AcDbDictionary
281
     1
  3
Normal
350
F
100
AcDbDictionaryWithDefault
340
F
  0
DICTIONARY
  5
F2
102
{ACAD_REACTORS
330
C
102
}
330
C
100
AcDbDictionary
281
     1
  0
DICTIONARY
  5
2A
102
{ACAD_REACTORS
330
C
102
}
330
C
100
AcDbDictionary
281
     1
  3
2dWireframe
350
2F
  3
3D Hidden
350
31
  3
3dWireframe
350
30
  3
Basic
350
32
  3
Brighten
350
36
  3
ColorChange
350
3A
  3
Conceptual
350
34
  3
Dim
350
35
  3
Facepattern
350
39
  3
Flat
350
2B
  3
FlatWithEdges
350
2C
  3
Gouraud
350
2D
  3
GouraudWithEdges
350
2E
  3
Linepattern
350
38
  3
Realistic
350
33
  3
Thicken
350
37
  0
LAYOUT
  5
1E
102
{ACAD_REACTORS
330
1A
102
}
330
1A
100
AcDbPlotSettings
  1

  2
none_device
  4

  6

 40
0.0
 41
0.0
 42
0.0
 43
0.0
 44
0.0
 45
0.0
 46
0.0
 47
0.0
 48
0.0
 49
0.0
140
0.0
141
0.0
142
1.0
143
1.0
 70
   688
 72
     0
 73
     0
 74
     5
  7

 75
    16
 76
     0
 77
     2
 78
   300
147
1.0
148
0.0
149
0.0
100
AcDbLayout
  1
Layout1
 70
     1
 71
     1
 10
0.0
 20
0.0
 11
12.0
 21
9.0
 12
0.0
 22
0.0
 32
0.0
 14
1.000000000000000E+20
 24
1.000000000000000E+20
 34
1.000000000000000E+20
 15
-1.000000000000000E+20
 25
-1.000000000000000E+20
 35
-1.000000000000000E+20
146
0.0
 13
0.0
 23
0.0
 33
0.0
 16
1.0
 26
0.0
 36
0.0
 17
0.0
 27
1.0
 37
0.0
 76
     0
330
1B
  0
LAYOUT
  5
26
102
{ACAD_REACTORS
330
1A
102
}
330
1A
100
AcDbPlotSettings
  1

  2
none_device
  4

  6

 40
0.0
 41
0.0
 42
0.0
 43
0.0
 44
0.0
 45
0.0
 46
0.0
 47
0.0
 48
0.0
 49
0.0
140
0.0
141
0.0
142
1.0
143
1.0
 70
   688
 72
     0
 73
     0
 74
     5
  7

 75
    16
 76
     0
 77
     2
 78
   300
147
1.0
148
0.0
149
0.0
100
AcDbLayout
  1
Layout2
 70
     1
 71
     2
 10
0.0
 20
0.0
 11
0.0
 21
0.0
 12
0.0
 22
0.0
 32
0.0
 14
0.0
 24
0.0
 34
0.0
 15
0.0
 25
0.0
 35
0.0
146
0.0
 13
0.0
 23
0.0
 33
0.0
 16
1.0
 26
0.0
 36
0.0
 17
0.0
 27
1.0
 37
0.0
 76
     0
330
23
  0
LAYOUT
  5
22
102
{ACAD_REACTORS
330
1A
102
}
330
1A
100
AcDbPlotSettings
  1

  2
none_device
  4

  6

 40
0.0
 41
0.0
 42
0.0
 43
0.0
 44
0.0
 45
0.0
 46
0.0
 47
0.0
 48
0.0
 49
0.0
140
0.0
141
0.0
142
1.0
143
1.0
 70
  1712
 72
     0
 73
     0
 74
     0
  7

 75
     0
 76
     0
 77
     2
 78
   300
147
1.0
148
0.0
149
0.0
100
AcDbLayout
  1
Model
 70
     1
 71
     0
 10
0.0
 20
0.0
 11
12.0
 21
9.0
 12
0.0
 22
0.0
 32
0.0
 14
1.000000000000000E+20
 24
1.000000000000000E+20
 34
1.000000000000000E+20
 15
-1.000000000000000E+20
 25
-1.000000000000000E+20
 35
-1.000000000000000E+20
146
0.0
 13
0.0
 23
0.0
 33
0.0
 16
1.0
 26
0.0
 36
0.0
 17
0.0
 27
1.0
 37
0.0
 76
     0
330
1F
331
29
  0
MATERIAL
  5
3D
102
{ACAD_REACTORS
330
3B
102
}
330
3B
100
AcDbMaterial
  1
ByBlock
 72
     1
 94
      127
  0
MATERIAL
  5
3C
102
{ACAD_REACTORS
330
3B
102
}
330
3B
100
AcDbMaterial
  1
ByLayer
 72
     1
 94
      127
  0
MATERIAL
  5
3E
102
{ACAD_REACTORS
330
3B
102
}
330
3B
100
AcDbMaterial
  1
Global
 72
     1
 94
      127
  0
MLINESTYLE
  5
18
102
{ACAD_REACTORS
330
17
102
}
330
17
100
AcDbMlineStyle
  2
Standard
 70
     0
  3

 62
   256
 51
90.0
 52
90.0
 71
     2
 49
0.5
 62
   256
  6
BYLAYER
 49
-0.5
 62
   256
  6
BYLAYER
  0
ACDBPLACEHOLDER
  5
F
102
{ACAD_REACTORS
330
E
102
}
330
E
  0
VISUALSTYLE
  5
2F
102
{ACAD_REACTORS
330
2A
102
}
330
2A
100
AcDbVisualStyle
  2
2dWireframe
 70
     4
177
     2
291
     0
 71
     0
176
     1
 72
     2
176
     1
 73
     0
176
     1
 90
        0
176
     1
 40
-0.6
176
     1
 41
-30.0
176
     1
 62
     5
 63
     7
421
 16777215
176
     1
 74
     1
176
     1
 91
        4
176
     1
 64
     7
176
     1
 65
   257
176
     1
 75
     1
176
     1
175
     1
176
     1
 42
1.0
176
     1
 92
        0
176
     1
 66
   257
176
     1
 43
1.0
176
     1
 76
     1
176
     1
 77
     6
176
     1
 78
     2
176
     1
 67
     7
176
     1
 79
     5
176
     1
170
     0
176
     1
171
     0
176
     1
290
     0
176
     1
 93
        1
176
     1
 44
0.0
176
     1
173
     0
176
     1
  0
VISUALSTYLE
  5
31
102
{ACAD_REACTORS
330
2A
102
}
330
2A
100
AcDbVisualStyle
  2
3D Hidden
 70
     6
177
     2
291
     0
 71
     1
176
     1
 72
     2
176
     1
 73
     2
176
     1
 90
        0
176
     1
 40
-0.6
176
     1
 41
-30.0
176
     1
 62
     5
 63
     7
421
 16777215
176
     1
 74
     2
176
     1
 91
        2
176
     1
 64
     7
176
     1
 65
   257
176
     1
 75
     2
176
     1
175
     1
176
     1
 42
40.0
176
     1
 92
        0
176
     1
 66
   257
176
     1
 43
1.0
176
     1
 76
     1
176
     1
 77
     6
176
     1
 78
     2
176
     1
 67
     7
176
     1
 79
     3
176
     1
170
     0
176
     1
171
     0
176
     1
290
     0
176
     1
 93
        1
176
     1
 44
0.0
176
     1
173
     0
176
     1
  0
VISUALSTYLE
  5
30
102
{ACAD_REACTORS
330
2A
102
}
330
2A
100
AcDbVisualStyle
  2
3dWireframe
 70
     5
177
     2
291
     0
 71
     0
176
     1
 72
     2
176
     1
 73
     0
176
     1
 90
        0
176
     1
 40
-0.6
176
     1
 41
-30.0
176
     1
 62
     5
 63
     7
421
 16777215
176
     1
 74
     1
176
     1
 91
        4
176
     1
 64
     7
176
     1
 65
   257
176
     1
 75
     1
176
     1
175
     1
176
     1
 42
1.0
176
     1
 92
        0
176
     1
 66
   257
176
     1
 43
1.0
176
     1
 76
     1
176
     1
 77
     6
176
     1
 78
     2
176
     1
 67
     7
176
     1
 79
     5
176
     1
170
     0
176
     1
171
     0
176
     1
290
     0
176
     1
 93
        1
176
     1
 44
0.0
176
     1
173
     0
176
     1
  0
VISUALSTYLE
  5
32
102
{ACAD_REACTORS
330
2A
102
}
330
2A
100
AcDbVisualStyle
  2
Basic
 70
     7
177
     2
291
     1
 71
     1
176
     1
 72
     0
176
     1
 73
     1
176
     1
 90
        0
176
     1
 40
-0.6
176
     1
 41
-30.0
176
     1
 62
     5
 63
     7
421
 16777215
176
     1
 74
     0
176
     1
 91
        4
176
     1
 64
     7
176
     1
 65
   257
176
     1
 75
     1
176
     1
175
     1
176
     1
 42
1.0
176
     1
 92
        8
176
     1
 66
     7
176
     1
 43
1.0
176
     1
 76
     1
176
     1
 77
     6
176
     1
 78
     2
176
     1
 67
     7
176
     1
 79
     5
176
     1
170
     0
176
     1
171
     0
176
     1
290
     0
176
     1
 93
        1
176
     1
 44
0.0
176
     1
173
     0
176
     1
  0
VISUALSTYLE
  5
36
102
{ACAD_REACTORS
330
2A
102
}
330
2A
100
AcDbVisualStyle
  2
Brighten
 70
    12
177
     2
291
     1
 71
     2
176
     1
 72
     2
176
     1
 73
     0
176
     1
 90
        0
176
     1
 40
-0.6
176
     1
 41
-30.0
176
     1
 62
     5
 63
     7
421
 16777215
176
     1
 74
     1
176
     1
 91
        4
176
     1
 64
     7
176
     1
 65
   257
176
     1
 75
     1
176
     1
175
     1
176
     1
 42
1.0
176
     1
 92
        8
176
     1
 66
     7
176
     1
 43
1.0
176
     1
 76
     1
176
     1
 77
     6
176
     1
 78
     2
176
     1
 67
     7
176
     1
 79
     5
176
     1
170
     0
176
     1
171
     0
176
     1
290
     0
176
     1
 93
        1
176
     1
 44
50.0
176
     1
173
     0
176
     1
  0
VISUALSTYLE
  5
3A
102
{ACAD_REACTORS
330
2A
102
}
330
2A
100
AcDbVisualStyle
  2
ColorChange
 70
    16
177
     2
291
     1
 71
     2
176
     1
 72
     2
176
     1
 73
     3
176
     1
 90
        0
176
     1
 40
-0.6
176
     1
 41
-30.0
176
     1
 62
     5
 63
     8
421
  8421504
176
     1
 74
     1
176
     1
 91
        4
176
     1
 64
     7
176
     1
 65
   257
176
     1
 75
     1
176
     1
175
     1
176
     1
 42
1.0
176
     1
 92
        8
176
     1
 66
     8
424
  8421504
176
     1
 43
1.0
176
     1
 76
     1
176
     1
 77
     6
176
     1
 78
     2
176
     1
 67
     7
176
     1
 79
     5
176
     1
170
     0
176
     1
171
     0
176
     1
290
     0
176
     1
 93
        1
176
     1
 44
0.0
176
     1
173
     0
176
     1
  0
VISUALSTYLE
  5
34
102
{ACAD_REACTORS
330
2A
102
}
330
2A
100
AcDbVisualStyle
  2
Conceptual
 70
     9
177
     2
291
     0
 71
     3
176
     1
 72
     2
176
     1
 73
     0
176
     1
 90
        0
176
     1
 40
-0.6
176
     1
 41
-30.0
176
     1
 62
     5
 63
     7
421
 16777215
176
     1
 74
     2
176
     1
 91
        2
176
     1
 64
     7
176
     1
 65
   257
176
     1
 75
     1
176
     1
175
     1
176
     1
 42
40.0
176
     1
 92
        8
176
     1
 66
     7
176
     1
 43
1.0
176
     1
 76
     1
176
     1
 77
     6
176
     1
 78
     2
176
     1
 67
     7
176
     1
 79
     3
176
     1
170
     0
176
     1
171
     0
176
     1
290
     0
176
     1
 93
        1
176
     1
 44
0.0
176
     1
173
     0
176
     1
  0
VISUALSTYLE
  5
35
102
{ACAD_REACTORS
330
2A
102
}
330
2A
100
AcDbVisualStyle
  2
Dim
 70
    11
177
     2
291
     1
 71
     2
176
     1
 72
     2
176
     1
 73
     0
176
     1
 90
        0
176
     1
 40
-0.6
176
     1
 41
-30.0
176
     1
 62
     5
 63
     7
421
 16777215
176
     1
 74
     1
176
     1
 91
        4
176
     1
 64
     7
176
     1
 65
   257
176
     1
 75
     1
176
     1
175
     1
176
     1
 42
1.0
176
     1
 92
        8
176
     1
 66
     7
176
     1
 43
1.0
176
     1
 76
     1
176
     1
 77
     6
176
     1
 78
     2
176
     1
 67
     7
176
     1
 79
     5
176
     1
170
     0
176
     1
171
     0
176
     1
290
     0
176
     1
 93
        1
176
     1
 44
-50.0
176
     1
173
     0
176
     1
  0
VISUALSTYLE
  5
39
102
{ACAD_REACTORS
330
2A
102
}
330
2A
100
AcDbVisualStyle
  2
Facepattern
 70
    15
177
     2
291
     1
 71
     2
176
     1
 72
     2
176
     1
 73
     0
176
     1
 90
        0
176
     1
 40
-0.6
176
     1
 41
-30.0
176
     1
 62
     5
 63
     7
421
 16777215
176
     1
 74
     1
176
     1
 91
        4
176
     1
 64
     7
176
     1
 65
   257
176
     1
 75
     1
176
     1
175
     1
176
     1
 42
1.0
176
     1
 92
        8
176
     1
 66
     7
176
     1
 43
1.0
176
     1
 76
     1
176
     1
 77
     6
176
     1
 78
     2
176
     1
 67
     7
176
     1
 79
     5
176
     1
170
     0
176
     1
171
     0
176
     1
290
     0
176
     1
 93
        1
176
     1
 44
0.0
176
     1
173
     0
176
     1
  0
VISUALSTYLE
  5
2B
102
{ACAD_REACTORS
330
2A
102
}
330
2A
100
AcDbVisualStyle
  2
Flat
 70
     0
177
     2
291
     1
 71
     2
176
     1
 72
     1
176
     1
 73
     1
176
     1
 90
        2
176
     1
 40
-0.6
176
     1
 41
30.0
176
     1
 62
     5
 63
     7
421
 16777215
176
     1
 74
     0
176
     1
 91
        4
176
     1
 64
     7
176
     1
 65
   257
176
     1
 75
     1
176
     1
175
     1
176
     1
 42
1.0
176
     1
 92
        8
176
     1
 66
     7
176
     1
 43
1.0
176
     1
 76
     1
176
     1
 77
     6
176
     1
 78
     2
176
     1
 67
     7
176
     1
 79
     5
176
     1
170
     0
176
     1
171
     0
176
     1
290
     0
176
     1
 93
       13
176
     1
 44
0.0
176
     1
173
     0
176
     1
  0
VISUALSTYLE
  5
2C
102
{ACAD_REACTORS
330
2A
102
}
330
2A
100
AcDbVisualStyle
  2
FlatWithEdges
 70
     1
177
     2
291
     1
 71
     2
176
     1
 72
     1
176
     1
 73
     1
176
     1
 90
        2
176
     1
 40
-0.6
176
     1
 41
30.0
176
     1
 62
     5
 63
     7
421
 16777215
176
     1
 74
     1
176
     1
 91
        4
176
     1
 64
     7
176
     1
 65
   257
176
     1
 75
     1
176
     1
175
     1
176
     1
 42
1.0
176
     1
 92
        0
176
     1
 66
   257
176
     1
 43
1.0
176
     1
 76
     1
176
     1
 77
     6
176
     1
 78
     2
176
     1
 67
     7
176
     1
 79
     5
176
     1
170
     0
176
     1
171
     0
176
     1
290
     0
176
     1
 93
       13
176
     1
 44
0.0
176
     1
173
     0
176
     1
  0
VISUALSTYLE
  5
2D
102
{ACAD_REACTORS
330
2A
102
}
330
2A
100
AcDbVisualStyle
  2
Gouraud
 70
     2
177
     2
291
     1
 71
     2
176
     1
 72
     2
176
     1
 73
     1
176
     1
 90
        2
176
     1
 40
-0.6
176
     1
 41
30.0
176
     1
 62
     5
 63
     7
421
 16777215
176
     1
 74
     0
176
     1
 91
        4
176
     1
 64
     7
176
     1
 65
   257
176
     1
 75
     1
176
     1
175
     1
176
     1
 42
1.0
176
     1
 92
        0
176
     1
 66
     7
176
     1
 43
1.0
176
     1
 76
     1
176
     1
 77
     6
176
     1
 78
     2
176
     1
 67
     7
176
     1
 79
     5
176
     1
170
     0
176
     1
171
     0
176
     1
290
     0
176
     1
 93
       13
176
     1
 44
0.0
176
     1
173
     0
176
     1
  0
VISUALSTYLE
  5
2E
102
{ACAD_REACTORS
330
2A
102
}
330
2A
100
AcDbVisualStyle
  2
GouraudWithEdges
 70
     3
177
     2
291
     1
 71
     2
176
     1
 72
     2
176
     1
 73
     1
176
     1
 90
        2
176
     1
 40
-0.6
176
     1
 41
30.0
176
     1
 62
     5
 63
     7
421
 16777215
176
     1
 74
     1
176
     1
 91
        4
176
     1
 64
     7
176
     1
 65
   257
176
     1
 75
     1
176
     1
175
     1
176
     1
 42
1.0
176
     1
 92
        0
176
     1
 66
   257
176
     1
 43
1.0
176
     1
 76
     1
176
     1
 77
     6
176
     1
 78
     2
176
     1
 67
     7
176
     1
 79
     5
176
     1
170
     0
176
     1
171
     0
176
     1
290
     0
176
     1
 93
       13
176
     1
 44
0.0
176
     1
173
     0
176
     1
  0
VISUALSTYLE
  5
38
102
{ACAD_REACTORS
330
2A
102
}
330
2A
100
AcDbVisualStyle
  2
Linepattern
 70
    14
177
     2
291
     1
 71
     2
176
     1
 72
     2
176
     1
 73
     0
176
     1
 90
        0
176
     1
 40
-0.6
176
     1
 41
-30.0
176
     1
 62
     5
 63
     7
421
 16777215
176
     1
 74
     1
176
     1
 91
        4
176
     1
 64
     7
176
     1
 65
   257
176
     1
 75
     7
176
     1
175
     7
176
     1
 42
1.0
176
     1
 92
        8
176
     1
 66
     7
176
     1
 43
1.0
176
     1
 76
     1
176
     1
 77
     6
176
     1
 78
     2
176
     1
 67
     7
176
     1
 79
     5
176
     1
170
     0
176
     1
171
     0
176
     1
290
     0
176
     1
 93
        1
176
     1
 44
0.0
176
     1
173
     0
176
     1
  0
VISUALSTYLE
  5
33
102
{ACAD_REACTORS
330
2A
102
}
330
2A
100
AcDbVisualStyle
  2
Realistic
 70
     8
177
     2
291
     0
 71
     2
176
     1
 72
     2
176
     1
 73
     0
176
     1
 90
        0
176
     1
 40
-0.6
176
     1
 41
-30.0
176
     1
 62
     5
 63
     7
421
 16777215
176
     1
 74
     1
176
     1
 91
        0
176
     1
 64
     7
176
     1
 65
   257
176
     1
 75
     1
176
     1
175
     1
176
     1
 42
1.0
176
     1
 92
        8
176
     1
 66
     8
424
  7895160
176
     1
 43
1.0
176
     1
 76
     1
176
     1
 77
     6
176
     1
 78
     2
176
     1
 67
     7
176
     1
 79
     5
176
     1
170
     0
176
     1
171
     0
176
     1
290
     0
176
     1
 93
       13
176
     1
 44
0.0
176
     1
173
     0
176
     1
  0
VISUALSTYLE
  5
37
102
{ACAD_REACTORS
330
2A
102
}
330
2A
100
AcDbVisualStyle
  2
Thicken
 70
    13
177
     2
291
     1
 71
     2
176
     1
 72
     2
176
     1
 73
     0
176
     1
 90
        0
176
     1
 40
-0.6
176
     1
 41
-30.0
176
     1
 62
     5
 63
     7
421
 16777215
176
     1
 74
     1
176
     1
 91
        4
176
     1
 64
     7
176
     1
 65
   257
176
     1
 75
     1
176
     1
175
     1
176
     1
 42
1.0
176
     1
 92
       12
176
     1
 66
     7
176
     1
 43
1.0
176
     1
 76
     1
176
     1
 77
     6
176
     1
 78
     2
176
     1
 67
     7
176
     1
 79
     5
176
     1
170
     0
176
     1
171
     0
176
     1
290
     0
176
     1
 93
        1
176
     1
 44
0.0
176
     1
173
     0
176
     1
  0
ENDSEC
  0
EOF
