  0
SECTION
  2
HEADER
  9
$ACADVER
  1
AC1024
  9
$ACADMAINTVER
 70
     6
  9
$DWGCODEPAGE
  3
UNDEFINED
  9
$INSBASE
 10
0.0
 20
0.0
 30
0.0
  9
$EXTMIN
 10
1.000000000000000E+20
 20
1.000000000000000E+20
 30
1.000000000000000E+20
  9
$EXTMAX
 10
-1.000000000000000E+20
 20
-1.000000000000000E+20
 30
-1.000000000000000E+20
  9
$LIMMIN
 10
0.0
 20
0.0
  9
$LIMMAX
 10
12.0
 20
9.0
  9
$ORTHOMODE
 70
     0
  9
$REGENMODE
 70
     1
  9
$FILLMODE
 70
     1
  9
$QTEXTMODE
 70
     0
  9
$MIRRTEXT
 70
     1
  9
$LTSCALE
 40
1.0
  9
$ATTMODE
 70
     1
  9
$TEXTSIZE
 40
0.2
  9
$TRACEWID
 40
0.05
  9
$TEXTSTYLE
  7
Standard
  9
$CLAYER
  8
0
  9
$CELTYPE
  6
ByLayer
  9
$CECOLOR
 62
   256
  9
$CELTSCALE
 40
1.0
  9
$DISPSILH
 70
     0
  9
$DIMSCALE
 40
1.0
  9
$DIMASZ
 40
0.18
  9
$DIMEXO
 40
0.0625
  9
$DIMDLI
 40
0.38
  9
$DIMRND
 40
0.0
  9
$DIMDLE
 40
0.0
  9
$DIMEXE
 40
0.18
  9
$DIMTP
 40
0.0
  9
$DIMTM
 40
0.0
  9
$DIMTXT
 40
0.18
  9
$DIMCEN
 40
0.09
  9
$DIMTSZ
 40
0.0
  9
$DIMTOL
 70
     0
  9
$DIMLIM
 70
     0
  9
$DIMTIH
 70
     1
  9
$DIMTOH
 70
     1
  9
$DIMSE1
 70
     0
  9
$DIMSE2
 70
     0
  9
$DIMTAD
 70
     0
  9
$DIMZIN
 70
     0
  9
$DIMBLK
  1

  9
$DIMASO
 70
     1
  9
$DIMSHO
 70
     1
  9
$DIMPOST
  1

  9
$DIMAPOST
  1

  9
$DIMALT
 70
     0
  9
$DIMALTD
 70
     2
  9
$DIMALTF
 40
25.4
  9
$DIMLFAC
 40
1.0
  9
$DIMTOFL
 70
     0
  9
$DIMTVP
 40
0.0
  9
$DIMTIX
 70
     0
  9
$DIMSOXD
 70
     0
  9
$DIMSAH
 70
     0
  9
$DIMBLK1
  1

  9
$DIMBLK2
  1

  9
$DIMSTYLE
  2
Standard
  9
$DIMCLRD
 70
     0
  9
$DIMCLRE
 70
     0
  9
$DIMCLRT
 70
     0
  9
$DIMTFAC
 40
1.0
  9
$DIMGAP
 40
0.09
  9
$DIMJUST
 70
     0
  9
$DIMSD1
 70
     0
  9
$DIMSD2
 70
     0
  9
$DIMTOLJ
 70
     1
  9
$DIMTZIN
 70
     0
  9
$DIMALTZ
 70
     0
  9
$DIMALTTZ
 70
     0
  9
$DIMUPT
 70
     0
  9
$DIMDEC
 70
     4
  9
$DIMTDEC
 70
     4
  9
$DIMALTU
 70
     2
  9
$DIMALTTD
 70
     2
  9
$DIMTXSTY
  7
Standard
  9
$DIMAUNIT
 70
     0
  9
$DIMADEC
 70
     0
  9
$DIMALTRND
 40
0.0
  9
$DIMAZIN
 70
     0
  9
$DIMDSEP
 70
    46
  9
$DIMATFIT
 70
     3
  9
$DIMFRAC
 70
     0
  9
$DIMLDRBLK
  1

  9
$DIMLUNIT
 70
     2
  9
$DIMLWD
 70
    -2
  9
$DIMLWE
 70
    -2
  9
$DIMTMOVE
 70
     0
  9
$DIMFXL
 40
1.0
  9
$DIMFXLON
 70
     0
  9
$DIMJOGANG
 40
0.7853981633974483
  9
$DIMTFILL
 70
     0
  9
$DIMTFILLCLR
 70
     0
  9
$DIMARCSYM
 70
     0
  9
$DIMLTYPE
  6

  9
$DIMLTEX1
  6

  9
$DIMLTEX2
  6

  9
$DIMTXTDIRECTION
 70
     0
  9
$LUNITS
 70
     2
  9
$LUPREC
 70
     4
  9
$SKETCHINC
 40
0.1
  9
$FILLETRAD
 40
0.5
  9
$AUNITS
 70
     0
  9
$AUPREC
 70
     0
  9
$MENU
  1
.
  9
$ELEVATION
 40
0.0
  9
$PELEVATION
 40
0.0
  9
$THICKNESS
 40
0.0
  9
$LIMCHECK
 70
     0
  9
$CHAMFERA
 40
0.5
  9
$CHAMFERB
 40
0.5
  9
$CHAMFERC
 40
1.0
  9
$CHAMFERD
 40
0.0
  9
$SKPOLY
 70
     0
  9
$TDCREATE
 40
2459069.751817118
  9
$TDUCREATE
 40
2459069.960150463
  9
$TDUPDATE
 40
2459069.751817118
  9
$TDUUPDATE
 40
2459069.960150463
  9
$TDINDWG
 40
0.0000000116
  9
$TDUSRTIMER
 40
0.0000000116
  9
$USRTIMER
 70
     1
  9
$ANGBASE
 50
0.0
  9
$ANGDIR
 70
     0
  9
$PDMODE
 70
     0
  9
$PDSIZE
 40
0.0
  9
$PLINEWID
 40
0.0
  9
$SPLFRAME
 70
     0
  9
$SPLINETYPE
 70
     6
  9
$SPLINESEGS
 70
     8
  9
$HANDSEED
  5
117
  9
$SURFTAB1
 70
     6
  9
$SURFTAB2
 70
     6
  9
$SURFTYPE
 70
     6
  9
$SURFU
 70
     6
  9
$SURFV
 70
     6
  9
$UCSBASE
  2

  9
$UCSNAME
  2

  9
$UCSORG
 10
0.0
 20
0.0
 30
0.0
  9
$UCSXDIR
 10
1.0
 20
0.0
 30
0.0
  9
$UCSYDIR
 10
0.0
 20
1.0
 30
0.0
  9
$UCSORTHOREF
  2

  9
$UCSORTHOVIEW
 70
     0
  9
$UCSORGTOP
 10
0.0
 20
0.0
 30
0.0
  9
$UCSORGBOTTOM
 10
0.0
 20
0.0
 30
0.0
  9
$UCSORGLEFT
 10
0.0
 20
0.0
 30
0.0
  9
$UCSORGRIGHT
 10
0.0
 20
0.0
 30
0.0
  9
$UCSORGFRONT
 10
0.0
 20
0.0
 30
0.0
  9
$UCSORGBACK
 10
0.0
 20
0.0
 30
0.0
  9
$PUCSBASE
  2

  9
$PUCSNAME
  2

  9
$PUCSORG
 10
0.0
 20
0.0
 30
0.0
  9
$PUCSXDIR
 10
1.0
 20
0.0
 30
0.0
  9
$PUCSYDIR
 10
0.0
 20
1.0
 30
0.0
  9
$PUCSORTHOREF
  2

  9
$PUCSORTHOVIEW
 70
     0
  9
$PUCSORGTOP
 10
0.0
 20
0.0
 30
0.0
  9
$PUCSORGBOTTOM
 10
0.0
 20
0.0
 30
0.0
  9
$PUCSORGLEFT
 10
0.0
 20
0.0
 30
0.0
  9
$PUCSORGRIGHT
 10
0.0
 20
0.0
 30
0.0
  9
$PUCSORGFRONT
 10
0.0
 20
0.0
 30
0.0
  9
$PUCSORGBACK
 10
0.0
 20
0.0
 30
0.0
  9
$USERI1
 70
     0
  9
$USERI2
 70
     0
  9
$USERI3
 70
     0
  9
$USERI4
 70
     0
  9
$USERI5
 70
     0
  9
$USERR1
 40
0.0
  9
$USERR2
 40
0.0
  9
$USERR3
 40
0.0
  9
$USERR4
 40
0.0
  9
$USERR5
 40
0.0
  9
$WORLDVIEW
 70
     1
  9
$SHADEDGE
 70
     3
  9
$SHADEDIF
 70
    70
  9
$TILEMODE
 70
     1
  9
$MAXACTVP
 70
    64
  9
$PINSBASE
 10
0.0
 20
0.0
 30
0.0
  9
$PLIMCHECK
 70
     0
  9
$PEXTMIN
 10
1.000000000000000E+20
 20
1.000000000000000E+20
 30
1.000000000000000E+20
  9
$PEXTMAX
 10
-1.000000000000000E+20
 20
-1.000000000000000E+20
 30
-1.000000000000000E+20
  9
$PLIMMIN
 10
0.0
 20
0.0
  9
$PLIMMAX
 10
12.0
 20
9.0
  9
$UNITMODE
 70
     0
  9
$VISRETAIN
 70
     1
  9
$PLINEGEN
 70
     0
  9
$PSLTSCALE
 70
     1
  9
$TREEDEPTH
 70
  3020
  9
$CMLSTYLE
  2
Standard
  9
$CMLJUST
 70
     0
  9
$CMLSCALE
 40
1.0
  9
$PROXYGRAPHICS
 70
     1
  9
$MEASUREMENT
 70
     0
  9
$CELWEIGHT
370
    -1
  9
$ENDCAPS
280
     0
  9
$JOINSTYLE
280
     0
  9
$LWDISPLAY
290
     1
  9
$INSUNITS
 70
     1
  9
$HYPERLINKBASE
  1

  9
$STYLESHEET
  1

  9
$XEDIT
290
     1
  9
$CEPSNTYPE
380
     0
  9
$PSTYLEMODE
290
     1
  9
$FINGERPRINTGUID
  2
{EB8B11CA-E7B7-4F95-7069-2DF52CFBD3C0}
  9
$VERSIONGUID
  2
{FAEB1C32-E019-11D5-929B-00C0DF256EC4}
  9
$EXTNAMES
290
     1
  9
$PSVPSCALE
 40
0.0
  9
$OLESTARTUP
290
     0
  9
$SORTENTS
280
   127
  9
$INDEXCTL
280
     0
  9
$HIDETEXT
280
     1
  9
$XCLIPFRAME
280
     2
  9
$HALOGAP
280
     0
  9
$OBSCOLOR
 70
   257
  9
$OBSLTYPE
280
     0
  9
$INTERSECTIONDISPLAY
280
     0
  9
$INTERSECTIONCOLOR
 70
   257
  9
$DIMASSOC
280
     2
  9
$PROJECTNAME
  1

  9
$CAMERADISPLAY
290
     0
  9
$LENSLENGTH
 40
50.0
  9
$CAMERAHEIGHT
 40
0.0
  9
$STEPSPERSEC
 40
2.0
  9
$STEPSIZE
 40
6.0
  9
$3DDWFPREC
 40
2.0
  9
$PSOLWIDTH
 40
0.25
  9
$PSOLHEIGHT
 40
4.0
  9
$LOFTANG1
 40
1.570796326794897
  9
$LOFTANG2
 40
1.570796326794897
  9
$LOFTMAG1
 40
0.0
  9
$LOFTMAG2
 40
0.0
  9
$LOFTPARAM
 70
     7
  9
$LOFTNORMALS
280
     1
  9
$LATITUDE
 40
37.795
  9
$LONGITUDE
 40
-122.394
  9
$NORTHDIRECTION
 40
0.0
  9
$TIMEZONE
 70
 -8000
  9
$LIGHTGLYPHDISPLAY
280
     1
  9
$TILEMODELIGHTSYNCH
280
     1
  9
$CMATERIAL
347
3C
  9
$SOLIDHIST
280
     1
  9
$SHOWHIST
280
     1
  9
$DWFFRAME
280
     2
  9
$DGNFRAME
280
     2
  9
$REALWORLDSCALE
290
     1
  9
$INTERFERECOLOR
 62
   256
  9
$CSHADOW
280
     0
  9
$SHADOWPLANELOCATION
 40
0.0
  0
ENDSEC
  0
SECTION
  2
CLASSES
  0
CLASS
  1
ACDBDICTIONARYWDFLT
  2
AcDbDictionaryWithDefault
  3
ObjectDBX Classes
 90
        0
 91
        4
280
     0
281
     0
  0
CLASS
  1
VISUALSTYLE
  2
AcDbVisualStyle
  3
ObjectDBX Classes
 90
     4095
 91
        4
280
     0
281
     0
  0
CLASS
  1
MATERIAL
  2
AcDbMaterial
  3
ObjectDBX Classes
 90
     1153
 91
        4
280
     0
281
     0
  0
CLASS
  1
SUN
  2
AcDbSun
  3
SCENEOE
 90
     1024
 91
        4
280
     0
281
     0
  0
ENDSEC
  0
SECTION
  2
TABLES
  0
TABLE
  2
VPORT
  5
8
330
0
100
AcDbSymbolTable
 70
     1
  0
VPORT
  5
29
330
8
100
AcDbSymbolTableRecord
100
AcDbViewportTableRecord
  2
*Active
 70
     0
 10
0.0
 20
0.0
 11
1.0
 21
1.0
 12
0.0
 22
0.0
 13
0.0
 23
0.0
 14
0.5
 24
0.5
 15
0.5
 25
0.5
 16
0.0
 26
0.0
 36
1.0
 17
149.770631470678
 27
-150.0305621419067
 37
0.0
 40
111.4998846904498
 41
1.697084377634807
 42
50.0
 43
0.0
 44
0.0
 50
0.0
 51
0.0
 71
     0
 72
   100
 73
     1
 74
     3
 75
     0
 76
     0
 77
     0
 78
     0
281
     0
 65
     1
110
0.0
120
0.0
130
0.0
111
1.0
121
0.0
131
0.0
112
0.0
122
1.0
132
0.0
 79
     0
146
0.0
 60
     3
 61
     5
292
     1
282
     1
141
0.0
142
0.0
 63
   250
361
3F
  0
ENDTAB
  0
TABLE
  2
LTYPE
  5
5
330
0
100
AcDbSymbolTable
 70
     1
  0
LTYPE
  5
14
330
5
100
AcDbSymbolTableRecord
100
AcDbLinetypeTableRecord
  2
ByBlock
 70
     0
  3

 72
    65
 73
     0
 40
0.0
  0
LTYPE
  5
15
330
5
100
AcDbSymbolTableRecord
100
AcDbLinetypeTableRecord
  2
ByLayer
 70
     0
  3

 72
    65
 73
     0
 40
0.0
  0
LTYPE
  5
16
330
5
100
AcDbSymbolTableRecord
100
AcDbLinetypeTableRecord
  2
Continuous
 70
     0
  3
Solid line
 72
    65
 73
     0
 40
0.0
  0
ENDTAB
  0
TABLE
  2
LAYER
  5
2
330
0
100
AcDbSymbolTable
 70
     2
  0
LAYER
  5
10
330
2
100
AcDbSymbolTableRecord
100
AcDbLayerTableRecord
  2
0
 70
     0
 62
     7
  6
Continuous
370
    -3
390
F
347
3E
  0
LAYER
  5
40
330
2
100
AcDbSymbolTableRecord
100
AcDbLayerTableRecord
  2
Layer 1
 70
     0
 62
     7
  6
Continuous
370
    -3
390
F
347
3E
  0
ENDTAB
  0
TABLE
  2
STYLE
  5
3
330
0
100
AcDbSymbolTable
 70
     1
  0
STYLE
  5
11
330
3
100
AcDbSymbolTableRecord
100
AcDbTextStyleTableRecord
  2
Standard
 70
     0
 40
0.0
 41
1.0
 50
0.0
 71
     0
 42
0.2
  3
txt
  4

  0
ENDTAB
  0
TABLE
  2
VIEW
  5
6
330
0
100
AcDbSymbolTable
 70
     0
  0
ENDTAB
  0
TABLE
  2
UCS
  5
7
330
0
100
AcDbSymbolTable
 70
     0
  0
ENDTAB
  0
TABLE
  2
APPID
  5
9
330
0
100
AcDbSymbolTable
 70
     1
  0
APPID
  5
12
330
9
100
AcDbSymbolTableRecord
100
AcDbRegAppTableRecord
  2
ACAD
 70
     0
  0
ENDTAB
  0
TABLE
  2
DIMSTYLE
  5
A
330
0
100
AcDbSymbolTable
 70
     1
100
AcDbDimStyleTable
  0
DIMSTYLE
105
27
330
A
100
AcDbSymbolTableRecord
100
AcDbDimStyleTableRecord
  2
Standard
 70
     0
178
     0
340
11
  0
ENDTAB
  0
TABLE
  2
BLOCK_RECORD
  5
1
330
0
100
AcDbSymbolTable
 70
     1
  0
BLOCK_RECORD
  5
1F
330
1
100
AcDbSymbolTableRecord
100
AcDbBlockTableRecord
  2
*Model_Space
340
22
 70
     0
280
     1
281
     0
  0
BLOCK_RECORD
  5
1B
330
1
100
AcDbSymbolTableRecord
100
AcDbBlockTableRecord
  2
*Paper_Space
340
1E
 70
     0
280
     1
281
     0
  0
BLOCK_RECORD
  5
23
330
1
100
AcDbSymbolTableRecord
100
AcDbBlockTableRecord
  2
*Paper_Space0
340
26
 70
     0
280
     1
281
     0
  0
ENDTAB
  0
ENDSEC
  0
SECTION
  2
BLOCKS
  0
BLOCK
  5
20
330
1F
100
AcDbEntity
  8
0
100
AcDbBlockBegin
  2
*Model_Space
 70
     0
 10
0.0
 20
0.0
 30
0.0
  3
*Model_Space
  1

  0
ENDBLK
  5
21
330
1F
100
AcDbEntity
  8
0
100
AcDbBlockEnd
  0
BLOCK
  5
1C
330
1B
100
AcDbEntity
 67
     1
  8
0
100
AcDbBlockBegin
  2
*Paper_Space
 70
     0
 10
0.0
 20
0.0
 30
0.0
  3
*Paper_Space
  1

  0
ENDBLK
  5
1D
330
1B
100
AcDbEntity
 67
     1
  8
0
100
AcDbBlockEnd
  0
BLOCK
  5
24
330
23
100
AcDbEntity
  8
0
100
AcDbBlockBegin
  2
*Paper_Space0
 70
     0
 10
0.0
 20
0.0
 30
0.0
  3
*Paper_Space0
  1

  0
ENDBLK
  5
25
330
23
100
AcDbEntity
  8
0
100
AcDbBlockEnd
  0
ENDSEC
  0
SECTION
  2
ENTITIES
  0
SPLINE
  5
41
330
1F
100
AcDbEntity
  8
Layer 1
 62
   195
420
  7949726
370
    25
100
AcDbSpline
210
0.0
220
0.0
230
1.0
 70
    11
 71
     3
 72
    65
 73
    61
 74
     0
 42
0.0000000001
 43
0.0000000001
 12
1.0
 22
0.0
 32
0.0
 13
1.0
 23
0.0
 33
0.0
 40
0.0
 40
0.0
 40
0.0
 40
0.0
 40
1.0
 40
1.0
 40
1.0
 40
2.0
 40
2.0
 40
2.0
 40
3.0
 40
3.0
 40
3.0
 40
4.0
 40
4.0
 40
4.0
 40
5.0
 40
5.0
 40
5.0
 40
6.0
 40
6.0
 40
6.0
 40
7.0
 40
7.0
 40
7.0
 40
8.0
 40
8.0
 40
8.0
 40
9.0
 40
9.0
 40
9.0
 40
10.0
 40
10.0
 40
10.0
 40
11.0
 40
11.0
 40
11.0
 40
12.0
 40
12.0
 40
12.0
 40
13.0
 40
13.0
 40
13.0
 40
14.0
 40
14.0
 40
14.0
 40
15.0
 40
15.0
 40
15.0
 40
16.0
 40
16.0
 40
16.0
 40
17.0
 40
17.0
 40
17.0
 40
18.0
 40
18.0
 40
18.0
 40
19.0
 40
19.0
 40
19.0
 40
20.0
 40
20.0
 40
20.0
 40
20.0
 10
66.80827526311954
 20
-94.40561980012745
 30
0.0
 10
66.80827526311954
 20
-94.40561980012745
 30
0.0
 10
240.257987676355
 20
-94.40561980012745
 30
0.0
 10
240.257987676355
 20
-94.40561980012745
 30
0.0
 10
242.4671266751256
 20
-94.40561980012745
 30
0.0
 10
244.2579876753547
 20
-96.19648080035651
 30
0.0
 10
244.2579876753547
 20
-98.4056197991275
 30
0.0
 10
244.2579876753547
 20
-98.4056197991275
 30
0.0
 10
244.2579876753547
 20
-201.6555044846868
 30
0.0
 10
244.2579876753547
 20
-201.6555044846868
 30
0.0
 10
244.2579876753547
 20
-203.8646434834575
 30
0.0
 10
242.4671266751256
 20
-205.6555044836859
 30
0.0
 10
240.257987676355
 20
-205.6555044836859
 30
0.0
 10
240.257987676355
 20
-205.6555044836859
 30
0.0
 10
71.57077526192955
 20
-205.6555044836859
 30
0.0
 10
71.57077526192955
 20
-205.6555044836859
 30
0.0
 10
70.46620576254422
 20
-205.6555044836859
 30
0.0
 10
69.57077526242936
 20
-204.760073983571
 30
0.0
 10
69.57077526242936
 20
-203.6555044841863
 30
0.0
 10
69.57077526242936
 20
-203.6555044841863
 30
0.0
 10
69.57077526242936
 20
-161.5555044947122
 30
0.0
 10
69.57077526242936
 20
-161.5555044947122
 30
0.0
 10
69.57077526242936
 20
-160.4509349953263
 30
0.0
 10
68.67534476231451
 20
-159.5555044952114
 30
0.0
 10
67.57077526292917
 20
-159.5555044952114
 30
0.0
 10
67.57077526292917
 20
-159.5555044952114
 30
0.0
 10
62.0457752643108
 20
-159.5555044952114
 30
0.0
 10
62.0457752643108
 20
-159.5555044952114
 30
0.0
 10
60.94120576492546
 20
-159.5555044952114
 30
0.0
 10
60.04577526481062
 20
-158.6600739950966
 30
0.0
 10
60.04577526481062
 20
-157.5555044957119
 30
0.0
 10
60.04577526481062
 20
-157.5555044957119
 30
0.0
 10
60.04577526481062
 20
-142.5055044994744
 30
0.0
 10
60.04577526481062
 20
-142.5055044994744
 30
0.0
 10
60.04577526481062
 20
-141.4009350000891
 30
0.0
 10
59.15034476469577
 20
-140.5055044999742
 30
0.0
 10
58.04577526531043
 20
-140.5055044999742
 30
0.0
 10
58.04577526531043
 20
-140.5055044999742
 30
0.0
 10
57.28327526550142
 20
-140.5055044999742
 30
0.0
 10
57.28327526550142
 20
-140.5055044999742
 30
0.0
 10
56.17870576611609
 20
-140.5055044999742
 30
0.0
 10
55.28327526600124
 20
-139.6100739998594
 30
0.0
 10
55.28327526600124
 20
-138.505504500474
 30
0.0
 10
55.28327526600124
 20
-138.505504500474
 30
0.0
 10
55.28327526600124
 20
-123.4556197928649
 30
0.0
 10
55.28327526600124
 20
-123.4556197928649
 30
0.0
 10
55.28327526600124
 20
-122.3510502934796
 30
0.0
 10
56.17870576611545
 20
-121.4556197933651
 30
0.0
 10
57.28327526550078
 20
-121.4556197933651
 30
0.0
 10
57.28327526550078
 20
-121.4556197933651
 30
0.0
 10
62.80827526412045
 20
-121.4556197933651
 30
0.0
 10
62.80827526412045
 20
-121.4556197933651
 30
0.0
 10
63.91284476350578
 20
-121.4556197933651
 30
0.0
 10
64.80827526361999
 20
-120.5601892932502
 30
0.0
 10
64.80827526361999
 20
-119.4556197938652
 30
0.0
 10
64.80827526361999
 20
-119.4556197938652
 30
0.0
 10
64.80827526361999
 20
-96.40561979962732
 30
0.0
 10
64.80827526361999
 20
-96.40561979962732
 30
0.0
 10
64.80827526361999
 20
-95.30105030024198
 30
0.0
 10
65.70370576373419
 20
-94.40561980012745
 30
0.0
 10
66.80827526311954
 20
-94.40561980012745
 30
0.0
  0
SPLINE
  5
42
330
1F
100
AcDbEntity
  8
Layer 1
 62
   195
420
  7949726
370
    25
100
AcDbSpline
210
0.0
220
0.0
230
1.0
 70
    11
 71
     3
 72
    17
 73
    13
 74
     0
 42
0.0000000001
 43
0.0000000001
 12
1.0
 22
0.0
 32
0.0
 13
1.0
 23
0.0
 33
0.0
 40
0.0
 40
0.0
 40
0.0
 40
0.0
 40
1.0
 40
1.0
 40
1.0
 40
2.0
 40
2.0
 40
2.0
 40
3.0
 40
3.0
 40
3.0
 40
4.0
 40
4.0
 40
4.0
 40
4.0
 10
69.90827526234479
 20
-98.40558744863341
 30
0.0
 10
69.90827526234479
 20
-99.01310067326105
 30
0.0
 10
69.415788487248
 20
-99.50558744835848
 30
0.0
 10
68.80827526261972
 20
-99.50558744835848
 30
0.0
 10
68.20076203799144
 20
-99.50558744835848
 30
0.0
 10
67.70827526289465
 20
-99.01310067326105
 30
0.0
 10
67.70827526289465
 20
-98.40558744863341
 30
0.0
 10
67.70827526289465
 20
-97.79807422400513
 30
0.0
 10
68.20076203799144
 20
-97.30558744890834
 30
0.0
 10
68.80827526261972
 20
-97.30558744890834
 30
0.0
 10
69.415788487248
 20
-97.30558744890834
 30
0.0
 10
69.90827526234479
 20
-97.79807422400513
 30
0.0
 10
69.90827526234479
 20
-98.40558744863341
 30
0.0
  0
SPLINE
  5
43
330
1F
100
AcDbEntity
  8
Layer 1
 62
   195
420
  7949726
370
    25
100
AcDbSpline
210
0.0
220
0.0
230
1.0
 70
    11
 71
     3
 72
    17
 73
    13
 74
     0
 42
0.0000000001
 43
0.0000000001
 12
1.0
 22
0.0
 32
0.0
 13
1.0
 23
0.0
 33
0.0
 40
0.0
 40
0.0
 40
0.0
 40
0.0
 40
1.0
 40
1.0
 40
1.0
 40
2.0
 40
2.0
 40
2.0
 40
3.0
 40
3.0
 40
3.0
 40
4.0
 40
4.0
 40
4.0
 40
4.0
 10
93.93390009835255
 20
-98.40558744863341
 30
0.0
 10
93.93390009835255
 20
-99.01310067326105
 30
0.0
 10
93.44141332325576
 20
-99.50558744835848
 30
0.0
 10
92.83390009862748
 20
-99.50558744835848
 30
0.0
 10
92.2263868739992
 20
-99.50558744835848
 30
0.0
 10
91.73390009890241
 20
-99.01310067326105
 30
0.0
 10
91.73390009890241
 20
-98.40558744863341
 30
0.0
 10
91.73390009890241
 20
-97.79807422400513
 30
0.0
 10
92.2263868739992
 20
-97.30558744890834
 30
0.0
 10
92.83390009862748
 20
-97.30558744890834
 30
0.0
 10
93.44141332325576
 20
-97.30558744890834
 30
0.0
 10
93.93390009835255
 20
-97.79807422400513
 30
0.0
 10
93.93390009835255
 20
-98.40558744863341
 30
0.0
  0
SPLINE
  5
44
330
1F
100
AcDbEntity
  8
Layer 1
 62
   195
420
  7949726
370
    25
100
AcDbSpline
210
0.0
220
0.0
230
1.0
 70
    11
 71
     3
 72
    17
 73
    13
 74
     0
 42
0.0000000001
 43
0.0000000001
 12
1.0
 22
0.0
 32
0.0
 13
1.0
 23
0.0
 33
0.0
 40
0.0
 40
0.0
 40
0.0
 40
0.0
 40
1.0
 40
1.0
 40
1.0
 40
2.0
 40
2.0
 40
2.0
 40
3.0
 40
3.0
 40
3.0
 40
4.0
 40
4.0
 40
4.0
 40
4.0
 10
169.1485705902768
 20
-98.40558744863341
 30
0.0
 10
169.1485705902768
 20
-99.01310067326138
 30
0.0
 10
168.65608381518
 20
-99.50558744835881
 30
0.0
 10
168.0485705905517
 20
-99.50558744835881
 30
0.0
 10
167.4410573659235
 20
-99.50558744835881
 30
0.0
 10
166.9485705908267
 20
-99.01310067326138
 30
0.0
 10
166.9485705908267
 20
-98.40558744863341
 30
0.0
 10
166.9485705908267
 20
-97.79807422400546
 30
0.0
 10
167.4410573659235
 20
-97.30558744890867
 30
0.0
 10
168.0485705905517
 20
-97.30558744890867
 30
0.0
 10
168.65608381518
 20
-97.30558744890867
 30
0.0
 10
169.1485705902768
 20
-97.79807422400546
 30
0.0
 10
169.1485705902768
 20
-98.40558744863341
 30
0.0
  0
SPLINE
  5
45
330
1F
100
AcDbEntity
  8
Layer 1
 62
   195
420
  7949726
370
    25
100
AcDbSpline
210
0.0
220
0.0
230
1.0
 70
    11
 71
     3
 72
    17
 73
    13
 74
     0
 42
0.0000000001
 43
0.0000000001
 12
1.0
 22
0.0
 32
0.0
 13
1.0
 23
0.0
 33
0.0
 40
0.0
 40
0.0
 40
0.0
 40
0.0
 40
1.0
 40
1.0
 40
1.0
 40
2.0
 40
2.0
 40
2.0
 40
3.0
 40
3.0
 40
3.0
 40
4.0
 40
4.0
 40
4.0
 40
4.0
 10
191.2679944574373
 20
-98.40558744863341
 30
0.0
 10
191.2679944574373
 20
-99.01310067326138
 30
0.0
 10
190.7755076823405
 20
-99.50558744835881
 30
0.0
 10
190.1679944577122
 20
-99.50558744835881
 30
0.0
 10
189.5604812330839
 20
-99.50558744835881
 30
0.0
 10
189.0679944579871
 20
-99.01310067326138
 30
0.0
 10
189.0679944579871
 20
-98.40558744863341
 30
0.0
 10
189.0679944579871
 20
-97.79807422400546
 30
0.0
 10
189.5604812330839
 20
-97.30558744890867
 30
0.0
 10
190.1679944577122
 20
-97.30558744890867
 30
0.0
 10
190.7755076823405
 20
-97.30558744890867
 30
0.0
 10
191.2679944574373
 20
-97.79807422400546
 30
0.0
 10
191.2679944574373
 20
-98.40558744863341
 30
0.0
  0
SPLINE
  5
46
330
1F
100
AcDbEntity
  8
Layer 1
 62
   195
420
  7949726
370
    25
100
AcDbSpline
210
0.0
220
0.0
230
1.0
 70
    11
 71
     3
 72
    17
 73
    13
 74
     0
 42
0.0000000001
 43
0.0000000001
 12
1.0
 22
0.0
 32
0.0
 13
1.0
 23
0.0
 33
0.0
 40
0.0
 40
0.0
 40
0.0
 40
0.0
 40
1.0
 40
1.0
 40
1.0
 40
2.0
 40
2.0
 40
2.0
 40
3.0
 40
3.0
 40
3.0
 40
4.0
 40
4.0
 40
4.0
 40
4.0
 10
74.6708076116489
 20
-201.6556521238102
 30
0.0
 10
74.6708076116489
 20
-202.2631653484372
 30
0.0
 10
74.1783208365521
 20
-202.7556521235352
 30
0.0
 10
73.57080761192383
 20
-202.7556521235352
 30
0.0
 10
72.96329438729555
 20
-202.7556521235352
 30
0.0
 10
72.47080761219875
 20
-202.2631653484372
 30
0.0
 10
72.47080761219875
 20
-201.6556521238102
 30
0.0
 10
72.47080761219875
 20
-201.0481388991819
 30
0.0
 10
72.96329438729555
 20
-200.5556521240851
 30
0.0
 10
73.57080761192383
 20
-200.5556521240851
 30
0.0
 10
74.1783208365521
 20
-200.5556521240851
 30
0.0
 10
74.6708076116489
 20
-201.0481388991819
 30
0.0
 10
74.6708076116489
 20
-201.6556521238102
 30
0.0
  0
SPLINE
  5
47
330
1F
100
AcDbEntity
  8
Layer 1
 62
   195
420
  7949726
370
    25
100
AcDbSpline
210
0.0
220
0.0
230
1.0
 70
    11
 71
     3
 72
    17
 73
    13
 74
     0
 42
0.0000000001
 43
0.0000000001
 12
1.0
 22
0.0
 32
0.0
 13
1.0
 23
0.0
 33
0.0
 40
0.0
 40
0.0
 40
0.0
 40
0.0
 40
1.0
 40
1.0
 40
1.0
 40
2.0
 40
2.0
 40
2.0
 40
3.0
 40
3.0
 40
3.0
 40
4.0
 40
4.0
 40
4.0
 40
4.0
 10
157.6708075908986
 20
-201.6556521238102
 30
0.0
 10
157.6708075908986
 20
-202.2631653484372
 30
0.0
 10
157.1783208158018
 20
-202.7556521235352
 30
0.0
 10
156.5708075911736
 20
-202.7556521235352
 30
0.0
 10
155.9632943665453
 20
-202.7556521235352
 30
0.0
 10
155.4708075914485
 20
-202.2631653484372
 30
0.0
 10
155.4708075914485
 20
-201.6556521238102
 30
0.0
 10
155.4708075914485
 20
-201.0481388991819
 30
0.0
 10
155.9632943665453
 20
-200.5556521240851
 30
0.0
 10
156.5708075911736
 20
-200.5556521240851
 30
0.0
 10
157.1783208158018
 20
-200.5556521240851
 30
0.0
 10
157.6708075908986
 20
-201.0481388991819
 30
0.0
 10
157.6708075908986
 20
-201.6556521238102
 30
0.0
  0
SPLINE
  5
48
330
1F
100
AcDbEntity
  8
Layer 1
 62
   195
420
  7949726
370
    25
100
AcDbSpline
210
0.0
220
0.0
230
1.0
 70
    11
 71
     3
 72
    17
 73
    13
 74
     0
 42
0.0000000001
 43
0.0000000001
 12
1.0
 22
0.0
 32
0.0
 13
1.0
 23
0.0
 33
0.0
 40
0.0
 40
0.0
 40
0.0
 40
0.0
 40
1.0
 40
1.0
 40
1.0
 40
2.0
 40
2.0
 40
2.0
 40
3.0
 40
3.0
 40
3.0
 40
4.0
 40
4.0
 40
4.0
 40
4.0
 10
240.6582752196578
 20
-99.10561979895267
 30
0.0
 10
240.6582752196578
 20
-99.71313302358031
 30
0.0
 10
240.165788444561
 20
-100.2056197986777
 30
0.0
 10
239.5582752199327
 20
-100.2056197986777
 30
0.0
 10
238.9507619953044
 20
-100.2056197986777
 30
0.0
 10
238.4582752202076
 20
-99.71313302358031
 30
0.0
 10
238.4582752202076
 20
-99.10561979895267
 30
0.0
 10
238.4582752202076
 20
-98.4981065743244
 30
0.0
 10
238.9507619953044
 20
-98.0056197992276
 30
0.0
 10
239.5582752199327
 20
-98.0056197992276
 30
0.0
 10
240.165788444561
 20
-98.0056197992276
 30
0.0
 10
240.6582752196578
 20
-98.4981065743244
 30
0.0
 10
240.6582752196578
 20
-99.10561979895267
 30
0.0
  0
SPLINE
  5
49
330
1F
100
AcDbEntity
  8
Layer 1
 62
   195
420
  7949726
370
    25
100
AcDbSpline
210
0.0
220
0.0
230
1.0
 70
    11
 71
     3
 72
    17
 73
    13
 74
     0
 42
0.0000000001
 43
0.0000000001
 12
1.0
 22
0.0
 32
0.0
 13
1.0
 23
0.0
 33
0.0
 40
0.0
 40
0.0
 40
0.0
 40
0.0
 40
1.0
 40
1.0
 40
1.0
 40
2.0
 40
2.0
 40
2.0
 40
3.0
 40
3.0
 40
3.0
 40
4.0
 40
4.0
 40
4.0
 40
4.0
 10
240.6582752196578
 20
-200.9556197734903
 30
0.0
 10
240.6582752196578
 20
-201.5631329981173
 30
0.0
 10
240.165788444561
 20
-202.0556197732153
 30
0.0
 10
239.5582752199327
 20
-202.0556197732153
 30
0.0
 10
238.9507619953044
 20
-202.0556197732153
 30
0.0
 10
238.4582752202076
 20
-201.5631329981173
 30
0.0
 10
238.4582752202076
 20
-200.9556197734903
 30
0.0
 10
238.4582752202076
 20
-200.348106548862
 30
0.0
 10
238.9507619953044
 20
-199.8556197737652
 30
0.0
 10
239.5582752199327
 20
-199.8556197737652
 30
0.0
 10
240.165788444561
 20
-199.8556197737652
 30
0.0
 10
240.6582752196578
 20
-200.348106548862
 30
0.0
 10
240.6582752196578
 20
-200.9556197734903
 30
0.0
  0
SPLINE
  5
4A
330
1F
100
AcDbEntity
  8
Layer 1
 62
   178
420
    65793
370
    25
100
AcDbSpline
210
0.0
220
0.0
230
1.0
 70
    11
 71
     3
 72
    17
 73
    13
 74
     0
 42
0.0000000001
 43
0.0000000001
 12
1.0
 22
0.0
 32
0.0
 13
1.0
 23
0.0
 33
0.0
 40
0.0
 40
0.0
 40
0.0
 40
0.0
 40
1.0
 40
1.0
 40
1.0
 40
2.0
 40
2.0
 40
2.0
 40
3.0
 40
3.0
 40
3.0
 40
4.0
 40
4.0
 40
4.0
 40
4.0
 10
117.3395287827853
 20
-195.1306253035227
 30
0.0
 10
143.4374502378647
 20
-195.1306253035227
 30
0.0
 10
169.535371692944
 20
-195.1306253035227
 30
0.0
 10
195.6332931480233
 20
-195.1306253035227
 30
0.0
 10
195.6332931480233
 20
-195.1306253035227
 30
0.0
 10
195.6332931480233
 20
-181.1306249176057
 30
0.0
 10
195.6332931480233
 20
-181.1306249176057
 30
0.0
 10
169.535371692944
 20
-181.1306249176057
 30
0.0
 10
143.4374502378647
 20
-181.1306249176057
 30
0.0
 10
117.3395287827853
 20
-181.1306249176057
 30
0.0
 10
117.3395287827853
 20
-181.1306249176057
 30
0.0
 10
117.3395287827853
 20
-195.1306253035227
 30
0.0
 10
117.3395287827853
 20
-195.1306253035227
 30
0.0
  0
SPLINE
  5
4B
330
1F
100
AcDbEntity
  8
Layer 1
 62
   178
420
    65793
370
    25
100
AcDbSpline
210
0.0
220
0.0
230
1.0
 70
    11
 71
     3
 72
    83
 73
    79
 74
     0
 42
0.0000000001
 43
0.0000000001
 12
1.0
 22
0.0
 32
0.0
 13
1.0
 23
0.0
 33
0.0
 40
0.0
 40
0.0
 40
0.0
 40
0.0
 40
1.0
 40
1.0
 40
1.0
 40
2.0
 40
2.0
 40
2.0
 40
3.0
 40
3.0
 40
3.0
 40
4.0
 40
4.0
 40
4.0
 40
5.0
 40
5.0
 40
5.0
 40
6.0
 40
6.0
 40
6.0
 40
7.0
 40
7.0
 40
7.0
 40
8.0
 40
8.0
 40
8.0
 40
9.0
 40
9.0
 40
9.0
 40
10.0
 40
10.0
 40
10.0
 40
11.0
 40
11.0
 40
11.0
 40
12.0
 40
12.0
 40
12.0
 40
13.0
 40
13.0
 40
13.0
 40
14.0
 40
14.0
 40
14.0
 40
15.0
 40
15.0
 40
15.0
 40
16.0
 40
16.0
 40
16.0
 40
17.0
 40
17.0
 40
17.0
 40
18.0
 40
18.0
 40
18.0
 40
19.0
 40
19.0
 40
19.0
 40
20.0
 40
20.0
 40
20.0
 40
21.0
 40
21.0
 40
21.0
 40
22.0
 40
22.0
 40
22.0
 40
23.0
 40
23.0
 40
23.0
 40
24.0
 40
24.0
 40
24.0
 40
25.0
 40
25.0
 40
25.0
 40
26.0
 40
26.0
 40
26.0
 40
26.0
 10
209.9207691278023
 20
-123.9806199090093
 30
0.0
 10
209.9207691278023
 20
-123.9806199090093
 30
0.0
 10
195.9207687418852
 20
-123.9806199090093
 30
0.0
 10
195.9207687418852
 20
-123.9806199090093
 30
0.0
 10
195.9207687418852
 20
-123.9806199090093
 30
0.0
 10
195.9207687418852
 20
-125.0676198321618
 30
0.0
 10
195.9207687418852
 20
-125.0676198321618
 30
0.0
 10
195.9207687418852
 20
-125.0676198321618
 30
0.0
 10
194.9020309208345
 20
-125.0676198321618
 30
0.0
 10
194.9020309208345
 20
-125.0676198321618
 30
0.0
 10
194.9020309208345
 20
-131.0552870809545
 30
0.0
 10
194.9020309208345
 20
-137.0429543297484
 30
0.0
 10
194.9020309208345
 20
-143.0306215785413
 30
0.0
 10
192.3810347575919
 20
-143.0306215785413
 30
0.0
 10
189.8600385943494
 20
-143.0306215785413
 30
0.0
 10
187.3390424311069
 20
-143.0306215785413
 30
0.0
 10
187.3390424311069
 20
-143.0306215785413
 30
0.0
 10
187.3390424311069
 20
-141.4306192456188
 30
0.0
 10
187.3390424311069
 20
-141.4306192456188
 30
0.0
 10
187.3390424311069
 20
-141.4306192456188
 30
0.0
 10
180.3390422381484
 20
-141.4306192456188
 30
0.0
 10
180.3390422381484
 20
-141.4306192456188
 30
0.0
 10
180.3390422381484
 20
-141.4306192456188
 30
0.0
 10
180.3390422381484
 20
-143.0306215785413
 30
0.0
 10
180.3390422381484
 20
-143.0306215785413
 30
0.0
 10
180.3390422381484
 20
-143.0306215785413
 30
0.0
 10
176.870780423794
 20
-143.0306215785413
 30
0.0
 10
176.870780423794
 20
-143.0306215785413
 30
0.0
 10
176.870780423794
 20
-143.0306215785413
 30
0.0
 10
176.870780423794
 20
-157.030621964458
 30
0.0
 10
176.870780423794
 20
-157.030621964458
 30
0.0
 10
176.870780423794
 20
-157.030621964458
 30
0.0
 10
180.3390422381484
 20
-157.030621964458
 30
0.0
 10
180.3390422381484
 20
-157.030621964458
 30
0.0
 10
180.3390422381484
 20
-157.030621964458
 30
0.0
 10
180.3390422381484
 20
-160.430619769363
 30
0.0
 10
180.3390422381484
 20
-160.430619769363
 30
0.0
 10
190.6310347093523
 20
-160.430619769363
 30
0.0
 10
200.9230271805562
 20
-160.430619769363
 30
0.0
 10
211.2150196517602
 20
-160.430619769363
 30
0.0
 10
211.2150196517602
 20
-160.430619769363
 30
0.0
 10
211.2150196517602
 20
-155.9436201339578
 30
0.0
 10
211.2150196517602
 20
-155.9436201339578
 30
0.0
 10
211.2150196517602
 20
-155.9436201339578
 30
0.0
 10
213.902031444579
 20
-155.9436201339578
 30
0.0
 10
213.902031444579
 20
-155.9436201339578
 30
0.0
 10
213.902031444579
 20
-155.9436201339578
 30
0.0
 10
213.902031444579
 20
-148.9436199409996
 30
0.0
 10
213.902031444579
 20
-148.9436199409996
 30
0.0
 10
213.902031444579
 20
-148.9436199409996
 30
0.0
 10
211.2150196517602
 20
-148.9436199409996
 30
0.0
 10
211.2150196517602
 20
-148.9436199409996
 30
0.0
 10
211.2150196517602
 20
-148.9436199409996
 30
0.0
 10
211.2150196517602
 20
-147.505620176018
 30
0.0
 10
211.2150196517602
 20
-147.505620176018
 30
0.0
 10
211.2150196517602
 20
-147.505620176018
 30
0.0
 10
212.3020252969584
 20
-147.505620176018
 30
0.0
 10
212.3020252969584
 20
-147.505620176018
 30
0.0
 10
212.3020252969584
 20
-147.505620176018
 30
0.0
 10
212.3020252969584
 20
-133.5056197901007
 30
0.0
 10
212.3020252969584
 20
-133.5056197901007
 30
0.0
 10
212.3020252969584
 20
-133.5056197901007
 30
0.0
 10
209.9207691278023
 20
-133.5056197901007
 30
0.0
 10
209.9207691278023
 20
-133.5056197901007
 30
0.0
 10
209.9207691278023
 20
-133.5056197901007
 30
0.0
 10
209.9207691278023
 20
-132.0676200251203
 30
0.0
 10
209.9207691278023
 20
-132.0676200251203
 30
0.0
 10
209.9207691278023
 20
-132.0676200251203
 30
0.0
 10
213.902031444579
 20
-132.0676200251203
 30
0.0
 10
213.902031444579
 20
-132.0676200251203
 30
0.0
 10
213.902031444579
 20
-132.0676200251203
 30
0.0
 10
213.902031444579
 20
-125.0676198321618
 30
0.0
 10
213.902031444579
 20
-125.0676198321618
 30
0.0
 10
213.902031444579
 20
-125.0676198321618
 30
0.0
 10
209.9207691278023
 20
-125.0676198321618
 30
0.0
 10
209.9207691278023
 20
-125.0676198321618
 30
0.0
 10
209.9207691278023
 20
-125.0676198321618
 30
0.0
 10
209.9207691278023
 20
-123.9806199090093
 30
0.0
 10
209.9207691278023
 20
-123.9806199090093
 30
0.0
  0
SPLINE
  5
4C
330
1F
100
AcDbEntity
  8
Layer 1
 62
   178
420
    65793
370
    25
100
AcDbSpline
210
0.0
220
0.0
230
1.0
 70
    11
 71
     3
 72
    59
 73
    55
 74
     0
 42
0.0000000001
 43
0.0000000001
 12
1.0
 22
0.0
 32
0.0
 13
1.0
 23
0.0
 33
0.0
 40
0.0
 40
0.0
 40
0.0
 40
0.0
 40
1.0
 40
1.0
 40
1.0
 40
2.0
 40
2.0
 40
2.0
 40
3.0
 40
3.0
 40
3.0
 40
4.0
 40
4.0
 40
4.0
 40
5.0
 40
5.0
 40
5.0
 40
6.0
 40
6.0
 40
6.0
 40
7.0
 40
7.0
 40
7.0
 40
8.0
 40
8.0
 40
8.0
 40
9.0
 40
9.0
 40
9.0
 40
10.0
 40
10.0
 40
10.0
 40
11.0
 40
11.0
 40
11.0
 40
12.0
 40
12.0
 40
12.0
 40
13.0
 40
13.0
 40
13.0
 40
14.0
 40
14.0
 40
14.0
 40
15.0
 40
15.0
 40
15.0
 40
16.0
 40
16.0
 40
16.0
 40
17.0
 40
17.0
 40
17.0
 40
18.0
 40
18.0
 40
18.0
 40
18.0
 10
198.0145187996005
 20
-162.080621340725
 30
0.0
 10
192.8685225639985
 20
-162.080621340725
 30
0.0
 10
187.7225263283966
 20
-162.080621340725
 30
0.0
 10
182.5765300927946
 20
-162.080621340725
 30
0.0
 10
182.5765300927946
 20
-162.080621340725
 30
0.0
 10
182.5765300927946
 20
-160.4806228224991
 30
0.0
 10
182.5765300927946
 20
-160.4806228224991
 30
0.0
 10
182.5765300927946
 20
-160.4806228224991
 30
0.0
 10
175.5765298998361
 20
-160.4806228224991
 30
0.0
 10
175.5765298998361
 20
-160.4806228224991
 30
0.0
 10
175.5765298998361
 20
-160.4806228224991
 30
0.0
 10
175.5765298998361
 20
-162.080621340725
 30
0.0
 10
175.5765298998361
 20
-162.080621340725
 30
0.0
 10
175.5765298998361
 20
-162.080621340725
 30
0.0
 10
174.4895242546379
 20
-162.080621340725
 30
0.0
 10
174.4895242546379
 20
-162.080621340725
 30
0.0
 10
174.4895242546379
 20
-162.080621340725
 30
0.0
 10
174.4895242546379
 20
-176.080621726642
 30
0.0
 10
174.4895242546379
 20
-176.080621726642
 30
0.0
 10
174.4895242546379
 20
-176.080621726642
 30
0.0
 10
175.5765298998361
 20
-176.080621726642
 30
0.0
 10
175.5765298998361
 20
-176.080621726642
 30
0.0
 10
175.5765298998361
 20
-176.080621726642
 30
0.0
 10
175.5765298998361
 20
-179.4806233462436
 30
0.0
 10
175.5765298998361
 20
-179.4806233462436
 30
0.0
 10
185.8685325435664
 20
-179.4806233462436
 30
0.0
 10
196.1605351872966
 20
-179.4806233462436
 30
0.0
 10
206.4525378310268
 20
-179.4806233462436
 30
0.0
 10
206.4525378310268
 20
-179.4806233462436
 30
0.0
 10
206.4525378310268
 20
-176.080621726642
 30
0.0
 10
206.4525378310268
 20
-176.080621726642
 30
0.0
 10
206.4525378310268
 20
-176.080621726642
 30
0.0
 10
214.6832814661145
 20
-176.080621726642
 30
0.0
 10
214.6832814661145
 20
-176.080621726642
 30
0.0
 10
214.6832814661145
 20
-176.080621726642
 30
0.0
 10
214.6832814661145
 20
-162.080621340725
 30
0.0
 10
214.6832814661145
 20
-162.080621340725
 30
0.0
 10
214.6832814661145
 20
-162.080621340725
 30
0.0
 10
206.4525378310268
 20
-162.080621340725
 30
0.0
 10
206.4525378310268
 20
-162.080621340725
 30
0.0
 10
206.4525378310268
 20
-162.080621340725
 30
0.0
 10
206.4525378310268
 20
-160.4806228224991
 30
0.0
 10
206.4525378310268
 20
-160.4806228224991
 30
0.0
 10
206.4525378310268
 20
-160.4806228224991
 30
0.0
 10
199.4525376380683
 20
-160.4806228224991
 30
0.0
 10
199.4525376380683
 20
-160.4806228224991
 30
0.0
 10
199.4525376380683
 20
-160.4806228224991
 30
0.0
 10
199.4525376380683
 20
-175.8806247728868
 30
0.0
 10
199.4525376380683
 20
-175.8806247728868
 30
0.0
 10
199.4525376380683
 20
-175.8806247728868
 30
0.0
 10
198.0145187996005
 20
-175.8806247728868
 30
0.0
 10
198.0145187996005
 20
-175.8806247728868
 30
0.0
 10
198.0145187996005
 20
-175.8806247728868
 30
0.0
 10
198.0145187996005
 20
-162.080621340725
 30
0.0
 10
198.0145187996005
 20
-162.080621340725
 30
0.0
  0
SPLINE
  5
4D
330
1F
100
AcDbEntity
  8
Layer 1
 62
   178
420
    65793
370
    25
100
AcDbSpline
210
0.0
220
0.0
230
1.0
 70
    11
 71
     3
 72
    56
 73
    52
 74
     0
 42
0.0000000001
 43
0.0000000001
 12
1.0
 22
0.0
 32
0.0
 13
1.0
 23
0.0
 33
0.0
 40
0.0
 40
0.0
 40
0.0
 40
0.0
 40
1.0
 40
1.0
 40
1.0
 40
2.0
 40
2.0
 40
2.0
 40
3.0
 40
3.0
 40
3.0
 40
4.0
 40
4.0
 40
4.0
 40
5.0
 40
5.0
 40
5.0
 40
6.0
 40
6.0
 40
6.0
 40
7.0
 40
7.0
 40
7.0
 40
8.0
 40
8.0
 40
8.0
 40
9.0
 40
9.0
 40
9.0
 40
10.0
 40
10.0
 40
10.0
 40
11.0
 40
11.0
 40
11.0
 40
12.0
 40
12.0
 40
12.0
 40
13.0
 40
13.0
 40
13.0
 40
14.0
 40
14.0
 40
14.0
 40
15.0
 40
15.0
 40
15.0
 40
16.0
 40
16.0
 40
16.0
 40
17.0
 40
17.0
 40
17.0
 40
17.0
 10
88.764531046859
 20
-195.1306253035227
 30
0.0
 10
92.32302825595337
 20
-195.1306253035227
 30
0.0
 10
95.88152546504773
 20
-195.1306253035227
 30
0.0
 10
99.44002267414209
 20
-195.1306253035227
 30
0.0
 10
99.44002267414209
 20
-195.1306253035227
 30
0.0
 10
99.44002267414209
 20
-196.7306238217485
 30
0.0
 10
99.44002267414209
 20
-196.7306238217485
 30
0.0
 10
103.3608601845657
 20
-196.7306238217485
 30
0.0
 10
107.2816976949893
 20
-196.7306238217485
 30
0.0
 10
111.2025352054129
 20
-196.7306238217485
 30
0.0
 10
111.2025352054129
 20
-196.7306238217485
 30
0.0
 10
111.2025352054129
 20
-195.1306253035227
 30
0.0
 10
111.2025352054129
 20
-195.1306253035227
 30
0.0
 10
111.2025352054129
 20
-195.1306253035227
 30
0.0
 10
114.6707817609778
 20
-195.1306253035227
 30
0.0
 10
114.6707817609778
 20
-195.1306253035227
 30
0.0
 10
114.6707817609778
 20
-195.1306253035227
 30
0.0
 10
114.6707817609778
 20
-181.1306249176057
 30
0.0
 10
114.6707817609778
 20
-181.1306249176057
 30
0.0
 10
114.6707817609778
 20
-181.1306249176057
 30
0.0
 10
111.2025352054129
 20
-181.1306249176057
 30
0.0
 10
111.2025352054129
 20
-181.1306249176057
 30
0.0
 10
111.2025352054129
 20
-181.1306249176057
 30
0.0
 10
111.2025352054129
 20
-177.730623298004
 30
0.0
 10
111.2025352054129
 20
-177.730623298004
 30
0.0
 10
99.32303353517504
 20
-177.730623298004
 30
0.0
 10
87.4435318649372
 20
-177.730623298004
 30
0.0
 10
75.56403019469936
 20
-177.730623298004
 30
0.0
 10
75.56403019469936
 20
-177.730623298004
 30
0.0
 10
75.56403019469936
 20
-181.1306249176057
 30
0.0
 10
75.56403019469936
 20
-181.1306249176057
 30
0.0
 10
75.56403019469936
 20
-181.1306249176057
 30
0.0
 10
74.47702454950112
 20
-181.1306249176057
 30
0.0
 10
74.47702454950112
 20
-181.1306249176057
 30
0.0
 10
74.47702454950112
 20
-181.1306249176057
 30
0.0
 10
74.47702454950112
 20
-195.1306253035227
 30
0.0
 10
74.47702454950112
 20
-195.1306253035227
 30
0.0
 10
74.47702454950112
 20
-195.1306253035227
 30
0.0
 10
75.56403019469936
 20
-195.1306253035227
 30
0.0
 10
75.56403019469936
 20
-195.1306253035227
 30
0.0
 10
75.56403019469936
 20
-195.1306253035227
 30
0.0
 10
75.56403019469936
 20
-196.7306238217485
 30
0.0
 10
75.56403019469936
 20
-196.7306238217485
 30
0.0
 10
79.4848626188598
 20
-196.7306238217485
 30
0.0
 10
83.40569504302023
 20
-196.7306238217485
 30
0.0
 10
87.32652746718065
 20
-196.7306238217485
 30
0.0
 10
87.32652746718065
 20
-196.7306238217485
 30
0.0
 10
87.32652746718065
 20
-195.1306253035227
 30
0.0
 10
87.32652746718065
 20
-195.1306253035227
 30
0.0
 10
87.80586199374011
 20
-195.1306253035227
 30
0.0
 10
88.28519652029956
 20
-195.1306253035227
 30
0.0
 10
88.764531046859
 20
-195.1306253035227
 30
0.0
  0
SPLINE
  5
4E
330
1F
100
AcDbEntity
  8
Layer 1
 62
   178
420
    65793
370
    25
100
AcDbSpline
210
0.0
220
0.0
230
1.0
 70
    11
 71
     3
 72
    53
 73
    49
 74
     0
 42
0.0000000001
 43
0.0000000001
 12
1.0
 22
0.0
 32
0.0
 13
1.0
 23
0.0
 33
0.0
 40
0.0
 40
0.0
 40
0.0
 40
0.0
 40
1.0
 40
1.0
 40
1.0
 40
2.0
 40
2.0
 40
2.0
 40
3.0
 40
3.0
 40
3.0
 40
4.0
 40
4.0
 40
4.0
 40
5.0
 40
5.0
 40
5.0
 40
6.0
 40
6.0
 40
6.0
 40
7.0
 40
7.0
 40
7.0
 40
8.0
 40
8.0
 40
8.0
 40
9.0
 40
9.0
 40
9.0
 40
10.0
 40
10.0
 40
10.0
 40
11.0
 40
11.0
 40
11.0
 40
12.0
 40
12.0
 40
12.0
 40
13.0
 40
13.0
 40
13.0
 40
14.0
 40
14.0
 40
14.0
 40
15.0
 40
15.0
 40
15.0
 40
16.0
 40
16.0
 40
16.0
 40
16.0
 10
181.6332927621063
 20
-118.930620532743
 30
0.0
 10
181.6332927621063
 20
-118.930620532743
 30
0.0
 10
182.7202678897256
 20
-118.930620532743
 30
0.0
 10
182.7202678897256
 20
-118.930620532743
 30
0.0
 10
182.7202678897256
 20
-118.930620532743
 30
0.0
 10
182.7202678897256
 20
-122.3306202449963
 30
0.0
 10
182.7202678897256
 20
-122.3306202449963
 30
0.0
 10
193.0122705334558
 20
-122.3306202449963
 30
0.0
 10
203.3042731771861
 20
-122.3306202449963
 30
0.0
 10
213.5962758209163
 20
-122.3306202449963
 30
0.0
 10
213.5962758209163
 20
-122.3306202449963
 30
0.0
 10
213.5962758209163
 20
-118.930620532743
 30
0.0
 10
213.5962758209163
 20
-118.930620532743
 30
0.0
 10
213.5962758209163
 20
-118.930620532743
 30
0.0
 10
214.6832814661145
 20
-118.930620532743
 30
0.0
 10
214.6832814661145
 20
-118.930620532743
 30
0.0
 10
214.6832814661145
 20
-118.930620532743
 30
0.0
 10
214.6832814661145
 20
-104.9306197891982
 30
0.0
 10
214.6832814661145
 20
-104.9306197891982
 30
0.0
 10
214.6832814661145
 20
-104.9306197891982
 30
0.0
 10
213.5962758209163
 20
-104.9306197891982
 30
0.0
 10
213.5962758209163
 20
-104.9306197891982
 30
0.0
 10
213.5962758209163
 20
-104.9306197891982
 30
0.0
 10
213.5962758209163
 20
-103.3306197212518
 30
0.0
 10
213.5962758209163
 20
-103.3306197212518
 30
0.0
 10
213.5962758209163
 20
-103.3306197212518
 30
0.0
 10
206.5962756279578
 20
-103.3306197212518
 30
0.0
 10
206.5962756279578
 20
-103.3306197212518
 30
0.0
 10
206.5962756279578
 20
-103.3306197212518
 30
0.0
 10
206.5962756279578
 20
-104.9306197891982
 30
0.0
 10
206.5962756279578
 20
-104.9306197891982
 30
0.0
 10
200.9709397795332
 20
-104.9306197891982
 30
0.0
 10
195.3456039311087
 20
-104.9306197891982
 30
0.0
 10
189.7202680826841
 20
-104.9306197891982
 30
0.0
 10
189.7202680826841
 20
-104.9306197891982
 30
0.0
 10
189.7202680826841
 20
-103.3306197212518
 30
0.0
 10
189.7202680826841
 20
-103.3306197212518
 30
0.0
 10
189.7202680826841
 20
-103.3306197212518
 30
0.0
 10
182.7202678897256
 20
-103.3306197212518
 30
0.0
 10
182.7202678897256
 20
-103.3306197212518
 30
0.0
 10
182.7202678897256
 20
-103.3306197212518
 30
0.0
 10
182.7202678897256
 20
-104.9306197891982
 30
0.0
 10
182.7202678897256
 20
-104.9306197891982
 30
0.0
 10
182.7202678897256
 20
-104.9306197891982
 30
0.0
 10
181.6332927621063
 20
-104.9306197891982
 30
0.0
 10
181.6332927621063
 20
-104.9306197891982
 30
0.0
 10
181.6332927621063
 20
-104.9306197891982
 30
0.0
 10
181.6332927621063
 20
-118.930620532743
 30
0.0
 10
181.6332927621063
 20
-118.930620532743
 30
0.0
  0
SPLINE
  5
4F
330
1F
100
AcDbEntity
  8
Layer 1
 62
   178
420
    65793
370
    25
100
AcDbSpline
210
0.0
220
0.0
230
1.0
 70
    11
 71
     3
 72
    20
 73
    16
 74
     0
 42
0.0000000001
 43
0.0000000001
 12
1.0
 22
0.0
 32
0.0
 13
1.0
 23
0.0
 33
0.0
 40
0.0
 40
0.0
 40
0.0
 40
0.0
 40
1.0
 40
1.0
 40
1.0
 40
2.0
 40
2.0
 40
2.0
 40
3.0
 40
3.0
 40
3.0
 40
4.0
 40
4.0
 40
4.0
 40
5.0
 40
5.0
 40
5.0
 40
5.0
 10
155.4395359365467
 20
-176.080621726642
 30
0.0
 10
160.1062027318524
 20
-176.080621726642
 30
0.0
 10
164.772869527158
 20
-176.080621726642
 30
0.0
 10
169.4395363224637
 20
-176.080621726642
 30
0.0
 10
169.4395363224637
 20
-176.080621726642
 30
0.0
 10
169.4395363224637
 20
-162.080621340725
 30
0.0
 10
169.4395363224637
 20
-162.080621340725
 30
0.0
 10
162.3916133580019
 20
-162.080621340725
 30
0.0
 10
155.3436903935401
 20
-162.080621340725
 30
0.0
 10
148.2957674290783
 20
-162.080621340725
 30
0.0
 10
148.2957674290783
 20
-162.080621340725
 30
0.0
 10
148.2957674290783
 20
-176.080621726642
 30
0.0
 10
148.2957674290783
 20
-176.080621726642
 30
0.0
 10
148.2957674290783
 20
-176.080621726642
 30
0.0
 10
155.4395359365467
 20
-176.080621726642
 30
0.0
 10
155.4395359365467
 20
-176.080621726642
 30
0.0
  0
POLYLINE
  5
50
330
1F
100
AcDbEntity
  8
Layer 1
 62
   178
420
    65793
370
    25
100
AcDb2dPolyline
 66
     1
 10
0.0
 20
0.0
 30
0.0
  0
VERTEX
  5
51
330
50
100
AcDbEntity
  8
Layer 1
 62
   178
420
    65793
370
    25
100
AcDbVertex
100
AcDb2dVertex
 10
219.7332693982887
 20
-120.4306205740913
 30
0.0
  0
VERTEX
  5
52
330
50
100
AcDbEntity
  8
Layer 1
 62
   178
420
    65793
370
    25
100
AcDbVertex
100
AcDb2dVertex
 10
233.7332697842057
 20
-120.4306205740913
 30
0.0
  0
VERTEX
  5
53
330
50
100
AcDbEntity
  8
Layer 1
 62
   178
420
    65793
370
    25
100
AcDbVertex
100
AcDb2dVertex
 10
233.7332697842057
 20
-103.9306197616327
 30
0.0
  0
VERTEX
  5
54
330
50
100
AcDbEntity
  8
Layer 1
 62
   178
420
    65793
370
    25
100
AcDbVertex
100
AcDb2dVertex
 10
219.7332693982887
 20
-103.9306197616327
 30
0.0
  0
VERTEX
  5
55
330
50
100
AcDbEntity
  8
Layer 1
 62
   178
420
    65793
370
    25
100
AcDbVertex
100
AcDb2dVertex
 10
219.7332693982887
 20
-120.4306205740913
 30
0.0
  0
SEQEND
  5
56
330
50
100
AcDbEntity
  8
Layer 1
 62
   178
420
    65793
370
    25
  0
SPLINE
  5
57
330
1F
100
AcDbEntity
  8
Layer 1
 62
   178
420
    65793
370
    25
100
AcDbSpline
210
0.0
220
0.0
230
1.0
 70
    11
 71
     3
 72
    17
 73
    13
 74
     0
 42
0.0000000001
 43
0.0000000001
 12
1.0
 22
0.0
 32
0.0
 13
1.0
 23
0.0
 33
0.0
 40
0.0
 40
0.0
 40
0.0
 40
0.0
 40
1.0
 40
1.0
 40
1.0
 40
2.0
 40
2.0
 40
2.0
 40
3.0
 40
3.0
 40
3.0
 40
4.0
 40
4.0
 40
4.0
 40
4.0
 10
198.3020249110414
 20
-195.1306253035227
 30
0.0
 10
203.7624437627324
 20
-195.1306253035227
 30
0.0
 10
209.2228626144235
 20
-195.1306253035227
 30
0.0
 10
214.6832814661145
 20
-195.1306253035227
 30
0.0
 10
214.6832814661145
 20
-195.1306253035227
 30
0.0
 10
214.6832814661145
 20
-181.1306249176057
 30
0.0
 10
214.6832814661145
 20
-181.1306249176057
 30
0.0
 10
209.2228626144235
 20
-181.1306249176057
 30
0.0
 10
203.7624437627324
 20
-181.1306249176057
 30
0.0
 10
198.3020249110414
 20
-181.1306249176057
 30
0.0
 10
198.3020249110414
 20
-181.1306249176057
 30
0.0
 10
198.3020249110414
 20
-195.1306253035227
 30
0.0
 10
198.3020249110414
 20
-195.1306253035227
 30
0.0
  0
POLYLINE
  5
58
330
1F
100
AcDbEntity
  8
Layer 1
 62
   178
420
    65793
370
    25
100
AcDb2dPolyline
 66
     1
 10
0.0
 20
0.0
 30
0.0
  0
VERTEX
  5
59
330
58
100
AcDbEntity
  8
Layer 1
 62
   178
420
    65793
370
    25
100
AcDbVertex
100
AcDb2dVertex
 10
67.33327130082218
 20
-118.930620532743
 30
0.0
  0
VERTEX
  5
5A
330
58
100
AcDbEntity
  8
Layer 1
 62
   178
420
    65793
370
    25
100
AcDbVertex
100
AcDb2dVertex
 10
81.3332716867392
 20
-118.930620532743
 30
0.0
  0
VERTEX
  5
5B
330
58
100
AcDbEntity
  8
Layer 1
 62
   178
420
    65793
370
    25
100
AcDbVertex
100
AcDb2dVertex
 10
81.3332716867392
 20
-104.9306197891982
 30
0.0
  0
VERTEX
  5
5C
330
58
100
AcDbEntity
  8
Layer 1
 62
   178
420
    65793
370
    25
100
AcDbVertex
100
AcDb2dVertex
 10
67.33327130082218
 20
-104.9306197891982
 30
0.0
  0
VERTEX
  5
5D
330
58
100
AcDbEntity
  8
Layer 1
 62
   178
420
    65793
370
    25
100
AcDbVertex
100
AcDb2dVertex
 10
67.33327130082218
 20
-118.930620532743
 30
0.0
  0
SEQEND
  5
5E
330
58
100
AcDbEntity
  8
Layer 1
 62
   178
420
    65793
370
    25
  0
POLYLINE
  5
5F
330
1F
100
AcDbEntity
  8
Layer 1
 62
   178
420
    65793
370
    25
100
AcDb2dPolyline
 66
     1
 10
0.0
 20
0.0
 30
0.0
  0
VERTEX
  5
60
330
5F
100
AcDbEntity
  8
Layer 1
 62
   178
420
    65793
370
    25
100
AcDbVertex
100
AcDb2dVertex
 10
86.38327487770287
 20
-118.930620532743
 30
0.0
  0
VERTEX
  5
61
330
5F
100
AcDbEntity
  8
Layer 1
 62
   178
420
    65793
370
    25
100
AcDbVertex
100
AcDb2dVertex
 10
100.3832752636199
 20
-118.930620532743
 30
0.0
  0
VERTEX
  5
62
330
5F
100
AcDbEntity
  8
Layer 1
 62
   178
420
    65793
370
    25
100
AcDbVertex
100
AcDb2dVertex
 10
100.3832752636199
 20
-104.9306197891982
 30
0.0
  0
VERTEX
  5
63
330
5F
100
AcDbEntity
  8
Layer 1
 62
   178
420
    65793
370
    25
100
AcDbVertex
100
AcDb2dVertex
 10
86.38327487770287
 20
-104.9306197891982
 30
0.0
  0
VERTEX
  5
64
330
5F
100
AcDbEntity
  8
Layer 1
 62
   178
420
    65793
370
    25
100
AcDbVertex
100
AcDb2dVertex
 10
86.38327487770287
 20
-118.930620532743
 30
0.0
  0
SEQEND
  5
65
330
5F
100
AcDbEntity
  8
Layer 1
 62
   178
420
    65793
370
    25
  0
POLYLINE
  5
66
330
1F
100
AcDbEntity
  8
Layer 1
 62
   178
420
    65793
370
    25
100
AcDb2dPolyline
 66
     1
 10
0.0
 20
0.0
 30
0.0
  0
VERTEX
  5
67
330
66
100
AcDbEntity
  8
Layer 1
 62
   178
420
    65793
370
    25
100
AcDbVertex
100
AcDb2dVertex
 10
105.4332784545836
 20
-118.930620532743
 30
0.0
  0
VERTEX
  5
68
330
66
100
AcDbEntity
  8
Layer 1
 62
   178
420
    65793
370
    25
100
AcDbVertex
100
AcDb2dVertex
 10
119.4332788405006
 20
-118.930620532743
 30
0.0
  0
VERTEX
  5
69
330
66
100
AcDbEntity
  8
Layer 1
 62
   178
420
    65793
370
    25
100
AcDbVertex
100
AcDb2dVertex
 10
119.4332788405006
 20
-104.9306197891982
 30
0.0
  0
VERTEX
  5
6A
330
66
100
AcDbEntity
  8
Layer 1
 62
   178
420
    65793
370
    25
100
AcDbVertex
100
AcDb2dVertex
 10
105.4332784545836
 20
-104.9306197891982
 30
0.0
  0
VERTEX
  5
6B
330
66
100
AcDbEntity
  8
Layer 1
 62
   178
420
    65793
370
    25
100
AcDbVertex
100
AcDb2dVertex
 10
105.4332784545836
 20
-118.930620532743
 30
0.0
  0
SEQEND
  5
6C
330
66
100
AcDbEntity
  8
Layer 1
 62
   178
420
    65793
370
    25
  0
POLYLINE
  5
6D
330
1F
100
AcDbEntity
  8
Layer 1
 62
   178
420
    65793
370
    25
100
AcDb2dPolyline
 66
     1
 10
0.0
 20
0.0
 30
0.0
  0
VERTEX
  5
6E
330
6D
100
AcDbEntity
  8
Layer 1
 62
   178
420
    65793
370
    25
100
AcDbVertex
100
AcDb2dVertex
 10
124.4832667726748
 20
-118.930620532743
 30
0.0
  0
VERTEX
  5
6F
330
6D
100
AcDbEntity
  8
Layer 1
 62
   178
420
    65793
370
    25
100
AcDbVertex
100
AcDb2dVertex
 10
138.4832671585918
 20
-118.930620532743
 30
0.0
  0
VERTEX
  5
70
330
6D
100
AcDbEntity
  8
Layer 1
 62
   178
420
    65793
370
    25
100
AcDbVertex
100
AcDb2dVertex
 10
138.4832671585918
 20
-104.9306197891982
 30
0.0
  0
VERTEX
  5
71
330
6D
100
AcDbEntity
  8
Layer 1
 62
   178
420
    65793
370
    25
100
AcDbVertex
100
AcDb2dVertex
 10
124.4832667726748
 20
-104.9306197891982
 30
0.0
  0
VERTEX
  5
72
330
6D
100
AcDbEntity
  8
Layer 1
 62
   178
420
    65793
370
    25
100
AcDbVertex
100
AcDb2dVertex
 10
124.4832667726748
 20
-118.930620532743
 30
0.0
  0
SEQEND
  5
73
330
6D
100
AcDbEntity
  8
Layer 1
 62
   178
420
    65793
370
    25
  0
POLYLINE
  5
74
330
1F
100
AcDbEntity
  8
Layer 1
 62
   178
420
    65793
370
    25
100
AcDb2dPolyline
 66
     1
 10
0.0
 20
0.0
 30
0.0
  0
VERTEX
  5
75
330
74
100
AcDbEntity
  8
Layer 1
 62
   178
420
    65793
370
    25
100
AcDbVertex
100
AcDb2dVertex
 10
143.5332856083449
 20
-118.930620532743
 30
0.0
  0
VERTEX
  5
76
330
74
100
AcDbEntity
  8
Layer 1
 62
   178
420
    65793
370
    25
100
AcDbVertex
100
AcDb2dVertex
 10
157.5332859942619
 20
-118.930620532743
 30
0.0
  0
VERTEX
  5
77
330
74
100
AcDbEntity
  8
Layer 1
 62
   178
420
    65793
370
    25
100
AcDbVertex
100
AcDb2dVertex
 10
157.5332859942619
 20
-104.9306197891982
 30
0.0
  0
VERTEX
  5
78
330
74
100
AcDbEntity
  8
Layer 1
 62
   178
420
    65793
370
    25
100
AcDbVertex
100
AcDb2dVertex
 10
143.5332856083449
 20
-104.9306197891982
 30
0.0
  0
VERTEX
  5
79
330
74
100
AcDbEntity
  8
Layer 1
 62
   178
420
    65793
370
    25
100
AcDbVertex
100
AcDb2dVertex
 10
143.5332856083449
 20
-118.930620532743
 30
0.0
  0
SEQEND
  5
7A
330
74
100
AcDbEntity
  8
Layer 1
 62
   178
420
    65793
370
    25
  0
POLYLINE
  5
7B
330
1F
100
AcDbEntity
  8
Layer 1
 62
   178
420
    65793
370
    25
100
AcDb2dPolyline
 66
     1
 10
0.0
 20
0.0
 30
0.0
  0
VERTEX
  5
7C
330
7B
100
AcDbEntity
  8
Layer 1
 62
   178
420
    65793
370
    25
100
AcDbVertex
100
AcDb2dVertex
 10
162.5832739264361
 20
-118.930620532743
 30
0.0
  0
VERTEX
  5
7D
330
7B
100
AcDbEntity
  8
Layer 1
 62
   178
420
    65793
370
    25
100
AcDbVertex
100
AcDb2dVertex
 10
176.5832743123532
 20
-118.930620532743
 30
0.0
  0
VERTEX
  5
7E
330
7B
100
AcDbEntity
  8
Layer 1
 62
   178
420
    65793
370
    25
100
AcDbVertex
100
AcDb2dVertex
 10
176.5832743123532
 20
-104.9306197891982
 30
0.0
  0
VERTEX
  5
7F
330
7B
100
AcDbEntity
  8
Layer 1
 62
   178
420
    65793
370
    25
100
AcDbVertex
100
AcDb2dVertex
 10
162.5832739264361
 20
-104.9306197891982
 30
0.0
  0
VERTEX
  5
80
330
7B
100
AcDbEntity
  8
Layer 1
 62
   178
420
    65793
370
    25
100
AcDbVertex
100
AcDb2dVertex
 10
162.5832739264361
 20
-118.930620532743
 30
0.0
  0
SEQEND
  5
81
330
7B
100
AcDbEntity
  8
Layer 1
 62
   178
420
    65793
370
    25
  0
POLYLINE
  5
82
330
1F
100
AcDbEntity
  8
Layer 1
 62
   178
420
    65793
370
    25
100
AcDb2dPolyline
 66
     1
 10
0.0
 20
0.0
 30
0.0
  0
VERTEX
  5
83
330
82
100
AcDbEntity
  8
Layer 1
 62
   178
420
    65793
370
    25
100
AcDbVertex
100
AcDb2dVertex
 10
57.80827714177658
 20
-137.9806222022754
 30
0.0
  0
VERTEX
  5
84
330
82
100
AcDbEntity
  8
Layer 1
 62
   178
420
    65793
370
    25
100
AcDbVertex
100
AcDb2dVertex
 10
71.80827752769359
 20
-137.9806222022754
 30
0.0
  0
VERTEX
  5
85
330
82
100
AcDbEntity
  8
Layer 1
 62
   178
420
    65793
370
    25
100
AcDbVertex
100
AcDb2dVertex
 10
71.80827752769359
 20
-123.9806199090093
 30
0.0
  0
VERTEX
  5
86
330
82
100
AcDbEntity
  8
Layer 1
 62
   178
420
    65793
370
    25
100
AcDbVertex
100
AcDb2dVertex
 10
57.80827714177658
 20
-123.9806199090093
 30
0.0
  0
VERTEX
  5
87
330
82
100
AcDbEntity
  8
Layer 1
 62
   178
420
    65793
370
    25
100
AcDbVertex
100
AcDb2dVertex
 10
57.80827714177658
 20
-137.9806222022754
 30
0.0
  0
SEQEND
  5
88
330
82
100
AcDbEntity
  8
Layer 1
 62
   178
420
    65793
370
    25
  0
POLYLINE
  5
89
330
1F
100
AcDbEntity
  8
Layer 1
 62
   178
420
    65793
370
    25
100
AcDb2dPolyline
 66
     1
 10
0.0
 20
0.0
 30
0.0
  0
VERTEX
  5
8A
330
89
100
AcDbEntity
  8
Layer 1
 62
   178
420
    65793
370
    25
100
AcDbVertex
100
AcDb2dVertex
 10
76.85828071865727
 20
-137.9806222022754
 30
0.0
  0
VERTEX
  5
8B
330
89
100
AcDbEntity
  8
Layer 1
 62
   178
420
    65793
370
    25
100
AcDbVertex
100
AcDb2dVertex
 10
90.85828110457427
 20
-137.9806222022754
 30
0.0
  0
VERTEX
  5
8C
330
89
100
AcDbEntity
  8
Layer 1
 62
   178
420
    65793
370
    25
100
AcDbVertex
100
AcDb2dVertex
 10
90.85828110457427
 20
-123.9806199090093
 30
0.0
  0
VERTEX
  5
8D
330
89
100
AcDbEntity
  8
Layer 1
 62
   178
420
    65793
370
    25
100
AcDbVertex
100
AcDb2dVertex
 10
76.85828071865727
 20
-123.9806199090093
 30
0.0
  0
VERTEX
  5
8E
330
89
100
AcDbEntity
  8
Layer 1
 62
   178
420
    65793
370
    25
100
AcDbVertex
100
AcDb2dVertex
 10
76.85828071865727
 20
-137.9806222022754
 30
0.0
  0
SEQEND
  5
8F
330
89
100
AcDbEntity
  8
Layer 1
 62
   178
420
    65793
370
    25
  0
POLYLINE
  5
90
330
1F
100
AcDbEntity
  8
Layer 1
 62
   178
420
    65793
370
    25
100
AcDb2dPolyline
 66
     1
 10
0.0
 20
0.0
 30
0.0
  0
VERTEX
  5
91
330
90
100
AcDbEntity
  8
Layer 1
 62
   178
420
    65793
370
    25
100
AcDbVertex
100
AcDb2dVertex
 10
95.90828429553795
 20
-137.9806222022754
 30
0.0
  0
VERTEX
  5
92
330
90
100
AcDbEntity
  8
Layer 1
 62
   178
420
    65793
370
    25
100
AcDbVertex
100
AcDb2dVertex
 10
109.908284681455
 20
-137.9806222022754
 30
0.0
  0
VERTEX
  5
93
330
90
100
AcDbEntity
  8
Layer 1
 62
   178
420
    65793
370
    25
100
AcDbVertex
100
AcDb2dVertex
 10
109.908284681455
 20
-123.9806199090093
 30
0.0
  0
VERTEX
  5
94
330
90
100
AcDbEntity
  8
Layer 1
 62
   178
420
    65793
370
    25
100
AcDbVertex
100
AcDb2dVertex
 10
95.90828429553795
 20
-123.9806199090093
 30
0.0
  0
VERTEX
  5
95
330
90
100
AcDbEntity
  8
Layer 1
 62
   178
420
    65793
370
    25
100
AcDbVertex
100
AcDb2dVertex
 10
95.90828429553795
 20
-137.9806222022754
 30
0.0
  0
SEQEND
  5
96
330
90
100
AcDbEntity
  8
Layer 1
 62
   178
420
    65793
370
    25
  0
POLYLINE
  5
97
330
1F
100
AcDbEntity
  8
Layer 1
 62
   178
420
    65793
370
    25
100
AcDb2dPolyline
 66
     1
 10
0.0
 20
0.0
 30
0.0
  0
VERTEX
  5
98
330
97
100
AcDbEntity
  8
Layer 1
 62
   178
420
    65793
370
    25
100
AcDbVertex
100
AcDb2dVertex
 10
114.9582726136292
 20
-137.9806222022754
 30
0.0
  0
VERTEX
  5
99
330
97
100
AcDbEntity
  8
Layer 1
 62
   178
420
    65793
370
    25
100
AcDbVertex
100
AcDb2dVertex
 10
128.9582729995462
 20
-137.9806222022754
 30
0.0
  0
VERTEX
  5
9A
330
97
100
AcDbEntity
  8
Layer 1
 62
   178
420
    65793
370
    25
100
AcDbVertex
100
AcDb2dVertex
 10
128.9582729995462
 20
-123.9806199090093
 30
0.0
  0
VERTEX
  5
9B
330
97
100
AcDbEntity
  8
Layer 1
 62
   178
420
    65793
370
    25
100
AcDbVertex
100
AcDb2dVertex
 10
114.9582726136292
 20
-123.9806199090093
 30
0.0
  0
VERTEX
  5
9C
330
97
100
AcDbEntity
  8
Layer 1
 62
   178
420
    65793
370
    25
100
AcDbVertex
100
AcDb2dVertex
 10
114.9582726136292
 20
-137.9806222022754
 30
0.0
  0
SEQEND
  5
9D
330
97
100
AcDbEntity
  8
Layer 1
 62
   178
420
    65793
370
    25
  0
POLYLINE
  5
9E
330
1F
100
AcDbEntity
  8
Layer 1
 62
   178
420
    65793
370
    25
100
AcDb2dPolyline
 66
     1
 10
0.0
 20
0.0
 30
0.0
  0
VERTEX
  5
9F
330
9E
100
AcDbEntity
  8
Layer 1
 62
   178
420
    65793
370
    25
100
AcDbVertex
100
AcDb2dVertex
 10
134.0082914492993
 20
-137.9806222022754
 30
0.0
  0
VERTEX
  5
A0
330
9E
100
AcDbEntity
  8
Layer 1
 62
   178
420
    65793
370
    25
100
AcDbVertex
100
AcDb2dVertex
 10
148.0082918352163
 20
-137.9806222022754
 30
0.0
  0
VERTEX
  5
A1
330
9E
100
AcDbEntity
  8
Layer 1
 62
   178
420
    65793
370
    25
100
AcDbVertex
100
AcDb2dVertex
 10
148.0082918352163
 20
-123.9806199090093
 30
0.0
  0
VERTEX
  5
A2
330
9E
100
AcDbEntity
  8
Layer 1
 62
   178
420
    65793
370
    25
100
AcDbVertex
100
AcDb2dVertex
 10
134.0082914492993
 20
-123.9806199090093
 30
0.0
  0
VERTEX
  5
A3
330
9E
100
AcDbEntity
  8
Layer 1
 62
   178
420
    65793
370
    25
100
AcDbVertex
100
AcDb2dVertex
 10
134.0082914492993
 20
-137.9806222022754
 30
0.0
  0
SEQEND
  5
A4
330
9E
100
AcDbEntity
  8
Layer 1
 62
   178
420
    65793
370
    25
  0
POLYLINE
  5
A5
330
1F
100
AcDbEntity
  8
Layer 1
 62
   178
420
    65793
370
    25
100
AcDb2dPolyline
 66
     1
 10
0.0
 20
0.0
 30
0.0
  0
VERTEX
  5
A6
330
A5
100
AcDbEntity
  8
Layer 1
 62
   178
420
    65793
370
    25
100
AcDbVertex
100
AcDb2dVertex
 10
153.0582797673905
 20
-137.9806222022754
 30
0.0
  0
VERTEX
  5
A7
330
A5
100
AcDbEntity
  8
Layer 1
 62
   178
420
    65793
370
    25
100
AcDbVertex
100
AcDb2dVertex
 10
167.0582801533075
 20
-137.9806222022754
 30
0.0
  0
VERTEX
  5
A8
330
A5
100
AcDbEntity
  8
Layer 1
 62
   178
420
    65793
370
    25
100
AcDbVertex
100
AcDb2dVertex
 10
167.0582801533075
 20
-123.9806199090093
 30
0.0
  0
VERTEX
  5
A9
330
A5
100
AcDbEntity
  8
Layer 1
 62
   178
420
    65793
370
    25
100
AcDbVertex
100
AcDb2dVertex
 10
153.0582797673905
 20
-123.9806199090093
 30
0.0
  0
VERTEX
  5
AA
330
A5
100
AcDbEntity
  8
Layer 1
 62
   178
420
    65793
370
    25
100
AcDbVertex
100
AcDb2dVertex
 10
153.0582797673905
 20
-137.9806222022754
 30
0.0
  0
SEQEND
  5
AB
330
A5
100
AcDbEntity
  8
Layer 1
 62
   178
420
    65793
370
    25
  0
POLYLINE
  5
AC
330
1F
100
AcDbEntity
  8
Layer 1
 62
   178
420
    65793
370
    25
100
AcDb2dPolyline
 66
     1
 10
0.0
 20
0.0
 30
0.0
  0
VERTEX
  5
AD
330
AC
100
AcDbEntity
  8
Layer 1
 62
   178
420
    65793
370
    25
100
AcDbVertex
100
AcDb2dVertex
 10
172.1082680854817
 20
-137.9806222022754
 30
0.0
  0
VERTEX
  5
AE
330
AC
100
AcDbEntity
  8
Layer 1
 62
   178
420
    65793
370
    25
100
AcDbVertex
100
AcDb2dVertex
 10
186.1082684713988
 20
-137.9806222022754
 30
0.0
  0
VERTEX
  5
AF
330
AC
100
AcDbEntity
  8
Layer 1
 62
   178
420
    65793
370
    25
100
AcDbVertex
100
AcDb2dVertex
 10
186.1082684713988
 20
-123.9806199090093
 30
0.0
  0
VERTEX
  5
B0
330
AC
100
AcDbEntity
  8
Layer 1
 62
   178
420
    65793
370
    25
100
AcDbVertex
100
AcDb2dVertex
 10
172.1082680854817
 20
-123.9806199090093
 30
0.0
  0
VERTEX
  5
B1
330
AC
100
AcDbEntity
  8
Layer 1
 62
   178
420
    65793
370
    25
100
AcDbVertex
100
AcDb2dVertex
 10
172.1082680854817
 20
-137.9806222022754
 30
0.0
  0
SEQEND
  5
B2
330
AC
100
AcDbEntity
  8
Layer 1
 62
   178
420
    65793
370
    25
  0
POLYLINE
  5
B3
330
1F
100
AcDbEntity
  8
Layer 1
 62
   178
420
    65793
370
    25
100
AcDb2dPolyline
 66
     1
 10
0.0
 20
0.0
 30
0.0
  0
VERTEX
  5
B4
330
B3
100
AcDbEntity
  8
Layer 1
 62
   178
420
    65793
370
    25
100
AcDbVertex
100
AcDb2dVertex
 10
219.7332693982887
 20
-137.9806222022754
 30
0.0
  0
VERTEX
  5
B5
330
B3
100
AcDbEntity
  8
Layer 1
 62
   178
420
    65793
370
    25
100
AcDbVertex
100
AcDb2dVertex
 10
233.7332697842057
 20
-137.9806222022754
 30
0.0
  0
VERTEX
  5
B6
330
B3
100
AcDbEntity
  8
Layer 1
 62
   178
420
    65793
370
    25
100
AcDbVertex
100
AcDb2dVertex
 10
233.7332697842057
 20
-123.9806199090093
 30
0.0
  0
VERTEX
  5
B7
330
B3
100
AcDbEntity
  8
Layer 1
 62
   178
420
    65793
370
    25
100
AcDbVertex
100
AcDb2dVertex
 10
219.7332693982887
 20
-123.9806199090093
 30
0.0
  0
VERTEX
  5
B8
330
B3
100
AcDbEntity
  8
Layer 1
 62
   178
420
    65793
370
    25
100
AcDbVertex
100
AcDb2dVertex
 10
219.7332693982887
 20
-137.9806222022754
 30
0.0
  0
SEQEND
  5
B9
330
B3
100
AcDbEntity
  8
Layer 1
 62
   178
420
    65793
370
    25
  0
POLYLINE
  5
BA
330
1F
100
AcDbEntity
  8
Layer 1
 62
   178
420
    65793
370
    25
100
AcDb2dPolyline
 66
     1
 10
0.0
 20
0.0
 30
0.0
  0
VERTEX
  5
BB
330
BA
100
AcDbEntity
  8
Layer 1
 62
   178
420
    65793
370
    25
100
AcDbVertex
100
AcDb2dVertex
 10
62.57077422129938
 20
-157.030621964458
 30
0.0
  0
VERTEX
  5
BC
330
BA
100
AcDbEntity
  8
Layer 1
 62
   178
420
    65793
370
    25
100
AcDbVertex
100
AcDb2dVertex
 10
76.57077460721639
 20
-157.030621964458
 30
0.0
  0
VERTEX
  5
BD
330
BA
100
AcDbEntity
  8
Layer 1
 62
   178
420
    65793
370
    25
100
AcDbVertex
100
AcDb2dVertex
 10
76.57077460721639
 20
-143.0306215785413
 30
0.0
  0
VERTEX
  5
BE
330
BA
100
AcDbEntity
  8
Layer 1
 62
   178
420
    65793
370
    25
100
AcDbVertex
100
AcDb2dVertex
 10
62.57077422129938
 20
-143.0306215785413
 30
0.0
  0
VERTEX
  5
BF
330
BA
100
AcDbEntity
  8
Layer 1
 62
   178
420
    65793
370
    25
100
AcDbVertex
100
AcDb2dVertex
 10
62.57077422129938
 20
-157.030621964458
 30
0.0
  0
SEQEND
  5
C0
330
BA
100
AcDbEntity
  8
Layer 1
 62
   178
420
    65793
370
    25
  0
POLYLINE
  5
C1
330
1F
100
AcDbEntity
  8
Layer 1
 62
   178
420
    65793
370
    25
100
AcDb2dPolyline
 66
     1
 10
0.0
 20
0.0
 30
0.0
  0
VERTEX
  5
C2
330
C1
100
AcDbEntity
  8
Layer 1
 62
   178
420
    65793
370
    25
100
AcDbVertex
100
AcDb2dVertex
 10
81.62077779818007
 20
-157.030621964458
 30
0.0
  0
VERTEX
  5
C3
330
C1
100
AcDbEntity
  8
Layer 1
 62
   178
420
    65793
370
    25
100
AcDbVertex
100
AcDb2dVertex
 10
95.62077818409708
 20
-157.030621964458
 30
0.0
  0
VERTEX
  5
C4
330
C1
100
AcDbEntity
  8
Layer 1
 62
   178
420
    65793
370
    25
100
AcDbVertex
100
AcDb2dVertex
 10
95.62077818409708
 20
-143.0306215785413
 30
0.0
  0
VERTEX
  5
C5
330
C1
100
AcDbEntity
  8
Layer 1
 62
   178
420
    65793
370
    25
100
AcDbVertex
100
AcDb2dVertex
 10
81.62077779818007
 20
-143.0306215785413
 30
0.0
  0
VERTEX
  5
C6
330
C1
100
AcDbEntity
  8
Layer 1
 62
   178
420
    65793
370
    25
100
AcDbVertex
100
AcDb2dVertex
 10
81.62077779818007
 20
-157.030621964458
 30
0.0
  0
SEQEND
  5
C7
330
C1
100
AcDbEntity
  8
Layer 1
 62
   178
420
    65793
370
    25
  0
POLYLINE
  5
C8
330
1F
100
AcDbEntity
  8
Layer 1
 62
   178
420
    65793
370
    25
100
AcDb2dPolyline
 66
     1
 10
0.0
 20
0.0
 30
0.0
  0
VERTEX
  5
C9
330
C8
100
AcDbEntity
  8
Layer 1
 62
   178
420
    65793
370
    25
100
AcDbVertex
100
AcDb2dVertex
 10
100.6707813750608
 20
-157.030621964458
 30
0.0
  0
VERTEX
  5
CA
330
C8
100
AcDbEntity
  8
Layer 1
 62
   178
420
    65793
370
    25
100
AcDbVertex
100
AcDb2dVertex
 10
114.6707817609778
 20
-157.030621964458
 30
0.0
  0
VERTEX
  5
CB
330
C8
100
AcDbEntity
  8
Layer 1
 62
   178
420
    65793
370
    25
100
AcDbVertex
100
AcDb2dVertex
 10
114.6707817609778
 20
-143.0306215785413
 30
0.0
  0
VERTEX
  5
CC
330
C8
100
AcDbEntity
  8
Layer 1
 62
   178
420
    65793
370
    25
100
AcDbVertex
100
AcDb2dVertex
 10
100.6707813750608
 20
-143.0306215785413
 30
0.0
  0
VERTEX
  5
CD
330
C8
100
AcDbEntity
  8
Layer 1
 62
   178
420
    65793
370
    25
100
AcDbVertex
100
AcDb2dVertex
 10
100.6707813750608
 20
-157.030621964458
 30
0.0
  0
SEQEND
  5
CE
330
C8
100
AcDbEntity
  8
Layer 1
 62
   178
420
    65793
370
    25
  0
POLYLINE
  5
CF
330
1F
100
AcDbEntity
  8
Layer 1
 62
   178
420
    65793
370
    25
100
AcDb2dPolyline
 66
     1
 10
0.0
 20
0.0
 30
0.0
  0
VERTEX
  5
D0
330
CF
100
AcDbEntity
  8
Layer 1
 62
   178
420
    65793
370
    25
100
AcDbVertex
100
AcDb2dVertex
 10
119.7207849519414
 20
-157.030621964458
 30
0.0
  0
VERTEX
  5
D1
330
CF
100
AcDbEntity
  8
Layer 1
 62
   178
420
    65793
370
    25
100
AcDbVertex
100
AcDb2dVertex
 10
133.7207853378585
 20
-157.030621964458
 30
0.0
  0
VERTEX
  5
D2
330
CF
100
AcDbEntity
  8
Layer 1
 62
   178
420
    65793
370
    25
100
AcDbVertex
100
AcDb2dVertex
 10
133.7207853378585
 20
-143.0306215785413
 30
0.0
  0
VERTEX
  5
D3
330
CF
100
AcDbEntity
  8
Layer 1
 62
   178
420
    65793
370
    25
100
AcDbVertex
100
AcDb2dVertex
 10
119.7207849519414
 20
-143.0306215785413
 30
0.0
  0
VERTEX
  5
D4
330
CF
100
AcDbEntity
  8
Layer 1
 62
   178
420
    65793
370
    25
100
AcDbVertex
100
AcDb2dVertex
 10
119.7207849519414
 20
-157.030621964458
 30
0.0
  0
SEQEND
  5
D5
330
CF
100
AcDbEntity
  8
Layer 1
 62
   178
420
    65793
370
    25
  0
POLYLINE
  5
D6
330
1F
100
AcDbEntity
  8
Layer 1
 62
   178
420
    65793
370
    25
100
AcDb2dPolyline
 66
     1
 10
0.0
 20
0.0
 30
0.0
  0
VERTEX
  5
D7
330
D6
100
AcDbEntity
  8
Layer 1
 62
   178
420
    65793
370
    25
100
AcDbVertex
100
AcDb2dVertex
 10
138.7707732700327
 20
-157.030621964458
 30
0.0
  0
VERTEX
  5
D8
330
D6
100
AcDbEntity
  8
Layer 1
 62
   178
420
    65793
370
    25
100
AcDbVertex
100
AcDb2dVertex
 10
152.7707736559497
 20
-157.030621964458
 30
0.0
  0
VERTEX
  5
D9
330
D6
100
AcDbEntity
  8
Layer 1
 62
   178
420
    65793
370
    25
100
AcDbVertex
100
AcDb2dVertex
 10
152.7707736559497
 20
-143.0306215785413
 30
0.0
  0
VERTEX
  5
DA
330
D6
100
AcDbEntity
  8
Layer 1
 62
   178
420
    65793
370
    25
100
AcDbVertex
100
AcDb2dVertex
 10
138.7707732700327
 20
-143.0306215785413
 30
0.0
  0
VERTEX
  5
DB
330
D6
100
AcDbEntity
  8
Layer 1
 62
   178
420
    65793
370
    25
100
AcDbVertex
100
AcDb2dVertex
 10
138.7707732700327
 20
-157.030621964458
 30
0.0
  0
SEQEND
  5
DC
330
D6
100
AcDbEntity
  8
Layer 1
 62
   178
420
    65793
370
    25
  0
POLYLINE
  5
DD
330
1F
100
AcDbEntity
  8
Layer 1
 62
   178
420
    65793
370
    25
100
AcDb2dPolyline
 66
     1
 10
0.0
 20
0.0
 30
0.0
  0
VERTEX
  5
DE
330
DD
100
AcDbEntity
  8
Layer 1
 62
   178
420
    65793
370
    25
100
AcDbVertex
100
AcDb2dVertex
 10
157.8207921057028
 20
-157.030621964458
 30
0.0
  0
VERTEX
  5
DF
330
DD
100
AcDbEntity
  8
Layer 1
 62
   178
420
    65793
370
    25
100
AcDbVertex
100
AcDb2dVertex
 10
171.8207924916198
 20
-157.030621964458
 30
0.0
  0
VERTEX
  5
E0
330
DD
100
AcDbEntity
  8
Layer 1
 62
   178
420
    65793
370
    25
100
AcDbVertex
100
AcDb2dVertex
 10
171.8207924916198
 20
-143.0306215785413
 30
0.0
  0
VERTEX
  5
E1
330
DD
100
AcDbEntity
  8
Layer 1
 62
   178
420
    65793
370
    25
100
AcDbVertex
100
AcDb2dVertex
 10
157.8207921057028
 20
-143.0306215785413
 30
0.0
  0
VERTEX
  5
E2
330
DD
100
AcDbEntity
  8
Layer 1
 62
   178
420
    65793
370
    25
100
AcDbVertex
100
AcDb2dVertex
 10
157.8207921057028
 20
-157.030621964458
 30
0.0
  0
SEQEND
  5
E3
330
DD
100
AcDbEntity
  8
Layer 1
 62
   178
420
    65793
370
    25
  0
POLYLINE
  5
E4
330
1F
100
AcDbEntity
  8
Layer 1
 62
   178
420
    65793
370
    25
100
AcDb2dPolyline
 66
     1
 10
0.0
 20
0.0
 30
0.0
  0
VERTEX
  5
E5
330
E4
100
AcDbEntity
  8
Layer 1
 62
   178
420
    65793
370
    25
100
AcDbVertex
100
AcDb2dVertex
 10
219.7332693982887
 20
-157.030621964458
 30
0.0
  0
VERTEX
  5
E6
330
E4
100
AcDbEntity
  8
Layer 1
 62
   178
420
    65793
370
    25
100
AcDbVertex
100
AcDb2dVertex
 10
233.7332697842057
 20
-157.030621964458
 30
0.0
  0
VERTEX
  5
E7
330
E4
100
AcDbEntity
  8
Layer 1
 62
   178
420
    65793
370
    25
100
AcDbVertex
100
AcDb2dVertex
 10
233.7332697842057
 20
-143.0306215785413
 30
0.0
  0
VERTEX
  5
E8
330
E4
100
AcDbEntity
  8
Layer 1
 62
   178
420
    65793
370
    25
100
AcDbVertex
100
AcDb2dVertex
 10
219.7332693982887
 20
-143.0306215785413
 30
0.0
  0
VERTEX
  5
E9
330
E4
100
AcDbEntity
  8
Layer 1
 62
   178
420
    65793
370
    25
100
AcDbVertex
100
AcDb2dVertex
 10
219.7332693982887
 20
-157.030621964458
 30
0.0
  0
SEQEND
  5
EA
330
E4
100
AcDbEntity
  8
Layer 1
 62
   178
420
    65793
370
    25
  0
POLYLINE
  5
EB
330
1F
100
AcDbEntity
  8
Layer 1
 62
   178
420
    65793
370
    25
100
AcDb2dPolyline
 66
     1
 10
0.0
 20
0.0
 30
0.0
  0
VERTEX
  5
EC
330
EB
100
AcDbEntity
  8
Layer 1
 62
   178
420
    65793
370
    25
100
AcDbVertex
100
AcDb2dVertex
 10
72.09578363913447
 20
-176.080621726642
 30
0.0
  0
VERTEX
  5
ED
330
EB
100
AcDbEntity
  8
Layer 1
 62
   178
420
    65793
370
    25
100
AcDbVertex
100
AcDb2dVertex
 10
86.09578402505147
 20
-176.080621726642
 30
0.0
  0
VERTEX
  5
EE
330
EB
100
AcDbEntity
  8
Layer 1
 62
   178
420
    65793
370
    25
100
AcDbVertex
100
AcDb2dVertex
 10
86.09578402505147
 20
-162.080621340725
 30
0.0
  0
VERTEX
  5
EF
330
EB
100
AcDbEntity
  8
Layer 1
 62
   178
420
    65793
370
    25
100
AcDbVertex
100
AcDb2dVertex
 10
72.09578363913447
 20
-162.080621340725
 30
0.0
  0
VERTEX
  5
F0
330
EB
100
AcDbEntity
  8
Layer 1
 62
   178
420
    65793
370
    25
100
AcDbVertex
100
AcDb2dVertex
 10
72.09578363913447
 20
-176.080621726642
 30
0.0
  0
SEQEND
  5
F1
330
EB
100
AcDbEntity
  8
Layer 1
 62
   178
420
    65793
370
    25
  0
POLYLINE
  5
F2
330
1F
100
AcDbEntity
  8
Layer 1
 62
   178
420
    65793
370
    25
100
AcDb2dPolyline
 66
     1
 10
0.0
 20
0.0
 30
0.0
  0
VERTEX
  5
F3
330
F2
100
AcDbEntity
  8
Layer 1
 62
   178
420
    65793
370
    25
100
AcDbVertex
100
AcDb2dVertex
 10
91.14577195722568
 20
-176.080621726642
 30
0.0
  0
VERTEX
  5
F4
330
F2
100
AcDbEntity
  8
Layer 1
 62
   178
420
    65793
370
    25
100
AcDbVertex
100
AcDb2dVertex
 10
105.1457723431427
 20
-176.080621726642
 30
0.0
  0
VERTEX
  5
F5
330
F2
100
AcDbEntity
  8
Layer 1
 62
   178
420
    65793
370
    25
100
AcDbVertex
100
AcDb2dVertex
 10
105.1457723431427
 20
-162.080621340725
 30
0.0
  0
VERTEX
  5
F6
330
F2
100
AcDbEntity
  8
Layer 1
 62
   178
420
    65793
370
    25
100
AcDbVertex
100
AcDb2dVertex
 10
91.14577195722568
 20
-162.080621340725
 30
0.0
  0
VERTEX
  5
F7
330
F2
100
AcDbEntity
  8
Layer 1
 62
   178
420
    65793
370
    25
100
AcDbVertex
100
AcDb2dVertex
 10
91.14577195722568
 20
-176.080621726642
 30
0.0
  0
SEQEND
  5
F8
330
F2
100
AcDbEntity
  8
Layer 1
 62
   178
420
    65793
370
    25
  0
POLYLINE
  5
F9
330
1F
100
AcDbEntity
  8
Layer 1
 62
   178
420
    65793
370
    25
100
AcDb2dPolyline
 66
     1
 10
0.0
 20
0.0
 30
0.0
  0
VERTEX
  5
FA
330
F9
100
AcDbEntity
  8
Layer 1
 62
   178
420
    65793
370
    25
100
AcDbVertex
100
AcDb2dVertex
 10
110.1957755341064
 20
-176.080621726642
 30
0.0
  0
VERTEX
  5
FB
330
F9
100
AcDbEntity
  8
Layer 1
 62
   178
420
    65793
370
    25
100
AcDbVertex
100
AcDb2dVertex
 10
124.1957911788129
 20
-176.080621726642
 30
0.0
  0
VERTEX
  5
FC
330
F9
100
AcDbEntity
  8
Layer 1
 62
   178
420
    65793
370
    25
100
AcDbVertex
100
AcDb2dVertex
 10
124.1957911788129
 20
-162.080621340725
 30
0.0
  0
VERTEX
  5
FD
330
F9
100
AcDbEntity
  8
Layer 1
 62
   178
420
    65793
370
    25
100
AcDbVertex
100
AcDb2dVertex
 10
110.1957755341064
 20
-162.080621340725
 30
0.0
  0
VERTEX
  5
FE
330
F9
100
AcDbEntity
  8
Layer 1
 62
   178
420
    65793
370
    25
100
AcDbVertex
100
AcDb2dVertex
 10
110.1957755341064
 20
-176.080621726642
 30
0.0
  0
SEQEND
  5
FF
330
F9
100
AcDbEntity
  8
Layer 1
 62
   178
420
    65793
370
    25
  0
POLYLINE
  5
100
330
1F
100
AcDbEntity
  8
Layer 1
 62
   178
420
    65793
370
    25
100
AcDb2dPolyline
 66
     1
 10
0.0
 20
0.0
 30
0.0
  0
VERTEX
  5
101
330
100
100
AcDbEntity
  8
Layer 1
 62
   178
420
    65793
370
    25
100
AcDbVertex
100
AcDb2dVertex
 10
129.2457791109871
 20
-176.080621726642
 30
0.0
  0
VERTEX
  5
102
330
100
100
AcDbEntity
  8
Layer 1
 62
   178
420
    65793
370
    25
100
AcDbVertex
100
AcDb2dVertex
 10
143.245779496904
 20
-176.080621726642
 30
0.0
  0
VERTEX
  5
103
330
100
100
AcDbEntity
  8
Layer 1
 62
   178
420
    65793
370
    25
100
AcDbVertex
100
AcDb2dVertex
 10
143.245779496904
 20
-162.080621340725
 30
0.0
  0
VERTEX
  5
104
330
100
100
AcDbEntity
  8
Layer 1
 62
   178
420
    65793
370
    25
100
AcDbVertex
100
AcDb2dVertex
 10
129.2457791109871
 20
-162.080621340725
 30
0.0
  0
VERTEX
  5
105
330
100
100
AcDbEntity
  8
Layer 1
 62
   178
420
    65793
370
    25
100
AcDbVertex
100
AcDb2dVertex
 10
129.2457791109871
 20
-176.080621726642
 30
0.0
  0
SEQEND
  5
106
330
100
100
AcDbEntity
  8
Layer 1
 62
   178
420
    65793
370
    25
  0
POLYLINE
  5
107
330
1F
100
AcDbEntity
  8
Layer 1
 62
   178
420
    65793
370
    25
100
AcDb2dPolyline
 66
     1
 10
0.0
 20
0.0
 30
0.0
  0
VERTEX
  5
108
330
107
100
AcDbEntity
  8
Layer 1
 62
   178
420
    65793
370
    25
100
AcDbVertex
100
AcDb2dVertex
 10
219.7332693982887
 20
-176.080621726642
 30
0.0
  0
VERTEX
  5
109
330
107
100
AcDbEntity
  8
Layer 1
 62
   178
420
    65793
370
    25
100
AcDbVertex
100
AcDb2dVertex
 10
233.7332697842057
 20
-176.080621726642
 30
0.0
  0
VERTEX
  5
10A
330
107
100
AcDbEntity
  8
Layer 1
 62
   178
420
    65793
370
    25
100
AcDbVertex
100
AcDb2dVertex
 10
233.7332697842057
 20
-162.080621340725
 30
0.0
  0
VERTEX
  5
10B
330
107
100
AcDbEntity
  8
Layer 1
 62
   178
420
    65793
370
    25
100
AcDbVertex
100
AcDb2dVertex
 10
219.7332693982887
 20
-162.080621340725
 30
0.0
  0
VERTEX
  5
10C
330
107
100
AcDbEntity
  8
Layer 1
 62
   178
420
    65793
370
    25
100
AcDbVertex
100
AcDb2dVertex
 10
219.7332693982887
 20
-176.080621726642
 30
0.0
  0
SEQEND
  5
10D
330
107
100
AcDbEntity
  8
Layer 1
 62
   178
420
    65793
370
    25
  0
POLYLINE
  5
10E
330
1F
100
AcDbEntity
  8
Layer 1
 62
   178
420
    65793
370
    25
100
AcDb2dPolyline
 66
     1
 10
0.0
 20
0.0
 30
0.0
  0
VERTEX
  5
10F
330
10E
100
AcDbEntity
  8
Layer 1
 62
   178
420
    65793
370
    25
100
AcDbVertex
100
AcDb2dVertex
 10
219.7332693982887
 20
-195.1306253035227
 30
0.0
  0
VERTEX
  5
110
330
10E
100
AcDbEntity
  8
Layer 1
 62
   178
420
    65793
370
    25
100
AcDbVertex
100
AcDb2dVertex
 10
233.7332697842057
 20
-195.1306253035227
 30
0.0
  0
VERTEX
  5
111
330
10E
100
AcDbEntity
  8
Layer 1
 62
   178
420
    65793
370
    25
100
AcDbVertex
100
AcDb2dVertex
 10
233.7332697842057
 20
-181.1306249176057
 30
0.0
  0
VERTEX
  5
112
330
10E
100
AcDbEntity
  8
Layer 1
 62
   178
420
    65793
370
    25
100
AcDbVertex
100
AcDb2dVertex
 10
219.7332693982887
 20
-181.1306249176057
 30
0.0
  0
VERTEX
  5
113
330
10E
100
AcDbEntity
  8
Layer 1
 62
   178
420
    65793
370
    25
100
AcDbVertex
100
AcDb2dVertex
 10
219.7332693982887
 20
-195.1306253035227
 30
0.0
  0
SEQEND
  5
114
330
10E
100
AcDbEntity
  8
Layer 1
 62
   178
420
    65793
370
    25
  0
ENDSEC
  0
SECTION
  2
OBJECTS
  0
DICTIONARY
  5
C
330
0
100
AcDbDictionary
281
     1
  3
ACAD_GROUP
350
D
  3
ACAD_LAYOUT
350
1A
  3
ACAD_MATERIAL
350
3B
  3
ACAD_MLEADERSTYLE
350
116
  3
ACAD_MLINESTYLE
350
17
  3
ACAD_PLOTSETTINGS
350
19
  3
ACAD_PLOTSTYLENAME
350
E
  3
ACAD_TABLESTYLE
350
115
  3
ACAD_VISUALSTYLE
350
2A
  0
SUN
  5
3F
330
29
100
AcDbSun
 90
        1
290
     0
 63
     7
421
 16777215
 40
1.0
291
     1
 91
  2455826
 92
 54000000
292
     0
 70
     2
 71
   256
280
     1
  0
DICTIONARY
  5
D
102
{ACAD_REACTORS
330
C
102
}
330
C
100
AcDbDictionary
281
     1
  0
DICTIONARY
  5
1A
102
{ACAD_REACTORS
330
C
102
}
330
C
100
AcDbDictionary
281
     1
  3
Layout1
350
1E
  3
Layout2
350
26
  3
Model
350
22
  0
DICTIONARY
  5
3B
102
{ACAD_REACTORS
330
C
102
}
330
C
100
AcDbDictionary
281
     1
  3
ByBlock
350
3D
  3
ByLayer
350
3C
  3
Global
350
3E
  0
DICTIONARY
  5
116
102
{ACAD_REACTORS
330
C
102
}
330
C
100
AcDbDictionary
281
     1
  0
DICTIONARY
  5
17
102
{ACAD_REACTORS
330
C
102
}
330
C
100
AcDbDictionary
281
     1
  3
Standard
350
18
  0
DICTIONARY
  5
19
102
{ACAD_REACTORS
330
C
102
}
330
C
100
AcDbDictionary
281
     1
  0
ACDBDICTIONARYWDFLT
  5
E
102
{ACAD_REACTORS
330
C
102
}
330
C
100
AcDbDictionary
281
     1
  3
Normal
350
F
100
AcDbDictionaryWithDefault
340
F
  0
DICTIONARY
  5
115
102
{ACAD_REACTORS
330
C
102
}
330
C
100
AcDbDictionary
281
     1
  0
DICTIONARY
  5
2A
102
{ACAD_REACTORS
330
C
102
}
330
C
100
AcDbDictionary
281
     1
  3
2dWireframe
350
2F
  3
3D Hidden
350
31
  3
3dWireframe
350
30
  3
Basic
350
32
  3
Brighten
350
36
  3
ColorChange
350
3A
  3
Conceptual
350
34
  3
Dim
350
35
  3
Facepattern
350
39
  3
Flat
350
2B
  3
FlatWithEdges
350
2C
  3
Gouraud
350
2D
  3
GouraudWithEdges
350
2E
  3
Linepattern
350
38
  3
Realistic
350
33
  3
Thicken
350
37
  0
LAYOUT
  5
1E
102
{ACAD_REACTORS
330
1A
102
}
330
1A
100
AcDbPlotSettings
  1

  2
none_device
  4

  6

 40
0.0
 41
0.0
 42
0.0
 43
0.0
 44
0.0
 45
0.0
 46
0.0
 47
0.0
 48
0.0
 49
0.0
140
0.0
141
0.0
142
1.0
143
1.0
 70
   688
 72
     0
 73
     0
 74
     5
  7

 75
    16
 76
     0
 77
     2
 78
   300
147
1.0
148
0.0
149
0.0
100
AcDbLayout
  1
Layout1
 70
     1
 71
     1
 10
0.0
 20
0.0
 11
12.0
 21
9.0
 12
0.0
 22
0.0
 32
0.0
 14
1.000000000000000E+20
 24
1.000000000000000E+20
 34
1.000000000000000E+20
 15
-1.000000000000000E+20
 25
-1.000000000000000E+20
 35
-1.000000000000000E+20
146
0.0
 13
0.0
 23
0.0
 33
0.0
 16
1.0
 26
0.0
 36
0.0
 17
0.0
 27
1.0
 37
0.0
 76
     0
330
1B
  0
LAYOUT
  5
26
102
{ACAD_REACTORS
330
1A
102
}
330
1A
100
AcDbPlotSettings
  1

  2
none_device
  4

  6

 40
0.0
 41
0.0
 42
0.0
 43
0.0
 44
0.0
 45
0.0
 46
0.0
 47
0.0
 48
0.0
 49
0.0
140
0.0
141
0.0
142
1.0
143
1.0
 70
   688
 72
     0
 73
     0
 74
     5
  7

 75
    16
 76
     0
 77
     2
 78
   300
147
1.0
148
0.0
149
0.0
100
AcDbLayout
  1
Layout2
 70
     1
 71
     2
 10
0.0
 20
0.0
 11
0.0
 21
0.0
 12
0.0
 22
0.0
 32
0.0
 14
0.0
 24
0.0
 34
0.0
 15
0.0
 25
0.0
 35
0.0
146
0.0
 13
0.0
 23
0.0
 33
0.0
 16
1.0
 26
0.0
 36
0.0
 17
0.0
 27
1.0
 37
0.0
 76
     0
330
23
  0
LAYOUT
  5
22
102
{ACAD_REACTORS
330
1A
102
}
330
1A
100
AcDbPlotSettings
  1

  2
none_device
  4

  6

 40
0.0
 41
0.0
 42
0.0
 43
0.0
 44
0.0
 45
0.0
 46
0.0
 47
0.0
 48
0.0
 49
0.0
140
0.0
141
0.0
142
1.0
143
1.0
 70
  1712
 72
     0
 73
     0
 74
     0
  7

 75
     0
 76
     0
 77
     2
 78
   300
147
1.0
148
0.0
149
0.0
100
AcDbLayout
  1
Model
 70
     1
 71
     0
 10
0.0
 20
0.0
 11
12.0
 21
9.0
 12
0.0
 22
0.0
 32
0.0
 14
1.000000000000000E+20
 24
1.000000000000000E+20
 34
1.000000000000000E+20
 15
-1.000000000000000E+20
 25
-1.000000000000000E+20
 35
-1.000000000000000E+20
146
0.0
 13
0.0
 23
0.0
 33
0.0
 16
1.0
 26
0.0
 36
0.0
 17
0.0
 27
1.0
 37
0.0
 76
     0
330
1F
331
29
  0
MATERIAL
  5
3D
102
{ACAD_REACTORS
330
3B
102
}
330
3B
100
AcDbMaterial
  1
ByBlock
 72
     1
 94
      127
  0
MATERIAL
  5
3C
102
{ACAD_REACTORS
330
3B
102
}
330
3B
100
AcDbMaterial
  1
ByLayer
 72
     1
 94
      127
  0
MATERIAL
  5
3E
102
{ACAD_REACTORS
330
3B
102
}
330
3B
100
AcDbMaterial
  1
Global
 72
     1
 94
      127
  0
MLINESTYLE
  5
18
102
{ACAD_REACTORS
330
17
102
}
330
17
100
AcDbMlineStyle
  2
Standard
 70
     0
  3

 62
   256
 51
90.0
 52
90.0
 71
     2
 49
0.5
 62
   256
  6
BYLAYER
 49
-0.5
 62
   256
  6
BYLAYER
  0
ACDBPLACEHOLDER
  5
F
102
{ACAD_REACTORS
330
E
102
}
330
E
  0
VISUALSTYLE
  5
2F
102
{ACAD_REACTORS
330
2A
102
}
330
2A
100
AcDbVisualStyle
  2
2dWireframe
 70
     4
177
     2
291
     0
 71
     0
176
     1
 72
     2
176
     1
 73
     0
176
     1
 90
        0
176
     1
 40
-0.6
176
     1
 41
-30.0
176
     1
 62
     5
 63
     7
421
 16777215
176
     1
 74
     1
176
     1
 91
        4
176
     1
 64
     7
176
     1
 65
   257
176
     1
 75
     1
176
     1
175
     1
176
     1
 42
1.0
176
     1
 92
        0
176
     1
 66
   257
176
     1
 43
1.0
176
     1
 76
     1
176
     1
 77
     6
176
     1
 78
     2
176
     1
 67
     7
176
     1
 79
     5
176
     1
170
     0
176
     1
171
     0
176
     1
290
     0
176
     1
 93
        1
176
     1
 44
0.0
176
     1
173
     0
176
     1
  0
VISUALSTYLE
  5
31
102
{ACAD_REACTORS
330
2A
102
}
330
2A
100
AcDbVisualStyle
  2
3D Hidden
 70
     6
177
     2
291
     0
 71
     1
176
     1
 72
     2
176
     1
 73
     2
176
     1
 90
        0
176
     1
 40
-0.6
176
     1
 41
-30.0
176
     1
 62
     5
 63
     7
421
 16777215
176
     1
 74
     2
176
     1
 91
        2
176
     1
 64
     7
176
     1
 65
   257
176
     1
 75
     2
176
     1
175
     1
176
     1
 42
40.0
176
     1
 92
        0
176
     1
 66
   257
176
     1
 43
1.0
176
     1
 76
     1
176
     1
 77
     6
176
     1
 78
     2
176
     1
 67
     7
176
     1
 79
     3
176
     1
170
     0
176
     1
171
     0
176
     1
290
     0
176
     1
 93
        1
176
     1
 44
0.0
176
     1
173
     0
176
     1
  0
VISUALSTYLE
  5
30
102
{ACAD_REACTORS
330
2A
102
}
330
2A
100
AcDbVisualStyle
  2
3dWireframe
 70
     5
177
     2
291
     0
 71
     0
176
     1
 72
     2
176
     1
 73
     0
176
     1
 90
        0
176
     1
 40
-0.6
176
     1
 41
-30.0
176
     1
 62
     5
 63
     7
421
 16777215
176
     1
 74
     1
176
     1
 91
        4
176
     1
 64
     7
176
     1
 65
   257
176
     1
 75
     1
176
     1
175
     1
176
     1
 42
1.0
176
     1
 92
        0
176
     1
 66
   257
176
     1
 43
1.0
176
     1
 76
     1
176
     1
 77
     6
176
     1
 78
     2
176
     1
 67
     7
176
     1
 79
     5
176
     1
170
     0
176
     1
171
     0
176
     1
290
     0
176
     1
 93
        1
176
     1
 44
0.0
176
     1
173
     0
176
     1
  0
VISUALSTYLE
  5
32
102
{ACAD_REACTORS
330
2A
102
}
330
2A
100
AcDbVisualStyle
  2
Basic
 70
     7
177
     2
291
     1
 71
     1
176
     1
 72
     0
176
     1
 73
     1
176
     1
 90
        0
176
     1
 40
-0.6
176
     1
 41
-30.0
176
     1
 62
     5
 63
     7
421
 16777215
176
     1
 74
     0
176
     1
 91
        4
176
     1
 64
     7
176
     1
 65
   257
176
     1
 75
     1
176
     1
175
     1
176
     1
 42
1.0
176
     1
 92
        8
176
     1
 66
     7
176
     1
 43
1.0
176
     1
 76
     1
176
     1
 77
     6
176
     1
 78
     2
176
     1
 67
     7
176
     1
 79
     5
176
     1
170
     0
176
     1
171
     0
176
     1
290
     0
176
     1
 93
        1
176
     1
 44
0.0
176
     1
173
     0
176
     1
  0
VISUALSTYLE
  5
36
102
{ACAD_REACTORS
330
2A
102
}
330
2A
100
AcDbVisualStyle
  2
Brighten
 70
    12
177
     2
291
     1
 71
     2
176
     1
 72
     2
176
     1
 73
     0
176
     1
 90
        0
176
     1
 40
-0.6
176
     1
 41
-30.0
176
     1
 62
     5
 63
     7
421
 16777215
176
     1
 74
     1
176
     1
 91
        4
176
     1
 64
     7
176
     1
 65
   257
176
     1
 75
     1
176
     1
175
     1
176
     1
 42
1.0
176
     1
 92
        8
176
     1
 66
     7
176
     1
 43
1.0
176
     1
 76
     1
176
     1
 77
     6
176
     1
 78
     2
176
     1
 67
     7
176
     1
 79
     5
176
     1
170
     0
176
     1
171
     0
176
     1
290
     0
176
     1
 93
        1
176
     1
 44
50.0
176
     1
173
     0
176
     1
  0
VISUALSTYLE
  5
3A
102
{ACAD_REACTORS
330
2A
102
}
330
2A
100
AcDbVisualStyle
  2
ColorChange
 70
    16
177
     2
291
     1
 71
     2
176
     1
 72
     2
176
     1
 73
     3
176
     1
 90
        0
176
     1
 40
-0.6
176
     1
 41
-30.0
176
     1
 62
     5
 63
     8
421
  8421504
176
     1
 74
     1
176
     1
 91
        4
176
     1
 64
     7
176
     1
 65
   257
176
     1
 75
     1
176
     1
175
     1
176
     1
 42
1.0
176
     1
 92
        8
176
     1
 66
     8
424
  8421504
176
     1
 43
1.0
176
     1
 76
     1
176
     1
 77
     6
176
     1
 78
     2
176
     1
 67
     7
176
     1
 79
     5
176
     1
170
     0
176
     1
171
     0
176
     1
290
     0
176
     1
 93
        1
176
     1
 44
0.0
176
     1
173
     0
176
     1
  0
VISUALSTYLE
  5
34
102
{ACAD_REACTORS
330
2A
102
}
330
2A
100
AcDbVisualStyle
  2
Conceptual
 70
     9
177
     2
291
     0
 71
     3
176
     1
 72
     2
176
     1
 73
     0
176
     1
 90
        0
176
     1
 40
-0.6
176
     1
 41
-30.0
176
     1
 62
     5
 63
     7
421
 16777215
176
     1
 74
     2
176
     1
 91
        2
176
     1
 64
     7
176
     1
 65
   257
176
     1
 75
     1
176
     1
175
     1
176
     1
 42
40.0
176
     1
 92
        8
176
     1
 66
     7
176
     1
 43
1.0
176
     1
 76
     1
176
     1
 77
     6
176
     1
 78
     2
176
     1
 67
     7
176
     1
 79
     3
176
     1
170
     0
176
     1
171
     0
176
     1
290
     0
176
     1
 93
        1
176
     1
 44
0.0
176
     1
173
     0
176
     1
  0
VISUALSTYLE
  5
35
102
{ACAD_REACTORS
330
2A
102
}
330
2A
100
AcDbVisualStyle
  2
Dim
 70
    11
177
     2
291
     1
 71
     2
176
     1
 72
     2
176
     1
 73
     0
176
     1
 90
        0
176
     1
 40
-0.6
176
     1
 41
-30.0
176
     1
 62
     5
 63
     7
421
 16777215
176
     1
 74
     1
176
     1
 91
        4
176
     1
 64
     7
176
     1
 65
   257
176
     1
 75
     1
176
     1
175
     1
176
     1
 42
1.0
176
     1
 92
        8
176
     1
 66
     7
176
     1
 43
1.0
176
     1
 76
     1
176
     1
 77
     6
176
     1
 78
     2
176
     1
 67
     7
176
     1
 79
     5
176
     1
170
     0
176
     1
171
     0
176
     1
290
     0
176
     1
 93
        1
176
     1
 44
-50.0
176
     1
173
     0
176
     1
  0
VISUALSTYLE
  5
39
102
{ACAD_REACTORS
330
2A
102
}
330
2A
100
AcDbVisualStyle
  2
Facepattern
 70
    15
177
     2
291
     1
 71
     2
176
     1
 72
     2
176
     1
 73
     0
176
     1
 90
        0
176
     1
 40
-0.6
176
     1
 41
-30.0
176
     1
 62
     5
 63
     7
421
 16777215
176
     1
 74
     1
176
     1
 91
        4
176
     1
 64
     7
176
     1
 65
   257
176
     1
 75
     1
176
     1
175
     1
176
     1
 42
1.0
176
     1
 92
        8
176
     1
 66
     7
176
     1
 43
1.0
176
     1
 76
     1
176
     1
 77
     6
176
     1
 78
     2
176
     1
 67
     7
176
     1
 79
     5
176
     1
170
     0
176
     1
171
     0
176
     1
290
     0
176
     1
 93
        1
176
     1
 44
0.0
176
     1
173
     0
176
     1
  0
VISUALSTYLE
  5
2B
102
{ACAD_REACTORS
330
2A
102
}
330
2A
100
AcDbVisualStyle
  2
Flat
 70
     0
177
     2
291
     1
 71
     2
176
     1
 72
     1
176
     1
 73
     1
176
     1
 90
        2
176
     1
 40
-0.6
176
     1
 41
30.0
176
     1
 62
     5
 63
     7
421
 16777215
176
     1
 74
     0
176
     1
 91
        4
176
     1
 64
     7
176
     1
 65
   257
176
     1
 75
     1
176
     1
175
     1
176
     1
 42
1.0
176
     1
 92
        8
176
     1
 66
     7
176
     1
 43
1.0
176
     1
 76
     1
176
     1
 77
     6
176
     1
 78
     2
176
     1
 67
     7
176
     1
 79
     5
176
     1
170
     0
176
     1
171
     0
176
     1
290
     0
176
     1
 93
       13
176
     1
 44
0.0
176
     1
173
     0
176
     1
  0
VISUALSTYLE
  5
2C
102
{ACAD_REACTORS
330
2A
102
}
330
2A
100
AcDbVisualStyle
  2
FlatWithEdges
 70
     1
177
     2
291
     1
 71
     2
176
     1
 72
     1
176
     1
 73
     1
176
     1
 90
        2
176
     1
 40
-0.6
176
     1
 41
30.0
176
     1
 62
     5
 63
     7
421
 16777215
176
     1
 74
     1
176
     1
 91
        4
176
     1
 64
     7
176
     1
 65
   257
176
     1
 75
     1
176
     1
175
     1
176
     1
 42
1.0
176
     1
 92
        0
176
     1
 66
   257
176
     1
 43
1.0
176
     1
 76
     1
176
     1
 77
     6
176
     1
 78
     2
176
     1
 67
     7
176
     1
 79
     5
176
     1
170
     0
176
     1
171
     0
176
     1
290
     0
176
     1
 93
       13
176
     1
 44
0.0
176
     1
173
     0
176
     1
  0
VISUALSTYLE
  5
2D
102
{ACAD_REACTORS
330
2A
102
}
330
2A
100
AcDbVisualStyle
  2
Gouraud
 70
     2
177
     2
291
     1
 71
     2
176
     1
 72
     2
176
     1
 73
     1
176
     1
 90
        2
176
     1
 40
-0.6
176
     1
 41
30.0
176
     1
 62
     5
 63
     7
421
 16777215
176
     1
 74
     0
176
     1
 91
        4
176
     1
 64
     7
176
     1
 65
   257
176
     1
 75
     1
176
     1
175
     1
176
     1
 42
1.0
176
     1
 92
        0
176
     1
 66
     7
176
     1
 43
1.0
176
     1
 76
     1
176
     1
 77
     6
176
     1
 78
     2
176
     1
 67
     7
176
     1
 79
     5
176
     1
170
     0
176
     1
171
     0
176
     1
290
     0
176
     1
 93
       13
176
     1
 44
0.0
176
     1
173
     0
176
     1
  0
VISUALSTYLE
  5
2E
102
{ACAD_REACTORS
330
2A
102
}
330
2A
100
AcDbVisualStyle
  2
GouraudWithEdges
 70
     3
177
     2
291
     1
 71
     2
176
     1
 72
     2
176
     1
 73
     1
176
     1
 90
        2
176
     1
 40
-0.6
176
     1
 41
30.0
176
     1
 62
     5
 63
     7
421
 16777215
176
     1
 74
     1
176
     1
 91
        4
176
     1
 64
     7
176
     1
 65
   257
176
     1
 75
     1
176
     1
175
     1
176
     1
 42
1.0
176
     1
 92
        0
176
     1
 66
   257
176
     1
 43
1.0
176
     1
 76
     1
176
     1
 77
     6
176
     1
 78
     2
176
     1
 67
     7
176
     1
 79
     5
176
     1
170
     0
176
     1
171
     0
176
     1
290
     0
176
     1
 93
       13
176
     1
 44
0.0
176
     1
173
     0
176
     1
  0
VISUALSTYLE
  5
38
102
{ACAD_REACTORS
330
2A
102
}
330
2A
100
AcDbVisualStyle
  2
Linepattern
 70
    14
177
     2
291
     1
 71
     2
176
     1
 72
     2
176
     1
 73
     0
176
     1
 90
        0
176
     1
 40
-0.6
176
     1
 41
-30.0
176
     1
 62
     5
 63
     7
421
 16777215
176
     1
 74
     1
176
     1
 91
        4
176
     1
 64
     7
176
     1
 65
   257
176
     1
 75
     7
176
     1
175
     7
176
     1
 42
1.0
176
     1
 92
        8
176
     1
 66
     7
176
     1
 43
1.0
176
     1
 76
     1
176
     1
 77
     6
176
     1
 78
     2
176
     1
 67
     7
176
     1
 79
     5
176
     1
170
     0
176
     1
171
     0
176
     1
290
     0
176
     1
 93
        1
176
     1
 44
0.0
176
     1
173
     0
176
     1
  0
VISUALSTYLE
  5
33
102
{ACAD_REACTORS
330
2A
102
}
330
2A
100
AcDbVisualStyle
  2
Realistic
 70
     8
177
     2
291
     0
 71
     2
176
     1
 72
     2
176
     1
 73
     0
176
     1
 90
        0
176
     1
 40
-0.6
176
     1
 41
-30.0
176
     1
 62
     5
 63
     7
421
 16777215
176
     1
 74
     1
176
     1
 91
        0
176
     1
 64
     7
176
     1
 65
   257
176
     1
 75
     1
176
     1
175
     1
176
     1
 42
1.0
176
     1
 92
        8
176
     1
 66
     8
424
  7895160
176
     1
 43
1.0
176
     1
 76
     1
176
     1
 77
     6
176
     1
 78
     2
176
     1
 67
     7
176
     1
 79
     5
176
     1
170
     0
176
     1
171
     0
176
     1
290
     0
176
     1
 93
       13
176
     1
 44
0.0
176
     1
173
     0
176
     1
  0
VISUALSTYLE
  5
37
102
{ACAD_REACTORS
330
2A
102
}
330
2A
100
AcDbVisualStyle
  2
Thicken
 70
    13
177
     2
291
     1
 71
     2
176
     1
 72
     2
176
     1
 73
     0
176
     1
 90
        0
176
     1
 40
-0.6
176
     1
 41
-30.0
176
     1
 62
     5
 63
     7
421
 16777215
176
     1
 74
     1
176
     1
 91
        4
176
     1
 64
     7
176
     1
 65
   257
176
     1
 75
     1
176
     1
175
     1
176
     1
 42
1.0
176
     1
 92
       12
176
     1
 66
     7
176
     1
 43
1.0
176
     1
 76
     1
176
     1
 77
     6
176
     1
 78
     2
176
     1
 67
     7
176
     1
 79
     5
176
     1
170
     0
176
     1
171
     0
176
     1
290
     0
176
     1
 93
        1
176
     1
 44
0.0
176
     1
173
     0
176
     1
  0
ENDSEC
  0
EOF
