  0
SECTION
  2
HEADER
  9
$ACADVER
  1
AC1024
  9
$ACADMAINTVER
 70
     6
  9
$DWGCODEPAGE
  3
UNDEFINED
  9
$INSBASE
 10
0.0
 20
0.0
 30
0.0
  9
$EXTMIN
 10
1.000000000000000E+20
 20
1.000000000000000E+20
 30
1.000000000000000E+20
  9
$EXTMAX
 10
-1.000000000000000E+20
 20
-1.000000000000000E+20
 30
-1.000000000000000E+20
  9
$LIMMIN
 10
0.0
 20
0.0
  9
$LIMMAX
 10
12.0
 20
9.0
  9
$ORTHOMODE
 70
     0
  9
$REGENMODE
 70
     1
  9
$FILLMODE
 70
     1
  9
$QTEXTMODE
 70
     0
  9
$MIRRTEXT
 70
     1
  9
$LTSCALE
 40
1.0
  9
$ATTMODE
 70
     1
  9
$TEXTSIZE
 40
0.2
  9
$TRACEWID
 40
0.05
  9
$TEXTSTYLE
  7
Standard
  9
$CLAYER
  8
0
  9
$CELTYPE
  6
ByLayer
  9
$CECOLOR
 62
   256
  9
$CELTSCALE
 40
1.0
  9
$DISPSILH
 70
     0
  9
$DIMSCALE
 40
1.0
  9
$DIMASZ
 40
0.18
  9
$DIMEXO
 40
0.0625
  9
$DIMDLI
 40
0.38
  9
$DIMRND
 40
0.0
  9
$DIMDLE
 40
0.0
  9
$DIMEXE
 40
0.18
  9
$DIMTP
 40
0.0
  9
$DIMTM
 40
0.0
  9
$DIMTXT
 40
0.18
  9
$DIMCEN
 40
0.09
  9
$DIMTSZ
 40
0.0
  9
$DIMTOL
 70
     0
  9
$DIMLIM
 70
     0
  9
$DIMTIH
 70
     1
  9
$DIMTOH
 70
     1
  9
$DIMSE1
 70
     0
  9
$DIMSE2
 70
     0
  9
$DIMTAD
 70
     0
  9
$DIMZIN
 70
     0
  9
$DIMBLK
  1

  9
$DIMASO
 70
     1
  9
$DIMSHO
 70
     1
  9
$DIMPOST
  1

  9
$DIMAPOST
  1

  9
$DIMALT
 70
     0
  9
$DIMALTD
 70
     2
  9
$DIMALTF
 40
25.4
  9
$DIMLFAC
 40
1.0
  9
$DIMTOFL
 70
     0
  9
$DIMTVP
 40
0.0
  9
$DIMTIX
 70
     0
  9
$DIMSOXD
 70
     0
  9
$DIMSAH
 70
     0
  9
$DIMBLK1
  1

  9
$DIMBLK2
  1

  9
$DIMSTYLE
  2
Standard
  9
$DIMCLRD
 70
     0
  9
$DIMCLRE
 70
     0
  9
$DIMCLRT
 70
     0
  9
$DIMTFAC
 40
1.0
  9
$DIMGAP
 40
0.09
  9
$DIMJUST
 70
     0
  9
$DIMSD1
 70
     0
  9
$DIMSD2
 70
     0
  9
$DIMTOLJ
 70
     1
  9
$DIMTZIN
 70
     0
  9
$DIMALTZ
 70
     0
  9
$DIMALTTZ
 70
     0
  9
$DIMUPT
 70
     0
  9
$DIMDEC
 70
     4
  9
$DIMTDEC
 70
     4
  9
$DIMALTU
 70
     2
  9
$DIMALTTD
 70
     2
  9
$DIMTXSTY
  7
Standard
  9
$DIMAUNIT
 70
     0
  9
$DIMADEC
 70
     0
  9
$DIMALTRND
 40
0.0
  9
$DIMAZIN
 70
     0
  9
$DIMDSEP
 70
    46
  9
$DIMATFIT
 70
     3
  9
$DIMFRAC
 70
     0
  9
$DIMLDRBLK
  1

  9
$DIMLUNIT
 70
     2
  9
$DIMLWD
 70
    -2
  9
$DIMLWE
 70
    -2
  9
$DIMTMOVE
 70
     0
  9
$DIMFXL
 40
1.0
  9
$DIMFXLON
 70
     0
  9
$DIMJOGANG
 40
0.7853981633974483
  9
$DIMTFILL
 70
     0
  9
$DIMTFILLCLR
 70
     0
  9
$DIMARCSYM
 70
     0
  9
$DIMLTYPE
  6

  9
$DIMLTEX1
  6

  9
$DIMLTEX2
  6

  9
$DIMTXTDIRECTION
 70
     0
  9
$LUNITS
 70
     2
  9
$LUPREC
 70
     4
  9
$SKETCHINC
 40
0.1
  9
$FILLETRAD
 40
0.5
  9
$AUNITS
 70
     0
  9
$AUPREC
 70
     0
  9
$MENU
  1
.
  9
$ELEVATION
 40
0.0
  9
$PELEVATION
 40
0.0
  9
$THICKNESS
 40
0.0
  9
$LIMCHECK
 70
     0
  9
$CHAMFERA
 40
0.5
  9
$CHAMFERB
 40
0.5
  9
$CHAMFERC
 40
1.0
  9
$CHAMFERD
 40
0.0
  9
$SKPOLY
 70
     0
  9
$TDCREATE
 40
2459069.751134248
  9
$TDUCREATE
 40
2459069.959467593
  9
$TDUPDATE
 40
2459069.751134248
  9
$TDUUPDATE
 40
2459069.959467593
  9
$TDINDWG
 40
0.0000000116
  9
$TDUSRTIMER
 40
0.0000000116
  9
$USRTIMER
 70
     1
  9
$ANGBASE
 50
0.0
  9
$ANGDIR
 70
     0
  9
$PDMODE
 70
     0
  9
$PDSIZE
 40
0.0
  9
$PLINEWID
 40
0.0
  9
$SPLFRAME
 70
     0
  9
$SPLINETYPE
 70
     6
  9
$SPLINESEGS
 70
     8
  9
$HANDSEED
  5
11C
  9
$SURFTAB1
 70
     6
  9
$SURFTAB2
 70
     6
  9
$SURFTYPE
 70
     6
  9
$SURFU
 70
     6
  9
$SURFV
 70
     6
  9
$UCSBASE
  2

  9
$UCSNAME
  2

  9
$UCSORG
 10
0.0
 20
0.0
 30
0.0
  9
$UCSXDIR
 10
1.0
 20
0.0
 30
0.0
  9
$UCSYDIR
 10
0.0
 20
1.0
 30
0.0
  9
$UCSORTHOREF
  2

  9
$UCSORTHOVIEW
 70
     0
  9
$UCSORGTOP
 10
0.0
 20
0.0
 30
0.0
  9
$UCSORGBOTTOM
 10
0.0
 20
0.0
 30
0.0
  9
$UCSORGLEFT
 10
0.0
 20
0.0
 30
0.0
  9
$UCSORGRIGHT
 10
0.0
 20
0.0
 30
0.0
  9
$UCSORGFRONT
 10
0.0
 20
0.0
 30
0.0
  9
$UCSORGBACK
 10
0.0
 20
0.0
 30
0.0
  9
$PUCSBASE
  2

  9
$PUCSNAME
  2

  9
$PUCSORG
 10
0.0
 20
0.0
 30
0.0
  9
$PUCSXDIR
 10
1.0
 20
0.0
 30
0.0
  9
$PUCSYDIR
 10
0.0
 20
1.0
 30
0.0
  9
$PUCSORTHOREF
  2

  9
$PUCSORTHOVIEW
 70
     0
  9
$PUCSORGTOP
 10
0.0
 20
0.0
 30
0.0
  9
$PUCSORGBOTTOM
 10
0.0
 20
0.0
 30
0.0
  9
$PUCSORGLEFT
 10
0.0
 20
0.0
 30
0.0
  9
$PUCSORGRIGHT
 10
0.0
 20
0.0
 30
0.0
  9
$PUCSORGFRONT
 10
0.0
 20
0.0
 30
0.0
  9
$PUCSORGBACK
 10
0.0
 20
0.0
 30
0.0
  9
$USERI1
 70
     0
  9
$USERI2
 70
     0
  9
$USERI3
 70
     0
  9
$USERI4
 70
     0
  9
$USERI5
 70
     0
  9
$USERR1
 40
0.0
  9
$USERR2
 40
0.0
  9
$USERR3
 40
0.0
  9
$USERR4
 40
0.0
  9
$USERR5
 40
0.0
  9
$WORLDVIEW
 70
     1
  9
$SHADEDGE
 70
     3
  9
$SHADEDIF
 70
    70
  9
$TILEMODE
 70
     1
  9
$MAXACTVP
 70
    64
  9
$PINSBASE
 10
0.0
 20
0.0
 30
0.0
  9
$PLIMCHECK
 70
     0
  9
$PEXTMIN
 10
1.000000000000000E+20
 20
1.000000000000000E+20
 30
1.000000000000000E+20
  9
$PEXTMAX
 10
-1.000000000000000E+20
 20
-1.000000000000000E+20
 30
-1.000000000000000E+20
  9
$PLIMMIN
 10
0.0
 20
0.0
  9
$PLIMMAX
 10
12.0
 20
9.0
  9
$UNITMODE
 70
     0
  9
$VISRETAIN
 70
     1
  9
$PLINEGEN
 70
     0
  9
$PSLTSCALE
 70
     1
  9
$TREEDEPTH
 70
  3020
  9
$CMLSTYLE
  2
Standard
  9
$CMLJUST
 70
     0
  9
$CMLSCALE
 40
1.0
  9
$PROXYGRAPHICS
 70
     1
  9
$MEASUREMENT
 70
     0
  9
$CELWEIGHT
370
    -1
  9
$ENDCAPS
280
     0
  9
$JOINSTYLE
280
     0
  9
$LWDISPLAY
290
     1
  9
$INSUNITS
 70
     1
  9
$HYPERLINKBASE
  1

  9
$STYLESHEET
  1

  9
$XEDIT
290
     1
  9
$CEPSNTYPE
380
     0
  9
$PSTYLEMODE
290
     1
  9
$FINGERPRINTGUID
  2
{6C11249F-C408-2355-21C9-686D01E88B27}
  9
$VERSIONGUID
  2
{FAEB1C32-E019-11D5-929B-00C0DF256EC4}
  9
$EXTNAMES
290
     1
  9
$PSVPSCALE
 40
0.0
  9
$OLESTARTUP
290
     0
  9
$SORTENTS
280
   127
  9
$INDEXCTL
280
     0
  9
$HIDETEXT
280
     1
  9
$XCLIPFRAME
280
     2
  9
$HALOGAP
280
     0
  9
$OBSCOLOR
 70
   257
  9
$OBSLTYPE
280
     0
  9
$INTERSECTIONDISPLAY
280
     0
  9
$INTERSECTIONCOLOR
 70
   257
  9
$DIMASSOC
280
     2
  9
$PROJECTNAME
  1

  9
$CAMERADISPLAY
290
     0
  9
$LENSLENGTH
 40
50.0
  9
$CAMERAHEIGHT
 40
0.0
  9
$STEPSPERSEC
 40
2.0
  9
$STEPSIZE
 40
6.0
  9
$3DDWFPREC
 40
2.0
  9
$PSOLWIDTH
 40
0.25
  9
$PSOLHEIGHT
 40
4.0
  9
$LOFTANG1
 40
1.570796326794897
  9
$LOFTANG2
 40
1.570796326794897
  9
$LOFTMAG1
 40
0.0
  9
$LOFTMAG2
 40
0.0
  9
$LOFTPARAM
 70
     7
  9
$LOFTNORMALS
280
     1
  9
$LATITUDE
 40
37.795
  9
$LONGITUDE
 40
-122.394
  9
$NORTHDIRECTION
 40
0.0
  9
$TIMEZONE
 70
 -8000
  9
$LIGHTGLYPHDISPLAY
280
     1
  9
$TILEMODELIGHTSYNCH
280
     1
  9
$CMATERIAL
347
3C
  9
$SOLIDHIST
280
     1
  9
$SHOWHIST
280
     1
  9
$DWFFRAME
280
     2
  9
$DGNFRAME
280
     2
  9
$REALWORLDSCALE
290
     1
  9
$INTERFERECOLOR
 62
   256
  9
$CSHADOW
280
     0
  9
$SHADOWPLANELOCATION
 40
0.0
  0
ENDSEC
  0
SECTION
  2
CLASSES
  0
CLASS
  1
ACDBDICTIONARYWDFLT
  2
AcDbDictionaryWithDefault
  3
ObjectDBX Classes
 90
        0
 91
        4
280
     0
281
     0
  0
CLASS
  1
VISUALSTYLE
  2
AcDbVisualStyle
  3
ObjectDBX Classes
 90
     4095
 91
        4
280
     0
281
     0
  0
CLASS
  1
MATERIAL
  2
AcDbMaterial
  3
ObjectDBX Classes
 90
     1153
 91
        4
280
     0
281
     0
  0
CLASS
  1
SUN
  2
AcDbSun
  3
SCENEOE
 90
     1024
 91
        4
280
     0
281
     0
  0
ENDSEC
  0
SECTION
  2
TABLES
  0
TABLE
  2
VPORT
  5
8
330
0
100
AcDbSymbolTable
 70
     1
  0
VPORT
  5
29
330
8
100
AcDbSymbolTableRecord
100
AcDbViewportTableRecord
  2
*Active
 70
     0
 10
0.0
 20
0.0
 11
1.0
 21
1.0
 12
0.0
 22
0.0
 13
0.0
 23
0.0
 14
0.5
 24
0.5
 15
0.5
 25
0.5
 16
0.0
 26
0.0
 36
1.0
 17
149.8845493880323
 27
-150.3388633428149
 37
0.0
 40
111.4998846904501
 41
1.6970843776348
 42
50.0
 43
0.0
 44
0.0
 50
0.0
 51
0.0
 71
     0
 72
   100
 73
     1
 74
     3
 75
     0
 76
     0
 77
     0
 78
     0
281
     0
 65
     1
110
0.0
120
0.0
130
0.0
111
1.0
121
0.0
131
0.0
112
0.0
122
1.0
132
0.0
 79
     0
146
0.0
 60
     3
 61
     5
292
     1
282
     1
141
0.0
142
0.0
 63
   250
361
3F
  0
ENDTAB
  0
TABLE
  2
LTYPE
  5
5
330
0
100
AcDbSymbolTable
 70
     1
  0
LTYPE
  5
14
330
5
100
AcDbSymbolTableRecord
100
AcDbLinetypeTableRecord
  2
ByBlock
 70
     0
  3

 72
    65
 73
     0
 40
0.0
  0
LTYPE
  5
15
330
5
100
AcDbSymbolTableRecord
100
AcDbLinetypeTableRecord
  2
ByLayer
 70
     0
  3

 72
    65
 73
     0
 40
0.0
  0
LTYPE
  5
16
330
5
100
AcDbSymbolTableRecord
100
AcDbLinetypeTableRecord
  2
Continuous
 70
     0
  3
Solid line
 72
    65
 73
     0
 40
0.0
  0
ENDTAB
  0
TABLE
  2
LAYER
  5
2
330
0
100
AcDbSymbolTable
 70
     2
  0
LAYER
  5
10
330
2
100
AcDbSymbolTableRecord
100
AcDbLayerTableRecord
  2
0
 70
     0
 62
     7
  6
Continuous
370
    -3
390
F
347
3E
  0
LAYER
  5
40
330
2
100
AcDbSymbolTableRecord
100
AcDbLayerTableRecord
  2
Layer 1
 70
     0
 62
     7
  6
Continuous
370
    -3
390
F
347
3E
  0
ENDTAB
  0
TABLE
  2
STYLE
  5
3
330
0
100
AcDbSymbolTable
 70
     1
  0
STYLE
  5
11
330
3
100
AcDbSymbolTableRecord
100
AcDbTextStyleTableRecord
  2
Standard
 70
     0
 40
0.0
 41
1.0
 50
0.0
 71
     0
 42
0.2
  3
txt
  4

  0
ENDTAB
  0
TABLE
  2
VIEW
  5
6
330
0
100
AcDbSymbolTable
 70
     0
  0
ENDTAB
  0
TABLE
  2
UCS
  5
7
330
0
100
AcDbSymbolTable
 70
     0
  0
ENDTAB
  0
TABLE
  2
APPID
  5
9
330
0
100
AcDbSymbolTable
 70
     1
  0
APPID
  5
12
330
9
100
AcDbSymbolTableRecord
100
AcDbRegAppTableRecord
  2
ACAD
 70
     0
  0
ENDTAB
  0
TABLE
  2
DIMSTYLE
  5
A
330
0
100
AcDbSymbolTable
 70
     1
100
AcDbDimStyleTable
  0
DIMSTYLE
105
27
330
A
100
AcDbSymbolTableRecord
100
AcDbDimStyleTableRecord
  2
Standard
 70
     0
178
     0
340
11
  0
ENDTAB
  0
TABLE
  2
BLOCK_RECORD
  5
1
330
0
100
AcDbSymbolTable
 70
     2
  0
BLOCK_RECORD
  5
1F
330
1
100
AcDbSymbolTableRecord
100
AcDbBlockTableRecord
  2
*Model_Space
340
22
 70
     0
280
     1
281
     0
  0
BLOCK_RECORD
  5
1B
330
1
100
AcDbSymbolTableRecord
100
AcDbBlockTableRecord
  2
*Paper_Space
340
1E
 70
     0
280
     1
281
     0
  0
BLOCK_RECORD
  5
23
330
1
100
AcDbSymbolTableRecord
100
AcDbBlockTableRecord
  2
*Paper_Space0
340
26
 70
     0
280
     1
281
     0
  0
BLOCK_RECORD
  5
4A
330
1
100
AcDbSymbolTableRecord
100
AcDbBlockTableRecord
  2
block 2
340
0
102
{BLKREFS
331
4B
102
}
 70
     0
280
     1
281
     0
  0
ENDTAB
  0
ENDSEC
  0
SECTION
  2
BLOCKS
  0
BLOCK
  5
20
330
1F
100
AcDbEntity
  8
0
100
AcDbBlockBegin
  2
*Model_Space
 70
     0
 10
0.0
 20
0.0
 30
0.0
  3
*Model_Space
  1

  0
ENDBLK
  5
21
330
1F
100
AcDbEntity
  8
0
100
AcDbBlockEnd
  0
BLOCK
  5
1C
330
1B
100
AcDbEntity
 67
     1
  8
0
100
AcDbBlockBegin
  2
*Paper_Space
 70
     0
 10
0.0
 20
0.0
 30
0.0
  3
*Paper_Space
  1

  0
ENDBLK
  5
1D
330
1B
100
AcDbEntity
 67
     1
  8
0
100
AcDbBlockEnd
  0
BLOCK
  5
24
330
23
100
AcDbEntity
  8
0
100
AcDbBlockBegin
  2
*Paper_Space0
 70
     0
 10
0.0
 20
0.0
 30
0.0
  3
*Paper_Space0
  1

  0
ENDBLK
  5
25
330
23
100
AcDbEntity
  8
0
100
AcDbBlockEnd
  0
BLOCK
  5
4C
330
4A
100
AcDbEntity
  8
0
100
AcDbBlockBegin
  2
block 2
 70
     0
 10
0.0
 20
0.0
 30
0.0
  3
block 2
  1

  0
SPLINE
  5
4E
330
4A
100
AcDbEntity
  8
Layer 1
 62
   178
420
    65793
370
    25
100
AcDbSpline
210
0.0
220
0.0
230
1.0
 70
    11
 71
     3
 72
    17
 73
    13
 74
     0
 42
0.0000000001
 43
0.0000000001
 12
1.0
 22
0.0
 32
0.0
 13
1.0
 23
0.0
 33
0.0
 40
0.0
 40
0.0
 40
0.0
 40
0.0
 40
1.0
 40
1.0
 40
1.0
 40
2.0
 40
2.0
 40
2.0
 40
3.0
 40
3.0
 40
3.0
 40
4.0
 40
4.0
 40
4.0
 40
4.0
 10
117.4534476323565
 20
-195.4389204247562
 30
0.0
 10
143.5513690874359
 20
-195.4389204247562
 30
0.0
 10
169.6492905425149
 20
-195.4389204247562
 30
0.0
 10
195.7472119975943
 20
-195.4389204247562
 30
0.0
 10
195.7472119975943
 20
-195.4389204247562
 30
0.0
 10
195.7472119975943
 20
-181.4389200388392
 30
0.0
 10
195.7472119975943
 20
-181.4389200388392
 30
0.0
 10
169.6492905425149
 20
-181.4389200388392
 30
0.0
 10
143.5513690874359
 20
-181.4389200388392
 30
0.0
 10
117.4534476323565
 20
-181.4389200388392
 30
0.0
 10
117.4534476323565
 20
-181.4389200388392
 30
0.0
 10
117.4534476323565
 20
-195.4389204247562
 30
0.0
 10
117.4534476323565
 20
-195.4389204247562
 30
0.0
  0
SPLINE
  5
4F
330
4A
100
AcDbEntity
  8
Layer 1
 62
   178
420
    65793
370
    25
100
AcDbSpline
210
0.0
220
0.0
230
1.0
 70
    11
 71
     3
 72
    89
 73
    85
 74
     0
 42
0.0000000001
 43
0.0000000001
 12
1.0
 22
0.0
 32
0.0
 13
1.0
 23
0.0
 33
0.0
 40
0.0
 40
0.0
 40
0.0
 40
0.0
 40
1.0
 40
1.0
 40
1.0
 40
2.0
 40
2.0
 40
2.0
 40
3.0
 40
3.0
 40
3.0
 40
4.0
 40
4.0
 40
4.0
 40
5.0
 40
5.0
 40
5.0
 40
6.0
 40
6.0
 40
6.0
 40
7.0
 40
7.0
 40
7.0
 40
8.0
 40
8.0
 40
8.0
 40
9.0
 40
9.0
 40
9.0
 40
10.0
 40
10.0
 40
10.0
 40
11.0
 40
11.0
 40
11.0
 40
12.0
 40
12.0
 40
12.0
 40
13.0
 40
13.0
 40
13.0
 40
14.0
 40
14.0
 40
14.0
 40
15.0
 40
15.0
 40
15.0
 40
16.0
 40
16.0
 40
16.0
 40
17.0
 40
17.0
 40
17.0
 40
18.0
 40
18.0
 40
18.0
 40
19.0
 40
19.0
 40
19.0
 40
20.0
 40
20.0
 40
20.0
 40
21.0
 40
21.0
 40
21.0
 40
22.0
 40
22.0
 40
22.0
 40
23.0
 40
23.0
 40
23.0
 40
24.0
 40
24.0
 40
24.0
 40
25.0
 40
25.0
 40
25.0
 40
26.0
 40
26.0
 40
26.0
 40
27.0
 40
27.0
 40
27.0
 40
28.0
 40
28.0
 40
28.0
 40
28.0
 10
196.0346875914562
 20
-138.2889211382063
 30
0.0
 10
196.0346875914562
 20
-138.2889211382063
 30
0.0
 10
198.4159437606123
 20
-138.2889211382063
 30
0.0
 10
198.4159437606123
 20
-138.2889211382063
 30
0.0
 10
198.4159437606123
 20
-138.2889211382063
 30
0.0
 10
198.4159437606123
 20
-143.3389205144732
 30
0.0
 10
198.4159437606123
 20
-143.3389205144732
 30
0.0
 10
191.2721955981965
 20
-143.3389205144732
 30
0.0
 10
184.1284474357807
 20
-143.3389205144732
 30
0.0
 10
176.984699273365
 20
-143.3389205144732
 30
0.0
 10
176.984699273365
 20
-143.3389205144732
 30
0.0
 10
176.984699273365
 20
-157.3389209003896
 30
0.0
 10
176.984699273365
 20
-157.3389209003896
 30
0.0
 10
176.984699273365
 20
-157.3389209003896
 30
0.0
 10
180.4529610877193
 20
-157.3389209003896
 30
0.0
 10
180.4529610877193
 20
-157.3389209003896
 30
0.0
 10
180.4529610877193
 20
-157.3389209003896
 30
0.0
 10
180.4529610877193
 20
-159.3389209555206
 30
0.0
 10
180.4529610877193
 20
-159.3389209555206
 30
0.0
 10
180.4529610877193
 20
-159.3389209555206
 30
0.0
 10
187.4529612806778
 20
-159.3389209555206
 30
0.0
 10
187.4529612806778
 20
-159.3389209555206
 30
0.0
 10
187.4529612806778
 20
-159.3389209555206
 30
0.0
 10
187.4529612806778
 20
-157.3389209003896
 30
0.0
 10
187.4529612806778
 20
-157.3389209003896
 30
0.0
 10
192.5989575162798
 20
-157.3389209003896
 30
0.0
 10
197.7449537518818
 20
-157.3389209003896
 30
0.0
 10
202.8909499874837
 20
-157.3389209003896
 30
0.0
 10
202.8909499874837
 20
-157.3389209003896
 30
0.0
 10
202.8909499874837
 20
-156.2519228845861
 30
0.0
 10
202.8909499874837
 20
-156.2519228845861
 30
0.0
 10
202.8909499874837
 20
-156.2519228845861
 30
0.0
 10
204.3289383083726
 20
-156.2519228845861
 30
0.0
 10
204.3289383083726
 20
-156.2519228845861
 30
0.0
 10
204.3289383083726
 20
-156.2519228845861
 30
0.0
 10
204.3289383083726
 20
-159.3389209555206
 30
0.0
 10
204.3289383083726
 20
-159.3389209555206
 30
0.0
 10
204.3289383083726
 20
-159.3389209555206
 30
0.0
 10
211.3289385013311
 20
-159.3389209555206
 30
0.0
 10
211.3289385013311
 20
-159.3389209555206
 30
0.0
 10
211.3289385013311
 20
-159.3389209555206
 30
0.0
 10
211.3289385013311
 20
-156.2519228845861
 30
0.0
 10
211.3289385013311
 20
-156.2519228845861
 30
0.0
 10
211.3289385013311
 20
-156.2519228845861
 30
0.0
 10
212.4159441465293
 20
-156.2519228845861
 30
0.0
 10
212.4159441465293
 20
-156.2519228845861
 30
0.0
 10
212.4159441465293
 20
-156.2519228845861
 30
0.0
 10
212.4159441465293
 20
-149.2519226916282
 30
0.0
 10
212.4159441465293
 20
-149.2519226916282
 30
0.0
 10
212.4159441465293
 20
-149.2519226916282
 30
0.0
 10
211.3289385013311
 20
-149.2519226916282
 30
0.0
 10
211.3289385013311
 20
-149.2519226916282
 30
0.0
 10
211.3289385013311
 20
-149.2519226916282
 30
0.0
 10
211.3289385013311
 20
-147.8139229266466
 30
0.0
 10
211.3289385013311
 20
-147.8139229266466
 30
0.0
 10
211.3289385013311
 20
-147.8139229266466
 30
0.0
 10
212.4159441465293
 20
-147.8139229266466
 30
0.0
 10
212.4159441465293
 20
-147.8139229266466
 30
0.0
 10
212.4159441465293
 20
-147.8139229266466
 30
0.0
 10
212.4159441465293
 20
-133.8139225407296
 30
0.0
 10
212.4159441465293
 20
-133.8139225407296
 30
0.0
 10
212.4159441465293
 20
-133.8139225407296
 30
0.0
 10
210.0346879773732
 20
-133.8139225407296
 30
0.0
 10
210.0346879773732
 20
-133.8139225407296
 30
0.0
 10
210.0346879773732
 20
-133.8139225407296
 30
0.0
 10
210.0346879773732
 20
-132.3759208684002
 30
0.0
 10
210.0346879773732
 20
-132.3759208684002
 30
0.0
 10
210.0346879773732
 20
-132.3759208684002
 30
0.0
 10
212.4159441465293
 20
-132.3759208684002
 30
0.0
 10
212.4159441465293
 20
-132.3759208684002
 30
0.0
 10
212.4159441465293
 20
-132.3759208684002
 30
0.0
 10
212.4159441465293
 20
-125.3759206754417
 30
0.0
 10
212.4159441465293
 20
-125.3759206754417
 30
0.0
 10
212.4159441465293
 20
-125.3759206754417
 30
0.0
 10
210.0346879773732
 20
-125.3759206754417
 30
0.0
 10
210.0346879773732
 20
-125.3759206754417
 30
0.0
 10
210.0346879773732
 20
-125.3759206754417
 30
0.0
 10
210.0346879773732
 20
-124.2889207522896
 30
0.0
 10
210.0346879773732
 20
-124.2889207522896
 30
0.0
 10
210.0346879773732
 20
-124.2889207522896
 30
0.0
 10
196.0346875914562
 20
-124.2889207522896
 30
0.0
 10
196.0346875914562
 20
-124.2889207522896
 30
0.0
 10
196.0346875914562
 20
-124.2889207522896
 30
0.0
 10
196.0346875914562
 20
-138.2889211382063
 30
0.0
 10
196.0346875914562
 20
-138.2889211382063
 30
0.0
  0
SPLINE
  5
50
330
4A
100
AcDbEntity
  8
Layer 1
 62
   178
420
    65793
370
    25
100
AcDbSpline
210
0.0
220
0.0
230
1.0
 70
    11
 71
     3
 72
    44
 73
    40
 74
     0
 42
0.0000000001
 43
0.0000000001
 12
1.0
 22
0.0
 32
0.0
 13
1.0
 23
0.0
 33
0.0
 40
0.0
 40
0.0
 40
0.0
 40
0.0
 40
1.0
 40
1.0
 40
1.0
 40
2.0
 40
2.0
 40
2.0
 40
3.0
 40
3.0
 40
3.0
 40
4.0
 40
4.0
 40
4.0
 40
5.0
 40
5.0
 40
5.0
 40
6.0
 40
6.0
 40
6.0
 40
7.0
 40
7.0
 40
7.0
 40
8.0
 40
8.0
 40
8.0
 40
9.0
 40
9.0
 40
9.0
 40
10.0
 40
10.0
 40
10.0
 40
11.0
 40
11.0
 40
11.0
 40
12.0
 40
12.0
 40
12.0
 40
13.0
 40
13.0
 40
13.0
 40
13.0
 10
88.87844989643025
 20
-195.4389204247562
 30
0.0
 10
97.51386680113652
 20
-195.4389204247562
 30
0.0
 10
106.1492837058428
 20
-195.4389204247562
 30
0.0
 10
114.784700610549
 20
-195.4389204247562
 30
0.0
 10
114.784700610549
 20
-195.4389204247562
 30
0.0
 10
114.784700610549
 20
-181.4389200388392
 30
0.0
 10
114.784700610549
 20
-181.4389200388392
 30
0.0
 10
114.784700610549
 20
-181.4389200388392
 30
0.0
 10
111.3164540549841
 20
-181.4389200388392
 30
0.0
 10
111.3164540549841
 20
-181.4389200388392
 30
0.0
 10
111.3164540549841
 20
-181.4389200388392
 30
0.0
 10
111.3164540549841
 20
-179.4389199837082
 30
0.0
 10
111.3164540549841
 20
-179.4389199837082
 30
0.0
 10
107.3956165445605
 20
-179.4389199837082
 30
0.0
 10
103.4747790341369
 20
-179.4389199837082
 30
0.0
 10
99.55394152371333
 20
-179.4389199837082
 30
0.0
 10
99.55394152371333
 20
-179.4389199837082
 30
0.0
 10
99.55394152371333
 20
-181.4389200388392
 30
0.0
 10
99.55394152371333
 20
-181.4389200388392
 30
0.0
 10
95.51610978805952
 20
-181.4389200388392
 30
0.0
 10
91.47827805240571
 20
-181.4389200388392
 30
0.0
 10
87.4404463167519
 20
-181.4389200388392
 30
0.0
 10
87.4404463167519
 20
-181.4389200388392
 30
0.0
 10
87.4404463167519
 20
-179.4389199837082
 30
0.0
 10
87.4404463167519
 20
-179.4389199837082
 30
0.0
 10
83.51961389259147
 20
-179.4389199837082
 30
0.0
 10
79.59878146843103
 20
-179.4389199837082
 30
0.0
 10
75.6779490442706
 20
-179.4389199837082
 30
0.0
 10
75.6779490442706
 20
-179.4389199837082
 30
0.0
 10
75.6779490442706
 20
-181.4389200388392
 30
0.0
 10
75.6779490442706
 20
-181.4389200388392
 30
0.0
 10
75.6779490442706
 20
-181.4389200388392
 30
0.0
 10
74.59094339907237
 20
-181.4389200388392
 30
0.0
 10
74.59094339907237
 20
-181.4389200388392
 30
0.0
 10
74.59094339907237
 20
-181.4389200388392
 30
0.0
 10
74.59094339907237
 20
-195.4389204247562
 30
0.0
 10
74.59094339907237
 20
-195.4389204247562
 30
0.0
 10
79.35344556485833
 20
-195.4389204247562
 30
0.0
 10
84.1159477306443
 20
-195.4389204247562
 30
0.0
 10
88.87844989643025
 20
-195.4389204247562
 30
0.0
  0
SPLINE
  5
51
330
4A
100
AcDbEntity
  8
Layer 1
 62
   178
420
    65793
370
    25
100
AcDbSpline
210
0.0
220
0.0
230
1.0
 70
    11
 71
     3
 72
    41
 73
    37
 74
     0
 42
0.0000000001
 43
0.0000000001
 12
1.0
 22
0.0
 32
0.0
 13
1.0
 23
0.0
 33
0.0
 40
0.0
 40
0.0
 40
0.0
 40
0.0
 40
1.0
 40
1.0
 40
1.0
 40
2.0
 40
2.0
 40
2.0
 40
3.0
 40
3.0
 40
3.0
 40
4.0
 40
4.0
 40
4.0
 40
5.0
 40
5.0
 40
5.0
 40
6.0
 40
6.0
 40
6.0
 40
7.0
 40
7.0
 40
7.0
 40
8.0
 40
8.0
 40
8.0
 40
9.0
 40
9.0
 40
9.0
 40
10.0
 40
10.0
 40
10.0
 40
11.0
 40
11.0
 40
11.0
 40
12.0
 40
12.0
 40
12.0
 40
12.0
 10
181.7472116116772
 20
-119.2389213760233
 30
0.0
 10
181.7472116116772
 20
-119.2389213760233
 30
0.0
 10
182.8341867392965
 20
-119.2389213760233
 30
0.0
 10
182.8341867392965
 20
-119.2389213760233
 30
0.0
 10
182.8341867392965
 20
-119.2389213760233
 30
0.0
 10
182.8341867392965
 20
-121.2389214311543
 30
0.0
 10
182.8341867392965
 20
-121.2389214311543
 30
0.0
 10
182.8341867392965
 20
-121.2389214311543
 30
0.0
 10
189.834186932255
 20
-121.2389214311543
 30
0.0
 10
189.834186932255
 20
-121.2389214311543
 30
0.0
 10
189.834186932255
 20
-121.2389214311543
 30
0.0
 10
189.834186932255
 20
-119.2389213760233
 30
0.0
 10
189.834186932255
 20
-119.2389213760233
 30
0.0
 10
195.4595227806796
 20
-119.2389213760233
 30
0.0
 10
201.0848586291042
 20
-119.2389213760233
 30
0.0
 10
206.7101944775287
 20
-119.2389213760233
 30
0.0
 10
206.7101944775287
 20
-119.2389213760233
 30
0.0
 10
206.7101944775287
 20
-121.2389214311543
 30
0.0
 10
206.7101944775287
 20
-121.2389214311543
 30
0.0
 10
206.7101944775287
 20
-121.2389214311543
 30
0.0
 10
213.7101946704872
 20
-121.2389214311543
 30
0.0
 10
213.7101946704872
 20
-121.2389214311543
 30
0.0
 10
213.7101946704872
 20
-121.2389214311543
 30
0.0
 10
213.7101946704872
 20
-119.2389213760233
 30
0.0
 10
213.7101946704872
 20
-119.2389213760233
 30
0.0
 10
213.7101946704872
 20
-119.2389213760233
 30
0.0
 10
214.7972003156855
 20
-119.2389213760233
 30
0.0
 10
214.7972003156855
 20
-119.2389213760233
 30
0.0
 10
214.7972003156855
 20
-119.2389213760233
 30
0.0
 10
214.7972003156855
 20
-105.2389209901063
 30
0.0
 10
214.7972003156855
 20
-105.2389209901063
 30
0.0
 10
203.7805374143494
 20
-105.2389209901063
 30
0.0
 10
192.7638745130133
 20
-105.2389209901063
 30
0.0
 10
181.7472116116772
 20
-105.2389209901063
 30
0.0
 10
181.7472116116772
 20
-105.2389209901063
 30
0.0
 10
181.7472116116772
 20
-119.2389213760233
 30
0.0
 10
181.7472116116772
 20
-119.2389213760233
 30
0.0
  0
SPLINE
  5
52
330
4A
100
AcDbEntity
  8
Layer 1
 62
   178
420
    65793
370
    25
100
AcDbSpline
210
0.0
220
0.0
230
1.0
 70
    11
 71
     3
 72
    32
 73
    28
 74
     0
 42
0.0000000001
 43
0.0000000001
 12
1.0
 22
0.0
 32
0.0
 13
1.0
 23
0.0
 33
0.0
 40
0.0
 40
0.0
 40
0.0
 40
0.0
 40
1.0
 40
1.0
 40
1.0
 40
2.0
 40
2.0
 40
2.0
 40
3.0
 40
3.0
 40
3.0
 40
4.0
 40
4.0
 40
4.0
 40
5.0
 40
5.0
 40
5.0
 40
6.0
 40
6.0
 40
6.0
 40
7.0
 40
7.0
 40
7.0
 40
8.0
 40
8.0
 40
8.0
 40
9.0
 40
9.0
 40
9.0
 40
9.0
 10
184.1284372632544
 20
-176.3889244772703
 30
0.0
 10
188.7951040585601
 20
-176.3889244772703
 30
0.0
 10
193.4617708538658
 20
-176.3889244772703
 30
0.0
 10
198.1284376491714
 20
-176.3889244772703
 30
0.0
 10
198.1284376491714
 20
-176.3889244772703
 30
0.0
 10
198.1284376491714
 20
-162.3889240913533
 30
0.0
 10
198.1284376491714
 20
-162.3889240913533
 30
0.0
 10
190.2867728008506
 20
-162.3889240913533
 30
0.0
 10
182.4451079525297
 20
-162.3889240913533
 30
0.0
 10
174.6034431042088
 20
-162.3889240913533
 30
0.0
 10
174.6034431042088
 20
-162.3889240913533
 30
0.0
 10
174.6034431042088
 20
-176.3889244772703
 30
0.0
 10
174.6034431042088
 20
-176.3889244772703
 30
0.0
 10
174.6034431042088
 20
-176.3889244772703
 30
0.0
 10
175.690448749407
 20
-176.3889244772703
 30
0.0
 10
175.690448749407
 20
-176.3889244772703
 30
0.0
 10
175.690448749407
 20
-176.3889244772703
 30
0.0
 10
175.690448749407
 20
-178.3889245324013
 30
0.0
 10
175.690448749407
 20
-178.3889245324013
 30
0.0
 10
175.690448749407
 20
-178.3889245324013
 30
0.0
 10
182.6904489423655
 20
-178.3889245324013
 30
0.0
 10
182.6904489423655
 20
-178.3889245324013
 30
0.0
 10
182.6904489423655
 20
-178.3889245324013
 30
0.0
 10
182.6904489423655
 20
-176.3889244772703
 30
0.0
 10
182.6904489423655
 20
-176.3889244772703
 30
0.0
 10
182.6904489423655
 20
-176.3889244772703
 30
0.0
 10
184.1284372632544
 20
-176.3889244772703
 30
0.0
 10
184.1284372632544
 20
-176.3889244772703
 30
0.0
  0
SPLINE
  5
53
330
4A
100
AcDbEntity
  8
Layer 1
 62
   178
420
    65793
370
    25
100
AcDbSpline
210
0.0
220
0.0
230
1.0
 70
    11
 71
     3
 72
    20
 73
    16
 74
     0
 42
0.0000000001
 43
0.0000000001
 12
1.0
 22
0.0
 32
0.0
 13
1.0
 23
0.0
 33
0.0
 40
0.0
 40
0.0
 40
0.0
 40
0.0
 40
1.0
 40
1.0
 40
1.0
 40
2.0
 40
2.0
 40
2.0
 40
3.0
 40
3.0
 40
3.0
 40
4.0
 40
4.0
 40
4.0
 40
5.0
 40
5.0
 40
5.0
 40
5.0
 10
155.5534547861176
 20
-176.3889244772703
 30
0.0
 10
160.2201215814233
 20
-176.3889244772703
 30
0.0
 10
164.886788376729
 20
-176.3889244772703
 30
0.0
 10
169.5534551720346
 20
-176.3889244772703
 30
0.0
 10
169.5534551720346
 20
-176.3889244772703
 30
0.0
 10
169.5534551720346
 20
-162.3889240913533
 30
0.0
 10
169.5534551720346
 20
-162.3889240913533
 30
0.0
 10
162.5055322075728
 20
-162.3889240913533
 30
0.0
 10
155.457609243111
 20
-162.3889240913533
 30
0.0
 10
148.4096862786495
 20
-162.3889240913533
 30
0.0
 10
148.4096862786495
 20
-162.3889240913533
 30
0.0
 10
148.4096862786495
 20
-176.3889244772703
 30
0.0
 10
148.4096862786495
 20
-176.3889244772703
 30
0.0
 10
148.4096862786495
 20
-176.3889244772703
 30
0.0
 10
155.5534547861176
 20
-176.3889244772703
 30
0.0
 10
155.5534547861176
 20
-176.3889244772703
 30
0.0
  0
SPLINE
  5
54
330
4A
100
AcDbEntity
  8
Layer 1
 62
   178
420
    65793
370
    25
100
AcDbSpline
210
0.0
220
0.0
230
1.0
 70
    11
 71
     3
 72
    23
 73
    19
 74
     0
 42
0.0000000001
 43
0.0000000001
 12
1.0
 22
0.0
 32
0.0
 13
1.0
 23
0.0
 33
0.0
 40
0.0
 40
0.0
 40
0.0
 40
0.0
 40
1.0
 40
1.0
 40
1.0
 40
2.0
 40
2.0
 40
2.0
 40
3.0
 40
3.0
 40
3.0
 40
4.0
 40
4.0
 40
4.0
 40
5.0
 40
5.0
 40
5.0
 40
6.0
 40
6.0
 40
6.0
 40
6.0
 10
199.5664564876393
 20
-178.3889245324013
 30
0.0
 10
199.5664564876393
 20
-178.3889245324013
 30
0.0
 10
206.5664566805978
 20
-178.3889245324013
 30
0.0
 10
206.5664566805978
 20
-178.3889245324013
 30
0.0
 10
206.5664566805978
 20
-178.3889245324013
 30
0.0
 10
206.5664566805978
 20
-176.3889244772703
 30
0.0
 10
206.5664566805978
 20
-176.3889244772703
 30
0.0
 10
206.5664566805978
 20
-176.3889244772703
 30
0.0
 10
214.7972003156855
 20
-176.3889244772703
 30
0.0
 10
214.7972003156855
 20
-176.3889244772703
 30
0.0
 10
214.7972003156855
 20
-176.3889244772703
 30
0.0
 10
214.7972003156855
 20
-162.3889240913533
 30
0.0
 10
214.7972003156855
 20
-162.3889240913533
 30
0.0
 10
209.7202857063367
 20
-162.3889240913533
 30
0.0
 10
204.643371096988
 20
-162.3889240913533
 30
0.0
 10
199.5664564876393
 20
-162.3889240913533
 30
0.0
 10
199.5664564876393
 20
-162.3889240913533
 30
0.0
 10
199.5664564876393
 20
-178.3889245324013
 30
0.0
 10
199.5664564876393
 20
-178.3889245324013
 30
0.0
  0
POLYLINE
  5
55
330
4A
100
AcDbEntity
  8
Layer 1
 62
   178
420
    65793
370
    25
100
AcDb2dPolyline
 66
     1
 10
0.0
 20
0.0
 30
0.0
  0
VERTEX
  5
56
330
55
100
AcDbEntity
  8
Layer 1
 62
   178
420
    65793
370
    25
100
AcDbVertex
100
AcDb2dVertex
 10
219.8471882478597
 20
-120.7389214173715
 30
0.0
  0
VERTEX
  5
57
330
55
100
AcDbEntity
  8
Layer 1
 62
   178
420
    65793
370
    25
100
AcDbVertex
100
AcDb2dVertex
 10
233.8471886337767
 20
-120.7389214173715
 30
0.0
  0
VERTEX
  5
58
330
55
100
AcDbEntity
  8
Layer 1
 62
   178
420
    65793
370
    25
100
AcDbVertex
100
AcDb2dVertex
 10
233.8471886337767
 20
-104.2389209625407
 30
0.0
  0
VERTEX
  5
59
330
55
100
AcDbEntity
  8
Layer 1
 62
   178
420
    65793
370
    25
100
AcDbVertex
100
AcDb2dVertex
 10
219.8471882478597
 20
-104.2389209625407
 30
0.0
  0
VERTEX
  5
5A
330
55
100
AcDbEntity
  8
Layer 1
 62
   178
420
    65793
370
    25
100
AcDbVertex
100
AcDb2dVertex
 10
219.8471882478597
 20
-120.7389214173715
 30
0.0
  0
SEQEND
  5
5B
330
55
100
AcDbEntity
  8
Layer 1
 62
   178
420
    65793
370
    25
  0
SPLINE
  5
5C
330
4A
100
AcDbEntity
  8
Layer 1
 62
   178
420
    65793
370
    25
100
AcDbSpline
210
0.0
220
0.0
230
1.0
 70
    11
 71
     3
 72
    17
 73
    13
 74
     0
 42
0.0000000001
 43
0.0000000001
 12
1.0
 22
0.0
 32
0.0
 13
1.0
 23
0.0
 33
0.0
 40
0.0
 40
0.0
 40
0.0
 40
0.0
 40
1.0
 40
1.0
 40
1.0
 40
2.0
 40
2.0
 40
2.0
 40
3.0
 40
3.0
 40
3.0
 40
4.0
 40
4.0
 40
4.0
 40
4.0
 10
198.4159437606123
 20
-195.4389204247562
 30
0.0
 10
203.8763626123034
 20
-195.4389204247562
 30
0.0
 10
209.3367814639944
 20
-195.4389204247562
 30
0.0
 10
214.7972003156855
 20
-195.4389204247562
 30
0.0
 10
214.7972003156855
 20
-195.4389204247562
 30
0.0
 10
214.7972003156855
 20
-181.4389200388392
 30
0.0
 10
214.7972003156855
 20
-181.4389200388392
 30
0.0
 10
209.3367814639944
 20
-181.4389200388392
 30
0.0
 10
203.8763626123034
 20
-181.4389200388392
 30
0.0
 10
198.4159437606123
 20
-181.4389200388392
 30
0.0
 10
198.4159437606123
 20
-181.4389200388392
 30
0.0
 10
198.4159437606123
 20
-195.4389204247562
 30
0.0
 10
198.4159437606123
 20
-195.4389204247562
 30
0.0
  0
POLYLINE
  5
5D
330
4A
100
AcDbEntity
  8
Layer 1
 62
   178
420
    65793
370
    25
100
AcDb2dPolyline
 66
     1
 10
0.0
 20
0.0
 30
0.0
  0
VERTEX
  5
5E
330
5D
100
AcDbEntity
  8
Layer 1
 62
   178
420
    65793
370
    25
100
AcDbVertex
100
AcDb2dVertex
 10
67.44719015039342
 20
-119.2389213760233
 30
0.0
  0
VERTEX
  5
5F
330
5D
100
AcDbEntity
  8
Layer 1
 62
   178
420
    65793
370
    25
100
AcDbVertex
100
AcDb2dVertex
 10
81.44719053631044
 20
-119.2389213760233
 30
0.0
  0
VERTEX
  5
60
330
5D
100
AcDbEntity
  8
Layer 1
 62
   178
420
    65793
370
    25
100
AcDbVertex
100
AcDb2dVertex
 10
81.44719053631044
 20
-105.2389209901063
 30
0.0
  0
VERTEX
  5
61
330
5D
100
AcDbEntity
  8
Layer 1
 62
   178
420
    65793
370
    25
100
AcDbVertex
100
AcDb2dVertex
 10
67.44719015039342
 20
-105.2389209901063
 30
0.0
  0
VERTEX
  5
62
330
5D
100
AcDbEntity
  8
Layer 1
 62
   178
420
    65793
370
    25
100
AcDbVertex
100
AcDb2dVertex
 10
67.44719015039342
 20
-119.2389213760233
 30
0.0
  0
SEQEND
  5
63
330
5D
100
AcDbEntity
  8
Layer 1
 62
   178
420
    65793
370
    25
  0
POLYLINE
  5
64
330
4A
100
AcDbEntity
  8
Layer 1
 62
   178
420
    65793
370
    25
100
AcDb2dPolyline
 66
     1
 10
0.0
 20
0.0
 30
0.0
  0
VERTEX
  5
65
330
64
100
AcDbEntity
  8
Layer 1
 62
   178
420
    65793
370
    25
100
AcDbVertex
100
AcDb2dVertex
 10
86.49719372727411
 20
-119.2389213760233
 30
0.0
  0
VERTEX
  5
66
330
64
100
AcDbEntity
  8
Layer 1
 62
   178
420
    65793
370
    25
100
AcDbVertex
100
AcDb2dVertex
 10
100.4971941131911
 20
-119.2389213760233
 30
0.0
  0
VERTEX
  5
67
330
64
100
AcDbEntity
  8
Layer 1
 62
   178
420
    65793
370
    25
100
AcDbVertex
100
AcDb2dVertex
 10
100.4971941131911
 20
-105.2389209901063
 30
0.0
  0
VERTEX
  5
68
330
64
100
AcDbEntity
  8
Layer 1
 62
   178
420
    65793
370
    25
100
AcDbVertex
100
AcDb2dVertex
 10
86.49719372727411
 20
-105.2389209901063
 30
0.0
  0
VERTEX
  5
69
330
64
100
AcDbEntity
  8
Layer 1
 62
   178
420
    65793
370
    25
100
AcDbVertex
100
AcDb2dVertex
 10
86.49719372727411
 20
-119.2389213760233
 30
0.0
  0
SEQEND
  5
6A
330
64
100
AcDbEntity
  8
Layer 1
 62
   178
420
    65793
370
    25
  0
POLYLINE
  5
6B
330
4A
100
AcDbEntity
  8
Layer 1
 62
   178
420
    65793
370
    25
100
AcDb2dPolyline
 66
     1
 10
0.0
 20
0.0
 30
0.0
  0
VERTEX
  5
6C
330
6B
100
AcDbEntity
  8
Layer 1
 62
   178
420
    65793
370
    25
100
AcDbVertex
100
AcDb2dVertex
 10
105.5471973041548
 20
-119.2389213760233
 30
0.0
  0
VERTEX
  5
6D
330
6B
100
AcDbEntity
  8
Layer 1
 62
   178
420
    65793
370
    25
100
AcDbVertex
100
AcDb2dVertex
 10
119.5471976900718
 20
-119.2389213760233
 30
0.0
  0
VERTEX
  5
6E
330
6B
100
AcDbEntity
  8
Layer 1
 62
   178
420
    65793
370
    25
100
AcDbVertex
100
AcDb2dVertex
 10
119.5471976900718
 20
-105.2389209901063
 30
0.0
  0
VERTEX
  5
6F
330
6B
100
AcDbEntity
  8
Layer 1
 62
   178
420
    65793
370
    25
100
AcDbVertex
100
AcDb2dVertex
 10
105.5471973041548
 20
-105.2389209901063
 30
0.0
  0
VERTEX
  5
70
330
6B
100
AcDbEntity
  8
Layer 1
 62
   178
420
    65793
370
    25
100
AcDbVertex
100
AcDb2dVertex
 10
105.5471973041548
 20
-119.2389213760233
 30
0.0
  0
SEQEND
  5
71
330
6B
100
AcDbEntity
  8
Layer 1
 62
   178
420
    65793
370
    25
  0
POLYLINE
  5
72
330
4A
100
AcDbEntity
  8
Layer 1
 62
   178
420
    65793
370
    25
100
AcDb2dPolyline
 66
     1
 10
0.0
 20
0.0
 30
0.0
  0
VERTEX
  5
73
330
72
100
AcDbEntity
  8
Layer 1
 62
   178
420
    65793
370
    25
100
AcDbVertex
100
AcDb2dVertex
 10
124.597185622246
 20
-119.2389213760233
 30
0.0
  0
VERTEX
  5
74
330
72
100
AcDbEntity
  8
Layer 1
 62
   178
420
    65793
370
    25
100
AcDbVertex
100
AcDb2dVertex
 10
138.597186008163
 20
-119.2389213760233
 30
0.0
  0
VERTEX
  5
75
330
72
100
AcDbEntity
  8
Layer 1
 62
   178
420
    65793
370
    25
100
AcDbVertex
100
AcDb2dVertex
 10
138.597186008163
 20
-105.2389209901063
 30
0.0
  0
VERTEX
  5
76
330
72
100
AcDbEntity
  8
Layer 1
 62
   178
420
    65793
370
    25
100
AcDbVertex
100
AcDb2dVertex
 10
124.597185622246
 20
-105.2389209901063
 30
0.0
  0
VERTEX
  5
77
330
72
100
AcDbEntity
  8
Layer 1
 62
   178
420
    65793
370
    25
100
AcDbVertex
100
AcDb2dVertex
 10
124.597185622246
 20
-119.2389213760233
 30
0.0
  0
SEQEND
  5
78
330
72
100
AcDbEntity
  8
Layer 1
 62
   178
420
    65793
370
    25
  0
POLYLINE
  5
79
330
4A
100
AcDbEntity
  8
Layer 1
 62
   178
420
    65793
370
    25
100
AcDb2dPolyline
 66
     1
 10
0.0
 20
0.0
 30
0.0
  0
VERTEX
  5
7A
330
79
100
AcDbEntity
  8
Layer 1
 62
   178
420
    65793
370
    25
100
AcDbVertex
100
AcDb2dVertex
 10
143.6472044579162
 20
-119.2389213760233
 30
0.0
  0
VERTEX
  5
7B
330
79
100
AcDbEntity
  8
Layer 1
 62
   178
420
    65793
370
    25
100
AcDbVertex
100
AcDb2dVertex
 10
157.6472048438329
 20
-119.2389213760233
 30
0.0
  0
VERTEX
  5
7C
330
79
100
AcDbEntity
  8
Layer 1
 62
   178
420
    65793
370
    25
100
AcDbVertex
100
AcDb2dVertex
 10
157.6472048438329
 20
-105.2389209901063
 30
0.0
  0
VERTEX
  5
7D
330
79
100
AcDbEntity
  8
Layer 1
 62
   178
420
    65793
370
    25
100
AcDbVertex
100
AcDb2dVertex
 10
143.6472044579162
 20
-105.2389209901063
 30
0.0
  0
VERTEX
  5
7E
330
79
100
AcDbEntity
  8
Layer 1
 62
   178
420
    65793
370
    25
100
AcDbVertex
100
AcDb2dVertex
 10
143.6472044579162
 20
-119.2389213760233
 30
0.0
  0
SEQEND
  5
7F
330
79
100
AcDbEntity
  8
Layer 1
 62
   178
420
    65793
370
    25
  0
POLYLINE
  5
80
330
4A
100
AcDbEntity
  8
Layer 1
 62
   178
420
    65793
370
    25
100
AcDb2dPolyline
 66
     1
 10
0.0
 20
0.0
 30
0.0
  0
VERTEX
  5
81
330
80
100
AcDbEntity
  8
Layer 1
 62
   178
420
    65793
370
    25
100
AcDbVertex
100
AcDb2dVertex
 10
162.6971927760071
 20
-119.2389213760233
 30
0.0
  0
VERTEX
  5
82
330
80
100
AcDbEntity
  8
Layer 1
 62
   178
420
    65793
370
    25
100
AcDbVertex
100
AcDb2dVertex
 10
176.6971931619241
 20
-119.2389213760233
 30
0.0
  0
VERTEX
  5
83
330
80
100
AcDbEntity
  8
Layer 1
 62
   178
420
    65793
370
    25
100
AcDbVertex
100
AcDb2dVertex
 10
176.6971931619241
 20
-105.2389209901063
 30
0.0
  0
VERTEX
  5
84
330
80
100
AcDbEntity
  8
Layer 1
 62
   178
420
    65793
370
    25
100
AcDbVertex
100
AcDb2dVertex
 10
162.6971927760071
 20
-105.2389209901063
 30
0.0
  0
VERTEX
  5
85
330
80
100
AcDbEntity
  8
Layer 1
 62
   178
420
    65793
370
    25
100
AcDbVertex
100
AcDb2dVertex
 10
162.6971927760071
 20
-119.2389213760233
 30
0.0
  0
SEQEND
  5
86
330
80
100
AcDbEntity
  8
Layer 1
 62
   178
420
    65793
370
    25
  0
POLYLINE
  5
87
330
4A
100
AcDbEntity
  8
Layer 1
 62
   178
420
    65793
370
    25
100
AcDb2dPolyline
 66
     1
 10
0.0
 20
0.0
 30
0.0
  0
VERTEX
  5
88
330
87
100
AcDbEntity
  8
Layer 1
 62
   178
420
    65793
370
    25
100
AcDbVertex
100
AcDb2dVertex
 10
57.92219599134782
 20
-138.2889211382063
 30
0.0
  0
VERTEX
  5
89
330
87
100
AcDbEntity
  8
Layer 1
 62
   178
420
    65793
370
    25
100
AcDbVertex
100
AcDb2dVertex
 10
71.92219637726484
 20
-138.2889211382063
 30
0.0
  0
VERTEX
  5
8A
330
87
100
AcDbEntity
  8
Layer 1
 62
   178
420
    65793
370
    25
100
AcDbVertex
100
AcDb2dVertex
 10
71.92219637726484
 20
-124.2889207522896
 30
0.0
  0
VERTEX
  5
8B
330
87
100
AcDbEntity
  8
Layer 1
 62
   178
420
    65793
370
    25
100
AcDbVertex
100
AcDb2dVertex
 10
57.92219599134782
 20
-124.2889207522896
 30
0.0
  0
VERTEX
  5
8C
330
87
100
AcDbEntity
  8
Layer 1
 62
   178
420
    65793
370
    25
100
AcDbVertex
100
AcDb2dVertex
 10
57.92219599134782
 20
-138.2889211382063
 30
0.0
  0
SEQEND
  5
8D
330
87
100
AcDbEntity
  8
Layer 1
 62
   178
420
    65793
370
    25
  0
POLYLINE
  5
8E
330
4A
100
AcDbEntity
  8
Layer 1
 62
   178
420
    65793
370
    25
100
AcDb2dPolyline
 66
     1
 10
0.0
 20
0.0
 30
0.0
  0
VERTEX
  5
8F
330
8E
100
AcDbEntity
  8
Layer 1
 62
   178
420
    65793
370
    25
100
AcDbVertex
100
AcDb2dVertex
 10
76.97219956822852
 20
-138.2889211382063
 30
0.0
  0
VERTEX
  5
90
330
8E
100
AcDbEntity
  8
Layer 1
 62
   178
420
    65793
370
    25
100
AcDbVertex
100
AcDb2dVertex
 10
90.97219995414552
 20
-138.2889211382063
 30
0.0
  0
VERTEX
  5
91
330
8E
100
AcDbEntity
  8
Layer 1
 62
   178
420
    65793
370
    25
100
AcDbVertex
100
AcDb2dVertex
 10
90.97219995414552
 20
-124.2889207522896
 30
0.0
  0
VERTEX
  5
92
330
8E
100
AcDbEntity
  8
Layer 1
 62
   178
420
    65793
370
    25
100
AcDbVertex
100
AcDb2dVertex
 10
76.97219956822852
 20
-124.2889207522896
 30
0.0
  0
VERTEX
  5
93
330
8E
100
AcDbEntity
  8
Layer 1
 62
   178
420
    65793
370
    25
100
AcDbVertex
100
AcDb2dVertex
 10
76.97219956822852
 20
-138.2889211382063
 30
0.0
  0
SEQEND
  5
94
330
8E
100
AcDbEntity
  8
Layer 1
 62
   178
420
    65793
370
    25
  0
POLYLINE
  5
95
330
4A
100
AcDbEntity
  8
Layer 1
 62
   178
420
    65793
370
    25
100
AcDb2dPolyline
 66
     1
 10
0.0
 20
0.0
 30
0.0
  0
VERTEX
  5
96
330
95
100
AcDbEntity
  8
Layer 1
 62
   178
420
    65793
370
    25
100
AcDbVertex
100
AcDb2dVertex
 10
96.0222031451092
 20
-138.2889211382063
 30
0.0
  0
VERTEX
  5
97
330
95
100
AcDbEntity
  8
Layer 1
 62
   178
420
    65793
370
    25
100
AcDbVertex
100
AcDb2dVertex
 10
110.0222035310262
 20
-138.2889211382063
 30
0.0
  0
VERTEX
  5
98
330
95
100
AcDbEntity
  8
Layer 1
 62
   178
420
    65793
370
    25
100
AcDbVertex
100
AcDb2dVertex
 10
110.0222035310262
 20
-124.2889207522896
 30
0.0
  0
VERTEX
  5
99
330
95
100
AcDbEntity
  8
Layer 1
 62
   178
420
    65793
370
    25
100
AcDbVertex
100
AcDb2dVertex
 10
96.0222031451092
 20
-124.2889207522896
 30
0.0
  0
VERTEX
  5
9A
330
95
100
AcDbEntity
  8
Layer 1
 62
   178
420
    65793
370
    25
100
AcDbVertex
100
AcDb2dVertex
 10
96.0222031451092
 20
-138.2889211382063
 30
0.0
  0
SEQEND
  5
9B
330
95
100
AcDbEntity
  8
Layer 1
 62
   178
420
    65793
370
    25
  0
POLYLINE
  5
9C
330
4A
100
AcDbEntity
  8
Layer 1
 62
   178
420
    65793
370
    25
100
AcDb2dPolyline
 66
     1
 10
0.0
 20
0.0
 30
0.0
  0
VERTEX
  5
9D
330
9C
100
AcDbEntity
  8
Layer 1
 62
   178
420
    65793
370
    25
100
AcDbVertex
100
AcDb2dVertex
 10
115.0721914632004
 20
-138.2889211382063
 30
0.0
  0
VERTEX
  5
9E
330
9C
100
AcDbEntity
  8
Layer 1
 62
   178
420
    65793
370
    25
100
AcDbVertex
100
AcDb2dVertex
 10
129.0721918491174
 20
-138.2889211382063
 30
0.0
  0
VERTEX
  5
9F
330
9C
100
AcDbEntity
  8
Layer 1
 62
   178
420
    65793
370
    25
100
AcDbVertex
100
AcDb2dVertex
 10
129.0721918491174
 20
-124.2889207522896
 30
0.0
  0
VERTEX
  5
A0
330
9C
100
AcDbEntity
  8
Layer 1
 62
   178
420
    65793
370
    25
100
AcDbVertex
100
AcDb2dVertex
 10
115.0721914632004
 20
-124.2889207522896
 30
0.0
  0
VERTEX
  5
A1
330
9C
100
AcDbEntity
  8
Layer 1
 62
   178
420
    65793
370
    25
100
AcDbVertex
100
AcDb2dVertex
 10
115.0721914632004
 20
-138.2889211382063
 30
0.0
  0
SEQEND
  5
A2
330
9C
100
AcDbEntity
  8
Layer 1
 62
   178
420
    65793
370
    25
  0
POLYLINE
  5
A3
330
4A
100
AcDbEntity
  8
Layer 1
 62
   178
420
    65793
370
    25
100
AcDb2dPolyline
 66
     1
 10
0.0
 20
0.0
 30
0.0
  0
VERTEX
  5
A4
330
A3
100
AcDbEntity
  8
Layer 1
 62
   178
420
    65793
370
    25
100
AcDbVertex
100
AcDb2dVertex
 10
134.1222102988706
 20
-138.2889211382063
 30
0.0
  0
VERTEX
  5
A5
330
A3
100
AcDbEntity
  8
Layer 1
 62
   178
420
    65793
370
    25
100
AcDbVertex
100
AcDb2dVertex
 10
148.1222106847876
 20
-138.2889211382063
 30
0.0
  0
VERTEX
  5
A6
330
A3
100
AcDbEntity
  8
Layer 1
 62
   178
420
    65793
370
    25
100
AcDbVertex
100
AcDb2dVertex
 10
148.1222106847876
 20
-124.2889207522896
 30
0.0
  0
VERTEX
  5
A7
330
A3
100
AcDbEntity
  8
Layer 1
 62
   178
420
    65793
370
    25
100
AcDbVertex
100
AcDb2dVertex
 10
134.1222102988706
 20
-124.2889207522896
 30
0.0
  0
VERTEX
  5
A8
330
A3
100
AcDbEntity
  8
Layer 1
 62
   178
420
    65793
370
    25
100
AcDbVertex
100
AcDb2dVertex
 10
134.1222102988706
 20
-138.2889211382063
 30
0.0
  0
SEQEND
  5
A9
330
A3
100
AcDbEntity
  8
Layer 1
 62
   178
420
    65793
370
    25
  0
POLYLINE
  5
AA
330
4A
100
AcDbEntity
  8
Layer 1
 62
   178
420
    65793
370
    25
100
AcDb2dPolyline
 66
     1
 10
0.0
 20
0.0
 30
0.0
  0
VERTEX
  5
AB
330
AA
100
AcDbEntity
  8
Layer 1
 62
   178
420
    65793
370
    25
100
AcDbVertex
100
AcDb2dVertex
 10
153.1721986169615
 20
-138.2889211382063
 30
0.0
  0
VERTEX
  5
AC
330
AA
100
AcDbEntity
  8
Layer 1
 62
   178
420
    65793
370
    25
100
AcDbVertex
100
AcDb2dVertex
 10
167.1721990028785
 20
-138.2889211382063
 30
0.0
  0
VERTEX
  5
AD
330
AA
100
AcDbEntity
  8
Layer 1
 62
   178
420
    65793
370
    25
100
AcDbVertex
100
AcDb2dVertex
 10
167.1721990028785
 20
-124.2889207522896
 30
0.0
  0
VERTEX
  5
AE
330
AA
100
AcDbEntity
  8
Layer 1
 62
   178
420
    65793
370
    25
100
AcDbVertex
100
AcDb2dVertex
 10
153.1721986169615
 20
-124.2889207522896
 30
0.0
  0
VERTEX
  5
AF
330
AA
100
AcDbEntity
  8
Layer 1
 62
   178
420
    65793
370
    25
100
AcDbVertex
100
AcDb2dVertex
 10
153.1721986169615
 20
-138.2889211382063
 30
0.0
  0
SEQEND
  5
B0
330
AA
100
AcDbEntity
  8
Layer 1
 62
   178
420
    65793
370
    25
  0
POLYLINE
  5
B1
330
4A
100
AcDbEntity
  8
Layer 1
 62
   178
420
    65793
370
    25
100
AcDb2dPolyline
 66
     1
 10
0.0
 20
0.0
 30
0.0
  0
VERTEX
  5
B2
330
B1
100
AcDbEntity
  8
Layer 1
 62
   178
420
    65793
370
    25
100
AcDbVertex
100
AcDb2dVertex
 10
172.2221869350527
 20
-138.2889211382063
 30
0.0
  0
VERTEX
  5
B3
330
B1
100
AcDbEntity
  8
Layer 1
 62
   178
420
    65793
370
    25
100
AcDbVertex
100
AcDb2dVertex
 10
186.2221873209697
 20
-138.2889211382063
 30
0.0
  0
VERTEX
  5
B4
330
B1
100
AcDbEntity
  8
Layer 1
 62
   178
420
    65793
370
    25
100
AcDbVertex
100
AcDb2dVertex
 10
186.2221873209697
 20
-124.2889207522896
 30
0.0
  0
VERTEX
  5
B5
330
B1
100
AcDbEntity
  8
Layer 1
 62
   178
420
    65793
370
    25
100
AcDbVertex
100
AcDb2dVertex
 10
172.2221869350527
 20
-124.2889207522896
 30
0.0
  0
VERTEX
  5
B6
330
B1
100
AcDbEntity
  8
Layer 1
 62
   178
420
    65793
370
    25
100
AcDbVertex
100
AcDb2dVertex
 10
172.2221869350527
 20
-138.2889211382063
 30
0.0
  0
SEQEND
  5
B7
330
B1
100
AcDbEntity
  8
Layer 1
 62
   178
420
    65793
370
    25
  0
POLYLINE
  5
B8
330
4A
100
AcDbEntity
  8
Layer 1
 62
   178
420
    65793
370
    25
100
AcDb2dPolyline
 66
     1
 10
0.0
 20
0.0
 30
0.0
  0
VERTEX
  5
B9
330
B8
100
AcDbEntity
  8
Layer 1
 62
   178
420
    65793
370
    25
100
AcDbVertex
100
AcDb2dVertex
 10
219.8471882478597
 20
-138.2889211382063
 30
0.0
  0
VERTEX
  5
BA
330
B8
100
AcDbEntity
  8
Layer 1
 62
   178
420
    65793
370
    25
100
AcDbVertex
100
AcDb2dVertex
 10
233.8471886337767
 20
-138.2889211382063
 30
0.0
  0
VERTEX
  5
BB
330
B8
100
AcDbEntity
  8
Layer 1
 62
   178
420
    65793
370
    25
100
AcDbVertex
100
AcDb2dVertex
 10
233.8471886337767
 20
-124.2889207522896
 30
0.0
  0
VERTEX
  5
BC
330
B8
100
AcDbEntity
  8
Layer 1
 62
   178
420
    65793
370
    25
100
AcDbVertex
100
AcDb2dVertex
 10
219.8471882478597
 20
-124.2889207522896
 30
0.0
  0
VERTEX
  5
BD
330
B8
100
AcDbEntity
  8
Layer 1
 62
   178
420
    65793
370
    25
100
AcDbVertex
100
AcDb2dVertex
 10
219.8471882478597
 20
-138.2889211382063
 30
0.0
  0
SEQEND
  5
BE
330
B8
100
AcDbEntity
  8
Layer 1
 62
   178
420
    65793
370
    25
  0
POLYLINE
  5
BF
330
4A
100
AcDbEntity
  8
Layer 1
 62
   178
420
    65793
370
    25
100
AcDb2dPolyline
 66
     1
 10
0.0
 20
0.0
 30
0.0
  0
VERTEX
  5
C0
330
BF
100
AcDbEntity
  8
Layer 1
 62
   178
420
    65793
370
    25
100
AcDbVertex
100
AcDb2dVertex
 10
62.68469307087062
 20
-157.3389209003896
 30
0.0
  0
VERTEX
  5
C1
330
BF
100
AcDbEntity
  8
Layer 1
 62
   178
420
    65793
370
    25
100
AcDbVertex
100
AcDb2dVertex
 10
76.68469345678764
 20
-157.3389209003896
 30
0.0
  0
VERTEX
  5
C2
330
BF
100
AcDbEntity
  8
Layer 1
 62
   178
420
    65793
370
    25
100
AcDbVertex
100
AcDb2dVertex
 10
76.68469345678764
 20
-143.3389205144732
 30
0.0
  0
VERTEX
  5
C3
330
BF
100
AcDbEntity
  8
Layer 1
 62
   178
420
    65793
370
    25
100
AcDbVertex
100
AcDb2dVertex
 10
62.68469307087062
 20
-143.3389205144732
 30
0.0
  0
VERTEX
  5
C4
330
BF
100
AcDbEntity
  8
Layer 1
 62
   178
420
    65793
370
    25
100
AcDbVertex
100
AcDb2dVertex
 10
62.68469307087062
 20
-157.3389209003896
 30
0.0
  0
SEQEND
  5
C5
330
BF
100
AcDbEntity
  8
Layer 1
 62
   178
420
    65793
370
    25
  0
POLYLINE
  5
C6
330
4A
100
AcDbEntity
  8
Layer 1
 62
   178
420
    65793
370
    25
100
AcDb2dPolyline
 66
     1
 10
0.0
 20
0.0
 30
0.0
  0
VERTEX
  5
C7
330
C6
100
AcDbEntity
  8
Layer 1
 62
   178
420
    65793
370
    25
100
AcDbVertex
100
AcDb2dVertex
 10
81.7346966477513
 20
-157.3389209003896
 30
0.0
  0
VERTEX
  5
C8
330
C6
100
AcDbEntity
  8
Layer 1
 62
   178
420
    65793
370
    25
100
AcDbVertex
100
AcDb2dVertex
 10
95.73469703366833
 20
-157.3389209003896
 30
0.0
  0
VERTEX
  5
C9
330
C6
100
AcDbEntity
  8
Layer 1
 62
   178
420
    65793
370
    25
100
AcDbVertex
100
AcDb2dVertex
 10
95.73469703366833
 20
-143.3389205144732
 30
0.0
  0
VERTEX
  5
CA
330
C6
100
AcDbEntity
  8
Layer 1
 62
   178
420
    65793
370
    25
100
AcDbVertex
100
AcDb2dVertex
 10
81.7346966477513
 20
-143.3389205144732
 30
0.0
  0
VERTEX
  5
CB
330
C6
100
AcDbEntity
  8
Layer 1
 62
   178
420
    65793
370
    25
100
AcDbVertex
100
AcDb2dVertex
 10
81.7346966477513
 20
-157.3389209003896
 30
0.0
  0
SEQEND
  5
CC
330
C6
100
AcDbEntity
  8
Layer 1
 62
   178
420
    65793
370
    25
  0
POLYLINE
  5
CD
330
4A
100
AcDbEntity
  8
Layer 1
 62
   178
420
    65793
370
    25
100
AcDb2dPolyline
 66
     1
 10
0.0
 20
0.0
 30
0.0
  0
VERTEX
  5
CE
330
CD
100
AcDbEntity
  8
Layer 1
 62
   178
420
    65793
370
    25
100
AcDbVertex
100
AcDb2dVertex
 10
100.784700224632
 20
-157.3389209003896
 30
0.0
  0
VERTEX
  5
CF
330
CD
100
AcDbEntity
  8
Layer 1
 62
   178
420
    65793
370
    25
100
AcDbVertex
100
AcDb2dVertex
 10
114.784700610549
 20
-157.3389209003896
 30
0.0
  0
VERTEX
  5
D0
330
CD
100
AcDbEntity
  8
Layer 1
 62
   178
420
    65793
370
    25
100
AcDbVertex
100
AcDb2dVertex
 10
114.784700610549
 20
-143.3389205144732
 30
0.0
  0
VERTEX
  5
D1
330
CD
100
AcDbEntity
  8
Layer 1
 62
   178
420
    65793
370
    25
100
AcDbVertex
100
AcDb2dVertex
 10
100.784700224632
 20
-143.3389205144732
 30
0.0
  0
VERTEX
  5
D2
330
CD
100
AcDbEntity
  8
Layer 1
 62
   178
420
    65793
370
    25
100
AcDbVertex
100
AcDb2dVertex
 10
100.784700224632
 20
-157.3389209003896
 30
0.0
  0
SEQEND
  5
D3
330
CD
100
AcDbEntity
  8
Layer 1
 62
   178
420
    65793
370
    25
  0
POLYLINE
  5
D4
330
4A
100
AcDbEntity
  8
Layer 1
 62
   178
420
    65793
370
    25
100
AcDb2dPolyline
 66
     1
 10
0.0
 20
0.0
 30
0.0
  0
VERTEX
  5
D5
330
D4
100
AcDbEntity
  8
Layer 1
 62
   178
420
    65793
370
    25
100
AcDbVertex
100
AcDb2dVertex
 10
119.8347038015127
 20
-157.3389209003896
 30
0.0
  0
VERTEX
  5
D6
330
D4
100
AcDbEntity
  8
Layer 1
 62
   178
420
    65793
370
    25
100
AcDbVertex
100
AcDb2dVertex
 10
133.8347041874297
 20
-157.3389209003896
 30
0.0
  0
VERTEX
  5
D7
330
D4
100
AcDbEntity
  8
Layer 1
 62
   178
420
    65793
370
    25
100
AcDbVertex
100
AcDb2dVertex
 10
133.8347041874297
 20
-143.3389205144732
 30
0.0
  0
VERTEX
  5
D8
330
D4
100
AcDbEntity
  8
Layer 1
 62
   178
420
    65793
370
    25
100
AcDbVertex
100
AcDb2dVertex
 10
119.8347038015127
 20
-143.3389205144732
 30
0.0
  0
VERTEX
  5
D9
330
D4
100
AcDbEntity
  8
Layer 1
 62
   178
420
    65793
370
    25
100
AcDbVertex
100
AcDb2dVertex
 10
119.8347038015127
 20
-157.3389209003896
 30
0.0
  0
SEQEND
  5
DA
330
D4
100
AcDbEntity
  8
Layer 1
 62
   178
420
    65793
370
    25
  0
POLYLINE
  5
DB
330
4A
100
AcDbEntity
  8
Layer 1
 62
   178
420
    65793
370
    25
100
AcDb2dPolyline
 66
     1
 10
0.0
 20
0.0
 30
0.0
  0
VERTEX
  5
DC
330
DB
100
AcDbEntity
  8
Layer 1
 62
   178
420
    65793
370
    25
100
AcDbVertex
100
AcDb2dVertex
 10
138.8846921196039
 20
-157.3389209003896
 30
0.0
  0
VERTEX
  5
DD
330
DB
100
AcDbEntity
  8
Layer 1
 62
   178
420
    65793
370
    25
100
AcDbVertex
100
AcDb2dVertex
 10
152.8846925055206
 20
-157.3389209003896
 30
0.0
  0
VERTEX
  5
DE
330
DB
100
AcDbEntity
  8
Layer 1
 62
   178
420
    65793
370
    25
100
AcDbVertex
100
AcDb2dVertex
 10
152.8846925055206
 20
-143.3389205144732
 30
0.0
  0
VERTEX
  5
DF
330
DB
100
AcDbEntity
  8
Layer 1
 62
   178
420
    65793
370
    25
100
AcDbVertex
100
AcDb2dVertex
 10
138.8846921196039
 20
-143.3389205144732
 30
0.0
  0
VERTEX
  5
E0
330
DB
100
AcDbEntity
  8
Layer 1
 62
   178
420
    65793
370
    25
100
AcDbVertex
100
AcDb2dVertex
 10
138.8846921196039
 20
-157.3389209003896
 30
0.0
  0
SEQEND
  5
E1
330
DB
100
AcDbEntity
  8
Layer 1
 62
   178
420
    65793
370
    25
  0
POLYLINE
  5
E2
330
4A
100
AcDbEntity
  8
Layer 1
 62
   178
420
    65793
370
    25
100
AcDb2dPolyline
 66
     1
 10
0.0
 20
0.0
 30
0.0
  0
VERTEX
  5
E3
330
E2
100
AcDbEntity
  8
Layer 1
 62
   178
420
    65793
370
    25
100
AcDbVertex
100
AcDb2dVertex
 10
157.9347109552737
 20
-157.3389209003896
 30
0.0
  0
VERTEX
  5
E4
330
E2
100
AcDbEntity
  8
Layer 1
 62
   178
420
    65793
370
    25
100
AcDbVertex
100
AcDb2dVertex
 10
171.9347113411908
 20
-157.3389209003896
 30
0.0
  0
VERTEX
  5
E5
330
E2
100
AcDbEntity
  8
Layer 1
 62
   178
420
    65793
370
    25
100
AcDbVertex
100
AcDb2dVertex
 10
171.9347113411908
 20
-143.3389205144732
 30
0.0
  0
VERTEX
  5
E6
330
E2
100
AcDbEntity
  8
Layer 1
 62
   178
420
    65793
370
    25
100
AcDbVertex
100
AcDb2dVertex
 10
157.9347109552737
 20
-143.3389205144732
 30
0.0
  0
VERTEX
  5
E7
330
E2
100
AcDbEntity
  8
Layer 1
 62
   178
420
    65793
370
    25
100
AcDbVertex
100
AcDb2dVertex
 10
157.9347109552737
 20
-157.3389209003896
 30
0.0
  0
SEQEND
  5
E8
330
E2
100
AcDbEntity
  8
Layer 1
 62
   178
420
    65793
370
    25
  0
POLYLINE
  5
E9
330
4A
100
AcDbEntity
  8
Layer 1
 62
   178
420
    65793
370
    25
100
AcDb2dPolyline
 66
     1
 10
0.0
 20
0.0
 30
0.0
  0
VERTEX
  5
EA
330
E9
100
AcDbEntity
  8
Layer 1
 62
   178
420
    65793
370
    25
100
AcDbVertex
100
AcDb2dVertex
 10
219.8471882478597
 20
-157.3389209003896
 30
0.0
  0
VERTEX
  5
EB
330
E9
100
AcDbEntity
  8
Layer 1
 62
   178
420
    65793
370
    25
100
AcDbVertex
100
AcDb2dVertex
 10
233.8471886337767
 20
-157.3389209003896
 30
0.0
  0
VERTEX
  5
EC
330
E9
100
AcDbEntity
  8
Layer 1
 62
   178
420
    65793
370
    25
100
AcDbVertex
100
AcDb2dVertex
 10
233.8471886337767
 20
-143.3389205144732
 30
0.0
  0
VERTEX
  5
ED
330
E9
100
AcDbEntity
  8
Layer 1
 62
   178
420
    65793
370
    25
100
AcDbVertex
100
AcDb2dVertex
 10
219.8471882478597
 20
-143.3389205144732
 30
0.0
  0
VERTEX
  5
EE
330
E9
100
AcDbEntity
  8
Layer 1
 62
   178
420
    65793
370
    25
100
AcDbVertex
100
AcDb2dVertex
 10
219.8471882478597
 20
-157.3389209003896
 30
0.0
  0
SEQEND
  5
EF
330
E9
100
AcDbEntity
  8
Layer 1
 62
   178
420
    65793
370
    25
  0
POLYLINE
  5
F0
330
4A
100
AcDbEntity
  8
Layer 1
 62
   178
420
    65793
370
    25
100
AcDb2dPolyline
 66
     1
 10
0.0
 20
0.0
 30
0.0
  0
VERTEX
  5
F1
330
F0
100
AcDbEntity
  8
Layer 1
 62
   178
420
    65793
370
    25
100
AcDbVertex
100
AcDb2dVertex
 10
72.20970248870572
 20
-176.3889244772703
 30
0.0
  0
VERTEX
  5
F2
330
F0
100
AcDbEntity
  8
Layer 1
 62
   178
420
    65793
370
    25
100
AcDbVertex
100
AcDb2dVertex
 10
86.20970287462272
 20
-176.3889244772703
 30
0.0
  0
VERTEX
  5
F3
330
F0
100
AcDbEntity
  8
Layer 1
 62
   178
420
    65793
370
    25
100
AcDbVertex
100
AcDb2dVertex
 10
86.20970287462272
 20
-162.3889240913533
 30
0.0
  0
VERTEX
  5
F4
330
F0
100
AcDbEntity
  8
Layer 1
 62
   178
420
    65793
370
    25
100
AcDbVertex
100
AcDb2dVertex
 10
72.20970248870572
 20
-162.3889240913533
 30
0.0
  0
VERTEX
  5
F5
330
F0
100
AcDbEntity
  8
Layer 1
 62
   178
420
    65793
370
    25
100
AcDbVertex
100
AcDb2dVertex
 10
72.20970248870572
 20
-176.3889244772703
 30
0.0
  0
SEQEND
  5
F6
330
F0
100
AcDbEntity
  8
Layer 1
 62
   178
420
    65793
370
    25
  0
POLYLINE
  5
F7
330
4A
100
AcDbEntity
  8
Layer 1
 62
   178
420
    65793
370
    25
100
AcDb2dPolyline
 66
     1
 10
0.0
 20
0.0
 30
0.0
  0
VERTEX
  5
F8
330
F7
100
AcDbEntity
  8
Layer 1
 62
   178
420
    65793
370
    25
100
AcDbVertex
100
AcDb2dVertex
 10
91.25969080679691
 20
-176.3889244772703
 30
0.0
  0
VERTEX
  5
F9
330
F7
100
AcDbEntity
  8
Layer 1
 62
   178
420
    65793
370
    25
100
AcDbVertex
100
AcDb2dVertex
 10
105.2596911927139
 20
-176.3889244772703
 30
0.0
  0
VERTEX
  5
FA
330
F7
100
AcDbEntity
  8
Layer 1
 62
   178
420
    65793
370
    25
100
AcDbVertex
100
AcDb2dVertex
 10
105.2596911927139
 20
-162.3889240913533
 30
0.0
  0
VERTEX
  5
FB
330
F7
100
AcDbEntity
  8
Layer 1
 62
   178
420
    65793
370
    25
100
AcDbVertex
100
AcDb2dVertex
 10
91.25969080679691
 20
-162.3889240913533
 30
0.0
  0
VERTEX
  5
FC
330
F7
100
AcDbEntity
  8
Layer 1
 62
   178
420
    65793
370
    25
100
AcDbVertex
100
AcDb2dVertex
 10
91.25969080679691
 20
-176.3889244772703
 30
0.0
  0
SEQEND
  5
FD
330
F7
100
AcDbEntity
  8
Layer 1
 62
   178
420
    65793
370
    25
  0
POLYLINE
  5
FE
330
4A
100
AcDbEntity
  8
Layer 1
 62
   178
420
    65793
370
    25
100
AcDb2dPolyline
 66
     1
 10
0.0
 20
0.0
 30
0.0
  0
VERTEX
  5
FF
330
FE
100
AcDbEntity
  8
Layer 1
 62
   178
420
    65793
370
    25
100
AcDbVertex
100
AcDb2dVertex
 10
110.3096943836776
 20
-176.3889244772703
 30
0.0
  0
VERTEX
  5
100
330
FE
100
AcDbEntity
  8
Layer 1
 62
   178
420
    65793
370
    25
100
AcDbVertex
100
AcDb2dVertex
 10
124.3097100283841
 20
-176.3889244772703
 30
0.0
  0
VERTEX
  5
101
330
FE
100
AcDbEntity
  8
Layer 1
 62
   178
420
    65793
370
    25
100
AcDbVertex
100
AcDb2dVertex
 10
124.3097100283841
 20
-162.3889240913533
 30
0.0
  0
VERTEX
  5
102
330
FE
100
AcDbEntity
  8
Layer 1
 62
   178
420
    65793
370
    25
100
AcDbVertex
100
AcDb2dVertex
 10
110.3096943836776
 20
-162.3889240913533
 30
0.0
  0
VERTEX
  5
103
330
FE
100
AcDbEntity
  8
Layer 1
 62
   178
420
    65793
370
    25
100
AcDbVertex
100
AcDb2dVertex
 10
110.3096943836776
 20
-176.3889244772703
 30
0.0
  0
SEQEND
  5
104
330
FE
100
AcDbEntity
  8
Layer 1
 62
   178
420
    65793
370
    25
  0
POLYLINE
  5
105
330
4A
100
AcDbEntity
  8
Layer 1
 62
   178
420
    65793
370
    25
100
AcDb2dPolyline
 66
     1
 10
0.0
 20
0.0
 30
0.0
  0
VERTEX
  5
106
330
105
100
AcDbEntity
  8
Layer 1
 62
   178
420
    65793
370
    25
100
AcDbVertex
100
AcDb2dVertex
 10
129.3596979605583
 20
-176.3889244772703
 30
0.0
  0
VERTEX
  5
107
330
105
100
AcDbEntity
  8
Layer 1
 62
   178
420
    65793
370
    25
100
AcDbVertex
100
AcDb2dVertex
 10
143.3596983464753
 20
-176.3889244772703
 30
0.0
  0
VERTEX
  5
108
330
105
100
AcDbEntity
  8
Layer 1
 62
   178
420
    65793
370
    25
100
AcDbVertex
100
AcDb2dVertex
 10
143.3596983464753
 20
-162.3889240913533
 30
0.0
  0
VERTEX
  5
109
330
105
100
AcDbEntity
  8
Layer 1
 62
   178
420
    65793
370
    25
100
AcDbVertex
100
AcDb2dVertex
 10
129.3596979605583
 20
-162.3889240913533
 30
0.0
  0
VERTEX
  5
10A
330
105
100
AcDbEntity
  8
Layer 1
 62
   178
420
    65793
370
    25
100
AcDbVertex
100
AcDb2dVertex
 10
129.3596979605583
 20
-176.3889244772703
 30
0.0
  0
SEQEND
  5
10B
330
105
100
AcDbEntity
  8
Layer 1
 62
   178
420
    65793
370
    25
  0
POLYLINE
  5
10C
330
4A
100
AcDbEntity
  8
Layer 1
 62
   178
420
    65793
370
    25
100
AcDb2dPolyline
 66
     1
 10
0.0
 20
0.0
 30
0.0
  0
VERTEX
  5
10D
330
10C
100
AcDbEntity
  8
Layer 1
 62
   178
420
    65793
370
    25
100
AcDbVertex
100
AcDb2dVertex
 10
219.8471882478597
 20
-176.3889244772703
 30
0.0
  0
VERTEX
  5
10E
330
10C
100
AcDbEntity
  8
Layer 1
 62
   178
420
    65793
370
    25
100
AcDbVertex
100
AcDb2dVertex
 10
233.8471886337767
 20
-176.3889244772703
 30
0.0
  0
VERTEX
  5
10F
330
10C
100
AcDbEntity
  8
Layer 1
 62
   178
420
    65793
370
    25
100
AcDbVertex
100
AcDb2dVertex
 10
233.8471886337767
 20
-162.3889240913533
 30
0.0
  0
VERTEX
  5
110
330
10C
100
AcDbEntity
  8
Layer 1
 62
   178
420
    65793
370
    25
100
AcDbVertex
100
AcDb2dVertex
 10
219.8471882478597
 20
-162.3889240913533
 30
0.0
  0
VERTEX
  5
111
330
10C
100
AcDbEntity
  8
Layer 1
 62
   178
420
    65793
370
    25
100
AcDbVertex
100
AcDb2dVertex
 10
219.8471882478597
 20
-176.3889244772703
 30
0.0
  0
SEQEND
  5
112
330
10C
100
AcDbEntity
  8
Layer 1
 62
   178
420
    65793
370
    25
  0
POLYLINE
  5
113
330
4A
100
AcDbEntity
  8
Layer 1
 62
   178
420
    65793
370
    25
100
AcDb2dPolyline
 66
     1
 10
0.0
 20
0.0
 30
0.0
  0
VERTEX
  5
114
330
113
100
AcDbEntity
  8
Layer 1
 62
   178
420
    65793
370
    25
100
AcDbVertex
100
AcDb2dVertex
 10
219.8471882478597
 20
-195.4389204247562
 30
0.0
  0
VERTEX
  5
115
330
113
100
AcDbEntity
  8
Layer 1
 62
   178
420
    65793
370
    25
100
AcDbVertex
100
AcDb2dVertex
 10
233.8471886337767
 20
-195.4389204247562
 30
0.0
  0
VERTEX
  5
116
330
113
100
AcDbEntity
  8
Layer 1
 62
   178
420
    65793
370
    25
100
AcDbVertex
100
AcDb2dVertex
 10
233.8471886337767
 20
-181.4389200388392
 30
0.0
  0
VERTEX
  5
117
330
113
100
AcDbEntity
  8
Layer 1
 62
   178
420
    65793
370
    25
100
AcDbVertex
100
AcDb2dVertex
 10
219.8471882478597
 20
-181.4389200388392
 30
0.0
  0
VERTEX
  5
118
330
113
100
AcDbEntity
  8
Layer 1
 62
   178
420
    65793
370
    25
100
AcDbVertex
100
AcDb2dVertex
 10
219.8471882478597
 20
-195.4389204247562
 30
0.0
  0
SEQEND
  5
119
330
113
100
AcDbEntity
  8
Layer 1
 62
   178
420
    65793
370
    25
  0
ENDBLK
  5
4D
330
4A
100
AcDbEntity
  8
0
100
AcDbBlockEnd
  0
ENDSEC
  0
SECTION
  2
ENTITIES
  0
SPLINE
  5
41
330
1F
100
AcDbEntity
  8
Layer 1
 62
   195
420
  7949726
370
    25
100
AcDbSpline
210
0.0
220
0.0
230
1.0
 70
    11
 71
     3
 72
    65
 73
    61
 74
     0
 42
0.0000000001
 43
0.0000000001
 12
1.0
 22
0.0
 32
0.0
 13
1.0
 23
0.0
 33
0.0
 40
0.0
 40
0.0
 40
0.0
 40
0.0
 40
1.0
 40
1.0
 40
1.0
 40
2.0
 40
2.0
 40
2.0
 40
3.0
 40
3.0
 40
3.0
 40
4.0
 40
4.0
 40
4.0
 40
5.0
 40
5.0
 40
5.0
 40
6.0
 40
6.0
 40
6.0
 40
7.0
 40
7.0
 40
7.0
 40
8.0
 40
8.0
 40
8.0
 40
9.0
 40
9.0
 40
9.0
 40
10.0
 40
10.0
 40
10.0
 40
11.0
 40
11.0
 40
11.0
 40
12.0
 40
12.0
 40
12.0
 40
13.0
 40
13.0
 40
13.0
 40
14.0
 40
14.0
 40
14.0
 40
15.0
 40
15.0
 40
15.0
 40
16.0
 40
16.0
 40
16.0
 40
17.0
 40
17.0
 40
17.0
 40
18.0
 40
18.0
 40
18.0
 40
19.0
 40
19.0
 40
19.0
 40
20.0
 40
20.0
 40
20.0
 40
20.0
 10
66.92219318047405
 20
-94.71392100103553
 30
0.0
 10
66.92219318047405
 20
-94.71392100103553
 30
0.0
 10
240.3719055937098
 20
-94.71392100103553
 30
0.0
 10
240.3719055937098
 20
-94.71392100103553
 30
0.0
 10
242.5810445924805
 20
-94.71392100103553
 30
0.0
 10
244.3719055927089
 20
-96.50478200126459
 30
0.0
 10
244.3719055927089
 20
-98.71392100003558
 30
0.0
 10
244.3719055927089
 20
-98.71392100003558
 30
0.0
 10
244.3719055927089
 20
-201.9638056855945
 30
0.0
 10
244.3719055927089
 20
-201.9638056855945
 30
0.0
 10
244.3719055927089
 20
-204.1729446843652
 30
0.0
 10
242.5810445924805
 20
-205.9638056845943
 30
0.0
 10
240.3719055937098
 20
-205.9638056845943
 30
0.0
 10
240.3719055937098
 20
-205.9638056845943
 30
0.0
 10
71.68469317928407
 20
-205.9638056845943
 30
0.0
 10
71.68469317928407
 20
-205.9638056845943
 30
0.0
 10
70.58012367989873
 20
-205.9638056845943
 30
0.0
 10
69.68469317978388
 20
-205.0683751844794
 30
0.0
 10
69.68469317978388
 20
-203.9638056850941
 30
0.0
 10
69.68469317978388
 20
-203.9638056850941
 30
0.0
 10
69.68469317978388
 20
-161.86380569562
 30
0.0
 10
69.68469317978388
 20
-161.86380569562
 30
0.0
 10
69.68469317978388
 20
-160.7592361962347
 30
0.0
 10
68.78926267966904
 20
-159.8638056961198
 30
0.0
 10
67.6846931802837
 20
-159.8638056961198
 30
0.0
 10
67.6846931802837
 20
-159.8638056961198
 30
0.0
 10
62.15969318166532
 20
-159.8638056961198
 30
0.0
 10
62.15969318166532
 20
-159.8638056961198
 30
0.0
 10
61.05512368227998
 20
-159.8638056961198
 30
0.0
 10
60.15969318216513
 20
-158.968375196005
 30
0.0
 10
60.15969318216513
 20
-157.8638056966196
 30
0.0
 10
60.15969318216513
 20
-157.8638056966196
 30
0.0
 10
60.15969318216513
 20
-142.8138057003825
 30
0.0
 10
60.15969318216513
 20
-142.8138057003825
 30
0.0
 10
60.15969318216513
 20
-141.7092362009971
 30
0.0
 10
59.26426268205028
 20
-140.8138057008823
 30
0.0
 10
58.15969318266495
 20
-140.8138057008823
 30
0.0
 10
58.15969318266495
 20
-140.8138057008823
 30
0.0
 10
57.39719318285594
 20
-140.8138057008823
 30
0.0
 10
57.39719318285594
 20
-140.8138057008823
 30
0.0
 10
56.2926236834706
 20
-140.8138057008823
 30
0.0
 10
55.39719318335575
 20
-139.9183752007675
 30
0.0
 10
55.39719318335575
 20
-138.8138057013821
 30
0.0
 10
55.39719318335575
 20
-138.8138057013821
 30
0.0
 10
55.39719318335575
 20
-123.763920993773
 30
0.0
 10
55.39719318335575
 20
-123.763920993773
 30
0.0
 10
55.39719318335575
 20
-122.6593514943877
 30
0.0
 10
56.29262368346996
 20
-121.7639209942731
 30
0.0
 10
57.3971931828553
 20
-121.7639209942731
 30
0.0
 10
57.3971931828553
 20
-121.7639209942731
 30
0.0
 10
62.92219318147496
 20
-121.7639209942731
 30
0.0
 10
62.92219318147496
 20
-121.7639209942731
 30
0.0
 10
64.0267626808603
 20
-121.7639209942731
 30
0.0
 10
64.9221931809745
 20
-120.8684904941583
 30
0.0
 10
64.9221931809745
 20
-119.7639209947733
 30
0.0
 10
64.9221931809745
 20
-119.7639209947733
 30
0.0
 10
64.9221931809745
 20
-96.7139210005354
 30
0.0
 10
64.9221931809745
 20
-96.7139210005354
 30
0.0
 10
64.9221931809745
 20
-95.60935150115006
 30
0.0
 10
65.81762368108872
 20
-94.71392100103553
 30
0.0
 10
66.92219318047405
 20
-94.71392100103553
 30
0.0
  0
SPLINE
  5
42
330
1F
100
AcDbEntity
  8
Layer 1
 62
   195
420
  7949726
370
    25
100
AcDbSpline
210
0.0
220
0.0
230
1.0
 70
    11
 71
     3
 72
    17
 73
    13
 74
     0
 42
0.0000000001
 43
0.0000000001
 12
1.0
 22
0.0
 32
0.0
 13
1.0
 23
0.0
 33
0.0
 40
0.0
 40
0.0
 40
0.0
 40
0.0
 40
1.0
 40
1.0
 40
1.0
 40
2.0
 40
2.0
 40
2.0
 40
3.0
 40
3.0
 40
3.0
 40
4.0
 40
4.0
 40
4.0
 40
4.0
 10
70.02219317969931
 20
-98.71388864954149
 30
0.0
 10
70.02219317969931
 20
-99.32140187416913
 30
0.0
 10
69.52970640460252
 20
-99.81388864926656
 30
0.0
 10
68.92219317997424
 20
-99.81388864926656
 30
0.0
 10
68.31467995534597
 20
-99.81388864926656
 30
0.0
 10
67.82219318024917
 20
-99.32140187416913
 30
0.0
 10
67.82219318024917
 20
-98.71388864954149
 30
0.0
 10
67.82219318024917
 20
-98.10637542491321
 30
0.0
 10
68.31467995534597
 20
-97.61388864981642
 30
0.0
 10
68.92219317997424
 20
-97.61388864981642
 30
0.0
 10
69.52970640460252
 20
-97.61388864981642
 30
0.0
 10
70.02219317969931
 20
-98.10637542491321
 30
0.0
 10
70.02219317969931
 20
-98.71388864954149
 30
0.0
  0
SPLINE
  5
43
330
1F
100
AcDbEntity
  8
Layer 1
 62
   195
420
  7949726
370
    25
100
AcDbSpline
210
0.0
220
0.0
230
1.0
 70
    11
 71
     3
 72
    17
 73
    13
 74
     0
 42
0.0000000001
 43
0.0000000001
 12
1.0
 22
0.0
 32
0.0
 13
1.0
 23
0.0
 33
0.0
 40
0.0
 40
0.0
 40
0.0
 40
0.0
 40
1.0
 40
1.0
 40
1.0
 40
2.0
 40
2.0
 40
2.0
 40
3.0
 40
3.0
 40
3.0
 40
4.0
 40
4.0
 40
4.0
 40
4.0
 10
94.04781801570707
 20
-98.71388864954149
 30
0.0
 10
94.04781801570707
 20
-99.32140187416913
 30
0.0
 10
93.55533124061029
 20
-99.81388864926656
 30
0.0
 10
92.94781801598201
 20
-99.81388864926656
 30
0.0
 10
92.34030479135372
 20
-99.81388864926656
 30
0.0
 10
91.84781801625694
 20
-99.32140187416913
 30
0.0
 10
91.84781801625694
 20
-98.71388864954149
 30
0.0
 10
91.84781801625694
 20
-98.10637542491321
 30
0.0
 10
92.34030479135372
 20
-97.61388864981642
 30
0.0
 10
92.94781801598201
 20
-97.61388864981642
 30
0.0
 10
93.55533124061029
 20
-97.61388864981642
 30
0.0
 10
94.04781801570707
 20
-98.10637542491321
 30
0.0
 10
94.04781801570707
 20
-98.71388864954149
 30
0.0
  0
SPLINE
  5
44
330
1F
100
AcDbEntity
  8
Layer 1
 62
   195
420
  7949726
370
    25
100
AcDbSpline
210
0.0
220
0.0
230
1.0
 70
    11
 71
     3
 72
    17
 73
    13
 74
     0
 42
0.0000000001
 43
0.0000000001
 12
1.0
 22
0.0
 32
0.0
 13
1.0
 23
0.0
 33
0.0
 40
0.0
 40
0.0
 40
0.0
 40
0.0
 40
1.0
 40
1.0
 40
1.0
 40
2.0
 40
2.0
 40
2.0
 40
3.0
 40
3.0
 40
3.0
 40
4.0
 40
4.0
 40
4.0
 40
4.0
 10
169.262488507631
 20
-98.71388864954149
 30
0.0
 10
169.262488507631
 20
-99.32140187416945
 30
0.0
 10
168.7700017325342
 20
-99.81388864926689
 30
0.0
 10
168.1624885079059
 20
-99.81388864926689
 30
0.0
 10
167.5549752832777
 20
-99.81388864926689
 30
0.0
 10
167.0624885081809
 20
-99.32140187416945
 30
0.0
 10
167.0624885081809
 20
-98.71388864954149
 30
0.0
 10
167.0624885081809
 20
-98.10637542491354
 30
0.0
 10
167.5549752832777
 20
-97.61388864981674
 30
0.0
 10
168.1624885079059
 20
-97.61388864981674
 30
0.0
 10
168.7700017325342
 20
-97.61388864981674
 30
0.0
 10
169.262488507631
 20
-98.10637542491354
 30
0.0
 10
169.262488507631
 20
-98.71388864954149
 30
0.0
  0
SPLINE
  5
45
330
1F
100
AcDbEntity
  8
Layer 1
 62
   195
420
  7949726
370
    25
100
AcDbSpline
210
0.0
220
0.0
230
1.0
 70
    11
 71
     3
 72
    17
 73
    13
 74
     0
 42
0.0000000001
 43
0.0000000001
 12
1.0
 22
0.0
 32
0.0
 13
1.0
 23
0.0
 33
0.0
 40
0.0
 40
0.0
 40
0.0
 40
0.0
 40
1.0
 40
1.0
 40
1.0
 40
2.0
 40
2.0
 40
2.0
 40
3.0
 40
3.0
 40
3.0
 40
4.0
 40
4.0
 40
4.0
 40
4.0
 10
191.3819123747915
 20
-98.71388864954149
 30
0.0
 10
191.3819123747915
 20
-99.32140187416945
 30
0.0
 10
190.8894255996947
 20
-99.81388864926689
 30
0.0
 10
190.2819123750664
 20
-99.81388864926689
 30
0.0
 10
189.6743991504381
 20
-99.81388864926689
 30
0.0
 10
189.1819123753413
 20
-99.32140187416945
 30
0.0
 10
189.1819123753413
 20
-98.71388864954149
 30
0.0
 10
189.1819123753413
 20
-98.10637542491354
 30
0.0
 10
189.6743991504381
 20
-97.61388864981674
 30
0.0
 10
190.2819123750664
 20
-97.61388864981674
 30
0.0
 10
190.8894255996947
 20
-97.61388864981674
 30
0.0
 10
191.3819123747915
 20
-98.10637542491354
 30
0.0
 10
191.3819123747915
 20
-98.71388864954149
 30
0.0
  0
SPLINE
  5
46
330
1F
100
AcDbEntity
  8
Layer 1
 62
   195
420
  7949726
370
    25
100
AcDbSpline
210
0.0
220
0.0
230
1.0
 70
    11
 71
     3
 72
    17
 73
    13
 74
     0
 42
0.0000000001
 43
0.0000000001
 12
1.0
 22
0.0
 32
0.0
 13
1.0
 23
0.0
 33
0.0
 40
0.0
 40
0.0
 40
0.0
 40
0.0
 40
1.0
 40
1.0
 40
1.0
 40
2.0
 40
2.0
 40
2.0
 40
3.0
 40
3.0
 40
3.0
 40
4.0
 40
4.0
 40
4.0
 40
4.0
 10
74.78472552900342
 20
-201.9639533247179
 30
0.0
 10
74.78472552900342
 20
-202.5714665493449
 30
0.0
 10
74.29223875390663
 20
-203.063953324443
 30
0.0
 10
73.68472552927835
 20
-203.063953324443
 30
0.0
 10
73.07721230465008
 20
-203.063953324443
 30
0.0
 10
72.58472552955328
 20
-202.5714665493449
 30
0.0
 10
72.58472552955328
 20
-201.9639533247179
 30
0.0
 10
72.58472552955328
 20
-201.3564401000897
 30
0.0
 10
73.07721230465008
 20
-200.8639533249928
 30
0.0
 10
73.68472552927835
 20
-200.8639533249928
 30
0.0
 10
74.29223875390663
 20
-200.8639533249928
 30
0.0
 10
74.78472552900342
 20
-201.3564401000897
 30
0.0
 10
74.78472552900342
 20
-201.9639533247179
 30
0.0
  0
SPLINE
  5
47
330
1F
100
AcDbEntity
  8
Layer 1
 62
   195
420
  7949726
370
    25
100
AcDbSpline
210
0.0
220
0.0
230
1.0
 70
    11
 71
     3
 72
    17
 73
    13
 74
     0
 42
0.0000000001
 43
0.0000000001
 12
1.0
 22
0.0
 32
0.0
 13
1.0
 23
0.0
 33
0.0
 40
0.0
 40
0.0
 40
0.0
 40
0.0
 40
1.0
 40
1.0
 40
1.0
 40
2.0
 40
2.0
 40
2.0
 40
3.0
 40
3.0
 40
3.0
 40
4.0
 40
4.0
 40
4.0
 40
4.0
 10
157.7847255082528
 20
-201.9639533247179
 30
0.0
 10
157.7847255082528
 20
-202.5714665493449
 30
0.0
 10
157.292238733156
 20
-203.063953324443
 30
0.0
 10
156.6847255085278
 20
-203.063953324443
 30
0.0
 10
156.0772122838995
 20
-203.063953324443
 30
0.0
 10
155.5847255088027
 20
-202.5714665493449
 30
0.0
 10
155.5847255088027
 20
-201.9639533247179
 30
0.0
 10
155.5847255088027
 20
-201.3564401000897
 30
0.0
 10
156.0772122838995
 20
-200.8639533249928
 30
0.0
 10
156.6847255085278
 20
-200.8639533249928
 30
0.0
 10
157.292238733156
 20
-200.8639533249928
 30
0.0
 10
157.7847255082528
 20
-201.3564401000897
 30
0.0
 10
157.7847255082528
 20
-201.9639533247179
 30
0.0
  0
SPLINE
  5
48
330
1F
100
AcDbEntity
  8
Layer 1
 62
   195
420
  7949726
370
    25
100
AcDbSpline
210
0.0
220
0.0
230
1.0
 70
    11
 71
     3
 72
    17
 73
    13
 74
     0
 42
0.0000000001
 43
0.0000000001
 12
1.0
 22
0.0
 32
0.0
 13
1.0
 23
0.0
 33
0.0
 40
0.0
 40
0.0
 40
0.0
 40
0.0
 40
1.0
 40
1.0
 40
1.0
 40
2.0
 40
2.0
 40
2.0
 40
3.0
 40
3.0
 40
3.0
 40
4.0
 40
4.0
 40
4.0
 40
4.0
 10
240.7721931370126
 20
-99.41392099986075
 30
0.0
 10
240.7721931370126
 20
-100.0214342244884
 30
0.0
 10
240.2797063619158
 20
-100.5139209995858
 30
0.0
 10
239.6721931372875
 20
-100.5139209995858
 30
0.0
 10
239.0646799126593
 20
-100.5139209995858
 30
0.0
 10
238.5721931375625
 20
-100.0214342244884
 30
0.0
 10
238.5721931375625
 20
-99.41392099986075
 30
0.0
 10
238.5721931375625
 20
-98.80640777523247
 30
0.0
 10
239.0646799126593
 20
-98.31392100013568
 30
0.0
 10
239.6721931372875
 20
-98.31392100013568
 30
0.0
 10
240.2797063619158
 20
-98.31392100013568
 30
0.0
 10
240.7721931370126
 20
-98.80640777523247
 30
0.0
 10
240.7721931370126
 20
-99.41392099986075
 30
0.0
  0
SPLINE
  5
49
330
1F
100
AcDbEntity
  8
Layer 1
 62
   195
420
  7949726
370
    25
100
AcDbSpline
210
0.0
220
0.0
230
1.0
 70
    11
 71
     3
 72
    17
 73
    13
 74
     0
 42
0.0000000001
 43
0.0000000001
 12
1.0
 22
0.0
 32
0.0
 13
1.0
 23
0.0
 33
0.0
 40
0.0
 40
0.0
 40
0.0
 40
0.0
 40
1.0
 40
1.0
 40
1.0
 40
2.0
 40
2.0
 40
2.0
 40
3.0
 40
3.0
 40
3.0
 40
4.0
 40
4.0
 40
4.0
 40
4.0
 10
240.7721931370126
 20
-201.2639209743987
 30
0.0
 10
240.7721931370126
 20
-201.8714341990257
 30
0.0
 10
240.2797063619158
 20
-202.3639209741237
 30
0.0
 10
239.6721931372875
 20
-202.3639209741237
 30
0.0
 10
239.0646799126593
 20
-202.3639209741237
 30
0.0
 10
238.5721931375625
 20
-201.8714341990257
 30
0.0
 10
238.5721931375625
 20
-201.2639209743987
 30
0.0
 10
238.5721931375625
 20
-200.6564077497704
 30
0.0
 10
239.0646799126593
 20
-200.1639209746736
 30
0.0
 10
239.6721931372875
 20
-200.1639209746736
 30
0.0
 10
240.2797063619158
 20
-200.1639209746736
 30
0.0
 10
240.7721931370126
 20
-200.6564077497704
 30
0.0
 10
240.7721931370126
 20
-201.2639209743987
 30
0.0
  0
INSERT
  5
4B
330
1F
100
AcDbEntity
  8
Layer 1
100
AcDbBlockReference
  2
block 2
 10
0.0
 20
0.0
 30
0.0
  0
ENDSEC
  0
SECTION
  2
OBJECTS
  0
DICTIONARY
  5
C
330
0
100
AcDbDictionary
281
     1
  3
ACAD_GROUP
350
D
  3
ACAD_LAYOUT
350
1A
  3
ACAD_MATERIAL
350
3B
  3
ACAD_MLEADERSTYLE
350
11B
  3
ACAD_MLINESTYLE
350
17
  3
ACAD_PLOTSETTINGS
350
19
  3
ACAD_PLOTSTYLENAME
350
E
  3
ACAD_TABLESTYLE
350
11A
  3
ACAD_VISUALSTYLE
350
2A
  0
SUN
  5
3F
330
29
100
AcDbSun
 90
        1
290
     0
 63
     7
421
 16777215
 40
1.0
291
     1
 91
  2455826
 92
 54000000
292
     0
 70
     2
 71
   256
280
     1
  0
DICTIONARY
  5
D
102
{ACAD_REACTORS
330
C
102
}
330
C
100
AcDbDictionary
281
     1
  0
DICTIONARY
  5
1A
102
{ACAD_REACTORS
330
C
102
}
330
C
100
AcDbDictionary
281
     1
  3
Layout1
350
1E
  3
Layout2
350
26
  3
Model
350
22
  0
DICTIONARY
  5
3B
102
{ACAD_REACTORS
330
C
102
}
330
C
100
AcDbDictionary
281
     1
  3
ByBlock
350
3D
  3
ByLayer
350
3C
  3
Global
350
3E
  0
DICTIONARY
  5
11B
102
{ACAD_REACTORS
330
C
102
}
330
C
100
AcDbDictionary
281
     1
  0
DICTIONARY
  5
17
102
{ACAD_REACTORS
330
C
102
}
330
C
100
AcDbDictionary
281
     1
  3
Standard
350
18
  0
DICTIONARY
  5
19
102
{ACAD_REACTORS
330
C
102
}
330
C
100
AcDbDictionary
281
     1
  0
ACDBDICTIONARYWDFLT
  5
E
102
{ACAD_REACTORS
330
C
102
}
330
C
100
AcDbDictionary
281
     1
  3
Normal
350
F
100
AcDbDictionaryWithDefault
340
F
  0
DICTIONARY
  5
11A
102
{ACAD_REACTORS
330
C
102
}
330
C
100
AcDbDictionary
281
     1
  0
DICTIONARY
  5
2A
102
{ACAD_REACTORS
330
C
102
}
330
C
100
AcDbDictionary
281
     1
  3
2dWireframe
350
2F
  3
3D Hidden
350
31
  3
3dWireframe
350
30
  3
Basic
350
32
  3
Brighten
350
36
  3
ColorChange
350
3A
  3
Conceptual
350
34
  3
Dim
350
35
  3
Facepattern
350
39
  3
Flat
350
2B
  3
FlatWithEdges
350
2C
  3
Gouraud
350
2D
  3
GouraudWithEdges
350
2E
  3
Linepattern
350
38
  3
Realistic
350
33
  3
Thicken
350
37
  0
LAYOUT
  5
1E
102
{ACAD_REACTORS
330
1A
102
}
330
1A
100
AcDbPlotSettings
  1

  2
none_device
  4

  6

 40
0.0
 41
0.0
 42
0.0
 43
0.0
 44
0.0
 45
0.0
 46
0.0
 47
0.0
 48
0.0
 49
0.0
140
0.0
141
0.0
142
1.0
143
1.0
 70
   688
 72
     0
 73
     0
 74
     5
  7

 75
    16
 76
     0
 77
     2
 78
   300
147
1.0
148
0.0
149
0.0
100
AcDbLayout
  1
Layout1
 70
     1
 71
     1
 10
0.0
 20
0.0
 11
12.0
 21
9.0
 12
0.0
 22
0.0
 32
0.0
 14
1.000000000000000E+20
 24
1.000000000000000E+20
 34
1.000000000000000E+20
 15
-1.000000000000000E+20
 25
-1.000000000000000E+20
 35
-1.000000000000000E+20
146
0.0
 13
0.0
 23
0.0
 33
0.0
 16
1.0
 26
0.0
 36
0.0
 17
0.0
 27
1.0
 37
0.0
 76
     0
330
1B
  0
LAYOUT
  5
26
102
{ACAD_REACTORS
330
1A
102
}
330
1A
100
AcDbPlotSettings
  1

  2
none_device
  4

  6

 40
0.0
 41
0.0
 42
0.0
 43
0.0
 44
0.0
 45
0.0
 46
0.0
 47
0.0
 48
0.0
 49
0.0
140
0.0
141
0.0
142
1.0
143
1.0
 70
   688
 72
     0
 73
     0
 74
     5
  7

 75
    16
 76
     0
 77
     2
 78
   300
147
1.0
148
0.0
149
0.0
100
AcDbLayout
  1
Layout2
 70
     1
 71
     2
 10
0.0
 20
0.0
 11
0.0
 21
0.0
 12
0.0
 22
0.0
 32
0.0
 14
0.0
 24
0.0
 34
0.0
 15
0.0
 25
0.0
 35
0.0
146
0.0
 13
0.0
 23
0.0
 33
0.0
 16
1.0
 26
0.0
 36
0.0
 17
0.0
 27
1.0
 37
0.0
 76
     0
330
23
  0
LAYOUT
  5
22
102
{ACAD_REACTORS
330
1A
102
}
330
1A
100
AcDbPlotSettings
  1

  2
none_device
  4

  6

 40
0.0
 41
0.0
 42
0.0
 43
0.0
 44
0.0
 45
0.0
 46
0.0
 47
0.0
 48
0.0
 49
0.0
140
0.0
141
0.0
142
1.0
143
1.0
 70
  1712
 72
     0
 73
     0
 74
     0
  7

 75
     0
 76
     0
 77
     2
 78
   300
147
1.0
148
0.0
149
0.0
100
AcDbLayout
  1
Model
 70
     1
 71
     0
 10
0.0
 20
0.0
 11
12.0
 21
9.0
 12
0.0
 22
0.0
 32
0.0
 14
1.000000000000000E+20
 24
1.000000000000000E+20
 34
1.000000000000000E+20
 15
-1.000000000000000E+20
 25
-1.000000000000000E+20
 35
-1.000000000000000E+20
146
0.0
 13
0.0
 23
0.0
 33
0.0
 16
1.0
 26
0.0
 36
0.0
 17
0.0
 27
1.0
 37
0.0
 76
     0
330
1F
331
29
  0
MATERIAL
  5
3D
102
{ACAD_REACTORS
330
3B
102
}
330
3B
100
AcDbMaterial
  1
ByBlock
 72
     1
 94
      127
  0
MATERIAL
  5
3C
102
{ACAD_REACTORS
330
3B
102
}
330
3B
100
AcDbMaterial
  1
ByLayer
 72
     1
 94
      127
  0
MATERIAL
  5
3E
102
{ACAD_REACTORS
330
3B
102
}
330
3B
100
AcDbMaterial
  1
Global
 72
     1
 94
      127
  0
MLINESTYLE
  5
18
102
{ACAD_REACTORS
330
17
102
}
330
17
100
AcDbMlineStyle
  2
Standard
 70
     0
  3

 62
   256
 51
90.0
 52
90.0
 71
     2
 49
0.5
 62
   256
  6
BYLAYER
 49
-0.5
 62
   256
  6
BYLAYER
  0
ACDBPLACEHOLDER
  5
F
102
{ACAD_REACTORS
330
E
102
}
330
E
  0
VISUALSTYLE
  5
2F
102
{ACAD_REACTORS
330
2A
102
}
330
2A
100
AcDbVisualStyle
  2
2dWireframe
 70
     4
177
     2
291
     0
 71
     0
176
     1
 72
     2
176
     1
 73
     0
176
     1
 90
        0
176
     1
 40
-0.6
176
     1
 41
-30.0
176
     1
 62
     5
 63
     7
421
 16777215
176
     1
 74
     1
176
     1
 91
        4
176
     1
 64
     7
176
     1
 65
   257
176
     1
 75
     1
176
     1
175
     1
176
     1
 42
1.0
176
     1
 92
        0
176
     1
 66
   257
176
     1
 43
1.0
176
     1
 76
     1
176
     1
 77
     6
176
     1
 78
     2
176
     1
 67
     7
176
     1
 79
     5
176
     1
170
     0
176
     1
171
     0
176
     1
290
     0
176
     1
 93
        1
176
     1
 44
0.0
176
     1
173
     0
176
     1
  0
VISUALSTYLE
  5
31
102
{ACAD_REACTORS
330
2A
102
}
330
2A
100
AcDbVisualStyle
  2
3D Hidden
 70
     6
177
     2
291
     0
 71
     1
176
     1
 72
     2
176
     1
 73
     2
176
     1
 90
        0
176
     1
 40
-0.6
176
     1
 41
-30.0
176
     1
 62
     5
 63
     7
421
 16777215
176
     1
 74
     2
176
     1
 91
        2
176
     1
 64
     7
176
     1
 65
   257
176
     1
 75
     2
176
     1
175
     1
176
     1
 42
40.0
176
     1
 92
        0
176
     1
 66
   257
176
     1
 43
1.0
176
     1
 76
     1
176
     1
 77
     6
176
     1
 78
     2
176
     1
 67
     7
176
     1
 79
     3
176
     1
170
     0
176
     1
171
     0
176
     1
290
     0
176
     1
 93
        1
176
     1
 44
0.0
176
     1
173
     0
176
     1
  0
VISUALSTYLE
  5
30
102
{ACAD_REACTORS
330
2A
102
}
330
2A
100
AcDbVisualStyle
  2
3dWireframe
 70
     5
177
     2
291
     0
 71
     0
176
     1
 72
     2
176
     1
 73
     0
176
     1
 90
        0
176
     1
 40
-0.6
176
     1
 41
-30.0
176
     1
 62
     5
 63
     7
421
 16777215
176
     1
 74
     1
176
     1
 91
        4
176
     1
 64
     7
176
     1
 65
   257
176
     1
 75
     1
176
     1
175
     1
176
     1
 42
1.0
176
     1
 92
        0
176
     1
 66
   257
176
     1
 43
1.0
176
     1
 76
     1
176
     1
 77
     6
176
     1
 78
     2
176
     1
 67
     7
176
     1
 79
     5
176
     1
170
     0
176
     1
171
     0
176
     1
290
     0
176
     1
 93
        1
176
     1
 44
0.0
176
     1
173
     0
176
     1
  0
VISUALSTYLE
  5
32
102
{ACAD_REACTORS
330
2A
102
}
330
2A
100
AcDbVisualStyle
  2
Basic
 70
     7
177
     2
291
     1
 71
     1
176
     1
 72
     0
176
     1
 73
     1
176
     1
 90
        0
176
     1
 40
-0.6
176
     1
 41
-30.0
176
     1
 62
     5
 63
     7
421
 16777215
176
     1
 74
     0
176
     1
 91
        4
176
     1
 64
     7
176
     1
 65
   257
176
     1
 75
     1
176
     1
175
     1
176
     1
 42
1.0
176
     1
 92
        8
176
     1
 66
     7
176
     1
 43
1.0
176
     1
 76
     1
176
     1
 77
     6
176
     1
 78
     2
176
     1
 67
     7
176
     1
 79
     5
176
     1
170
     0
176
     1
171
     0
176
     1
290
     0
176
     1
 93
        1
176
     1
 44
0.0
176
     1
173
     0
176
     1
  0
VISUALSTYLE
  5
36
102
{ACAD_REACTORS
330
2A
102
}
330
2A
100
AcDbVisualStyle
  2
Brighten
 70
    12
177
     2
291
     1
 71
     2
176
     1
 72
     2
176
     1
 73
     0
176
     1
 90
        0
176
     1
 40
-0.6
176
     1
 41
-30.0
176
     1
 62
     5
 63
     7
421
 16777215
176
     1
 74
     1
176
     1
 91
        4
176
     1
 64
     7
176
     1
 65
   257
176
     1
 75
     1
176
     1
175
     1
176
     1
 42
1.0
176
     1
 92
        8
176
     1
 66
     7
176
     1
 43
1.0
176
     1
 76
     1
176
     1
 77
     6
176
     1
 78
     2
176
     1
 67
     7
176
     1
 79
     5
176
     1
170
     0
176
     1
171
     0
176
     1
290
     0
176
     1
 93
        1
176
     1
 44
50.0
176
     1
173
     0
176
     1
  0
VISUALSTYLE
  5
3A
102
{ACAD_REACTORS
330
2A
102
}
330
2A
100
AcDbVisualStyle
  2
ColorChange
 70
    16
177
     2
291
     1
 71
     2
176
     1
 72
     2
176
     1
 73
     3
176
     1
 90
        0
176
     1
 40
-0.6
176
     1
 41
-30.0
176
     1
 62
     5
 63
     8
421
  8421504
176
     1
 74
     1
176
     1
 91
        4
176
     1
 64
     7
176
     1
 65
   257
176
     1
 75
     1
176
     1
175
     1
176
     1
 42
1.0
176
     1
 92
        8
176
     1
 66
     8
424
  8421504
176
     1
 43
1.0
176
     1
 76
     1
176
     1
 77
     6
176
     1
 78
     2
176
     1
 67
     7
176
     1
 79
     5
176
     1
170
     0
176
     1
171
     0
176
     1
290
     0
176
     1
 93
        1
176
     1
 44
0.0
176
     1
173
     0
176
     1
  0
VISUALSTYLE
  5
34
102
{ACAD_REACTORS
330
2A
102
}
330
2A
100
AcDbVisualStyle
  2
Conceptual
 70
     9
177
     2
291
     0
 71
     3
176
     1
 72
     2
176
     1
 73
     0
176
     1
 90
        0
176
     1
 40
-0.6
176
     1
 41
-30.0
176
     1
 62
     5
 63
     7
421
 16777215
176
     1
 74
     2
176
     1
 91
        2
176
     1
 64
     7
176
     1
 65
   257
176
     1
 75
     1
176
     1
175
     1
176
     1
 42
40.0
176
     1
 92
        8
176
     1
 66
     7
176
     1
 43
1.0
176
     1
 76
     1
176
     1
 77
     6
176
     1
 78
     2
176
     1
 67
     7
176
     1
 79
     3
176
     1
170
     0
176
     1
171
     0
176
     1
290
     0
176
     1
 93
        1
176
     1
 44
0.0
176
     1
173
     0
176
     1
  0
VISUALSTYLE
  5
35
102
{ACAD_REACTORS
330
2A
102
}
330
2A
100
AcDbVisualStyle
  2
Dim
 70
    11
177
     2
291
     1
 71
     2
176
     1
 72
     2
176
     1
 73
     0
176
     1
 90
        0
176
     1
 40
-0.6
176
     1
 41
-30.0
176
     1
 62
     5
 63
     7
421
 16777215
176
     1
 74
     1
176
     1
 91
        4
176
     1
 64
     7
176
     1
 65
   257
176
     1
 75
     1
176
     1
175
     1
176
     1
 42
1.0
176
     1
 92
        8
176
     1
 66
     7
176
     1
 43
1.0
176
     1
 76
     1
176
     1
 77
     6
176
     1
 78
     2
176
     1
 67
     7
176
     1
 79
     5
176
     1
170
     0
176
     1
171
     0
176
     1
290
     0
176
     1
 93
        1
176
     1
 44
-50.0
176
     1
173
     0
176
     1
  0
VISUALSTYLE
  5
39
102
{ACAD_REACTORS
330
2A
102
}
330
2A
100
AcDbVisualStyle
  2
Facepattern
 70
    15
177
     2
291
     1
 71
     2
176
     1
 72
     2
176
     1
 73
     0
176
     1
 90
        0
176
     1
 40
-0.6
176
     1
 41
-30.0
176
     1
 62
     5
 63
     7
421
 16777215
176
     1
 74
     1
176
     1
 91
        4
176
     1
 64
     7
176
     1
 65
   257
176
     1
 75
     1
176
     1
175
     1
176
     1
 42
1.0
176
     1
 92
        8
176
     1
 66
     7
176
     1
 43
1.0
176
     1
 76
     1
176
     1
 77
     6
176
     1
 78
     2
176
     1
 67
     7
176
     1
 79
     5
176
     1
170
     0
176
     1
171
     0
176
     1
290
     0
176
     1
 93
        1
176
     1
 44
0.0
176
     1
173
     0
176
     1
  0
VISUALSTYLE
  5
2B
102
{ACAD_REACTORS
330
2A
102
}
330
2A
100
AcDbVisualStyle
  2
Flat
 70
     0
177
     2
291
     1
 71
     2
176
     1
 72
     1
176
     1
 73
     1
176
     1
 90
        2
176
     1
 40
-0.6
176
     1
 41
30.0
176
     1
 62
     5
 63
     7
421
 16777215
176
     1
 74
     0
176
     1
 91
        4
176
     1
 64
     7
176
     1
 65
   257
176
     1
 75
     1
176
     1
175
     1
176
     1
 42
1.0
176
     1
 92
        8
176
     1
 66
     7
176
     1
 43
1.0
176
     1
 76
     1
176
     1
 77
     6
176
     1
 78
     2
176
     1
 67
     7
176
     1
 79
     5
176
     1
170
     0
176
     1
171
     0
176
     1
290
     0
176
     1
 93
       13
176
     1
 44
0.0
176
     1
173
     0
176
     1
  0
VISUALSTYLE
  5
2C
102
{ACAD_REACTORS
330
2A
102
}
330
2A
100
AcDbVisualStyle
  2
FlatWithEdges
 70
     1
177
     2
291
     1
 71
     2
176
     1
 72
     1
176
     1
 73
     1
176
     1
 90
        2
176
     1
 40
-0.6
176
     1
 41
30.0
176
     1
 62
     5
 63
     7
421
 16777215
176
     1
 74
     1
176
     1
 91
        4
176
     1
 64
     7
176
     1
 65
   257
176
     1
 75
     1
176
     1
175
     1
176
     1
 42
1.0
176
     1
 92
        0
176
     1
 66
   257
176
     1
 43
1.0
176
     1
 76
     1
176
     1
 77
     6
176
     1
 78
     2
176
     1
 67
     7
176
     1
 79
     5
176
     1
170
     0
176
     1
171
     0
176
     1
290
     0
176
     1
 93
       13
176
     1
 44
0.0
176
     1
173
     0
176
     1
  0
VISUALSTYLE
  5
2D
102
{ACAD_REACTORS
330
2A
102
}
330
2A
100
AcDbVisualStyle
  2
Gouraud
 70
     2
177
     2
291
     1
 71
     2
176
     1
 72
     2
176
     1
 73
     1
176
     1
 90
        2
176
     1
 40
-0.6
176
     1
 41
30.0
176
     1
 62
     5
 63
     7
421
 16777215
176
     1
 74
     0
176
     1
 91
        4
176
     1
 64
     7
176
     1
 65
   257
176
     1
 75
     1
176
     1
175
     1
176
     1
 42
1.0
176
     1
 92
        0
176
     1
 66
     7
176
     1
 43
1.0
176
     1
 76
     1
176
     1
 77
     6
176
     1
 78
     2
176
     1
 67
     7
176
     1
 79
     5
176
     1
170
     0
176
     1
171
     0
176
     1
290
     0
176
     1
 93
       13
176
     1
 44
0.0
176
     1
173
     0
176
     1
  0
VISUALSTYLE
  5
2E
102
{ACAD_REACTORS
330
2A
102
}
330
2A
100
AcDbVisualStyle
  2
GouraudWithEdges
 70
     3
177
     2
291
     1
 71
     2
176
     1
 72
     2
176
     1
 73
     1
176
     1
 90
        2
176
     1
 40
-0.6
176
     1
 41
30.0
176
     1
 62
     5
 63
     7
421
 16777215
176
     1
 74
     1
176
     1
 91
        4
176
     1
 64
     7
176
     1
 65
   257
176
     1
 75
     1
176
     1
175
     1
176
     1
 42
1.0
176
     1
 92
        0
176
     1
 66
   257
176
     1
 43
1.0
176
     1
 76
     1
176
     1
 77
     6
176
     1
 78
     2
176
     1
 67
     7
176
     1
 79
     5
176
     1
170
     0
176
     1
171
     0
176
     1
290
     0
176
     1
 93
       13
176
     1
 44
0.0
176
     1
173
     0
176
     1
  0
VISUALSTYLE
  5
38
102
{ACAD_REACTORS
330
2A
102
}
330
2A
100
AcDbVisualStyle
  2
Linepattern
 70
    14
177
     2
291
     1
 71
     2
176
     1
 72
     2
176
     1
 73
     0
176
     1
 90
        0
176
     1
 40
-0.6
176
     1
 41
-30.0
176
     1
 62
     5
 63
     7
421
 16777215
176
     1
 74
     1
176
     1
 91
        4
176
     1
 64
     7
176
     1
 65
   257
176
     1
 75
     7
176
     1
175
     7
176
     1
 42
1.0
176
     1
 92
        8
176
     1
 66
     7
176
     1
 43
1.0
176
     1
 76
     1
176
     1
 77
     6
176
     1
 78
     2
176
     1
 67
     7
176
     1
 79
     5
176
     1
170
     0
176
     1
171
     0
176
     1
290
     0
176
     1
 93
        1
176
     1
 44
0.0
176
     1
173
     0
176
     1
  0
VISUALSTYLE
  5
33
102
{ACAD_REACTORS
330
2A
102
}
330
2A
100
AcDbVisualStyle
  2
Realistic
 70
     8
177
     2
291
     0
 71
     2
176
     1
 72
     2
176
     1
 73
     0
176
     1
 90
        0
176
     1
 40
-0.6
176
     1
 41
-30.0
176
     1
 62
     5
 63
     7
421
 16777215
176
     1
 74
     1
176
     1
 91
        0
176
     1
 64
     7
176
     1
 65
   257
176
     1
 75
     1
176
     1
175
     1
176
     1
 42
1.0
176
     1
 92
        8
176
     1
 66
     8
424
  7895160
176
     1
 43
1.0
176
     1
 76
     1
176
     1
 77
     6
176
     1
 78
     2
176
     1
 67
     7
176
     1
 79
     5
176
     1
170
     0
176
     1
171
     0
176
     1
290
     0
176
     1
 93
       13
176
     1
 44
0.0
176
     1
173
     0
176
     1
  0
VISUALSTYLE
  5
37
102
{ACAD_REACTORS
330
2A
102
}
330
2A
100
AcDbVisualStyle
  2
Thicken
 70
    13
177
     2
291
     1
 71
     2
176
     1
 72
     2
176
     1
 73
     0
176
     1
 90
        0
176
     1
 40
-0.6
176
     1
 41
-30.0
176
     1
 62
     5
 63
     7
421
 16777215
176
     1
 74
     1
176
     1
 91
        4
176
     1
 64
     7
176
     1
 65
   257
176
     1
 75
     1
176
     1
175
     1
176
     1
 42
1.0
176
     1
 92
       12
176
     1
 66
     7
176
     1
 43
1.0
176
     1
 76
     1
176
     1
 77
     6
176
     1
 78
     2
176
     1
 67
     7
176
     1
 79
     5
176
     1
170
     0
176
     1
171
     0
176
     1
290
     0
176
     1
 93
        1
176
     1
 44
0.0
176
     1
173
     0
176
     1
  0
ENDSEC
  0
EOF
