<?xml version="1.0" standalone="no"?>
<!DOCTYPE svg PUBLIC "-//W3C//DTD SVG 1.1//EN"
  "http://www.w3.org/Graphics/SVG/1.1/DTD/svg11.dtd">
<svg width="190.97999572753906mm" height="113.25mm" viewBox="-95.48999786376953 -56.625 190.97999572753906 113.25" xmlns="http://www.w3.org/2000/svg" version="1.1">
	<title>svgOutput</title>
	<desc>made with tinkercad</desc>
<path d="M -79.94100189208984 9.262999534606934 L -79.25399780273438 10.279999732971191 L -79.00199890136719 11.524999618530273 L -79.00186920166016 16.384000778198242 L -79.00141143798828 32.768001556396484 L -79.0009994506836 47.625 L -75.74199676513672 47.625 L -75.74199676513672 47.62699890136719 L -65.53600311279297 47.62699890136719 L 0 47.62699890136719 L 16.384000778198242 47.62699890136719 L 32.768001556396484 47.62699890136719 L 65.53600311279297 47.62699890136719 L 77.26300048828125 47.62699890136719 L 77.26300048828125 47.625 L 81.91999816894531 47.625 L 86.48999786376953 47.625 L 86.48999786376953 32.768001556396484 L 86.48999786376953 0.8400311470031739 L 86.48999786376953 1.1102230246251565e-16 L 86.48999786376953 -0.8400311470031737 L 86.48999786376953 -4.641192436218262 L 86.48999786376953 -8.192000389099121 L 86.48999786376953 -8.623000144958496 L 88.31300354003906 -8.623000144958496 L 88.31300354003906 -12.04800033569336 L 90.11199951171875 -12.04800033569336 L 94.31199645996094 -12.04800033569336 L 94.48999786376953 -12.062000274658203 L 94.48999786376953 -12.04800033569336 L 94.48999786376953 -8.192000389099121 L 94.48999786376953 1.1102230246251565e-16 L 94.48999786376953 0.8400311470031739 L 94.48999786376953 2.4599688053131104 L 94.48999786376953 32.768001556396484 L 94.48999786376953 49.152000427246094 L 94.48999786376953 49.87208557128906 L 94.48999786376953 51.625 L 94.40899658203125 52.430999755859375 L 94.1760025024414 53.18199920654297 L 93.80699920654297 53.861000061035156 L 93.31900024414062 54.452999114990234 L 92.72699737548828 54.94200134277344 L 92.0469970703125 55.31100082397461 L 91.2959976196289 55.54399871826172 L 90.48999786376953 55.625 L 90.11199951171875 55.625 L 81.91999816894531 55.625 L 77.26300048828125 55.625 L 65.53600311279297 55.625 L 32.768001556396484 55.625 L 16.384000778198242 55.625 L 8.192000389099121 55.625 L 4.0960001945495605 55.625 L 0 55.625 L -65.53600311279297 55.625 L -73.72799682617188 55.625 L -77.8239974975586 55.625 L -78.20099639892578 55.625 L -78.9800033569336 55.46799850463867 L -79.61499786376953 55.03900146484375 L -80.04399871826172 54.40399932861328 L -80.20099639892578 53.625 L -80.2020034790039 53.625 L -80.2020034790039 53.62003707885742 L -80.2020034790039 49.152000427246094 L -80.2020034790039 32.768001556396484 L -80.2020034790039 16.384000778198242 L -80.2020034790039 11.524999618530273 L -80.35900115966797 10.746999740600586 L -80.78800201416016 10.111000061035156 L -81.42400360107422 9.682000160217285 L -81.91999816894531 9.581907272338867 L -82.2020034790039 9.524999618530273 L -84.82443237304688 9.524999618530273 L -87.6976089477539 9.524999618530273 L -87.72699737548828 9.524999618530273 L -88.50599670410156 9.368000030517578 L -88.52799987792969 9.353137016296387 L -89.14099884033203 8.939000129699707 L -89.56999969482422 8.303999900817871 L -89.72699737548828 7.525000095367432 L -89.72699737548828 1.1102230246251565e-16 L -89.72699737548828 -7.525000095367432 L -89.86160278320312 -8.192000389099121 L -89.88400268554688 -8.303000450134277 L -90.11199951171875 -8.641014099121094 L -90.31300354003906 -8.939000129699707 L -90.61709594726562 -9.143640518188477 L -90.9489974975586 -9.366999626159668 L -91.72699737548828 -9.52400016784668 L -92.46273040771484 -9.52400016784668 L -92.48999786376953 -9.52400016784668 L -93.26799774169922 -9.682000160217285 L -93.90399932861328 -10.109999656677246 L -94.33300018310547 -10.746000289916992 L -94.43910217285156 -11.271777153015137 L -94.48999786376953 -11.52400016784668 L -94.48999786376953 -13.177528381347656 L -94.48999786376953 -16.384000778198242 L -94.48999786376953 -24.576000213623047 L -94.48999786376953 -26.548145294189453 L -94.48999786376953 -26.575000762939453 L -94.33300018310547 -27.35300064086914 L -94.31816101074219 -27.375 L -93.90399932861328 -27.98900032043457 L -93.26799774169922 -28.417999267578125 L -92.48999786376953 -28.575000762939453 L -90.11199951171875 -28.575000762939453 L -86.96399688720703 -28.575000762939453 L -86.18599700927734 -28.73200035095215 L -85.55000305175781 -29.160999298095703 L -85.12200164794922 -29.79599952697754 L -84.96399688720703 -30.575000762939453 L -84.96399688720703 -32.768001556396484 L -84.96399688720703 -47.625 L -84.96399688720703 -50.87710189819336 L -84.96399688720703 -53.625 L -84.80699920654297 -54.40299987792969 L -84.37899780273438 -55.03900146484375 L -83.74299621582031 -55.46799850463867 L -82.96499633789062 -55.625 L -81.91999816894531 -55.625 L -77.93604278564453 -55.625 L -73.72799682617188 -55.625 L -71.2831039428711 -55.625 L -70.74299621582031 -55.625 L -70.74299621582031 -49.152000427246094 L -70.74299621582031 -47.62799835205078 L -71.2831039428711 -47.62799835205078 L -75.74199676513672 -47.62799835205078 L -75.74199676513672 -47.625 L -81.91999816894531 -47.625 L -83.76499938964844 -47.625 L -83.76499938964844 -32.768001556396484 L -83.76499938964844 -30.575000762939453 L -84.01599884033203 -29.329999923706055 L -84.7020034790039 -28.312999725341797 L -84.96399688720703 -28.136272430419922 L -85.71900177001953 -27.62700080871582 L -86.96499633789062 -27.375 L -90.11199951171875 -27.375 L -92.48999786376953 -27.375 L -93.05599975585938 -27.141000747680664 L -93.29000091552734 -26.575000762939453 L -93.29000091552734 -24.576000213623047 L -93.29000091552734 -16.384000778198242 L -93.29000091552734 -12.368088722229004 L -93.29000091552734 -11.524999618530273 L -93.07130432128906 -10.996020317077637 L -93.05599975585938 -10.958999633789062 L -92.48999786376953 -10.725000381469727 L -91.72699737548828 -10.725000381469727 L -90.48200225830078 -10.473999977111816 L -90.11199951171875 -10.224422454833984 L -89.46499633789062 -9.788000106811523 L -88.77899932861328 -8.770999908447266 L -88.66236114501953 -8.192000389099121 L -88.52799987792969 -7.525000095367432 L -88.52799987792969 1.1102230246251565e-16 L -88.52799987792969 7.044759273529053 L -88.52799987792969 7.525000095367432 L -88.29299926757812 8.090999603271484 L -87.72699737548828 8.324999809265137 L -82.2030029296875 8.324999809265137 L -81.91999816894531 8.382282257080078 L -80.95800018310547 8.57699966430664 L -80.77152252197266 8.702786445617676 L -79.94100189208984 9.262999534606934 M 91.2959976196289 -55.54399871826172 L 92.0469970703125 -55.310001373291016 L 92.37200927734375 -55.133853912353516 L 92.72599792480469 -54.94200134277344 L 93.31800079345703 -54.452999114990234 L 93.80699920654297 -53.861000061035156 L 94.1760025024414 -53.18199920654297 L 94.40899658203125 -52.430999755859375 L 94.4385757446289 -52.13671875 L 94.48999786376953 -51.625 L 94.48999786376953 -49.152000427246094 L 94.48999786376953 -32.768001556396484 L 94.48999786376953 -31.91021156311035 L 94.48999786376953 -30.346227645874023 L 94.48999786376953 -30.09912872314453 L 94.48999786376953 -26.05299949645996 L 94.48999786376953 -26.038999557495117 L 94.31199645996094 -26.05299949645996 L 90.11199951171875 -26.05299949645996 L 88.31300354003906 -26.05299949645996 L 88.31300354003906 -29.628000259399414 L 86.48999786376953 -29.628000259399414 L 86.48999786376953 -32.768001556396484 L 86.48999786376953 -47.625 L 81.91999816894531 -47.625 L 77.26300048828125 -47.625 L 77.26300048828125 -47.62799835205078 L 67.36299896240234 -47.62799835205078 L 67.36299896240234 -49.52799987792969 L 65.53600311279297 -49.52799987792969 L 32.768001556396484 -49.52799987792969 L 30.35700035095215 -49.52799987792969 L 30.35700035095215 -47.62799835205078 L 16.384000778198242 -47.62799835205078 L 0 -47.62799835205078 L -51.73699951171875 -47.62799835205078 L -51.73699951171875 -55.625 L 0 -55.625 L 4.0960001945495605 -55.625 L 6.714125156402588 -55.625 L 8.192000389099121 -55.625 L 16.384000778198242 -55.625 L 32.768001556396484 -55.625 L 65.53600311279297 -55.625 L 67.36299896240234 -55.625 L 81.91999816894531 -55.625 L 90.11199951171875 -55.625 L 90.48999786376953 -55.625 L 90.61100006103516 -55.61283874511719 L 91.2959976196289 -55.54399871826172 M 91.54000091552734 51.025001525878906 L 91.41000366210938 50.382999420166016 L 91.05599975585938 49.85900115966797 L 90.53199768066406 49.505001068115234 L 90.11199951171875 49.419952392578125 L 89.88999938964844 49.375 L 89.24800109863281 49.505001068115234 L 88.7229995727539 49.85900115966797 L 88.36900329589844 50.382999420166016 L 88.23999786376953 51.025001525878906 L 88.36900329589844 51.66699981689453 L 88.7229995727539 52.19200134277344 L 89.24800109863281 52.54600143432617 L 89.88999938964844 52.67499923706055 L 90.11199951171875 52.630393981933594 L 90.53199768066406 52.54600143432617 L 91.05599975585938 52.19200134277344 L 91.41000366210938 51.66699981689453 L 91.54000091552734 51.025001525878906 M -75.56199645996094 53.145999908447266 L -75.03800201416016 52.79199981689453 L -74.68399810791016 52.268001556396484 L -74.55400085449219 51.625 L -74.68399810791016 50.983001708984375 L -75.03800201416016 50.45899963378906 L -75.56199645996094 50.10499954223633 L -76.2040023803711 49.974998474121094 L -76.84700012207031 50.10499954223633 L -77.37100219726562 50.45899963378906 L -77.7249984741211 50.983001708984375 L -77.8239974975586 51.4756965637207 L -77.85399627685547 51.625 L -77.8239974975586 51.7745361328125 L -77.7249984741211 52.268001556396484 L -77.37100219726562 52.79199981689453 L -76.84700012207031 53.145999908447266 L -76.33858489990234 53.24800109863281 L -76.2040023803711 53.275001525878906 L -76.06962585449219 53.24800109863281 L -75.56199645996094 53.145999908447266 M 90.53199768066406 -52.54499816894531 L 90.11199951171875 -52.63004684448242 L 89.88999938964844 -52.67499923706055 L 89.24800109863281 -52.54499816894531 L 88.7229995727539 -52.19200134277344 L 88.36900329589844 -51.66699981689453 L 88.23999786376953 -51.025001525878906 L 88.36900329589844 -50.382999420166016 L 88.7229995727539 -49.858001708984375 L 89.24800109863281 -49.505001068115234 L 89.88999938964844 -49.375 L 90.11199951171875 -49.419952392578125 L 90.53199768066406 -49.505001068115234 L 91.05599975585938 -49.858001708984375 L 91.41000366210938 -50.382999420166016 L 91.54000091552734 -51.025001525878906 L 91.41000366210938 -51.66699981689453 L 91.05599975585938 -52.19200134277344 L 90.53199768066406 -52.54499816894531 M 92.01000213623047 0.6420000195503236 L 92.13999938964844 1.1102230246251565e-16 L 92.01000213623047 -0.6420000195503234 L 91.65699768066406 -1.1670000553131104 L 91.13200378417969 -1.5199999809265137 L 90.48999786376953 -1.649999976158142 L 89.8479995727539 -1.5199999809265137 L 89.322998046875 -1.1670000553131104 L 88.97000122070312 -0.6420000195503234 L 88.83999633789062 1.1102230246251565e-16 L 88.97000122070312 0.6420000195503236 L 89.322998046875 1.1670000553131104 L 89.8479995727539 1.5199999809265137 L 90.48999786376953 1.649999976158142 L 91.13200378417969 1.5199999809265137 L 91.65699768066406 1.1670000553131104 L 92.01000213623047 0.6420000195503236 M 6.835000038146973 49.972999572753906 L 6.323999881744385 50.053001403808594 L 5.863999843597412 50.28799819946289 L 5.498000144958496 50.65399932861328 L 5.263000011444092 51.11399841308594 L 5.249536037445068 51.20000076293945 L 5.183000087738037 51.625 L 5.263000011444092 52.13600158691406 L 5.498000144958496 52.59600067138672 L 5.863999843597412 52.96200180053711 L 6.323999881744385 53.196998596191406 L 6.645740509033203 53.24800109863281 L 6.835000038146973 53.27799987792969 L 7.024259090423584 53.24800109863281 L 7.3460001945495605 53.196998596191406 L 7.806000232696533 52.96200180053711 L 8.17199993133545 52.59600067138672 L 8.192000389099121 52.55685043334961 L 8.406999588012695 52.13600158691406 L 8.48799991607666 51.625 L 8.406999588012695 51.11399841308594 L 8.192000389099121 50.69314956665039 L 8.17199993133545 50.65399932861328 L 7.806000232696533 50.28799819946289 L 7.3460001945495605 50.053001403808594 L 6.835000038146973 49.972999572753906 M 4.434999942779541 -53.327999114990234 L 4.0960001945495605 -53.27426528930664 L 3.9240000247955322 -53.24700164794922 L 3.4639999866485596 -53.012001037597656 L 3.0980000495910645 -52.645999908447266 L 2.86299991607666 -52.18600082397461 L 2.7829999923706055 -51.67499923706055 L 2.86299991607666 -51.16400146484375 L 3.0980000495910645 -50.70399856567383 L 3.4639999866485596 -50.3380012512207 L 3.9240000247955322 -50.10300064086914 L 4.0960001945495605 -50.076072692871094 L 4.434999942779541 -50.02299880981445 L 4.946000099182129 -50.10300064086914 L 5.406000137329102 -50.3380012512207 L 5.771999835968018 -50.70399856567383 L 6.006999969482422 -51.16400146484375 L 6.0879998207092285 -51.67499923706055 L 6.006999969482422 -52.18600082397461 L 5.771999835968018 -52.645999908447266 L 5.406000137329102 -53.012001037597656 L 4.946000099182129 -53.24700164794922 L 4.434999942779541 -53.327999114990234 M -79.7979965209961 -50.45800018310547 L -79.44400024414062 -50.981998443603516 L -79.31500244140625 -51.625 L -79.44400024414062 -52.266998291015625 L -79.7979965209961 -52.79100036621094 L -80.3219985961914 -53.14500045776367 L -80.96499633789062 -53.275001525878906 L -81.60700225830078 -53.14500045776367 L -81.91999816894531 -52.93354415893555 L -82.13099670410156 -52.79100036621094 L -82.48500061035156 -52.266998291015625 L -82.61499786376953 -51.625 L -82.48500061035156 -50.981998443603516 L -82.13099670410156 -50.45800018310547 L -81.91999816894531 -50.315452575683594 L -81.60700225830078 -50.104000091552734 L -80.96499633789062 -49.974998474121094 L -80.3219985961914 -50.104000091552734 L -79.7979965209961 -50.45800018310547 z" fill="none" stroke="rgb(255,0,0)" stroke-width="0.001mm" />
</svg>