<?xml version="1.0" standalone="no"?>
<!DOCTYPE svg PUBLIC "-//W3C//DTD SVG 1.1//EN"
  "http://www.w3.org/Graphics/SVG/1.1/DTD/svg11.dtd">
<svg width="195.63999938964844mm" height="113.19000244140625mm" viewBox="-97.81999969482422 -56.595001220703125 195.63999938964844 113.19000244140625" xmlns="http://www.w3.org/2000/svg" version="1.1">
	<title>svgOutput</title>
	<desc>made with tinkercad</desc>
<path d="M 87.30000305175781 -7.520999908447266 L 87.30000305175781 -7.493558406829834 L 87.30000305175781 -4.625978469848633 L 87.30000305175781 1.1102230246251565e-16 L 87.30000305175781 7.520999908447266 L 87.43540954589844 8.192000389099121 L 87.45700073242188 8.298999786376953 L 87.88600158691406 8.934000015258789 L 88.52100372314453 9.36299991607666 L 89.29900360107422 9.520000457763672 L 90.11199951171875 9.520000457763672 L 91.93319702148438 9.520000457763672 L 94.79309844970703 9.520000457763672 L 94.82099914550781 9.520000457763672 L 95.5989990234375 9.677000045776367 L 95.62100219726562 9.691828727722168 L 96.23400115966797 10.104999542236328 L 96.66300201416016 10.741000175476074 L 96.81999969482422 11.519000053405762 L 96.81999969482422 16.384000778198242 L 96.81999969482422 32.768001556396484 L 96.81999969482422 47.599998474121094 L 96.81999969482422 49.152000427246094 L 96.81999969482422 53.59600067138672 L 96.66300201416016 54.375 L 96.23400115966797 55.0099983215332 L 95.5989990234375 55.4379997253418 L 95.25474548339844 55.507469177246094 L 94.82099914550781 55.595001220703125 L 94.20800018310547 55.595001220703125 L 92.0727767944336 55.595001220703125 L 90.11199951171875 55.595001220703125 L 81.91999816894531 55.595001220703125 L 65.53600311279297 55.595001220703125 L 0 55.595001220703125 L -0.845436155796051 55.595001220703125 L -2.4645638465881348 55.595001220703125 L -4.650801658630371 55.595001220703125 L -8.815887451171875 55.595001220703125 L -65.53600311279297 55.595001220703125 L -81.91999816894531 55.595001220703125 L -90.11199951171875 55.595001220703125 L -92.8219985961914 55.595001220703125 L -93.62799835205078 55.513999938964844 L -94.20800018310547 55.33381271362305 L -94.37799835205078 55.28099822998047 L -95.05799865722656 54.9119987487793 L -95.64900207519531 54.42399978637695 L -96.13800048828125 53.83300018310547 L -96.50599670410156 53.15299987792969 L -96.73899841308594 52.40299987792969 L -96.81999969482422 51.59700012207031 L -96.81999969482422 49.152000427246094 L -96.81999969482422 47.599998474121094 L -96.81999969482422 32.768001556396484 L -96.81999969482422 27.887493133544922 L -96.81999969482422 1.1102230246251565e-16 L -96.81999969482422 -0.839436113834381 L -96.81999969482422 -32.768001556396484 L -96.81999969482422 -47.5989990234375 L -96.81999969482422 -49.152000427246094 L -96.81999969482422 -51.59700012207031 L -96.73899841308594 -52.40299987792969 L -96.50599670410156 -53.15299987792969 L -96.13700103759766 -53.832000732421875 L -95.64900207519531 -54.42399978637695 L -95.05699920654297 -54.9119987487793 L -94.37799835205078 -55.28099822998047 L -94.20800018310547 -55.33381271362305 L -93.62799835205078 -55.513999938964844 L -92.8219985961914 -55.595001220703125 L -90.11199951171875 -55.595001220703125 L -81.91999816894531 -55.595001220703125 L -81.0962905883789 -55.595001220703125 L -77.9768295288086 -55.595001220703125 L -76.74874877929688 -55.595001220703125 L -74.23242950439453 -55.595001220703125 L -73.95919799804688 -55.595001220703125 L -72.28529357910156 -55.595001220703125 L -70.78810119628906 -55.595001220703125 L -70.24800109863281 -55.595001220703125 L -70.24800109863281 -47.5989990234375 L -70.78810119628906 -47.5989990234375 L -72.35736846923828 -47.5989990234375 L -73.97389221191406 -47.5989990234375 L -74.23242950439453 -47.5989990234375 L -76.74874877929688 -47.5989990234375 L -77.93990325927734 -47.5989990234375 L -81.13976287841797 -47.5989990234375 L -81.91999816894531 -47.5989990234375 L -88.8239974975586 -47.5989990234375 L -88.8239974975586 -32.768001556396484 L -88.8239974975586 -2.458563804626465 L -88.8239974975586 1.1102230246251565e-16 L -88.8239974975586 32.768001556396484 L -88.8239974975586 47.599998474121094 L -81.91999816894531 47.599998474121094 L -65.53600311279297 47.599998474121094 L 0 47.599998474121094 L 27.876554489135742 47.599998474121094 L 65.53600311279297 47.599998474121094 L 81.91999816894531 47.599998474121094 L 95.62100219726562 47.599998474121094 L 95.62100219726562 32.768001556396484 L 95.62100219726562 16.384000778198242 L 95.62100219726562 11.519000053405762 L 95.38700103759766 10.954000473022461 L 94.82099914550781 10.718999862670898 L 90.11199951171875 10.718999862670898 L 89.29900360107422 10.718999862670898 L 89.05928039550781 10.670670509338379 L 88.05400085449219 10.468000411987305 L 87.03800201416016 9.782999992370605 L 86.35199737548828 8.765999794006348 L 86.23627471923828 8.192000389099121 L 86.10099792480469 7.520999908447266 L 86.10099792480469 1.1102230246251565e-16 L 86.10099792480469 -7.520999908447266 L 85.86699676513672 -8.086000442504883 L 85.61060333251953 -8.192000389099121 L 85.3010025024414 -8.319999694824219 L 84.53900146484375 -8.319999694824219 L 84.29912567138672 -8.368552207946777 L 83.29399871826172 -8.571999549865723 L 83.10938262939453 -8.696471214294434 L 82.54000091552734 -9.08035659790039 L 82.27799987792969 -9.256999969482422 L 81.91999816894531 -9.787737846374512 L 81.59200286865234 -10.27400016784668 L 81.34100341796875 -11.519000053405762 L 81.34100341796875 -16.384000778198242 L 81.34100341796875 -26.56100082397461 L 81.59200286865234 -27.805999755859375 L 81.91999816894531 -28.29249382019043 L 82.10035705566406 -28.559999465942383 L 82.2770004272461 -28.82200050354004 L 83.29399871826172 -29.506999969482422 L 84.53900146484375 -29.759000778198242 L 90.06099700927734 -29.759000778198242 L 90.11199951171875 -29.78008460998535 L 90.62699890136719 -29.993000030517578 L 90.86100006103516 -30.558000564575195 L 90.86100006103516 -32.768001556396484 L 90.86100006103516 -47.5989990234375 L 81.91999816894531 -47.5989990234375 L 76.80799865722656 -47.5989990234375 L 76.80799865722656 -55.595001220703125 L 81.91999816894531 -55.595001220703125 L 86.01599884033203 -55.595001220703125 L 90.06199645996094 -55.595001220703125 L 90.11199951171875 -55.58491134643555 L 90.83999633789062 -55.4379997253418 L 91.4749984741211 -55.0099983215332 L 91.90299987792969 -54.374000549316406 L 92.06099700927734 -53.59600067138672 L 92.06099700927734 -49.152000427246094 L 92.06099700927734 -47.5989990234375 L 92.06099700927734 -32.768001556396484 L 92.06099700927734 -30.558000564575195 L 91.90299987792969 -29.780000686645508 L 91.4749984741211 -29.145000457763672 L 90.86100006103516 -28.73115348815918 L 90.83999633789062 -28.716999053955078 L 90.11199951171875 -28.57008934020996 L 90.06199645996094 -28.559999465942383 L 87.16085815429688 -28.559999465942383 L 84.53900146484375 -28.559999465942383 L 83.76100158691406 -28.402999877929688 L 83.1259994506836 -27.974000930786133 L 82.6969985961914 -27.339000701904297 L 82.64119720458984 -27.06248664855957 L 82.54000091552734 -26.56100082397461 L 82.54000091552734 -24.576000213623047 L 82.54000091552734 -16.384000778198242 L 82.54000091552734 -15.128217697143555 L 82.54000091552734 -11.74359130859375 L 82.54000091552734 -11.517999649047852 L 82.6969985961914 -10.739999771118164 L 83.1259994506836 -10.104999542236328 L 83.43026733398438 -9.899916648864746 L 83.76100158691406 -9.677000045776367 L 84.53900146484375 -9.520000457763672 L 85.3010025024414 -9.520000457763672 L 86.0790023803711 -9.362000465393066 L 86.40324401855469 -9.14379596710205 L 86.71499633789062 -8.934000015258789 L 87.12884521484375 -8.319999694824219 L 87.14299774169922 -8.298999786376953 L 87.16458892822266 -8.192000389099121 L 87.30000305175781 -7.520999908447266 M 57.801998138427734 -47.5989990234375 L 0 -47.5989990234375 L -16.384000778198242 -47.5989990234375 L -32.768001556396484 -47.5989990234375 L -50.24300003051758 -47.5989990234375 L -50.24300003051758 -55.595001220703125 L -32.768001556396484 -55.595001220703125 L -16.384000778198242 -55.595001220703125 L -14.095372200012207 -55.595001220703125 L 0 -55.595001220703125 L 57.801998138427734 -55.595001220703125 L 57.801998138427734 -47.5989990234375 M -1.2389999628067017 -50.430999755859375 L -0.8849999904632568 -50.95500183105469 L -0.7559999823570251 -51.59700012207031 L -0.8849999904632568 -52.23899841308594 L -1.2389999628067017 -52.76300048828125 L -1.7630000114440918 -53.117000579833984 L -2.4049999713897705 -53.24599838256836 L -3.046999931335449 -53.117000579833984 L -3.571000099182129 -52.76300048828125 L -3.9240000247955322 -52.23899841308594 L -4.053999900817871 -51.59700012207031 L -3.9240000247955322 -50.95500183105469 L -3.571000099182129 -50.430999755859375 L -3.046999931335449 -50.077999114990234 L -2.4049999713897705 -49.948001861572266 L -1.7630000114440918 -50.077999114990234 L -1.2389999628067017 -50.430999755859375 M -93.38800048828125 52.16400146484375 L -92.86399841308594 52.516998291015625 L -92.22200012207031 52.64699935913086 L -91.58000183105469 52.516998291015625 L -91.05599975585938 52.16400146484375 L -90.7030029296875 51.638999938964844 L -90.61396789550781 51.20000076293945 L -90.572998046875 50.99800109863281 L -90.7030029296875 50.35599899291992 L -91.05599975585938 49.83100128173828 L -91.58000183105469 49.47800064086914 L -92.22200012207031 49.347999572753906 L -92.86399841308594 49.47800064086914 L -93.38800048828125 49.83100128173828 L -93.74199676513672 50.35599899291992 L -93.87100219726562 50.99800109863281 L -93.8303451538086 51.20000076293945 L -93.74199676513672 51.638999938964844 L -93.38800048828125 52.16400146484375 M 1.159999966621399 50.430999755859375 L 0.6359999775886536 50.07699966430664 L 0 49.9492073059082 L -0.006000000052154064 49.948001861572266 L -0.6480000019073486 50.07699966430664 L -1.1720000505447388 50.430999755859375 L -1.524999976158142 50.95500183105469 L -1.6549999713897705 51.59700012207031 L -1.524999976158142 52.23899841308594 L -1.1720000505447388 52.76300048828125 L -0.6480000019073486 53.11600112915039 L -0.006000000052154064 53.24599838256836 L 0 53.24478530883789 L 0.6359999775886536 53.11600112915039 L 1.159999966621399 52.76300048828125 L 1.5140000581741333 52.23899841308594 L 1.6430000066757202 51.59700012207031 L 1.5140000581741333 50.95500183105469 L 1.159999966621399 50.430999755859375 M -93.74199676513672 -51.638999938964844 L -93.8303451538086 -51.20000076293945 L -93.87100219726562 -50.99800109863281 L -93.74199676513672 -50.35599899291992 L -93.38800048828125 -49.83100128173828 L -92.86399841308594 -49.47800064086914 L -92.22200012207031 -49.347999572753906 L -91.58000183105469 -49.47800064086914 L -91.05599975585938 -49.83100128173828 L -90.7030029296875 -50.35599899291992 L -90.572998046875 -50.99800109863281 L -90.61396789550781 -51.20000076293945 L -90.7030029296875 -51.638999938964844 L -91.05599975585938 -52.16400146484375 L -91.58000183105469 -52.516998291015625 L -92.22200012207031 -52.64699935913086 L -92.86399841308594 -52.516998291015625 L -93.38800048828125 -52.16400146484375 L -93.74199676513672 -51.638999938964844 M 89.6312255859375 -51.20000076293945 L 89.71099853515625 -51.59700012207031 L 89.58200073242188 -52.23899841308594 L 89.22799682617188 -52.76300048828125 L 88.7040023803711 -53.117000579833984 L 88.06199645996094 -53.24599838256836 L 87.41999816894531 -53.117000579833984 L 86.89600372314453 -52.76300048828125 L 86.54299926757812 -52.23899841308594 L 86.41300201416016 -51.59700012207031 L 86.49339294433594 -51.20000076293945 L 86.54299926757812 -50.95500183105469 L 86.89600372314453 -50.430999755859375 L 87.41999816894531 -50.077999114990234 L 88.06199645996094 -49.948001861572266 L 88.7040023803711 -50.077999114990234 L 89.22799682617188 -50.430999755859375 L 89.58200073242188 -50.95500183105469 L 89.6312255859375 -51.20000076293945 M 92.1780014038086 50.07699966430664 L 91.65399932861328 50.430999755859375 L 91.3010025024414 50.95500183105469 L 91.1709976196289 51.59700012207031 L 91.3010025024414 52.23899841308594 L 91.65399932861328 52.76300048828125 L 92.1780014038086 53.11600112915039 L 92.81999969482422 53.24599838256836 L 93.46199798583984 53.11600112915039 L 93.98600006103516 52.76300048828125 L 94.20800018310547 52.434391021728516 L 94.33999633789062 52.23899841308594 L 94.46900177001953 51.59700012207031 L 94.33999633789062 50.95500183105469 L 94.20800018310547 50.75960922241211 L 93.98600006103516 50.430999755859375 L 93.46199798583984 50.07699966430664 L 92.81999969482422 49.948001861572266 L 92.1780014038086 50.07699966430664 M -94.34200286865234 -0.6420000195503234 L -94.47100067138672 1.1102230246251565e-16 L -94.34200286865234 0.6420000195503236 L -93.98799896240234 1.1660000085830688 L -93.46399688720703 1.5190000534057617 L -92.8219985961914 1.6490000486373901 L -92.18000030517578 1.5190000534057617 L -91.65599822998047 1.1660000085830688 L -91.3030014038086 0.6420000195503236 L -91.1729965209961 1.1102230246251565e-16 L -91.3030014038086 -0.6420000195503234 L -91.65599822998047 -1.1660000085830688 L -92.18000030517578 -1.5190000534057617 L -92.8219985961914 -1.6490000486373901 L -93.46399688720703 -1.5190000534057617 L -93.98799896240234 -1.1660000085830688 L -94.34200286865234 -0.6420000195503234 z" fill="none" stroke="rgb(255,0,0)" stroke-width="0.001mm" />
</svg>